  0
SECTION
  2
HEADER
  9
$ANGBASE
  50
0.0
  9
$ANGDIR
  70
1
  9
$MEASUREMENT
  70
1
  0
ENDSEC
  0
SECTION
  2
TABLES
  0
TABLE
  2
LTYPE
  70
4
  0
LTYPE
  5
40F
  2
CONTINUOUS
  70
0
  3
Solid line
  72
65
  73
0
  40
0.0
  0
LTYPE
  5
410
  2
DASHDOT
 70
0
  3
Dash Dot ____ _ ____ _
 72
65
 73
4
 40
2.0
 49
1.25
 49
-0.25
 49
0.25
 49
-0.25
  0
LTYPE
  5
411
  2
DASHED
 70
0
  3
Dashed __ __ __ __ __
 72
65
 73
2
 40
0.75
 49
0.5
 49
-0.25
  0
LTYPE
  5
43B
  2
DOTTED
 70
0
  3
Dotted .  .  .  .
 72
65
 73
2
 40
0.2
 49
0.0
 49
-0.2
  0
ENDTAB
  0
TABLE
  2
STYLE
  70
4
  0
STYLE
  2
KICAD
  70
0
  40
0
  41
1
  42
1
  50
0
  71
0
  3
isocp.shx
  0
STYLE
  2
KICADB
  70
0
  40
0
  41
1
  42
1
  50
0
  71
0
  3
isocp.shx
  0
STYLE
  2
KICADI
  70
0
  40
0
  41
1
  42
1
  50
15
  71
0
  3
isocp.shx
  0
STYLE
  2
KICADBI
  70
0
  40
0
  41
1
  42
1
  50
15
  71
0
  3
isocp.shx
  0
ENDTAB
  0
TABLE
  2
LAYER
  70
1
  0
LAYER
  2
BLACK
  70
0
  62
7
  6
CONTINUOUS
  0
ENDTAB
  0
ENDSEC
  0
SECTION
  2
ENTITIES
0
LINE
8
BLACK
6
CONTINUOUS
10
177.596
20
-190.927
11
177.626
21
-204.268
0
ARC
8
BLACK
10
126.276
20
-204.268
40
51.35
50
180
51
360
0
ARC
8
BLACK
10
176.593
20
-190.868
40
1.00474
50
-3.39221
51
93.6163
0
ARC
8
BLACK
10
176.657
20
-170.026
40
1
50
-90
51
-0
0
LINE
8
BLACK
6
CONTINUOUS
10
74.9395
20
-165.825
11
74.926
21
-72.6944
0
LINE
8
BLACK
6
CONTINUOUS
10
171.641
20
-189.826
11
176.53
21
-189.865
0
LINE
8
BLACK
6
CONTINUOUS
10
171.641
20
-171.026
11
171.641
21
-189.826
0
LINE
8
BLACK
6
CONTINUOUS
10
176.657
20
-171.026
11
171.641
21
-171.026
0
ARC
8
BLACK
10
176.639
20
-144.025
40
1
50
-90
51
-0
0
ARC
8
BLACK
10
176.639
20
-167.625
40
1
50
-0
51
84.2894
0
LINE
8
BLACK
6
CONTINUOUS
10
177.639
20
-167.625
11
177.657
21
-170.026
0
LINE
8
BLACK
6
CONTINUOUS
10
177.626
20
-72.6944
11
177.639
21
-144.025
0
LINE
8
BLACK
6
CONTINUOUS
10
172.212
20
-145.034
11
176.639
21
-145.025
0
LINE
8
BLACK
6
CONTINUOUS
10
172.212
20
-166.634
11
172.212
21
-145.034
0
LINE
8
BLACK
6
CONTINUOUS
10
176.739
20
-166.63
11
172.212
21
-166.634
0
ARC
8
BLACK
10
155.776
20
-117.255
40
4
50
90
51
180
0
LINE
8
BLACK
6
CONTINUOUS
10
151.776
20
-117.255
11
151.776
21
-131.255
0
LINE
8
BLACK
6
CONTINUOUS
10
155.776
20
-135.255
11
169.776
21
-135.255
0
ARC
8
BLACK
10
134.776
20
-129.694
40
4
50
-0
51
90
0
ARC
8
BLACK
10
134.276
20
-163.009
40
4.5
50
-108.663
51
2.52847e-07
0
ARC
8
BLACK
10
155.776
20
-131.255
40
4
50
180
51
270
0
ARC
8
BLACK
10
117.776
20
-129.694
40
4
50
90
51
180
0
LINE
8
BLACK
6
CONTINUOUS
10
134.776
20
-125.694
11
117.776
21
-125.694
0
LINE
8
BLACK
6
CONTINUOUS
10
138.776
20
-163.009
11
138.776
21
-129.694
0
ARC
8
BLACK
10
126.276
20
-186.694
40
20.5
50
71.3371
51
108.663
0
ARC
8
BLACK
10
118.276
20
-163.009
40
4.5
50
180
51
288.663
0
LINE
8
BLACK
6
CONTINUOUS
10
113.776
20
-129.694
11
113.776
21
-163.009
0
ARC
8
BLACK
10
169.776
20
-131.255
40
4
50
-90
51
-0
0
LINE
8
BLACK
6
CONTINUOUS
10
74.926
20
-204.268
11
74.9395
21
-165.825
0
CIRCLE
8
BLACK
10
126.276
20
-186.694
40
11.5
0
CIRCLE
8
BLACK
10
126.276
20
-72.6944
40
41
0
CIRCLE
8
BLACK
10
94.276
20
-124.194
40
9.5
0
ARC
8
BLACK
10
126.276
20
-72.6944
40
51.35
50
-0
51
180
0
LINE
8
BLACK
6
CONTINUOUS
10
169.776
20
-113.255
11
155.776
21
-113.255
0
ARC
8
BLACK
10
169.776
20
-117.255
40
4
50
-0
51
90
0
LINE
8
BLACK
6
CONTINUOUS
10
173.776
20
-131.255
11
173.776
21
-117.255
0
LINE
8
BLACK
6
CONTINUOUS
10
80.9145
20
-110.875
11
83.1145
21
-113.075
0
LINE
8
BLACK
6
CONTINUOUS
10
83.1145
20
-110.875
11
80.9145
21
-113.075
0
LINE
8
BLACK
6
CONTINUOUS
10
80.9145
20
-135.35
11
83.1145
21
-137.55
0
LINE
8
BLACK
6
CONTINUOUS
10
83.1145
20
-135.35
11
80.9145
21
-137.55
0
LINE
8
BLACK
6
CONTINUOUS
10
105.414
20
-135.325
11
107.614
21
-137.525
0
LINE
8
BLACK
6
CONTINUOUS
10
107.614
20
-135.325
11
105.414
21
-137.525
0
CIRCLE
8
BLACK
10
162.79
20
-110.775
40
1.25
0
CIRCLE
8
BLACK
10
162.814
20
-137.775
40
1.25
0
LINE
8
BLACK
6
CONTINUOUS
10
80.7085
20
-54.534
11
80.7085
21
-57.734
0
LINE
8
BLACK
6
CONTINUOUS
10
79.1085
20
-56.134
11
82.3085
21
-56.134
0
LINE
8
BLACK
6
CONTINUOUS
10
89.0905
20
-102.286
11
89.0905
21
-105.486
0
LINE
8
BLACK
6
CONTINUOUS
10
87.4905
20
-103.886
11
90.6905
21
-103.886
0
LINE
8
BLACK
6
CONTINUOUS
10
93.7895
20
-205.029
11
93.7895
21
-208.229
0
LINE
8
BLACK
6
CONTINUOUS
10
92.1895
20
-206.629
11
95.3895
21
-206.629
0
LINE
8
BLACK
6
CONTINUOUS
10
107.251
20
-142.164
11
107.251
21
-145.364
0
LINE
8
BLACK
6
CONTINUOUS
10
105.651
20
-143.764
11
108.852
21
-143.764
0
LINE
8
BLACK
6
CONTINUOUS
10
107.251
20
-161.087
11
107.251
21
-164.287
0
LINE
8
BLACK
6
CONTINUOUS
10
105.651
20
-162.687
11
108.852
21
-162.687
0
LINE
8
BLACK
6
CONTINUOUS
10
114.046
20
-233.35
11
114.046
21
-236.55
0
LINE
8
BLACK
6
CONTINUOUS
10
112.446
20
-234.95
11
115.646
21
-234.95
0
LINE
8
BLACK
6
CONTINUOUS
10
117.919
20
-23.292
11
117.919
21
-26.492
0
LINE
8
BLACK
6
CONTINUOUS
10
116.319
20
-24.892
11
119.519
21
-24.892
0
LINE
8
BLACK
6
CONTINUOUS
10
126.301
20
-243.319
11
126.301
21
-246.519
0
LINE
8
BLACK
6
CONTINUOUS
10
124.701
20
-244.919
11
127.901
21
-244.919
0
LINE
8
BLACK
6
CONTINUOUS
10
134.175
20
-117.907
11
134.175
21
-121.107
0
LINE
8
BLACK
6
CONTINUOUS
10
132.576
20
-119.507
11
135.775
21
-119.507
0
LINE
8
BLACK
6
CONTINUOUS
10
138.493
20
-215.379
11
138.493
21
-218.579
0
LINE
8
BLACK
6
CONTINUOUS
10
136.893
20
-216.98
11
140.094
21
-216.98
0
LINE
8
BLACK
6
CONTINUOUS
10
138.557
20
-233.35
11
138.557
21
-236.55
0
LINE
8
BLACK
6
CONTINUOUS
10
136.957
20
-234.95
11
140.157
21
-234.95
0
LINE
8
BLACK
6
CONTINUOUS
10
146.875
20
-142.164
11
146.875
21
-145.364
0
LINE
8
BLACK
6
CONTINUOUS
10
145.275
20
-143.764
11
148.475
21
-143.764
0
LINE
8
BLACK
6
CONTINUOUS
10
146.875
20
-166.04
11
146.875
21
-169.24
0
LINE
8
BLACK
6
CONTINUOUS
10
145.275
20
-167.64
11
148.475
21
-167.64
0
LINE
8
BLACK
6
CONTINUOUS
10
158.814
20
-205.029
11
158.814
21
-208.229
0
LINE
8
BLACK
6
CONTINUOUS
10
157.213
20
-206.629
11
160.413
21
-206.629
0
LINE
8
BLACK
6
CONTINUOUS
10
163.385
20
-39.929
11
163.385
21
-43.129
0
LINE
8
BLACK
6
CONTINUOUS
10
161.785
20
-41.529
11
164.986
21
-41.529
0
LINE
8
BLACK
6
CONTINUOUS
10
172.275
20
-87.554
11
172.275
21
-90.754
0
LINE
8
BLACK
6
CONTINUOUS
10
170.675
20
-89.154
11
173.875
21
-89.154
0
LINE
8
BLACK
6
CONTINUOUS
10
77.7403
20
-260.326
11
77.7403
21
-257.326
0
LINE
8
BLACK
6
CONTINUOUS
10
77.7403
20
-257.326
11
78.4546
21
-257.326
0
LINE
8
BLACK
6
CONTINUOUS
10
78.4546
20
-257.326
11
78.8831
21
-257.468
0
LINE
8
BLACK
6
CONTINUOUS
10
78.8831
20
-257.468
11
79.1689
21
-257.754
0
LINE
8
BLACK
6
CONTINUOUS
10
79.1689
20
-257.754
11
79.3117
21
-258.04
0
LINE
8
BLACK
6
CONTINUOUS
10
79.3117
20
-258.04
11
79.4546
21
-258.611
0
LINE
8
BLACK
6
CONTINUOUS
10
79.4546
20
-258.611
11
79.4546
21
-259.04
0
LINE
8
BLACK
6
CONTINUOUS
10
79.4546
20
-259.04
11
79.3117
21
-259.611
0
LINE
8
BLACK
6
CONTINUOUS
10
79.3117
20
-259.611
11
79.1689
21
-259.897
0
LINE
8
BLACK
6
CONTINUOUS
10
79.1689
20
-259.897
11
78.8831
21
-260.183
0
LINE
8
BLACK
6
CONTINUOUS
10
78.8831
20
-260.183
11
78.4546
21
-260.326
0
LINE
8
BLACK
6
CONTINUOUS
10
78.4546
20
-260.326
11
77.7403
21
-260.326
0
LINE
8
BLACK
6
CONTINUOUS
10
80.7403
20
-260.326
11
80.7403
21
-258.326
0
LINE
8
BLACK
6
CONTINUOUS
10
80.7403
20
-258.897
11
80.8831
21
-258.611
0
LINE
8
BLACK
6
CONTINUOUS
10
80.8831
20
-258.611
11
81.026
21
-258.468
0
LINE
8
BLACK
6
CONTINUOUS
10
81.026
20
-258.468
11
81.3117
21
-258.326
0
LINE
8
BLACK
6
CONTINUOUS
10
81.3117
20
-258.326
11
81.5974
21
-258.326
0
LINE
8
BLACK
6
CONTINUOUS
10
82.5974
20
-260.326
11
82.5974
21
-258.326
0
LINE
8
BLACK
6
CONTINUOUS
10
82.5974
20
-257.326
11
82.4546
21
-257.468
0
LINE
8
BLACK
6
CONTINUOUS
10
82.4546
20
-257.468
11
82.5974
21
-257.611
0
LINE
8
BLACK
6
CONTINUOUS
10
82.5974
20
-257.611
11
82.7403
21
-257.468
0
LINE
8
BLACK
6
CONTINUOUS
10
82.7403
20
-257.468
11
82.5974
21
-257.326
0
LINE
8
BLACK
6
CONTINUOUS
10
82.5974
20
-257.326
11
82.5974
21
-257.611
0
LINE
8
BLACK
6
CONTINUOUS
10
84.4546
20
-260.326
11
84.1689
21
-260.183
0
LINE
8
BLACK
6
CONTINUOUS
10
84.1689
20
-260.183
11
84.026
21
-259.897
0
LINE
8
BLACK
6
CONTINUOUS
10
84.026
20
-259.897
11
84.026
21
-257.326
0
LINE
8
BLACK
6
CONTINUOUS
10
86.026
20
-260.326
11
85.7403
21
-260.183
0
LINE
8
BLACK
6
CONTINUOUS
10
85.7403
20
-260.183
11
85.5974
21
-259.897
0
LINE
8
BLACK
6
CONTINUOUS
10
85.5974
20
-259.897
11
85.5974
21
-257.326
0
LINE
8
BLACK
6
CONTINUOUS
10
89.4546
20
-260.326
11
89.4546
21
-257.326
0
LINE
8
BLACK
6
CONTINUOUS
10
89.4546
20
-257.326
11
90.4546
21
-259.468
0
LINE
8
BLACK
6
CONTINUOUS
10
90.4546
20
-259.468
11
91.4546
21
-257.326
0
LINE
8
BLACK
6
CONTINUOUS
10
91.4546
20
-257.326
11
91.4546
21
-260.326
0
LINE
8
BLACK
6
CONTINUOUS
10
94.1689
20
-260.326
11
94.1689
21
-258.754
0
LINE
8
BLACK
6
CONTINUOUS
10
94.1689
20
-258.754
11
94.026
21
-258.468
0
LINE
8
BLACK
6
CONTINUOUS
10
94.026
20
-258.468
11
93.7403
21
-258.326
0
LINE
8
BLACK
6
CONTINUOUS
10
93.7403
20
-258.326
11
93.1689
21
-258.326
0
LINE
8
BLACK
6
CONTINUOUS
10
93.1689
20
-258.326
11
92.8831
21
-258.468
0
LINE
8
BLACK
6
CONTINUOUS
10
94.1689
20
-260.183
11
93.8831
21
-260.326
0
LINE
8
BLACK
6
CONTINUOUS
10
93.8831
20
-260.326
11
93.1689
21
-260.326
0
LINE
8
BLACK
6
CONTINUOUS
10
93.1689
20
-260.326
11
92.8831
21
-260.183
0
LINE
8
BLACK
6
CONTINUOUS
10
92.8831
20
-260.183
11
92.7403
21
-259.897
0
LINE
8
BLACK
6
CONTINUOUS
10
92.7403
20
-259.897
11
92.7403
21
-259.611
0
LINE
8
BLACK
6
CONTINUOUS
10
92.7403
20
-259.611
11
92.8831
21
-259.326
0
LINE
8
BLACK
6
CONTINUOUS
10
92.8831
20
-259.326
11
93.1689
21
-259.183
0
LINE
8
BLACK
6
CONTINUOUS
10
93.1689
20
-259.183
11
93.8831
21
-259.183
0
LINE
8
BLACK
6
CONTINUOUS
10
93.8831
20
-259.183
11
94.1689
21
-259.04
0
LINE
8
BLACK
6
CONTINUOUS
10
95.5974
20
-258.326
11
95.5974
21
-261.326
0
LINE
8
BLACK
6
CONTINUOUS
10
95.5974
20
-258.468
11
95.8831
21
-258.326
0
LINE
8
BLACK
6
CONTINUOUS
10
95.8831
20
-258.326
11
96.4546
21
-258.326
0
LINE
8
BLACK
6
CONTINUOUS
10
96.4546
20
-258.326
11
96.7403
21
-258.468
0
LINE
8
BLACK
6
CONTINUOUS
10
96.7403
20
-258.468
11
96.8831
21
-258.611
0
LINE
8
BLACK
6
CONTINUOUS
10
96.8831
20
-258.611
11
97.026
21
-258.897
0
LINE
8
BLACK
6
CONTINUOUS
10
97.026
20
-258.897
11
97.026
21
-259.754
0
LINE
8
BLACK
6
CONTINUOUS
10
97.026
20
-259.754
11
96.8831
21
-260.04
0
LINE
8
BLACK
6
CONTINUOUS
10
96.8831
20
-260.04
11
96.7403
21
-260.183
0
LINE
8
BLACK
6
CONTINUOUS
10
96.7403
20
-260.183
11
96.4546
21
-260.326
0
LINE
8
BLACK
6
CONTINUOUS
10
96.4546
20
-260.326
11
95.8831
21
-260.326
0
LINE
8
BLACK
6
CONTINUOUS
10
95.8831
20
-260.326
11
95.5974
21
-260.183
0
LINE
8
BLACK
6
CONTINUOUS
10
98.3117
20
-260.04
11
98.4546
21
-260.183
0
LINE
8
BLACK
6
CONTINUOUS
10
98.4546
20
-260.183
11
98.3117
21
-260.326
0
LINE
8
BLACK
6
CONTINUOUS
10
98.3117
20
-260.326
11
98.1689
21
-260.183
0
LINE
8
BLACK
6
CONTINUOUS
10
98.1689
20
-260.183
11
98.3117
21
-260.04
0
LINE
8
BLACK
6
CONTINUOUS
10
98.3117
20
-260.04
11
98.3117
21
-260.326
0
LINE
8
BLACK
6
CONTINUOUS
10
98.3117
20
-258.468
11
98.4546
21
-258.611
0
LINE
8
BLACK
6
CONTINUOUS
10
98.4546
20
-258.611
11
98.3117
21
-258.754
0
LINE
8
BLACK
6
CONTINUOUS
10
98.3117
20
-258.754
11
98.1689
21
-258.611
0
LINE
8
BLACK
6
CONTINUOUS
10
98.1689
20
-258.611
11
98.3117
21
-258.468
0
LINE
8
BLACK
6
CONTINUOUS
10
98.3117
20
-258.468
11
98.3117
21
-258.754
0
LINE
8
BLACK
6
CONTINUOUS
10
72.676
20
-264.168
11
74.876
21
-266.368
0
LINE
8
BLACK
6
CONTINUOUS
10
74.876
20
-264.168
11
72.676
21
-266.368
0
LINE
8
BLACK
6
CONTINUOUS
10
77.5974
20
-263.911
11
77.7403
21
-263.768
0
LINE
8
BLACK
6
CONTINUOUS
10
77.7403
20
-263.768
11
78.026
21
-263.626
0
LINE
8
BLACK
6
CONTINUOUS
10
78.026
20
-263.626
11
78.7403
21
-263.626
0
LINE
8
BLACK
6
CONTINUOUS
10
78.7403
20
-263.626
11
79.026
21
-263.768
0
LINE
8
BLACK
6
CONTINUOUS
10
79.026
20
-263.768
11
79.1689
21
-263.911
0
LINE
8
BLACK
6
CONTINUOUS
10
79.1689
20
-263.911
11
79.3117
21
-264.197
0
LINE
8
BLACK
6
CONTINUOUS
10
79.3117
20
-264.197
11
79.3117
21
-264.483
0
LINE
8
BLACK
6
CONTINUOUS
10
79.3117
20
-264.483
11
79.1689
21
-264.911
0
LINE
8
BLACK
6
CONTINUOUS
10
79.1689
20
-264.911
11
77.4546
21
-266.626
0
LINE
8
BLACK
6
CONTINUOUS
10
77.4546
20
-266.626
11
79.3117
21
-266.626
0
LINE
8
BLACK
6
CONTINUOUS
10
80.5974
20
-266.34
11
80.7403
21
-266.483
0
LINE
8
BLACK
6
CONTINUOUS
10
80.7403
20
-266.483
11
80.5974
21
-266.626
0
LINE
8
BLACK
6
CONTINUOUS
10
80.5974
20
-266.626
11
80.4546
21
-266.483
0
LINE
8
BLACK
6
CONTINUOUS
10
80.4546
20
-266.483
11
80.5974
21
-266.34
0
LINE
8
BLACK
6
CONTINUOUS
10
80.5974
20
-266.34
11
80.5974
21
-266.626
0
LINE
8
BLACK
6
CONTINUOUS
10
81.8831
20
-263.911
11
82.026
21
-263.768
0
LINE
8
BLACK
6
CONTINUOUS
10
82.026
20
-263.768
11
82.3117
21
-263.626
0
LINE
8
BLACK
6
CONTINUOUS
10
82.3117
20
-263.626
11
83.026
21
-263.626
0
LINE
8
BLACK
6
CONTINUOUS
10
83.026
20
-263.626
11
83.3117
21
-263.768
0
LINE
8
BLACK
6
CONTINUOUS
10
83.3117
20
-263.768
11
83.4546
21
-263.911
0
LINE
8
BLACK
6
CONTINUOUS
10
83.4546
20
-263.911
11
83.5974
21
-264.197
0
LINE
8
BLACK
6
CONTINUOUS
10
83.5974
20
-264.197
11
83.5974
21
-264.483
0
LINE
8
BLACK
6
CONTINUOUS
10
83.5974
20
-264.483
11
83.4546
21
-264.911
0
LINE
8
BLACK
6
CONTINUOUS
10
83.4546
20
-264.911
11
81.7403
21
-266.626
0
LINE
8
BLACK
6
CONTINUOUS
10
81.7403
20
-266.626
11
83.5974
21
-266.626
0
LINE
8
BLACK
6
CONTINUOUS
10
85.4546
20
-263.626
11
85.7403
21
-263.626
0
LINE
8
BLACK
6
CONTINUOUS
10
85.7403
20
-263.626
11
86.026
21
-263.768
0
LINE
8
BLACK
6
CONTINUOUS
10
86.026
20
-263.768
11
86.1689
21
-263.911
0
LINE
8
BLACK
6
CONTINUOUS
10
86.1689
20
-263.911
11
86.3117
21
-264.197
0
LINE
8
BLACK
6
CONTINUOUS
10
86.3117
20
-264.197
11
86.4546
21
-264.768
0
LINE
8
BLACK
6
CONTINUOUS
10
86.4546
20
-264.768
11
86.4546
21
-265.483
0
LINE
8
BLACK
6
CONTINUOUS
10
86.4546
20
-265.483
11
86.3117
21
-266.054
0
LINE
8
BLACK
6
CONTINUOUS
10
86.3117
20
-266.054
11
86.1689
21
-266.34
0
LINE
8
BLACK
6
CONTINUOUS
10
86.1689
20
-266.34
11
86.026
21
-266.483
0
LINE
8
BLACK
6
CONTINUOUS
10
86.026
20
-266.483
11
85.7403
21
-266.626
0
LINE
8
BLACK
6
CONTINUOUS
10
85.7403
20
-266.626
11
85.4546
21
-266.626
0
LINE
8
BLACK
6
CONTINUOUS
10
85.4546
20
-266.626
11
85.1689
21
-266.483
0
LINE
8
BLACK
6
CONTINUOUS
10
85.1689
20
-266.483
11
85.026
21
-266.34
0
LINE
8
BLACK
6
CONTINUOUS
10
85.026
20
-266.34
11
84.8831
21
-266.054
0
LINE
8
BLACK
6
CONTINUOUS
10
84.8831
20
-266.054
11
84.7403
21
-265.483
0
LINE
8
BLACK
6
CONTINUOUS
10
84.7403
20
-265.483
11
84.7403
21
-264.768
0
LINE
8
BLACK
6
CONTINUOUS
10
84.7403
20
-264.768
11
84.8831
21
-264.197
0
LINE
8
BLACK
6
CONTINUOUS
10
84.8831
20
-264.197
11
85.026
21
-263.911
0
LINE
8
BLACK
6
CONTINUOUS
10
85.026
20
-263.911
11
85.1689
21
-263.768
0
LINE
8
BLACK
6
CONTINUOUS
10
85.1689
20
-263.768
11
85.4546
21
-263.626
0
LINE
8
BLACK
6
CONTINUOUS
10
88.3117
20
-263.626
11
88.5974
21
-263.626
0
LINE
8
BLACK
6
CONTINUOUS
10
88.5974
20
-263.626
11
88.8831
21
-263.768
0
LINE
8
BLACK
6
CONTINUOUS
10
88.8831
20
-263.768
11
89.026
21
-263.911
0
LINE
8
BLACK
6
CONTINUOUS
10
89.026
20
-263.911
11
89.1689
21
-264.197
0
LINE
8
BLACK
6
CONTINUOUS
10
89.1689
20
-264.197
11
89.3117
21
-264.768
0
LINE
8
BLACK
6
CONTINUOUS
10
89.3117
20
-264.768
11
89.3117
21
-265.483
0
LINE
8
BLACK
6
CONTINUOUS
10
89.3117
20
-265.483
11
89.1689
21
-266.054
0
LINE
8
BLACK
6
CONTINUOUS
10
89.1689
20
-266.054
11
89.026
21
-266.34
0
LINE
8
BLACK
6
CONTINUOUS
10
89.026
20
-266.34
11
88.8831
21
-266.483
0
LINE
8
BLACK
6
CONTINUOUS
10
88.8831
20
-266.483
11
88.5974
21
-266.626
0
LINE
8
BLACK
6
CONTINUOUS
10
88.5974
20
-266.626
11
88.3117
21
-266.626
0
LINE
8
BLACK
6
CONTINUOUS
10
88.3117
20
-266.626
11
88.026
21
-266.483
0
LINE
8
BLACK
6
CONTINUOUS
10
88.026
20
-266.483
11
87.8831
21
-266.34
0
LINE
8
BLACK
6
CONTINUOUS
10
87.8831
20
-266.34
11
87.7403
21
-266.054
0
LINE
8
BLACK
6
CONTINUOUS
10
87.7403
20
-266.054
11
87.5974
21
-265.483
0
LINE
8
BLACK
6
CONTINUOUS
10
87.5974
20
-265.483
11
87.5974
21
-264.768
0
LINE
8
BLACK
6
CONTINUOUS
10
87.5974
20
-264.768
11
87.7403
21
-264.197
0
LINE
8
BLACK
6
CONTINUOUS
10
87.7403
20
-264.197
11
87.8831
21
-263.911
0
LINE
8
BLACK
6
CONTINUOUS
10
87.8831
20
-263.911
11
88.026
21
-263.768
0
LINE
8
BLACK
6
CONTINUOUS
10
88.026
20
-263.768
11
88.3117
21
-263.626
0
LINE
8
BLACK
6
CONTINUOUS
10
90.5974
20
-266.626
11
90.5974
21
-264.626
0
LINE
8
BLACK
6
CONTINUOUS
10
90.5974
20
-264.911
11
90.7403
21
-264.768
0
LINE
8
BLACK
6
CONTINUOUS
10
90.7403
20
-264.768
11
91.026
21
-264.626
0
LINE
8
BLACK
6
CONTINUOUS
10
91.026
20
-264.626
11
91.4546
21
-264.626
0
LINE
8
BLACK
6
CONTINUOUS
10
91.4546
20
-264.626
11
91.7403
21
-264.768
0
LINE
8
BLACK
6
CONTINUOUS
10
91.7403
20
-264.768
11
91.8831
21
-265.054
0
LINE
8
BLACK
6
CONTINUOUS
10
91.8831
20
-265.054
11
91.8831
21
-266.626
0
LINE
8
BLACK
6
CONTINUOUS
10
91.8831
20
-265.054
11
92.026
21
-264.768
0
LINE
8
BLACK
6
CONTINUOUS
10
92.026
20
-264.768
11
92.3117
21
-264.626
0
LINE
8
BLACK
6
CONTINUOUS
10
92.3117
20
-264.626
11
92.7403
21
-264.626
0
LINE
8
BLACK
6
CONTINUOUS
10
92.7403
20
-264.626
11
93.026
21
-264.768
0
LINE
8
BLACK
6
CONTINUOUS
10
93.026
20
-264.768
11
93.1689
21
-265.054
0
LINE
8
BLACK
6
CONTINUOUS
10
93.1689
20
-265.054
11
93.1689
21
-266.626
0
LINE
8
BLACK
6
CONTINUOUS
10
94.5974
20
-266.626
11
94.5974
21
-264.626
0
LINE
8
BLACK
6
CONTINUOUS
10
94.5974
20
-264.911
11
94.7403
21
-264.768
0
LINE
8
BLACK
6
CONTINUOUS
10
94.7403
20
-264.768
11
95.026
21
-264.626
0
LINE
8
BLACK
6
CONTINUOUS
10
95.026
20
-264.626
11
95.4546
21
-264.626
0
LINE
8
BLACK
6
CONTINUOUS
10
95.4546
20
-264.626
11
95.7403
21
-264.768
0
LINE
8
BLACK
6
CONTINUOUS
10
95.7403
20
-264.768
11
95.8831
21
-265.054
0
LINE
8
BLACK
6
CONTINUOUS
10
95.8831
20
-265.054
11
95.8831
21
-266.626
0
LINE
8
BLACK
6
CONTINUOUS
10
95.8831
20
-265.054
11
96.026
21
-264.768
0
LINE
8
BLACK
6
CONTINUOUS
10
96.026
20
-264.768
11
96.3117
21
-264.626
0
LINE
8
BLACK
6
CONTINUOUS
10
96.3117
20
-264.626
11
96.7403
21
-264.626
0
LINE
8
BLACK
6
CONTINUOUS
10
96.7403
20
-264.626
11
97.026
21
-264.768
0
LINE
8
BLACK
6
CONTINUOUS
10
97.026
20
-264.768
11
97.1689
21
-265.054
0
LINE
8
BLACK
6
CONTINUOUS
10
97.1689
20
-265.054
11
97.1689
21
-266.626
0
LINE
8
BLACK
6
CONTINUOUS
10
103.026
20
-263.483
11
100.455
21
-267.34
0
LINE
8
BLACK
6
CONTINUOUS
10
106.883
20
-263.626
11
107.169
21
-263.626
0
LINE
8
BLACK
6
CONTINUOUS
10
107.169
20
-263.626
11
107.455
21
-263.768
0
LINE
8
BLACK
6
CONTINUOUS
10
107.455
20
-263.768
11
107.597
21
-263.911
0
LINE
8
BLACK
6
CONTINUOUS
10
107.597
20
-263.911
11
107.74
21
-264.197
0
LINE
8
BLACK
6
CONTINUOUS
10
107.74
20
-264.197
11
107.883
21
-264.768
0
LINE
8
BLACK
6
CONTINUOUS
10
107.883
20
-264.768
11
107.883
21
-265.483
0
LINE
8
BLACK
6
CONTINUOUS
10
107.883
20
-265.483
11
107.74
21
-266.054
0
LINE
8
BLACK
6
CONTINUOUS
10
107.74
20
-266.054
11
107.597
21
-266.34
0
LINE
8
BLACK
6
CONTINUOUS
10
107.597
20
-266.34
11
107.455
21
-266.483
0
LINE
8
BLACK
6
CONTINUOUS
10
107.455
20
-266.483
11
107.169
21
-266.626
0
LINE
8
BLACK
6
CONTINUOUS
10
107.169
20
-266.626
11
106.883
21
-266.626
0
LINE
8
BLACK
6
CONTINUOUS
10
106.883
20
-266.626
11
106.597
21
-266.483
0
LINE
8
BLACK
6
CONTINUOUS
10
106.597
20
-266.483
11
106.455
21
-266.34
0
LINE
8
BLACK
6
CONTINUOUS
10
106.455
20
-266.34
11
106.312
21
-266.054
0
LINE
8
BLACK
6
CONTINUOUS
10
106.312
20
-266.054
11
106.169
21
-265.483
0
LINE
8
BLACK
6
CONTINUOUS
10
106.169
20
-265.483
11
106.169
21
-264.768
0
LINE
8
BLACK
6
CONTINUOUS
10
106.169
20
-264.768
11
106.312
21
-264.197
0
LINE
8
BLACK
6
CONTINUOUS
10
106.312
20
-264.197
11
106.455
21
-263.911
0
LINE
8
BLACK
6
CONTINUOUS
10
106.455
20
-263.911
11
106.597
21
-263.768
0
LINE
8
BLACK
6
CONTINUOUS
10
106.597
20
-263.768
11
106.883
21
-263.626
0
LINE
8
BLACK
6
CONTINUOUS
10
109.169
20
-266.34
11
109.312
21
-266.483
0
LINE
8
BLACK
6
CONTINUOUS
10
109.312
20
-266.483
11
109.169
21
-266.626
0
LINE
8
BLACK
6
CONTINUOUS
10
109.169
20
-266.626
11
109.026
21
-266.483
0
LINE
8
BLACK
6
CONTINUOUS
10
109.026
20
-266.483
11
109.169
21
-266.34
0
LINE
8
BLACK
6
CONTINUOUS
10
109.169
20
-266.34
11
109.169
21
-266.626
0
LINE
8
BLACK
6
CONTINUOUS
10
111.169
20
-263.626
11
111.455
21
-263.626
0
LINE
8
BLACK
6
CONTINUOUS
10
111.455
20
-263.626
11
111.74
21
-263.768
0
LINE
8
BLACK
6
CONTINUOUS
10
111.74
20
-263.768
11
111.883
21
-263.911
0
LINE
8
BLACK
6
CONTINUOUS
10
111.883
20
-263.911
11
112.026
21
-264.197
0
LINE
8
BLACK
6
CONTINUOUS
10
112.026
20
-264.197
11
112.169
21
-264.768
0
LINE
8
BLACK
6
CONTINUOUS
10
112.169
20
-264.768
11
112.169
21
-265.483
0
LINE
8
BLACK
6
CONTINUOUS
10
112.169
20
-265.483
11
112.026
21
-266.054
0
LINE
8
BLACK
6
CONTINUOUS
10
112.026
20
-266.054
11
111.883
21
-266.34
0
LINE
8
BLACK
6
CONTINUOUS
10
111.883
20
-266.34
11
111.74
21
-266.483
0
LINE
8
BLACK
6
CONTINUOUS
10
111.74
20
-266.483
11
111.455
21
-266.626
0
LINE
8
BLACK
6
CONTINUOUS
10
111.455
20
-266.626
11
111.169
21
-266.626
0
LINE
8
BLACK
6
CONTINUOUS
10
111.169
20
-266.626
11
110.883
21
-266.483
0
LINE
8
BLACK
6
CONTINUOUS
10
110.883
20
-266.483
11
110.74
21
-266.34
0
LINE
8
BLACK
6
CONTINUOUS
10
110.74
20
-266.34
11
110.597
21
-266.054
0
LINE
8
BLACK
6
CONTINUOUS
10
110.597
20
-266.054
11
110.455
21
-265.483
0
LINE
8
BLACK
6
CONTINUOUS
10
110.455
20
-265.483
11
110.455
21
-264.768
0
LINE
8
BLACK
6
CONTINUOUS
10
110.455
20
-264.768
11
110.597
21
-264.197
0
LINE
8
BLACK
6
CONTINUOUS
10
110.597
20
-264.197
11
110.74
21
-263.911
0
LINE
8
BLACK
6
CONTINUOUS
10
110.74
20
-263.911
11
110.883
21
-263.768
0
LINE
8
BLACK
6
CONTINUOUS
10
110.883
20
-263.768
11
111.169
21
-263.626
0
LINE
8
BLACK
6
CONTINUOUS
10
113.883
20
-264.911
11
113.597
21
-264.768
0
LINE
8
BLACK
6
CONTINUOUS
10
113.597
20
-264.768
11
113.455
21
-264.626
0
LINE
8
BLACK
6
CONTINUOUS
10
113.455
20
-264.626
11
113.312
21
-264.34
0
LINE
8
BLACK
6
CONTINUOUS
10
113.312
20
-264.34
11
113.312
21
-264.197
0
LINE
8
BLACK
6
CONTINUOUS
10
113.312
20
-264.197
11
113.455
21
-263.911
0
LINE
8
BLACK
6
CONTINUOUS
10
113.455
20
-263.911
11
113.597
21
-263.768
0
LINE
8
BLACK
6
CONTINUOUS
10
113.597
20
-263.768
11
113.883
21
-263.626
0
LINE
8
BLACK
6
CONTINUOUS
10
113.883
20
-263.626
11
114.455
21
-263.626
0
LINE
8
BLACK
6
CONTINUOUS
10
114.455
20
-263.626
11
114.74
21
-263.768
0
LINE
8
BLACK
6
CONTINUOUS
10
114.74
20
-263.768
11
114.883
21
-263.911
0
LINE
8
BLACK
6
CONTINUOUS
10
114.883
20
-263.911
11
115.026
21
-264.197
0
LINE
8
BLACK
6
CONTINUOUS
10
115.026
20
-264.197
11
115.026
21
-264.34
0
LINE
8
BLACK
6
CONTINUOUS
10
115.026
20
-264.34
11
114.883
21
-264.626
0
LINE
8
BLACK
6
CONTINUOUS
10
114.883
20
-264.626
11
114.74
21
-264.768
0
LINE
8
BLACK
6
CONTINUOUS
10
114.74
20
-264.768
11
114.455
21
-264.911
0
LINE
8
BLACK
6
CONTINUOUS
10
114.455
20
-264.911
11
113.883
21
-264.911
0
LINE
8
BLACK
6
CONTINUOUS
10
113.883
20
-264.911
11
113.597
21
-265.054
0
LINE
8
BLACK
6
CONTINUOUS
10
113.597
20
-265.054
11
113.455
21
-265.197
0
LINE
8
BLACK
6
CONTINUOUS
10
113.455
20
-265.197
11
113.312
21
-265.483
0
LINE
8
BLACK
6
CONTINUOUS
10
113.312
20
-265.483
11
113.312
21
-266.054
0
LINE
8
BLACK
6
CONTINUOUS
10
113.312
20
-266.054
11
113.455
21
-266.34
0
LINE
8
BLACK
6
CONTINUOUS
10
113.455
20
-266.34
11
113.597
21
-266.483
0
LINE
8
BLACK
6
CONTINUOUS
10
113.597
20
-266.483
11
113.883
21
-266.626
0
LINE
8
BLACK
6
CONTINUOUS
10
113.883
20
-266.626
11
114.455
21
-266.626
0
LINE
8
BLACK
6
CONTINUOUS
10
114.455
20
-266.626
11
114.74
21
-266.483
0
LINE
8
BLACK
6
CONTINUOUS
10
114.74
20
-266.483
11
114.883
21
-266.34
0
LINE
8
BLACK
6
CONTINUOUS
10
114.883
20
-266.34
11
115.026
21
-266.054
0
LINE
8
BLACK
6
CONTINUOUS
10
115.026
20
-266.054
11
115.026
21
-265.483
0
LINE
8
BLACK
6
CONTINUOUS
10
115.026
20
-265.483
11
114.883
21
-265.197
0
LINE
8
BLACK
6
CONTINUOUS
10
114.883
20
-265.197
11
114.74
21
-265.054
0
LINE
8
BLACK
6
CONTINUOUS
10
114.74
20
-265.054
11
114.455
21
-264.911
0
LINE
8
BLACK
6
CONTINUOUS
10
117.597
20
-263.626
11
117.026
21
-263.626
0
LINE
8
BLACK
6
CONTINUOUS
10
117.026
20
-263.626
11
116.74
21
-263.768
0
LINE
8
BLACK
6
CONTINUOUS
10
116.74
20
-263.768
11
116.597
21
-263.911
0
LINE
8
BLACK
6
CONTINUOUS
10
116.597
20
-263.911
11
116.312
21
-264.34
0
LINE
8
BLACK
6
CONTINUOUS
10
116.312
20
-264.34
11
116.169
21
-264.911
0
LINE
8
BLACK
6
CONTINUOUS
10
116.169
20
-264.911
11
116.169
21
-266.054
0
LINE
8
BLACK
6
CONTINUOUS
10
116.169
20
-266.054
11
116.312
21
-266.34
0
LINE
8
BLACK
6
CONTINUOUS
10
116.312
20
-266.34
11
116.455
21
-266.483
0
LINE
8
BLACK
6
CONTINUOUS
10
116.455
20
-266.483
11
116.74
21
-266.626
0
LINE
8
BLACK
6
CONTINUOUS
10
116.74
20
-266.626
11
117.312
21
-266.626
0
LINE
8
BLACK
6
CONTINUOUS
10
117.312
20
-266.626
11
117.597
21
-266.483
0
LINE
8
BLACK
6
CONTINUOUS
10
117.597
20
-266.483
11
117.74
21
-266.34
0
LINE
8
BLACK
6
CONTINUOUS
10
117.74
20
-266.34
11
117.883
21
-266.054
0
LINE
8
BLACK
6
CONTINUOUS
10
117.883
20
-266.054
11
117.883
21
-265.34
0
LINE
8
BLACK
6
CONTINUOUS
10
117.883
20
-265.34
11
117.74
21
-265.054
0
LINE
8
BLACK
6
CONTINUOUS
10
117.74
20
-265.054
11
117.597
21
-264.911
0
LINE
8
BLACK
6
CONTINUOUS
10
117.597
20
-264.911
11
117.312
21
-264.768
0
LINE
8
BLACK
6
CONTINUOUS
10
117.312
20
-264.768
11
116.74
21
-264.768
0
LINE
8
BLACK
6
CONTINUOUS
10
116.74
20
-264.768
11
116.455
21
-264.911
0
LINE
8
BLACK
6
CONTINUOUS
10
116.455
20
-264.911
11
116.312
21
-265.054
0
LINE
8
BLACK
6
CONTINUOUS
10
116.312
20
-265.054
11
116.169
21
-265.34
0
LINE
8
BLACK
6
CONTINUOUS
10
120.455
20
-263.626
11
119.883
21
-263.626
0
LINE
8
BLACK
6
CONTINUOUS
10
119.883
20
-263.626
11
119.597
21
-263.768
0
LINE
8
BLACK
6
CONTINUOUS
10
119.597
20
-263.768
11
119.455
21
-263.911
0
LINE
8
BLACK
6
CONTINUOUS
10
119.455
20
-263.911
11
119.169
21
-264.34
0
LINE
8
BLACK
6
CONTINUOUS
10
119.169
20
-264.34
11
119.026
21
-264.911
0
LINE
8
BLACK
6
CONTINUOUS
10
119.026
20
-264.911
11
119.026
21
-266.054
0
LINE
8
BLACK
6
CONTINUOUS
10
119.026
20
-266.054
11
119.169
21
-266.34
0
LINE
8
BLACK
6
CONTINUOUS
10
119.169
20
-266.34
11
119.312
21
-266.483
0
LINE
8
BLACK
6
CONTINUOUS
10
119.312
20
-266.483
11
119.597
21
-266.626
0
LINE
8
BLACK
6
CONTINUOUS
10
119.597
20
-266.626
11
120.169
21
-266.626
0
LINE
8
BLACK
6
CONTINUOUS
10
120.169
20
-266.626
11
120.455
21
-266.483
0
LINE
8
BLACK
6
CONTINUOUS
10
120.455
20
-266.483
11
120.597
21
-266.34
0
LINE
8
BLACK
6
CONTINUOUS
10
120.597
20
-266.34
11
120.74
21
-266.054
0
LINE
8
BLACK
6
CONTINUOUS
10
120.74
20
-266.054
11
120.74
21
-265.34
0
LINE
8
BLACK
6
CONTINUOUS
10
120.74
20
-265.34
11
120.597
21
-265.054
0
LINE
8
BLACK
6
CONTINUOUS
10
120.597
20
-265.054
11
120.455
21
-264.911
0
LINE
8
BLACK
6
CONTINUOUS
10
120.455
20
-264.911
11
120.169
21
-264.768
0
LINE
8
BLACK
6
CONTINUOUS
10
120.169
20
-264.768
11
119.597
21
-264.768
0
LINE
8
BLACK
6
CONTINUOUS
10
119.597
20
-264.768
11
119.312
21
-264.911
0
LINE
8
BLACK
6
CONTINUOUS
10
119.312
20
-264.911
11
119.169
21
-265.054
0
LINE
8
BLACK
6
CONTINUOUS
10
119.169
20
-265.054
11
119.026
21
-265.34
0
LINE
8
BLACK
6
CONTINUOUS
10
121.883
20
-263.626
11
121.883
21
-264.197
0
LINE
8
BLACK
6
CONTINUOUS
10
123.026
20
-263.626
11
123.026
21
-264.197
0
LINE
8
BLACK
6
CONTINUOUS
10
127.455
20
-267.768
11
127.312
21
-267.626
0
LINE
8
BLACK
6
CONTINUOUS
10
127.312
20
-267.626
11
127.026
21
-267.197
0
LINE
8
BLACK
6
CONTINUOUS
10
127.026
20
-267.197
11
126.883
21
-266.911
0
LINE
8
BLACK
6
CONTINUOUS
10
126.883
20
-266.911
11
126.74
21
-266.483
0
LINE
8
BLACK
6
CONTINUOUS
10
126.74
20
-266.483
11
126.597
21
-265.768
0
LINE
8
BLACK
6
CONTINUOUS
10
126.597
20
-265.768
11
126.597
21
-265.197
0
LINE
8
BLACK
6
CONTINUOUS
10
126.597
20
-265.197
11
126.74
21
-264.483
0
LINE
8
BLACK
6
CONTINUOUS
10
126.74
20
-264.483
11
126.883
21
-264.054
0
LINE
8
BLACK
6
CONTINUOUS
10
126.883
20
-264.054
11
127.026
21
-263.768
0
LINE
8
BLACK
6
CONTINUOUS
10
127.026
20
-263.768
11
127.312
21
-263.34
0
LINE
8
BLACK
6
CONTINUOUS
10
127.312
20
-263.34
11
127.455
21
-263.197
0
LINE
8
BLACK
6
CONTINUOUS
10
128.312
20
-263.626
11
130.169
21
-263.626
0
LINE
8
BLACK
6
CONTINUOUS
10
130.169
20
-263.626
11
129.169
21
-264.768
0
LINE
8
BLACK
6
CONTINUOUS
10
129.169
20
-264.768
11
129.597
21
-264.768
0
LINE
8
BLACK
6
CONTINUOUS
10
129.597
20
-264.768
11
129.883
21
-264.911
0
LINE
8
BLACK
6
CONTINUOUS
10
129.883
20
-264.911
11
130.026
21
-265.054
0
LINE
8
BLACK
6
CONTINUOUS
10
130.026
20
-265.054
11
130.169
21
-265.34
0
LINE
8
BLACK
6
CONTINUOUS
10
130.169
20
-265.34
11
130.169
21
-266.054
0
LINE
8
BLACK
6
CONTINUOUS
10
130.169
20
-266.054
11
130.026
21
-266.34
0
LINE
8
BLACK
6
CONTINUOUS
10
130.026
20
-266.34
11
129.883
21
-266.483
0
LINE
8
BLACK
6
CONTINUOUS
10
129.883
20
-266.483
11
129.597
21
-266.626
0
LINE
8
BLACK
6
CONTINUOUS
10
129.597
20
-266.626
11
128.74
21
-266.626
0
LINE
8
BLACK
6
CONTINUOUS
10
128.74
20
-266.626
11
128.455
21
-266.483
0
LINE
8
BLACK
6
CONTINUOUS
10
128.455
20
-266.483
11
128.312
21
-266.34
0
LINE
8
BLACK
6
CONTINUOUS
10
133.74
20
-266.626
11
133.74
21
-263.626
0
LINE
8
BLACK
6
CONTINUOUS
10
135.026
20
-266.626
11
135.026
21
-265.054
0
LINE
8
BLACK
6
CONTINUOUS
10
135.026
20
-265.054
11
134.883
21
-264.768
0
LINE
8
BLACK
6
CONTINUOUS
10
134.883
20
-264.768
11
134.597
21
-264.626
0
LINE
8
BLACK
6
CONTINUOUS
10
134.597
20
-264.626
11
134.169
21
-264.626
0
LINE
8
BLACK
6
CONTINUOUS
10
134.169
20
-264.626
11
133.883
21
-264.768
0
LINE
8
BLACK
6
CONTINUOUS
10
133.883
20
-264.768
11
133.74
21
-264.911
0
LINE
8
BLACK
6
CONTINUOUS
10
136.883
20
-266.626
11
136.597
21
-266.483
0
LINE
8
BLACK
6
CONTINUOUS
10
136.597
20
-266.483
11
136.455
21
-266.34
0
LINE
8
BLACK
6
CONTINUOUS
10
136.455
20
-266.34
11
136.312
21
-266.054
0
LINE
8
BLACK
6
CONTINUOUS
10
136.312
20
-266.054
11
136.312
21
-265.197
0
LINE
8
BLACK
6
CONTINUOUS
10
136.312
20
-265.197
11
136.455
21
-264.911
0
LINE
8
BLACK
6
CONTINUOUS
10
136.455
20
-264.911
11
136.597
21
-264.768
0
LINE
8
BLACK
6
CONTINUOUS
10
136.597
20
-264.768
11
136.883
21
-264.626
0
LINE
8
BLACK
6
CONTINUOUS
10
136.883
20
-264.626
11
137.312
21
-264.626
0
LINE
8
BLACK
6
CONTINUOUS
10
137.312
20
-264.626
11
137.597
21
-264.768
0
LINE
8
BLACK
6
CONTINUOUS
10
137.597
20
-264.768
11
137.74
21
-264.911
0
LINE
8
BLACK
6
CONTINUOUS
10
137.74
20
-264.911
11
137.883
21
-265.197
0
LINE
8
BLACK
6
CONTINUOUS
10
137.883
20
-265.197
11
137.883
21
-266.054
0
LINE
8
BLACK
6
CONTINUOUS
10
137.883
20
-266.054
11
137.74
21
-266.34
0
LINE
8
BLACK
6
CONTINUOUS
10
137.74
20
-266.34
11
137.597
21
-266.483
0
LINE
8
BLACK
6
CONTINUOUS
10
137.597
20
-266.483
11
137.312
21
-266.626
0
LINE
8
BLACK
6
CONTINUOUS
10
137.312
20
-266.626
11
136.883
21
-266.626
0
LINE
8
BLACK
6
CONTINUOUS
10
139.597
20
-266.626
11
139.312
21
-266.483
0
LINE
8
BLACK
6
CONTINUOUS
10
139.312
20
-266.483
11
139.169
21
-266.197
0
LINE
8
BLACK
6
CONTINUOUS
10
139.169
20
-266.197
11
139.169
21
-263.626
0
LINE
8
BLACK
6
CONTINUOUS
10
141.883
20
-266.483
11
141.597
21
-266.626
0
LINE
8
BLACK
6
CONTINUOUS
10
141.597
20
-266.626
11
141.026
21
-266.626
0
LINE
8
BLACK
6
CONTINUOUS
10
141.026
20
-266.626
11
140.74
21
-266.483
0
LINE
8
BLACK
6
CONTINUOUS
10
140.74
20
-266.483
11
140.597
21
-266.197
0
LINE
8
BLACK
6
CONTINUOUS
10
140.597
20
-266.197
11
140.597
21
-265.054
0
LINE
8
BLACK
6
CONTINUOUS
10
140.597
20
-265.054
11
140.74
21
-264.768
0
LINE
8
BLACK
6
CONTINUOUS
10
140.74
20
-264.768
11
141.026
21
-264.626
0
LINE
8
BLACK
6
CONTINUOUS
10
141.026
20
-264.626
11
141.597
21
-264.626
0
LINE
8
BLACK
6
CONTINUOUS
10
141.597
20
-264.626
11
141.883
21
-264.768
0
LINE
8
BLACK
6
CONTINUOUS
10
141.883
20
-264.768
11
142.026
21
-265.054
0
LINE
8
BLACK
6
CONTINUOUS
10
142.026
20
-265.054
11
142.026
21
-265.34
0
LINE
8
BLACK
6
CONTINUOUS
10
142.026
20
-265.34
11
140.597
21
-265.626
0
LINE
8
BLACK
6
CONTINUOUS
10
143.169
20
-266.483
11
143.455
21
-266.626
0
LINE
8
BLACK
6
CONTINUOUS
10
143.455
20
-266.626
11
144.026
21
-266.626
0
LINE
8
BLACK
6
CONTINUOUS
10
144.026
20
-266.626
11
144.312
21
-266.483
0
LINE
8
BLACK
6
CONTINUOUS
10
144.312
20
-266.483
11
144.455
21
-266.197
0
LINE
8
BLACK
6
CONTINUOUS
10
144.455
20
-266.197
11
144.455
21
-266.054
0
LINE
8
BLACK
6
CONTINUOUS
10
144.455
20
-266.054
11
144.312
21
-265.768
0
LINE
8
BLACK
6
CONTINUOUS
10
144.312
20
-265.768
11
144.026
21
-265.626
0
LINE
8
BLACK
6
CONTINUOUS
10
144.026
20
-265.626
11
143.597
21
-265.626
0
LINE
8
BLACK
6
CONTINUOUS
10
143.597
20
-265.626
11
143.312
21
-265.483
0
LINE
8
BLACK
6
CONTINUOUS
10
143.312
20
-265.483
11
143.169
21
-265.197
0
LINE
8
BLACK
6
CONTINUOUS
10
143.169
20
-265.197
11
143.169
21
-265.054
0
LINE
8
BLACK
6
CONTINUOUS
10
143.169
20
-265.054
11
143.312
21
-264.768
0
LINE
8
BLACK
6
CONTINUOUS
10
143.312
20
-264.768
11
143.597
21
-264.626
0
LINE
8
BLACK
6
CONTINUOUS
10
143.597
20
-264.626
11
144.026
21
-264.626
0
LINE
8
BLACK
6
CONTINUOUS
10
144.026
20
-264.626
11
144.312
21
-264.768
0
LINE
8
BLACK
6
CONTINUOUS
10
145.455
20
-267.768
11
145.597
21
-267.626
0
LINE
8
BLACK
6
CONTINUOUS
10
145.597
20
-267.626
11
145.883
21
-267.197
0
LINE
8
BLACK
6
CONTINUOUS
10
145.883
20
-267.197
11
146.026
21
-266.911
0
LINE
8
BLACK
6
CONTINUOUS
10
146.026
20
-266.911
11
146.169
21
-266.483
0
LINE
8
BLACK
6
CONTINUOUS
10
146.169
20
-266.483
11
146.312
21
-265.768
0
LINE
8
BLACK
6
CONTINUOUS
10
146.312
20
-265.768
11
146.312
21
-265.197
0
LINE
8
BLACK
6
CONTINUOUS
10
146.312
20
-265.197
11
146.169
21
-264.483
0
LINE
8
BLACK
6
CONTINUOUS
10
146.169
20
-264.483
11
146.026
21
-264.054
0
LINE
8
BLACK
6
CONTINUOUS
10
146.026
20
-264.054
11
145.883
21
-263.768
0
LINE
8
BLACK
6
CONTINUOUS
10
145.883
20
-263.768
11
145.597
21
-263.34
0
LINE
8
BLACK
6
CONTINUOUS
10
145.597
20
-263.34
11
145.455
21
-263.197
0
CIRCLE
8
BLACK
10
73.626
20
-269.228
40
1.25
0
LINE
8
BLACK
6
CONTINUOUS
10
77.5974
20
-267.871
11
77.7403
21
-267.728
0
LINE
8
BLACK
6
CONTINUOUS
10
77.7403
20
-267.728
11
78.026
21
-267.586
0
LINE
8
BLACK
6
CONTINUOUS
10
78.026
20
-267.586
11
78.7403
21
-267.586
0
LINE
8
BLACK
6
CONTINUOUS
10
78.7403
20
-267.586
11
79.026
21
-267.728
0
LINE
8
BLACK
6
CONTINUOUS
10
79.026
20
-267.728
11
79.1689
21
-267.871
0
LINE
8
BLACK
6
CONTINUOUS
10
79.1689
20
-267.871
11
79.3117
21
-268.157
0
LINE
8
BLACK
6
CONTINUOUS
10
79.3117
20
-268.157
11
79.3117
21
-268.443
0
LINE
8
BLACK
6
CONTINUOUS
10
79.3117
20
-268.443
11
79.1689
21
-268.871
0
LINE
8
BLACK
6
CONTINUOUS
10
79.1689
20
-268.871
11
77.4546
21
-270.586
0
LINE
8
BLACK
6
CONTINUOUS
10
77.4546
20
-270.586
11
79.3117
21
-270.586
0
LINE
8
BLACK
6
CONTINUOUS
10
80.5974
20
-270.3
11
80.7403
21
-270.443
0
LINE
8
BLACK
6
CONTINUOUS
10
80.7403
20
-270.443
11
80.5974
21
-270.586
0
LINE
8
BLACK
6
CONTINUOUS
10
80.5974
20
-270.586
11
80.4546
21
-270.443
0
LINE
8
BLACK
6
CONTINUOUS
10
80.4546
20
-270.443
11
80.5974
21
-270.3
0
LINE
8
BLACK
6
CONTINUOUS
10
80.5974
20
-270.3
11
80.5974
21
-270.586
0
LINE
8
BLACK
6
CONTINUOUS
10
83.4546
20
-267.586
11
82.026
21
-267.586
0
LINE
8
BLACK
6
CONTINUOUS
10
82.026
20
-267.586
11
81.8831
21
-269.014
0
LINE
8
BLACK
6
CONTINUOUS
10
81.8831
20
-269.014
11
82.026
21
-268.871
0
LINE
8
BLACK
6
CONTINUOUS
10
82.026
20
-268.871
11
82.3117
21
-268.728
0
LINE
8
BLACK
6
CONTINUOUS
10
82.3117
20
-268.728
11
83.026
21
-268.728
0
LINE
8
BLACK
6
CONTINUOUS
10
83.026
20
-268.728
11
83.3117
21
-268.871
0
LINE
8
BLACK
6
CONTINUOUS
10
83.3117
20
-268.871
11
83.4546
21
-269.014
0
LINE
8
BLACK
6
CONTINUOUS
10
83.4546
20
-269.014
11
83.5974
21
-269.3
0
LINE
8
BLACK
6
CONTINUOUS
10
83.5974
20
-269.3
11
83.5974
21
-270.014
0
LINE
8
BLACK
6
CONTINUOUS
10
83.5974
20
-270.014
11
83.4546
21
-270.3
0
LINE
8
BLACK
6
CONTINUOUS
10
83.4546
20
-270.3
11
83.3117
21
-270.443
0
LINE
8
BLACK
6
CONTINUOUS
10
83.3117
20
-270.443
11
83.026
21
-270.586
0
LINE
8
BLACK
6
CONTINUOUS
10
83.026
20
-270.586
11
82.3117
21
-270.586
0
LINE
8
BLACK
6
CONTINUOUS
10
82.3117
20
-270.586
11
82.026
21
-270.443
0
LINE
8
BLACK
6
CONTINUOUS
10
82.026
20
-270.443
11
81.8831
21
-270.3
0
LINE
8
BLACK
6
CONTINUOUS
10
85.4546
20
-267.586
11
85.7403
21
-267.586
0
LINE
8
BLACK
6
CONTINUOUS
10
85.7403
20
-267.586
11
86.026
21
-267.728
0
LINE
8
BLACK
6
CONTINUOUS
10
86.026
20
-267.728
11
86.1689
21
-267.871
0
LINE
8
BLACK
6
CONTINUOUS
10
86.1689
20
-267.871
11
86.3117
21
-268.157
0
LINE
8
BLACK
6
CONTINUOUS
10
86.3117
20
-268.157
11
86.4546
21
-268.728
0
LINE
8
BLACK
6
CONTINUOUS
10
86.4546
20
-268.728
11
86.4546
21
-269.443
0
LINE
8
BLACK
6
CONTINUOUS
10
86.4546
20
-269.443
11
86.3117
21
-270.014
0
LINE
8
BLACK
6
CONTINUOUS
10
86.3117
20
-270.014
11
86.1689
21
-270.3
0
LINE
8
BLACK
6
CONTINUOUS
10
86.1689
20
-270.3
11
86.026
21
-270.443
0
LINE
8
BLACK
6
CONTINUOUS
10
86.026
20
-270.443
11
85.7403
21
-270.586
0
LINE
8
BLACK
6
CONTINUOUS
10
85.7403
20
-270.586
11
85.4546
21
-270.586
0
LINE
8
BLACK
6
CONTINUOUS
10
85.4546
20
-270.586
11
85.1689
21
-270.443
0
LINE
8
BLACK
6
CONTINUOUS
10
85.1689
20
-270.443
11
85.026
21
-270.3
0
LINE
8
BLACK
6
CONTINUOUS
10
85.026
20
-270.3
11
84.8831
21
-270.014
0
LINE
8
BLACK
6
CONTINUOUS
10
84.8831
20
-270.014
11
84.7403
21
-269.443
0
LINE
8
BLACK
6
CONTINUOUS
10
84.7403
20
-269.443
11
84.7403
21
-268.728
0
LINE
8
BLACK
6
CONTINUOUS
10
84.7403
20
-268.728
11
84.8831
21
-268.157
0
LINE
8
BLACK
6
CONTINUOUS
10
84.8831
20
-268.157
11
85.026
21
-267.871
0
LINE
8
BLACK
6
CONTINUOUS
10
85.026
20
-267.871
11
85.1689
21
-267.728
0
LINE
8
BLACK
6
CONTINUOUS
10
85.1689
20
-267.728
11
85.4546
21
-267.586
0
LINE
8
BLACK
6
CONTINUOUS
10
88.3117
20
-267.586
11
88.5974
21
-267.586
0
LINE
8
BLACK
6
CONTINUOUS
10
88.5974
20
-267.586
11
88.8831
21
-267.728
0
LINE
8
BLACK
6
CONTINUOUS
10
88.8831
20
-267.728
11
89.026
21
-267.871
0
LINE
8
BLACK
6
CONTINUOUS
10
89.026
20
-267.871
11
89.1689
21
-268.157
0
LINE
8
BLACK
6
CONTINUOUS
10
89.1689
20
-268.157
11
89.3117
21
-268.728
0
LINE
8
BLACK
6
CONTINUOUS
10
89.3117
20
-268.728
11
89.3117
21
-269.443
0
LINE
8
BLACK
6
CONTINUOUS
10
89.3117
20
-269.443
11
89.1689
21
-270.014
0
LINE
8
BLACK
6
CONTINUOUS
10
89.1689
20
-270.014
11
89.026
21
-270.3
0
LINE
8
BLACK
6
CONTINUOUS
10
89.026
20
-270.3
11
88.8831
21
-270.443
0
LINE
8
BLACK
6
CONTINUOUS
10
88.8831
20
-270.443
11
88.5974
21
-270.586
0
LINE
8
BLACK
6
CONTINUOUS
10
88.5974
20
-270.586
11
88.3117
21
-270.586
0
LINE
8
BLACK
6
CONTINUOUS
10
88.3117
20
-270.586
11
88.026
21
-270.443
0
LINE
8
BLACK
6
CONTINUOUS
10
88.026
20
-270.443
11
87.8831
21
-270.3
0
LINE
8
BLACK
6
CONTINUOUS
10
87.8831
20
-270.3
11
87.7403
21
-270.014
0
LINE
8
BLACK
6
CONTINUOUS
10
87.7403
20
-270.014
11
87.5974
21
-269.443
0
LINE
8
BLACK
6
CONTINUOUS
10
87.5974
20
-269.443
11
87.5974
21
-268.728
0
LINE
8
BLACK
6
CONTINUOUS
10
87.5974
20
-268.728
11
87.7403
21
-268.157
0
LINE
8
BLACK
6
CONTINUOUS
10
87.7403
20
-268.157
11
87.8831
21
-267.871
0
LINE
8
BLACK
6
CONTINUOUS
10
87.8831
20
-267.871
11
88.026
21
-267.728
0
LINE
8
BLACK
6
CONTINUOUS
10
88.026
20
-267.728
11
88.3117
21
-267.586
0
LINE
8
BLACK
6
CONTINUOUS
10
90.5974
20
-270.586
11
90.5974
21
-268.586
0
LINE
8
BLACK
6
CONTINUOUS
10
90.5974
20
-268.871
11
90.7403
21
-268.728
0
LINE
8
BLACK
6
CONTINUOUS
10
90.7403
20
-268.728
11
91.026
21
-268.586
0
LINE
8
BLACK
6
CONTINUOUS
10
91.026
20
-268.586
11
91.4546
21
-268.586
0
LINE
8
BLACK
6
CONTINUOUS
10
91.4546
20
-268.586
11
91.7403
21
-268.728
0
LINE
8
BLACK
6
CONTINUOUS
10
91.7403
20
-268.728
11
91.8831
21
-269.014
0
LINE
8
BLACK
6
CONTINUOUS
10
91.8831
20
-269.014
11
91.8831
21
-270.586
0
LINE
8
BLACK
6
CONTINUOUS
10
91.8831
20
-269.014
11
92.026
21
-268.728
0
LINE
8
BLACK
6
CONTINUOUS
10
92.026
20
-268.728
11
92.3117
21
-268.586
0
LINE
8
BLACK
6
CONTINUOUS
10
92.3117
20
-268.586
11
92.7403
21
-268.586
0
LINE
8
BLACK
6
CONTINUOUS
10
92.7403
20
-268.586
11
93.026
21
-268.728
0
LINE
8
BLACK
6
CONTINUOUS
10
93.026
20
-268.728
11
93.1689
21
-269.014
0
LINE
8
BLACK
6
CONTINUOUS
10
93.1689
20
-269.014
11
93.1689
21
-270.586
0
LINE
8
BLACK
6
CONTINUOUS
10
94.5974
20
-270.586
11
94.5974
21
-268.586
0
LINE
8
BLACK
6
CONTINUOUS
10
94.5974
20
-268.871
11
94.7403
21
-268.728
0
LINE
8
BLACK
6
CONTINUOUS
10
94.7403
20
-268.728
11
95.026
21
-268.586
0
LINE
8
BLACK
6
CONTINUOUS
10
95.026
20
-268.586
11
95.4546
21
-268.586
0
LINE
8
BLACK
6
CONTINUOUS
10
95.4546
20
-268.586
11
95.7403
21
-268.728
0
LINE
8
BLACK
6
CONTINUOUS
10
95.7403
20
-268.728
11
95.8831
21
-269.014
0
LINE
8
BLACK
6
CONTINUOUS
10
95.8831
20
-269.014
11
95.8831
21
-270.586
0
LINE
8
BLACK
6
CONTINUOUS
10
95.8831
20
-269.014
11
96.026
21
-268.728
0
LINE
8
BLACK
6
CONTINUOUS
10
96.026
20
-268.728
11
96.3117
21
-268.586
0
LINE
8
BLACK
6
CONTINUOUS
10
96.3117
20
-268.586
11
96.7403
21
-268.586
0
LINE
8
BLACK
6
CONTINUOUS
10
96.7403
20
-268.586
11
97.026
21
-268.728
0
LINE
8
BLACK
6
CONTINUOUS
10
97.026
20
-268.728
11
97.1689
21
-269.014
0
LINE
8
BLACK
6
CONTINUOUS
10
97.1689
20
-269.014
11
97.1689
21
-270.586
0
LINE
8
BLACK
6
CONTINUOUS
10
103.026
20
-267.443
11
100.455
21
-271.3
0
LINE
8
BLACK
6
CONTINUOUS
10
106.883
20
-267.586
11
107.169
21
-267.586
0
LINE
8
BLACK
6
CONTINUOUS
10
107.169
20
-267.586
11
107.455
21
-267.728
0
LINE
8
BLACK
6
CONTINUOUS
10
107.455
20
-267.728
11
107.597
21
-267.871
0
LINE
8
BLACK
6
CONTINUOUS
10
107.597
20
-267.871
11
107.74
21
-268.157
0
LINE
8
BLACK
6
CONTINUOUS
10
107.74
20
-268.157
11
107.883
21
-268.728
0
LINE
8
BLACK
6
CONTINUOUS
10
107.883
20
-268.728
11
107.883
21
-269.443
0
LINE
8
BLACK
6
CONTINUOUS
10
107.883
20
-269.443
11
107.74
21
-270.014
0
LINE
8
BLACK
6
CONTINUOUS
10
107.74
20
-270.014
11
107.597
21
-270.3
0
LINE
8
BLACK
6
CONTINUOUS
10
107.597
20
-270.3
11
107.455
21
-270.443
0
LINE
8
BLACK
6
CONTINUOUS
10
107.455
20
-270.443
11
107.169
21
-270.586
0
LINE
8
BLACK
6
CONTINUOUS
10
107.169
20
-270.586
11
106.883
21
-270.586
0
LINE
8
BLACK
6
CONTINUOUS
10
106.883
20
-270.586
11
106.597
21
-270.443
0
LINE
8
BLACK
6
CONTINUOUS
10
106.597
20
-270.443
11
106.455
21
-270.3
0
LINE
8
BLACK
6
CONTINUOUS
10
106.455
20
-270.3
11
106.312
21
-270.014
0
LINE
8
BLACK
6
CONTINUOUS
10
106.312
20
-270.014
11
106.169
21
-269.443
0
LINE
8
BLACK
6
CONTINUOUS
10
106.169
20
-269.443
11
106.169
21
-268.728
0
LINE
8
BLACK
6
CONTINUOUS
10
106.169
20
-268.728
11
106.312
21
-268.157
0
LINE
8
BLACK
6
CONTINUOUS
10
106.312
20
-268.157
11
106.455
21
-267.871
0
LINE
8
BLACK
6
CONTINUOUS
10
106.455
20
-267.871
11
106.597
21
-267.728
0
LINE
8
BLACK
6
CONTINUOUS
10
106.597
20
-267.728
11
106.883
21
-267.586
0
LINE
8
BLACK
6
CONTINUOUS
10
109.169
20
-270.3
11
109.312
21
-270.443
0
LINE
8
BLACK
6
CONTINUOUS
10
109.312
20
-270.443
11
109.169
21
-270.586
0
LINE
8
BLACK
6
CONTINUOUS
10
109.169
20
-270.586
11
109.026
21
-270.443
0
LINE
8
BLACK
6
CONTINUOUS
10
109.026
20
-270.443
11
109.169
21
-270.3
0
LINE
8
BLACK
6
CONTINUOUS
10
109.169
20
-270.3
11
109.169
21
-270.586
0
LINE
8
BLACK
6
CONTINUOUS
10
111.169
20
-267.586
11
111.455
21
-267.586
0
LINE
8
BLACK
6
CONTINUOUS
10
111.455
20
-267.586
11
111.74
21
-267.728
0
LINE
8
BLACK
6
CONTINUOUS
10
111.74
20
-267.728
11
111.883
21
-267.871
0
LINE
8
BLACK
6
CONTINUOUS
10
111.883
20
-267.871
11
112.026
21
-268.157
0
LINE
8
BLACK
6
CONTINUOUS
10
112.026
20
-268.157
11
112.169
21
-268.728
0
LINE
8
BLACK
6
CONTINUOUS
10
112.169
20
-268.728
11
112.169
21
-269.443
0
LINE
8
BLACK
6
CONTINUOUS
10
112.169
20
-269.443
11
112.026
21
-270.014
0
LINE
8
BLACK
6
CONTINUOUS
10
112.026
20
-270.014
11
111.883
21
-270.3
0
LINE
8
BLACK
6
CONTINUOUS
10
111.883
20
-270.3
11
111.74
21
-270.443
0
LINE
8
BLACK
6
CONTINUOUS
10
111.74
20
-270.443
11
111.455
21
-270.586
0
LINE
8
BLACK
6
CONTINUOUS
10
111.455
20
-270.586
11
111.169
21
-270.586
0
LINE
8
BLACK
6
CONTINUOUS
10
111.169
20
-270.586
11
110.883
21
-270.443
0
LINE
8
BLACK
6
CONTINUOUS
10
110.883
20
-270.443
11
110.74
21
-270.3
0
LINE
8
BLACK
6
CONTINUOUS
10
110.74
20
-270.3
11
110.597
21
-270.014
0
LINE
8
BLACK
6
CONTINUOUS
10
110.597
20
-270.014
11
110.455
21
-269.443
0
LINE
8
BLACK
6
CONTINUOUS
10
110.455
20
-269.443
11
110.455
21
-268.728
0
LINE
8
BLACK
6
CONTINUOUS
10
110.455
20
-268.728
11
110.597
21
-268.157
0
LINE
8
BLACK
6
CONTINUOUS
10
110.597
20
-268.157
11
110.74
21
-267.871
0
LINE
8
BLACK
6
CONTINUOUS
10
110.74
20
-267.871
11
110.883
21
-267.728
0
LINE
8
BLACK
6
CONTINUOUS
10
110.883
20
-267.728
11
111.169
21
-267.586
0
LINE
8
BLACK
6
CONTINUOUS
10
113.597
20
-270.586
11
114.169
21
-270.586
0
LINE
8
BLACK
6
CONTINUOUS
10
114.169
20
-270.586
11
114.455
21
-270.443
0
LINE
8
BLACK
6
CONTINUOUS
10
114.455
20
-270.443
11
114.597
21
-270.3
0
LINE
8
BLACK
6
CONTINUOUS
10
114.597
20
-270.3
11
114.883
21
-269.871
0
LINE
8
BLACK
6
CONTINUOUS
10
114.883
20
-269.871
11
115.026
21
-269.3
0
LINE
8
BLACK
6
CONTINUOUS
10
115.026
20
-269.3
11
115.026
21
-268.157
0
LINE
8
BLACK
6
CONTINUOUS
10
115.026
20
-268.157
11
114.883
21
-267.871
0
LINE
8
BLACK
6
CONTINUOUS
10
114.883
20
-267.871
11
114.74
21
-267.728
0
LINE
8
BLACK
6
CONTINUOUS
10
114.74
20
-267.728
11
114.455
21
-267.586
0
LINE
8
BLACK
6
CONTINUOUS
10
114.455
20
-267.586
11
113.883
21
-267.586
0
LINE
8
BLACK
6
CONTINUOUS
10
113.883
20
-267.586
11
113.597
21
-267.728
0
LINE
8
BLACK
6
CONTINUOUS
10
113.597
20
-267.728
11
113.455
21
-267.871
0
LINE
8
BLACK
6
CONTINUOUS
10
113.455
20
-267.871
11
113.312
21
-268.157
0
LINE
8
BLACK
6
CONTINUOUS
10
113.312
20
-268.157
11
113.312
21
-268.871
0
LINE
8
BLACK
6
CONTINUOUS
10
113.312
20
-268.871
11
113.455
21
-269.157
0
LINE
8
BLACK
6
CONTINUOUS
10
113.455
20
-269.157
11
113.597
21
-269.3
0
LINE
8
BLACK
6
CONTINUOUS
10
113.597
20
-269.3
11
113.883
21
-269.443
0
LINE
8
BLACK
6
CONTINUOUS
10
113.883
20
-269.443
11
114.455
21
-269.443
0
LINE
8
BLACK
6
CONTINUOUS
10
114.455
20
-269.443
11
114.74
21
-269.3
0
LINE
8
BLACK
6
CONTINUOUS
10
114.74
20
-269.3
11
114.883
21
-269.157
0
LINE
8
BLACK
6
CONTINUOUS
10
114.883
20
-269.157
11
115.026
21
-268.871
0
LINE
8
BLACK
6
CONTINUOUS
10
116.74
20
-268.871
11
116.455
21
-268.728
0
LINE
8
BLACK
6
CONTINUOUS
10
116.455
20
-268.728
11
116.312
21
-268.586
0
LINE
8
BLACK
6
CONTINUOUS
10
116.312
20
-268.586
11
116.169
21
-268.3
0
LINE
8
BLACK
6
CONTINUOUS
10
116.169
20
-268.3
11
116.169
21
-268.157
0
LINE
8
BLACK
6
CONTINUOUS
10
116.169
20
-268.157
11
116.312
21
-267.871
0
LINE
8
BLACK
6
CONTINUOUS
10
116.312
20
-267.871
11
116.455
21
-267.728
0
LINE
8
BLACK
6
CONTINUOUS
10
116.455
20
-267.728
11
116.74
21
-267.586
0
LINE
8
BLACK
6
CONTINUOUS
10
116.74
20
-267.586
11
117.312
21
-267.586
0
LINE
8
BLACK
6
CONTINUOUS
10
117.312
20
-267.586
11
117.597
21
-267.728
0
LINE
8
BLACK
6
CONTINUOUS
10
117.597
20
-267.728
11
117.74
21
-267.871
0
LINE
8
BLACK
6
CONTINUOUS
10
117.74
20
-267.871
11
117.883
21
-268.157
0
LINE
8
BLACK
6
CONTINUOUS
10
117.883
20
-268.157
11
117.883
21
-268.3
0
LINE
8
BLACK
6
CONTINUOUS
10
117.883
20
-268.3
11
117.74
21
-268.586
0
LINE
8
BLACK
6
CONTINUOUS
10
117.74
20
-268.586
11
117.597
21
-268.728
0
LINE
8
BLACK
6
CONTINUOUS
10
117.597
20
-268.728
11
117.312
21
-268.871
0
LINE
8
BLACK
6
CONTINUOUS
10
117.312
20
-268.871
11
116.74
21
-268.871
0
LINE
8
BLACK
6
CONTINUOUS
10
116.74
20
-268.871
11
116.455
21
-269.014
0
LINE
8
BLACK
6
CONTINUOUS
10
116.455
20
-269.014
11
116.312
21
-269.157
0
LINE
8
BLACK
6
CONTINUOUS
10
116.312
20
-269.157
11
116.169
21
-269.443
0
LINE
8
BLACK
6
CONTINUOUS
10
116.169
20
-269.443
11
116.169
21
-270.014
0
LINE
8
BLACK
6
CONTINUOUS
10
116.169
20
-270.014
11
116.312
21
-270.3
0
LINE
8
BLACK
6
CONTINUOUS
10
116.312
20
-270.3
11
116.455
21
-270.443
0
LINE
8
BLACK
6
CONTINUOUS
10
116.455
20
-270.443
11
116.74
21
-270.586
0
LINE
8
BLACK
6
CONTINUOUS
10
116.74
20
-270.586
11
117.312
21
-270.586
0
LINE
8
BLACK
6
CONTINUOUS
10
117.312
20
-270.586
11
117.597
21
-270.443
0
LINE
8
BLACK
6
CONTINUOUS
10
117.597
20
-270.443
11
117.74
21
-270.3
0
LINE
8
BLACK
6
CONTINUOUS
10
117.74
20
-270.3
11
117.883
21
-270.014
0
LINE
8
BLACK
6
CONTINUOUS
10
117.883
20
-270.014
11
117.883
21
-269.443
0
LINE
8
BLACK
6
CONTINUOUS
10
117.883
20
-269.443
11
117.74
21
-269.157
0
LINE
8
BLACK
6
CONTINUOUS
10
117.74
20
-269.157
11
117.597
21
-269.014
0
LINE
8
BLACK
6
CONTINUOUS
10
117.597
20
-269.014
11
117.312
21
-268.871
0
LINE
8
BLACK
6
CONTINUOUS
10
120.455
20
-268.586
11
120.455
21
-270.586
0
LINE
8
BLACK
6
CONTINUOUS
10
119.74
20
-267.443
11
119.026
21
-269.586
0
LINE
8
BLACK
6
CONTINUOUS
10
119.026
20
-269.586
11
120.883
21
-269.586
0
LINE
8
BLACK
6
CONTINUOUS
10
121.883
20
-267.586
11
121.883
21
-268.157
0
LINE
8
BLACK
6
CONTINUOUS
10
123.026
20
-267.586
11
123.026
21
-268.157
0
LINE
8
BLACK
6
CONTINUOUS
10
127.455
20
-271.728
11
127.312
21
-271.586
0
LINE
8
BLACK
6
CONTINUOUS
10
127.312
20
-271.586
11
127.026
21
-271.157
0
LINE
8
BLACK
6
CONTINUOUS
10
127.026
20
-271.157
11
126.883
21
-270.871
0
LINE
8
BLACK
6
CONTINUOUS
10
126.883
20
-270.871
11
126.74
21
-270.443
0
LINE
8
BLACK
6
CONTINUOUS
10
126.74
20
-270.443
11
126.597
21
-269.728
0
LINE
8
BLACK
6
CONTINUOUS
10
126.597
20
-269.728
11
126.597
21
-269.157
0
LINE
8
BLACK
6
CONTINUOUS
10
126.597
20
-269.157
11
126.74
21
-268.443
0
LINE
8
BLACK
6
CONTINUOUS
10
126.74
20
-268.443
11
126.883
21
-268.014
0
LINE
8
BLACK
6
CONTINUOUS
10
126.883
20
-268.014
11
127.026
21
-267.728
0
LINE
8
BLACK
6
CONTINUOUS
10
127.026
20
-267.728
11
127.312
21
-267.3
0
LINE
8
BLACK
6
CONTINUOUS
10
127.312
20
-267.3
11
127.455
21
-267.157
0
LINE
8
BLACK
6
CONTINUOUS
10
128.455
20
-267.871
11
128.597
21
-267.728
0
LINE
8
BLACK
6
CONTINUOUS
10
128.597
20
-267.728
11
128.883
21
-267.586
0
LINE
8
BLACK
6
CONTINUOUS
10
128.883
20
-267.586
11
129.597
21
-267.586
0
LINE
8
BLACK
6
CONTINUOUS
10
129.597
20
-267.586
11
129.883
21
-267.728
0
LINE
8
BLACK
6
CONTINUOUS
10
129.883
20
-267.728
11
130.026
21
-267.871
0
LINE
8
BLACK
6
CONTINUOUS
10
130.026
20
-267.871
11
130.169
21
-268.157
0
LINE
8
BLACK
6
CONTINUOUS
10
130.169
20
-268.157
11
130.169
21
-268.443
0
LINE
8
BLACK
6
CONTINUOUS
10
130.169
20
-268.443
11
130.026
21
-268.871
0
LINE
8
BLACK
6
CONTINUOUS
10
130.026
20
-268.871
11
128.312
21
-270.586
0
LINE
8
BLACK
6
CONTINUOUS
10
128.312
20
-270.586
11
130.169
21
-270.586
0
LINE
8
BLACK
6
CONTINUOUS
10
133.74
20
-270.586
11
133.74
21
-267.586
0
LINE
8
BLACK
6
CONTINUOUS
10
135.026
20
-270.586
11
135.026
21
-269.014
0
LINE
8
BLACK
6
CONTINUOUS
10
135.026
20
-269.014
11
134.883
21
-268.728
0
LINE
8
BLACK
6
CONTINUOUS
10
134.883
20
-268.728
11
134.597
21
-268.586
0
LINE
8
BLACK
6
CONTINUOUS
10
134.597
20
-268.586
11
134.169
21
-268.586
0
LINE
8
BLACK
6
CONTINUOUS
10
134.169
20
-268.586
11
133.883
21
-268.728
0
LINE
8
BLACK
6
CONTINUOUS
10
133.883
20
-268.728
11
133.74
21
-268.871
0
LINE
8
BLACK
6
CONTINUOUS
10
136.883
20
-270.586
11
136.597
21
-270.443
0
LINE
8
BLACK
6
CONTINUOUS
10
136.597
20
-270.443
11
136.455
21
-270.3
0
LINE
8
BLACK
6
CONTINUOUS
10
136.455
20
-270.3
11
136.312
21
-270.014
0
LINE
8
BLACK
6
CONTINUOUS
10
136.312
20
-270.014
11
136.312
21
-269.157
0
LINE
8
BLACK
6
CONTINUOUS
10
136.312
20
-269.157
11
136.455
21
-268.871
0
LINE
8
BLACK
6
CONTINUOUS
10
136.455
20
-268.871
11
136.597
21
-268.728
0
LINE
8
BLACK
6
CONTINUOUS
10
136.597
20
-268.728
11
136.883
21
-268.586
0
LINE
8
BLACK
6
CONTINUOUS
10
136.883
20
-268.586
11
137.312
21
-268.586
0
LINE
8
BLACK
6
CONTINUOUS
10
137.312
20
-268.586
11
137.597
21
-268.728
0
LINE
8
BLACK
6
CONTINUOUS
10
137.597
20
-268.728
11
137.74
21
-268.871
0
LINE
8
BLACK
6
CONTINUOUS
10
137.74
20
-268.871
11
137.883
21
-269.157
0
LINE
8
BLACK
6
CONTINUOUS
10
137.883
20
-269.157
11
137.883
21
-270.014
0
LINE
8
BLACK
6
CONTINUOUS
10
137.883
20
-270.014
11
137.74
21
-270.3
0
LINE
8
BLACK
6
CONTINUOUS
10
137.74
20
-270.3
11
137.597
21
-270.443
0
LINE
8
BLACK
6
CONTINUOUS
10
137.597
20
-270.443
11
137.312
21
-270.586
0
LINE
8
BLACK
6
CONTINUOUS
10
137.312
20
-270.586
11
136.883
21
-270.586
0
LINE
8
BLACK
6
CONTINUOUS
10
139.597
20
-270.586
11
139.312
21
-270.443
0
LINE
8
BLACK
6
CONTINUOUS
10
139.312
20
-270.443
11
139.169
21
-270.157
0
LINE
8
BLACK
6
CONTINUOUS
10
139.169
20
-270.157
11
139.169
21
-267.586
0
LINE
8
BLACK
6
CONTINUOUS
10
141.883
20
-270.443
11
141.597
21
-270.586
0
LINE
8
BLACK
6
CONTINUOUS
10
141.597
20
-270.586
11
141.026
21
-270.586
0
LINE
8
BLACK
6
CONTINUOUS
10
141.026
20
-270.586
11
140.74
21
-270.443
0
LINE
8
BLACK
6
CONTINUOUS
10
140.74
20
-270.443
11
140.597
21
-270.157
0
LINE
8
BLACK
6
CONTINUOUS
10
140.597
20
-270.157
11
140.597
21
-269.014
0
LINE
8
BLACK
6
CONTINUOUS
10
140.597
20
-269.014
11
140.74
21
-268.728
0
LINE
8
BLACK
6
CONTINUOUS
10
140.74
20
-268.728
11
141.026
21
-268.586
0
LINE
8
BLACK
6
CONTINUOUS
10
141.026
20
-268.586
11
141.597
21
-268.586
0
LINE
8
BLACK
6
CONTINUOUS
10
141.597
20
-268.586
11
141.883
21
-268.728
0
LINE
8
BLACK
6
CONTINUOUS
10
141.883
20
-268.728
11
142.026
21
-269.014
0
LINE
8
BLACK
6
CONTINUOUS
10
142.026
20
-269.014
11
142.026
21
-269.3
0
LINE
8
BLACK
6
CONTINUOUS
10
142.026
20
-269.3
11
140.597
21
-269.586
0
LINE
8
BLACK
6
CONTINUOUS
10
143.169
20
-270.443
11
143.455
21
-270.586
0
LINE
8
BLACK
6
CONTINUOUS
10
143.455
20
-270.586
11
144.026
21
-270.586
0
LINE
8
BLACK
6
CONTINUOUS
10
144.026
20
-270.586
11
144.312
21
-270.443
0
LINE
8
BLACK
6
CONTINUOUS
10
144.312
20
-270.443
11
144.455
21
-270.157
0
LINE
8
BLACK
6
CONTINUOUS
10
144.455
20
-270.157
11
144.455
21
-270.014
0
LINE
8
BLACK
6
CONTINUOUS
10
144.455
20
-270.014
11
144.312
21
-269.728
0
LINE
8
BLACK
6
CONTINUOUS
10
144.312
20
-269.728
11
144.026
21
-269.586
0
LINE
8
BLACK
6
CONTINUOUS
10
144.026
20
-269.586
11
143.597
21
-269.586
0
LINE
8
BLACK
6
CONTINUOUS
10
143.597
20
-269.586
11
143.312
21
-269.443
0
LINE
8
BLACK
6
CONTINUOUS
10
143.312
20
-269.443
11
143.169
21
-269.157
0
LINE
8
BLACK
6
CONTINUOUS
10
143.169
20
-269.157
11
143.169
21
-269.014
0
LINE
8
BLACK
6
CONTINUOUS
10
143.169
20
-269.014
11
143.312
21
-268.728
0
LINE
8
BLACK
6
CONTINUOUS
10
143.312
20
-268.728
11
143.597
21
-268.586
0
LINE
8
BLACK
6
CONTINUOUS
10
143.597
20
-268.586
11
144.026
21
-268.586
0
LINE
8
BLACK
6
CONTINUOUS
10
144.026
20
-268.586
11
144.312
21
-268.728
0
LINE
8
BLACK
6
CONTINUOUS
10
145.455
20
-271.728
11
145.597
21
-271.586
0
LINE
8
BLACK
6
CONTINUOUS
10
145.597
20
-271.586
11
145.883
21
-271.157
0
LINE
8
BLACK
6
CONTINUOUS
10
145.883
20
-271.157
11
146.026
21
-270.871
0
LINE
8
BLACK
6
CONTINUOUS
10
146.026
20
-270.871
11
146.169
21
-270.443
0
LINE
8
BLACK
6
CONTINUOUS
10
146.169
20
-270.443
11
146.312
21
-269.728
0
LINE
8
BLACK
6
CONTINUOUS
10
146.312
20
-269.728
11
146.312
21
-269.157
0
LINE
8
BLACK
6
CONTINUOUS
10
146.312
20
-269.157
11
146.169
21
-268.443
0
LINE
8
BLACK
6
CONTINUOUS
10
146.169
20
-268.443
11
146.026
21
-268.014
0
LINE
8
BLACK
6
CONTINUOUS
10
146.026
20
-268.014
11
145.883
21
-267.728
0
LINE
8
BLACK
6
CONTINUOUS
10
145.883
20
-267.728
11
145.597
21
-267.3
0
LINE
8
BLACK
6
CONTINUOUS
10
145.597
20
-267.3
11
145.455
21
-267.157
0
LINE
8
BLACK
6
CONTINUOUS
10
73.276
20
-271.588
11
73.276
21
-274.788
0
LINE
8
BLACK
6
CONTINUOUS
10
71.676
20
-273.188
11
74.876
21
-273.188
0
LINE
8
BLACK
6
CONTINUOUS
10
77.4546
20
-271.546
11
79.3117
21
-271.546
0
LINE
8
BLACK
6
CONTINUOUS
10
79.3117
20
-271.546
11
78.3117
21
-272.688
0
LINE
8
BLACK
6
CONTINUOUS
10
78.3117
20
-272.688
11
78.7403
21
-272.688
0
LINE
8
BLACK
6
CONTINUOUS
10
78.7403
20
-272.688
11
79.026
21
-272.831
0
LINE
8
BLACK
6
CONTINUOUS
10
79.026
20
-272.831
11
79.1689
21
-272.974
0
LINE
8
BLACK
6
CONTINUOUS
10
79.1689
20
-272.974
11
79.3117
21
-273.26
0
LINE
8
BLACK
6
CONTINUOUS
10
79.3117
20
-273.26
11
79.3117
21
-273.974
0
LINE
8
BLACK
6
CONTINUOUS
10
79.3117
20
-273.974
11
79.1689
21
-274.26
0
LINE
8
BLACK
6
CONTINUOUS
10
79.1689
20
-274.26
11
79.026
21
-274.403
0
LINE
8
BLACK
6
CONTINUOUS
10
79.026
20
-274.403
11
78.7403
21
-274.546
0
LINE
8
BLACK
6
CONTINUOUS
10
78.7403
20
-274.546
11
77.8831
21
-274.546
0
LINE
8
BLACK
6
CONTINUOUS
10
77.8831
20
-274.546
11
77.5974
21
-274.403
0
LINE
8
BLACK
6
CONTINUOUS
10
77.5974
20
-274.403
11
77.4546
21
-274.26
0
LINE
8
BLACK
6
CONTINUOUS
10
80.5974
20
-274.26
11
80.7403
21
-274.403
0
LINE
8
BLACK
6
CONTINUOUS
10
80.7403
20
-274.403
11
80.5974
21
-274.546
0
LINE
8
BLACK
6
CONTINUOUS
10
80.5974
20
-274.546
11
80.4546
21
-274.403
0
LINE
8
BLACK
6
CONTINUOUS
10
80.4546
20
-274.403
11
80.5974
21
-274.26
0
LINE
8
BLACK
6
CONTINUOUS
10
80.5974
20
-274.26
11
80.5974
21
-274.546
0
LINE
8
BLACK
6
CONTINUOUS
10
81.8831
20
-271.831
11
82.026
21
-271.688
0
LINE
8
BLACK
6
CONTINUOUS
10
82.026
20
-271.688
11
82.3117
21
-271.546
0
LINE
8
BLACK
6
CONTINUOUS
10
82.3117
20
-271.546
11
83.026
21
-271.546
0
LINE
8
BLACK
6
CONTINUOUS
10
83.026
20
-271.546
11
83.3117
21
-271.688
0
LINE
8
BLACK
6
CONTINUOUS
10
83.3117
20
-271.688
11
83.4546
21
-271.831
0
LINE
8
BLACK
6
CONTINUOUS
10
83.4546
20
-271.831
11
83.5974
21
-272.117
0
LINE
8
BLACK
6
CONTINUOUS
10
83.5974
20
-272.117
11
83.5974
21
-272.403
0
LINE
8
BLACK
6
CONTINUOUS
10
83.5974
20
-272.403
11
83.4546
21
-272.831
0
LINE
8
BLACK
6
CONTINUOUS
10
83.4546
20
-272.831
11
81.7403
21
-274.546
0
LINE
8
BLACK
6
CONTINUOUS
10
81.7403
20
-274.546
11
83.5974
21
-274.546
0
LINE
8
BLACK
6
CONTINUOUS
10
85.4546
20
-271.546
11
85.7403
21
-271.546
0
LINE
8
BLACK
6
CONTINUOUS
10
85.7403
20
-271.546
11
86.026
21
-271.688
0
LINE
8
BLACK
6
CONTINUOUS
10
86.026
20
-271.688
11
86.1689
21
-271.831
0
LINE
8
BLACK
6
CONTINUOUS
10
86.1689
20
-271.831
11
86.3117
21
-272.117
0
LINE
8
BLACK
6
CONTINUOUS
10
86.3117
20
-272.117
11
86.4546
21
-272.688
0
LINE
8
BLACK
6
CONTINUOUS
10
86.4546
20
-272.688
11
86.4546
21
-273.403
0
LINE
8
BLACK
6
CONTINUOUS
10
86.4546
20
-273.403
11
86.3117
21
-273.974
0
LINE
8
BLACK
6
CONTINUOUS
10
86.3117
20
-273.974
11
86.1689
21
-274.26
0
LINE
8
BLACK
6
CONTINUOUS
10
86.1689
20
-274.26
11
86.026
21
-274.403
0
LINE
8
BLACK
6
CONTINUOUS
10
86.026
20
-274.403
11
85.7403
21
-274.546
0
LINE
8
BLACK
6
CONTINUOUS
10
85.7403
20
-274.546
11
85.4546
21
-274.546
0
LINE
8
BLACK
6
CONTINUOUS
10
85.4546
20
-274.546
11
85.1689
21
-274.403
0
LINE
8
BLACK
6
CONTINUOUS
10
85.1689
20
-274.403
11
85.026
21
-274.26
0
LINE
8
BLACK
6
CONTINUOUS
10
85.026
20
-274.26
11
84.8831
21
-273.974
0
LINE
8
BLACK
6
CONTINUOUS
10
84.8831
20
-273.974
11
84.7403
21
-273.403
0
LINE
8
BLACK
6
CONTINUOUS
10
84.7403
20
-273.403
11
84.7403
21
-272.688
0
LINE
8
BLACK
6
CONTINUOUS
10
84.7403
20
-272.688
11
84.8831
21
-272.117
0
LINE
8
BLACK
6
CONTINUOUS
10
84.8831
20
-272.117
11
85.026
21
-271.831
0
LINE
8
BLACK
6
CONTINUOUS
10
85.026
20
-271.831
11
85.1689
21
-271.688
0
LINE
8
BLACK
6
CONTINUOUS
10
85.1689
20
-271.688
11
85.4546
21
-271.546
0
LINE
8
BLACK
6
CONTINUOUS
10
88.3117
20
-271.546
11
88.5974
21
-271.546
0
LINE
8
BLACK
6
CONTINUOUS
10
88.5974
20
-271.546
11
88.8831
21
-271.688
0
LINE
8
BLACK
6
CONTINUOUS
10
88.8831
20
-271.688
11
89.026
21
-271.831
0
LINE
8
BLACK
6
CONTINUOUS
10
89.026
20
-271.831
11
89.1689
21
-272.117
0
LINE
8
BLACK
6
CONTINUOUS
10
89.1689
20
-272.117
11
89.3117
21
-272.688
0
LINE
8
BLACK
6
CONTINUOUS
10
89.3117
20
-272.688
11
89.3117
21
-273.403
0
LINE
8
BLACK
6
CONTINUOUS
10
89.3117
20
-273.403
11
89.1689
21
-273.974
0
LINE
8
BLACK
6
CONTINUOUS
10
89.1689
20
-273.974
11
89.026
21
-274.26
0
LINE
8
BLACK
6
CONTINUOUS
10
89.026
20
-274.26
11
88.8831
21
-274.403
0
LINE
8
BLACK
6
CONTINUOUS
10
88.8831
20
-274.403
11
88.5974
21
-274.546
0
LINE
8
BLACK
6
CONTINUOUS
10
88.5974
20
-274.546
11
88.3117
21
-274.546
0
LINE
8
BLACK
6
CONTINUOUS
10
88.3117
20
-274.546
11
88.026
21
-274.403
0
LINE
8
BLACK
6
CONTINUOUS
10
88.026
20
-274.403
11
87.8831
21
-274.26
0
LINE
8
BLACK
6
CONTINUOUS
10
87.8831
20
-274.26
11
87.7403
21
-273.974
0
LINE
8
BLACK
6
CONTINUOUS
10
87.7403
20
-273.974
11
87.5974
21
-273.403
0
LINE
8
BLACK
6
CONTINUOUS
10
87.5974
20
-273.403
11
87.5974
21
-272.688
0
LINE
8
BLACK
6
CONTINUOUS
10
87.5974
20
-272.688
11
87.7403
21
-272.117
0
LINE
8
BLACK
6
CONTINUOUS
10
87.7403
20
-272.117
11
87.8831
21
-271.831
0
LINE
8
BLACK
6
CONTINUOUS
10
87.8831
20
-271.831
11
88.026
21
-271.688
0
LINE
8
BLACK
6
CONTINUOUS
10
88.026
20
-271.688
11
88.3117
21
-271.546
0
LINE
8
BLACK
6
CONTINUOUS
10
90.5974
20
-274.546
11
90.5974
21
-272.546
0
LINE
8
BLACK
6
CONTINUOUS
10
90.5974
20
-272.831
11
90.7403
21
-272.688
0
LINE
8
BLACK
6
CONTINUOUS
10
90.7403
20
-272.688
11
91.026
21
-272.546
0
LINE
8
BLACK
6
CONTINUOUS
10
91.026
20
-272.546
11
91.4546
21
-272.546
0
LINE
8
BLACK
6
CONTINUOUS
10
91.4546
20
-272.546
11
91.7403
21
-272.688
0
LINE
8
BLACK
6
CONTINUOUS
10
91.7403
20
-272.688
11
91.8831
21
-272.974
0
LINE
8
BLACK
6
CONTINUOUS
10
91.8831
20
-272.974
11
91.8831
21
-274.546
0
LINE
8
BLACK
6
CONTINUOUS
10
91.8831
20
-272.974
11
92.026
21
-272.688
0
LINE
8
BLACK
6
CONTINUOUS
10
92.026
20
-272.688
11
92.3117
21
-272.546
0
LINE
8
BLACK
6
CONTINUOUS
10
92.3117
20
-272.546
11
92.7403
21
-272.546
0
LINE
8
BLACK
6
CONTINUOUS
10
92.7403
20
-272.546
11
93.026
21
-272.688
0
LINE
8
BLACK
6
CONTINUOUS
10
93.026
20
-272.688
11
93.1689
21
-272.974
0
LINE
8
BLACK
6
CONTINUOUS
10
93.1689
20
-272.974
11
93.1689
21
-274.546
0
LINE
8
BLACK
6
CONTINUOUS
10
94.5974
20
-274.546
11
94.5974
21
-272.546
0
LINE
8
BLACK
6
CONTINUOUS
10
94.5974
20
-272.831
11
94.7403
21
-272.688
0
LINE
8
BLACK
6
CONTINUOUS
10
94.7403
20
-272.688
11
95.026
21
-272.546
0
LINE
8
BLACK
6
CONTINUOUS
10
95.026
20
-272.546
11
95.4546
21
-272.546
0
LINE
8
BLACK
6
CONTINUOUS
10
95.4546
20
-272.546
11
95.7403
21
-272.688
0
LINE
8
BLACK
6
CONTINUOUS
10
95.7403
20
-272.688
11
95.8831
21
-272.974
0
LINE
8
BLACK
6
CONTINUOUS
10
95.8831
20
-272.974
11
95.8831
21
-274.546
0
LINE
8
BLACK
6
CONTINUOUS
10
95.8831
20
-272.974
11
96.026
21
-272.688
0
LINE
8
BLACK
6
CONTINUOUS
10
96.026
20
-272.688
11
96.3117
21
-272.546
0
LINE
8
BLACK
6
CONTINUOUS
10
96.3117
20
-272.546
11
96.7403
21
-272.546
0
LINE
8
BLACK
6
CONTINUOUS
10
96.7403
20
-272.546
11
97.026
21
-272.688
0
LINE
8
BLACK
6
CONTINUOUS
10
97.026
20
-272.688
11
97.1689
21
-272.974
0
LINE
8
BLACK
6
CONTINUOUS
10
97.1689
20
-272.974
11
97.1689
21
-274.546
0
LINE
8
BLACK
6
CONTINUOUS
10
103.026
20
-271.403
11
100.455
21
-275.26
0
LINE
8
BLACK
6
CONTINUOUS
10
106.883
20
-271.546
11
107.169
21
-271.546
0
LINE
8
BLACK
6
CONTINUOUS
10
107.169
20
-271.546
11
107.455
21
-271.688
0
LINE
8
BLACK
6
CONTINUOUS
10
107.455
20
-271.688
11
107.597
21
-271.831
0
LINE
8
BLACK
6
CONTINUOUS
10
107.597
20
-271.831
11
107.74
21
-272.117
0
LINE
8
BLACK
6
CONTINUOUS
10
107.74
20
-272.117
11
107.883
21
-272.688
0
LINE
8
BLACK
6
CONTINUOUS
10
107.883
20
-272.688
11
107.883
21
-273.403
0
LINE
8
BLACK
6
CONTINUOUS
10
107.883
20
-273.403
11
107.74
21
-273.974
0
LINE
8
BLACK
6
CONTINUOUS
10
107.74
20
-273.974
11
107.597
21
-274.26
0
LINE
8
BLACK
6
CONTINUOUS
10
107.597
20
-274.26
11
107.455
21
-274.403
0
LINE
8
BLACK
6
CONTINUOUS
10
107.455
20
-274.403
11
107.169
21
-274.546
0
LINE
8
BLACK
6
CONTINUOUS
10
107.169
20
-274.546
11
106.883
21
-274.546
0
LINE
8
BLACK
6
CONTINUOUS
10
106.883
20
-274.546
11
106.597
21
-274.403
0
LINE
8
BLACK
6
CONTINUOUS
10
106.597
20
-274.403
11
106.455
21
-274.26
0
LINE
8
BLACK
6
CONTINUOUS
10
106.455
20
-274.26
11
106.312
21
-273.974
0
LINE
8
BLACK
6
CONTINUOUS
10
106.312
20
-273.974
11
106.169
21
-273.403
0
LINE
8
BLACK
6
CONTINUOUS
10
106.169
20
-273.403
11
106.169
21
-272.688
0
LINE
8
BLACK
6
CONTINUOUS
10
106.169
20
-272.688
11
106.312
21
-272.117
0
LINE
8
BLACK
6
CONTINUOUS
10
106.312
20
-272.117
11
106.455
21
-271.831
0
LINE
8
BLACK
6
CONTINUOUS
10
106.455
20
-271.831
11
106.597
21
-271.688
0
LINE
8
BLACK
6
CONTINUOUS
10
106.597
20
-271.688
11
106.883
21
-271.546
0
LINE
8
BLACK
6
CONTINUOUS
10
109.169
20
-274.26
11
109.312
21
-274.403
0
LINE
8
BLACK
6
CONTINUOUS
10
109.312
20
-274.403
11
109.169
21
-274.546
0
LINE
8
BLACK
6
CONTINUOUS
10
109.169
20
-274.546
11
109.026
21
-274.403
0
LINE
8
BLACK
6
CONTINUOUS
10
109.026
20
-274.403
11
109.169
21
-274.26
0
LINE
8
BLACK
6
CONTINUOUS
10
109.169
20
-274.26
11
109.169
21
-274.546
0
LINE
8
BLACK
6
CONTINUOUS
10
112.169
20
-274.546
11
110.455
21
-274.546
0
LINE
8
BLACK
6
CONTINUOUS
10
111.312
20
-274.546
11
111.312
21
-271.546
0
LINE
8
BLACK
6
CONTINUOUS
10
111.312
20
-271.546
11
111.026
21
-271.974
0
LINE
8
BLACK
6
CONTINUOUS
10
111.026
20
-271.974
11
110.74
21
-272.26
0
LINE
8
BLACK
6
CONTINUOUS
10
110.74
20
-272.26
11
110.455
21
-272.403
0
LINE
8
BLACK
6
CONTINUOUS
10
113.312
20
-271.831
11
113.455
21
-271.688
0
LINE
8
BLACK
6
CONTINUOUS
10
113.455
20
-271.688
11
113.74
21
-271.546
0
LINE
8
BLACK
6
CONTINUOUS
10
113.74
20
-271.546
11
114.455
21
-271.546
0
LINE
8
BLACK
6
CONTINUOUS
10
114.455
20
-271.546
11
114.74
21
-271.688
0
LINE
8
BLACK
6
CONTINUOUS
10
114.74
20
-271.688
11
114.883
21
-271.831
0
LINE
8
BLACK
6
CONTINUOUS
10
114.883
20
-271.831
11
115.026
21
-272.117
0
LINE
8
BLACK
6
CONTINUOUS
10
115.026
20
-272.117
11
115.026
21
-272.403
0
LINE
8
BLACK
6
CONTINUOUS
10
115.026
20
-272.403
11
114.883
21
-272.831
0
LINE
8
BLACK
6
CONTINUOUS
10
114.883
20
-272.831
11
113.169
21
-274.546
0
LINE
8
BLACK
6
CONTINUOUS
10
113.169
20
-274.546
11
115.026
21
-274.546
0
LINE
8
BLACK
6
CONTINUOUS
10
117.597
20
-271.546
11
117.026
21
-271.546
0
LINE
8
BLACK
6
CONTINUOUS
10
117.026
20
-271.546
11
116.74
21
-271.688
0
LINE
8
BLACK
6
CONTINUOUS
10
116.74
20
-271.688
11
116.597
21
-271.831
0
LINE
8
BLACK
6
CONTINUOUS
10
116.597
20
-271.831
11
116.312
21
-272.26
0
LINE
8
BLACK
6
CONTINUOUS
10
116.312
20
-272.26
11
116.169
21
-272.831
0
LINE
8
BLACK
6
CONTINUOUS
10
116.169
20
-272.831
11
116.169
21
-273.974
0
LINE
8
BLACK
6
CONTINUOUS
10
116.169
20
-273.974
11
116.312
21
-274.26
0
LINE
8
BLACK
6
CONTINUOUS
10
116.312
20
-274.26
11
116.455
21
-274.403
0
LINE
8
BLACK
6
CONTINUOUS
10
116.455
20
-274.403
11
116.74
21
-274.546
0
LINE
8
BLACK
6
CONTINUOUS
10
116.74
20
-274.546
11
117.312
21
-274.546
0
LINE
8
BLACK
6
CONTINUOUS
10
117.312
20
-274.546
11
117.597
21
-274.403
0
LINE
8
BLACK
6
CONTINUOUS
10
117.597
20
-274.403
11
117.74
21
-274.26
0
LINE
8
BLACK
6
CONTINUOUS
10
117.74
20
-274.26
11
117.883
21
-273.974
0
LINE
8
BLACK
6
CONTINUOUS
10
117.883
20
-273.974
11
117.883
21
-273.26
0
LINE
8
BLACK
6
CONTINUOUS
10
117.883
20
-273.26
11
117.74
21
-272.974
0
LINE
8
BLACK
6
CONTINUOUS
10
117.74
20
-272.974
11
117.597
21
-272.831
0
LINE
8
BLACK
6
CONTINUOUS
10
117.597
20
-272.831
11
117.312
21
-272.688
0
LINE
8
BLACK
6
CONTINUOUS
10
117.312
20
-272.688
11
116.74
21
-272.688
0
LINE
8
BLACK
6
CONTINUOUS
10
116.74
20
-272.688
11
116.455
21
-272.831
0
LINE
8
BLACK
6
CONTINUOUS
10
116.455
20
-272.831
11
116.312
21
-272.974
0
LINE
8
BLACK
6
CONTINUOUS
10
116.312
20
-272.974
11
116.169
21
-273.26
0
LINE
8
BLACK
6
CONTINUOUS
10
119.74
20
-271.546
11
120.026
21
-271.546
0
LINE
8
BLACK
6
CONTINUOUS
10
120.026
20
-271.546
11
120.312
21
-271.688
0
LINE
8
BLACK
6
CONTINUOUS
10
120.312
20
-271.688
11
120.455
21
-271.831
0
LINE
8
BLACK
6
CONTINUOUS
10
120.455
20
-271.831
11
120.597
21
-272.117
0
LINE
8
BLACK
6
CONTINUOUS
10
120.597
20
-272.117
11
120.74
21
-272.688
0
LINE
8
BLACK
6
CONTINUOUS
10
120.74
20
-272.688
11
120.74
21
-273.403
0
LINE
8
BLACK
6
CONTINUOUS
10
120.74
20
-273.403
11
120.597
21
-273.974
0
LINE
8
BLACK
6
CONTINUOUS
10
120.597
20
-273.974
11
120.455
21
-274.26
0
LINE
8
BLACK
6
CONTINUOUS
10
120.455
20
-274.26
11
120.312
21
-274.403
0
LINE
8
BLACK
6
CONTINUOUS
10
120.312
20
-274.403
11
120.026
21
-274.546
0
LINE
8
BLACK
6
CONTINUOUS
10
120.026
20
-274.546
11
119.74
21
-274.546
0
LINE
8
BLACK
6
CONTINUOUS
10
119.74
20
-274.546
11
119.455
21
-274.403
0
LINE
8
BLACK
6
CONTINUOUS
10
119.455
20
-274.403
11
119.312
21
-274.26
0
LINE
8
BLACK
6
CONTINUOUS
10
119.312
20
-274.26
11
119.169
21
-273.974
0
LINE
8
BLACK
6
CONTINUOUS
10
119.169
20
-273.974
11
119.026
21
-273.403
0
LINE
8
BLACK
6
CONTINUOUS
10
119.026
20
-273.403
11
119.026
21
-272.688
0
LINE
8
BLACK
6
CONTINUOUS
10
119.026
20
-272.688
11
119.169
21
-272.117
0
LINE
8
BLACK
6
CONTINUOUS
10
119.169
20
-272.117
11
119.312
21
-271.831
0
LINE
8
BLACK
6
CONTINUOUS
10
119.312
20
-271.831
11
119.455
21
-271.688
0
LINE
8
BLACK
6
CONTINUOUS
10
119.455
20
-271.688
11
119.74
21
-271.546
0
LINE
8
BLACK
6
CONTINUOUS
10
121.883
20
-271.546
11
121.883
21
-272.117
0
LINE
8
BLACK
6
CONTINUOUS
10
123.026
20
-271.546
11
123.026
21
-272.117
0
LINE
8
BLACK
6
CONTINUOUS
10
127.455
20
-275.688
11
127.312
21
-275.546
0
LINE
8
BLACK
6
CONTINUOUS
10
127.312
20
-275.546
11
127.026
21
-275.117
0
LINE
8
BLACK
6
CONTINUOUS
10
127.026
20
-275.117
11
126.883
21
-274.831
0
LINE
8
BLACK
6
CONTINUOUS
10
126.883
20
-274.831
11
126.74
21
-274.403
0
LINE
8
BLACK
6
CONTINUOUS
10
126.74
20
-274.403
11
126.597
21
-273.688
0
LINE
8
BLACK
6
CONTINUOUS
10
126.597
20
-273.688
11
126.597
21
-273.117
0
LINE
8
BLACK
6
CONTINUOUS
10
126.597
20
-273.117
11
126.74
21
-272.403
0
LINE
8
BLACK
6
CONTINUOUS
10
126.74
20
-272.403
11
126.883
21
-271.974
0
LINE
8
BLACK
6
CONTINUOUS
10
126.883
20
-271.974
11
127.026
21
-271.688
0
LINE
8
BLACK
6
CONTINUOUS
10
127.026
20
-271.688
11
127.312
21
-271.26
0
LINE
8
BLACK
6
CONTINUOUS
10
127.312
20
-271.26
11
127.455
21
-271.117
0
LINE
8
BLACK
6
CONTINUOUS
10
130.169
20
-274.546
11
128.455
21
-274.546
0
LINE
8
BLACK
6
CONTINUOUS
10
129.312
20
-274.546
11
129.312
21
-271.546
0
LINE
8
BLACK
6
CONTINUOUS
10
129.312
20
-271.546
11
129.026
21
-271.974
0
LINE
8
BLACK
6
CONTINUOUS
10
129.026
20
-271.974
11
128.74
21
-272.26
0
LINE
8
BLACK
6
CONTINUOUS
10
128.74
20
-272.26
11
128.455
21
-272.403
0
LINE
8
BLACK
6
CONTINUOUS
10
132.74
20
-271.546
11
132.169
21
-271.546
0
LINE
8
BLACK
6
CONTINUOUS
10
132.169
20
-271.546
11
131.883
21
-271.688
0
LINE
8
BLACK
6
CONTINUOUS
10
131.883
20
-271.688
11
131.74
21
-271.831
0
LINE
8
BLACK
6
CONTINUOUS
10
131.74
20
-271.831
11
131.455
21
-272.26
0
LINE
8
BLACK
6
CONTINUOUS
10
131.455
20
-272.26
11
131.312
21
-272.831
0
LINE
8
BLACK
6
CONTINUOUS
10
131.312
20
-272.831
11
131.312
21
-273.974
0
LINE
8
BLACK
6
CONTINUOUS
10
131.312
20
-273.974
11
131.455
21
-274.26
0
LINE
8
BLACK
6
CONTINUOUS
10
131.455
20
-274.26
11
131.597
21
-274.403
0
LINE
8
BLACK
6
CONTINUOUS
10
131.597
20
-274.403
11
131.883
21
-274.546
0
LINE
8
BLACK
6
CONTINUOUS
10
131.883
20
-274.546
11
132.455
21
-274.546
0
LINE
8
BLACK
6
CONTINUOUS
10
132.455
20
-274.546
11
132.74
21
-274.403
0
LINE
8
BLACK
6
CONTINUOUS
10
132.74
20
-274.403
11
132.883
21
-274.26
0
LINE
8
BLACK
6
CONTINUOUS
10
132.883
20
-274.26
11
133.026
21
-273.974
0
LINE
8
BLACK
6
CONTINUOUS
10
133.026
20
-273.974
11
133.026
21
-273.26
0
LINE
8
BLACK
6
CONTINUOUS
10
133.026
20
-273.26
11
132.883
21
-272.974
0
LINE
8
BLACK
6
CONTINUOUS
10
132.883
20
-272.974
11
132.74
21
-272.831
0
LINE
8
BLACK
6
CONTINUOUS
10
132.74
20
-272.831
11
132.455
21
-272.688
0
LINE
8
BLACK
6
CONTINUOUS
10
132.455
20
-272.688
11
131.883
21
-272.688
0
LINE
8
BLACK
6
CONTINUOUS
10
131.883
20
-272.688
11
131.597
21
-272.831
0
LINE
8
BLACK
6
CONTINUOUS
10
131.597
20
-272.831
11
131.455
21
-272.974
0
LINE
8
BLACK
6
CONTINUOUS
10
131.455
20
-272.974
11
131.312
21
-273.26
0
LINE
8
BLACK
6
CONTINUOUS
10
136.597
20
-274.546
11
136.597
21
-271.546
0
LINE
8
BLACK
6
CONTINUOUS
10
137.883
20
-274.546
11
137.883
21
-272.974
0
LINE
8
BLACK
6
CONTINUOUS
10
137.883
20
-272.974
11
137.74
21
-272.688
0
LINE
8
BLACK
6
CONTINUOUS
10
137.74
20
-272.688
11
137.455
21
-272.546
0
LINE
8
BLACK
6
CONTINUOUS
10
137.455
20
-272.546
11
137.026
21
-272.546
0
LINE
8
BLACK
6
CONTINUOUS
10
137.026
20
-272.546
11
136.74
21
-272.688
0
LINE
8
BLACK
6
CONTINUOUS
10
136.74
20
-272.688
11
136.597
21
-272.831
0
LINE
8
BLACK
6
CONTINUOUS
10
139.74
20
-274.546
11
139.455
21
-274.403
0
LINE
8
BLACK
6
CONTINUOUS
10
139.455
20
-274.403
11
139.312
21
-274.26
0
LINE
8
BLACK
6
CONTINUOUS
10
139.312
20
-274.26
11
139.169
21
-273.974
0
LINE
8
BLACK
6
CONTINUOUS
10
139.169
20
-273.974
11
139.169
21
-273.117
0
LINE
8
BLACK
6
CONTINUOUS
10
139.169
20
-273.117
11
139.312
21
-272.831
0
LINE
8
BLACK
6
CONTINUOUS
10
139.312
20
-272.831
11
139.455
21
-272.688
0
LINE
8
BLACK
6
CONTINUOUS
10
139.455
20
-272.688
11
139.74
21
-272.546
0
LINE
8
BLACK
6
CONTINUOUS
10
139.74
20
-272.546
11
140.169
21
-272.546
0
LINE
8
BLACK
6
CONTINUOUS
10
140.169
20
-272.546
11
140.455
21
-272.688
0
LINE
8
BLACK
6
CONTINUOUS
10
140.455
20
-272.688
11
140.597
21
-272.831
0
LINE
8
BLACK
6
CONTINUOUS
10
140.597
20
-272.831
11
140.74
21
-273.117
0
LINE
8
BLACK
6
CONTINUOUS
10
140.74
20
-273.117
11
140.74
21
-273.974
0
LINE
8
BLACK
6
CONTINUOUS
10
140.74
20
-273.974
11
140.597
21
-274.26
0
LINE
8
BLACK
6
CONTINUOUS
10
140.597
20
-274.26
11
140.455
21
-274.403
0
LINE
8
BLACK
6
CONTINUOUS
10
140.455
20
-274.403
11
140.169
21
-274.546
0
LINE
8
BLACK
6
CONTINUOUS
10
140.169
20
-274.546
11
139.74
21
-274.546
0
LINE
8
BLACK
6
CONTINUOUS
10
142.455
20
-274.546
11
142.169
21
-274.403
0
LINE
8
BLACK
6
CONTINUOUS
10
142.169
20
-274.403
11
142.026
21
-274.117
0
LINE
8
BLACK
6
CONTINUOUS
10
142.026
20
-274.117
11
142.026
21
-271.546
0
LINE
8
BLACK
6
CONTINUOUS
10
144.74
20
-274.403
11
144.455
21
-274.546
0
LINE
8
BLACK
6
CONTINUOUS
10
144.455
20
-274.546
11
143.883
21
-274.546
0
LINE
8
BLACK
6
CONTINUOUS
10
143.883
20
-274.546
11
143.597
21
-274.403
0
LINE
8
BLACK
6
CONTINUOUS
10
143.597
20
-274.403
11
143.455
21
-274.117
0
LINE
8
BLACK
6
CONTINUOUS
10
143.455
20
-274.117
11
143.455
21
-272.974
0
LINE
8
BLACK
6
CONTINUOUS
10
143.455
20
-272.974
11
143.597
21
-272.688
0
LINE
8
BLACK
6
CONTINUOUS
10
143.597
20
-272.688
11
143.883
21
-272.546
0
LINE
8
BLACK
6
CONTINUOUS
10
143.883
20
-272.546
11
144.455
21
-272.546
0
LINE
8
BLACK
6
CONTINUOUS
10
144.455
20
-272.546
11
144.74
21
-272.688
0
LINE
8
BLACK
6
CONTINUOUS
10
144.74
20
-272.688
11
144.883
21
-272.974
0
LINE
8
BLACK
6
CONTINUOUS
10
144.883
20
-272.974
11
144.883
21
-273.26
0
LINE
8
BLACK
6
CONTINUOUS
10
144.883
20
-273.26
11
143.455
21
-273.546
0
LINE
8
BLACK
6
CONTINUOUS
10
146.026
20
-274.403
11
146.312
21
-274.546
0
LINE
8
BLACK
6
CONTINUOUS
10
146.312
20
-274.546
11
146.883
21
-274.546
0
LINE
8
BLACK
6
CONTINUOUS
10
146.883
20
-274.546
11
147.169
21
-274.403
0
LINE
8
BLACK
6
CONTINUOUS
10
147.169
20
-274.403
11
147.312
21
-274.117
0
LINE
8
BLACK
6
CONTINUOUS
10
147.312
20
-274.117
11
147.312
21
-273.974
0
LINE
8
BLACK
6
CONTINUOUS
10
147.312
20
-273.974
11
147.169
21
-273.688
0
LINE
8
BLACK
6
CONTINUOUS
10
147.169
20
-273.688
11
146.883
21
-273.546
0
LINE
8
BLACK
6
CONTINUOUS
10
146.883
20
-273.546
11
146.455
21
-273.546
0
LINE
8
BLACK
6
CONTINUOUS
10
146.455
20
-273.546
11
146.169
21
-273.403
0
LINE
8
BLACK
6
CONTINUOUS
10
146.169
20
-273.403
11
146.026
21
-273.117
0
LINE
8
BLACK
6
CONTINUOUS
10
146.026
20
-273.117
11
146.026
21
-272.974
0
LINE
8
BLACK
6
CONTINUOUS
10
146.026
20
-272.974
11
146.169
21
-272.688
0
LINE
8
BLACK
6
CONTINUOUS
10
146.169
20
-272.688
11
146.455
21
-272.546
0
LINE
8
BLACK
6
CONTINUOUS
10
146.455
20
-272.546
11
146.883
21
-272.546
0
LINE
8
BLACK
6
CONTINUOUS
10
146.883
20
-272.546
11
147.169
21
-272.688
0
LINE
8
BLACK
6
CONTINUOUS
10
148.312
20
-275.688
11
148.455
21
-275.546
0
LINE
8
BLACK
6
CONTINUOUS
10
148.455
20
-275.546
11
148.74
21
-275.117
0
LINE
8
BLACK
6
CONTINUOUS
10
148.74
20
-275.117
11
148.883
21
-274.831
0
LINE
8
BLACK
6
CONTINUOUS
10
148.883
20
-274.831
11
149.026
21
-274.403
0
LINE
8
BLACK
6
CONTINUOUS
10
149.026
20
-274.403
11
149.169
21
-273.688
0
LINE
8
BLACK
6
CONTINUOUS
10
149.169
20
-273.688
11
149.169
21
-273.117
0
LINE
8
BLACK
6
CONTINUOUS
10
149.169
20
-273.117
11
149.026
21
-272.403
0
LINE
8
BLACK
6
CONTINUOUS
10
149.026
20
-272.403
11
148.883
21
-271.974
0
LINE
8
BLACK
6
CONTINUOUS
10
148.883
20
-271.974
11
148.74
21
-271.688
0
LINE
8
BLACK
6
CONTINUOUS
10
148.74
20
-271.688
11
148.455
21
-271.26
0
LINE
8
BLACK
6
CONTINUOUS
10
148.455
20
-271.26
11
148.312
21
-271.117
  0
ENDSEC
  0
EOF
