M48
; DRILL file {KiCad (5.1.10)-1} date 10/15/21 17:04:20
; FORMAT={-:-/ absolute / metric / decimal}
; #@! TF.CreationDate,2021-10-15T17:04:20+02:00
; #@! TF.GenerationSoftware,Kicad,Pcbnew,(5.1.10)-1
FMAT,2
METRIC
T1C2.200
T2C2.500
T3C3.200
%
G90
G05
T1
X82.014Y111.975
X82.014Y136.45
X106.514Y136.425
T2
X162.79Y110.775
X162.814Y137.775
T3
X80.709Y56.134
X89.09Y103.886
X93.789Y206.629
X107.251Y143.764
X107.251Y162.687
X114.046Y234.95
X117.919Y24.892
X126.301Y244.919
X134.175Y119.507
X138.493Y216.98
X138.557Y234.95
X146.875Y143.764
X146.875Y167.64
X158.814Y206.629
X163.385Y41.529
X172.275Y89.154
T0
M30
