0
SECTION
2
HEADER
9
$INSUNITS
70
4
9
$ACADVER
1
AC1014
9
$HANDSEED
5
FFFF
0
ENDSEC
0
SECTION
2
TABLES
0
TABLE
2
VPORT
5
8
100
AcDbSymbolTable
0
ENDTAB
0
TABLE
2
LTYPE
5
5
100
AcDbSymbolTable
0
LTYPE
5
14
100
AcDbSymbolTableRecord
100
AcDbLinetypeTableRecord
2
BYBLOCK
70
0
0
LTYPE
5
15
100
AcDbSymbolTableRecord
100
AcDbLinetypeTableRecord
2
BYLAYER
70
0
0
ENDTAB
0
TABLE
2
LAYER
5
2
100
AcDbSymbolTable
70
2
0
LAYER
5
50
100
AcDbSymbolTableRecord
100
AcDbLayerTableRecord
2
0
70
0
6
CONTINUOUS
0
ENDTAB
0
TABLE
2
STYLE
5
3
100
AcDbSymbolTable
70
1
0
STYLE
5
11
100
AcDbSymbolTableRecord
100
AcDbTextStyleTableRecord
2
STANDARD
70
0
0
ENDTAB
0
TABLE
2
VIEW
5
6
100
AcDbSymbolTable
70
0
0
ENDTAB
0
TABLE
2
UCS
5
7
100
AcDbSymbolTable
70
0
0
ENDTAB
0
TABLE
2
APPID
5
9
100
AcDbSymbolTable
70
2
0
APPID
5
12
100
AcDbSymbolTableRecord
100
AcDbRegAppTableRecord
2
ACAD
70
0
0
ENDTAB
0
TABLE
2
DIMSTYLE
5
A
100
AcDbSymbolTable
70
1
0
ENDTAB
0
TABLE
2
BLOCK_RECORD
5
1
100
AcDbSymbolTable
70
1
0
BLOCK_RECORD
5
1F
100
AcDbSymbolTableRecord
100
AcDbBlockTableRecord
2
*MODEL_SPACE
0
BLOCK_RECORD
5
1B
100
AcDbSymbolTableRecord
100
AcDbBlockTableRecord
2
*PAPER_SPACE
0
ENDTAB
0
ENDSEC
0
SECTION
2
BLOCKS
0
BLOCK
5
20
100
AcDbEntity
100
AcDbBlockBegin
2
*MODEL_SPACE
0
ENDBLK
5
21
100
AcDbEntity
100
AcDbBlockEnd
0
BLOCK
5
1C
100
AcDbEntity
100
AcDbBlockBegin
2
*PAPER_SPACE
0
ENDBLK
5
1D
100
AcDbEntity
100
AcDbBlockEnd
0
ENDSEC
0
SECTION
2
ENTITIES
0
LINE
5
100
100
AcDbEntity
8
0
100
AcDbLine
10
-117.74000000000001
20
-269.15700000000004
30
0
11
-117.59700000000002
21
-269.01400000000001
31
0
0
LINE
5
101
100
AcDbEntity
8
0
100
AcDbLine
10
-117.74000000000001
20
-268.58600000000001
30
0
11
-117.59700000000002
21
-268.72800000000001
31
0
0
LINE
5
102
100
AcDbEntity
8
0
100
AcDbLine
10
-92.883100000000013
20
-259.32599999999996
30
0
11
-93.168899999999994
21
-259.18299999999999
31
0
0
LINE
5
103
100
AcDbEntity
8
0
100
AcDbLine
10
-146.02600000000001
20
-274.40300000000002
30
0
11
-146.31200000000001
21
-274.54599999999999
31
0
0
LINE
5
104
100
AcDbEntity
8
0
100
AcDbLine
10
-95.02600000000001
20
-268.58600000000001
30
0
11
-95.454599999999999
21
-268.58600000000001
31
0
0
LINE
5
105
100
AcDbEntity
8
0
100
AcDbLine
10
-116.455
20
-268.72800000000001
30
0
11
-116.31200000000001
21
-268.58600000000001
31
0
0
LINE
5
106
100
AcDbEntity
8
0
100
AcDbLine
10
-116.31200000000001
20
-266.34000000000003
30
0
11
-116.455
21
-266.483
31
0
0
LINE
5
107
100
AcDbEntity
8
0
100
AcDbLine
10
-146.31200000000001
20
-269.15700000000004
30
0
11
-146.16899999999998
21
-268.44299999999998
31
0
0
LWPOLYLINE
5
108
100
AcDbEntity
8
0
100
AcDbPolyline
90
20
70
1
43
0.0
10
-88.883100000000013
20
-270.44299999999998
10
-89.02600000000001
20
-270.30000000000001
10
-89.168900000000008
20
-270.01400000000001
10
-89.311700000000002
20
-269.44299999999998
10
-89.311700000000002
20
-268.72800000000001
10
-89.168900000000008
20
-268.15699999999998
10
-89.02600000000001
20
-267.87099999999998
10
-88.883100000000013
20
-267.72800000000007
10
-88.597400000000007
20
-267.58600000000001
10
-88.311700000000002
20
-267.58600000000001
10
-88.02600000000001
20
-267.72800000000007
10
-87.883100000000013
20
-267.87099999999998
10
-87.740300000000019
20
-268.15699999999998
10
-87.597399999999993
20
-268.72800000000001
10
-87.597399999999993
20
-269.44299999999998
10
-87.740300000000019
20
-270.01400000000001
10
-87.883100000000013
20
-270.30000000000001
10
-88.02600000000001
20
-270.44299999999998
10
-88.311700000000002
20
-270.58600000000001
10
-88.597400000000007
20
-270.58600000000001
0
LINE
5
109
100
AcDbEntity
8
0
100
AcDbLine
10
-97.026000000000025
20
-272.68799999999999
30
0
11
-97.168899999999994
21
-272.97399999999999
31
0
0
LINE
5
110
100
AcDbEntity
8
0
100
AcDbLine
10
-141.59700000000001
20
-268.58600000000001
30
0
11
-141.88299999999998
21
-268.72800000000001
31
0
0
LINE
5
111
100
AcDbEntity
8
0
100
AcDbLine
10
-144.02600000000001
20
-265.62599999999998
30
0
11
-143.59700000000001
21
-265.62599999999998
31
0
0
LINE
5
112
100
AcDbEntity
8
0
100
AcDbLine
10
-95.454599999999999
20
-272.54599999999999
30
0
11
-95.740300000000005
21
-272.68799999999999
31
0
0
LINE
5
113
100
AcDbEntity
8
0
100
AcDbLine
10
-141.88299999999998
20
-266.483
30
0
11
-141.59700000000001
21
-266.62599999999998
31
0
0
LINE
5
114
100
AcDbEntity
8
0
100
AcDbLine
10
-143.88299999999998
20
-272.54599999999999
30
0
11
-144.45500000000004
21
-272.54599999999999
31
0
0
LINE
5
115
100
AcDbEntity
8
0
100
AcDbLine
10
-93.168899999999994
20
-269.01400000000001
30
0
11
-93.168899999999994
21
-270.58600000000001
31
0
0
LINE
5
116
100
AcDbEntity
8
0
100
AcDbLine
10
-145.88299999999998
20
-263.76799999999997
30
0
11
-145.59700000000001
21
-263.33999999999997
31
0
0
LINE
5
117
100
AcDbEntity
8
0
100
AcDbLine
10
-147.31200000000001
20
-274.11700000000002
30
0
11
-147.31200000000001
21
-273.97399999999999
31
0
0
LWPOLYLINE
5
118
100
AcDbEntity
8
0
100
AcDbPolyline
90
16
70
1
43
0.0
10
-139.45500000000004
20
-272.68799999999999
10
-139.31200000000001
20
-272.83099999999996
10
-139.16899999999998
20
-273.11700000000002
10
-139.16899999999998
20
-273.97399999999999
10
-139.31200000000001
20
-274.25999999999999
10
-139.45500000000004
20
-274.40300000000002
10
-139.74000000000001
20
-274.54599999999999
10
-140.16899999999998
20
-274.54599999999999
10
-140.45500000000001
20
-274.40300000000002
10
-140.59700000000001
20
-274.25999999999999
10
-140.74000000000001
20
-273.97399999999999
10
-140.74000000000001
20
-273.11700000000002
10
-140.59700000000001
20
-272.83099999999996
10
-140.45500000000001
20
-272.68799999999999
10
-140.16899999999998
20
-272.54599999999999
10
-139.74000000000001
20
-272.54599999999999
0
LINE
5
119
100
AcDbEntity
8
0
100
AcDbLine
10
-146.16899999999998
20
-272.68799999999999
30
0
11
-146.45500000000001
21
-272.54599999999999
31
0
0
LINE
5
120
100
AcDbEntity
8
0
100
AcDbLine
10
-139.16899999999998
20
-270.15699999999998
30
0
11
-139.16899999999998
21
-267.58600000000001
31
0
0
LWPOLYLINE
5
121
100
AcDbEntity
8
0
100
AcDbPolyline
90
20
70
1
43
0.0
10
-88.02600000000001
20
-271.68799999999999
10
-87.883100000000013
20
-271.83099999999996
10
-87.740300000000019
20
-272.11700000000002
10
-87.597399999999993
20
-272.68799999999999
10
-87.597399999999993
20
-273.40300000000002
10
-87.740300000000019
20
-273.97399999999999
10
-87.883100000000013
20
-274.25999999999999
10
-88.02600000000001
20
-274.40300000000002
10
-88.311700000000002
20
-274.54599999999999
10
-88.597400000000007
20
-274.54599999999999
10
-88.883100000000013
20
-274.40300000000002
10
-89.02600000000001
20
-274.25999999999999
10
-89.168900000000008
20
-273.97399999999999
10
-89.311700000000002
20
-273.40300000000002
10
-89.311700000000002
20
-272.68799999999999
10
-89.168900000000008
20
-272.11700000000002
10
-89.02600000000001
20
-271.83099999999996
10
-88.883100000000013
20
-271.68799999999999
10
-88.597400000000007
20
-271.54600000000005
10
-88.311700000000002
20
-271.54600000000005
0
LINE
5
122
100
AcDbEntity
8
0
100
AcDbLine
10
-149.02600000000001
20
-272.40300000000002
30
0
11
-148.88299999999998
21
-271.97400000000005
31
0
0
LINE
5
123
100
AcDbEntity
8
0
100
AcDbLine
10
-141.88299999999998
20
-270.44299999999998
30
0
11
-141.59700000000001
21
-270.58600000000001
31
0
0
LINE
5
124
100
AcDbEntity
8
0
100
AcDbLine
10
-91.883099999999999
20
-272.97399999999999
30
0
11
-92.026000000000025
21
-272.68799999999999
31
0
0
LINE
5
125
100
AcDbEntity
8
0
100
AcDbLine
10
-144.45500000000004
20
-266.197
30
0
11
-144.45500000000004
21
-266.05400000000003
31
0
0
LWPOLYLINE
5
126
100
AcDbEntity
8
0
100
AcDbPolyline
90
20
70
1
43
0.0
10
-86.311700000000002
20
-272.11700000000002
10
-86.168899999999994
20
-271.83099999999996
10
-86.02600000000001
20
-271.68799999999999
10
-85.740300000000005
20
-271.54600000000005
10
-85.454599999999999
20
-271.54600000000005
10
-85.168900000000008
20
-271.68799999999999
10
-85.02600000000001
20
-271.83099999999996
10
-84.883099999999999
20
-272.11700000000002
10
-84.740300000000005
20
-272.68799999999999
10
-84.740300000000005
20
-273.40300000000002
10
-84.883099999999999
20
-273.97399999999999
10
-85.02600000000001
20
-274.25999999999999
10
-85.168900000000008
20
-274.40300000000002
10
-85.454599999999999
20
-274.54599999999999
10
-85.740300000000005
20
-274.54599999999999
10
-86.02600000000001
20
-274.40300000000002
10
-86.168899999999994
20
-274.25999999999999
10
-86.311700000000002
20
-273.97399999999999
10
-86.454599999999999
20
-273.40300000000002
10
-86.454599999999999
20
-272.68799999999999
0
LINE
5
127
100
AcDbEntity
8
0
100
AcDbLine
10
-83.454600000000013
20
-269.01400000000001
30
0
11
-83.597400000000007
21
-269.30000000000001
31
0
0
LWPOLYLINE
5
128
100
AcDbEntity
8
0
100
AcDbPolyline
90
20
70
1
43
0.0
10
-84.740300000000005
20
-268.72800000000001
10
-84.740300000000005
20
-269.44299999999998
10
-84.883099999999999
20
-270.01400000000001
10
-85.02600000000001
20
-270.30000000000001
10
-85.168900000000008
20
-270.44299999999998
10
-85.454599999999999
20
-270.58600000000001
10
-85.740300000000005
20
-270.58600000000001
10
-86.02600000000001
20
-270.44299999999998
10
-86.168899999999994
20
-270.30000000000001
10
-86.311700000000002
20
-270.01400000000001
10
-86.454599999999999
20
-269.44299999999998
10
-86.454599999999999
20
-268.72800000000001
10
-86.311700000000002
20
-268.15699999999998
10
-86.168899999999994
20
-267.87099999999998
10
-86.02600000000001
20
-267.72800000000007
10
-85.740300000000005
20
-267.58600000000001
10
-85.454599999999999
20
-267.58600000000001
10
-85.168900000000008
20
-267.72800000000007
10
-85.02600000000001
20
-267.87099999999998
10
-84.883099999999999
20
-268.15699999999998
0
LINE
5
129
100
AcDbEntity
8
0
100
AcDbLine
10
-94.740300000000005
20
-272.68799999999999
30
0
11
-95.02600000000001
21
-272.54599999999999
31
0
0
LINE
5
130
100
AcDbEntity
8
0
100
AcDbLine
10
-146.88299999999998
20
-273.54599999999999
30
0
11
-146.45500000000001
21
-273.54599999999999
31
0
0
LINE
5
131
100
AcDbEntity
8
0
100
AcDbLine
10
-146.02600000000001
20
-272.97399999999999
30
0
11
-146.16899999999998
21
-272.68799999999999
31
0
0
LINE
5
132
100
AcDbEntity
8
0
100
AcDbLine
10
-147.16899999999998
20
-274.40300000000002
30
0
11
-147.31200000000001
21
-274.11700000000002
31
0
0
LINE
5
133
100
AcDbEntity
8
0
100
AcDbLine
10
-145.88299999999998
20
-267.197
30
0
11
-146.02600000000001
21
-266.911
31
0
0
LINE
5
134
100
AcDbEntity
8
0
100
AcDbLine
10
-92.740300000000019
20
-268.58600000000001
30
0
11
-93.02600000000001
21
-268.72800000000001
31
0
0
LINE
5
135
100
AcDbEntity
8
0
100
AcDbLine
10
-91.454599999999999
20
-268.58600000000001
30
0
11
-91.740300000000005
21
-268.72800000000001
31
0
0
LINE
5
136
100
AcDbEntity
8
0
100
AcDbLine
10
-83.597400000000007
20
-270.01400000000001
30
0
11
-83.454600000000013
21
-270.30000000000001
31
0
0
LINE
5
137
100
AcDbEntity
8
0
100
AcDbLine
10
-113.59700000000002
20
-265.05400000000003
30
0
11
-113.45500000000001
21
-265.197
31
0
0
LINE
5
138
100
AcDbEntity
8
0
100
AcDbLine
10
-115.02600000000001
20
-264.33999999999997
30
0
11
-114.88300000000001
21
-264.62599999999998
31
0
0
LWPOLYLINE
5
139
100
AcDbEntity
8
0
100
AcDbPolyline
90
20
70
1
43
0.0
10
-106.883
20
-274.54599999999999
10
-107.16900000000001
20
-274.54599999999999
10
-107.455
20
-274.40300000000002
10
-107.59700000000002
20
-274.25999999999999
10
-107.74000000000001
20
-273.97399999999999
10
-107.883
20
-273.40300000000002
10
-107.883
20
-272.68799999999999
10
-107.74000000000001
20
-272.11700000000002
10
-107.59700000000002
20
-271.83099999999996
10
-107.455
20
-271.68799999999999
10
-107.16900000000001
20
-271.54600000000005
10
-106.883
20
-271.54600000000005
10
-106.59700000000001
20
-271.68799999999999
10
-106.455
20
-271.83099999999996
10
-106.31200000000001
20
-272.11700000000002
10
-106.16900000000001
20
-272.68799999999999
10
-106.16900000000001
20
-273.40300000000002
10
-106.31200000000001
20
-273.97399999999999
10
-106.455
20
-274.25999999999999
10
-106.59700000000001
20
-274.40300000000002
0
LINE
5
140
100
AcDbEntity
8
0
100
AcDbLine
10
-109.169
20
-270.58600000000001
30
0
11
-109.02600000000001
21
-270.44299999999998
31
0
0
LINE
5
141
100
AcDbEntity
8
0
100
AcDbLine
10
-109.169
20
-270.30000000000001
30
0
11
-109.31200000000003
21
-270.44299999999998
31
0
0
LINE
5
142
100
AcDbEntity
8
0
100
AcDbLine
10
-120.45500000000001
20
-266.483
30
0
11
-120.59700000000001
21
-266.34000000000003
31
0
0
LINE
5
143
100
AcDbEntity
8
0
100
AcDbLine
10
-134.88299999999998
20
-264.76799999999997
30
0
11
-134.59700000000001
21
-264.62599999999998
31
0
0
LINE
5
144
100
AcDbEntity
8
0
100
AcDbLine
10
-134.59700000000001
20
-264.62599999999998
30
0
11
-134.16899999999998
21
-264.62599999999998
31
0
0
LWPOLYLINE
5
145
100
AcDbEntity
8
0
100
AcDbPolyline
90
16
70
1
43
0.0
10
-136.59700000000001
20
-264.76799999999997
10
-136.45500000000001
20
-264.91100000000006
10
-136.31200000000001
20
-265.197
10
-136.31200000000001
20
-266.05400000000003
10
-136.45500000000001
20
-266.34000000000003
10
-136.59700000000001
20
-266.483
10
-136.88299999999998
20
-266.62599999999998
10
-137.31200000000001
20
-266.62599999999998
10
-137.59700000000004
20
-266.483
10
-137.74000000000001
20
-266.34000000000003
10
-137.88299999999998
20
-266.05400000000003
10
-137.88299999999998
20
-265.197
10
-137.74000000000001
20
-264.91100000000006
10
-137.59700000000004
20
-264.76799999999997
10
-137.31200000000001
20
-264.62599999999998
10
-136.88299999999998
20
-264.62599999999998
0
LINE
5
146
100
AcDbEntity
8
0
100
AcDbLine
10
-109.169
20
-274.54599999999999
30
0
11
-109.02600000000001
21
-274.40300000000002
31
0
0
LINE
5
147
100
AcDbEntity
8
0
100
AcDbLine
10
-113.88300000000001
20
-267.58600000000001
30
0
11
-113.59700000000002
21
-267.72800000000007
31
0
0
LINE
5
148
100
AcDbEntity
8
0
100
AcDbLine
10
-119.31200000000003
20
-264.91100000000006
30
0
11
-119.169
21
-265.05400000000003
31
0
0
LINE
5
149
100
AcDbEntity
8
0
100
AcDbLine
10
-142.02600000000001
20
-265.05400000000003
30
0
11
-142.02600000000001
21
-265.33999999999997
31
0
0
LINE
5
150
100
AcDbEntity
8
0
100
AcDbLine
10
-116.455
20
-267.72800000000007
30
0
11
-116.73999999999999
21
-267.58600000000001
31
0
0
LINE
5
151
100
AcDbEntity
8
0
100
AcDbLine
10
-114.88300000000001
20
-269.87099999999998
30
0
11
-115.02600000000001
21
-269.30000000000001
31
0
0
LINE
5
152
100
AcDbEntity
8
0
100
AcDbLine
10
-116.31200000000001
20
-268.58600000000001
30
0
11
-116.16900000000001
21
-268.30000000000001
31
0
0
LINE
5
153
100
AcDbEntity
8
0
100
AcDbLine
10
-94.02600000000001
20
-258.46800000000002
30
0
11
-93.740300000000019
21
-258.32600000000002
31
0
0
LINE
5
154
100
AcDbEntity
8
0
100
AcDbLine
10
-128.59700000000001
20
-267.72800000000007
30
0
11
-128.88299999999998
21
-267.58600000000001
31
0
0
LINE
5
155
100
AcDbEntity
8
0
100
AcDbLine
10
-116.31200000000001
20
-267.87099999999998
30
0
11
-116.455
21
-267.72800000000007
31
0
0
LWPOLYLINE
5
156
100
AcDbEntity
8
0
100
AcDbPolyline
90
20
70
1
43
0.0
10
-106.31200000000001
20
-270.01400000000001
10
-106.455
20
-270.30000000000001
10
-106.59700000000001
20
-270.44299999999998
10
-106.883
20
-270.58600000000001
10
-107.16900000000001
20
-270.58600000000001
10
-107.455
20
-270.44299999999998
10
-107.59700000000002
20
-270.30000000000001
10
-107.74000000000001
20
-270.01400000000001
10
-107.883
20
-269.44299999999998
10
-107.883
20
-268.72800000000001
10
-107.74000000000001
20
-268.15699999999998
10
-107.59700000000002
20
-267.87099999999998
10
-107.455
20
-267.72800000000007
10
-107.16900000000001
20
-267.58600000000001
10
-106.883
20
-267.58600000000001
10
-106.59700000000001
20
-267.72800000000007
10
-106.455
20
-267.87099999999998
10
-106.31200000000001
20
-268.15699999999998
10
-106.16900000000001
20
-268.72800000000001
10
-106.16900000000001
20
-269.44299999999998
0
LINE
5
157
100
AcDbEntity
8
0
100
AcDbLine
10
-126.59700000000001
20
-269.15700000000004
30
0
11
-126.73999999999999
21
-268.44299999999998
31
0
0
LINE
5
158
100
AcDbEntity
8
0
100
AcDbLine
10
-119.169
20
-266.34000000000003
30
0
11
-119.31200000000003
21
-266.483
31
0
0
LWPOLYLINE
5
159
100
AcDbEntity
8
0
100
AcDbPolyline
90
20
70
1
43
0.0
10
-89.168900000000008
20
-264.197
10
-89.02600000000001
20
-263.911
10
-88.883100000000013
20
-263.76799999999997
10
-88.597400000000007
20
-263.62599999999998
10
-88.311700000000002
20
-263.62599999999998
10
-88.02600000000001
20
-263.76799999999997
10
-87.883100000000013
20
-263.911
10
-87.740300000000019
20
-264.197
10
-87.597399999999993
20
-264.76799999999997
10
-87.597399999999993
20
-265.483
10
-87.740300000000019
20
-266.05400000000003
10
-87.883100000000013
20
-266.34000000000003
10
-88.02600000000001
20
-266.483
10
-88.311700000000002
20
-266.62599999999998
10
-88.597400000000007
20
-266.62599999999998
10
-88.883100000000013
20
-266.483
10
-89.02600000000001
20
-266.34000000000003
10
-89.168900000000008
20
-266.05400000000003
10
-89.311700000000002
20
-265.483
10
-89.311700000000002
20
-264.76799999999997
0
LINE
5
160
100
AcDbEntity
8
0
100
AcDbLine
10
-93.740300000000019
20
-258.32600000000002
30
0
11
-93.168899999999994
21
-258.32600000000002
31
0
0
LINE
5
161
100
AcDbEntity
8
0
100
AcDbLine
10
-119.74000000000001
20
-267.44299999999998
30
0
11
-119.02600000000001
21
-269.58600000000001
31
0
0
LINE
5
162
100
AcDbEntity
8
0
100
AcDbLine
10
-127.02600000000002
20
-271.68799999999999
30
0
11
-127.31200000000001
21
-271.25999999999999
31
0
0
LINE
5
163
100
AcDbEntity
8
0
100
AcDbLine
10
-133.74000000000001
20
-266.62599999999998
30
0
11
-133.74000000000001
21
-263.62599999999998
31
0
0
LINE
5
164
100
AcDbEntity
8
0
100
AcDbLine
10
-120.45500000000001
20
-268.58600000000001
30
0
11
-120.45500000000001
21
-270.58600000000001
31
0
0
LINE
5
165
100
AcDbEntity
8
0
100
AcDbLine
10
-144.02600000000001
20
-269.58600000000001
30
0
11
-143.59700000000001
21
-269.58600000000001
31
0
0
LINE
5
166
100
AcDbEntity
8
0
100
AcDbLine
10
-143.45500000000001
20
-266.62599999999998
30
0
11
-144.02600000000001
21
-266.62599999999998
31
0
0
LINE
5
167
100
AcDbEntity
8
0
100
AcDbLine
10
-116.16900000000001
20
-269.44299999999998
30
0
11
-116.16900000000001
21
-270.01400000000001
31
0
0
LINE
5
168
100
AcDbEntity
8
0
100
AcDbLine
10
-96.311700000000002
20
-272.54599999999999
30
0
11
-96.740300000000019
21
-272.54599999999999
31
0
0
LINE
5
169
100
AcDbEntity
8
0
100
AcDbLine
10
-143.16899999999998
20
-266.483
30
0
11
-143.45500000000001
21
-266.62599999999998
31
0
0
LINE
5
170
100
AcDbEntity
8
0
100
AcDbLine
10
-142.02600000000001
20
-269.30000000000001
30
0
11
-140.59700000000001
21
-269.58600000000001
31
0
0
LINE
5
171
100
AcDbEntity
8
0
100
AcDbLine
10
-146.31200000000001
20
-265.76799999999997
30
0
11
-146.31200000000001
21
-265.197
31
0
0
LINE
5
172
100
AcDbEntity
8
0
100
AcDbLine
10
-121.883
20
-263.62599999999998
30
0
11
-121.883
21
-264.197
31
0
0
LINE
5
173
100
AcDbEntity
8
0
100
AcDbLine
10
-92.883100000000013
20
-260.18299999999999
30
0
11
-92.740300000000019
21
-259.89699999999999
31
0
0
LINE
5
174
100
AcDbEntity
8
0
100
AcDbLine
10
-134.59700000000001
20
-268.58600000000001
30
0
11
-134.16899999999998
21
-268.58600000000001
31
0
0
LINE
5
175
100
AcDbEntity
8
0
100
AcDbLine
10
-93.168899999999994
20
-258.32600000000002
30
0
11
-92.883100000000013
21
-258.46800000000002
31
0
0
LINE
5
176
100
AcDbEntity
8
0
100
AcDbLine
10
-95.883099999999999
20
-269.01400000000001
30
0
11
-96.026000000000025
21
-268.72800000000001
31
0
0
LINE
5
177
100
AcDbEntity
8
0
100
AcDbLine
10
-79.311700000000002
20
-268.15699999999998
30
0
11
-79.311700000000002
21
-268.44299999999998
31
0
0
LINE
5
178
100
AcDbEntity
8
0
100
AcDbLine
10
-80.597399999999993
20
-270.30000000000001
30
0
11
-80.597399999999993
21
-270.58600000000001
31
0
0
LINE
5
179
100
AcDbEntity
8
0
100
AcDbLine
10
-80.454599999999999
20
-270.44299999999998
30
0
11
-80.597399999999993
21
-270.30000000000001
31
0
0
LWPOLYLINE
5
180
100
AcDbEntity
8
0
100
AcDbPolyline
90
20
70
1
43
0.0
10
-112.16900000000001
20
-264.76799999999997
10
-112.02600000000002
20
-264.197
10
-111.883
20
-263.911
10
-111.73999999999999
20
-263.76799999999997
10
-111.455
20
-263.62599999999998
10
-111.16900000000001
20
-263.62599999999998
10
-110.88300000000001
20
-263.76799999999997
10
-110.73999999999999
20
-263.911
10
-110.59700000000001
20
-264.197
10
-110.45500000000001
20
-264.76799999999997
10
-110.45500000000001
20
-265.483
10
-110.59700000000001
20
-266.05400000000003
10
-110.73999999999999
20
-266.34000000000003
10
-110.88300000000001
20
-266.483
10
-111.16900000000001
20
-266.62599999999998
10
-111.455
20
-266.62599999999998
10
-111.73999999999999
20
-266.483
10
-111.883
20
-266.34000000000003
10
-112.02600000000002
20
-266.05400000000003
10
-112.16900000000001
20
-265.483
0
LINE
5
181
100
AcDbEntity
8
0
100
AcDbLine
10
-80.740300000000005
20
-270.44299999999998
30
0
11
-80.597399999999993
21
-270.58600000000001
31
0
0
LINE
5
182
100
AcDbEntity
8
0
100
AcDbLine
10
-79.02600000000001
20
-272.83099999999996
30
0
11
-79.168899999999994
21
-272.97399999999999
31
0
0
LWPOLYLINE
5
183
100
AcDbEntity
8
0
100
AcDbPolyline
90
20
70
1
43
0.0
10
-111.455
20
-267.58600000000001
10
-111.16900000000001
20
-267.58600000000001
10
-110.88300000000001
20
-267.72800000000007
10
-110.73999999999999
20
-267.87099999999998
10
-110.59700000000001
20
-268.15699999999998
10
-110.45500000000001
20
-268.72800000000001
10
-110.45500000000001
20
-269.44299999999998
10
-110.59700000000001
20
-270.01400000000001
10
-110.73999999999999
20
-270.30000000000001
10
-110.88300000000001
20
-270.44299999999998
10
-111.16900000000001
20
-270.58600000000001
10
-111.455
20
-270.58600000000001
10
-111.73999999999999
20
-270.44299999999998
10
-111.883
20
-270.30000000000001
10
-112.02600000000002
20
-270.01400000000001
10
-112.16900000000001
20
-269.44299999999998
10
-112.16900000000001
20
-268.72800000000001
10
-112.02600000000002
20
-268.15699999999998
10
-111.883
20
-267.87099999999998
10
-111.73999999999999
20
-267.72800000000007
0
LINE
5
184
100
AcDbEntity
8
0
100
AcDbLine
10
-78.740300000000019
20
-267.58600000000001
30
0
11
-79.02600000000001
21
-267.72800000000007
31
0
0
LINE
5
185
100
AcDbEntity
8
0
100
AcDbLine
10
-79.168899999999994
20
-274.25999999999999
30
0
11
-79.02600000000001
21
-274.40300000000002
31
0
0
LINE
5
186
100
AcDbEntity
8
0
100
AcDbLine
10
-80.597399999999993
20
-270.30000000000001
30
0
11
-80.740300000000005
21
-270.44299999999998
31
0
0
CIRCLE
5
187
100
AcDbEntity
8
0
100
AcDbCircle
10
-73.626000000000005
20
-269.22800000000001
30
0
40
1.25
210
0
220
0
230
1
0
LINE
5
188
100
AcDbEntity
8
0
100
AcDbLine
10
-77.740300000000005
20
-267.72800000000007
30
0
11
-78.02600000000001
21
-267.58600000000001
31
0
0
LINE
5
189
100
AcDbEntity
8
0
100
AcDbLine
10
-80.597399999999993
20
-274.25999999999999
30
0
11
-80.740300000000005
21
-274.40300000000002
31
0
0
LINE
5
190
100
AcDbEntity
8
0
100
AcDbLine
10
-78.311700000000002
20
-272.68799999999999
30
0
11
-78.740300000000019
21
-272.68799999999999
31
0
0
LINE
5
191
100
AcDbEntity
8
0
100
AcDbLine
10
-77.454599999999999
20
-271.54600000000005
30
0
11
-79.311700000000002
21
-271.54600000000005
31
0
0
LINE
5
192
100
AcDbEntity
8
0
100
AcDbLine
10
-109.169
20
-266.34000000000003
30
0
11
-109.169
21
-266.62599999999998
31
0
0
LINE
5
193
100
AcDbEntity
8
0
100
AcDbLine
10
-80.597399999999993
20
-274.54599999999999
30
0
11
-80.454599999999999
21
-274.40300000000002
31
0
0
LINE
5
194
100
AcDbEntity
8
0
100
AcDbLine
10
-90.597399999999993
20
-270.58600000000001
30
0
11
-90.597399999999993
21
-268.58600000000001
31
0
0
LINE
5
195
100
AcDbEntity
8
0
100
AcDbLine
10
-148.45500000000001
20
-271.25999999999999
30
0
11
-148.31200000000001
21
-271.11700000000002
31
0
0
LINE
5
196
100
AcDbEntity
8
0
100
AcDbLine
10
-145.88299999999998
20
-271.15699999999998
30
0
11
-146.02600000000001
21
-270.87099999999998
31
0
0
LINE
5
197
100
AcDbEntity
8
0
100
AcDbLine
10
-140.59700000000001
20
-266.197
30
0
11
-140.59700000000001
21
-265.05400000000003
31
0
0
LINE
5
198
100
AcDbEntity
8
0
100
AcDbLine
10
-149.16899999999998
20
-273.68799999999999
30
0
11
-149.16899999999998
21
-273.11700000000002
31
0
0
LINE
5
199
100
AcDbEntity
8
0
100
AcDbLine
10
-94.597399999999993
20
-272.83099999999996
30
0
11
-94.740300000000005
21
-272.68799999999999
31
0
0
LINE
5
200
100
AcDbEntity
8
0
100
AcDbLine
10
-144.02600000000001
20
-264.62599999999998
30
0
11
-144.31200000000001
21
-264.76799999999997
31
0
0
LINE
5
201
100
AcDbEntity
8
0
100
AcDbLine
10
-148.31200000000001
20
-275.68799999999999
30
0
11
-148.45500000000001
21
-275.54599999999999
31
0
0
LINE
5
202
100
AcDbEntity
8
0
100
AcDbLine
10
-93.02600000000001
20
-268.72800000000001
30
0
11
-93.168899999999994
21
-269.01400000000001
31
0
0
LINE
5
203
100
AcDbEntity
8
0
100
AcDbLine
10
-143.59700000000001
20
-272.68799999999999
30
0
11
-143.88299999999998
21
-272.54599999999999
31
0
0
LINE
5
204
100
AcDbEntity
8
0
100
AcDbLine
10
-144.45500000000004
20
-266.05400000000003
30
0
11
-144.31200000000001
21
-265.76799999999997
31
0
0
LINE
5
205
100
AcDbEntity
8
0
100
AcDbLine
10
-90.740300000000005
20
-272.68799999999999
30
0
11
-91.02600000000001
21
-272.54599999999999
31
0
0
LINE
5
206
100
AcDbEntity
8
0
100
AcDbLine
10
-91.883099999999999
20
-269.01400000000001
30
0
11
-92.026000000000025
21
-268.72800000000001
31
0
0
LINE
5
207
100
AcDbEntity
8
0
100
AcDbLine
10
-97.168899999999994
20
-269.01400000000001
30
0
11
-97.168899999999994
21
-270.58600000000001
31
0
0
LINE
5
208
100
AcDbEntity
8
0
100
AcDbLine
10
-146.31200000000001
20
-265.197
30
0
11
-146.16899999999998
21
-264.48300000000006
31
0
0
LINE
5
209
100
AcDbEntity
8
0
100
AcDbLine
10
-145.59700000000001
20
-271.58600000000001
30
0
11
-145.88299999999998
21
-271.15699999999998
31
0
0
LINE
5
210
100
AcDbEntity
8
0
100
AcDbLine
10
-97.168899999999994
20
-272.97399999999999
30
0
11
-97.168899999999994
21
-274.54599999999999
31
0
0
LINE
5
211
100
AcDbEntity
8
0
100
AcDbLine
10
-146.02600000000001
20
-264.05400000000003
30
0
11
-145.88299999999998
21
-263.76799999999997
31
0
0
LINE
5
212
100
AcDbEntity
8
0
100
AcDbLine
10
-144.74000000000001
20
-272.68799999999999
30
0
11
-144.88299999999998
21
-272.97399999999999
31
0
0
LINE
5
213
100
AcDbEntity
8
0
100
AcDbLine
10
-140.59700000000001
20
-269.01400000000001
30
0
11
-140.74000000000001
21
-268.72800000000001
31
0
0
LINE
5
214
100
AcDbEntity
8
0
100
AcDbLine
10
-140.74000000000001
20
-268.72800000000001
30
0
11
-141.02600000000001
21
-268.58600000000001
31
0
0
LINE
5
215
100
AcDbEntity
8
0
100
AcDbLine
10
-144.88299999999998
20
-273.25999999999999
30
0
11
-143.45500000000001
21
-273.54599999999999
31
0
0
LINE
5
216
100
AcDbEntity
8
0
100
AcDbLine
10
-145.59700000000001
20
-267.30000000000007
30
0
11
-145.45500000000001
21
-267.15699999999998
31
0
0
LINE
5
217
100
AcDbEntity
8
0
100
AcDbLine
10
-148.45500000000001
20
-275.54599999999999
30
0
11
-148.74000000000001
21
-275.11700000000008
31
0
0
LINE
5
218
100
AcDbEntity
8
0
100
AcDbLine
10
-141.02600000000001
20
-268.58600000000001
30
0
11
-141.59700000000001
21
-268.58600000000001
31
0
0
LINE
5
219
100
AcDbEntity
8
0
100
AcDbLine
10
-90.597399999999993
20
-272.83099999999996
30
0
11
-90.740300000000005
21
-272.68799999999999
31
0
0
LINE
5
220
100
AcDbEntity
8
0
100
AcDbLine
10
-139.16899999999998
20
-266.197
30
0
11
-139.16899999999998
21
-263.62599999999998
31
0
0
LINE
5
221
100
AcDbEntity
8
0
100
AcDbLine
10
-92.740300000000019
20
-259.89699999999999
30
0
11
-92.740300000000019
21
-259.61099999999999
31
0
0
LINE
5
222
100
AcDbEntity
8
0
100
AcDbLine
10
-113.45500000000001
20
-267.87099999999998
30
0
11
-113.31200000000003
21
-268.15699999999998
31
0
0
LINE
5
223
100
AcDbEntity
8
0
100
AcDbLine
10
-91.02600000000001
20
-264.62599999999998
30
0
11
-91.454599999999999
21
-264.62599999999998
31
0
0
LINE
5
224
100
AcDbEntity
8
0
100
AcDbLine
10
-113.31200000000003
20
-268.87099999999998
30
0
11
-113.45500000000001
21
-269.15700000000004
31
0
0
LINE
5
225
100
AcDbEntity
8
0
100
AcDbLine
10
-83.454600000000013
20
-270.30000000000001
30
0
11
-83.311700000000002
21
-270.44299999999998
31
0
0
LINE
5
226
100
AcDbEntity
8
0
100
AcDbLine
10
-83.311700000000002
20
-268.87099999999998
30
0
11
-83.454600000000013
21
-269.01400000000001
31
0
0
LINE
5
227
100
AcDbEntity
8
0
100
AcDbLine
10
-128.74000000000001
20
-266.62599999999998
30
0
11
-128.45500000000001
21
-266.483
31
0
0
LINE
5
228
100
AcDbEntity
8
0
100
AcDbLine
10
-127.31200000000001
20
-267.30000000000007
30
0
11
-127.455
21
-267.15699999999998
31
0
0
LINE
5
229
100
AcDbEntity
8
0
100
AcDbLine
10
-73.27600000000001
20
-271.58799999999997
30
0
11
-73.27600000000001
21
-274.78800000000001
31
0
0
LINE
5
230
100
AcDbEntity
8
0
100
AcDbLine
10
-82.026000000000025
20
-270.44299999999998
30
0
11
-81.883099999999999
21
-270.30000000000001
31
0
0
LINE
5
231
100
AcDbEntity
8
0
100
AcDbLine
10
-71.676000000000002
20
-273.18799999999999
30
0
11
-74.876000000000005
21
-273.18799999999999
31
0
0
LINE
5
232
100
AcDbEntity
8
0
100
AcDbLine
10
-77.597399999999993
20
-267.87099999999998
30
0
11
-77.740300000000005
21
-267.72800000000007
31
0
0
LINE
5
233
100
AcDbEntity
8
0
100
AcDbLine
10
-77.597399999999993
20
-274.40300000000002
30
0
11
-77.454599999999999
21
-274.25999999999999
31
0
0
LINE
5
234
100
AcDbEntity
8
0
100
AcDbLine
10
-79.311700000000002
20
-271.54600000000005
30
0
11
-78.311700000000002
21
-272.68799999999999
31
0
0
LINE
5
235
100
AcDbEntity
8
0
100
AcDbLine
10
-83.597400000000007
20
-269.30000000000001
30
0
11
-83.597400000000007
21
-270.01400000000001
31
0
0
LINE
5
236
100
AcDbEntity
8
0
100
AcDbLine
10
-127.02600000000002
20
-267.72800000000007
30
0
11
-127.31200000000001
21
-267.30000000000007
31
0
0
LINE
5
237
100
AcDbEntity
8
0
100
AcDbLine
10
-79.02600000000001
20
-267.72800000000007
30
0
11
-79.168899999999994
21
-267.87099999999998
31
0
0
LINE
5
238
100
AcDbEntity
8
0
100
AcDbLine
10
-127.31200000000001
20
-263.33999999999997
30
0
11
-127.455
21
-263.197
31
0
0
LINE
5
239
100
AcDbEntity
8
0
100
AcDbLine
10
-77.883099999999999
20
-274.54599999999999
30
0
11
-77.597399999999993
21
-274.40300000000002
31
0
0
LINE
5
240
100
AcDbEntity
8
0
100
AcDbLine
10
-80.454599999999999
20
-274.40300000000002
30
0
11
-80.597399999999993
21
-274.25999999999999
31
0
0
LINE
5
241
100
AcDbEntity
8
0
100
AcDbLine
10
-79.02600000000001
20
-274.40300000000002
30
0
11
-78.740300000000019
21
-274.54599999999999
31
0
0
LINE
5
242
100
AcDbEntity
8
0
100
AcDbLine
10
-80.597399999999993
20
-270.58600000000001
30
0
11
-80.454599999999999
21
-270.44299999999998
31
0
0
LINE
5
243
100
AcDbEntity
8
0
100
AcDbLine
10
-77.454599999999999
20
-270.58600000000001
30
0
11
-79.311700000000002
21
-270.58600000000001
31
0
0
LINE
5
244
100
AcDbEntity
8
0
100
AcDbLine
10
-79.168899999999994
20
-267.87099999999998
30
0
11
-79.311700000000002
21
-268.15699999999998
31
0
0
LINE
5
245
100
AcDbEntity
8
0
100
AcDbLine
10
-82.026000000000025
20
-267.58600000000001
30
0
11
-81.883099999999999
21
-269.01400000000001
31
0
0
LINE
5
246
100
AcDbEntity
8
0
100
AcDbLine
10
-129.59700000000001
20
-267.58600000000001
30
0
11
-129.88299999999998
21
-267.72800000000007
31
0
0
LINE
5
247
100
AcDbEntity
8
0
100
AcDbLine
10
-83.02600000000001
20
-268.72800000000001
30
0
11
-83.311700000000002
21
-268.87099999999998
31
0
0
LINE
5
248
100
AcDbEntity
8
0
100
AcDbLine
10
-78.740300000000019
20
-274.54599999999999
30
0
11
-77.883099999999999
21
-274.54599999999999
31
0
0
LINE
5
249
100
AcDbEntity
8
0
100
AcDbLine
10
-114.45500000000001
20
-264.91100000000006
30
0
11
-113.88300000000001
21
-264.91100000000006
31
0
0
LWPOLYLINE
5
250
100
AcDbEntity
8
0
100
AcDbPolyline
90
16
70
1
43
0.0
10
-137.88299999999998
20
-269.15700000000004
10
-137.74000000000001
20
-268.87099999999998
10
-137.59700000000004
20
-268.72800000000001
10
-137.31200000000001
20
-268.58600000000001
10
-136.88299999999998
20
-268.58600000000001
10
-136.59700000000001
20
-268.72800000000001
10
-136.45500000000001
20
-268.87099999999998
10
-136.31200000000001
20
-269.15700000000004
10
-136.31200000000001
20
-270.01400000000001
10
-136.45500000000001
20
-270.30000000000001
10
-136.59700000000001
20
-270.44299999999998
10
-136.88299999999998
20
-270.58600000000001
10
-137.31200000000001
20
-270.58600000000001
10
-137.59700000000004
20
-270.44299999999998
10
-137.74000000000001
20
-270.30000000000001
10
-137.88299999999998
20
-270.01400000000001
0
LINE
5
251
100
AcDbEntity
8
0
100
AcDbLine
10
-114.45500000000001
20
-269.44299999999998
30
0
11
-114.74000000000001
21
-269.30000000000001
31
0
0
LINE
5
252
100
AcDbEntity
8
0
100
AcDbLine
10
-120.73999999999999
20
-266.05400000000003
30
0
11
-120.73999999999999
21
-265.33999999999997
31
0
0
LINE
5
253
100
AcDbEntity
8
0
100
AcDbLine
10
-114.169
20
-270.58600000000001
30
0
11
-114.45500000000001
21
-270.44299999999998
31
0
0
LINE
5
254
100
AcDbEntity
8
0
100
AcDbLine
10
-89.454599999999999
20
-260.32599999999996
30
0
11
-89.454599999999999
21
-257.32599999999996
31
0
0
LINE
5
255
100
AcDbEntity
8
0
100
AcDbLine
10
-120.169
20
-264.76799999999997
30
0
11
-119.59700000000001
21
-264.76799999999997
31
0
0
LINE
5
256
100
AcDbEntity
8
0
100
AcDbLine
10
-113.45500000000001
20
-265.197
30
0
11
-113.31200000000003
21
-265.483
31
0
0
LINE
5
257
100
AcDbEntity
8
0
100
AcDbLine
10
-128.74000000000001
20
-272.25999999999999
30
0
11
-128.45500000000001
21
-272.40300000000002
31
0
0
LINE
5
258
100
AcDbEntity
8
0
100
AcDbLine
10
-119.88300000000001
20
-263.62599999999998
30
0
11
-119.59700000000001
21
-263.76799999999997
31
0
0
LINE
5
259
100
AcDbEntity
8
0
100
AcDbLine
10
-129.88299999999998
20
-264.91100000000006
30
0
11
-130.02600000000001
21
-265.05400000000003
31
0
0
LINE
5
260
100
AcDbEntity
8
0
100
AcDbLine
10
-127.455
20
-271.72800000000001
30
0
11
-127.31200000000001
21
-271.58600000000001
31
0
0
LINE
5
261
100
AcDbEntity
8
0
100
AcDbLine
10
-93.168899999999994
20
-260.32599999999996
30
0
11
-92.883100000000013
21
-260.18299999999999
31
0
0
LINE
5
262
100
AcDbEntity
8
0
100
AcDbLine
10
-135.02600000000001
20
-269.01400000000001
30
0
11
-134.88299999999998
21
-268.72800000000001
31
0
0
LINE
5
263
100
AcDbEntity
8
0
100
AcDbLine
10
-92.740300000000019
20
-259.61099999999999
30
0
11
-92.883100000000013
21
-259.32599999999996
31
0
0
LINE
5
264
100
AcDbEntity
8
0
100
AcDbLine
10
-117.74000000000001
20
-266.34000000000003
30
0
11
-117.883
21
-266.05400000000003
31
0
0
LINE
5
265
100
AcDbEntity
8
0
100
AcDbLine
10
-133.88299999999998
20
-268.72800000000001
30
0
11
-133.74000000000001
21
-268.87099999999998
31
0
0
LINE
5
266
100
AcDbEntity
8
0
100
AcDbLine
10
-117.59700000000002
20
-269.01400000000001
30
0
11
-117.31200000000001
21
-268.87099999999998
31
0
0
LINE
5
267
100
AcDbEntity
8
0
100
AcDbLine
10
-115.02600000000001
20
-265.483
30
0
11
-114.88300000000001
21
-265.197
31
0
0
LINE
5
268
100
AcDbEntity
8
0
100
AcDbLine
10
-113.88300000000001
20
-264.91100000000006
30
0
11
-113.59700000000002
21
-264.76799999999997
31
0
0
LINE
5
269
100
AcDbEntity
8
0
100
AcDbLine
10
-117.59700000000002
20
-268.72800000000001
30
0
11
-117.31200000000001
21
-268.87099999999998
31
0
0
LINE
5
270
100
AcDbEntity
8
0
100
AcDbLine
10
-116.31200000000001
20
-264.33999999999997
30
0
11
-116.16900000000001
21
-264.91100000000006
31
0
0
LINE
5
271
100
AcDbEntity
8
0
100
AcDbLine
10
-117.59700000000002
20
-263.62599999999998
30
0
11
-117.02600000000002
21
-263.62599999999998
31
0
0
LINE
5
272
100
AcDbEntity
8
0
100
AcDbLine
10
-109.169
20
-270.30000000000001
30
0
11
-109.169
21
-270.58600000000001
31
0
0
LINE
5
273
100
AcDbEntity
8
0
100
AcDbLine
10
-126.73999999999999
20
-264.48300000000006
30
0
11
-126.883
21
-264.05400000000003
31
0
0
LINE
5
274
100
AcDbEntity
8
0
100
AcDbLine
10
-134.88299999999998
20
-268.72800000000001
30
0
11
-134.59700000000001
21
-268.58600000000001
31
0
0
LINE
5
275
100
AcDbEntity
8
0
100
AcDbLine
10
-114.45500000000001
20
-267.58600000000001
30
0
11
-113.88300000000001
21
-267.58600000000001
31
0
0
LINE
5
276
100
AcDbEntity
8
0
100
AcDbLine
10
-113.59700000000002
20
-267.72800000000007
30
0
11
-113.45500000000001
21
-267.87099999999998
31
0
0
LINE
5
277
100
AcDbEntity
8
0
100
AcDbLine
10
-129.16899999999998
20
-264.76799999999997
30
0
11
-129.59700000000001
21
-264.76799999999997
31
0
0
LINE
5
278
100
AcDbEntity
8
0
100
AcDbLine
10
-113.88300000000001
20
-266.62599999999998
30
0
11
-114.45500000000001
21
-266.62599999999998
31
0
0
LINE
5
279
100
AcDbEntity
8
0
100
AcDbLine
10
-121.883
20
-267.58600000000001
30
0
11
-121.883
21
-268.15699999999998
31
0
0
LINE
5
280
100
AcDbEntity
8
0
100
AcDbLine
10
-117.59700000000002
20
-266.483
30
0
11
-117.74000000000001
21
-266.34000000000003
31
0
0
LINE
5
281
100
AcDbEntity
8
0
100
AcDbLine
10
-130.02600000000001
20
-266.34000000000003
30
0
11
-129.88299999999998
21
-266.483
31
0
0
LINE
5
282
100
AcDbEntity
8
0
100
AcDbLine
10
-93.883100000000013
20
-259.18299999999999
30
0
11
-94.168900000000008
21
-259.04000000000002
31
0
0
LINE
5
283
100
AcDbEntity
8
0
100
AcDbLine
10
-127.31200000000001
20
-267.62599999999998
30
0
11
-127.02600000000002
21
-267.197
31
0
0
LINE
5
284
100
AcDbEntity
8
0
100
AcDbLine
10
-114.74000000000001
20
-264.76799999999997
30
0
11
-114.45500000000001
21
-264.91100000000006
31
0
0
LINE
5
285
100
AcDbEntity
8
0
100
AcDbLine
10
-117.883
20
-268.15699999999998
30
0
11
-117.883
21
-268.30000000000001
31
0
0
LINE
5
286
100
AcDbEntity
8
0
100
AcDbLine
10
-117.59700000000002
20
-264.91100000000006
30
0
11
-117.31200000000001
21
-264.76799999999997
31
0
0
LINE
5
287
100
AcDbEntity
8
0
100
AcDbLine
10
-115.02600000000001
20
-266.05400000000003
30
0
11
-115.02600000000001
21
-265.483
31
0
0
LINE
5
288
100
AcDbEntity
8
0
100
AcDbLine
10
-94.168900000000008
20
-258.75400000000002
30
0
11
-94.02600000000001
21
-258.46800000000002
31
0
0
LINE
5
289
100
AcDbEntity
8
0
100
AcDbLine
10
-143.16899999999998
20
-265.197
30
0
11
-143.16899999999998
21
-265.05400000000003
31
0
0
LINE
5
290
100
AcDbEntity
8
0
100
AcDbLine
10
-94.740300000000005
20
-268.72800000000001
30
0
11
-95.02600000000001
21
-268.58600000000001
31
0
0
LINE
5
291
100
AcDbEntity
8
0
100
AcDbLine
10
-139.59700000000001
20
-270.58600000000001
30
0
11
-139.31200000000001
21
-270.44299999999998
31
0
0
LINE
5
292
100
AcDbEntity
8
0
100
AcDbLine
10
-113.45500000000001
20
-263.911
30
0
11
-113.59700000000002
21
-263.76799999999997
31
0
0
LINE
5
293
100
AcDbEntity
8
0
100
AcDbLine
10
-116.59700000000001
20
-263.911
30
0
11
-116.31200000000001
21
-264.33999999999997
31
0
0
LINE
5
294
100
AcDbEntity
8
0
100
AcDbLine
10
-114.88300000000001
20
-263.911
30
0
11
-115.02600000000001
21
-264.197
31
0
0
LINE
5
295
100
AcDbEntity
8
0
100
AcDbLine
10
-139.31200000000001
20
-266.483
30
0
11
-139.16899999999998
21
-266.197
31
0
0
LINE
5
296
100
AcDbEntity
8
0
100
AcDbLine
10
-141.02600000000001
20
-264.62599999999998
30
0
11
-141.59700000000001
21
-264.62599999999998
31
0
0
LINE
5
297
100
AcDbEntity
8
0
100
AcDbLine
10
-95.740300000000005
20
-272.68799999999999
30
0
11
-95.883099999999999
21
-272.97399999999999
31
0
0
LINE
5
298
100
AcDbEntity
8
0
100
AcDbLine
10
-141.59700000000001
20
-270.58600000000001
30
0
11
-141.02600000000001
21
-270.58600000000001
31
0
0
LINE
5
299
100
AcDbEntity
8
0
100
AcDbLine
10
-145.45500000000001
20
-267.76799999999997
30
0
11
-145.59700000000001
21
-267.62599999999998
31
0
0
LINE
5
300
100
AcDbEntity
8
0
100
AcDbLine
10
-91.454599999999999
20
-272.54599999999999
30
0
11
-91.740300000000005
21
-272.68799999999999
31
0
0
LINE
5
301
100
AcDbEntity
8
0
100
AcDbLine
10
-143.45500000000001
20
-272.97399999999999
30
0
11
-143.59700000000001
21
-272.68799999999999
31
0
0
LINE
5
302
100
AcDbEntity
8
0
100
AcDbLine
10
-90.597399999999993
20
-268.87099999999998
30
0
11
-90.740300000000005
21
-268.72800000000001
31
0
0
LINE
5
303
100
AcDbEntity
8
0
100
AcDbLine
10
-146.16899999999998
20
-270.44299999999998
30
0
11
-146.31200000000001
21
-269.72800000000001
31
0
0
LINE
5
304
100
AcDbEntity
8
0
100
AcDbLine
10
-143.59700000000001
20
-265.62599999999998
30
0
11
-143.31200000000001
21
-265.483
31
0
0
LINE
5
305
100
AcDbEntity
8
0
100
AcDbLine
10
-142.02600000000001
20
-269.01400000000001
30
0
11
-142.02600000000001
21
-269.30000000000001
31
0
0
LINE
5
306
100
AcDbEntity
8
0
100
AcDbLine
10
-90.740300000000005
20
-268.72800000000001
30
0
11
-91.02600000000001
21
-268.58600000000001
31
0
0
LINE
5
307
100
AcDbEntity
8
0
100
AcDbLine
10
-142.02600000000001
20
-265.33999999999997
30
0
11
-140.59700000000001
21
-265.62599999999998
31
0
0
LINE
5
308
100
AcDbEntity
8
0
100
AcDbLine
10
-144.45500000000004
20
-270.01400000000001
30
0
11
-144.31200000000001
21
-269.72800000000001
31
0
0
LINE
5
309
100
AcDbEntity
8
0
100
AcDbLine
10
-83.597400000000007
20
-272.40300000000002
30
0
11
-83.454600000000013
21
-272.83099999999996
31
0
0
LINE
5
310
100
AcDbEntity
8
0
100
AcDbLine
10
-144.31200000000001
20
-270.44299999999998
30
0
11
-144.45500000000004
21
-270.15699999999998
31
0
0
LINE
5
311
100
AcDbEntity
8
0
100
AcDbLine
10
-133.88299999999998
20
-264.76799999999997
30
0
11
-133.74000000000001
21
-264.91100000000006
31
0
0
LINE
5
312
100
AcDbEntity
8
0
100
AcDbLine
10
-120.45500000000001
20
-263.62599999999998
30
0
11
-119.88300000000001
21
-263.62599999999998
31
0
0
LINE
5
313
100
AcDbEntity
8
0
100
AcDbLine
10
-126.883
20
-274.83099999999996
30
0
11
-126.73999999999999
21
-274.40300000000002
31
0
0
LINE
5
314
100
AcDbEntity
8
0
100
AcDbLine
10
-91.740300000000005
20
-264.76799999999997
30
0
11
-91.883099999999999
21
-265.05400000000003
31
0
0
LINE
5
315
100
AcDbEntity
8
0
100
AcDbLine
10
-109.31200000000003
20
-266.483
30
0
11
-109.169
21
-266.62599999999998
31
0
0
LINE
5
316
100
AcDbEntity
8
0
100
AcDbLine
10
-83.597400000000007
20
-264.48300000000006
30
0
11
-83.454600000000013
21
-264.91100000000006
31
0
0
LWPOLYLINE
5
317
100
AcDbEntity
8
0
100
AcDbPolyline
90
20
70
1
43
0.0
10
-106.883
20
-263.62599999999998
10
-106.59700000000001
20
-263.76799999999997
10
-106.455
20
-263.911
10
-106.31200000000001
20
-264.197
10
-106.16900000000001
20
-264.76799999999997
10
-106.16900000000001
20
-265.483
10
-106.31200000000001
20
-266.05400000000003
10
-106.455
20
-266.34000000000003
10
-106.59700000000001
20
-266.483
10
-106.883
20
-266.62599999999998
10
-107.16900000000001
20
-266.62599999999998
10
-107.455
20
-266.483
10
-107.59700000000002
20
-266.34000000000003
10
-107.74000000000001
20
-266.05400000000003
10
-107.883
20
-265.483
10
-107.883
20
-264.76799999999997
10
-107.74000000000001
20
-264.197
10
-107.59700000000002
20
-263.911
10
-107.455
20
-263.76799999999997
10
-107.16900000000001
20
-263.62599999999998
0
LINE
5
318
100
AcDbEntity
8
0
100
AcDbLine
10
-80.454599999999999
20
-266.483
30
0
11
-80.597399999999993
21
-266.34000000000003
31
0
0
LINE
5
319
100
AcDbEntity
8
0
100
AcDbLine
10
-109.169
20
-266.62599999999998
30
0
11
-109.02600000000001
21
-266.483
31
0
0
LINE
5
320
100
AcDbEntity
8
0
100
AcDbLine
10
-109.02600000000001
20
-266.483
30
0
11
-109.169
21
-266.34000000000003
31
0
0
LINE
5
321
100
AcDbEntity
8
0
100
AcDbLine
10
-80.597399999999993
20
-274.25999999999999
30
0
11
-80.597399999999993
21
-274.54599999999999
31
0
0
LWPOLYLINE
5
322
100
AcDbEntity
8
0
100
AcDbPolyline
90
20
70
1
43
0.0
10
-85.02600000000001
20
-266.34000000000003
10
-85.168900000000008
20
-266.483
10
-85.454599999999999
20
-266.62599999999998
10
-85.740300000000005
20
-266.62599999999998
10
-86.02600000000001
20
-266.483
10
-86.168899999999994
20
-266.34000000000003
10
-86.311700000000002
20
-266.05400000000003
10
-86.454599999999999
20
-265.483
10
-86.454599999999999
20
-264.76799999999997
10
-86.311700000000002
20
-264.197
10
-86.168899999999994
20
-263.911
10
-86.02600000000001
20
-263.76799999999997
10
-85.740300000000005
20
-263.62599999999998
10
-85.454599999999999
20
-263.62599999999998
10
-85.168900000000008
20
-263.76799999999997
10
-85.02600000000001
20
-263.911
10
-84.883099999999999
20
-264.197
10
-84.740300000000005
20
-264.76799999999997
10
-84.740300000000005
20
-265.483
10
-84.883099999999999
20
-266.05400000000003
0
LINE
5
323
100
AcDbEntity
8
0
100
AcDbLine
10
-79.168899999999994
20
-272.97399999999999
30
0
11
-79.311700000000002
21
-273.25999999999999
31
0
0
LINE
5
324
100
AcDbEntity
8
0
100
AcDbLine
10
-78.02600000000001
20
-267.58600000000001
30
0
11
-78.740300000000019
21
-267.58600000000001
31
0
0
LINE
5
325
100
AcDbEntity
8
0
100
AcDbLine
10
-79.311700000000002
20
-273.97399999999999
30
0
11
-79.168899999999994
21
-274.25999999999999
31
0
0
LINE
5
326
100
AcDbEntity
8
0
100
AcDbLine
10
-146.875
20
-166.03999999999999
30
0
11
-146.875
21
-169.24000000000004
31
0
0
LINE
5
327
100
AcDbEntity
8
0
100
AcDbLine
10
-171.64100000000002
20
-189.82600000000002
30
0
11
-176.53000000000003
21
-189.86500000000004
31
0
0
LINE
5
328
100
AcDbEntity
8
0
100
AcDbLine
10
-79.311700000000002
20
-273.25999999999999
30
0
11
-79.311700000000002
21
-273.97399999999999
31
0
0
LINE
5
329
100
AcDbEntity
8
0
100
AcDbLine
10
-126.301
20
-243.31900000000005
30
0
11
-126.301
21
-246.51900000000001
31
0
0
LINE
5
330
100
AcDbEntity
8
0
100
AcDbLine
10
-79.168899999999994
20
-268.87099999999998
30
0
11
-77.454599999999999
21
-270.58600000000001
31
0
0
LINE
5
331
100
AcDbEntity
8
0
100
AcDbLine
10
-138.77600000000001
20
-163.00899999999999
30
0
11
-138.77600000000001
21
-129.69400000000002
31
0
0
LINE
5
332
100
AcDbEntity
8
0
100
AcDbLine
10
-82.311700000000002
20
-263.62599999999998
30
0
11
-83.02600000000001
21
-263.62599999999998
31
0
0
LINE
5
333
100
AcDbEntity
8
0
100
AcDbLine
10
-113.77600000000001
20
-129.69400000000002
30
0
11
-113.77600000000001
21
-163.00899999999999
31
0
0
LINE
5
334
100
AcDbEntity
8
0
100
AcDbLine
10
-83.02600000000001
20
-263.62599999999998
30
0
11
-83.311700000000002
21
-263.76799999999997
31
0
0
LINE
5
335
100
AcDbEntity
8
0
100
AcDbLine
10
-79.311700000000002
20
-268.44299999999998
30
0
11
-79.168899999999994
21
-268.87099999999998
31
0
0
LINE
5
336
100
AcDbEntity
8
0
100
AcDbLine
10
-136.893
20
-216.98000000000002
30
0
11
-140.09399999999999
21
-216.98000000000002
31
0
0
LINE
5
337
100
AcDbEntity
8
0
100
AcDbLine
10
-80.597399999999993
20
-266.62599999999998
30
0
11
-80.454599999999999
21
-266.483
31
0
0
LINE
5
338
100
AcDbEntity
8
0
100
AcDbLine
10
-74.926000000000002
20
-204.268
30
0
11
-74.939499999999995
21
-165.82499999999999
31
0
0
LINE
5
339
100
AcDbEntity
8
0
100
AcDbLine
10
-80.740300000000005
20
-274.40300000000002
30
0
11
-80.597399999999993
21
-274.54599999999999
31
0
0
LINE
5
340
100
AcDbEntity
8
0
100
AcDbLine
10
-78.740300000000019
20
-272.68799999999999
30
0
11
-79.02600000000001
21
-272.83099999999996
31
0
0
LINE
5
341
100
AcDbEntity
8
0
100
AcDbLine
10
-74.939499999999995
20
-165.82499999999999
30
0
11
-74.926000000000002
21
-72.694400000000002
31
0
0
LINE
5
342
100
AcDbEntity
8
0
100
AcDbLine
10
-107.251
20
-161.08700000000002
30
0
11
-107.251
21
-164.28700000000003
31
0
0
LINE
5
343
100
AcDbEntity
8
0
100
AcDbLine
10
-109.169
20
-266.34000000000003
30
0
11
-109.31200000000003
21
-266.483
31
0
0
LINE
5
344
100
AcDbEntity
8
0
100
AcDbLine
10
-83.311700000000002
20
-263.76799999999997
30
0
11
-83.454600000000013
21
-263.911
31
0
0
LINE
5
345
100
AcDbEntity
8
0
100
AcDbLine
10
-172.21200000000005
20
-166.63400000000001
30
0
11
-172.21200000000005
21
-145.03399999999999
31
0
0
LINE
5
346
100
AcDbEntity
8
0
100
AcDbLine
10
-93.789500000000018
20
-205.02900000000005
30
0
11
-93.789500000000018
21
-208.22900000000004
31
0
0
LINE
5
347
100
AcDbEntity
8
0
100
AcDbLine
10
-83.454600000000013
20
-264.91100000000006
30
0
11
-81.740300000000005
21
-266.62599999999998
31
0
0
LINE
5
348
100
AcDbEntity
8
0
100
AcDbLine
10
-105.65100000000001
20
-162.68700000000001
30
0
11
-108.852
21
-162.68700000000001
31
0
0
LINE
5
349
100
AcDbEntity
8
0
100
AcDbLine
10
-171.64100000000002
20
-171.02599999999998
30
0
11
-171.64100000000002
21
-189.82600000000002
31
0
0
LINE
5
350
100
AcDbEntity
8
0
100
AcDbLine
10
-134.16899999999998
20
-264.62599999999998
30
0
11
-133.88299999999998
21
-264.76799999999997
31
0
0
LINE
5
351
100
AcDbEntity
8
0
100
AcDbLine
10
-146.16899999999998
20
-273.40300000000002
30
0
11
-146.02600000000001
21
-273.11700000000002
31
0
0
LINE
5
352
100
AcDbEntity
8
0
100
AcDbLine
10
-146.02600000000001
20
-270.87099999999998
30
0
11
-146.16899999999998
21
-270.44299999999998
31
0
0
LINE
5
353
100
AcDbEntity
8
0
100
AcDbLine
10
-143.45500000000001
20
-274.11700000000002
30
0
11
-143.45500000000001
21
-272.97399999999999
31
0
0
LINE
5
354
100
AcDbEntity
8
0
100
AcDbLine
10
-177.63900000000004
20
-167.625
30
0
11
-177.65700000000004
21
-170.02599999999998
31
0
0
LINE
5
355
100
AcDbEntity
8
0
100
AcDbLine
10
-177.596
20
-190.92700000000005
30
0
11
-177.62600000000003
21
-204.268
31
0
0
LINE
5
356
100
AcDbEntity
8
0
100
AcDbLine
10
-124.70100000000002
20
-244.91900000000001
30
0
11
-127.90100000000002
21
-244.91900000000001
31
0
0
LINE
5
357
100
AcDbEntity
8
0
100
AcDbLine
10
-80.740300000000005
20
-266.483
30
0
11
-80.597399999999993
21
-266.62599999999998
31
0
0
LINE
5
358
100
AcDbEntity
8
0
100
AcDbLine
10
-158.81399999999999
20
-205.02900000000005
30
0
11
-158.81399999999999
21
-208.22900000000004
31
0
0
LWPOLYLINE
5
359
100
AcDbEntity
8
0
100
AcDbPolyline
90
12
70
1
43
0.0
10
-78.883100000000013
20
-260.18299999999999
10
-79.168899999999994
20
-259.89699999999999
10
-79.311700000000002
20
-259.61099999999999
10
-79.454599999999999
20
-259.04000000000002
10
-79.454599999999999
20
-258.61099999999999
10
-79.311700000000002
20
-258.04000000000002
10
-79.168899999999994
20
-257.75400000000002
10
-78.883100000000013
20
-257.46800000000002
10
-78.454599999999999
20
-257.32599999999996
10
-77.740300000000005
20
-257.32599999999996
10
-77.740300000000005
20
-260.32599999999996
10
-78.454599999999999
20
-260.32599999999996
0
LINE
5
360
100
AcDbEntity
8
0
100
AcDbLine
10
-79.168899999999994
20
-264.91100000000006
30
0
11
-77.454599999999999
21
-266.62599999999998
31
0
0
ARC
5
361
100
AcDbEntity
8
0
100
AcDbCircle
10
-176.63900000000001
20
-144.02500000000001
30
0
40
1.0000000000000142
210
0
220
0
230
1
100
AcDbArc
50
180
51
270
0
LINE
5
362
100
AcDbEntity
8
0
100
AcDbLine
10
-72.676000000000002
20
-264.16800000000001
30
0
11
-74.876000000000005
21
-266.36799999999999
31
0
0
CIRCLE
5
363
100
AcDbEntity
8
0
100
AcDbCircle
10
-94.27600000000001
20
-124.19400000000002
30
0
40
9.5
210
0
220
0
230
1
0
LWPOLYLINE
5
364
100
AcDbEntity
8
0
100
AcDbPolyline
90
8
70
1
43
0.0
10
-169.77599999999998
20
-135.255
10
-155.77600000000001
20
-135.255
42
0.41421356237309509
10
-151.77600000000001
20
-131.255
10
-151.77600000000001
20
-117.255
42
0.41421356237309509
10
-155.77600000000001
20
-113.255
10
-169.77599999999998
20
-113.255
42
0.41421356237309509
10
-173.77599999999998
20
-117.255
10
-173.77599999999998
20
-131.255
42
0.41421356237309509
0
LINE
5
365
100
AcDbEntity
8
0
100
AcDbLine
10
-172.21200000000005
20
-145.03399999999999
30
0
11
-176.63900000000001
21
-145.02500000000001
31
0
0
LINE
5
366
100
AcDbEntity
8
0
100
AcDbLine
10
-79.311700000000002
20
-264.197
30
0
11
-79.311700000000002
21
-264.48300000000006
31
0
0
ARC
5
367
100
AcDbEntity
8
0
100
AcDbCircle
10
-117.77600000000001
20
-129.69400000000002
30
0
40
4.0000000000000036
210
0
220
-0
230
1
100
AcDbArc
50
0
51
90
0
LINE
5
368
100
AcDbEntity
8
0
100
AcDbLine
10
-80.914500000000004
20
-135.34999999999999
30
0
11
-83.114500000000007
21
-137.55000000000001
31
0
0
LINE
5
369
100
AcDbEntity
8
0
100
AcDbLine
10
-80.914500000000004
20
-110.875
30
0
11
-83.114500000000007
21
-113.07500000000002
31
0
0
LINE
5
370
100
AcDbEntity
8
0
100
AcDbLine
10
-78.740300000000019
20
-263.62599999999998
30
0
11
-79.02600000000001
21
-263.76799999999997
31
0
0
LINE
5
371
100
AcDbEntity
8
0
100
AcDbLine
10
-83.114500000000007
20
-110.875
30
0
11
-80.914500000000004
21
-113.07500000000002
31
0
0
LINE
5
372
100
AcDbEntity
8
0
100
AcDbLine
10
-79.02600000000001
20
-263.76799999999997
30
0
11
-79.168899999999994
21
-263.911
31
0
0
CIRCLE
5
373
100
AcDbEntity
8
0
100
AcDbCircle
10
-162.81400000000002
20
-137.77500000000001
30
0
40
1.25
210
0
220
0
230
1
0
LINE
5
374
100
AcDbEntity
8
0
100
AcDbLine
10
-105.41400000000002
20
-135.32499999999999
30
0
11
-107.614
21
-137.52500000000001
31
0
0
LINE
5
375
100
AcDbEntity
8
0
100
AcDbLine
10
-77.454599999999999
20
-266.62599999999998
30
0
11
-79.311700000000002
21
-266.62599999999998
31
0
0
LINE
5
376
100
AcDbEntity
8
0
100
AcDbLine
10
-79.168899999999994
20
-263.911
30
0
11
-79.311700000000002
21
-264.197
31
0
0
LINE
5
377
100
AcDbEntity
8
0
100
AcDbLine
10
-132.57599999999999
20
-119.50700000000001
30
0
11
-135.77500000000001
21
-119.50700000000001
31
0
0
LINE
5
378
100
AcDbEntity
8
0
100
AcDbLine
10
-105.65100000000001
20
-143.76400000000001
30
0
11
-108.852
21
-143.76400000000001
31
0
0
LINE
5
379
100
AcDbEntity
8
0
100
AcDbLine
10
-134.17500000000001
20
-117.90700000000001
30
0
11
-134.17500000000001
21
-121.10700000000001
31
0
0
CIRCLE
5
380
100
AcDbEntity
8
0
100
AcDbCircle
10
-162.78999999999999
20
-110.77500000000001
30
0
40
1.25
210
0
220
0
230
1
0
LINE
5
381
100
AcDbEntity
8
0
100
AcDbLine
10
-107.251
20
-142.16399999999999
30
0
11
-107.251
21
-145.364
31
0
0
LINE
5
382
100
AcDbEntity
8
0
100
AcDbLine
10
-84.168900000000008
20
-260.18299999999999
30
0
11
-84.02600000000001
21
-259.89699999999999
31
0
0
LINE
5
383
100
AcDbEntity
8
0
100
AcDbLine
10
-82.597399999999993
20
-257.32599999999996
30
0
11
-82.597399999999993
21
-257.61099999999999
31
0
0
LINE
5
384
100
AcDbEntity
8
0
100
AcDbLine
10
-117.919
20
-23.291999999999998
30
0
11
-117.919
21
-26.492000000000001
31
0
0
LINE
5
385
100
AcDbEntity
8
0
100
AcDbLine
10
-82.740300000000019
20
-257.46800000000002
30
0
11
-82.597399999999993
21
-257.32599999999996
31
0
0
LINE
5
386
100
AcDbEntity
8
0
100
AcDbLine
10
-81.311700000000002
20
-258.32600000000002
30
0
11
-81.597399999999993
21
-258.32600000000002
31
0
0
ARC
5
387
100
AcDbEntity
8
0
100
AcDbCircle
10
-126.27600000000001
20
-72.694400000000002
30
0
40
51.350000000000009
210
0
220
-0
230
1
100
AcDbArc
50
0
51
180
0
LINE
5
388
100
AcDbEntity
8
0
100
AcDbLine
10
-85.597399999999993
20
-259.89699999999999
30
0
11
-85.597399999999993
21
-257.32599999999996
31
0
0
LINE
5
389
100
AcDbEntity
8
0
100
AcDbLine
10
-81.02600000000001
20
-258.46800000000002
30
0
11
-81.311700000000002
21
-258.32600000000002
31
0
0
LINE
5
390
100
AcDbEntity
8
0
100
AcDbLine
10
-116.31900000000002
20
-24.892000000000003
30
0
11
-119.51900000000001
21
-24.892000000000003
31
0
0
LINE
5
391
100
AcDbEntity
8
0
100
AcDbLine
10
-77.740300000000005
20
-263.76799999999997
30
0
11
-78.02600000000001
21
-263.62599999999998
31
0
0
LINE
5
392
100
AcDbEntity
8
0
100
AcDbLine
10
-74.876000000000005
20
-264.16800000000001
30
0
11
-72.676000000000002
21
-266.36799999999999
31
0
0
LINE
5
393
100
AcDbEntity
8
0
100
AcDbLine
10
-83.114500000000007
20
-135.34999999999999
30
0
11
-80.914500000000004
21
-137.55000000000001
31
0
0
LINE
5
394
100
AcDbEntity
8
0
100
AcDbLine
10
-78.02600000000001
20
-263.62599999999998
30
0
11
-78.740300000000019
21
-263.62599999999998
31
0
0
LINE
5
395
100
AcDbEntity
8
0
100
AcDbLine
10
-134.77600000000001
20
-125.69400000000002
30
0
11
-117.77600000000001
21
-125.694
31
0
0
LINE
5
396
100
AcDbEntity
8
0
100
AcDbLine
10
-146.875
20
-142.16399999999999
30
0
11
-146.875
21
-145.364
31
0
0
LINE
5
397
100
AcDbEntity
8
0
100
AcDbLine
10
-79.311700000000002
20
-264.48300000000006
30
0
11
-79.168899999999994
21
-264.91100000000006
31
0
0
LINE
5
398
100
AcDbEntity
8
0
100
AcDbLine
10
-77.597399999999993
20
-263.911
30
0
11
-77.740300000000005
21
-263.76799999999997
31
0
0
ARC
5
399
100
AcDbEntity
8
0
100
AcDbCircle
10
-134.77600000000001
20
-129.69400000000002
30
0
40
3.9999999999999858
210
0
220
-0
230
1
100
AcDbArc
50
90
51
180
0
LINE
5
400
100
AcDbEntity
8
0
100
AcDbLine
10
-145.27500000000001
20
-143.76400000000001
30
0
11
-148.47499999999999
21
-143.76400000000001
31
0
0
LINE
5
401
100
AcDbEntity
8
0
100
AcDbLine
10
-107.614
20
-135.32499999999999
30
0
11
-105.41400000000002
21
-137.52500000000001
31
0
0
LINE
5
402
100
AcDbEntity
8
0
100
AcDbLine
10
-86.02600000000001
20
-260.32599999999996
30
0
11
-85.740300000000005
21
-260.18299999999999
31
0
0
LINE
5
403
100
AcDbEntity
8
0
100
AcDbLine
10
-172.27500000000003
20
-87.554000000000002
30
0
11
-172.27500000000003
21
-90.754000000000005
31
0
0
LINE
5
404
100
AcDbEntity
8
0
100
AcDbLine
10
-80.883099999999999
20
-258.61099999999999
30
0
11
-81.02600000000001
21
-258.46800000000002
31
0
0
LINE
5
405
100
AcDbEntity
8
0
100
AcDbLine
10
-170.67500000000001
20
-89.153999999999996
30
0
11
-173.875
21
-89.153999999999996
31
0
0
LINE
5
406
100
AcDbEntity
8
0
100
AcDbLine
10
-79.108500000000006
20
-56.133999999999993
30
0
11
-82.308500000000009
21
-56.133999999999993
31
0
0
LINE
5
407
100
AcDbEntity
8
0
100
AcDbLine
10
-84.454599999999999
20
-260.32599999999996
30
0
11
-84.168900000000008
21
-260.18299999999999
31
0
0
LINE
5
408
100
AcDbEntity
8
0
100
AcDbLine
10
-161.785
20
-41.528999999999996
30
0
11
-164.98599999999999
21
-41.528999999999996
31
0
0
LINE
5
409
100
AcDbEntity
8
0
100
AcDbLine
10
-82.597399999999993
20
-257.61099999999999
30
0
11
-82.740300000000019
21
-257.46800000000002
31
0
0
LINE
5
410
100
AcDbEntity
8
0
100
AcDbLine
10
-89.090500000000006
20
-102.286
30
0
11
-89.090500000000006
21
-105.486
31
0
0
LINE
5
411
100
AcDbEntity
8
0
100
AcDbLine
10
-85.740300000000005
20
-260.18299999999999
30
0
11
-85.597399999999993
21
-259.89699999999999
31
0
0
LINE
5
412
100
AcDbEntity
8
0
100
AcDbLine
10
-80.708500000000001
20
-54.534000000000006
30
0
11
-80.708500000000001
21
-57.733999999999995
31
0
0
LINE
5
413
100
AcDbEntity
8
0
100
AcDbLine
10
-82.597399999999993
20
-260.32599999999996
30
0
11
-82.597399999999993
21
-258.32600000000002
31
0
0
LINE
5
414
100
AcDbEntity
8
0
100
AcDbLine
10
-163.38499999999999
20
-39.929000000000002
30
0
11
-163.38499999999999
21
-43.128999999999998
31
0
0
LINE
5
415
100
AcDbEntity
8
0
100
AcDbLine
10
-82.454599999999999
20
-257.46800000000002
30
0
11
-82.597399999999993
21
-257.61099999999999
31
0
0
LINE
5
416
100
AcDbEntity
8
0
100
AcDbLine
10
-87.490499999999997
20
-103.88600000000002
30
0
11
-90.690500000000014
21
-103.88600000000002
31
0
0
LINE
5
417
100
AcDbEntity
8
0
100
AcDbLine
10
-80.740300000000005
20
-260.32599999999996
30
0
11
-80.740300000000005
21
-258.32600000000002
31
0
0
CIRCLE
5
418
100
AcDbEntity
8
0
100
AcDbCircle
10
-126.27600000000001
20
-72.694400000000002
30
0
40
41.000000000000007
210
0
220
0
230
1
0
LINE
5
419
100
AcDbEntity
8
0
100
AcDbLine
10
-80.740300000000005
20
-258.89699999999999
30
0
11
-80.883099999999999
21
-258.61099999999999
31
0
0
LINE
5
420
100
AcDbEntity
8
0
100
AcDbLine
10
-82.597399999999993
20
-257.32599999999996
30
0
11
-82.454599999999999
21
-257.46800000000002
31
0
0
LINE
5
421
100
AcDbEntity
8
0
100
AcDbLine
10
-84.02600000000001
20
-259.89699999999999
30
0
11
-84.02600000000001
21
-257.32599999999996
31
0
0
LINE
5
422
100
AcDbEntity
8
0
100
AcDbLine
10
-177.62600000000003
20
-72.694400000000002
30
0
11
-177.63900000000004
21
-144.02500000000001
31
0
0
ARC
5
423
100
AcDbEntity
8
0
100
AcDbCircle
10
-176.59299999999999
20
-190.86799999999999
30
0
40
1.0047400000000126
210
0
220
-0
230
1
100
AcDbArc
50
86.383700000000147
51
183.39221000000012
0
LINE
5
424
100
AcDbEntity
8
0
100
AcDbLine
10
-81.740300000000005
20
-266.62599999999998
30
0
11
-83.597400000000007
21
-266.62599999999998
31
0
0
LINE
5
425
100
AcDbEntity
8
0
100
AcDbLine
10
-136.95699999999999
20
-234.95000000000002
30
0
11
-140.15700000000004
21
-234.95000000000002
31
0
0
LINE
5
426
100
AcDbEntity
8
0
100
AcDbLine
10
-138.55700000000002
20
-233.35000000000002
30
0
11
-138.55700000000002
21
-236.55000000000001
31
0
0
LINE
5
427
100
AcDbEntity
8
0
100
AcDbLine
10
-80.597399999999993
20
-266.34000000000003
30
0
11
-80.597399999999993
21
-266.62599999999998
31
0
0
ARC
5
428
100
AcDbEntity
8
0
100
AcDbCircle
10
-176.63900000000001
20
-167.625
30
0
40
1.0000000000000135
210
0
220
0
230
1
100
AcDbArc
50
95.710599999999559
51
180
0
LINE
5
429
100
AcDbEntity
8
0
100
AcDbLine
10
-82.026000000000025
20
-263.76799999999997
30
0
11
-82.311700000000002
21
-263.62599999999998
31
0
0
ARC
5
430
100
AcDbEntity
8
0
100
AcDbCircle
10
-126.27600000000001
20
-186.69400000000002
30
0
40
20.500000000000014
210
0
220
-0
230
1
100
AcDbArc
50
71.336999999999961
51
108.66289999999996
0
LINE
5
431
100
AcDbEntity
8
0
100
AcDbLine
10
-114.04600000000002
20
-233.35000000000002
30
0
11
-114.04600000000002
21
-236.55000000000001
31
0
0
LINE
5
432
100
AcDbEntity
8
0
100
AcDbLine
10
-138.49299999999999
20
-215.37900000000005
30
0
11
-138.49299999999999
21
-218.57900000000001
31
0
0
LINE
5
433
100
AcDbEntity
8
0
100
AcDbLine
10
-145.27500000000001
20
-167.63999999999999
30
0
11
-148.47499999999999
21
-167.63999999999999
31
0
0
LINE
5
434
100
AcDbEntity
8
0
100
AcDbLine
10
-83.454600000000013
20
-263.911
30
0
11
-83.597400000000007
21
-264.197
31
0
0
LINE
5
435
100
AcDbEntity
8
0
100
AcDbLine
10
-157.21299999999999
20
-206.62900000000005
30
0
11
-160.41300000000001
21
-206.62900000000005
31
0
0
LINE
5
436
100
AcDbEntity
8
0
100
AcDbLine
10
-81.883099999999999
20
-263.911
30
0
11
-82.026000000000025
21
-263.76799999999997
31
0
0
ARC
5
437
100
AcDbEntity
8
0
100
AcDbCircle
10
-126.27600000000001
20
-204.268
30
0
40
51.350000000000016
210
0
220
0
230
1
100
AcDbArc
50
-180
51
0
0
LINE
5
438
100
AcDbEntity
8
0
100
AcDbLine
10
-142.16899999999998
20
-274.40300000000002
30
0
11
-142.02600000000001
21
-274.11700000000002
31
0
0
LINE
5
439
100
AcDbEntity
8
0
100
AcDbLine
10
-144.74000000000001
20
-274.40300000000002
30
0
11
-144.45500000000004
21
-274.54599999999999
31
0
0
LINE
5
440
100
AcDbEntity
8
0
100
AcDbLine
10
-141.59700000000001
20
-266.62599999999998
30
0
11
-141.02600000000001
21
-266.62599999999998
31
0
0
LINE
5
441
100
AcDbEntity
8
0
100
AcDbLine
10
-117.74000000000001
20
-272.97399999999999
30
0
11
-117.59700000000002
21
-272.83099999999996
31
0
0
LINE
5
442
100
AcDbEntity
8
0
100
AcDbLine
10
-96.740300000000019
20
-260.18299999999999
30
0
11
-96.454599999999999
21
-260.32599999999996
31
0
0
LINE
5
443
100
AcDbEntity
8
0
100
AcDbLine
10
-131.59700000000001
20
-274.40300000000002
30
0
11
-131.88299999999998
21
-274.54599999999999
31
0
0
LINE
5
444
100
AcDbEntity
8
0
100
AcDbLine
10
-116.31200000000001
20
-272.97399999999999
30
0
11
-116.16900000000001
21
-273.25999999999999
31
0
0
LINE
5
445
100
AcDbEntity
8
0
100
AcDbLine
10
-113.31200000000003
20
-268.15699999999998
30
0
11
-113.31200000000003
21
-268.87099999999998
31
0
0
LINE
5
446
100
AcDbEntity
8
0
100
AcDbLine
10
-132.16899999999998
20
-271.54600000000005
30
0
11
-131.88299999999998
21
-271.68799999999999
31
0
0
LINE
5
447
100
AcDbEntity
8
0
100
AcDbLine
10
-117.59700000000002
20
-272.83099999999996
30
0
11
-117.31200000000001
21
-272.68799999999999
31
0
0
LINE
5
448
100
AcDbEntity
8
0
100
AcDbLine
10
-132.88299999999998
20
-274.25999999999999
30
0
11
-133.02600000000001
21
-273.97399999999999
31
0
0
LINE
5
449
100
AcDbEntity
8
0
100
AcDbLine
10
-115.02600000000001
20
-269.30000000000001
30
0
11
-115.02600000000001
21
-268.15699999999998
31
0
0
LINE
5
450
100
AcDbEntity
8
0
100
AcDbLine
10
-131.88299999999998
20
-274.54599999999999
30
0
11
-132.45500000000001
21
-274.54599999999999
31
0
0
LINE
5
451
100
AcDbEntity
8
0
100
AcDbLine
10
-131.45500000000001
20
-272.25999999999999
30
0
11
-131.31200000000001
21
-272.83099999999996
31
0
0
LINE
5
452
100
AcDbEntity
8
0
100
AcDbLine
10
-121.883
20
-271.54600000000005
30
0
11
-121.883
21
-272.11700000000002
31
0
0
LINE
5
453
100
AcDbEntity
8
0
100
AcDbLine
10
-96.454599999999999
20
-258.32600000000002
30
0
11
-96.740300000000019
21
-258.46800000000002
31
0
0
LWPOLYLINE
5
454
100
AcDbEntity
8
0
100
AcDbPolyline
90
20
70
1
43
0.0
10
-119.45500000000001
20
-271.68799999999999
10
-119.31200000000003
20
-271.83099999999996
10
-119.169
20
-272.11700000000002
10
-119.02600000000001
20
-272.68799999999999
10
-119.02600000000001
20
-273.40300000000002
10
-119.169
20
-273.97399999999999
10
-119.31200000000003
20
-274.25999999999999
10
-119.45500000000001
20
-274.40300000000002
10
-119.74000000000001
20
-274.54599999999999
10
-120.02600000000001
20
-274.54599999999999
10
-120.31200000000001
20
-274.40300000000002
10
-120.45500000000001
20
-274.25999999999999
10
-120.59700000000001
20
-273.97399999999999
10
-120.73999999999999
20
-273.40300000000002
10
-120.73999999999999
20
-272.68799999999999
10
-120.59700000000001
20
-272.11700000000002
10
-120.45500000000001
20
-271.83099999999996
10
-120.31200000000001
20
-271.68799999999999
10
-120.02600000000001
20
-271.54600000000005
10
-119.74000000000001
20
-271.54600000000005
0
LINE
5
455
100
AcDbEntity
8
0
100
AcDbLine
10
-96.740300000000019
20
-264.62599999999998
30
0
11
-97.026000000000025
21
-264.76799999999997
31
0
0
LINE
5
456
100
AcDbEntity
8
0
100
AcDbLine
10
-133.74000000000001
20
-270.58600000000001
30
0
11
-133.74000000000001
21
-267.58600000000001
31
0
0
LINE
5
457
100
AcDbEntity
8
0
100
AcDbLine
10
-116.73999999999999
20
-270.58600000000001
30
0
11
-117.31200000000001
21
-270.58600000000001
31
0
0
LINE
5
458
100
AcDbEntity
8
0
100
AcDbLine
10
-130.02600000000001
20
-268.87099999999998
30
0
11
-128.31200000000001
21
-270.58600000000001
31
0
0
LINE
5
459
100
AcDbEntity
8
0
100
AcDbLine
10
-98.454600000000013
20
-260.18299999999999
30
0
11
-98.311700000000002
21
-260.32599999999996
31
0
0
LINE
5
460
100
AcDbEntity
8
0
100
AcDbLine
10
-131.88299999999998
20
-272.68799999999999
30
0
11
-131.59700000000001
21
-272.83099999999996
31
0
0
LINE
5
461
100
AcDbEntity
8
0
100
AcDbLine
10
-116.16900000000001
20
-273.97399999999999
30
0
11
-116.31200000000001
21
-274.25999999999999
31
0
0
LINE
5
462
100
AcDbEntity
8
0
100
AcDbLine
10
-98.454600000000013
20
-258.61099999999999
30
0
11
-98.311700000000002
21
-258.75400000000002
31
0
0
LINE
5
463
100
AcDbEntity
8
0
100
AcDbLine
10
-117.59700000000002
20
-274.40300000000002
30
0
11
-117.74000000000001
21
-274.25999999999999
31
0
0
LINE
5
464
100
AcDbEntity
8
0
100
AcDbLine
10
-96.311700000000002
20
-264.62599999999998
30
0
11
-96.740300000000019
21
-264.62599999999998
31
0
0
LINE
5
465
100
AcDbEntity
8
0
100
AcDbLine
10
-117.31200000000001
20
-272.68799999999999
30
0
11
-116.73999999999999
21
-272.68799999999999
31
0
0
LINE
5
466
100
AcDbEntity
8
0
100
AcDbLine
10
-111.02600000000002
20
-271.97400000000005
30
0
11
-110.73999999999999
21
-272.25999999999999
31
0
0
LINE
5
467
100
AcDbEntity
8
0
100
AcDbLine
10
-117.74000000000001
20
-274.25999999999999
30
0
11
-117.883
21
-273.97399999999999
31
0
0
LINE
5
468
100
AcDbEntity
8
0
100
AcDbLine
10
-117.31200000000001
20
-270.58600000000001
30
0
11
-117.59700000000002
21
-270.44299999999998
31
0
0
LINE
5
469
100
AcDbEntity
8
0
100
AcDbLine
10
-103.02600000000001
20
-263.483
30
0
11
-100.45500000000001
21
-267.33999999999997
31
0
0
LINE
5
470
100
AcDbEntity
8
0
100
AcDbLine
10
-133.02600000000001
20
-273.25999999999999
30
0
11
-132.88299999999998
21
-272.97399999999999
31
0
0
LINE
5
471
100
AcDbEntity
8
0
100
AcDbLine
10
-131.74000000000001
20
-271.83099999999996
30
0
11
-131.45500000000001
21
-272.25999999999999
31
0
0
LINE
5
472
100
AcDbEntity
8
0
100
AcDbLine
10
-98.168900000000008
20
-260.18299999999999
30
0
11
-98.311700000000002
21
-260.04000000000008
31
0
0
LINE
5
473
100
AcDbEntity
8
0
100
AcDbLine
10
-131.88299999999998
20
-271.68799999999999
30
0
11
-131.74000000000001
21
-271.83099999999996
31
0
0
LINE
5
474
100
AcDbEntity
8
0
100
AcDbLine
10
-132.74000000000001
20
-271.54600000000005
30
0
11
-132.16899999999998
21
-271.54600000000005
31
0
0
LINE
5
475
100
AcDbEntity
8
0
100
AcDbLine
10
-132.74000000000001
20
-272.83099999999996
30
0
11
-132.45500000000001
21
-272.68799999999999
31
0
0
LINE
5
476
100
AcDbEntity
8
0
100
AcDbLine
10
-117.883
20
-273.25999999999999
30
0
11
-117.74000000000001
21
-272.97399999999999
31
0
0
LINE
5
477
100
AcDbEntity
8
0
100
AcDbLine
10
-113.74000000000001
20
-271.54600000000005
30
0
11
-114.45500000000001
21
-271.54600000000005
31
0
0
LINE
5
478
100
AcDbEntity
8
0
100
AcDbLine
10
-117.883
20
-273.97399999999999
30
0
11
-117.883
21
-273.25999999999999
31
0
0
LINE
5
479
100
AcDbEntity
8
0
100
AcDbLine
10
-95.454599999999999
20
-264.62599999999998
30
0
11
-95.740300000000005
21
-264.76799999999997
31
0
0
LINE
5
480
100
AcDbEntity
8
0
100
AcDbLine
10
-98.311700000000002
20
-258.46800000000002
30
0
11
-98.311700000000002
21
-258.75400000000002
31
0
0
LINE
5
481
100
AcDbEntity
8
0
100
AcDbLine
10
-116.31200000000001
20
-272.25999999999999
30
0
11
-116.16900000000001
21
-272.83099999999996
31
0
0
LINE
5
482
100
AcDbEntity
8
0
100
AcDbLine
10
-95.597399999999993
20
-258.46800000000002
30
0
11
-95.883099999999999
21
-258.32600000000002
31
0
0
LINE
5
483
100
AcDbEntity
8
0
100
AcDbLine
10
-116.59700000000001
20
-271.83099999999996
30
0
11
-116.31200000000001
21
-272.25999999999999
31
0
0
LINE
5
484
100
AcDbEntity
8
0
100
AcDbLine
10
-98.311700000000002
20
-258.75400000000002
30
0
11
-98.168900000000008
21
-258.61099999999999
31
0
0
LINE
5
485
100
AcDbEntity
8
0
100
AcDbLine
10
-98.168900000000008
20
-258.61099999999999
30
0
11
-98.311700000000002
21
-258.46800000000002
31
0
0
LINE
5
486
100
AcDbEntity
8
0
100
AcDbLine
10
-116.31200000000001
20
-270.30000000000001
30
0
11
-116.455
21
-270.44299999999998
31
0
0
LINE
5
487
100
AcDbEntity
8
0
100
AcDbLine
10
-127.455
20
-275.68799999999999
30
0
11
-127.31200000000001
21
-275.54599999999999
31
0
0
LINE
5
488
100
AcDbEntity
8
0
100
AcDbLine
10
-137.74000000000001
20
-272.68799999999999
30
0
11
-137.45500000000001
21
-272.54599999999999
31
0
0
LINE
5
489
100
AcDbEntity
8
0
100
AcDbLine
10
-137.88299999999998
20
-274.54599999999999
30
0
11
-137.88299999999998
21
-272.97399999999999
31
0
0
LINE
5
490
100
AcDbEntity
8
0
100
AcDbLine
10
-97.168899999999994
20
-265.05400000000003
30
0
11
-97.168899999999994
21
-266.62599999999998
31
0
0
LINE
5
491
100
AcDbEntity
8
0
100
AcDbLine
10
-136.59700000000001
20
-274.54599999999999
30
0
11
-136.59700000000001
21
-271.54600000000005
31
0
0
LINE
5
492
100
AcDbEntity
8
0
100
AcDbLine
10
-96.883100000000013
20
-258.61099999999999
30
0
11
-97.026000000000025
21
-258.89699999999999
31
0
0
LINE
5
493
100
AcDbEntity
8
0
100
AcDbLine
10
-114.88300000000001
20
-272.83099999999996
30
0
11
-113.16900000000001
21
-274.54599999999999
31
0
0
LINE
5
494
100
AcDbEntity
8
0
100
AcDbLine
10
-116.73999999999999
20
-274.54599999999999
30
0
11
-117.31200000000001
21
-274.54599999999999
31
0
0
LINE
5
495
100
AcDbEntity
8
0
100
AcDbLine
10
-137.45500000000001
20
-272.54599999999999
30
0
11
-137.02600000000001
21
-272.54599999999999
31
0
0
LINE
5
496
100
AcDbEntity
8
0
100
AcDbLine
10
-117.02600000000002
20
-271.54600000000005
30
0
11
-116.73999999999999
21
-271.68799999999999
31
0
0
LINE
5
497
100
AcDbEntity
8
0
100
AcDbLine
10
-114.45500000000001
20
-271.54600000000005
30
0
11
-114.74000000000001
21
-271.68799999999999
31
0
0
LINE
5
498
100
AcDbEntity
8
0
100
AcDbLine
10
-131.31200000000001
20
-273.97399999999999
30
0
11
-131.45500000000001
21
-274.25999999999999
31
0
0
LINE
5
499
100
AcDbEntity
8
0
100
AcDbLine
10
-111.31200000000001
20
-274.54599999999999
30
0
11
-111.31200000000001
21
-271.54600000000005
31
0
0
LINE
5
500
100
AcDbEntity
8
0
100
AcDbLine
10
-116.455
20
-270.44299999999998
30
0
11
-116.73999999999999
21
-270.58600000000001
31
0
0
LINE
5
501
100
AcDbEntity
8
0
100
AcDbLine
10
-115.02600000000001
20
-272.40300000000002
30
0
11
-114.88300000000001
21
-272.83099999999996
31
0
0
LINE
5
502
100
AcDbEntity
8
0
100
AcDbLine
10
-97.026000000000025
20
-259.75400000000002
30
0
11
-96.883100000000013
21
-260.04000000000008
31
0
0
LINE
5
503
100
AcDbEntity
8
0
100
AcDbLine
10
-115.02600000000001
20
-272.11700000000002
30
0
11
-115.02600000000001
21
-272.40300000000002
31
0
0
LINE
5
504
100
AcDbEntity
8
0
100
AcDbLine
10
-117.74000000000001
20
-270.30000000000001
30
0
11
-117.883
21
-270.01400000000001
31
0
0
LINE
5
505
100
AcDbEntity
8
0
100
AcDbLine
10
-113.16900000000001
20
-274.54599999999999
30
0
11
-115.02600000000001
21
-274.54599999999999
31
0
0
LINE
5
506
100
AcDbEntity
8
0
100
AcDbLine
10
-116.455
20
-274.40300000000002
30
0
11
-116.73999999999999
21
-274.54599999999999
31
0
0
LINE
5
507
100
AcDbEntity
8
0
100
AcDbLine
10
-136.74000000000001
20
-272.68799999999999
30
0
11
-136.59700000000001
21
-272.83099999999996
31
0
0
LINE
5
508
100
AcDbEntity
8
0
100
AcDbLine
10
-96.026000000000025
20
-264.76799999999997
30
0
11
-96.311700000000002
21
-264.62599999999998
31
0
0
LINE
5
509
100
AcDbEntity
8
0
100
AcDbLine
10
-132.45500000000001
20
-274.54599999999999
30
0
11
-132.74000000000001
21
-274.40300000000002
31
0
0
LINE
5
510
100
AcDbEntity
8
0
100
AcDbLine
10
-96.454599999999999
20
-260.32599999999996
30
0
11
-95.883099999999999
21
-260.32599999999996
31
0
0
LINE
5
511
100
AcDbEntity
8
0
100
AcDbLine
10
-94.597399999999993
20
-266.62599999999998
30
0
11
-94.597399999999993
21
-264.62599999999998
31
0
0
LINE
5
512
100
AcDbEntity
8
0
100
AcDbLine
10
-131.45500000000001
20
-274.25999999999999
30
0
11
-131.59700000000001
21
-274.40300000000002
31
0
0
LINE
5
513
100
AcDbEntity
8
0
100
AcDbLine
10
-127.31200000000001
20
-271.58600000000001
30
0
11
-127.02600000000002
21
-271.15699999999998
31
0
0
LINE
5
514
100
AcDbEntity
8
0
100
AcDbLine
10
-116.73999999999999
20
-272.68799999999999
30
0
11
-116.455
21
-272.83099999999996
31
0
0
LINE
5
515
100
AcDbEntity
8
0
100
AcDbLine
10
-132.88299999999998
20
-272.97399999999999
30
0
11
-132.74000000000001
21
-272.83099999999996
31
0
0
LINE
5
516
100
AcDbEntity
8
0
100
AcDbLine
10
-116.31200000000001
20
-269.15700000000004
30
0
11
-116.16900000000001
21
-269.44299999999998
31
0
0
LINE
5
517
100
AcDbEntity
8
0
100
AcDbLine
10
-95.597399999999993
20
-258.32600000000002
30
0
11
-95.597399999999993
21
-261.32599999999996
31
0
0
LINE
5
518
100
AcDbEntity
8
0
100
AcDbLine
10
-96.740300000000019
20
-258.46800000000002
30
0
11
-96.883100000000013
21
-258.61099999999999
31
0
0
LINE
5
519
100
AcDbEntity
8
0
100
AcDbLine
10
-137.88299999999998
20
-272.97399999999999
30
0
11
-137.74000000000001
21
-272.68799999999999
31
0
0
LINE
5
520
100
AcDbEntity
8
0
100
AcDbLine
10
-116.455
20
-272.83099999999996
30
0
11
-116.31200000000001
21
-272.97399999999999
31
0
0
LINE
5
521
100
AcDbEntity
8
0
100
AcDbLine
10
-95.02600000000001
20
-264.62599999999998
30
0
11
-95.454599999999999
21
-264.62599999999998
31
0
0
LINE
5
522
100
AcDbEntity
8
0
100
AcDbLine
10
-132.45500000000001
20
-272.68799999999999
30
0
11
-131.88299999999998
21
-272.68799999999999
31
0
0
LINE
5
523
100
AcDbEntity
8
0
100
AcDbLine
10
-96.883100000000013
20
-260.04000000000008
30
0
11
-96.740300000000019
21
-260.18299999999999
31
0
0
LINE
5
524
100
AcDbEntity
8
0
100
AcDbLine
10
-119.02600000000001
20
-269.58600000000001
30
0
11
-120.88300000000001
21
-269.58600000000001
31
0
0
LINE
5
525
100
AcDbEntity
8
0
100
AcDbLine
10
-97.026000000000025
20
-258.89699999999999
30
0
11
-97.026000000000025
21
-259.75400000000002
31
0
0
LINE
5
526
100
AcDbEntity
8
0
100
AcDbLine
10
-133.02600000000001
20
-273.97399999999999
30
0
11
-133.02600000000001
21
-273.25999999999999
31
0
0
LINE
5
527
100
AcDbEntity
8
0
100
AcDbLine
10
-123.02600000000001
20
-271.54600000000005
30
0
11
-123.02600000000001
21
-272.11700000000002
31
0
0
LINE
5
528
100
AcDbEntity
8
0
100
AcDbLine
10
-131.31200000000001
20
-272.83099999999996
30
0
11
-131.31200000000001
21
-273.97399999999999
31
0
0
LINE
5
529
100
AcDbEntity
8
0
100
AcDbLine
10
-95.883099999999999
20
-260.32599999999996
30
0
11
-95.597399999999993
21
-260.18299999999999
31
0
0
LINE
5
530
100
AcDbEntity
8
0
100
AcDbLine
10
-131.59700000000001
20
-272.83099999999996
30
0
11
-131.45500000000001
21
-272.97399999999999
31
0
0
LINE
5
531
100
AcDbEntity
8
0
100
AcDbLine
10
-137.02600000000001
20
-272.54599999999999
30
0
11
-136.74000000000001
21
-272.68799999999999
31
0
0
LINE
5
532
100
AcDbEntity
8
0
100
AcDbLine
10
-95.883099999999999
20
-265.05400000000003
30
0
11
-95.883099999999999
21
-266.62599999999998
31
0
0
LINE
5
533
100
AcDbEntity
8
0
100
AcDbLine
10
-98.311700000000002
20
-260.04000000000008
30
0
11
-98.454600000000013
21
-260.18299999999999
31
0
0
LINE
5
534
100
AcDbEntity
8
0
100
AcDbLine
10
-135.02600000000001
20
-270.58600000000001
30
0
11
-135.02600000000001
21
-269.01400000000001
31
0
0
LINE
5
535
100
AcDbEntity
8
0
100
AcDbLine
10
-94.597399999999993
20
-264.91100000000006
30
0
11
-94.740300000000005
21
-264.76799999999997
31
0
0
LINE
5
536
100
AcDbEntity
8
0
100
AcDbLine
10
-95.740300000000005
20
-264.76799999999997
30
0
11
-95.883099999999999
21
-265.05400000000003
31
0
0
LINE
5
537
100
AcDbEntity
8
0
100
AcDbLine
10
-95.883099999999999
20
-258.32600000000002
30
0
11
-96.454599999999999
21
-258.32600000000002
31
0
0
LINE
5
538
100
AcDbEntity
8
0
100
AcDbLine
10
-111.31200000000001
20
-271.54600000000005
30
0
11
-111.02600000000002
21
-271.97400000000005
31
0
0
LINE
5
539
100
AcDbEntity
8
0
100
AcDbLine
10
-113.31200000000003
20
-271.83099999999996
30
0
11
-113.45500000000001
21
-271.68799999999999
31
0
0
LINE
5
540
100
AcDbEntity
8
0
100
AcDbLine
10
-116.31200000000001
20
-274.25999999999999
30
0
11
-116.455
21
-274.40300000000002
31
0
0
LINE
5
541
100
AcDbEntity
8
0
100
AcDbLine
10
-114.88300000000001
20
-271.83099999999996
30
0
11
-115.02600000000001
21
-272.11700000000002
31
0
0
LINE
5
542
100
AcDbEntity
8
0
100
AcDbLine
10
-117.59700000000002
20
-270.44299999999998
30
0
11
-117.74000000000001
21
-270.30000000000001
31
0
0
LINE
5
543
100
AcDbEntity
8
0
100
AcDbLine
10
-97.026000000000025
20
-264.76799999999997
30
0
11
-97.168899999999994
21
-265.05400000000003
31
0
0
LINE
5
544
100
AcDbEntity
8
0
100
AcDbLine
10
-132.74000000000001
20
-274.40300000000002
30
0
11
-132.88299999999998
21
-274.25999999999999
31
0
0
LINE
5
545
100
AcDbEntity
8
0
100
AcDbLine
10
-117.59700000000002
20
-271.54600000000005
30
0
11
-117.02600000000002
21
-271.54600000000005
31
0
0
LINE
5
546
100
AcDbEntity
8
0
100
AcDbLine
10
-126.883
20
-271.97400000000005
30
0
11
-127.02600000000002
21
-271.68799999999999
31
0
0
LINE
5
547
100
AcDbEntity
8
0
100
AcDbLine
10
-92.311700000000002
20
-264.62599999999998
30
0
11
-92.740300000000019
21
-264.62599999999998
31
0
0
LINE
5
548
100
AcDbEntity
8
0
100
AcDbLine
10
-130.16899999999998
20
-274.54599999999999
30
0
11
-128.45500000000001
21
-274.54599999999999
31
0
0
LINE
5
549
100
AcDbEntity
8
0
100
AcDbLine
10
-93.168899999999994
20
-265.05400000000003
30
0
11
-93.168899999999994
21
-266.62599999999998
31
0
0
LINE
5
550
100
AcDbEntity
8
0
100
AcDbLine
10
-113.45500000000001
20
-271.68799999999999
30
0
11
-113.74000000000001
21
-271.54600000000005
31
0
0
LINE
5
551
100
AcDbEntity
8
0
100
AcDbLine
10
-94.740300000000005
20
-264.76799999999997
30
0
11
-95.02600000000001
21
-264.62599999999998
31
0
0
LINE
5
552
100
AcDbEntity
8
0
100
AcDbLine
10
-140.59700000000001
20
-270.15699999999998
30
0
11
-140.59700000000001
21
-269.01400000000001
31
0
0
LINE
5
553
100
AcDbEntity
8
0
100
AcDbLine
10
-98.311700000000002
20
-258.46800000000002
30
0
11
-98.454600000000013
21
-258.61099999999999
31
0
0
LINE
5
554
100
AcDbEntity
8
0
100
AcDbLine
10
-91.883099999999999
20
-265.05400000000003
30
0
11
-92.026000000000025
21
-264.76799999999997
31
0
0
LINE
5
555
100
AcDbEntity
8
0
100
AcDbLine
10
-110.73999999999999
20
-272.25999999999999
30
0
11
-110.45500000000001
21
-272.40300000000002
31
0
0
LINE
5
556
100
AcDbEntity
8
0
100
AcDbLine
10
-126.59700000000001
20
-269.72800000000001
30
0
11
-126.59700000000001
21
-269.15700000000004
31
0
0
LINE
5
557
100
AcDbEntity
8
0
100
AcDbLine
10
-112.16900000000001
20
-274.54599999999999
30
0
11
-110.45500000000001
21
-274.54599999999999
31
0
0
LINE
5
558
100
AcDbEntity
8
0
100
AcDbLine
10
-116.16900000000001
20
-270.01400000000001
30
0
11
-116.31200000000001
21
-270.30000000000001
31
0
0
LINE
5
559
100
AcDbEntity
8
0
100
AcDbLine
10
-114.74000000000001
20
-271.68799999999999
30
0
11
-114.88300000000001
21
-271.83099999999996
31
0
0
LINE
5
560
100
AcDbEntity
8
0
100
AcDbLine
10
-117.31200000000001
20
-274.54599999999999
30
0
11
-117.59700000000002
21
-274.40300000000002
31
0
0
LINE
5
561
100
AcDbEntity
8
0
100
AcDbLine
10
-98.311700000000002
20
-260.32599999999996
30
0
11
-98.168900000000008
21
-260.18299999999999
31
0
0
LINE
5
562
100
AcDbEntity
8
0
100
AcDbLine
10
-116.73999999999999
20
-271.68799999999999
30
0
11
-116.59700000000001
21
-271.83099999999996
31
0
0
LINE
5
563
100
AcDbEntity
8
0
100
AcDbLine
10
-98.311700000000002
20
-260.04000000000008
30
0
11
-98.311700000000002
21
-260.32599999999996
31
0
0
LINE
5
564
100
AcDbEntity
8
0
100
AcDbLine
10
-116.16900000000001
20
-272.83099999999996
30
0
11
-116.16900000000001
21
-273.97399999999999
31
0
0
LINE
5
565
100
AcDbEntity
8
0
100
AcDbLine
10
-131.45500000000001
20
-272.97399999999999
30
0
11
-131.31200000000001
21
-273.25999999999999
31
0
0
LINE
5
566
100
AcDbEntity
8
0
100
AcDbLine
10
-95.883099999999999
20
-265.05400000000003
30
0
11
-96.026000000000025
21
-264.76799999999997
31
0
0
LINE
5
567
100
AcDbEntity
8
0
100
AcDbLine
10
-146.02600000000001
20
-273.11700000000002
30
0
11
-146.02600000000001
21
-272.97399999999999
31
0
0
LINE
5
568
100
AcDbEntity
8
0
100
AcDbLine
10
-95.740300000000005
20
-268.72800000000001
30
0
11
-95.883099999999999
21
-269.01400000000001
31
0
0
LINE
5
569
100
AcDbEntity
8
0
100
AcDbLine
10
-145.59700000000001
20
-263.33999999999997
30
0
11
-145.45500000000001
21
-263.197
31
0
0
LINE
5
570
100
AcDbEntity
8
0
100
AcDbLine
10
-96.026000000000025
20
-272.68799999999999
30
0
11
-96.311700000000002
21
-272.54599999999999
31
0
0
LINE
5
571
100
AcDbEntity
8
0
100
AcDbLine
10
-143.45500000000001
20
-270.58600000000001
30
0
11
-144.02600000000001
21
-270.58600000000001
31
0
0
LINE
5
572
100
AcDbEntity
8
0
100
AcDbLine
10
-143.31200000000001
20
-265.483
30
0
11
-143.16899999999998
21
-265.197
31
0
0
LINE
5
573
100
AcDbEntity
8
0
100
AcDbLine
10
-95.883099999999999
20
-272.97399999999999
30
0
11
-96.026000000000025
21
-272.68799999999999
31
0
0
LINE
5
574
100
AcDbEntity
8
0
100
AcDbLine
10
-92.311700000000002
20
-272.54599999999999
30
0
11
-92.740300000000019
21
-272.54599999999999
31
0
0
LINE
5
575
100
AcDbEntity
8
0
100
AcDbLine
10
-143.31200000000001
20
-268.72800000000001
30
0
11
-143.59700000000001
21
-268.58600000000001
31
0
0
LINE
5
576
100
AcDbEntity
8
0
100
AcDbLine
10
-113.59700000000002
20
-269.30000000000001
30
0
11
-113.88300000000001
21
-269.44299999999998
31
0
0
LINE
5
577
100
AcDbEntity
8
0
100
AcDbLine
10
-120.59700000000001
20
-266.34000000000003
30
0
11
-120.73999999999999
21
-266.05400000000003
31
0
0
LINE
5
578
100
AcDbEntity
8
0
100
AcDbLine
10
-126.73999999999999
20
-268.44299999999998
30
0
11
-126.883
21
-268.01400000000001
31
0
0
LINE
5
579
100
AcDbEntity
8
0
100
AcDbLine
10
-91.883099999999999
20
-265.05400000000003
30
0
11
-91.883099999999999
21
-266.62599999999998
31
0
0
LINE
5
580
100
AcDbEntity
8
0
100
AcDbLine
10
-126.73999999999999
20
-274.40300000000002
30
0
11
-126.59700000000001
21
-273.68799999999999
31
0
0
LINE
5
581
100
AcDbEntity
8
0
100
AcDbLine
10
-123.02600000000001
20
-267.58600000000001
30
0
11
-123.02600000000001
21
-268.15699999999998
31
0
0
LINE
5
582
100
AcDbEntity
8
0
100
AcDbLine
10
-90.597399999999993
20
-266.62599999999998
30
0
11
-90.597399999999993
21
-264.62599999999998
31
0
0
LINE
5
583
100
AcDbEntity
8
0
100
AcDbLine
10
-129.31200000000001
20
-274.54599999999999
30
0
11
-129.31200000000001
21
-271.54600000000005
31
0
0
LINE
5
584
100
AcDbEntity
8
0
100
AcDbLine
10
-130.16899999999998
20
-263.62599999999998
30
0
11
-129.16899999999998
21
-264.76799999999997
31
0
0
LINE
5
585
100
AcDbEntity
8
0
100
AcDbLine
10
-123.02600000000001
20
-263.62599999999998
30
0
11
-123.02600000000001
21
-264.197
31
0
0
LINE
5
586
100
AcDbEntity
8
0
100
AcDbLine
10
-90.597399999999993
20
-264.91100000000006
30
0
11
-90.740300000000005
21
-264.76799999999997
31
0
0
LINE
5
587
100
AcDbEntity
8
0
100
AcDbLine
10
-95.02600000000001
20
-272.54599999999999
30
0
11
-95.454599999999999
21
-272.54599999999999
31
0
0
LINE
5
588
100
AcDbEntity
8
0
100
AcDbLine
10
-144.31200000000001
20
-266.483
30
0
11
-144.45500000000004
21
-266.197
31
0
0
LINE
5
589
100
AcDbEntity
8
0
100
AcDbLine
10
-147.16899999999998
20
-273.68799999999999
30
0
11
-146.88299999999998
21
-273.54599999999999
31
0
0
LINE
5
590
100
AcDbEntity
8
0
100
AcDbLine
10
-143.59700000000001
20
-274.40300000000002
30
0
11
-143.45500000000001
21
-274.11700000000002
31
0
0
LINE
5
591
100
AcDbEntity
8
0
100
AcDbLine
10
-93.02600000000001
20
-264.76799999999997
30
0
11
-93.168899999999994
21
-265.05400000000003
31
0
0
LINE
5
592
100
AcDbEntity
8
0
100
AcDbLine
10
-127.02600000000002
20
-271.15699999999998
30
0
11
-126.883
21
-270.87099999999998
31
0
0
LINE
5
593
100
AcDbEntity
8
0
100
AcDbLine
10
-120.59700000000001
20
-265.05400000000003
30
0
11
-120.45500000000001
21
-264.91100000000006
31
0
0
LINE
5
594
100
AcDbEntity
8
0
100
AcDbLine
10
-91.454599999999999
20
-264.62599999999998
30
0
11
-91.740300000000005
21
-264.76799999999997
31
0
0
LINE
5
595
100
AcDbEntity
8
0
100
AcDbLine
10
-114.59700000000001
20
-270.30000000000001
30
0
11
-114.88300000000001
21
-269.87099999999998
31
0
0
LINE
5
596
100
AcDbEntity
8
0
100
AcDbLine
10
-114.45500000000001
20
-270.44299999999998
30
0
11
-114.59700000000001
21
-270.30000000000001
31
0
0
LINE
5
597
100
AcDbEntity
8
0
100
AcDbLine
10
-114.88300000000001
20
-269.15700000000004
30
0
11
-115.02600000000001
21
-268.87099999999998
31
0
0
LINE
5
598
100
AcDbEntity
8
0
100
AcDbLine
10
-120.73999999999999
20
-265.33999999999997
30
0
11
-120.59700000000001
21
-265.05400000000003
31
0
0
LINE
5
599
100
AcDbEntity
8
0
100
AcDbLine
10
-113.45500000000001
20
-264.62599999999998
30
0
11
-113.31200000000003
21
-264.33999999999997
31
0
0
LINE
5
600
100
AcDbEntity
8
0
100
AcDbLine
10
-117.74000000000001
20
-265.05400000000003
30
0
11
-117.59700000000002
21
-264.91100000000006
31
0
0
LINE
5
601
100
AcDbEntity
8
0
100
AcDbLine
10
-126.883
20
-268.01400000000001
30
0
11
-127.02600000000002
21
-267.72800000000007
31
0
0
LINE
5
602
100
AcDbEntity
8
0
100
AcDbLine
10
-130.16899999999998
20
-268.15699999999998
30
0
11
-130.16899999999998
21
-268.44299999999998
31
0
0
LINE
5
603
100
AcDbEntity
8
0
100
AcDbLine
10
-115.02600000000001
20
-264.197
30
0
11
-115.02600000000001
21
-264.33999999999997
31
0
0
LINE
5
604
100
AcDbEntity
8
0
100
AcDbLine
10
-117.02600000000002
20
-263.62599999999998
30
0
11
-116.73999999999999
21
-263.76799999999997
31
0
0
LINE
5
605
100
AcDbEntity
8
0
100
AcDbLine
10
-113.59700000000002
20
-263.76799999999997
30
0
11
-113.88300000000001
21
-263.62599999999998
31
0
0
LINE
5
606
100
AcDbEntity
8
0
100
AcDbLine
10
-83.311700000000002
20
-271.68799999999999
30
0
11
-83.454600000000013
21
-271.83099999999996
31
0
0
LINE
5
607
100
AcDbEntity
8
0
100
AcDbLine
10
-114.45500000000001
20
-263.62599999999998
30
0
11
-114.74000000000001
21
-263.76799999999997
31
0
0
LINE
5
608
100
AcDbEntity
8
0
100
AcDbLine
10
-113.31200000000003
20
-264.197
30
0
11
-113.45500000000001
21
-263.911
31
0
0
LINE
5
609
100
AcDbEntity
8
0
100
AcDbLine
10
-116.31200000000001
20
-265.05400000000003
30
0
11
-116.16900000000001
21
-265.33999999999997
31
0
0
LINE
5
610
100
AcDbEntity
8
0
100
AcDbLine
10
-114.74000000000001
20
-267.72800000000007
30
0
11
-114.45500000000001
21
-267.58600000000001
31
0
0
LINE
5
611
100
AcDbEntity
8
0
100
AcDbLine
10
-126.883
20
-264.05400000000003
30
0
11
-127.02600000000002
21
-263.76799999999997
31
0
0
LINE
5
612
100
AcDbEntity
8
0
100
AcDbLine
10
-82.311700000000002
20
-271.54600000000005
30
0
11
-83.02600000000001
21
-271.54600000000005
31
0
0
LINE
5
613
100
AcDbEntity
8
0
100
AcDbLine
10
-116.73999999999999
20
-263.76799999999997
30
0
11
-116.59700000000001
21
-263.911
31
0
0
LINE
5
614
100
AcDbEntity
8
0
100
AcDbLine
10
-81.740300000000005
20
-274.54599999999999
30
0
11
-83.597400000000007
21
-274.54599999999999
31
0
0
LINE
5
615
100
AcDbEntity
8
0
100
AcDbLine
10
-130.02600000000001
20
-265.05400000000003
30
0
11
-130.16899999999998
21
-265.33999999999997
31
0
0
LINE
5
616
100
AcDbEntity
8
0
100
AcDbLine
10
-81.883099999999999
20
-269.01400000000001
30
0
11
-82.026000000000025
21
-268.87099999999998
31
0
0
LINE
5
617
100
AcDbEntity
8
0
100
AcDbLine
10
-113.59700000000002
20
-266.483
30
0
11
-113.88300000000001
21
-266.62599999999998
31
0
0
LINE
5
618
100
AcDbEntity
8
0
100
AcDbLine
10
-126.59700000000001
20
-265.76799999999997
30
0
11
-126.59700000000001
21
-265.197
31
0
0
LINE
5
619
100
AcDbEntity
8
0
100
AcDbLine
10
-126.883
20
-266.911
30
0
11
-126.73999999999999
21
-266.483
31
0
0
LINE
5
620
100
AcDbEntity
8
0
100
AcDbLine
10
-116.16900000000001
20
-266.05400000000003
30
0
11
-116.31200000000001
21
-266.34000000000003
31
0
0
LINE
5
621
100
AcDbEntity
8
0
100
AcDbLine
10
-83.02600000000001
20
-270.58600000000001
30
0
11
-82.311700000000002
21
-270.58600000000001
31
0
0
LINE
5
622
100
AcDbEntity
8
0
100
AcDbLine
10
-113.31200000000003
20
-265.483
30
0
11
-113.31200000000003
21
-266.05400000000003
31
0
0
LINE
5
623
100
AcDbEntity
8
0
100
AcDbLine
10
-126.73999999999999
20
-266.483
30
0
11
-126.59700000000001
21
-265.76799999999997
31
0
0
LINE
5
624
100
AcDbEntity
8
0
100
AcDbLine
10
-83.311700000000002
20
-270.44299999999998
30
0
11
-83.02600000000001
21
-270.58600000000001
31
0
0
LINE
5
625
100
AcDbEntity
8
0
100
AcDbLine
10
-116.73999999999999
20
-266.62599999999998
30
0
11
-117.31200000000001
21
-266.62599999999998
31
0
0
LINE
5
626
100
AcDbEntity
8
0
100
AcDbLine
10
-82.026000000000025
20
-268.87099999999998
30
0
11
-82.311700000000002
21
-268.72800000000001
31
0
0
LINE
5
627
100
AcDbEntity
8
0
100
AcDbLine
10
-117.883
20
-266.05400000000003
30
0
11
-117.883
21
-265.33999999999997
31
0
0
LINE
5
628
100
AcDbEntity
8
0
100
AcDbLine
10
-130.16899999999998
20
-265.33999999999997
30
0
11
-130.16899999999998
21
-266.05400000000003
31
0
0
LINE
5
629
100
AcDbEntity
8
0
100
AcDbLine
10
-116.16900000000001
20
-268.15699999999998
30
0
11
-116.31200000000001
21
-267.87099999999998
31
0
0
LINE
5
630
100
AcDbEntity
8
0
100
AcDbLine
10
-129.88299999999998
20
-267.72800000000007
30
0
11
-130.02600000000001
21
-267.87099999999998
31
0
0
LINE
5
631
100
AcDbEntity
8
0
100
AcDbLine
10
-94.597399999999993
20
-270.58600000000001
30
0
11
-94.597399999999993
21
-268.58600000000001
31
0
0
LINE
5
632
100
AcDbEntity
8
0
100
AcDbLine
10
-91.02600000000001
20
-272.54599999999999
30
0
11
-91.454599999999999
21
-272.54599999999999
31
0
0
LINE
5
633
100
AcDbEntity
8
0
100
AcDbLine
10
-95.883099999999999
20
-272.97399999999999
30
0
11
-95.883099999999999
21
-274.54599999999999
31
0
0
LINE
5
634
100
AcDbEntity
8
0
100
AcDbLine
10
-143.59700000000001
20
-268.58600000000001
30
0
11
-144.02600000000001
21
-268.58600000000001
31
0
0
LINE
5
635
100
AcDbEntity
8
0
100
AcDbLine
10
-144.88299999999998
20
-272.97399999999999
30
0
11
-144.88299999999998
21
-273.25999999999999
31
0
0
LINE
5
636
100
AcDbEntity
8
0
100
AcDbLine
10
-127.31200000000001
20
-275.54599999999999
30
0
11
-127.02600000000002
21
-275.11700000000008
31
0
0
LINE
5
637
100
AcDbEntity
8
0
100
AcDbLine
10
-119.45500000000001
20
-263.911
30
0
11
-119.169
21
-264.33999999999997
31
0
0
LINE
5
638
100
AcDbEntity
8
0
100
AcDbLine
10
-114.88300000000001
20
-264.62599999999998
30
0
11
-114.74000000000001
21
-264.76799999999997
31
0
0
LINE
5
639
100
AcDbEntity
8
0
100
AcDbLine
10
-109.31200000000003
20
-270.44299999999998
30
0
11
-109.169
21
-270.58600000000001
31
0
0
LINE
5
640
100
AcDbEntity
8
0
100
AcDbLine
10
-83.454600000000013
20
-267.58600000000001
30
0
11
-82.026000000000025
21
-267.58600000000001
31
0
0
LINE
5
641
100
AcDbEntity
8
0
100
AcDbLine
10
-117.74000000000001
20
-267.87099999999998
30
0
11
-117.883
21
-268.15699999999998
31
0
0
LINE
5
642
100
AcDbEntity
8
0
100
AcDbLine
10
-126.73999999999999
20
-270.44299999999998
30
0
11
-126.59700000000001
21
-269.72800000000001
31
0
0
LINE
5
643
100
AcDbEntity
8
0
100
AcDbLine
10
-114.88300000000001
20
-267.87099999999998
30
0
11
-114.74000000000001
21
-267.72800000000007
31
0
0
LINE
5
644
100
AcDbEntity
8
0
100
AcDbLine
10
-116.73999999999999
20
-268.87099999999998
30
0
11
-116.455
21
-269.01400000000001
31
0
0
LINE
5
645
100
AcDbEntity
8
0
100
AcDbLine
10
-91.454599999999999
20
-257.32599999999996
30
0
11
-91.454599999999999
21
-260.32599999999996
31
0
0
LINE
5
646
100
AcDbEntity
8
0
100
AcDbLine
10
-128.31200000000001
20
-263.62599999999998
30
0
11
-130.16899999999998
21
-263.62599999999998
31
0
0
LINE
5
647
100
AcDbEntity
8
0
100
AcDbLine
10
-135.02600000000001
20
-265.05400000000003
30
0
11
-134.88299999999998
21
-264.76799999999997
31
0
0
LINE
5
648
100
AcDbEntity
8
0
100
AcDbLine
10
-83.597400000000007
20
-272.11700000000002
30
0
11
-83.597400000000007
21
-272.40300000000002
31
0
0
LINE
5
649
100
AcDbEntity
8
0
100
AcDbLine
10
-89.454599999999999
20
-257.32599999999996
30
0
11
-90.454599999999999
21
-259.46800000000002
31
0
0
LINE
5
650
100
AcDbEntity
8
0
100
AcDbLine
10
-129.59700000000001
20
-266.62599999999998
30
0
11
-128.74000000000001
21
-266.62599999999998
31
0
0
LINE
5
651
100
AcDbEntity
8
0
100
AcDbLine
10
-113.31200000000003
20
-264.33999999999997
30
0
11
-113.31200000000003
21
-264.197
31
0
0
LINE
5
652
100
AcDbEntity
8
0
100
AcDbLine
10
-129.88299999999998
20
-266.483
30
0
11
-129.59700000000001
21
-266.62599999999998
31
0
0
LINE
5
653
100
AcDbEntity
8
0
100
AcDbLine
10
-117.31200000000001
20
-264.76799999999997
30
0
11
-116.73999999999999
21
-264.76799999999997
31
0
0
LINE
5
654
100
AcDbEntity
8
0
100
AcDbLine
10
-113.31200000000003
20
-266.05400000000003
30
0
11
-113.45500000000001
21
-266.34000000000003
31
0
0
LINE
5
655
100
AcDbEntity
8
0
100
AcDbLine
10
-128.45500000000001
20
-266.483
30
0
11
-128.31200000000001
21
-266.34000000000003
31
0
0
LINE
5
656
100
AcDbEntity
8
0
100
AcDbLine
10
-114.74000000000001
20
-266.483
30
0
11
-114.88300000000001
21
-266.34000000000003
31
0
0
LINE
5
657
100
AcDbEntity
8
0
100
AcDbLine
10
-130.16899999999998
20
-268.44299999999998
30
0
11
-130.02600000000001
21
-268.87099999999998
31
0
0
LINE
5
658
100
AcDbEntity
8
0
100
AcDbLine
10
-83.454600000000013
20
-271.83099999999996
30
0
11
-83.597400000000007
21
-272.11700000000002
31
0
0
LINE
5
659
100
AcDbEntity
8
0
100
AcDbLine
10
-116.455
20
-264.91100000000006
30
0
11
-116.31200000000001
21
-265.05400000000003
31
0
0
LINE
5
660
100
AcDbEntity
8
0
100
AcDbLine
10
-114.74000000000001
20
-265.05400000000003
30
0
11
-114.45500000000001
21
-264.91100000000006
31
0
0
LINE
5
661
100
AcDbEntity
8
0
100
AcDbLine
10
-130.02600000000001
20
-267.87099999999998
30
0
11
-130.16899999999998
21
-268.15699999999998
31
0
0
LINE
5
662
100
AcDbEntity
8
0
100
AcDbLine
10
-119.169
20
-264.33999999999997
30
0
11
-119.02600000000001
21
-264.91100000000006
31
0
0
LINE
5
663
100
AcDbEntity
8
0
100
AcDbLine
10
-114.88300000000001
20
-265.197
30
0
11
-114.74000000000001
21
-265.05400000000003
31
0
0
LINE
5
664
100
AcDbEntity
8
0
100
AcDbLine
10
-119.59700000000001
20
-266.62599999999998
30
0
11
-120.169
21
-266.62599999999998
31
0
0
LINE
5
665
100
AcDbEntity
8
0
100
AcDbLine
10
-143.59700000000001
20
-264.62599999999998
30
0
11
-144.02600000000001
21
-264.62599999999998
31
0
0
LINE
5
666
100
AcDbEntity
8
0
100
AcDbLine
10
-96.740300000000019
20
-268.58600000000001
30
0
11
-97.026000000000025
21
-268.72800000000001
31
0
0
LINE
5
667
100
AcDbEntity
8
0
100
AcDbLine
10
-144.45500000000004
20
-272.54599999999999
30
0
11
-144.74000000000001
21
-272.68799999999999
31
0
0
LINE
5
668
100
AcDbEntity
8
0
100
AcDbLine
10
-90.597399999999993
20
-274.54599999999999
30
0
11
-90.597399999999993
21
-272.54599999999999
31
0
0
LINE
5
669
100
AcDbEntity
8
0
100
AcDbLine
10
-142.02600000000001
20
-274.11700000000002
30
0
11
-142.02600000000001
21
-271.54600000000005
31
0
0
LINE
5
670
100
AcDbEntity
8
0
100
AcDbLine
10
-141.88299999999998
20
-264.76799999999997
30
0
11
-142.02600000000001
21
-265.05400000000003
31
0
0
LINE
5
671
100
AcDbEntity
8
0
100
AcDbLine
10
-140.74000000000001
20
-264.76799999999997
30
0
11
-141.02600000000001
21
-264.62599999999998
31
0
0
LINE
5
672
100
AcDbEntity
8
0
100
AcDbLine
10
-109.169
20
-274.25999999999999
30
0
11
-109.169
21
-274.54599999999999
31
0
0
LINE
5
673
100
AcDbEntity
8
0
100
AcDbLine
10
-115.02600000000001
20
-268.15699999999998
30
0
11
-114.88300000000001
21
-267.87099999999998
31
0
0
LINE
5
674
100
AcDbEntity
8
0
100
AcDbLine
10
-176.739
20
-166.63
30
0
11
-172.21200000000005
21
-166.63400000000001
31
0
0
LINE
5
675
100
AcDbEntity
8
0
100
AcDbLine
10
-176.65700000000001
20
-171.02599999999998
30
0
11
-171.64100000000002
21
-171.02599999999998
31
0
0
LINE
5
676
100
AcDbEntity
8
0
100
AcDbLine
10
-92.189499999999995
20
-206.62900000000005
30
0
11
-95.389499999999998
21
-206.62900000000005
31
0
0
ARC
5
677
100
AcDbEntity
8
0
100
AcDbCircle
10
-176.65700000000001
20
-170.02599999999998
30
0
40
1.0000000000000142
210
0
220
0
230
1
100
AcDbArc
50
180
51
270
0
ARC
5
678
100
AcDbEntity
8
0
100
AcDbCircle
10
-118.27600000000002
20
-163.00899999999999
30
0
40
4.4999999999999893
210
0
220
0
230
1
100
AcDbArc
50
-108.66299999999985
51
0
0
LINE
5
679
100
AcDbEntity
8
0
100
AcDbLine
10
-112.446
20
-234.95000000000002
30
0
11
-115.646
21
-234.95000000000002
31
0
0
LINE
5
680
100
AcDbEntity
8
0
100
AcDbLine
10
-83.597400000000007
20
-264.197
30
0
11
-83.597400000000007
21
-264.48300000000006
31
0
0
LINE
5
681
100
AcDbEntity
8
0
100
AcDbLine
10
-146.31200000000001
20
-274.54599999999999
30
0
11
-146.88299999999998
21
-274.54599999999999
31
0
0
LINE
5
682
100
AcDbEntity
8
0
100
AcDbLine
10
-126.73999999999999
20
-272.40300000000002
30
0
11
-126.883
21
-271.97400000000005
31
0
0
LINE
5
683
100
AcDbEntity
8
0
100
AcDbLine
10
-81.883099999999999
20
-271.83099999999996
30
0
11
-82.026000000000025
21
-271.68799999999999
31
0
0
LINE
5
684
100
AcDbEntity
8
0
100
AcDbLine
10
-119.59700000000001
20
-264.76799999999997
30
0
11
-119.31200000000003
21
-264.91100000000006
31
0
0
LINE
5
685
100
AcDbEntity
8
0
100
AcDbLine
10
-113.88300000000001
20
-269.44299999999998
30
0
11
-114.45500000000001
21
-269.44299999999998
31
0
0
LINE
5
686
100
AcDbEntity
8
0
100
AcDbLine
10
-80.597399999999993
20
-266.34000000000003
30
0
11
-80.740300000000005
21
-266.483
31
0
0
ARC
5
687
100
AcDbEntity
8
0
100
AcDbCircle
10
-134.27600000000001
20
-163.00899999999999
30
0
40
4.4999999999999929
210
0
220
0
230
1
100
AcDbArc
50
180
51
288.66300000000001
0
LINE
5
688
100
AcDbEntity
8
0
100
AcDbLine
10
-127.455
20
-267.76799999999997
30
0
11
-127.31200000000001
21
-267.62599999999998
31
0
0
LINE
5
689
100
AcDbEntity
8
0
100
AcDbLine
10
-116.16900000000001
20
-264.91100000000006
30
0
11
-116.16900000000001
21
-266.05400000000003
31
0
0
LINE
5
690
100
AcDbEntity
8
0
100
AcDbLine
10
-94.168900000000008
20
-260.18299999999999
30
0
11
-93.883100000000013
21
-260.32599999999996
31
0
0
LINE
5
691
100
AcDbEntity
8
0
100
AcDbLine
10
-134.16899999999998
20
-268.58600000000001
30
0
11
-133.88299999999998
21
-268.72800000000001
31
0
0
LINE
5
692
100
AcDbEntity
8
0
100
AcDbLine
10
-82.311700000000002
20
-270.58600000000001
30
0
11
-82.026000000000025
21
-270.44299999999998
31
0
0
LINE
5
693
100
AcDbEntity
8
0
100
AcDbLine
10
-113.88300000000001
20
-263.62599999999998
30
0
11
-114.45500000000001
21
-263.62599999999998
31
0
0
LINE
5
694
100
AcDbEntity
8
0
100
AcDbLine
10
-82.026000000000025
20
-271.68799999999999
30
0
11
-82.311700000000002
21
-271.54600000000005
31
0
0
LINE
5
695
100
AcDbEntity
8
0
100
AcDbLine
10
-114.74000000000001
20
-263.76799999999997
30
0
11
-114.88300000000001
21
-263.911
31
0
0
LINE
5
696
100
AcDbEntity
8
0
100
AcDbLine
10
-116.455
20
-269.01400000000001
30
0
11
-116.31200000000001
21
-269.15700000000004
31
0
0
LINE
5
697
100
AcDbEntity
8
0
100
AcDbLine
10
-128.31200000000001
20
-270.58600000000001
30
0
11
-130.16899999999998
21
-270.58600000000001
31
0
0
LINE
5
698
100
AcDbEntity
8
0
100
AcDbLine
10
-145.45500000000001
20
-271.72800000000001
30
0
11
-145.59700000000001
21
-271.58600000000001
31
0
0
LINE
5
699
100
AcDbEntity
8
0
100
AcDbLine
10
-148.88299999999998
20
-271.97400000000005
30
0
11
-148.74000000000001
21
-271.68799999999999
31
0
0
LINE
5
700
100
AcDbEntity
8
0
100
AcDbLine
10
-91.740300000000005
20
-268.72800000000001
30
0
11
-91.883099999999999
21
-269.01400000000001
31
0
0
LINE
5
701
100
AcDbEntity
8
0
100
AcDbLine
10
-146.45500000000001
20
-272.54599999999999
30
0
11
-146.88299999999998
21
-272.54599999999999
31
0
0
LINE
5
702
100
AcDbEntity
8
0
100
AcDbLine
10
-144.02600000000001
20
-270.58600000000001
30
0
11
-144.31200000000001
21
-270.44299999999998
31
0
0
LINE
5
703
100
AcDbEntity
8
0
100
AcDbLine
10
-139.31200000000001
20
-270.44299999999998
30
0
11
-139.16899999999998
21
-270.15699999999998
31
0
0
LINE
5
704
100
AcDbEntity
8
0
100
AcDbLine
10
-146.31200000000001
20
-269.72800000000001
30
0
11
-146.31200000000001
21
-269.15700000000004
31
0
0
LINE
5
705
100
AcDbEntity
8
0
100
AcDbLine
10
-140.74000000000001
20
-270.44299999999998
30
0
11
-140.59700000000001
21
-270.15699999999998
31
0
0
LINE
5
706
100
AcDbEntity
8
0
100
AcDbLine
10
-120.45500000000001
20
-264.91100000000006
30
0
11
-120.169
21
-264.76799999999997
31
0
0
LINE
5
707
100
AcDbEntity
8
0
100
AcDbLine
10
-126.59700000000001
20
-273.68799999999999
30
0
11
-126.59700000000001
21
-273.11700000000002
31
0
0
LINE
5
708
100
AcDbEntity
8
0
100
AcDbLine
10
-126.59700000000001
20
-273.11700000000002
30
0
11
-126.73999999999999
21
-272.40300000000002
31
0
0
LINE
5
709
100
AcDbEntity
8
0
100
AcDbLine
10
-113.59700000000002
20
-270.58600000000001
30
0
11
-114.169
21
-270.58600000000001
31
0
0
LINE
5
710
100
AcDbEntity
8
0
100
AcDbLine
10
-119.169
20
-265.05400000000003
30
0
11
-119.02600000000001
21
-265.33999999999997
31
0
0
LINE
5
711
100
AcDbEntity
8
0
100
AcDbLine
10
-129.31200000000001
20
-271.54600000000005
30
0
11
-129.02600000000001
21
-271.97400000000005
31
0
0
LINE
5
712
100
AcDbEntity
8
0
100
AcDbLine
10
-92.740300000000019
20
-264.62599999999998
30
0
11
-93.02600000000001
21
-264.76799999999997
31
0
0
LINE
5
713
100
AcDbEntity
8
0
100
AcDbLine
10
-129.02600000000001
20
-271.97400000000005
30
0
11
-128.74000000000001
21
-272.25999999999999
31
0
0
LINE
5
714
100
AcDbEntity
8
0
100
AcDbLine
10
-127.02600000000002
20
-275.11700000000008
30
0
11
-126.883
21
-274.83099999999996
31
0
0
LINE
5
715
100
AcDbEntity
8
0
100
AcDbLine
10
-117.883
20
-270.01400000000001
30
0
11
-117.883
21
-269.44299999999998
31
0
0
LINE
5
716
100
AcDbEntity
8
0
100
AcDbLine
10
-97.026000000000025
20
-268.72800000000001
30
0
11
-97.168899999999994
21
-269.01400000000001
31
0
0
LINE
5
717
100
AcDbEntity
8
0
100
AcDbLine
10
-146.02600000000001
20
-268.01400000000001
30
0
11
-145.88299999999998
21
-267.72800000000007
31
0
0
LINE
5
718
100
AcDbEntity
8
0
100
AcDbLine
10
-143.16899999999998
20
-269.15700000000004
30
0
11
-143.16899999999998
21
-269.01400000000001
31
0
0
LINE
5
719
100
AcDbEntity
8
0
100
AcDbLine
10
-119.02600000000001
20
-266.05400000000003
30
0
11
-119.169
21
-266.34000000000003
31
0
0
LINE
5
720
100
AcDbEntity
8
0
100
AcDbLine
10
-94.597399999999993
20
-268.87099999999998
30
0
11
-94.740300000000005
21
-268.72800000000001
31
0
0
LINE
5
721
100
AcDbEntity
8
0
100
AcDbLine
10
-91.02600000000001
20
-268.58600000000001
30
0
11
-91.454599999999999
21
-268.58600000000001
31
0
0
LINE
5
722
100
AcDbEntity
8
0
100
AcDbLine
10
-142.45500000000001
20
-274.54599999999999
30
0
11
-142.16899999999998
21
-274.40300000000002
31
0
0
LINE
5
723
100
AcDbEntity
8
0
100
AcDbLine
10
-146.16899999999998
20
-264.48300000000006
30
0
11
-146.02600000000001
21
-264.05400000000003
31
0
0
LINE
5
724
100
AcDbEntity
8
0
100
AcDbLine
10
-96.311700000000002
20
-268.58600000000001
30
0
11
-96.740300000000019
21
-268.58600000000001
31
0
0
LINE
5
725
100
AcDbEntity
8
0
100
AcDbLine
10
-109.169
20
-274.25999999999999
30
0
11
-109.31200000000003
21
-274.40300000000002
31
0
0
LINE
5
726
100
AcDbEntity
8
0
100
AcDbLine
10
-90.740300000000005
20
-264.76799999999997
30
0
11
-91.02600000000001
21
-264.62599999999998
31
0
0
LINE
5
727
100
AcDbEntity
8
0
100
AcDbLine
10
-141.02600000000001
20
-266.62599999999998
30
0
11
-140.74000000000001
21
-266.483
31
0
0
LINE
5
728
100
AcDbEntity
8
0
100
AcDbLine
10
-148.74000000000001
20
-275.11700000000008
30
0
11
-148.88299999999998
21
-274.83099999999996
31
0
0
LINE
5
729
100
AcDbEntity
8
0
100
AcDbLine
10
-91.883099999999999
20
-269.01400000000001
30
0
11
-91.883099999999999
21
-270.58600000000001
31
0
0
LINE
5
730
100
AcDbEntity
8
0
100
AcDbLine
10
-96.026000000000025
20
-268.72800000000001
30
0
11
-96.311700000000002
21
-268.58600000000001
31
0
0
LINE
5
731
100
AcDbEntity
8
0
100
AcDbLine
10
-146.45500000000001
20
-273.54599999999999
30
0
11
-146.16899999999998
21
-273.40300000000002
31
0
0
LINE
5
732
100
AcDbEntity
8
0
100
AcDbLine
10
-146.02600000000001
20
-266.911
30
0
11
-146.16899999999998
21
-266.483
31
0
0
LINE
5
733
100
AcDbEntity
8
0
100
AcDbLine
10
-148.88299999999998
20
-274.83099999999996
30
0
11
-149.02600000000001
21
-274.40300000000002
31
0
0
LINE
5
734
100
AcDbEntity
8
0
100
AcDbLine
10
-144.02600000000001
20
-266.62599999999998
30
0
11
-144.31200000000001
21
-266.483
31
0
0
LINE
5
735
100
AcDbEntity
8
0
100
AcDbLine
10
-92.740300000000019
20
-272.54599999999999
30
0
11
-93.02600000000001
21
-272.68799999999999
31
0
0
LINE
5
736
100
AcDbEntity
8
0
100
AcDbLine
10
-93.02600000000001
20
-272.68799999999999
30
0
11
-93.168899999999994
21
-272.97399999999999
31
0
0
LINE
5
737
100
AcDbEntity
8
0
100
AcDbLine
10
-92.026000000000025
20
-272.68799999999999
30
0
11
-92.311700000000002
21
-272.54599999999999
31
0
0
LINE
5
738
100
AcDbEntity
8
0
100
AcDbLine
10
-117.31200000000001
20
-268.87099999999998
30
0
11
-116.73999999999999
21
-268.87099999999998
31
0
0
LINE
5
739
100
AcDbEntity
8
0
100
AcDbLine
10
-117.31200000000001
20
-266.62599999999998
30
0
11
-117.59700000000002
21
-266.483
31
0
0
LINE
5
740
100
AcDbEntity
8
0
100
AcDbLine
10
-119.59700000000001
20
-263.76799999999997
30
0
11
-119.45500000000001
21
-263.911
31
0
0
LINE
5
741
100
AcDbEntity
8
0
100
AcDbLine
10
-116.16900000000001
20
-268.30000000000001
30
0
11
-116.16900000000001
21
-268.15699999999998
31
0
0
LINE
5
742
100
AcDbEntity
8
0
100
AcDbLine
10
-92.026000000000025
20
-264.76799999999997
30
0
11
-92.311700000000002
21
-264.62599999999998
31
0
0
LINE
5
743
100
AcDbEntity
8
0
100
AcDbLine
10
-139.59700000000001
20
-266.62599999999998
30
0
11
-139.31200000000001
21
-266.483
31
0
0
LINE
5
744
100
AcDbEntity
8
0
100
AcDbLine
10
-93.168899999999994
20
-272.97399999999999
30
0
11
-93.168899999999994
21
-274.54599999999999
31
0
0
LINE
5
745
100
AcDbEntity
8
0
100
AcDbLine
10
-96.740300000000019
20
-272.54599999999999
30
0
11
-97.026000000000025
21
-272.68799999999999
31
0
0
LINE
5
746
100
AcDbEntity
8
0
100
AcDbLine
10
-95.883099999999999
20
-269.01400000000001
30
0
11
-95.883099999999999
21
-270.58600000000001
31
0
0
LINE
5
747
100
AcDbEntity
8
0
100
AcDbLine
10
-129.59700000000001
20
-264.76799999999997
30
0
11
-129.88299999999998
21
-264.91100000000006
31
0
0
LINE
5
748
100
AcDbEntity
8
0
100
AcDbLine
10
-117.883
20
-265.33999999999997
30
0
11
-117.74000000000001
21
-265.05400000000003
31
0
0
LINE
5
749
100
AcDbEntity
8
0
100
AcDbLine
10
-114.74000000000001
20
-269.30000000000001
30
0
11
-114.88300000000001
21
-269.15700000000004
31
0
0
LINE
5
750
100
AcDbEntity
8
0
100
AcDbLine
10
-109.02600000000001
20
-274.40300000000002
30
0
11
-109.169
21
-274.25999999999999
31
0
0
LINE
5
751
100
AcDbEntity
8
0
100
AcDbLine
10
-109.31200000000003
20
-274.40300000000002
30
0
11
-109.169
21
-274.54599999999999
31
0
0
LINE
5
752
100
AcDbEntity
8
0
100
AcDbLine
10
-103.02600000000001
20
-267.44299999999998
30
0
11
-100.45500000000001
21
-271.30000000000001
31
0
0
LINE
5
753
100
AcDbEntity
8
0
100
AcDbLine
10
-143.88299999999998
20
-274.54599999999999
30
0
11
-143.59700000000001
21
-274.40300000000002
31
0
0
LINE
5
754
100
AcDbEntity
8
0
100
AcDbLine
10
-148.74000000000001
20
-271.68799999999999
30
0
11
-148.45500000000001
21
-271.25999999999999
31
0
0
LINE
5
755
100
AcDbEntity
8
0
100
AcDbLine
10
-91.740300000000005
20
-272.68799999999999
30
0
11
-91.883099999999999
21
-272.97399999999999
31
0
0
LINE
5
756
100
AcDbEntity
8
0
100
AcDbLine
10
-127.02600000000002
20
-267.197
30
0
11
-126.883
21
-266.911
31
0
0
LINE
5
757
100
AcDbEntity
8
0
100
AcDbLine
10
-117.883
20
-269.44299999999998
30
0
11
-117.74000000000001
21
-269.15700000000004
31
0
0
LINE
5
758
100
AcDbEntity
8
0
100
AcDbLine
10
-143.16899999999998
20
-265.05400000000003
30
0
11
-143.31200000000001
21
-264.76799999999997
31
0
0
LINE
5
759
100
AcDbEntity
8
0
100
AcDbLine
10
-143.31200000000001
20
-264.76799999999997
30
0
11
-143.59700000000001
21
-264.62599999999998
31
0
0
LINE
5
760
100
AcDbEntity
8
0
100
AcDbLine
10
-141.59700000000001
20
-264.62599999999998
30
0
11
-141.88299999999998
21
-264.76799999999997
31
0
0
LINE
5
761
100
AcDbEntity
8
0
100
AcDbLine
10
-141.02600000000001
20
-270.58600000000001
30
0
11
-140.74000000000001
21
-270.44299999999998
31
0
0
LINE
5
762
100
AcDbEntity
8
0
100
AcDbLine
10
-149.02600000000001
20
-274.40300000000002
30
0
11
-149.16899999999998
21
-273.68799999999999
31
0
0
LINE
5
763
100
AcDbEntity
8
0
100
AcDbLine
10
-91.883099999999999
20
-272.97399999999999
30
0
11
-91.883099999999999
21
-274.54599999999999
31
0
0
LINE
5
764
100
AcDbEntity
8
0
100
AcDbLine
10
-145.59700000000001
20
-267.62599999999998
30
0
11
-145.88299999999998
21
-267.197
31
0
0
LINE
5
765
100
AcDbEntity
8
0
100
AcDbLine
10
-95.454599999999999
20
-268.58600000000001
30
0
11
-95.740300000000005
21
-268.72800000000001
31
0
0
LINE
5
766
100
AcDbEntity
8
0
100
AcDbLine
10
-146.88299999999998
20
-272.54599999999999
30
0
11
-147.16899999999998
21
-272.68799999999999
31
0
0
LINE
5
767
100
AcDbEntity
8
0
100
AcDbLine
10
-141.88299999999998
20
-268.72800000000001
30
0
11
-142.02600000000001
21
-269.01400000000001
31
0
0
LINE
5
768
100
AcDbEntity
8
0
100
AcDbLine
10
-146.16899999999998
20
-268.44299999999998
30
0
11
-146.02600000000001
21
-268.01400000000001
31
0
0
LINE
5
769
100
AcDbEntity
8
0
100
AcDbLine
10
-94.597399999999993
20
-274.54599999999999
30
0
11
-94.597399999999993
21
-272.54599999999999
31
0
0
LINE
5
770
100
AcDbEntity
8
0
100
AcDbLine
10
-143.31200000000001
20
-269.44299999999998
30
0
11
-143.16899999999998
21
-269.15700000000004
31
0
0
LINE
5
771
100
AcDbEntity
8
0
100
AcDbLine
10
-147.31200000000001
20
-273.97399999999999
30
0
11
-147.16899999999998
21
-273.68799999999999
31
0
0
LINE
5
772
100
AcDbEntity
8
0
100
AcDbLine
10
-128.88299999999998
20
-267.58600000000001
30
0
11
-129.59700000000001
21
-267.58600000000001
31
0
0
LINE
5
773
100
AcDbEntity
8
0
100
AcDbLine
10
-117.31200000000001
20
-267.58600000000001
30
0
11
-117.59700000000002
21
-267.72800000000007
31
0
0
LINE
5
774
100
AcDbEntity
8
0
100
AcDbLine
10
-128.45500000000001
20
-267.87099999999998
30
0
11
-128.59700000000001
21
-267.72800000000007
31
0
0
LINE
5
775
100
AcDbEntity
8
0
100
AcDbLine
10
-113.45500000000001
20
-269.15700000000004
30
0
11
-113.59700000000002
21
-269.30000000000001
31
0
0
LINE
5
776
100
AcDbEntity
8
0
100
AcDbLine
10
-127.31200000000001
20
-271.25999999999999
30
0
11
-127.455
21
-271.11700000000002
31
0
0
LINE
5
777
100
AcDbEntity
8
0
100
AcDbLine
10
-93.883100000000013
20
-260.32599999999996
30
0
11
-93.168899999999994
21
-260.32599999999996
31
0
0
LINE
5
778
100
AcDbEntity
8
0
100
AcDbLine
10
-149.16899999999998
20
-273.11700000000002
30
0
11
-149.02600000000001
21
-272.40300000000002
31
0
0
LINE
5
779
100
AcDbEntity
8
0
100
AcDbLine
10
-144.31200000000001
20
-269.72800000000001
30
0
11
-144.02600000000001
21
-269.58600000000001
31
0
0
LINE
5
780
100
AcDbEntity
8
0
100
AcDbLine
10
-144.02600000000001
20
-268.58600000000001
30
0
11
-144.31200000000001
21
-268.72800000000001
31
0
0
LINE
5
781
100
AcDbEntity
8
0
100
AcDbLine
10
-146.88299999999998
20
-274.54599999999999
30
0
11
-147.16899999999998
21
-274.40300000000002
31
0
0
LINE
5
782
100
AcDbEntity
8
0
100
AcDbLine
10
-144.45500000000004
20
-274.54599999999999
30
0
11
-143.88299999999998
21
-274.54599999999999
31
0
0
LINE
5
783
100
AcDbEntity
8
0
100
AcDbLine
10
-144.45500000000004
20
-270.15699999999998
30
0
11
-144.45500000000004
21
-270.01400000000001
31
0
0
LINE
5
784
100
AcDbEntity
8
0
100
AcDbLine
10
-146.16899999999998
20
-266.483
30
0
11
-146.31200000000001
21
-265.76799999999997
31
0
0
LINE
5
785
100
AcDbEntity
8
0
100
AcDbLine
10
-119.02600000000001
20
-264.91100000000006
30
0
11
-119.02600000000001
21
-266.05400000000003
31
0
0
LINE
5
786
100
AcDbEntity
8
0
100
AcDbLine
10
-120.169
20
-266.62599999999998
30
0
11
-120.45500000000001
21
-266.483
31
0
0
LINE
5
787
100
AcDbEntity
8
0
100
AcDbLine
10
-117.59700000000002
20
-267.72800000000007
30
0
11
-117.74000000000001
21
-267.87099999999998
31
0
0
LINE
5
788
100
AcDbEntity
8
0
100
AcDbLine
10
-116.73999999999999
20
-267.58600000000001
30
0
11
-117.31200000000001
21
-267.58600000000001
31
0
0
LINE
5
789
100
AcDbEntity
8
0
100
AcDbLine
10
-109.02600000000001
20
-270.44299999999998
30
0
11
-109.169
21
-270.30000000000001
31
0
0
LINE
5
790
100
AcDbEntity
8
0
100
AcDbLine
10
-94.168900000000008
20
-260.32599999999996
30
0
11
-94.168900000000008
21
-258.75400000000002
31
0
0
LINE
5
791
100
AcDbEntity
8
0
100
AcDbLine
10
-113.88300000000001
20
-264.91100000000006
30
0
11
-113.59700000000002
21
-265.05400000000003
31
0
0
LINE
5
792
100
AcDbEntity
8
0
100
AcDbLine
10
-83.02600000000001
20
-271.54600000000005
30
0
11
-83.311700000000002
21
-271.68799999999999
31
0
0
LINE
5
793
100
AcDbEntity
8
0
100
AcDbLine
10
-116.73999999999999
20
-264.76799999999997
30
0
11
-116.455
21
-264.91100000000006
31
0
0
LINE
5
794
100
AcDbEntity
8
0
100
AcDbLine
10
-113.59700000000002
20
-264.76799999999997
30
0
11
-113.45500000000001
21
-264.62599999999998
31
0
0
LINE
5
795
100
AcDbEntity
8
0
100
AcDbLine
10
-90.454599999999999
20
-259.46800000000002
30
0
11
-91.454599999999999
21
-257.32599999999996
31
0
0
LINE
5
796
100
AcDbEntity
8
0
100
AcDbLine
10
-116.455
20
-266.483
30
0
11
-116.73999999999999
21
-266.62599999999998
31
0
0
LINE
5
797
100
AcDbEntity
8
0
100
AcDbLine
10
-113.45500000000001
20
-266.34000000000003
30
0
11
-113.59700000000002
21
-266.483
31
0
0
LINE
5
798
100
AcDbEntity
8
0
100
AcDbLine
10
-114.88300000000001
20
-266.34000000000003
30
0
11
-115.02600000000001
21
-266.05400000000003
31
0
0
LINE
5
799
100
AcDbEntity
8
0
100
AcDbLine
10
-130.16899999999998
20
-266.05400000000003
30
0
11
-130.02600000000001
21
-266.34000000000003
31
0
0
LINE
5
800
100
AcDbEntity
8
0
100
AcDbLine
10
-127.02600000000002
20
-263.76799999999997
30
0
11
-127.31200000000001
21
-263.33999999999997
31
0
0
LINE
5
801
100
AcDbEntity
8
0
100
AcDbLine
10
-82.311700000000002
20
-268.72800000000001
30
0
11
-83.02600000000001
21
-268.72800000000001
31
0
0
LINE
5
802
100
AcDbEntity
8
0
100
AcDbLine
10
-83.454600000000013
20
-272.83099999999996
30
0
11
-81.740300000000005
21
-274.54599999999999
31
0
0
CIRCLE
5
803
100
AcDbEntity
8
0
100
AcDbCircle
10
-126.27600000000001
20
-186.69400000000002
30
0
40
11.500000000000002
210
0
220
0
230
1
0
LINE
5
804
100
AcDbEntity
8
0
100
AcDbLine
10
-103.02600000000001
20
-271.40300000000002
30
0
11
-100.45500000000001
21
-275.25999999999999
31
0
0
LINE
5
805
100
AcDbEntity
8
0
100
AcDbLine
10
-140.74000000000001
20
-266.483
30
0
11
-140.59700000000001
21
-266.197
31
0
0
LINE
5
806
100
AcDbEntity
8
0
100
AcDbLine
10
-92.026000000000025
20
-268.72800000000001
30
0
11
-92.311700000000002
21
-268.58600000000001
31
0
0
LINE
5
807
100
AcDbEntity
8
0
100
AcDbLine
10
-117.883
20
-268.30000000000001
30
0
11
-117.74000000000001
21
-268.58600000000001
31
0
0
LINE
5
808
100
AcDbEntity
8
0
100
AcDbLine
10
-126.883
20
-270.87099999999998
30
0
11
-126.73999999999999
21
-270.44299999999998
31
0
0
LINE
5
809
100
AcDbEntity
8
0
100
AcDbLine
10
-119.31200000000003
20
-266.483
30
0
11
-119.59700000000001
21
-266.62599999999998
31
0
0
LINE
5
810
100
AcDbEntity
8
0
100
AcDbLine
10
-93.168899999999994
20
-259.18299999999999
30
0
11
-93.883100000000013
21
-259.18299999999999
31
0
0
LINE
5
811
100
AcDbEntity
8
0
100
AcDbLine
10
-114.45500000000001
20
-266.62599999999998
30
0
11
-114.74000000000001
21
-266.483
31
0
0
LINE
5
812
100
AcDbEntity
8
0
100
AcDbLine
10
-143.16899999999998
20
-270.44299999999998
30
0
11
-143.45500000000001
21
-270.58600000000001
31
0
0
LINE
5
813
100
AcDbEntity
8
0
100
AcDbLine
10
-145.88299999999998
20
-267.72800000000007
30
0
11
-145.59700000000001
21
-267.30000000000007
31
0
0
LINE
5
814
100
AcDbEntity
8
0
100
AcDbLine
10
-116.73999999999999
20
-268.87099999999998
30
0
11
-116.455
21
-268.72800000000001
31
0
0
LINE
5
815
100
AcDbEntity
8
0
100
AcDbLine
10
-135.02600000000001
20
-266.62599999999998
30
0
11
-135.02600000000001
21
-265.05400000000003
31
0
0
LINE
5
816
100
AcDbEntity
8
0
100
AcDbLine
10
-126.59700000000001
20
-265.197
30
0
11
-126.73999999999999
21
-264.48300000000006
31
0
0
LINE
5
817
100
AcDbEntity
8
0
100
AcDbLine
10
-143.59700000000001
20
-269.58600000000001
30
0
11
-143.31200000000001
21
-269.44299999999998
31
0
0
LINE
5
818
100
AcDbEntity
8
0
100
AcDbLine
10
-92.311700000000002
20
-268.58600000000001
30
0
11
-92.740300000000019
21
-268.58600000000001
31
0
0
LINE
5
819
100
AcDbEntity
8
0
100
AcDbLine
10
-144.31200000000001
20
-265.76799999999997
30
0
11
-144.02600000000001
21
-265.62599999999998
31
0
0
LINE
5
820
100
AcDbEntity
8
0
100
AcDbLine
10
-143.16899999999998
20
-269.01400000000001
30
0
11
-143.31200000000001
21
-268.72800000000001
31
0
0
LINE
5
821
100
AcDbEntity
8
0
100
AcDbLine
10
-140.59700000000001
20
-265.05400000000003
30
0
11
-140.74000000000001
21
-264.76799999999997
31
0
0
ENDSEC
0
SECTION
2
OBJECTS
0
DICTIONARY
5
C
100
AcDbDictionary
3
ACAD_GROUP
350
D
3
ACAD_MLINESTYLE
350
17
0
DICTIONARY
5
D
100
AcDbDictionary
0
DICTIONARY
5
1A
330
C
100
AcDbDictionary
0
DICTIONARY
5
17
100
AcDbDictionary
0
ENDSEC
0
EOF
