%FSLAX45Y45*%
G04 Gerber Fmt 4.5, Leading zero omitted, Abs format (unit mm)*
G04 Created by KiCad (PCBNEW (5.1.10)-1) date 2021-10-19 18:18:58*
%MOMM*%
%LPD*%
G01*
G04 APERTURE LIST*
%TA.AperFunction,Profile*%
%ADD10C,0.050000*%
%TD*%
%ADD11C,0.200000*%
%ADD12C,0.300000*%
G04 APERTURE END LIST*
D10*
X16310000Y-22820000D02*
X15880000Y-22145000D01*
X17960000Y-21455000D02*
X17960000Y-22720000D01*
X18210000Y-19930000D02*
X18210000Y-20905000D01*
X17960000Y-21455000D02*
G75*
G02*
X18210000Y-21455000I125000J0D01*
G01*
X17960000Y-20910000D02*
X17960000Y-20905000D01*
X18210000Y-20905000D02*
G75*
G02*
X17960000Y-20905000I-125000J0D01*
G01*
X21110000Y-18870000D02*
X21110000Y-18865000D01*
X21110000Y-15960000D02*
X21110000Y-18870000D01*
X21360000Y-19415000D02*
X21360000Y-20670000D01*
X21360000Y-17950000D02*
X21360100Y-18865000D01*
X21110000Y-19415000D02*
G75*
G02*
X21360000Y-19415000I125000J0D01*
G01*
X21360100Y-18865000D02*
G75*
G02*
X21110000Y-18870000I-125100J0D01*
G01*
X17960000Y-22720000D02*
G75*
G02*
X17860000Y-22820000I-100000J0D01*
G01*
X15880000Y-22145000D02*
X15880000Y-20180000D01*
X15880000Y-20180000D02*
X16280000Y-19780000D01*
X21360000Y-17950000D02*
G75*
G02*
X21460000Y-17850000I100000J0D01*
G01*
X24310000Y-20670000D02*
G75*
G02*
X24210000Y-20770000I-100000J0D01*
G01*
X24210000Y-20770000D02*
X21460000Y-20770000D01*
X24310000Y-17470000D02*
X24310000Y-20670000D01*
X23230000Y-17370000D02*
X24210000Y-17370000D01*
X23130000Y-17750000D02*
X23130000Y-17470000D01*
X24210000Y-17370000D02*
G75*
G02*
X24310000Y-17470000I0J-100000D01*
G01*
X21460000Y-17850000D02*
X23030000Y-17850000D01*
X23130000Y-17750000D02*
G75*
G02*
X23030000Y-17850000I-100000J0D01*
G01*
X21460000Y-20770000D02*
G75*
G02*
X21360000Y-20670000I0J100000D01*
G01*
X23130000Y-17470000D02*
G75*
G02*
X23230000Y-17370000I100000J0D01*
G01*
X22050000Y-21940000D02*
X21110000Y-21000000D01*
X19610000Y-15040000D02*
G75*
G02*
X19710000Y-14940000I100000J0D01*
G01*
X21710000Y-15760000D02*
G75*
G02*
X21610000Y-15860000I-100000J0D01*
G01*
X21610000Y-14940000D02*
G75*
G02*
X21710000Y-15040000I0J-100000D01*
G01*
X21110000Y-21000000D02*
X21110000Y-20780000D01*
X21110000Y-19415000D02*
X21110000Y-20780000D01*
X21610000Y-15860000D02*
X21210000Y-15860000D01*
X21710000Y-15040000D02*
X21710000Y-15760000D01*
X22050000Y-22720000D02*
G75*
G02*
X21950000Y-22820000I-100000J0D01*
G01*
X22050000Y-22720000D02*
X22050000Y-21940000D01*
X19710000Y-14940000D02*
X19710000Y-14940000D01*
X20010000Y-14940000D02*
X19710000Y-14940000D01*
X21150000Y-22820000D02*
X21950000Y-22820000D01*
X21610000Y-14940000D02*
X20010000Y-14940000D01*
X18210000Y-19930000D02*
G75*
G02*
X18310000Y-19830000I100000J0D01*
G01*
X19610000Y-19730000D02*
G75*
G02*
X19510000Y-19830000I-100000J0D01*
G01*
X18310000Y-19830000D02*
X19510000Y-19830000D01*
X19610000Y-19730000D02*
X19610000Y-15040000D01*
X18670000Y-22820000D02*
X18210000Y-22360000D01*
X18210000Y-22360000D02*
X18210000Y-21455000D01*
X21150000Y-22820000D02*
X18670000Y-22820000D01*
X21110000Y-15960000D02*
G75*
G02*
X21210000Y-15860000I100000J0D01*
G01*
X18860000Y-14370000D02*
G75*
G02*
X18960000Y-14470000I0J-100000D01*
G01*
X16380000Y-14850000D02*
X17680000Y-14850000D01*
X18960000Y-14470000D02*
X18960000Y-17530000D01*
X17780000Y-14750000D02*
X17780000Y-14470000D01*
X16280000Y-17670000D02*
X16280000Y-14950000D01*
X16280000Y-14950000D02*
G75*
G02*
X16380000Y-14850000I100000J0D01*
G01*
X17780000Y-14470000D02*
G75*
G02*
X17880000Y-14370000I100000J0D01*
G01*
X17780000Y-14750000D02*
G75*
G02*
X17680000Y-14850000I-100000J0D01*
G01*
X17860000Y-22820000D02*
X16310000Y-22820000D01*
X17880000Y-14370000D02*
X18860000Y-14370000D01*
X17960000Y-18530000D02*
X18960000Y-17530000D01*
X16280000Y-19780000D02*
X16280000Y-17670000D01*
X17960000Y-20910000D02*
X17960000Y-18530000D01*
D11*
X21875000Y-20105000D02*
X21965000Y-20195000D01*
X21965000Y-20105000D02*
X21875000Y-20195000D01*
X22315000Y-20105000D02*
X22405000Y-20195000D01*
X22405000Y-20105000D02*
X22315000Y-20195000D01*
X16690000Y-22205000D02*
G75*
G03*
X16690000Y-22205000I-50000J0D01*
G01*
X17290000Y-22205000D02*
G75*
G03*
X17290000Y-22205000I-50000J0D01*
G01*
X18896800Y-21500600D02*
G75*
G03*
X18896800Y-21500600I-50000J0D01*
G01*
X18896800Y-22100600D02*
G75*
G03*
X18896800Y-22100600I-50000J0D01*
G01*
D12*
X16163928Y-23288214D02*
X16163928Y-22988214D01*
X16235357Y-22988214D01*
X16278214Y-23002500D01*
X16306786Y-23031071D01*
X16321071Y-23059643D01*
X16335357Y-23116786D01*
X16335357Y-23159643D01*
X16321071Y-23216786D01*
X16306786Y-23245357D01*
X16278214Y-23273929D01*
X16235357Y-23288214D01*
X16163928Y-23288214D01*
X16463928Y-23288214D02*
X16463928Y-23088214D01*
X16463928Y-23145357D02*
X16478214Y-23116786D01*
X16492500Y-23102500D01*
X16521071Y-23088214D01*
X16549643Y-23088214D01*
X16649643Y-23288214D02*
X16649643Y-23088214D01*
X16649643Y-22988214D02*
X16635357Y-23002500D01*
X16649643Y-23016786D01*
X16663928Y-23002500D01*
X16649643Y-22988214D01*
X16649643Y-23016786D01*
X16835357Y-23288214D02*
X16806786Y-23273929D01*
X16792500Y-23245357D01*
X16792500Y-22988214D01*
X16992500Y-23288214D02*
X16963928Y-23273929D01*
X16949643Y-23245357D01*
X16949643Y-22988214D01*
X17335357Y-23288214D02*
X17335357Y-22988214D01*
X17435357Y-23202500D01*
X17535357Y-22988214D01*
X17535357Y-23288214D01*
X17806786Y-23288214D02*
X17806786Y-23131071D01*
X17792500Y-23102500D01*
X17763928Y-23088214D01*
X17706786Y-23088214D01*
X17678214Y-23102500D01*
X17806786Y-23273929D02*
X17778214Y-23288214D01*
X17706786Y-23288214D01*
X17678214Y-23273929D01*
X17663928Y-23245357D01*
X17663928Y-23216786D01*
X17678214Y-23188214D01*
X17706786Y-23173929D01*
X17778214Y-23173929D01*
X17806786Y-23159643D01*
X17949643Y-23088214D02*
X17949643Y-23388214D01*
X17949643Y-23102500D02*
X17978214Y-23088214D01*
X18035357Y-23088214D01*
X18063928Y-23102500D01*
X18078214Y-23116786D01*
X18092500Y-23145357D01*
X18092500Y-23231071D01*
X18078214Y-23259643D01*
X18063928Y-23273929D01*
X18035357Y-23288214D01*
X17978214Y-23288214D01*
X17949643Y-23273929D01*
X18221071Y-23259643D02*
X18235357Y-23273929D01*
X18221071Y-23288214D01*
X18206786Y-23273929D01*
X18221071Y-23259643D01*
X18221071Y-23288214D01*
X18221071Y-23102500D02*
X18235357Y-23116786D01*
X18221071Y-23131071D01*
X18206786Y-23116786D01*
X18221071Y-23102500D01*
X18221071Y-23131071D01*
X15787500Y-23737500D02*
X15877500Y-23827500D01*
X15877500Y-23737500D02*
X15787500Y-23827500D01*
X16221071Y-23618214D02*
X16249643Y-23618214D01*
X16278214Y-23632500D01*
X16292500Y-23646786D01*
X16306786Y-23675357D01*
X16321071Y-23732500D01*
X16321071Y-23803929D01*
X16306786Y-23861071D01*
X16292500Y-23889643D01*
X16278214Y-23903929D01*
X16249643Y-23918214D01*
X16221071Y-23918214D01*
X16192500Y-23903929D01*
X16178214Y-23889643D01*
X16163928Y-23861071D01*
X16149643Y-23803929D01*
X16149643Y-23732500D01*
X16163928Y-23675357D01*
X16178214Y-23646786D01*
X16192500Y-23632500D01*
X16221071Y-23618214D01*
X16449643Y-23889643D02*
X16463928Y-23903929D01*
X16449643Y-23918214D01*
X16435357Y-23903929D01*
X16449643Y-23889643D01*
X16449643Y-23918214D01*
X16606786Y-23918214D02*
X16663928Y-23918214D01*
X16692500Y-23903929D01*
X16706786Y-23889643D01*
X16735357Y-23846786D01*
X16749643Y-23789643D01*
X16749643Y-23675357D01*
X16735357Y-23646786D01*
X16721071Y-23632500D01*
X16692500Y-23618214D01*
X16635357Y-23618214D01*
X16606786Y-23632500D01*
X16592500Y-23646786D01*
X16578214Y-23675357D01*
X16578214Y-23746786D01*
X16592500Y-23775357D01*
X16606786Y-23789643D01*
X16635357Y-23803929D01*
X16692500Y-23803929D01*
X16721071Y-23789643D01*
X16735357Y-23775357D01*
X16749643Y-23746786D01*
X16935357Y-23618214D02*
X16963928Y-23618214D01*
X16992500Y-23632500D01*
X17006786Y-23646786D01*
X17021071Y-23675357D01*
X17035357Y-23732500D01*
X17035357Y-23803929D01*
X17021071Y-23861071D01*
X17006786Y-23889643D01*
X16992500Y-23903929D01*
X16963928Y-23918214D01*
X16935357Y-23918214D01*
X16906786Y-23903929D01*
X16892500Y-23889643D01*
X16878214Y-23861071D01*
X16863928Y-23803929D01*
X16863928Y-23732500D01*
X16878214Y-23675357D01*
X16892500Y-23646786D01*
X16906786Y-23632500D01*
X16935357Y-23618214D01*
X17221071Y-23618214D02*
X17249643Y-23618214D01*
X17278214Y-23632500D01*
X17292500Y-23646786D01*
X17306786Y-23675357D01*
X17321071Y-23732500D01*
X17321071Y-23803929D01*
X17306786Y-23861071D01*
X17292500Y-23889643D01*
X17278214Y-23903929D01*
X17249643Y-23918214D01*
X17221071Y-23918214D01*
X17192500Y-23903929D01*
X17178214Y-23889643D01*
X17163928Y-23861071D01*
X17149643Y-23803929D01*
X17149643Y-23732500D01*
X17163928Y-23675357D01*
X17178214Y-23646786D01*
X17192500Y-23632500D01*
X17221071Y-23618214D01*
X17449643Y-23918214D02*
X17449643Y-23718214D01*
X17449643Y-23746786D02*
X17463928Y-23732500D01*
X17492500Y-23718214D01*
X17535357Y-23718214D01*
X17563928Y-23732500D01*
X17578214Y-23761071D01*
X17578214Y-23918214D01*
X17578214Y-23761071D02*
X17592500Y-23732500D01*
X17621071Y-23718214D01*
X17663928Y-23718214D01*
X17692500Y-23732500D01*
X17706786Y-23761071D01*
X17706786Y-23918214D01*
X17849643Y-23918214D02*
X17849643Y-23718214D01*
X17849643Y-23746786D02*
X17863928Y-23732500D01*
X17892500Y-23718214D01*
X17935357Y-23718214D01*
X17963928Y-23732500D01*
X17978214Y-23761071D01*
X17978214Y-23918214D01*
X17978214Y-23761071D02*
X17992500Y-23732500D01*
X18021071Y-23718214D01*
X18063928Y-23718214D01*
X18092500Y-23732500D01*
X18106786Y-23761071D01*
X18106786Y-23918214D01*
X18692500Y-23603929D02*
X18435357Y-23989643D01*
X19078214Y-23618214D02*
X19106786Y-23618214D01*
X19135357Y-23632500D01*
X19149643Y-23646786D01*
X19163928Y-23675357D01*
X19178214Y-23732500D01*
X19178214Y-23803929D01*
X19163928Y-23861071D01*
X19149643Y-23889643D01*
X19135357Y-23903929D01*
X19106786Y-23918214D01*
X19078214Y-23918214D01*
X19049643Y-23903929D01*
X19035357Y-23889643D01*
X19021071Y-23861071D01*
X19006786Y-23803929D01*
X19006786Y-23732500D01*
X19021071Y-23675357D01*
X19035357Y-23646786D01*
X19049643Y-23632500D01*
X19078214Y-23618214D01*
X19306786Y-23889643D02*
X19321071Y-23903929D01*
X19306786Y-23918214D01*
X19292500Y-23903929D01*
X19306786Y-23889643D01*
X19306786Y-23918214D01*
X19506786Y-23618214D02*
X19535357Y-23618214D01*
X19563928Y-23632500D01*
X19578214Y-23646786D01*
X19592500Y-23675357D01*
X19606786Y-23732500D01*
X19606786Y-23803929D01*
X19592500Y-23861071D01*
X19578214Y-23889643D01*
X19563928Y-23903929D01*
X19535357Y-23918214D01*
X19506786Y-23918214D01*
X19478214Y-23903929D01*
X19463928Y-23889643D01*
X19449643Y-23861071D01*
X19435357Y-23803929D01*
X19435357Y-23732500D01*
X19449643Y-23675357D01*
X19463928Y-23646786D01*
X19478214Y-23632500D01*
X19506786Y-23618214D01*
X19706786Y-23618214D02*
X19892500Y-23618214D01*
X19792500Y-23732500D01*
X19835357Y-23732500D01*
X19863928Y-23746786D01*
X19878214Y-23761071D01*
X19892500Y-23789643D01*
X19892500Y-23861071D01*
X19878214Y-23889643D01*
X19863928Y-23903929D01*
X19835357Y-23918214D01*
X19749643Y-23918214D01*
X19721071Y-23903929D01*
X19706786Y-23889643D01*
X20163928Y-23618214D02*
X20021071Y-23618214D01*
X20006786Y-23761071D01*
X20021071Y-23746786D01*
X20049643Y-23732500D01*
X20121071Y-23732500D01*
X20149643Y-23746786D01*
X20163928Y-23761071D01*
X20178214Y-23789643D01*
X20178214Y-23861071D01*
X20163928Y-23889643D01*
X20149643Y-23903929D01*
X20121071Y-23918214D01*
X20049643Y-23918214D01*
X20021071Y-23903929D01*
X20006786Y-23889643D01*
X20435357Y-23718214D02*
X20435357Y-23918214D01*
X20363928Y-23603929D02*
X20292500Y-23818214D01*
X20478214Y-23818214D01*
X20578214Y-23618214D02*
X20578214Y-23675357D01*
X20692500Y-23618214D02*
X20692500Y-23675357D01*
X21135357Y-24032500D02*
X21121071Y-24018214D01*
X21092500Y-23975357D01*
X21078214Y-23946786D01*
X21063928Y-23903929D01*
X21049643Y-23832500D01*
X21049643Y-23775357D01*
X21063928Y-23703929D01*
X21078214Y-23661071D01*
X21092500Y-23632500D01*
X21121071Y-23589643D01*
X21135357Y-23575357D01*
X21235357Y-23646786D02*
X21249643Y-23632500D01*
X21278214Y-23618214D01*
X21349643Y-23618214D01*
X21378214Y-23632500D01*
X21392500Y-23646786D01*
X21406786Y-23675357D01*
X21406786Y-23703929D01*
X21392500Y-23746786D01*
X21221071Y-23918214D01*
X21406786Y-23918214D01*
X21763928Y-23918214D02*
X21763928Y-23618214D01*
X21892500Y-23918214D02*
X21892500Y-23761071D01*
X21878214Y-23732500D01*
X21849643Y-23718214D01*
X21806786Y-23718214D01*
X21778214Y-23732500D01*
X21763928Y-23746786D01*
X22078214Y-23918214D02*
X22049643Y-23903929D01*
X22035357Y-23889643D01*
X22021071Y-23861071D01*
X22021071Y-23775357D01*
X22035357Y-23746786D01*
X22049643Y-23732500D01*
X22078214Y-23718214D01*
X22121071Y-23718214D01*
X22149643Y-23732500D01*
X22163928Y-23746786D01*
X22178214Y-23775357D01*
X22178214Y-23861071D01*
X22163928Y-23889643D01*
X22149643Y-23903929D01*
X22121071Y-23918214D01*
X22078214Y-23918214D01*
X22349643Y-23918214D02*
X22321071Y-23903929D01*
X22306786Y-23875357D01*
X22306786Y-23618214D01*
X22578214Y-23903929D02*
X22549643Y-23918214D01*
X22492500Y-23918214D01*
X22463928Y-23903929D01*
X22449643Y-23875357D01*
X22449643Y-23761071D01*
X22463928Y-23732500D01*
X22492500Y-23718214D01*
X22549643Y-23718214D01*
X22578214Y-23732500D01*
X22592500Y-23761071D01*
X22592500Y-23789643D01*
X22449643Y-23818214D01*
X22706786Y-23903929D02*
X22735357Y-23918214D01*
X22792500Y-23918214D01*
X22821071Y-23903929D01*
X22835357Y-23875357D01*
X22835357Y-23861071D01*
X22821071Y-23832500D01*
X22792500Y-23818214D01*
X22749643Y-23818214D01*
X22721071Y-23803929D01*
X22706786Y-23775357D01*
X22706786Y-23761071D01*
X22721071Y-23732500D01*
X22749643Y-23718214D01*
X22792500Y-23718214D01*
X22821071Y-23732500D01*
X22935357Y-24032500D02*
X22949643Y-24018214D01*
X22978214Y-23975357D01*
X22992500Y-23946786D01*
X23006786Y-23903929D01*
X23021071Y-23832500D01*
X23021071Y-23775357D01*
X23006786Y-23703929D01*
X22992500Y-23661071D01*
X22978214Y-23632500D01*
X22949643Y-23589643D01*
X22935357Y-23575357D01*
X23478214Y-24032500D02*
X23463928Y-24018214D01*
X23435357Y-23975357D01*
X23421071Y-23946786D01*
X23406786Y-23903929D01*
X23392500Y-23832500D01*
X23392500Y-23775357D01*
X23406786Y-23703929D01*
X23421071Y-23661071D01*
X23435357Y-23632500D01*
X23463928Y-23589643D01*
X23478214Y-23575357D01*
X23592500Y-23718214D02*
X23592500Y-23918214D01*
X23592500Y-23746786D02*
X23606786Y-23732500D01*
X23635357Y-23718214D01*
X23678214Y-23718214D01*
X23706786Y-23732500D01*
X23721071Y-23761071D01*
X23721071Y-23918214D01*
X23906786Y-23918214D02*
X23878214Y-23903929D01*
X23863928Y-23889643D01*
X23849643Y-23861071D01*
X23849643Y-23775357D01*
X23863928Y-23746786D01*
X23878214Y-23732500D01*
X23906786Y-23718214D01*
X23949643Y-23718214D01*
X23978214Y-23732500D01*
X23992500Y-23746786D01*
X24006786Y-23775357D01*
X24006786Y-23861071D01*
X23992500Y-23889643D01*
X23978214Y-23903929D01*
X23949643Y-23918214D01*
X23906786Y-23918214D01*
X24092500Y-23718214D02*
X24206786Y-23718214D01*
X24135357Y-23618214D02*
X24135357Y-23875357D01*
X24149643Y-23903929D01*
X24178214Y-23918214D01*
X24206786Y-23918214D01*
X24535357Y-23718214D02*
X24535357Y-24018214D01*
X24535357Y-23732500D02*
X24563928Y-23718214D01*
X24621071Y-23718214D01*
X24649643Y-23732500D01*
X24663928Y-23746786D01*
X24678214Y-23775357D01*
X24678214Y-23861071D01*
X24663928Y-23889643D01*
X24649643Y-23903929D01*
X24621071Y-23918214D01*
X24563928Y-23918214D01*
X24535357Y-23903929D01*
X24849643Y-23918214D02*
X24821071Y-23903929D01*
X24806786Y-23875357D01*
X24806786Y-23618214D01*
X25092500Y-23918214D02*
X25092500Y-23761071D01*
X25078214Y-23732500D01*
X25049643Y-23718214D01*
X24992500Y-23718214D01*
X24963928Y-23732500D01*
X25092500Y-23903929D02*
X25063928Y-23918214D01*
X24992500Y-23918214D01*
X24963928Y-23903929D01*
X24949643Y-23875357D01*
X24949643Y-23846786D01*
X24963928Y-23818214D01*
X24992500Y-23803929D01*
X25063928Y-23803929D01*
X25092500Y-23789643D01*
X25192500Y-23718214D02*
X25306786Y-23718214D01*
X25235357Y-23618214D02*
X25235357Y-23875357D01*
X25249643Y-23903929D01*
X25278214Y-23918214D01*
X25306786Y-23918214D01*
X25521071Y-23903929D02*
X25492500Y-23918214D01*
X25435357Y-23918214D01*
X25406786Y-23903929D01*
X25392500Y-23875357D01*
X25392500Y-23761071D01*
X25406786Y-23732500D01*
X25435357Y-23718214D01*
X25492500Y-23718214D01*
X25521071Y-23732500D01*
X25535357Y-23761071D01*
X25535357Y-23789643D01*
X25392500Y-23818214D01*
X25792500Y-23918214D02*
X25792500Y-23618214D01*
X25792500Y-23903929D02*
X25763928Y-23918214D01*
X25706786Y-23918214D01*
X25678214Y-23903929D01*
X25663928Y-23889643D01*
X25649643Y-23861071D01*
X25649643Y-23775357D01*
X25663928Y-23746786D01*
X25678214Y-23732500D01*
X25706786Y-23718214D01*
X25763928Y-23718214D01*
X25792500Y-23732500D01*
X25906786Y-24032500D02*
X25921071Y-24018214D01*
X25949643Y-23975357D01*
X25963928Y-23946786D01*
X25978214Y-23903929D01*
X25992500Y-23832500D01*
X25992500Y-23775357D01*
X25978214Y-23703929D01*
X25963928Y-23661071D01*
X25949643Y-23632500D01*
X25921071Y-23589643D01*
X25906786Y-23575357D01*
X15877500Y-24178500D02*
G75*
G03*
X15877500Y-24178500I-50000J0D01*
G01*
X16321071Y-24314214D02*
X16149643Y-24314214D01*
X16235357Y-24314214D02*
X16235357Y-24014214D01*
X16206786Y-24057071D01*
X16178214Y-24085643D01*
X16149643Y-24099929D01*
X16449643Y-24285643D02*
X16463928Y-24299929D01*
X16449643Y-24314214D01*
X16435357Y-24299929D01*
X16449643Y-24285643D01*
X16449643Y-24314214D01*
X16649643Y-24014214D02*
X16678214Y-24014214D01*
X16706786Y-24028500D01*
X16721071Y-24042786D01*
X16735357Y-24071357D01*
X16749643Y-24128500D01*
X16749643Y-24199929D01*
X16735357Y-24257071D01*
X16721071Y-24285643D01*
X16706786Y-24299929D01*
X16678214Y-24314214D01*
X16649643Y-24314214D01*
X16621071Y-24299929D01*
X16606786Y-24285643D01*
X16592500Y-24257071D01*
X16578214Y-24199929D01*
X16578214Y-24128500D01*
X16592500Y-24071357D01*
X16606786Y-24042786D01*
X16621071Y-24028500D01*
X16649643Y-24014214D01*
X16935357Y-24014214D02*
X16963928Y-24014214D01*
X16992500Y-24028500D01*
X17006786Y-24042786D01*
X17021071Y-24071357D01*
X17035357Y-24128500D01*
X17035357Y-24199929D01*
X17021071Y-24257071D01*
X17006786Y-24285643D01*
X16992500Y-24299929D01*
X16963928Y-24314214D01*
X16935357Y-24314214D01*
X16906786Y-24299929D01*
X16892500Y-24285643D01*
X16878214Y-24257071D01*
X16863928Y-24199929D01*
X16863928Y-24128500D01*
X16878214Y-24071357D01*
X16892500Y-24042786D01*
X16906786Y-24028500D01*
X16935357Y-24014214D01*
X17221071Y-24014214D02*
X17249643Y-24014214D01*
X17278214Y-24028500D01*
X17292500Y-24042786D01*
X17306786Y-24071357D01*
X17321071Y-24128500D01*
X17321071Y-24199929D01*
X17306786Y-24257071D01*
X17292500Y-24285643D01*
X17278214Y-24299929D01*
X17249643Y-24314214D01*
X17221071Y-24314214D01*
X17192500Y-24299929D01*
X17178214Y-24285643D01*
X17163928Y-24257071D01*
X17149643Y-24199929D01*
X17149643Y-24128500D01*
X17163928Y-24071357D01*
X17178214Y-24042786D01*
X17192500Y-24028500D01*
X17221071Y-24014214D01*
X17449643Y-24314214D02*
X17449643Y-24114214D01*
X17449643Y-24142786D02*
X17463928Y-24128500D01*
X17492500Y-24114214D01*
X17535357Y-24114214D01*
X17563928Y-24128500D01*
X17578214Y-24157071D01*
X17578214Y-24314214D01*
X17578214Y-24157071D02*
X17592500Y-24128500D01*
X17621071Y-24114214D01*
X17663928Y-24114214D01*
X17692500Y-24128500D01*
X17706786Y-24157071D01*
X17706786Y-24314214D01*
X17849643Y-24314214D02*
X17849643Y-24114214D01*
X17849643Y-24142786D02*
X17863928Y-24128500D01*
X17892500Y-24114214D01*
X17935357Y-24114214D01*
X17963928Y-24128500D01*
X17978214Y-24157071D01*
X17978214Y-24314214D01*
X17978214Y-24157071D02*
X17992500Y-24128500D01*
X18021071Y-24114214D01*
X18063928Y-24114214D01*
X18092500Y-24128500D01*
X18106786Y-24157071D01*
X18106786Y-24314214D01*
X18692500Y-23999929D02*
X18435357Y-24385643D01*
X19078214Y-24014214D02*
X19106786Y-24014214D01*
X19135357Y-24028500D01*
X19149643Y-24042786D01*
X19163928Y-24071357D01*
X19178214Y-24128500D01*
X19178214Y-24199929D01*
X19163928Y-24257071D01*
X19149643Y-24285643D01*
X19135357Y-24299929D01*
X19106786Y-24314214D01*
X19078214Y-24314214D01*
X19049643Y-24299929D01*
X19035357Y-24285643D01*
X19021071Y-24257071D01*
X19006786Y-24199929D01*
X19006786Y-24128500D01*
X19021071Y-24071357D01*
X19035357Y-24042786D01*
X19049643Y-24028500D01*
X19078214Y-24014214D01*
X19306786Y-24285643D02*
X19321071Y-24299929D01*
X19306786Y-24314214D01*
X19292500Y-24299929D01*
X19306786Y-24285643D01*
X19306786Y-24314214D01*
X19506786Y-24014214D02*
X19535357Y-24014214D01*
X19563928Y-24028500D01*
X19578214Y-24042786D01*
X19592500Y-24071357D01*
X19606786Y-24128500D01*
X19606786Y-24199929D01*
X19592500Y-24257071D01*
X19578214Y-24285643D01*
X19563928Y-24299929D01*
X19535357Y-24314214D01*
X19506786Y-24314214D01*
X19478214Y-24299929D01*
X19463928Y-24285643D01*
X19449643Y-24257071D01*
X19435357Y-24199929D01*
X19435357Y-24128500D01*
X19449643Y-24071357D01*
X19463928Y-24042786D01*
X19478214Y-24028500D01*
X19506786Y-24014214D01*
X19706786Y-24014214D02*
X19892500Y-24014214D01*
X19792500Y-24128500D01*
X19835357Y-24128500D01*
X19863928Y-24142786D01*
X19878214Y-24157071D01*
X19892500Y-24185643D01*
X19892500Y-24257071D01*
X19878214Y-24285643D01*
X19863928Y-24299929D01*
X19835357Y-24314214D01*
X19749643Y-24314214D01*
X19721071Y-24299929D01*
X19706786Y-24285643D01*
X20035357Y-24314214D02*
X20092500Y-24314214D01*
X20121071Y-24299929D01*
X20135357Y-24285643D01*
X20163928Y-24242786D01*
X20178214Y-24185643D01*
X20178214Y-24071357D01*
X20163928Y-24042786D01*
X20149643Y-24028500D01*
X20121071Y-24014214D01*
X20063928Y-24014214D01*
X20035357Y-24028500D01*
X20021071Y-24042786D01*
X20006786Y-24071357D01*
X20006786Y-24142786D01*
X20021071Y-24171357D01*
X20035357Y-24185643D01*
X20063928Y-24199929D01*
X20121071Y-24199929D01*
X20149643Y-24185643D01*
X20163928Y-24171357D01*
X20178214Y-24142786D01*
X20435357Y-24114214D02*
X20435357Y-24314214D01*
X20363928Y-23999929D02*
X20292500Y-24214214D01*
X20478214Y-24214214D01*
X20578214Y-24014214D02*
X20578214Y-24071357D01*
X20692500Y-24014214D02*
X20692500Y-24071357D01*
X21135357Y-24428500D02*
X21121071Y-24414214D01*
X21092500Y-24371357D01*
X21078214Y-24342786D01*
X21063928Y-24299929D01*
X21049643Y-24228500D01*
X21049643Y-24171357D01*
X21063928Y-24099929D01*
X21078214Y-24057071D01*
X21092500Y-24028500D01*
X21121071Y-23985643D01*
X21135357Y-23971357D01*
X21378214Y-24114214D02*
X21378214Y-24314214D01*
X21306786Y-23999929D02*
X21235357Y-24214214D01*
X21421071Y-24214214D01*
X21763928Y-24314214D02*
X21763928Y-24014214D01*
X21892500Y-24314214D02*
X21892500Y-24157071D01*
X21878214Y-24128500D01*
X21849643Y-24114214D01*
X21806786Y-24114214D01*
X21778214Y-24128500D01*
X21763928Y-24142786D01*
X22078214Y-24314214D02*
X22049643Y-24299929D01*
X22035357Y-24285643D01*
X22021071Y-24257071D01*
X22021071Y-24171357D01*
X22035357Y-24142786D01*
X22049643Y-24128500D01*
X22078214Y-24114214D01*
X22121071Y-24114214D01*
X22149643Y-24128500D01*
X22163928Y-24142786D01*
X22178214Y-24171357D01*
X22178214Y-24257071D01*
X22163928Y-24285643D01*
X22149643Y-24299929D01*
X22121071Y-24314214D01*
X22078214Y-24314214D01*
X22349643Y-24314214D02*
X22321071Y-24299929D01*
X22306786Y-24271357D01*
X22306786Y-24014214D01*
X22578214Y-24299929D02*
X22549643Y-24314214D01*
X22492500Y-24314214D01*
X22463928Y-24299929D01*
X22449643Y-24271357D01*
X22449643Y-24157071D01*
X22463928Y-24128500D01*
X22492500Y-24114214D01*
X22549643Y-24114214D01*
X22578214Y-24128500D01*
X22592500Y-24157071D01*
X22592500Y-24185643D01*
X22449643Y-24214214D01*
X22706786Y-24299929D02*
X22735357Y-24314214D01*
X22792500Y-24314214D01*
X22821071Y-24299929D01*
X22835357Y-24271357D01*
X22835357Y-24257071D01*
X22821071Y-24228500D01*
X22792500Y-24214214D01*
X22749643Y-24214214D01*
X22721071Y-24199929D01*
X22706786Y-24171357D01*
X22706786Y-24157071D01*
X22721071Y-24128500D01*
X22749643Y-24114214D01*
X22792500Y-24114214D01*
X22821071Y-24128500D01*
X22935357Y-24428500D02*
X22949643Y-24414214D01*
X22978214Y-24371357D01*
X22992500Y-24342786D01*
X23006786Y-24299929D01*
X23021071Y-24228500D01*
X23021071Y-24171357D01*
X23006786Y-24099929D01*
X22992500Y-24057071D01*
X22978214Y-24028500D01*
X22949643Y-23985643D01*
X22935357Y-23971357D01*
X23478214Y-24428500D02*
X23463928Y-24414214D01*
X23435357Y-24371357D01*
X23421071Y-24342786D01*
X23406786Y-24299929D01*
X23392500Y-24228500D01*
X23392500Y-24171357D01*
X23406786Y-24099929D01*
X23421071Y-24057071D01*
X23435357Y-24028500D01*
X23463928Y-23985643D01*
X23478214Y-23971357D01*
X23592500Y-24114214D02*
X23592500Y-24314214D01*
X23592500Y-24142786D02*
X23606786Y-24128500D01*
X23635357Y-24114214D01*
X23678214Y-24114214D01*
X23706786Y-24128500D01*
X23721071Y-24157071D01*
X23721071Y-24314214D01*
X23906786Y-24314214D02*
X23878214Y-24299929D01*
X23863928Y-24285643D01*
X23849643Y-24257071D01*
X23849643Y-24171357D01*
X23863928Y-24142786D01*
X23878214Y-24128500D01*
X23906786Y-24114214D01*
X23949643Y-24114214D01*
X23978214Y-24128500D01*
X23992500Y-24142786D01*
X24006786Y-24171357D01*
X24006786Y-24257071D01*
X23992500Y-24285643D01*
X23978214Y-24299929D01*
X23949643Y-24314214D01*
X23906786Y-24314214D01*
X24092500Y-24114214D02*
X24206786Y-24114214D01*
X24135357Y-24014214D02*
X24135357Y-24271357D01*
X24149643Y-24299929D01*
X24178214Y-24314214D01*
X24206786Y-24314214D01*
X24535357Y-24114214D02*
X24535357Y-24414214D01*
X24535357Y-24128500D02*
X24563928Y-24114214D01*
X24621071Y-24114214D01*
X24649643Y-24128500D01*
X24663928Y-24142786D01*
X24678214Y-24171357D01*
X24678214Y-24257071D01*
X24663928Y-24285643D01*
X24649643Y-24299929D01*
X24621071Y-24314214D01*
X24563928Y-24314214D01*
X24535357Y-24299929D01*
X24849643Y-24314214D02*
X24821071Y-24299929D01*
X24806786Y-24271357D01*
X24806786Y-24014214D01*
X25092500Y-24314214D02*
X25092500Y-24157071D01*
X25078214Y-24128500D01*
X25049643Y-24114214D01*
X24992500Y-24114214D01*
X24963928Y-24128500D01*
X25092500Y-24299929D02*
X25063928Y-24314214D01*
X24992500Y-24314214D01*
X24963928Y-24299929D01*
X24949643Y-24271357D01*
X24949643Y-24242786D01*
X24963928Y-24214214D01*
X24992500Y-24199929D01*
X25063928Y-24199929D01*
X25092500Y-24185643D01*
X25192500Y-24114214D02*
X25306786Y-24114214D01*
X25235357Y-24014214D02*
X25235357Y-24271357D01*
X25249643Y-24299929D01*
X25278214Y-24314214D01*
X25306786Y-24314214D01*
X25521071Y-24299929D02*
X25492500Y-24314214D01*
X25435357Y-24314214D01*
X25406786Y-24299929D01*
X25392500Y-24271357D01*
X25392500Y-24157071D01*
X25406786Y-24128500D01*
X25435357Y-24114214D01*
X25492500Y-24114214D01*
X25521071Y-24128500D01*
X25535357Y-24157071D01*
X25535357Y-24185643D01*
X25392500Y-24214214D01*
X25792500Y-24314214D02*
X25792500Y-24014214D01*
X25792500Y-24299929D02*
X25763928Y-24314214D01*
X25706786Y-24314214D01*
X25678214Y-24299929D01*
X25663928Y-24285643D01*
X25649643Y-24257071D01*
X25649643Y-24171357D01*
X25663928Y-24142786D01*
X25678214Y-24128500D01*
X25706786Y-24114214D01*
X25763928Y-24114214D01*
X25792500Y-24128500D01*
X25906786Y-24428500D02*
X25921071Y-24414214D01*
X25949643Y-24371357D01*
X25963928Y-24342786D01*
X25978214Y-24299929D01*
X25992500Y-24228500D01*
X25992500Y-24171357D01*
X25978214Y-24099929D01*
X25963928Y-24057071D01*
X25949643Y-24028500D01*
X25921071Y-23985643D01*
X25906786Y-23971357D01*
M02*
