M48
; DRILL file {KiCad (5.1.10)-1} date 10/19/21 18:19:03
; FORMAT={-:-/ absolute / inch / decimal}
; #@! TF.CreationDate,2021-10-19T18:19:03+02:00
; #@! TF.GenerationSoftware,Kicad,Pcbnew,(5.1.10)-1
; #@! TF.FileFunction,Plated,1,4,PTH
FMAT,2
INCH
T1C0.0100
T2C0.0130
T3C0.0197
T4C0.1260
%
G90
G05
T1
X6.3386Y-7.9724
X6.3386Y-8.1299
X6.3386Y-8.3268
X6.3386Y-8.5236
X6.3386Y-8.7205
X6.437Y-7.874
X6.4764Y-8.6102
X6.4961Y-5.9252
X6.4961Y-6.0236
X6.4961Y-6.1811
X6.4961Y-6.378
X6.4961Y-6.5748
X6.4961Y-6.7717
X6.4961Y-6.9685
X6.4961Y-7.1654
X6.4961Y-7.3622
X6.4961Y-7.5591
X6.4961Y-7.7559
X6.4961Y-8.5039
X6.5118Y-8.6457
X6.5906Y-8.0551
X6.5984Y-8.3071
X6.6386Y-8.7402
X6.6496Y-6.1024
X6.6685Y-8.7402
X6.6732Y-5.9252
X6.6772Y-6.4488
X6.6772Y-6.8583
X6.6772Y-7.2362
X6.6772Y-7.748
X6.6929Y-8.5118
X6.7047Y-8.7205
X6.7126Y-6.2303
X6.7377Y-6.2014
X6.7402Y-8.0472
X6.7675Y-6.2014
X6.7913Y-6.2303
X6.811Y-6.3622
X6.811Y-6.6378
X6.811Y-7.1102
X6.811Y-7.5512
X6.811Y-7.874
X6.8307Y-6.2008
X6.8543Y-8.8386
X6.8622Y-6.1496
X6.8661Y-8.622
X6.8701Y-5.9252
X6.878Y-6.1024
X6.8937Y-8.8071
X6.8976Y-8.874
X6.9134Y-7.378
X6.9213Y-6.6772
X6.9606Y-6.3543
X6.9882Y-7.0079
X6.9882Y-7.2835
X6.9882Y-7.4803
X6.9882Y-7.6772
X6.9882Y-7.874
X6.9882Y-8.0709
X6.9882Y-8.2677
X6.9882Y-8.4646
X6.9882Y-8.6614
X6.9882Y-8.8583
X7.0276Y-6.7323
X7.0669Y-5.9252
X7.0669Y-6.4961
X7.0866Y-7.1654
X7.126Y-6.2598
X7.185Y-6.1024
X7.2047Y-7.0472
X7.2441Y-6.4173
X7.248Y-8.1181
X7.248Y-8.2756
X7.3078Y-8.6843
X7.3228Y-6.9291
X7.3228Y-8.3976
X7.3235Y-8.768
X7.3465Y-8.8661
X7.3819Y-5.9646
X7.3819Y-6.1614
X7.3819Y-6.3583
X7.3819Y-6.5551
X7.3819Y-8.6575
X7.3976Y-8.7677
X7.4291Y-8.552
X7.4291Y-8.5819
X7.437Y-8.626
X7.4843Y-8.9055
X7.4882Y-8.4961
X7.5118Y-8.4724
X7.5236Y-8.2362
X7.563Y-7.8819
X7.5748Y-8.4252
X7.5827Y-8.7874
X7.6417Y-8.3465
X7.6417Y-8.9055
X7.6614Y-8.0787
X7.6614Y-8.5118
X7.7008Y-7.8819
X7.7441Y-8.2402
X7.7795Y-6.4252
X7.7795Y-6.5827
X7.7795Y-6.7402
X7.7795Y-6.8976
X7.7795Y-7.0551
X7.7795Y-7.2126
X7.7795Y-7.3701
X7.7795Y-7.5276
X7.7795Y-7.685
X7.7795Y-7.8425
X7.7992Y-5.9528
X7.7992Y-6.1102
X7.7992Y-6.2677
X7.7992Y-8.9055
X7.815Y-8.1575
X7.8189Y-8.3543
X7.8189Y-8.5906
X7.878Y-8.7677
X7.9173Y-5.9528
X7.9173Y-6.0709
X7.9252Y-6.7126
X7.9252Y-6.8071
X7.9252Y-7.4055
X7.9252Y-7.5354
X7.9252Y-7.9252
X7.9252Y-8.0
X7.937Y-6.4528
X7.9567Y-6.2835
X7.9567Y-8.9055
X7.9764Y-7.8819
X7.9764Y-8.4331
X7.9961Y-7.311
X8.0157Y-6.6614
X8.0748Y-5.9528
X8.0748Y-8.1772
X8.0748Y-8.6496
X8.0945Y-6.4646
X8.0945Y-7.6654
X8.1102Y-6.1299
X8.1142Y-6.2756
X8.1142Y-8.9055
X8.2323Y-5.9528
X8.2323Y-6.2874
X8.2323Y-6.4252
X8.2323Y-6.5827
X8.2323Y-6.7402
X8.2323Y-6.8976
X8.2323Y-7.1732
X8.2323Y-7.3307
X8.2323Y-7.4882
X8.2323Y-7.6457
X8.2323Y-7.8031
X8.2323Y-7.9606
X8.2323Y-8.1181
X8.2323Y-8.2756
X8.2441Y-6.0276
X8.252Y-6.1339
X8.2638Y-5.9921
X8.2717Y-8.4331
X8.2717Y-8.5906
X8.2717Y-8.748
X8.2717Y-8.9055
X8.2835Y-6.122
X8.2841Y-6.0343
X8.2841Y-6.0641
X8.2992Y-5.9921
X8.311Y-6.189
X8.3346Y-6.122
X8.3819Y-5.9567
X8.3819Y-6.1575
X8.4902Y-7.1063
X8.5Y-7.313
X8.5Y-7.5098
X8.5Y-7.7067
X8.5098Y-7.9429
X8.5396Y-8.0486
X8.5421Y-7.8311
X8.5689Y-7.1949
X8.6181Y-8.1004
X8.6246Y-7.8311
X8.6535Y-7.7551
X8.6575Y-7.185
X8.6575Y-7.4114
X8.6575Y-7.687
X8.6847Y-7.7136
X8.687Y-7.1063
X8.7047Y-7.5748
X8.7145Y-7.7136
X8.7461Y-7.687
X8.7596Y-7.7336
X8.7696Y-7.2836
X8.7721Y-7.3286
X8.7756Y-7.4921
X8.7821Y-7.3661
X8.7946Y-7.7561
X8.7953Y-8.1004
X8.8121Y-7.8311
X8.815Y-7.6181
X8.8248Y-7.4114
X8.844Y-7.3861
X8.8738Y-7.3861
X8.8839Y-7.1063
X8.8896Y-7.8311
X8.8896Y-8.0461
X8.8937Y-7.4213
X8.8937Y-7.5361
X8.9146Y-7.3811
X8.9721Y-7.2836
X9.002Y-7.6969
X9.0315Y-7.5197
X9.061Y-8.1004
X9.0807Y-7.1063
X9.1693Y-7.8642
X9.2185Y-7.1063
X9.2579Y-8.1004
X9.2874Y-7.313
X9.2874Y-7.4902
X9.2874Y-7.6575
X9.4843Y-7.1654
X9.4843Y-7.3622
X9.4843Y-7.5591
X9.4843Y-7.7559
T2
X6.4685Y-8.8071
X6.4685Y-8.874
X6.5118Y-8.8386
X6.6654Y-6.1693
X6.6654Y-6.2087
X7.122Y-8.3051
X7.122Y-8.3406
X7.122Y-8.376
X8.3622Y-7.502
X8.3622Y-7.5374
X8.3622Y-7.5728
T3
X6.7008Y-8.2913
X6.7285Y-8.2245
X6.7285Y-8.3582
X6.7953Y-8.1969
X6.7953Y-8.3858
X6.8621Y-8.2245
X6.8621Y-8.3582
X6.8898Y-8.2913
X7.1732Y-5.8189
X7.1732Y-6.7598
X7.2009Y-5.7521
X7.2009Y-5.8857
X7.2009Y-6.693
X7.2009Y-6.8267
X7.2677Y-5.7244
X7.2677Y-5.9134
X7.2677Y-6.6654
X7.2677Y-6.8543
X7.2913Y-7.9803
X7.319Y-7.9135
X7.319Y-8.0471
X7.3345Y-5.7521
X7.3345Y-5.8857
X7.3345Y-6.693
X7.3345Y-6.8267
X7.3622Y-5.8189
X7.3622Y-6.7598
X7.3858Y-7.8858
X7.3858Y-8.0748
X7.4526Y-7.9135
X7.4526Y-8.0471
X7.4803Y-7.9803
X7.9961Y-7.0157
X8.0237Y-6.9489
X8.0237Y-7.0826
X8.0906Y-6.9213
X8.0906Y-7.1102
X8.1574Y-6.9489
X8.1574Y-7.0826
X8.185Y-7.0157
X8.4055Y-8.7756
X8.4332Y-8.7088
X8.4332Y-8.8424
X8.5Y-8.6811
X8.5Y-8.8701
X8.5668Y-8.7088
X8.5668Y-8.8424
X8.5945Y-8.7756
X9.2795Y-7.0
X9.2795Y-7.9409
X9.3072Y-6.9332
X9.3072Y-7.0668
X9.3072Y-7.8741
X9.3072Y-8.0078
X9.374Y-6.9055
X9.374Y-7.0945
X9.374Y-7.8465
X9.374Y-8.0354
X9.4408Y-6.9332
X9.4408Y-7.0668
X9.4408Y-7.8741
X9.4408Y-8.0078
X9.4685Y-7.0
X9.4685Y-7.9409
T4
X6.7953Y-8.2913
X7.2677Y-5.8189
X7.2677Y-6.7598
X7.3858Y-7.9803
X8.0906Y-7.0157
X8.5Y-8.7756
X9.374Y-7.0
X9.374Y-7.9409
T0
M30
