%FSLAX45Y45*%
G04 Gerber Fmt 4.5, Leading zero omitted, Abs format (unit mm)*
G04 Created by KiCad (PCBNEW (5.1.10)-1) date 2021-10-19 18:18:58*
%MOMM*%
%LPD*%
G01*
G04 APERTURE LIST*
%TA.AperFunction,Profile*%
%ADD10C,0.050000*%
%TD*%
%ADD11C,0.200000*%
%ADD12C,0.300000*%
G04 APERTURE END LIST*
D10*
X16310000Y-22820000D02*
X15880000Y-22145000D01*
X17960000Y-21455000D02*
X17960000Y-22720000D01*
X18210000Y-19930000D02*
X18210000Y-20905000D01*
X17960000Y-21455000D02*
G75*
G02*
X18210000Y-21455000I125000J0D01*
G01*
X17960000Y-20910000D02*
X17960000Y-20905000D01*
X18210000Y-20905000D02*
G75*
G02*
X17960000Y-20905000I-125000J0D01*
G01*
X21110000Y-18870000D02*
X21110000Y-18865000D01*
X21110000Y-15960000D02*
X21110000Y-18870000D01*
X21360000Y-19415000D02*
X21360000Y-20670000D01*
X21360000Y-17950000D02*
X21360100Y-18865000D01*
X21110000Y-19415000D02*
G75*
G02*
X21360000Y-19415000I125000J0D01*
G01*
X21360100Y-18865000D02*
G75*
G02*
X21110000Y-18870000I-125100J0D01*
G01*
X17960000Y-22720000D02*
G75*
G02*
X17860000Y-22820000I-100000J0D01*
G01*
X15880000Y-22145000D02*
X15880000Y-20180000D01*
X15880000Y-20180000D02*
X16280000Y-19780000D01*
X21360000Y-17950000D02*
G75*
G02*
X21460000Y-17850000I100000J0D01*
G01*
X24310000Y-20670000D02*
G75*
G02*
X24210000Y-20770000I-100000J0D01*
G01*
X24210000Y-20770000D02*
X21460000Y-20770000D01*
X24310000Y-17470000D02*
X24310000Y-20670000D01*
X23230000Y-17370000D02*
X24210000Y-17370000D01*
X23130000Y-17750000D02*
X23130000Y-17470000D01*
X24210000Y-17370000D02*
G75*
G02*
X24310000Y-17470000I0J-100000D01*
G01*
X21460000Y-17850000D02*
X23030000Y-17850000D01*
X23130000Y-17750000D02*
G75*
G02*
X23030000Y-17850000I-100000J0D01*
G01*
X21460000Y-20770000D02*
G75*
G02*
X21360000Y-20670000I0J100000D01*
G01*
X23130000Y-17470000D02*
G75*
G02*
X23230000Y-17370000I100000J0D01*
G01*
X22050000Y-21940000D02*
X21110000Y-21000000D01*
X19610000Y-15040000D02*
G75*
G02*
X19710000Y-14940000I100000J0D01*
G01*
X21710000Y-15760000D02*
G75*
G02*
X21610000Y-15860000I-100000J0D01*
G01*
X21610000Y-14940000D02*
G75*
G02*
X21710000Y-15040000I0J-100000D01*
G01*
X21110000Y-21000000D02*
X21110000Y-20780000D01*
X21110000Y-19415000D02*
X21110000Y-20780000D01*
X21610000Y-15860000D02*
X21210000Y-15860000D01*
X21710000Y-15040000D02*
X21710000Y-15760000D01*
X22050000Y-22720000D02*
G75*
G02*
X21950000Y-22820000I-100000J0D01*
G01*
X22050000Y-22720000D02*
X22050000Y-21940000D01*
X19710000Y-14940000D02*
X19710000Y-14940000D01*
X20010000Y-14940000D02*
X19710000Y-14940000D01*
X21150000Y-22820000D02*
X21950000Y-22820000D01*
X21610000Y-14940000D02*
X20010000Y-14940000D01*
X18210000Y-19930000D02*
G75*
G02*
X18310000Y-19830000I100000J0D01*
G01*
X19610000Y-19730000D02*
G75*
G02*
X19510000Y-19830000I-100000J0D01*
G01*
X18310000Y-19830000D02*
X19510000Y-19830000D01*
X19610000Y-19730000D02*
X19610000Y-15040000D01*
X18670000Y-22820000D02*
X18210000Y-22360000D01*
X18210000Y-22360000D02*
X18210000Y-21455000D01*
X21150000Y-22820000D02*
X18670000Y-22820000D01*
X21110000Y-15960000D02*
G75*
G02*
X21210000Y-15860000I100000J0D01*
G01*
X18860000Y-14370000D02*
G75*
G02*
X18960000Y-14470000I0J-100000D01*
G01*
X16380000Y-14850000D02*
X17680000Y-14850000D01*
X18960000Y-14470000D02*
X18960000Y-17530000D01*
X17780000Y-14750000D02*
X17780000Y-14470000D01*
X16280000Y-17670000D02*
X16280000Y-14950000D01*
X16280000Y-14950000D02*
G75*
G02*
X16380000Y-14850000I100000J0D01*
G01*
X17780000Y-14470000D02*
G75*
G02*
X17880000Y-14370000I100000J0D01*
G01*
X17780000Y-14750000D02*
G75*
G02*
X17680000Y-14850000I-100000J0D01*
G01*
X17860000Y-22820000D02*
X16310000Y-22820000D01*
X17880000Y-14370000D02*
X18860000Y-14370000D01*
X17960000Y-18530000D02*
X18960000Y-17530000D01*
X16280000Y-19780000D02*
X16280000Y-17670000D01*
X17960000Y-20910000D02*
X17960000Y-18530000D01*
D11*
X16087300Y-20237300D02*
X16112700Y-20262700D01*
X16112700Y-20237300D02*
X16087300Y-20262700D01*
X16087300Y-20637300D02*
X16112700Y-20662700D01*
X16112700Y-20637300D02*
X16087300Y-20662700D01*
X16087300Y-21137300D02*
X16112700Y-21162700D01*
X16112700Y-21137300D02*
X16087300Y-21162700D01*
X16087300Y-21637300D02*
X16112700Y-21662700D01*
X16112700Y-21637300D02*
X16087300Y-21662700D01*
X16087300Y-22137300D02*
X16112700Y-22162700D01*
X16112700Y-22137300D02*
X16087300Y-22162700D01*
X16337300Y-19987300D02*
X16362700Y-20012700D01*
X16362700Y-19987300D02*
X16337300Y-20012700D01*
X16437300Y-21857300D02*
X16462700Y-21882700D01*
X16462700Y-21857300D02*
X16437300Y-21882700D01*
X16487300Y-15037300D02*
X16512700Y-15062700D01*
X16512700Y-15037300D02*
X16487300Y-15062700D01*
X16487300Y-15287300D02*
X16512700Y-15312700D01*
X16512700Y-15287300D02*
X16487300Y-15312700D01*
X16487300Y-15687300D02*
X16512700Y-15712700D01*
X16512700Y-15687300D02*
X16487300Y-15712700D01*
X16487300Y-16187300D02*
X16512700Y-16212700D01*
X16512700Y-16187300D02*
X16487300Y-16212700D01*
X16487300Y-16687300D02*
X16512700Y-16712700D01*
X16512700Y-16687300D02*
X16487300Y-16712700D01*
X16487300Y-17187300D02*
X16512700Y-17212700D01*
X16512700Y-17187300D02*
X16487300Y-17212700D01*
X16487300Y-17687300D02*
X16512700Y-17712700D01*
X16512700Y-17687300D02*
X16487300Y-17712700D01*
X16487300Y-18187300D02*
X16512700Y-18212700D01*
X16512700Y-18187300D02*
X16487300Y-18212700D01*
X16487300Y-18687300D02*
X16512700Y-18712700D01*
X16512700Y-18687300D02*
X16487300Y-18712700D01*
X16487300Y-19187300D02*
X16512700Y-19212700D01*
X16512700Y-19187300D02*
X16487300Y-19212700D01*
X16487300Y-19687300D02*
X16512700Y-19712700D01*
X16512700Y-19687300D02*
X16487300Y-19712700D01*
X16487300Y-21587300D02*
X16512700Y-21612700D01*
X16512700Y-21587300D02*
X16487300Y-21612700D01*
X16527300Y-21947300D02*
X16552700Y-21972700D01*
X16552700Y-21947300D02*
X16527300Y-21972700D01*
X16727300Y-20447300D02*
X16752700Y-20472700D01*
X16752700Y-20447300D02*
X16727300Y-20472700D01*
X16747300Y-21087300D02*
X16772700Y-21112700D01*
X16772700Y-21087300D02*
X16747300Y-21112700D01*
X16849400Y-22187300D02*
X16874800Y-22212700D01*
X16874800Y-22187300D02*
X16849400Y-22212700D01*
X16877300Y-15487300D02*
X16902700Y-15512700D01*
X16902700Y-15487300D02*
X16877300Y-15512700D01*
X16925200Y-22187300D02*
X16950600Y-22212700D01*
X16950600Y-22187300D02*
X16925200Y-22212700D01*
X16937300Y-15037300D02*
X16962700Y-15062700D01*
X16962700Y-15037300D02*
X16937300Y-15062700D01*
X16947300Y-16367300D02*
X16972700Y-16392700D01*
X16972700Y-16367300D02*
X16947300Y-16392700D01*
X16947300Y-17407300D02*
X16972700Y-17432700D01*
X16972700Y-17407300D02*
X16947300Y-17432700D01*
X16947300Y-18367300D02*
X16972700Y-18392700D01*
X16972700Y-18367300D02*
X16947300Y-18392700D01*
X16947300Y-19667300D02*
X16972700Y-19692700D01*
X16972700Y-19667300D02*
X16947300Y-19692700D01*
X16987300Y-21607300D02*
X17012700Y-21632700D01*
X17012700Y-21607300D02*
X16987300Y-21632700D01*
X17017300Y-22137300D02*
X17042700Y-22162700D01*
X17042700Y-22137300D02*
X17017300Y-22162700D01*
X17037300Y-15812300D02*
X17062700Y-15837700D01*
X17062700Y-15812300D02*
X17037300Y-15837700D01*
X17101050Y-15738933D02*
X17126450Y-15764333D01*
X17126450Y-15738933D02*
X17101050Y-15764333D01*
X17107300Y-20427300D02*
X17132700Y-20452700D01*
X17132700Y-20427300D02*
X17107300Y-20452700D01*
X17176850Y-15738933D02*
X17202250Y-15764333D01*
X17202250Y-15738933D02*
X17176850Y-15764333D01*
X17237300Y-15812300D02*
X17262700Y-15837700D01*
X17262700Y-15812300D02*
X17237300Y-15837700D01*
X17287300Y-16147300D02*
X17312700Y-16172700D01*
X17312700Y-16147300D02*
X17287300Y-16172700D01*
X17287300Y-16847300D02*
X17312700Y-16872700D01*
X17312700Y-16847300D02*
X17287300Y-16872700D01*
X17287300Y-18047300D02*
X17312700Y-18072700D01*
X17312700Y-18047300D02*
X17287300Y-18072700D01*
X17287300Y-19167300D02*
X17312700Y-19192700D01*
X17312700Y-19167300D02*
X17287300Y-19192700D01*
X17287300Y-19987300D02*
X17312700Y-20012700D01*
X17312700Y-19987300D02*
X17287300Y-20012700D01*
X17337300Y-15737300D02*
X17362700Y-15762700D01*
X17362700Y-15737300D02*
X17337300Y-15762700D01*
X17397300Y-22437300D02*
X17422700Y-22462700D01*
X17422700Y-22437300D02*
X17397300Y-22462700D01*
X17417300Y-15607300D02*
X17442700Y-15632700D01*
X17442700Y-15607300D02*
X17417300Y-15632700D01*
X17427300Y-21887300D02*
X17452700Y-21912700D01*
X17452700Y-21887300D02*
X17427300Y-21912700D01*
X17437300Y-15037300D02*
X17462700Y-15062700D01*
X17462700Y-15037300D02*
X17437300Y-15062700D01*
X17457300Y-15487300D02*
X17482700Y-15512700D01*
X17482700Y-15487300D02*
X17457300Y-15512700D01*
X17497300Y-22357300D02*
X17522700Y-22382700D01*
X17522700Y-22357300D02*
X17497300Y-22382700D01*
X17507300Y-22527300D02*
X17532700Y-22552700D01*
X17532700Y-22527300D02*
X17507300Y-22552700D01*
X17547300Y-18727300D02*
X17572700Y-18752700D01*
X17572700Y-18727300D02*
X17547300Y-18752700D01*
X17567300Y-16947300D02*
X17592700Y-16972700D01*
X17592700Y-16947300D02*
X17567300Y-16972700D01*
X17667300Y-16127300D02*
X17692700Y-16152700D01*
X17692700Y-16127300D02*
X17667300Y-16152700D01*
X17737300Y-17787300D02*
X17762700Y-17812700D01*
X17762700Y-17787300D02*
X17737300Y-17812700D01*
X17737300Y-18487300D02*
X17762700Y-18512700D01*
X17762700Y-18487300D02*
X17737300Y-18512700D01*
X17737300Y-18987300D02*
X17762700Y-19012700D01*
X17762700Y-18987300D02*
X17737300Y-19012700D01*
X17737300Y-19487300D02*
X17762700Y-19512700D01*
X17762700Y-19487300D02*
X17737300Y-19512700D01*
X17737300Y-19987300D02*
X17762700Y-20012700D01*
X17762700Y-19987300D02*
X17737300Y-20012700D01*
X17737300Y-20487300D02*
X17762700Y-20512700D01*
X17762700Y-20487300D02*
X17737300Y-20512700D01*
X17737300Y-20987300D02*
X17762700Y-21012700D01*
X17762700Y-20987300D02*
X17737300Y-21012700D01*
X17737300Y-21487300D02*
X17762700Y-21512700D01*
X17762700Y-21487300D02*
X17737300Y-21512700D01*
X17737300Y-21987300D02*
X17762700Y-22012700D01*
X17762700Y-21987300D02*
X17737300Y-22012700D01*
X17737300Y-22487300D02*
X17762700Y-22512700D01*
X17762700Y-22487300D02*
X17737300Y-22512700D01*
X17837300Y-17087300D02*
X17862700Y-17112700D01*
X17862700Y-17087300D02*
X17837300Y-17112700D01*
X17937300Y-15037300D02*
X17962700Y-15062700D01*
X17962700Y-15037300D02*
X17937300Y-15062700D01*
X17937300Y-16487300D02*
X17962700Y-16512700D01*
X17962700Y-16487300D02*
X17937300Y-16512700D01*
X17987300Y-18187300D02*
X18012700Y-18212700D01*
X18012700Y-18187300D02*
X17987300Y-18212700D01*
X18087300Y-15887300D02*
X18112700Y-15912700D01*
X18112700Y-15887300D02*
X18087300Y-15912700D01*
X18237300Y-15487300D02*
X18262700Y-15512700D01*
X18262700Y-15487300D02*
X18237300Y-15512700D01*
X18287300Y-17887300D02*
X18312700Y-17912700D01*
X18312700Y-17887300D02*
X18287300Y-17912700D01*
X18387300Y-16287300D02*
X18412700Y-16312700D01*
X18412700Y-16287300D02*
X18387300Y-16312700D01*
X18397300Y-20607300D02*
X18422700Y-20632700D01*
X18422700Y-20607300D02*
X18397300Y-20632700D01*
X18397300Y-21007300D02*
X18422700Y-21032700D01*
X18422700Y-21007300D02*
X18397300Y-21032700D01*
X18549100Y-22045500D02*
X18574500Y-22070900D01*
X18574500Y-22045500D02*
X18549100Y-22070900D01*
X18587300Y-17587300D02*
X18612700Y-17612700D01*
X18612700Y-17587300D02*
X18587300Y-17612700D01*
X18587300Y-21317300D02*
X18612700Y-21342700D01*
X18612700Y-21317300D02*
X18587300Y-21342700D01*
X18589100Y-22257900D02*
X18614500Y-22283300D01*
X18614500Y-22257900D02*
X18589100Y-22283300D01*
X18647300Y-22507300D02*
X18672700Y-22532700D01*
X18672700Y-22507300D02*
X18647300Y-22532700D01*
X18737300Y-15137300D02*
X18762700Y-15162700D01*
X18762700Y-15137300D02*
X18737300Y-15162700D01*
X18737300Y-15637300D02*
X18762700Y-15662700D01*
X18762700Y-15637300D02*
X18737300Y-15662700D01*
X18737300Y-16137300D02*
X18762700Y-16162700D01*
X18762700Y-16137300D02*
X18737300Y-16162700D01*
X18737300Y-16637300D02*
X18762700Y-16662700D01*
X18762700Y-16637300D02*
X18737300Y-16662700D01*
X18737300Y-21977300D02*
X18762700Y-22002700D01*
X18762700Y-21977300D02*
X18737300Y-22002700D01*
X18777300Y-22257300D02*
X18802700Y-22282700D01*
X18802700Y-22257300D02*
X18777300Y-22282700D01*
X18857300Y-21709400D02*
X18882700Y-21734800D01*
X18882700Y-21709400D02*
X18857300Y-21734800D01*
X18857300Y-21785200D02*
X18882700Y-21810600D01*
X18882700Y-21785200D02*
X18857300Y-21810600D01*
X18877300Y-21897300D02*
X18902700Y-21922700D01*
X18902700Y-21897300D02*
X18877300Y-21922700D01*
X18997300Y-22607300D02*
X19022700Y-22632700D01*
X19022700Y-22607300D02*
X18997300Y-22632700D01*
X19007300Y-21567300D02*
X19032700Y-21592700D01*
X19032700Y-21567300D02*
X19007300Y-21592700D01*
X19067300Y-21507300D02*
X19092700Y-21532700D01*
X19092700Y-21507300D02*
X19067300Y-21532700D01*
X19097300Y-20907300D02*
X19122700Y-20932700D01*
X19122700Y-20907300D02*
X19097300Y-20932700D01*
X19197300Y-20007300D02*
X19222700Y-20032700D01*
X19222700Y-20007300D02*
X19197300Y-20032700D01*
X19227300Y-21387300D02*
X19252700Y-21412700D01*
X19252700Y-21387300D02*
X19227300Y-21412700D01*
X19247300Y-22307300D02*
X19272700Y-22332700D01*
X19272700Y-22307300D02*
X19247300Y-22332700D01*
X19397300Y-21187300D02*
X19422700Y-21212700D01*
X19422700Y-21187300D02*
X19397300Y-21212700D01*
X19397300Y-22607300D02*
X19422700Y-22632700D01*
X19422700Y-22607300D02*
X19397300Y-22632700D01*
X19447300Y-20507300D02*
X19472700Y-20532700D01*
X19472700Y-20507300D02*
X19447300Y-20532700D01*
X19447300Y-21607300D02*
X19472700Y-21632700D01*
X19472700Y-21607300D02*
X19447300Y-21632700D01*
X19547300Y-20007300D02*
X19572700Y-20032700D01*
X19572700Y-20007300D02*
X19547300Y-20032700D01*
X19657300Y-20917300D02*
X19682700Y-20942700D01*
X19682700Y-20917300D02*
X19657300Y-20942700D01*
X19747300Y-16307300D02*
X19772700Y-16332700D01*
X19772700Y-16307300D02*
X19747300Y-16332700D01*
X19747300Y-16707300D02*
X19772700Y-16732700D01*
X19772700Y-16707300D02*
X19747300Y-16732700D01*
X19747300Y-17107300D02*
X19772700Y-17132700D01*
X19772700Y-17107300D02*
X19747300Y-17132700D01*
X19747300Y-17507300D02*
X19772700Y-17532700D01*
X19772700Y-17507300D02*
X19747300Y-17532700D01*
X19747300Y-17907300D02*
X19772700Y-17932700D01*
X19772700Y-17907300D02*
X19747300Y-17932700D01*
X19747300Y-18307300D02*
X19772700Y-18332700D01*
X19772700Y-18307300D02*
X19747300Y-18332700D01*
X19747300Y-18707300D02*
X19772700Y-18732700D01*
X19772700Y-18707300D02*
X19747300Y-18732700D01*
X19747300Y-19107300D02*
X19772700Y-19132700D01*
X19772700Y-19107300D02*
X19747300Y-19132700D01*
X19747300Y-19507300D02*
X19772700Y-19532700D01*
X19772700Y-19507300D02*
X19747300Y-19532700D01*
X19747300Y-19907300D02*
X19772700Y-19932700D01*
X19772700Y-19907300D02*
X19747300Y-19932700D01*
X19797300Y-15107300D02*
X19822700Y-15132700D01*
X19822700Y-15107300D02*
X19797300Y-15132700D01*
X19797300Y-15507300D02*
X19822700Y-15532700D01*
X19822700Y-15507300D02*
X19797300Y-15532700D01*
X19797300Y-15907300D02*
X19822700Y-15932700D01*
X19822700Y-15907300D02*
X19797300Y-15932700D01*
X19797300Y-22607300D02*
X19822700Y-22632700D01*
X19822700Y-22607300D02*
X19797300Y-22632700D01*
X19837300Y-20707300D02*
X19862700Y-20732700D01*
X19862700Y-20707300D02*
X19837300Y-20732700D01*
X19847300Y-21207300D02*
X19872700Y-21232700D01*
X19872700Y-21207300D02*
X19847300Y-21232700D01*
X19847300Y-21807300D02*
X19872700Y-21832700D01*
X19872700Y-21807300D02*
X19847300Y-21832700D01*
X19997300Y-22257300D02*
X20022700Y-22282700D01*
X20022700Y-22257300D02*
X19997300Y-22282700D01*
X20097300Y-15107300D02*
X20122700Y-15132700D01*
X20122700Y-15107300D02*
X20097300Y-15132700D01*
X20097300Y-15407300D02*
X20122700Y-15432700D01*
X20122700Y-15407300D02*
X20097300Y-15432700D01*
X20117300Y-17037300D02*
X20142700Y-17062700D01*
X20142700Y-17037300D02*
X20117300Y-17062700D01*
X20117300Y-17277300D02*
X20142700Y-17302700D01*
X20142700Y-17277300D02*
X20117300Y-17302700D01*
X20117300Y-18797300D02*
X20142700Y-18822700D01*
X20142700Y-18797300D02*
X20117300Y-18822700D01*
X20117300Y-19127300D02*
X20142700Y-19152700D01*
X20142700Y-19127300D02*
X20117300Y-19152700D01*
X20117300Y-20117300D02*
X20142700Y-20142700D01*
X20142700Y-20117300D02*
X20117300Y-20142700D01*
X20117300Y-20307300D02*
X20142700Y-20332700D01*
X20142700Y-20307300D02*
X20117300Y-20332700D01*
X20147300Y-16377300D02*
X20172700Y-16402700D01*
X20172700Y-16377300D02*
X20147300Y-16402700D01*
X20197300Y-15947300D02*
X20222700Y-15972700D01*
X20222700Y-15947300D02*
X20197300Y-15972700D01*
X20197300Y-22607300D02*
X20222700Y-22632700D01*
X20222700Y-22607300D02*
X20197300Y-22632700D01*
X20247300Y-20007300D02*
X20272700Y-20032700D01*
X20272700Y-20007300D02*
X20247300Y-20032700D01*
X20247300Y-21407300D02*
X20272700Y-21432700D01*
X20272700Y-21407300D02*
X20247300Y-21432700D01*
X20297300Y-18557300D02*
X20322700Y-18582700D01*
X20322700Y-18557300D02*
X20297300Y-18582700D01*
X20347300Y-16907300D02*
X20372700Y-16932700D01*
X20372700Y-16907300D02*
X20347300Y-16932700D01*
X20497300Y-15107300D02*
X20522700Y-15132700D01*
X20522700Y-15107300D02*
X20497300Y-15132700D01*
X20497300Y-20757300D02*
X20522700Y-20782700D01*
X20522700Y-20757300D02*
X20497300Y-20782700D01*
X20497300Y-21957300D02*
X20522700Y-21982700D01*
X20522700Y-21957300D02*
X20497300Y-21982700D01*
X20547300Y-16407300D02*
X20572700Y-16432700D01*
X20572700Y-16407300D02*
X20547300Y-16432700D01*
X20547300Y-19457300D02*
X20572700Y-19482700D01*
X20572700Y-19457300D02*
X20547300Y-19482700D01*
X20587300Y-15557300D02*
X20612700Y-15582700D01*
X20612700Y-15557300D02*
X20587300Y-15582700D01*
X20597300Y-15927300D02*
X20622700Y-15952700D01*
X20622700Y-15927300D02*
X20597300Y-15952700D01*
X20597300Y-22607300D02*
X20622700Y-22632700D01*
X20622700Y-22607300D02*
X20597300Y-22632700D01*
X20897300Y-15107300D02*
X20922700Y-15132700D01*
X20922700Y-15107300D02*
X20897300Y-15132700D01*
X20897300Y-15957300D02*
X20922700Y-15982700D01*
X20922700Y-15957300D02*
X20897300Y-15982700D01*
X20897300Y-16307300D02*
X20922700Y-16332700D01*
X20922700Y-16307300D02*
X20897300Y-16332700D01*
X20897300Y-16707300D02*
X20922700Y-16732700D01*
X20922700Y-16707300D02*
X20897300Y-16732700D01*
X20897300Y-17107300D02*
X20922700Y-17132700D01*
X20922700Y-17107300D02*
X20897300Y-17132700D01*
X20897300Y-17507300D02*
X20922700Y-17532700D01*
X20922700Y-17507300D02*
X20897300Y-17532700D01*
X20897300Y-18207300D02*
X20922700Y-18232700D01*
X20922700Y-18207300D02*
X20897300Y-18232700D01*
X20897300Y-18607300D02*
X20922700Y-18632700D01*
X20922700Y-18607300D02*
X20897300Y-18632700D01*
X20897300Y-19007300D02*
X20922700Y-19032700D01*
X20922700Y-19007300D02*
X20897300Y-19032700D01*
X20897300Y-19407300D02*
X20922700Y-19432700D01*
X20922700Y-19407300D02*
X20897300Y-19432700D01*
X20897300Y-19807300D02*
X20922700Y-19832700D01*
X20922700Y-19807300D02*
X20897300Y-19832700D01*
X20897300Y-20207300D02*
X20922700Y-20232700D01*
X20922700Y-20207300D02*
X20897300Y-20232700D01*
X20897300Y-20607300D02*
X20922700Y-20632700D01*
X20922700Y-20607300D02*
X20897300Y-20632700D01*
X20897300Y-21007300D02*
X20922700Y-21032700D01*
X20922700Y-21007300D02*
X20897300Y-21032700D01*
X20927300Y-15297300D02*
X20952700Y-15322700D01*
X20952700Y-15297300D02*
X20927300Y-15322700D01*
X20947300Y-15567300D02*
X20972700Y-15592700D01*
X20972700Y-15567300D02*
X20947300Y-15592700D01*
X20977300Y-15207300D02*
X21002700Y-15232700D01*
X21002700Y-15207300D02*
X20977300Y-15232700D01*
X20997300Y-21407300D02*
X21022700Y-21432700D01*
X21022700Y-21407300D02*
X20997300Y-21432700D01*
X20997300Y-21807300D02*
X21022700Y-21832700D01*
X21022700Y-21807300D02*
X20997300Y-21832700D01*
X20997300Y-22207300D02*
X21022700Y-22232700D01*
X21022700Y-22207300D02*
X20997300Y-22232700D01*
X20997300Y-22607300D02*
X21022700Y-22632700D01*
X21022700Y-22607300D02*
X20997300Y-22632700D01*
X21027300Y-15537300D02*
X21052700Y-15562700D01*
X21052700Y-15537300D02*
X21027300Y-15562700D01*
X21029000Y-15314400D02*
X21054400Y-15339800D01*
X21054400Y-15314400D02*
X21029000Y-15339800D01*
X21029000Y-15390200D02*
X21054400Y-15415600D01*
X21054400Y-15390200D02*
X21029000Y-15415600D01*
X21067300Y-15207300D02*
X21092700Y-15232700D01*
X21092700Y-15207300D02*
X21067300Y-15232700D01*
X21097300Y-15707300D02*
X21122700Y-15732700D01*
X21122700Y-15707300D02*
X21097300Y-15732700D01*
X21157300Y-15537300D02*
X21182700Y-15562700D01*
X21182700Y-15537300D02*
X21157300Y-15562700D01*
X21277300Y-15117300D02*
X21302700Y-15142700D01*
X21302700Y-15117300D02*
X21277300Y-15142700D01*
X21277300Y-15627300D02*
X21302700Y-15652700D01*
X21302700Y-15627300D02*
X21277300Y-15652700D01*
X21552300Y-18037300D02*
X21577700Y-18062700D01*
X21577700Y-18037300D02*
X21552300Y-18062700D01*
X21577300Y-18562300D02*
X21602700Y-18587700D01*
X21602700Y-18562300D02*
X21577300Y-18587700D01*
X21577300Y-19062300D02*
X21602700Y-19087700D01*
X21602700Y-19062300D02*
X21577300Y-19087700D01*
X21577300Y-19562300D02*
X21602700Y-19587700D01*
X21602700Y-19562300D02*
X21577300Y-19587700D01*
X21602300Y-20162300D02*
X21627700Y-20187700D01*
X21627700Y-20162300D02*
X21602300Y-20187700D01*
X21677850Y-20430750D02*
X21703250Y-20456150D01*
X21703250Y-20430750D02*
X21677850Y-20456150D01*
X21684200Y-19878300D02*
X21709600Y-19903700D01*
X21709600Y-19878300D02*
X21684200Y-19903700D01*
X21752300Y-18262300D02*
X21777700Y-18287700D01*
X21777700Y-18262300D02*
X21752300Y-18287700D01*
X21877300Y-20562300D02*
X21902700Y-20587700D01*
X21902700Y-20562300D02*
X21877300Y-20587700D01*
X21893750Y-19878300D02*
X21919150Y-19903700D01*
X21919150Y-19878300D02*
X21893750Y-19903700D01*
X21967300Y-19685150D02*
X21992700Y-19710550D01*
X21992700Y-19685150D02*
X21967300Y-19710550D01*
X21977300Y-18237300D02*
X22002700Y-18262700D01*
X22002700Y-18237300D02*
X21977300Y-18262700D01*
X21977300Y-18812300D02*
X22002700Y-18837700D01*
X22002700Y-18812300D02*
X21977300Y-18837700D01*
X21977300Y-19512300D02*
X22002700Y-19537700D01*
X22002700Y-19512300D02*
X21977300Y-19537700D01*
X22046350Y-19579850D02*
X22071750Y-19605250D01*
X22071750Y-19579850D02*
X22046350Y-19605250D01*
X22052300Y-18037300D02*
X22077700Y-18062700D01*
X22077700Y-18037300D02*
X22052300Y-18062700D01*
X22097300Y-19227300D02*
X22122700Y-19252700D01*
X22122700Y-19227300D02*
X22097300Y-19252700D01*
X22122150Y-19579850D02*
X22147550Y-19605250D01*
X22147550Y-19579850D02*
X22122150Y-19605250D01*
X22202300Y-19512300D02*
X22227700Y-19537700D01*
X22227700Y-19512300D02*
X22202300Y-19537700D01*
X22236650Y-19630650D02*
X22262050Y-19656050D01*
X22262050Y-19630650D02*
X22236650Y-19656050D01*
X22262050Y-18487650D02*
X22287450Y-18513050D01*
X22287450Y-18487650D02*
X22262050Y-18513050D01*
X22268400Y-18601950D02*
X22293800Y-18627350D01*
X22293800Y-18601950D02*
X22268400Y-18627350D01*
X22277300Y-19017300D02*
X22302700Y-19042700D01*
X22302700Y-19017300D02*
X22277300Y-19042700D01*
X22293800Y-18697200D02*
X22319200Y-18722600D01*
X22319200Y-18697200D02*
X22293800Y-18722600D01*
X22325550Y-19687800D02*
X22350950Y-19713200D01*
X22350950Y-19687800D02*
X22325550Y-19713200D01*
X22327300Y-20562300D02*
X22352700Y-20587700D01*
X22352700Y-20562300D02*
X22327300Y-20587700D01*
X22370000Y-19878300D02*
X22395400Y-19903700D01*
X22395400Y-19878300D02*
X22370000Y-19903700D01*
X22377300Y-19337300D02*
X22402700Y-19362700D01*
X22402700Y-19337300D02*
X22377300Y-19362700D01*
X22402300Y-18812300D02*
X22427700Y-18837700D01*
X22427700Y-18812300D02*
X22402300Y-18837700D01*
X22451050Y-18748000D02*
X22476450Y-18773400D01*
X22476450Y-18748000D02*
X22451050Y-18773400D01*
X22526850Y-18748000D02*
X22552250Y-18773400D01*
X22552250Y-18748000D02*
X22526850Y-18773400D01*
X22552300Y-18037300D02*
X22577700Y-18062700D01*
X22577700Y-18037300D02*
X22552300Y-18062700D01*
X22566850Y-19878300D02*
X22592250Y-19903700D01*
X22592250Y-19878300D02*
X22566850Y-19903700D01*
X22566850Y-20424400D02*
X22592250Y-20449800D01*
X22592250Y-20424400D02*
X22566850Y-20449800D01*
X22577300Y-18837300D02*
X22602700Y-18862700D01*
X22602700Y-18837300D02*
X22577300Y-18862700D01*
X22577300Y-19129000D02*
X22602700Y-19154400D01*
X22602700Y-19129000D02*
X22577300Y-19154400D01*
X22630350Y-18735300D02*
X22655750Y-18760700D01*
X22655750Y-18735300D02*
X22630350Y-18760700D01*
X22776400Y-18487650D02*
X22801800Y-18513050D01*
X22801800Y-18487650D02*
X22776400Y-18513050D01*
X22852300Y-19537300D02*
X22877700Y-19562700D01*
X22877700Y-19537300D02*
X22852300Y-19562700D01*
X22927300Y-19087300D02*
X22952700Y-19112700D01*
X22952700Y-19087300D02*
X22927300Y-19112700D01*
X23002300Y-20562300D02*
X23027700Y-20587700D01*
X23027700Y-20562300D02*
X23002300Y-20587700D01*
X23052300Y-18037300D02*
X23077700Y-18062700D01*
X23077700Y-18037300D02*
X23052300Y-18062700D01*
X23277300Y-19962300D02*
X23302700Y-19987700D01*
X23302700Y-19962300D02*
X23277300Y-19987700D01*
X23402300Y-18037300D02*
X23427700Y-18062700D01*
X23427700Y-18037300D02*
X23402300Y-18062700D01*
X23502300Y-20562300D02*
X23527700Y-20587700D01*
X23527700Y-20562300D02*
X23502300Y-20587700D01*
X23577300Y-18562300D02*
X23602700Y-18587700D01*
X23602700Y-18562300D02*
X23577300Y-18587700D01*
X23577300Y-19012300D02*
X23602700Y-19037700D01*
X23602700Y-19012300D02*
X23577300Y-19037700D01*
X23577300Y-19437300D02*
X23602700Y-19462700D01*
X23602700Y-19437300D02*
X23577300Y-19462700D01*
X24077300Y-18187300D02*
X24102700Y-18212700D01*
X24102700Y-18187300D02*
X24077300Y-18212700D01*
X24077300Y-18687300D02*
X24102700Y-18712700D01*
X24102700Y-18687300D02*
X24077300Y-18712700D01*
X24077300Y-19187300D02*
X24102700Y-19212700D01*
X24102700Y-19187300D02*
X24077300Y-19212700D01*
X24077300Y-19687300D02*
X24102700Y-19712700D01*
X24102700Y-19687300D02*
X24077300Y-19712700D01*
X16446510Y-22370000D02*
G75*
G03*
X16446510Y-22370000I-16510J0D01*
G01*
X16446510Y-22540000D02*
G75*
G03*
X16446510Y-22540000I-16510J0D01*
G01*
X16556510Y-22450000D02*
G75*
G03*
X16556510Y-22450000I-16510J0D01*
G01*
X16946510Y-15670000D02*
G75*
G03*
X16946510Y-15670000I-16510J0D01*
G01*
X16946510Y-15770000D02*
G75*
G03*
X16946510Y-15770000I-16510J0D01*
G01*
X18106510Y-21095000D02*
G75*
G03*
X18106510Y-21095000I-16510J0D01*
G01*
X18106510Y-21185000D02*
G75*
G03*
X18106510Y-21185000I-16510J0D01*
G01*
X18106510Y-21275000D02*
G75*
G03*
X18106510Y-21275000I-16510J0D01*
G01*
X21256510Y-19055000D02*
G75*
G03*
X21256510Y-19055000I-16510J0D01*
G01*
X21256510Y-19145000D02*
G75*
G03*
X21256510Y-19145000I-16510J0D01*
G01*
X21256510Y-19235000D02*
G75*
G03*
X21256510Y-19235000I-16510J0D01*
G01*
X17020000Y-21035000D02*
X17020000Y-21085000D01*
X16995000Y-21060000D02*
X17045000Y-21060000D01*
X17090294Y-20865294D02*
X17090294Y-20915294D01*
X17065294Y-20890294D02*
X17115294Y-20890294D01*
X17090294Y-21204706D02*
X17090294Y-21254706D01*
X17065294Y-21229706D02*
X17115294Y-21229706D01*
X17260000Y-20795000D02*
X17260000Y-20845000D01*
X17235000Y-20820000D02*
X17285000Y-20820000D01*
X17260000Y-21275000D02*
X17260000Y-21325000D01*
X17235000Y-21300000D02*
X17285000Y-21300000D01*
X17429706Y-20865294D02*
X17429706Y-20915294D01*
X17404706Y-20890294D02*
X17454706Y-20890294D01*
X17429706Y-21204706D02*
X17429706Y-21254706D01*
X17404706Y-21229706D02*
X17454706Y-21229706D01*
X17500000Y-21035000D02*
X17500000Y-21085000D01*
X17475000Y-21060000D02*
X17525000Y-21060000D01*
X18220000Y-14755000D02*
X18220000Y-14805000D01*
X18195000Y-14780000D02*
X18245000Y-14780000D01*
X18220000Y-17145000D02*
X18220000Y-17195000D01*
X18195000Y-17170000D02*
X18245000Y-17170000D01*
X18290294Y-14585294D02*
X18290294Y-14635294D01*
X18265294Y-14610294D02*
X18315294Y-14610294D01*
X18290294Y-14924706D02*
X18290294Y-14974706D01*
X18265294Y-14949706D02*
X18315294Y-14949706D01*
X18290294Y-16975294D02*
X18290294Y-17025294D01*
X18265294Y-17000294D02*
X18315294Y-17000294D01*
X18290294Y-17314706D02*
X18290294Y-17364706D01*
X18265294Y-17339706D02*
X18315294Y-17339706D01*
X18460000Y-14515000D02*
X18460000Y-14565000D01*
X18435000Y-14540000D02*
X18485000Y-14540000D01*
X18460000Y-14995000D02*
X18460000Y-15045000D01*
X18435000Y-15020000D02*
X18485000Y-15020000D01*
X18460000Y-16905000D02*
X18460000Y-16955000D01*
X18435000Y-16930000D02*
X18485000Y-16930000D01*
X18460000Y-17385000D02*
X18460000Y-17435000D01*
X18435000Y-17410000D02*
X18485000Y-17410000D01*
X18520000Y-20245000D02*
X18520000Y-20295000D01*
X18495000Y-20270000D02*
X18545000Y-20270000D01*
X18590294Y-20075294D02*
X18590294Y-20125294D01*
X18565294Y-20100294D02*
X18615294Y-20100294D01*
X18590294Y-20414706D02*
X18590294Y-20464706D01*
X18565294Y-20439706D02*
X18615294Y-20439706D01*
X18629706Y-14585294D02*
X18629706Y-14635294D01*
X18604706Y-14610294D02*
X18654706Y-14610294D01*
X18629706Y-14924706D02*
X18629706Y-14974706D01*
X18604706Y-14949706D02*
X18654706Y-14949706D01*
X18629706Y-16975294D02*
X18629706Y-17025294D01*
X18604706Y-17000294D02*
X18654706Y-17000294D01*
X18629706Y-17314706D02*
X18629706Y-17364706D01*
X18604706Y-17339706D02*
X18654706Y-17339706D01*
X18700000Y-14755000D02*
X18700000Y-14805000D01*
X18675000Y-14780000D02*
X18725000Y-14780000D01*
X18700000Y-17145000D02*
X18700000Y-17195000D01*
X18675000Y-17170000D02*
X18725000Y-17170000D01*
X18760000Y-20005000D02*
X18760000Y-20055000D01*
X18735000Y-20030000D02*
X18785000Y-20030000D01*
X18760000Y-20485000D02*
X18760000Y-20535000D01*
X18735000Y-20510000D02*
X18785000Y-20510000D01*
X18929706Y-20075294D02*
X18929706Y-20125294D01*
X18904706Y-20100294D02*
X18954706Y-20100294D01*
X18929706Y-20414706D02*
X18929706Y-20464706D01*
X18904706Y-20439706D02*
X18954706Y-20439706D01*
X19000000Y-20245000D02*
X19000000Y-20295000D01*
X18975000Y-20270000D02*
X19025000Y-20270000D01*
X20310000Y-17795000D02*
X20310000Y-17845000D01*
X20285000Y-17820000D02*
X20335000Y-17820000D01*
X20380294Y-17625294D02*
X20380294Y-17675294D01*
X20355294Y-17650294D02*
X20405294Y-17650294D01*
X20380294Y-17964706D02*
X20380294Y-18014706D01*
X20355294Y-17989706D02*
X20405294Y-17989706D01*
X20550000Y-17555000D02*
X20550000Y-17605000D01*
X20525000Y-17580000D02*
X20575000Y-17580000D01*
X20550000Y-18035000D02*
X20550000Y-18085000D01*
X20525000Y-18060000D02*
X20575000Y-18060000D01*
X20719706Y-17625294D02*
X20719706Y-17675294D01*
X20694706Y-17650294D02*
X20744706Y-17650294D01*
X20719706Y-17964706D02*
X20719706Y-18014706D01*
X20694706Y-17989706D02*
X20744706Y-17989706D01*
X20790000Y-17795000D02*
X20790000Y-17845000D01*
X20765000Y-17820000D02*
X20815000Y-17820000D01*
X21350000Y-22265000D02*
X21350000Y-22315000D01*
X21325000Y-22290000D02*
X21375000Y-22290000D01*
X21420294Y-22095294D02*
X21420294Y-22145294D01*
X21395294Y-22120294D02*
X21445294Y-22120294D01*
X21420294Y-22434706D02*
X21420294Y-22484706D01*
X21395294Y-22459706D02*
X21445294Y-22459706D01*
X21590000Y-22025000D02*
X21590000Y-22075000D01*
X21565000Y-22050000D02*
X21615000Y-22050000D01*
X21590000Y-22505000D02*
X21590000Y-22555000D01*
X21565000Y-22530000D02*
X21615000Y-22530000D01*
X21759706Y-22095294D02*
X21759706Y-22145294D01*
X21734706Y-22120294D02*
X21784706Y-22120294D01*
X21759706Y-22434706D02*
X21759706Y-22484706D01*
X21734706Y-22459706D02*
X21784706Y-22459706D01*
X21830000Y-22265000D02*
X21830000Y-22315000D01*
X21805000Y-22290000D02*
X21855000Y-22290000D01*
X23570000Y-17755000D02*
X23570000Y-17805000D01*
X23545000Y-17780000D02*
X23595000Y-17780000D01*
X23570000Y-20145000D02*
X23570000Y-20195000D01*
X23545000Y-20170000D02*
X23595000Y-20170000D01*
X23640294Y-17585294D02*
X23640294Y-17635294D01*
X23615294Y-17610294D02*
X23665294Y-17610294D01*
X23640294Y-17924706D02*
X23640294Y-17974706D01*
X23615294Y-17949706D02*
X23665294Y-17949706D01*
X23640294Y-19975294D02*
X23640294Y-20025294D01*
X23615294Y-20000294D02*
X23665294Y-20000294D01*
X23640294Y-20314706D02*
X23640294Y-20364706D01*
X23615294Y-20339706D02*
X23665294Y-20339706D01*
X23810000Y-17515000D02*
X23810000Y-17565000D01*
X23785000Y-17540000D02*
X23835000Y-17540000D01*
X23810000Y-17995000D02*
X23810000Y-18045000D01*
X23785000Y-18020000D02*
X23835000Y-18020000D01*
X23810000Y-19905000D02*
X23810000Y-19955000D01*
X23785000Y-19930000D02*
X23835000Y-19930000D01*
X23810000Y-20385000D02*
X23810000Y-20435000D01*
X23785000Y-20410000D02*
X23835000Y-20410000D01*
X23979706Y-17585294D02*
X23979706Y-17635294D01*
X23954706Y-17610294D02*
X24004706Y-17610294D01*
X23979706Y-17924706D02*
X23979706Y-17974706D01*
X23954706Y-17949706D02*
X24004706Y-17949706D01*
X23979706Y-19975294D02*
X23979706Y-20025294D01*
X23954706Y-20000294D02*
X24004706Y-20000294D01*
X23979706Y-20314706D02*
X23979706Y-20364706D01*
X23954706Y-20339706D02*
X24004706Y-20339706D01*
X24050000Y-17755000D02*
X24050000Y-17805000D01*
X24025000Y-17780000D02*
X24075000Y-17780000D01*
X24050000Y-20145000D02*
X24050000Y-20195000D01*
X24025000Y-20170000D02*
X24075000Y-20170000D01*
X17373138Y-21173138D02*
X17373138Y-20946862D01*
X17146862Y-20946862D01*
X17146862Y-21173138D01*
X17373138Y-21173138D01*
X18573138Y-14893138D02*
X18573138Y-14666862D01*
X18346862Y-14666862D01*
X18346862Y-14893138D01*
X18573138Y-14893138D01*
X18573138Y-17283138D02*
X18573138Y-17056862D01*
X18346862Y-17056862D01*
X18346862Y-17283138D01*
X18573138Y-17283138D01*
X18873138Y-20383138D02*
X18873138Y-20156862D01*
X18646862Y-20156862D01*
X18646862Y-20383138D01*
X18873138Y-20383138D01*
X20663138Y-17933138D02*
X20663138Y-17706862D01*
X20436862Y-17706862D01*
X20436862Y-17933138D01*
X20663138Y-17933138D01*
X21703138Y-22403138D02*
X21703138Y-22176862D01*
X21476862Y-22176862D01*
X21476862Y-22403138D01*
X21703138Y-22403138D01*
X23923138Y-17893138D02*
X23923138Y-17666862D01*
X23696862Y-17666862D01*
X23696862Y-17893138D01*
X23923138Y-17893138D01*
X23923138Y-20283138D02*
X23923138Y-20056862D01*
X23696862Y-20056862D01*
X23696862Y-20283138D01*
X23923138Y-20283138D01*
D12*
X16163928Y-23288214D02*
X16163928Y-22988214D01*
X16235357Y-22988214D01*
X16278214Y-23002500D01*
X16306786Y-23031071D01*
X16321071Y-23059643D01*
X16335357Y-23116786D01*
X16335357Y-23159643D01*
X16321071Y-23216786D01*
X16306786Y-23245357D01*
X16278214Y-23273929D01*
X16235357Y-23288214D01*
X16163928Y-23288214D01*
X16463928Y-23288214D02*
X16463928Y-23088214D01*
X16463928Y-23145357D02*
X16478214Y-23116786D01*
X16492500Y-23102500D01*
X16521071Y-23088214D01*
X16549643Y-23088214D01*
X16649643Y-23288214D02*
X16649643Y-23088214D01*
X16649643Y-22988214D02*
X16635357Y-23002500D01*
X16649643Y-23016786D01*
X16663928Y-23002500D01*
X16649643Y-22988214D01*
X16649643Y-23016786D01*
X16835357Y-23288214D02*
X16806786Y-23273929D01*
X16792500Y-23245357D01*
X16792500Y-22988214D01*
X16992500Y-23288214D02*
X16963928Y-23273929D01*
X16949643Y-23245357D01*
X16949643Y-22988214D01*
X17335357Y-23288214D02*
X17335357Y-22988214D01*
X17435357Y-23202500D01*
X17535357Y-22988214D01*
X17535357Y-23288214D01*
X17806786Y-23288214D02*
X17806786Y-23131071D01*
X17792500Y-23102500D01*
X17763928Y-23088214D01*
X17706786Y-23088214D01*
X17678214Y-23102500D01*
X17806786Y-23273929D02*
X17778214Y-23288214D01*
X17706786Y-23288214D01*
X17678214Y-23273929D01*
X17663928Y-23245357D01*
X17663928Y-23216786D01*
X17678214Y-23188214D01*
X17706786Y-23173929D01*
X17778214Y-23173929D01*
X17806786Y-23159643D01*
X17949643Y-23088214D02*
X17949643Y-23388214D01*
X17949643Y-23102500D02*
X17978214Y-23088214D01*
X18035357Y-23088214D01*
X18063928Y-23102500D01*
X18078214Y-23116786D01*
X18092500Y-23145357D01*
X18092500Y-23231071D01*
X18078214Y-23259643D01*
X18063928Y-23273929D01*
X18035357Y-23288214D01*
X17978214Y-23288214D01*
X17949643Y-23273929D01*
X18221071Y-23259643D02*
X18235357Y-23273929D01*
X18221071Y-23288214D01*
X18206786Y-23273929D01*
X18221071Y-23259643D01*
X18221071Y-23288214D01*
X18221071Y-23102500D02*
X18235357Y-23116786D01*
X18221071Y-23131071D01*
X18206786Y-23116786D01*
X18221071Y-23102500D01*
X18221071Y-23131071D01*
X15852100Y-23769800D02*
X15877500Y-23795200D01*
X15877500Y-23769800D02*
X15852100Y-23795200D01*
X16221071Y-23618214D02*
X16249643Y-23618214D01*
X16278214Y-23632500D01*
X16292500Y-23646786D01*
X16306786Y-23675357D01*
X16321071Y-23732500D01*
X16321071Y-23803929D01*
X16306786Y-23861071D01*
X16292500Y-23889643D01*
X16278214Y-23903929D01*
X16249643Y-23918214D01*
X16221071Y-23918214D01*
X16192500Y-23903929D01*
X16178214Y-23889643D01*
X16163928Y-23861071D01*
X16149643Y-23803929D01*
X16149643Y-23732500D01*
X16163928Y-23675357D01*
X16178214Y-23646786D01*
X16192500Y-23632500D01*
X16221071Y-23618214D01*
X16449643Y-23889643D02*
X16463928Y-23903929D01*
X16449643Y-23918214D01*
X16435357Y-23903929D01*
X16449643Y-23889643D01*
X16449643Y-23918214D01*
X16578214Y-23646786D02*
X16592500Y-23632500D01*
X16621071Y-23618214D01*
X16692500Y-23618214D01*
X16721071Y-23632500D01*
X16735357Y-23646786D01*
X16749643Y-23675357D01*
X16749643Y-23703929D01*
X16735357Y-23746786D01*
X16563928Y-23918214D01*
X16749643Y-23918214D01*
X17021071Y-23618214D02*
X16878214Y-23618214D01*
X16863928Y-23761071D01*
X16878214Y-23746786D01*
X16906786Y-23732500D01*
X16978214Y-23732500D01*
X17006786Y-23746786D01*
X17021071Y-23761071D01*
X17035357Y-23789643D01*
X17035357Y-23861071D01*
X17021071Y-23889643D01*
X17006786Y-23903929D01*
X16978214Y-23918214D01*
X16906786Y-23918214D01*
X16878214Y-23903929D01*
X16863928Y-23889643D01*
X17292500Y-23718214D02*
X17292500Y-23918214D01*
X17221071Y-23603929D02*
X17149643Y-23818214D01*
X17335357Y-23818214D01*
X17449643Y-23918214D02*
X17449643Y-23718214D01*
X17449643Y-23746786D02*
X17463928Y-23732500D01*
X17492500Y-23718214D01*
X17535357Y-23718214D01*
X17563928Y-23732500D01*
X17578214Y-23761071D01*
X17578214Y-23918214D01*
X17578214Y-23761071D02*
X17592500Y-23732500D01*
X17621071Y-23718214D01*
X17663928Y-23718214D01*
X17692500Y-23732500D01*
X17706786Y-23761071D01*
X17706786Y-23918214D01*
X17849643Y-23918214D02*
X17849643Y-23718214D01*
X17849643Y-23746786D02*
X17863928Y-23732500D01*
X17892500Y-23718214D01*
X17935357Y-23718214D01*
X17963928Y-23732500D01*
X17978214Y-23761071D01*
X17978214Y-23918214D01*
X17978214Y-23761071D02*
X17992500Y-23732500D01*
X18021071Y-23718214D01*
X18063928Y-23718214D01*
X18092500Y-23732500D01*
X18106786Y-23761071D01*
X18106786Y-23918214D01*
X18692500Y-23603929D02*
X18435357Y-23989643D01*
X19078214Y-23618214D02*
X19106786Y-23618214D01*
X19135357Y-23632500D01*
X19149643Y-23646786D01*
X19163928Y-23675357D01*
X19178214Y-23732500D01*
X19178214Y-23803929D01*
X19163928Y-23861071D01*
X19149643Y-23889643D01*
X19135357Y-23903929D01*
X19106786Y-23918214D01*
X19078214Y-23918214D01*
X19049643Y-23903929D01*
X19035357Y-23889643D01*
X19021071Y-23861071D01*
X19006786Y-23803929D01*
X19006786Y-23732500D01*
X19021071Y-23675357D01*
X19035357Y-23646786D01*
X19049643Y-23632500D01*
X19078214Y-23618214D01*
X19306786Y-23889643D02*
X19321071Y-23903929D01*
X19306786Y-23918214D01*
X19292500Y-23903929D01*
X19306786Y-23889643D01*
X19306786Y-23918214D01*
X19506786Y-23618214D02*
X19535357Y-23618214D01*
X19563928Y-23632500D01*
X19578214Y-23646786D01*
X19592500Y-23675357D01*
X19606786Y-23732500D01*
X19606786Y-23803929D01*
X19592500Y-23861071D01*
X19578214Y-23889643D01*
X19563928Y-23903929D01*
X19535357Y-23918214D01*
X19506786Y-23918214D01*
X19478214Y-23903929D01*
X19463928Y-23889643D01*
X19449643Y-23861071D01*
X19435357Y-23803929D01*
X19435357Y-23732500D01*
X19449643Y-23675357D01*
X19463928Y-23646786D01*
X19478214Y-23632500D01*
X19506786Y-23618214D01*
X19892500Y-23918214D02*
X19721071Y-23918214D01*
X19806786Y-23918214D02*
X19806786Y-23618214D01*
X19778214Y-23661071D01*
X19749643Y-23689643D01*
X19721071Y-23703929D01*
X20078214Y-23618214D02*
X20106786Y-23618214D01*
X20135357Y-23632500D01*
X20149643Y-23646786D01*
X20163928Y-23675357D01*
X20178214Y-23732500D01*
X20178214Y-23803929D01*
X20163928Y-23861071D01*
X20149643Y-23889643D01*
X20135357Y-23903929D01*
X20106786Y-23918214D01*
X20078214Y-23918214D01*
X20049643Y-23903929D01*
X20035357Y-23889643D01*
X20021071Y-23861071D01*
X20006786Y-23803929D01*
X20006786Y-23732500D01*
X20021071Y-23675357D01*
X20035357Y-23646786D01*
X20049643Y-23632500D01*
X20078214Y-23618214D01*
X20363928Y-23618214D02*
X20392500Y-23618214D01*
X20421071Y-23632500D01*
X20435357Y-23646786D01*
X20449643Y-23675357D01*
X20463928Y-23732500D01*
X20463928Y-23803929D01*
X20449643Y-23861071D01*
X20435357Y-23889643D01*
X20421071Y-23903929D01*
X20392500Y-23918214D01*
X20363928Y-23918214D01*
X20335357Y-23903929D01*
X20321071Y-23889643D01*
X20306786Y-23861071D01*
X20292500Y-23803929D01*
X20292500Y-23732500D01*
X20306786Y-23675357D01*
X20321071Y-23646786D01*
X20335357Y-23632500D01*
X20363928Y-23618214D01*
X20578214Y-23618214D02*
X20578214Y-23675357D01*
X20692500Y-23618214D02*
X20692500Y-23675357D01*
X21135357Y-24032500D02*
X21121071Y-24018214D01*
X21092500Y-23975357D01*
X21078214Y-23946786D01*
X21063928Y-23903929D01*
X21049643Y-23832500D01*
X21049643Y-23775357D01*
X21063928Y-23703929D01*
X21078214Y-23661071D01*
X21092500Y-23632500D01*
X21121071Y-23589643D01*
X21135357Y-23575357D01*
X21235357Y-23646786D02*
X21249643Y-23632500D01*
X21278214Y-23618214D01*
X21349643Y-23618214D01*
X21378214Y-23632500D01*
X21392500Y-23646786D01*
X21406786Y-23675357D01*
X21406786Y-23703929D01*
X21392500Y-23746786D01*
X21221071Y-23918214D01*
X21406786Y-23918214D01*
X21521071Y-23646786D02*
X21535357Y-23632500D01*
X21563928Y-23618214D01*
X21635357Y-23618214D01*
X21663928Y-23632500D01*
X21678214Y-23646786D01*
X21692500Y-23675357D01*
X21692500Y-23703929D01*
X21678214Y-23746786D01*
X21506786Y-23918214D01*
X21692500Y-23918214D01*
X21806786Y-23646786D02*
X21821071Y-23632500D01*
X21849643Y-23618214D01*
X21921071Y-23618214D01*
X21949643Y-23632500D01*
X21963928Y-23646786D01*
X21978214Y-23675357D01*
X21978214Y-23703929D01*
X21963928Y-23746786D01*
X21792500Y-23918214D01*
X21978214Y-23918214D01*
X22335357Y-23918214D02*
X22335357Y-23618214D01*
X22463928Y-23918214D02*
X22463928Y-23761071D01*
X22449643Y-23732500D01*
X22421071Y-23718214D01*
X22378214Y-23718214D01*
X22349643Y-23732500D01*
X22335357Y-23746786D01*
X22649643Y-23918214D02*
X22621071Y-23903929D01*
X22606786Y-23889643D01*
X22592500Y-23861071D01*
X22592500Y-23775357D01*
X22606786Y-23746786D01*
X22621071Y-23732500D01*
X22649643Y-23718214D01*
X22692500Y-23718214D01*
X22721071Y-23732500D01*
X22735357Y-23746786D01*
X22749643Y-23775357D01*
X22749643Y-23861071D01*
X22735357Y-23889643D01*
X22721071Y-23903929D01*
X22692500Y-23918214D01*
X22649643Y-23918214D01*
X22921071Y-23918214D02*
X22892500Y-23903929D01*
X22878214Y-23875357D01*
X22878214Y-23618214D01*
X23149643Y-23903929D02*
X23121071Y-23918214D01*
X23063928Y-23918214D01*
X23035357Y-23903929D01*
X23021071Y-23875357D01*
X23021071Y-23761071D01*
X23035357Y-23732500D01*
X23063928Y-23718214D01*
X23121071Y-23718214D01*
X23149643Y-23732500D01*
X23163928Y-23761071D01*
X23163928Y-23789643D01*
X23021071Y-23818214D01*
X23278214Y-23903929D02*
X23306786Y-23918214D01*
X23363928Y-23918214D01*
X23392500Y-23903929D01*
X23406786Y-23875357D01*
X23406786Y-23861071D01*
X23392500Y-23832500D01*
X23363928Y-23818214D01*
X23321071Y-23818214D01*
X23292500Y-23803929D01*
X23278214Y-23775357D01*
X23278214Y-23761071D01*
X23292500Y-23732500D01*
X23321071Y-23718214D01*
X23363928Y-23718214D01*
X23392500Y-23732500D01*
X23506786Y-24032500D02*
X23521071Y-24018214D01*
X23549643Y-23975357D01*
X23563928Y-23946786D01*
X23578214Y-23903929D01*
X23592500Y-23832500D01*
X23592500Y-23775357D01*
X23578214Y-23703929D01*
X23563928Y-23661071D01*
X23549643Y-23632500D01*
X23521071Y-23589643D01*
X23506786Y-23575357D01*
X15877500Y-24178500D02*
G75*
G03*
X15877500Y-24178500I-16510J0D01*
G01*
X16221071Y-24014214D02*
X16249643Y-24014214D01*
X16278214Y-24028500D01*
X16292500Y-24042786D01*
X16306786Y-24071357D01*
X16321071Y-24128500D01*
X16321071Y-24199929D01*
X16306786Y-24257071D01*
X16292500Y-24285643D01*
X16278214Y-24299929D01*
X16249643Y-24314214D01*
X16221071Y-24314214D01*
X16192500Y-24299929D01*
X16178214Y-24285643D01*
X16163928Y-24257071D01*
X16149643Y-24199929D01*
X16149643Y-24128500D01*
X16163928Y-24071357D01*
X16178214Y-24042786D01*
X16192500Y-24028500D01*
X16221071Y-24014214D01*
X16449643Y-24285643D02*
X16463928Y-24299929D01*
X16449643Y-24314214D01*
X16435357Y-24299929D01*
X16449643Y-24285643D01*
X16449643Y-24314214D01*
X16563928Y-24014214D02*
X16749643Y-24014214D01*
X16649643Y-24128500D01*
X16692500Y-24128500D01*
X16721071Y-24142786D01*
X16735357Y-24157071D01*
X16749643Y-24185643D01*
X16749643Y-24257071D01*
X16735357Y-24285643D01*
X16721071Y-24299929D01*
X16692500Y-24314214D01*
X16606786Y-24314214D01*
X16578214Y-24299929D01*
X16563928Y-24285643D01*
X16849643Y-24014214D02*
X17035357Y-24014214D01*
X16935357Y-24128500D01*
X16978214Y-24128500D01*
X17006786Y-24142786D01*
X17021071Y-24157071D01*
X17035357Y-24185643D01*
X17035357Y-24257071D01*
X17021071Y-24285643D01*
X17006786Y-24299929D01*
X16978214Y-24314214D01*
X16892500Y-24314214D01*
X16863928Y-24299929D01*
X16849643Y-24285643D01*
X17221071Y-24014214D02*
X17249643Y-24014214D01*
X17278214Y-24028500D01*
X17292500Y-24042786D01*
X17306786Y-24071357D01*
X17321071Y-24128500D01*
X17321071Y-24199929D01*
X17306786Y-24257071D01*
X17292500Y-24285643D01*
X17278214Y-24299929D01*
X17249643Y-24314214D01*
X17221071Y-24314214D01*
X17192500Y-24299929D01*
X17178214Y-24285643D01*
X17163928Y-24257071D01*
X17149643Y-24199929D01*
X17149643Y-24128500D01*
X17163928Y-24071357D01*
X17178214Y-24042786D01*
X17192500Y-24028500D01*
X17221071Y-24014214D01*
X17449643Y-24314214D02*
X17449643Y-24114214D01*
X17449643Y-24142786D02*
X17463928Y-24128500D01*
X17492500Y-24114214D01*
X17535357Y-24114214D01*
X17563928Y-24128500D01*
X17578214Y-24157071D01*
X17578214Y-24314214D01*
X17578214Y-24157071D02*
X17592500Y-24128500D01*
X17621071Y-24114214D01*
X17663928Y-24114214D01*
X17692500Y-24128500D01*
X17706786Y-24157071D01*
X17706786Y-24314214D01*
X17849643Y-24314214D02*
X17849643Y-24114214D01*
X17849643Y-24142786D02*
X17863928Y-24128500D01*
X17892500Y-24114214D01*
X17935357Y-24114214D01*
X17963928Y-24128500D01*
X17978214Y-24157071D01*
X17978214Y-24314214D01*
X17978214Y-24157071D02*
X17992500Y-24128500D01*
X18021071Y-24114214D01*
X18063928Y-24114214D01*
X18092500Y-24128500D01*
X18106786Y-24157071D01*
X18106786Y-24314214D01*
X18692500Y-23999929D02*
X18435357Y-24385643D01*
X19078214Y-24014214D02*
X19106786Y-24014214D01*
X19135357Y-24028500D01*
X19149643Y-24042786D01*
X19163928Y-24071357D01*
X19178214Y-24128500D01*
X19178214Y-24199929D01*
X19163928Y-24257071D01*
X19149643Y-24285643D01*
X19135357Y-24299929D01*
X19106786Y-24314214D01*
X19078214Y-24314214D01*
X19049643Y-24299929D01*
X19035357Y-24285643D01*
X19021071Y-24257071D01*
X19006786Y-24199929D01*
X19006786Y-24128500D01*
X19021071Y-24071357D01*
X19035357Y-24042786D01*
X19049643Y-24028500D01*
X19078214Y-24014214D01*
X19306786Y-24285643D02*
X19321071Y-24299929D01*
X19306786Y-24314214D01*
X19292500Y-24299929D01*
X19306786Y-24285643D01*
X19306786Y-24314214D01*
X19506786Y-24014214D02*
X19535357Y-24014214D01*
X19563928Y-24028500D01*
X19578214Y-24042786D01*
X19592500Y-24071357D01*
X19606786Y-24128500D01*
X19606786Y-24199929D01*
X19592500Y-24257071D01*
X19578214Y-24285643D01*
X19563928Y-24299929D01*
X19535357Y-24314214D01*
X19506786Y-24314214D01*
X19478214Y-24299929D01*
X19463928Y-24285643D01*
X19449643Y-24257071D01*
X19435357Y-24199929D01*
X19435357Y-24128500D01*
X19449643Y-24071357D01*
X19463928Y-24042786D01*
X19478214Y-24028500D01*
X19506786Y-24014214D01*
X19892500Y-24314214D02*
X19721071Y-24314214D01*
X19806786Y-24314214D02*
X19806786Y-24014214D01*
X19778214Y-24057071D01*
X19749643Y-24085643D01*
X19721071Y-24099929D01*
X19992500Y-24014214D02*
X20178214Y-24014214D01*
X20078214Y-24128500D01*
X20121071Y-24128500D01*
X20149643Y-24142786D01*
X20163928Y-24157071D01*
X20178214Y-24185643D01*
X20178214Y-24257071D01*
X20163928Y-24285643D01*
X20149643Y-24299929D01*
X20121071Y-24314214D01*
X20035357Y-24314214D01*
X20006786Y-24299929D01*
X19992500Y-24285643D01*
X20363928Y-24014214D02*
X20392500Y-24014214D01*
X20421071Y-24028500D01*
X20435357Y-24042786D01*
X20449643Y-24071357D01*
X20463928Y-24128500D01*
X20463928Y-24199929D01*
X20449643Y-24257071D01*
X20435357Y-24285643D01*
X20421071Y-24299929D01*
X20392500Y-24314214D01*
X20363928Y-24314214D01*
X20335357Y-24299929D01*
X20321071Y-24285643D01*
X20306786Y-24257071D01*
X20292500Y-24199929D01*
X20292500Y-24128500D01*
X20306786Y-24071357D01*
X20321071Y-24042786D01*
X20335357Y-24028500D01*
X20363928Y-24014214D01*
X20578214Y-24014214D02*
X20578214Y-24071357D01*
X20692500Y-24014214D02*
X20692500Y-24071357D01*
X21135357Y-24428500D02*
X21121071Y-24414214D01*
X21092500Y-24371357D01*
X21078214Y-24342786D01*
X21063928Y-24299929D01*
X21049643Y-24228500D01*
X21049643Y-24171357D01*
X21063928Y-24099929D01*
X21078214Y-24057071D01*
X21092500Y-24028500D01*
X21121071Y-23985643D01*
X21135357Y-23971357D01*
X21406786Y-24314214D02*
X21235357Y-24314214D01*
X21321071Y-24314214D02*
X21321071Y-24014214D01*
X21292500Y-24057071D01*
X21263928Y-24085643D01*
X21235357Y-24099929D01*
X21692500Y-24314214D02*
X21521071Y-24314214D01*
X21606786Y-24314214D02*
X21606786Y-24014214D01*
X21578214Y-24057071D01*
X21549643Y-24085643D01*
X21521071Y-24099929D01*
X22049643Y-24314214D02*
X22049643Y-24014214D01*
X22178214Y-24314214D02*
X22178214Y-24157071D01*
X22163928Y-24128500D01*
X22135357Y-24114214D01*
X22092500Y-24114214D01*
X22063928Y-24128500D01*
X22049643Y-24142786D01*
X22363928Y-24314214D02*
X22335357Y-24299929D01*
X22321071Y-24285643D01*
X22306786Y-24257071D01*
X22306786Y-24171357D01*
X22321071Y-24142786D01*
X22335357Y-24128500D01*
X22363928Y-24114214D01*
X22406786Y-24114214D01*
X22435357Y-24128500D01*
X22449643Y-24142786D01*
X22463928Y-24171357D01*
X22463928Y-24257071D01*
X22449643Y-24285643D01*
X22435357Y-24299929D01*
X22406786Y-24314214D01*
X22363928Y-24314214D01*
X22635357Y-24314214D02*
X22606786Y-24299929D01*
X22592500Y-24271357D01*
X22592500Y-24014214D01*
X22863928Y-24299929D02*
X22835357Y-24314214D01*
X22778214Y-24314214D01*
X22749643Y-24299929D01*
X22735357Y-24271357D01*
X22735357Y-24157071D01*
X22749643Y-24128500D01*
X22778214Y-24114214D01*
X22835357Y-24114214D01*
X22863928Y-24128500D01*
X22878214Y-24157071D01*
X22878214Y-24185643D01*
X22735357Y-24214214D01*
X22992500Y-24299929D02*
X23021071Y-24314214D01*
X23078214Y-24314214D01*
X23106786Y-24299929D01*
X23121071Y-24271357D01*
X23121071Y-24257071D01*
X23106786Y-24228500D01*
X23078214Y-24214214D01*
X23035357Y-24214214D01*
X23006786Y-24199929D01*
X22992500Y-24171357D01*
X22992500Y-24157071D01*
X23006786Y-24128500D01*
X23035357Y-24114214D01*
X23078214Y-24114214D01*
X23106786Y-24128500D01*
X23221071Y-24428500D02*
X23235357Y-24414214D01*
X23263928Y-24371357D01*
X23278214Y-24342786D01*
X23292500Y-24299929D01*
X23306786Y-24228500D01*
X23306786Y-24171357D01*
X23292500Y-24099929D01*
X23278214Y-24057071D01*
X23263928Y-24028500D01*
X23235357Y-23985643D01*
X23221071Y-23971357D01*
X15852500Y-24549500D02*
X15852500Y-24599500D01*
X15827500Y-24574500D02*
X15877500Y-24574500D01*
X16221071Y-24410214D02*
X16249643Y-24410214D01*
X16278214Y-24424500D01*
X16292500Y-24438786D01*
X16306786Y-24467357D01*
X16321071Y-24524500D01*
X16321071Y-24595929D01*
X16306786Y-24653071D01*
X16292500Y-24681643D01*
X16278214Y-24695929D01*
X16249643Y-24710214D01*
X16221071Y-24710214D01*
X16192500Y-24695929D01*
X16178214Y-24681643D01*
X16163928Y-24653071D01*
X16149643Y-24595929D01*
X16149643Y-24524500D01*
X16163928Y-24467357D01*
X16178214Y-24438786D01*
X16192500Y-24424500D01*
X16221071Y-24410214D01*
X16449643Y-24681643D02*
X16463928Y-24695929D01*
X16449643Y-24710214D01*
X16435357Y-24695929D01*
X16449643Y-24681643D01*
X16449643Y-24710214D01*
X16735357Y-24410214D02*
X16592500Y-24410214D01*
X16578214Y-24553071D01*
X16592500Y-24538786D01*
X16621071Y-24524500D01*
X16692500Y-24524500D01*
X16721071Y-24538786D01*
X16735357Y-24553071D01*
X16749643Y-24581643D01*
X16749643Y-24653071D01*
X16735357Y-24681643D01*
X16721071Y-24695929D01*
X16692500Y-24710214D01*
X16621071Y-24710214D01*
X16592500Y-24695929D01*
X16578214Y-24681643D01*
X16935357Y-24410214D02*
X16963928Y-24410214D01*
X16992500Y-24424500D01*
X17006786Y-24438786D01*
X17021071Y-24467357D01*
X17035357Y-24524500D01*
X17035357Y-24595929D01*
X17021071Y-24653071D01*
X17006786Y-24681643D01*
X16992500Y-24695929D01*
X16963928Y-24710214D01*
X16935357Y-24710214D01*
X16906786Y-24695929D01*
X16892500Y-24681643D01*
X16878214Y-24653071D01*
X16863928Y-24595929D01*
X16863928Y-24524500D01*
X16878214Y-24467357D01*
X16892500Y-24438786D01*
X16906786Y-24424500D01*
X16935357Y-24410214D01*
X17221071Y-24410214D02*
X17249643Y-24410214D01*
X17278214Y-24424500D01*
X17292500Y-24438786D01*
X17306786Y-24467357D01*
X17321071Y-24524500D01*
X17321071Y-24595929D01*
X17306786Y-24653071D01*
X17292500Y-24681643D01*
X17278214Y-24695929D01*
X17249643Y-24710214D01*
X17221071Y-24710214D01*
X17192500Y-24695929D01*
X17178214Y-24681643D01*
X17163928Y-24653071D01*
X17149643Y-24595929D01*
X17149643Y-24524500D01*
X17163928Y-24467357D01*
X17178214Y-24438786D01*
X17192500Y-24424500D01*
X17221071Y-24410214D01*
X17449643Y-24710214D02*
X17449643Y-24510214D01*
X17449643Y-24538786D02*
X17463928Y-24524500D01*
X17492500Y-24510214D01*
X17535357Y-24510214D01*
X17563928Y-24524500D01*
X17578214Y-24553071D01*
X17578214Y-24710214D01*
X17578214Y-24553071D02*
X17592500Y-24524500D01*
X17621071Y-24510214D01*
X17663928Y-24510214D01*
X17692500Y-24524500D01*
X17706786Y-24553071D01*
X17706786Y-24710214D01*
X17849643Y-24710214D02*
X17849643Y-24510214D01*
X17849643Y-24538786D02*
X17863928Y-24524500D01*
X17892500Y-24510214D01*
X17935357Y-24510214D01*
X17963928Y-24524500D01*
X17978214Y-24553071D01*
X17978214Y-24710214D01*
X17978214Y-24553071D02*
X17992500Y-24524500D01*
X18021071Y-24510214D01*
X18063928Y-24510214D01*
X18092500Y-24524500D01*
X18106786Y-24553071D01*
X18106786Y-24710214D01*
X18692500Y-24395929D02*
X18435357Y-24781643D01*
X19078214Y-24410214D02*
X19106786Y-24410214D01*
X19135357Y-24424500D01*
X19149643Y-24438786D01*
X19163928Y-24467357D01*
X19178214Y-24524500D01*
X19178214Y-24595929D01*
X19163928Y-24653071D01*
X19149643Y-24681643D01*
X19135357Y-24695929D01*
X19106786Y-24710214D01*
X19078214Y-24710214D01*
X19049643Y-24695929D01*
X19035357Y-24681643D01*
X19021071Y-24653071D01*
X19006786Y-24595929D01*
X19006786Y-24524500D01*
X19021071Y-24467357D01*
X19035357Y-24438786D01*
X19049643Y-24424500D01*
X19078214Y-24410214D01*
X19306786Y-24681643D02*
X19321071Y-24695929D01*
X19306786Y-24710214D01*
X19292500Y-24695929D01*
X19306786Y-24681643D01*
X19306786Y-24710214D01*
X19506786Y-24410214D02*
X19535357Y-24410214D01*
X19563928Y-24424500D01*
X19578214Y-24438786D01*
X19592500Y-24467357D01*
X19606786Y-24524500D01*
X19606786Y-24595929D01*
X19592500Y-24653071D01*
X19578214Y-24681643D01*
X19563928Y-24695929D01*
X19535357Y-24710214D01*
X19506786Y-24710214D01*
X19478214Y-24695929D01*
X19463928Y-24681643D01*
X19449643Y-24653071D01*
X19435357Y-24595929D01*
X19435357Y-24524500D01*
X19449643Y-24467357D01*
X19463928Y-24438786D01*
X19478214Y-24424500D01*
X19506786Y-24410214D01*
X19892500Y-24710214D02*
X19721071Y-24710214D01*
X19806786Y-24710214D02*
X19806786Y-24410214D01*
X19778214Y-24453071D01*
X19749643Y-24481643D01*
X19721071Y-24495929D01*
X20035357Y-24710214D02*
X20092500Y-24710214D01*
X20121071Y-24695929D01*
X20135357Y-24681643D01*
X20163928Y-24638786D01*
X20178214Y-24581643D01*
X20178214Y-24467357D01*
X20163928Y-24438786D01*
X20149643Y-24424500D01*
X20121071Y-24410214D01*
X20063928Y-24410214D01*
X20035357Y-24424500D01*
X20021071Y-24438786D01*
X20006786Y-24467357D01*
X20006786Y-24538786D01*
X20021071Y-24567357D01*
X20035357Y-24581643D01*
X20063928Y-24595929D01*
X20121071Y-24595929D01*
X20149643Y-24581643D01*
X20163928Y-24567357D01*
X20178214Y-24538786D01*
X20278214Y-24410214D02*
X20478214Y-24410214D01*
X20349643Y-24710214D01*
X20578214Y-24410214D02*
X20578214Y-24467357D01*
X20692500Y-24410214D02*
X20692500Y-24467357D01*
X21135357Y-24824500D02*
X21121071Y-24810214D01*
X21092500Y-24767357D01*
X21078214Y-24738786D01*
X21063928Y-24695929D01*
X21049643Y-24624500D01*
X21049643Y-24567357D01*
X21063928Y-24495929D01*
X21078214Y-24453071D01*
X21092500Y-24424500D01*
X21121071Y-24381643D01*
X21135357Y-24367357D01*
X21378214Y-24410214D02*
X21321071Y-24410214D01*
X21292500Y-24424500D01*
X21278214Y-24438786D01*
X21249643Y-24481643D01*
X21235357Y-24538786D01*
X21235357Y-24653071D01*
X21249643Y-24681643D01*
X21263928Y-24695929D01*
X21292500Y-24710214D01*
X21349643Y-24710214D01*
X21378214Y-24695929D01*
X21392500Y-24681643D01*
X21406786Y-24653071D01*
X21406786Y-24581643D01*
X21392500Y-24553071D01*
X21378214Y-24538786D01*
X21349643Y-24524500D01*
X21292500Y-24524500D01*
X21263928Y-24538786D01*
X21249643Y-24553071D01*
X21235357Y-24581643D01*
X21663928Y-24510214D02*
X21663928Y-24710214D01*
X21592500Y-24395929D02*
X21521071Y-24610214D01*
X21706786Y-24610214D01*
X22049643Y-24710214D02*
X22049643Y-24410214D01*
X22178214Y-24710214D02*
X22178214Y-24553071D01*
X22163928Y-24524500D01*
X22135357Y-24510214D01*
X22092500Y-24510214D01*
X22063928Y-24524500D01*
X22049643Y-24538786D01*
X22363928Y-24710214D02*
X22335357Y-24695929D01*
X22321071Y-24681643D01*
X22306786Y-24653071D01*
X22306786Y-24567357D01*
X22321071Y-24538786D01*
X22335357Y-24524500D01*
X22363928Y-24510214D01*
X22406786Y-24510214D01*
X22435357Y-24524500D01*
X22449643Y-24538786D01*
X22463928Y-24567357D01*
X22463928Y-24653071D01*
X22449643Y-24681643D01*
X22435357Y-24695929D01*
X22406786Y-24710214D01*
X22363928Y-24710214D01*
X22635357Y-24710214D02*
X22606786Y-24695929D01*
X22592500Y-24667357D01*
X22592500Y-24410214D01*
X22863928Y-24695929D02*
X22835357Y-24710214D01*
X22778214Y-24710214D01*
X22749643Y-24695929D01*
X22735357Y-24667357D01*
X22735357Y-24553071D01*
X22749643Y-24524500D01*
X22778214Y-24510214D01*
X22835357Y-24510214D01*
X22863928Y-24524500D01*
X22878214Y-24553071D01*
X22878214Y-24581643D01*
X22735357Y-24610214D01*
X22992500Y-24695929D02*
X23021071Y-24710214D01*
X23078214Y-24710214D01*
X23106786Y-24695929D01*
X23121071Y-24667357D01*
X23121071Y-24653071D01*
X23106786Y-24624500D01*
X23078214Y-24610214D01*
X23035357Y-24610214D01*
X23006786Y-24595929D01*
X22992500Y-24567357D01*
X22992500Y-24553071D01*
X23006786Y-24524500D01*
X23035357Y-24510214D01*
X23078214Y-24510214D01*
X23106786Y-24524500D01*
X23221071Y-24824500D02*
X23235357Y-24810214D01*
X23263928Y-24767357D01*
X23278214Y-24738786D01*
X23292500Y-24695929D01*
X23306786Y-24624500D01*
X23306786Y-24567357D01*
X23292500Y-24495929D01*
X23278214Y-24453071D01*
X23263928Y-24424500D01*
X23235357Y-24381643D01*
X23221071Y-24367357D01*
X15830638Y-25083638D02*
X15830638Y-24857362D01*
X15604362Y-24857362D01*
X15604362Y-25083638D01*
X15830638Y-25083638D01*
X16135357Y-24806214D02*
X16321071Y-24806214D01*
X16221071Y-24920500D01*
X16263928Y-24920500D01*
X16292500Y-24934786D01*
X16306786Y-24949071D01*
X16321071Y-24977643D01*
X16321071Y-25049071D01*
X16306786Y-25077643D01*
X16292500Y-25091929D01*
X16263928Y-25106214D01*
X16178214Y-25106214D01*
X16149643Y-25091929D01*
X16135357Y-25077643D01*
X16449643Y-25077643D02*
X16463928Y-25091929D01*
X16449643Y-25106214D01*
X16435357Y-25091929D01*
X16449643Y-25077643D01*
X16449643Y-25106214D01*
X16578214Y-24834786D02*
X16592500Y-24820500D01*
X16621071Y-24806214D01*
X16692500Y-24806214D01*
X16721071Y-24820500D01*
X16735357Y-24834786D01*
X16749643Y-24863357D01*
X16749643Y-24891929D01*
X16735357Y-24934786D01*
X16563928Y-25106214D01*
X16749643Y-25106214D01*
X16935357Y-24806214D02*
X16963928Y-24806214D01*
X16992500Y-24820500D01*
X17006786Y-24834786D01*
X17021071Y-24863357D01*
X17035357Y-24920500D01*
X17035357Y-24991929D01*
X17021071Y-25049071D01*
X17006786Y-25077643D01*
X16992500Y-25091929D01*
X16963928Y-25106214D01*
X16935357Y-25106214D01*
X16906786Y-25091929D01*
X16892500Y-25077643D01*
X16878214Y-25049071D01*
X16863928Y-24991929D01*
X16863928Y-24920500D01*
X16878214Y-24863357D01*
X16892500Y-24834786D01*
X16906786Y-24820500D01*
X16935357Y-24806214D01*
X17221071Y-24806214D02*
X17249643Y-24806214D01*
X17278214Y-24820500D01*
X17292500Y-24834786D01*
X17306786Y-24863357D01*
X17321071Y-24920500D01*
X17321071Y-24991929D01*
X17306786Y-25049071D01*
X17292500Y-25077643D01*
X17278214Y-25091929D01*
X17249643Y-25106214D01*
X17221071Y-25106214D01*
X17192500Y-25091929D01*
X17178214Y-25077643D01*
X17163928Y-25049071D01*
X17149643Y-24991929D01*
X17149643Y-24920500D01*
X17163928Y-24863357D01*
X17178214Y-24834786D01*
X17192500Y-24820500D01*
X17221071Y-24806214D01*
X17449643Y-25106214D02*
X17449643Y-24906214D01*
X17449643Y-24934786D02*
X17463928Y-24920500D01*
X17492500Y-24906214D01*
X17535357Y-24906214D01*
X17563928Y-24920500D01*
X17578214Y-24949071D01*
X17578214Y-25106214D01*
X17578214Y-24949071D02*
X17592500Y-24920500D01*
X17621071Y-24906214D01*
X17663928Y-24906214D01*
X17692500Y-24920500D01*
X17706786Y-24949071D01*
X17706786Y-25106214D01*
X17849643Y-25106214D02*
X17849643Y-24906214D01*
X17849643Y-24934786D02*
X17863928Y-24920500D01*
X17892500Y-24906214D01*
X17935357Y-24906214D01*
X17963928Y-24920500D01*
X17978214Y-24949071D01*
X17978214Y-25106214D01*
X17978214Y-24949071D02*
X17992500Y-24920500D01*
X18021071Y-24906214D01*
X18063928Y-24906214D01*
X18092500Y-24920500D01*
X18106786Y-24949071D01*
X18106786Y-25106214D01*
X18692500Y-24791929D02*
X18435357Y-25177643D01*
X19078214Y-24806214D02*
X19106786Y-24806214D01*
X19135357Y-24820500D01*
X19149643Y-24834786D01*
X19163928Y-24863357D01*
X19178214Y-24920500D01*
X19178214Y-24991929D01*
X19163928Y-25049071D01*
X19149643Y-25077643D01*
X19135357Y-25091929D01*
X19106786Y-25106214D01*
X19078214Y-25106214D01*
X19049643Y-25091929D01*
X19035357Y-25077643D01*
X19021071Y-25049071D01*
X19006786Y-24991929D01*
X19006786Y-24920500D01*
X19021071Y-24863357D01*
X19035357Y-24834786D01*
X19049643Y-24820500D01*
X19078214Y-24806214D01*
X19306786Y-25077643D02*
X19321071Y-25091929D01*
X19306786Y-25106214D01*
X19292500Y-25091929D01*
X19306786Y-25077643D01*
X19306786Y-25106214D01*
X19606786Y-25106214D02*
X19435357Y-25106214D01*
X19521071Y-25106214D02*
X19521071Y-24806214D01*
X19492500Y-24849071D01*
X19463928Y-24877643D01*
X19435357Y-24891929D01*
X19721071Y-24834786D02*
X19735357Y-24820500D01*
X19763928Y-24806214D01*
X19835357Y-24806214D01*
X19863928Y-24820500D01*
X19878214Y-24834786D01*
X19892500Y-24863357D01*
X19892500Y-24891929D01*
X19878214Y-24934786D01*
X19706786Y-25106214D01*
X19892500Y-25106214D01*
X20149643Y-24806214D02*
X20092500Y-24806214D01*
X20063928Y-24820500D01*
X20049643Y-24834786D01*
X20021071Y-24877643D01*
X20006786Y-24934786D01*
X20006786Y-25049071D01*
X20021071Y-25077643D01*
X20035357Y-25091929D01*
X20063928Y-25106214D01*
X20121071Y-25106214D01*
X20149643Y-25091929D01*
X20163928Y-25077643D01*
X20178214Y-25049071D01*
X20178214Y-24977643D01*
X20163928Y-24949071D01*
X20149643Y-24934786D01*
X20121071Y-24920500D01*
X20063928Y-24920500D01*
X20035357Y-24934786D01*
X20021071Y-24949071D01*
X20006786Y-24977643D01*
X20363928Y-24806214D02*
X20392500Y-24806214D01*
X20421071Y-24820500D01*
X20435357Y-24834786D01*
X20449643Y-24863357D01*
X20463928Y-24920500D01*
X20463928Y-24991929D01*
X20449643Y-25049071D01*
X20435357Y-25077643D01*
X20421071Y-25091929D01*
X20392500Y-25106214D01*
X20363928Y-25106214D01*
X20335357Y-25091929D01*
X20321071Y-25077643D01*
X20306786Y-25049071D01*
X20292500Y-24991929D01*
X20292500Y-24920500D01*
X20306786Y-24863357D01*
X20321071Y-24834786D01*
X20335357Y-24820500D01*
X20363928Y-24806214D01*
X20578214Y-24806214D02*
X20578214Y-24863357D01*
X20692500Y-24806214D02*
X20692500Y-24863357D01*
X21135357Y-25220500D02*
X21121071Y-25206214D01*
X21092500Y-25163357D01*
X21078214Y-25134786D01*
X21063928Y-25091929D01*
X21049643Y-25020500D01*
X21049643Y-24963357D01*
X21063928Y-24891929D01*
X21078214Y-24849071D01*
X21092500Y-24820500D01*
X21121071Y-24777643D01*
X21135357Y-24763357D01*
X21292500Y-24934786D02*
X21263928Y-24920500D01*
X21249643Y-24906214D01*
X21235357Y-24877643D01*
X21235357Y-24863357D01*
X21249643Y-24834786D01*
X21263928Y-24820500D01*
X21292500Y-24806214D01*
X21349643Y-24806214D01*
X21378214Y-24820500D01*
X21392500Y-24834786D01*
X21406786Y-24863357D01*
X21406786Y-24877643D01*
X21392500Y-24906214D01*
X21378214Y-24920500D01*
X21349643Y-24934786D01*
X21292500Y-24934786D01*
X21263928Y-24949071D01*
X21249643Y-24963357D01*
X21235357Y-24991929D01*
X21235357Y-25049071D01*
X21249643Y-25077643D01*
X21263928Y-25091929D01*
X21292500Y-25106214D01*
X21349643Y-25106214D01*
X21378214Y-25091929D01*
X21392500Y-25077643D01*
X21406786Y-25049071D01*
X21406786Y-24991929D01*
X21392500Y-24963357D01*
X21378214Y-24949071D01*
X21349643Y-24934786D01*
X21763928Y-25106214D02*
X21763928Y-24806214D01*
X21892500Y-25106214D02*
X21892500Y-24949071D01*
X21878214Y-24920500D01*
X21849643Y-24906214D01*
X21806786Y-24906214D01*
X21778214Y-24920500D01*
X21763928Y-24934786D01*
X22078214Y-25106214D02*
X22049643Y-25091929D01*
X22035357Y-25077643D01*
X22021071Y-25049071D01*
X22021071Y-24963357D01*
X22035357Y-24934786D01*
X22049643Y-24920500D01*
X22078214Y-24906214D01*
X22121071Y-24906214D01*
X22149643Y-24920500D01*
X22163928Y-24934786D01*
X22178214Y-24963357D01*
X22178214Y-25049071D01*
X22163928Y-25077643D01*
X22149643Y-25091929D01*
X22121071Y-25106214D01*
X22078214Y-25106214D01*
X22349643Y-25106214D02*
X22321071Y-25091929D01*
X22306786Y-25063357D01*
X22306786Y-24806214D01*
X22578214Y-25091929D02*
X22549643Y-25106214D01*
X22492500Y-25106214D01*
X22463928Y-25091929D01*
X22449643Y-25063357D01*
X22449643Y-24949071D01*
X22463928Y-24920500D01*
X22492500Y-24906214D01*
X22549643Y-24906214D01*
X22578214Y-24920500D01*
X22592500Y-24949071D01*
X22592500Y-24977643D01*
X22449643Y-25006214D01*
X22706786Y-25091929D02*
X22735357Y-25106214D01*
X22792500Y-25106214D01*
X22821071Y-25091929D01*
X22835357Y-25063357D01*
X22835357Y-25049071D01*
X22821071Y-25020500D01*
X22792500Y-25006214D01*
X22749643Y-25006214D01*
X22721071Y-24991929D01*
X22706786Y-24963357D01*
X22706786Y-24949071D01*
X22721071Y-24920500D01*
X22749643Y-24906214D01*
X22792500Y-24906214D01*
X22821071Y-24920500D01*
X22935357Y-25220500D02*
X22949643Y-25206214D01*
X22978214Y-25163357D01*
X22992500Y-25134786D01*
X23006786Y-25091929D01*
X23021071Y-25020500D01*
X23021071Y-24963357D01*
X23006786Y-24891929D01*
X22992500Y-24849071D01*
X22978214Y-24820500D01*
X22949643Y-24777643D01*
X22935357Y-24763357D01*
M02*
