%TF.GenerationSoftware,KiCad,Pcbnew,(5.1.10)-1*%
%TF.CreationDate,2021-10-19T18:18:53+02:00*%
%TF.ProjectId,hard_cam_usb_production,68617264-5f63-4616-9d5f-7573625f7072,rev?*%
%TF.SameCoordinates,Original*%
%TF.FileFunction,Copper,L4,Bot*%
%TF.FilePolarity,Positive*%
%FSLAX46Y46*%
G04 Gerber Fmt 4.6, Leading zero omitted, Abs format (unit mm)*
G04 Created by KiCad (PCBNEW (5.1.10)-1) date 2021-10-19 18:18:53*
%MOMM*%
%LPD*%
G01*
G04 APERTURE LIST*
%TA.AperFunction,ComponentPad*%
%ADD10C,0.800000*%
%TD*%
%TA.AperFunction,ComponentPad*%
%ADD11C,6.400000*%
%TD*%
%TA.AperFunction,ViaPad*%
%ADD12C,0.635000*%
%TD*%
%TA.AperFunction,ViaPad*%
%ADD13C,0.508000*%
%TD*%
%TA.AperFunction,Conductor*%
%ADD14C,0.191262*%
%TD*%
%TA.AperFunction,Conductor*%
%ADD15C,0.762000*%
%TD*%
%TA.AperFunction,Conductor*%
%ADD16C,0.254000*%
%TD*%
%TA.AperFunction,Conductor*%
%ADD17C,0.508000*%
%TD*%
%TA.AperFunction,Conductor*%
%ADD18C,0.381000*%
%TD*%
%TA.AperFunction,Conductor*%
%ADD19C,0.203200*%
%TD*%
%TA.AperFunction,Conductor*%
%ADD20C,0.100000*%
%TD*%
G04 APERTURE END LIST*
D10*
%TO.P,H1,1*%
%TO.N,GND*%
X239797056Y-176102944D03*
X238100000Y-175400000D03*
X236402944Y-176102944D03*
X235700000Y-177800000D03*
X236402944Y-179497056D03*
X238100000Y-180200000D03*
X239797056Y-179497056D03*
X240500000Y-177800000D03*
D11*
X238100000Y-177800000D03*
%TD*%
%TO.P,H2,1*%
%TO.N,GND*%
X238100000Y-201700000D03*
D10*
X240500000Y-201700000D03*
X239797056Y-203397056D03*
X238100000Y-204100000D03*
X236402944Y-203397056D03*
X235700000Y-201700000D03*
X236402944Y-200002944D03*
X238100000Y-199300000D03*
X239797056Y-200002944D03*
%TD*%
%TO.P,H5,1*%
%TO.N,GND*%
X207197056Y-179897056D03*
X207900000Y-178200000D03*
X207197056Y-176502944D03*
X205500000Y-175800000D03*
X203802944Y-176502944D03*
X203100000Y-178200000D03*
X203802944Y-179897056D03*
X205500000Y-180600000D03*
D11*
X205500000Y-178200000D03*
%TD*%
D10*
%TO.P,H6,1*%
%TO.N,GND*%
X217597056Y-224597056D03*
X218300000Y-222900000D03*
X217597056Y-221202944D03*
X215900000Y-220500000D03*
X214202944Y-221202944D03*
X213500000Y-222900000D03*
X214202944Y-224597056D03*
X215900000Y-225300000D03*
D11*
X215900000Y-222900000D03*
%TD*%
%TO.P,H8,1*%
%TO.N,GND*%
X187600000Y-202700000D03*
D10*
X187600000Y-205100000D03*
X185902944Y-204397056D03*
X185200000Y-202700000D03*
X185902944Y-201002944D03*
X187600000Y-200300000D03*
X189297056Y-201002944D03*
X190000000Y-202700000D03*
X189297056Y-204397056D03*
%TD*%
D11*
%TO.P,H4,1*%
%TO.N,GND*%
X184600000Y-171700000D03*
D10*
X187000000Y-171700000D03*
X186297056Y-173397056D03*
X184600000Y-174100000D03*
X182902944Y-173397056D03*
X182200000Y-171700000D03*
X182902944Y-170002944D03*
X184600000Y-169300000D03*
X186297056Y-170002944D03*
%TD*%
D11*
%TO.P,H3,1*%
%TO.N,GND*%
X184600000Y-147800000D03*
D10*
X187000000Y-147800000D03*
X186297056Y-149497056D03*
X184600000Y-150200000D03*
X182902944Y-149497056D03*
X182200000Y-147800000D03*
X182902944Y-146102944D03*
X184600000Y-145400000D03*
X186297056Y-146102944D03*
%TD*%
D11*
%TO.P,H7,1*%
%TO.N,GND*%
X172600000Y-210600000D03*
D10*
X175000000Y-210600000D03*
X174297056Y-212297056D03*
X172600000Y-213000000D03*
X170902944Y-212297056D03*
X170200000Y-210600000D03*
X170902944Y-208902944D03*
X172600000Y-208200000D03*
X174297056Y-208902944D03*
%TD*%
D12*
%TO.N,*%
X212400000Y-190550000D03*
X212400000Y-191450000D03*
X212400000Y-192350000D03*
X180900000Y-211850000D03*
X180900000Y-210950000D03*
X180900000Y-212750000D03*
D13*
%TO.N,GND*%
X175200000Y-225400000D03*
X175100000Y-223700000D03*
X177500000Y-195000000D03*
X180000000Y-182000000D03*
X187500000Y-151500000D03*
X165000000Y-150500000D03*
X177500000Y-215000000D03*
X186000000Y-176000000D03*
X187500000Y-156500000D03*
X187500000Y-166500000D03*
X169500000Y-150500000D03*
X187500000Y-161500000D03*
X177500000Y-185000000D03*
X174500000Y-150500000D03*
X183000000Y-179000000D03*
X179500000Y-150500000D03*
X177500000Y-200000000D03*
X170500000Y-158250000D03*
X165000000Y-172000000D03*
X161000000Y-211500000D03*
X165000000Y-157000000D03*
X178500000Y-171000000D03*
X182500000Y-155000000D03*
X165000000Y-182000000D03*
X165000000Y-187000000D03*
X181000000Y-159000000D03*
X165000000Y-192000000D03*
X177500000Y-225000000D03*
X163500000Y-200000000D03*
X161000000Y-221500000D03*
X179500000Y-165000000D03*
X165000000Y-197000000D03*
X161000000Y-206500000D03*
X161000000Y-202500000D03*
X165000000Y-177000000D03*
X165000000Y-153000000D03*
X177500000Y-178000000D03*
X165000000Y-167000000D03*
X165000000Y-162000000D03*
X161000000Y-216500000D03*
X165000000Y-216000000D03*
X172500000Y-158250000D03*
X175800000Y-169600000D03*
X184000000Y-163000000D03*
X173000000Y-168600000D03*
X175600000Y-187400000D03*
X169600000Y-196800000D03*
X167400000Y-204600000D03*
X169600000Y-163800000D03*
X173000000Y-161600000D03*
X176800000Y-161400000D03*
X173000000Y-191800000D03*
X169600000Y-183800000D03*
X173000000Y-180600000D03*
X174400000Y-219000000D03*
X173000000Y-200000000D03*
X167600000Y-211000000D03*
X171200000Y-204400000D03*
X169600000Y-174200000D03*
X170000000Y-216200000D03*
D12*
X165400000Y-224500000D03*
X164300000Y-223700000D03*
X164300000Y-225400000D03*
D13*
X174300000Y-156200000D03*
X174700000Y-155000000D03*
X177500000Y-210000000D03*
X177500000Y-205000000D03*
X177500000Y-190000000D03*
X177500000Y-220000000D03*
X168900000Y-155000000D03*
X216905500Y-204434500D03*
X216969000Y-198910000D03*
X225795500Y-198910000D03*
X227891000Y-185003500D03*
X225795500Y-204371000D03*
X223382500Y-197005000D03*
X223827000Y-198910000D03*
X222747500Y-185003500D03*
X212900000Y-156400000D03*
X212900000Y-151300000D03*
X211700000Y-155500000D03*
X185618000Y-220582000D03*
X186018000Y-222706000D03*
X186000000Y-213300000D03*
X187900000Y-222700000D03*
X187500000Y-219900000D03*
X215650000Y-180500000D03*
X220650000Y-180500000D03*
X225650000Y-180500000D03*
X230650000Y-180500000D03*
X234150000Y-180500000D03*
X240900000Y-182000000D03*
X240900000Y-187000000D03*
X240900000Y-192000000D03*
X240900000Y-197000000D03*
X235150000Y-205750000D03*
X230150000Y-205750000D03*
X223400000Y-205750000D03*
X218900000Y-205750000D03*
X216150000Y-201750000D03*
X215900000Y-195750000D03*
X215900000Y-190750000D03*
X215900000Y-185750000D03*
X217650000Y-182750000D03*
X224150000Y-188250000D03*
X225900000Y-188500000D03*
X219900000Y-195250000D03*
X222150000Y-195250000D03*
X221100000Y-192400000D03*
X222900000Y-190300000D03*
X223900000Y-193500000D03*
X225900000Y-191417000D03*
X235900000Y-185750000D03*
X235900000Y-190250000D03*
X235900000Y-194500000D03*
X232900000Y-199750000D03*
X228650000Y-195500000D03*
X229400000Y-191000000D03*
X219900000Y-188250000D03*
X219900000Y-182500000D03*
X209100000Y-151200000D03*
X205100000Y-151200000D03*
X201100000Y-151200000D03*
X198100000Y-151200000D03*
X198100000Y-155200000D03*
X198100000Y-159200000D03*
X197600000Y-163200000D03*
X197600000Y-167200000D03*
X197600000Y-171200000D03*
X197600000Y-175200000D03*
X197600000Y-179200000D03*
X197600000Y-183200000D03*
X197600000Y-187200000D03*
X197600000Y-191200000D03*
X197600000Y-195200000D03*
X197600000Y-199200000D03*
X195600000Y-200200000D03*
X192100000Y-200200000D03*
X184100000Y-206200000D03*
X184100000Y-210200000D03*
X186600000Y-225200000D03*
X190100000Y-226200000D03*
X194100000Y-226200000D03*
X198100000Y-226200000D03*
X202100000Y-226200000D03*
X206100000Y-226200000D03*
X210100000Y-226200000D03*
X210100000Y-222200000D03*
X210100000Y-218200000D03*
X210100000Y-214200000D03*
X209100000Y-210200000D03*
X209100000Y-206200000D03*
X209100000Y-202200000D03*
X209100000Y-198200000D03*
X209100000Y-194200000D03*
X209100000Y-190200000D03*
X209100000Y-186200000D03*
X209100000Y-182200000D03*
X209100000Y-175200000D03*
X209100000Y-171200000D03*
X209100000Y-167200000D03*
X209100000Y-163200000D03*
X209100000Y-159700000D03*
X211100000Y-157200000D03*
X205600000Y-164200000D03*
X203600000Y-169200000D03*
X203100000Y-185700000D03*
X205600000Y-194700000D03*
X202600000Y-200200000D03*
X205100000Y-207700000D03*
X202600000Y-214200000D03*
X205100000Y-219700000D03*
X200100000Y-222700000D03*
X192600000Y-223200000D03*
X198600000Y-218200000D03*
X191100000Y-209200000D03*
X194600000Y-205200000D03*
X201100000Y-154200000D03*
X198600000Y-212200000D03*
X194600000Y-216200000D03*
X209400000Y-153100000D03*
X209600000Y-155800000D03*
X206100000Y-159400000D03*
X206000000Y-155700000D03*
X202100000Y-159600000D03*
X198500000Y-207200000D03*
X196700000Y-209300000D03*
X194100000Y-212000000D03*
X192400000Y-214000000D03*
X201600000Y-163900000D03*
X174100000Y-224500000D03*
%TO.N,/id*%
X222493500Y-196433500D03*
X226430500Y-187480000D03*
%TO.N,/D+*%
X225395500Y-187607000D03*
X221348500Y-195925500D03*
%TO.N,/D-*%
X220590500Y-195925500D03*
X224637500Y-187607000D03*
D12*
%TO.N,VCC*%
X169300000Y-157700000D03*
X169300000Y-156700000D03*
D13*
X219800000Y-196978500D03*
X223065000Y-187099000D03*
X222811000Y-186146500D03*
X219064500Y-198910000D03*
X210800000Y-152200000D03*
X209900000Y-152200000D03*
X190800000Y-215200000D03*
X190200000Y-215800000D03*
X165400000Y-219600000D03*
X164500000Y-218700000D03*
%TO.N,/id2*%
X210400000Y-155500000D03*
X188900000Y-219100000D03*
X201300000Y-170500000D03*
X201300000Y-172900000D03*
X201300000Y-188100000D03*
X201300000Y-191400000D03*
X201300000Y-201300000D03*
X201300000Y-203200000D03*
%TO.N,/D2_+*%
X210416998Y-154029000D03*
X188700000Y-217979000D03*
%TO.N,/D2_-*%
X210416998Y-153271000D03*
X188700000Y-217221000D03*
%TO.N,/D3_-*%
X171137500Y-157516332D03*
X168621000Y-222000000D03*
%TO.N,/D3_+*%
X171895500Y-157516332D03*
X169379000Y-222000000D03*
%TO.N,/id3*%
X173500000Y-157500000D03*
X170300000Y-221500000D03*
%TD*%
D14*
%TO.N,/id*%
X226650000Y-191959500D02*
X222493500Y-196116000D01*
X226650000Y-187699500D02*
X226650000Y-191959500D01*
X222493500Y-196116000D02*
X222493500Y-196433500D01*
X226430500Y-187480000D02*
X226650000Y-187699500D01*
D15*
%TO.N,VCC*%
X169300000Y-156700000D02*
X169300000Y-157700000D01*
X169300000Y-157700000D02*
X168200000Y-158800000D01*
X168200000Y-158800000D02*
X168200000Y-201700000D01*
X168200000Y-201700000D02*
X163600000Y-206300000D01*
D16*
X169300000Y-156700000D02*
X169100000Y-156700000D01*
D17*
X191100000Y-215200000D02*
X190800000Y-215200000D01*
D18*
X190200000Y-215800000D02*
X190700000Y-215800000D01*
X191100000Y-215400000D02*
X191100000Y-215200000D01*
X190700000Y-215800000D02*
X191100000Y-215400000D01*
D17*
X209900000Y-152200000D02*
X210800000Y-152200000D01*
X191100000Y-212400000D02*
X191100000Y-215200000D01*
X198500000Y-205000000D02*
X191100000Y-212400000D01*
X198500000Y-161700000D02*
X198500000Y-205000000D01*
X208000000Y-152200000D02*
X198500000Y-161700000D01*
X209900000Y-152200000D02*
X208000000Y-152200000D01*
D15*
X163600000Y-206300000D02*
X163600000Y-217800000D01*
X164400000Y-218600000D02*
X165400000Y-219600000D01*
X163600000Y-217800000D02*
X164400000Y-218600000D01*
D18*
X164400000Y-218600000D02*
X164500000Y-218700000D01*
D19*
%TO.N,/id2*%
X193300000Y-219100000D02*
X188900000Y-219100000D01*
X201300000Y-211100000D02*
X193300000Y-219100000D01*
X201300000Y-165100000D02*
X201300000Y-170500000D01*
X210400000Y-156000000D02*
X201300000Y-165100000D01*
X210400000Y-155500000D02*
X210400000Y-156000000D01*
X201300000Y-172900000D02*
X201300000Y-188100000D01*
X201300000Y-191400000D02*
X201300000Y-201300000D01*
X201300000Y-203200000D02*
X201300000Y-211100000D01*
D14*
%TO.N,/id3*%
X173500000Y-157500000D02*
X173800000Y-157800000D01*
X173800000Y-157800000D02*
X173800000Y-203100000D01*
X173800000Y-203100000D02*
X168300000Y-208600000D01*
D19*
X168300000Y-208600000D02*
X168300000Y-217600000D01*
X170300000Y-219600000D02*
X170300000Y-221500000D01*
X168300000Y-217600000D02*
X170300000Y-219600000D01*
%TD*%
%TO.N,GND*%
X236011262Y-174838672D02*
X235645573Y-175273731D01*
X238100000Y-177728158D01*
X240554427Y-175273731D01*
X240188738Y-174838672D01*
X240123405Y-174801600D01*
X241998400Y-174801600D01*
X241998400Y-206598400D01*
X214701600Y-206598400D01*
X214701600Y-204226269D01*
X235645573Y-204226269D01*
X236011262Y-204661328D01*
X236629122Y-205011919D01*
X237303508Y-205235236D01*
X238008503Y-205322695D01*
X238717014Y-205270937D01*
X239401813Y-205081949D01*
X240036584Y-204762994D01*
X240188738Y-204661328D01*
X240554427Y-204226269D01*
X238100000Y-201771842D01*
X235645573Y-204226269D01*
X214701600Y-204226269D01*
X214701600Y-181500000D01*
X217793600Y-181500000D01*
X217793600Y-202000000D01*
X217801409Y-202079285D01*
X217824535Y-202155523D01*
X217862091Y-202225784D01*
X217912632Y-202287368D01*
X217974216Y-202337909D01*
X218044477Y-202375465D01*
X218120715Y-202398591D01*
X218200000Y-202406400D01*
X231500000Y-202406400D01*
X231579285Y-202398591D01*
X231655523Y-202375465D01*
X231725784Y-202337909D01*
X231787368Y-202287368D01*
X231837909Y-202225784D01*
X231875465Y-202155523D01*
X231898591Y-202079285D01*
X231906400Y-202000000D01*
X231906400Y-201608503D01*
X234477305Y-201608503D01*
X234529063Y-202317014D01*
X234718051Y-203001813D01*
X235037006Y-203636584D01*
X235138672Y-203788738D01*
X235573731Y-204154427D01*
X238028158Y-201700000D01*
X238171842Y-201700000D01*
X240626269Y-204154427D01*
X241061328Y-203788738D01*
X241411919Y-203170878D01*
X241635236Y-202496492D01*
X241722695Y-201791497D01*
X241670937Y-201082986D01*
X241481949Y-200398187D01*
X241162994Y-199763416D01*
X241061328Y-199611262D01*
X240626269Y-199245573D01*
X238171842Y-201700000D01*
X238028158Y-201700000D01*
X235573731Y-199245573D01*
X235138672Y-199611262D01*
X234788081Y-200229122D01*
X234564764Y-200903508D01*
X234477305Y-201608503D01*
X231906400Y-201608503D01*
X231906400Y-199173731D01*
X235645573Y-199173731D01*
X238100000Y-201628158D01*
X240554427Y-199173731D01*
X240188738Y-198738672D01*
X239570878Y-198388081D01*
X238896492Y-198164764D01*
X238191497Y-198077305D01*
X237482986Y-198129063D01*
X236798187Y-198318051D01*
X236163416Y-198637006D01*
X236011262Y-198738672D01*
X235645573Y-199173731D01*
X231906400Y-199173731D01*
X231906400Y-181500000D01*
X231898591Y-181420715D01*
X231875465Y-181344477D01*
X231837909Y-181274216D01*
X231787368Y-181212632D01*
X231725784Y-181162091D01*
X231655523Y-181124535D01*
X231579285Y-181101409D01*
X231500000Y-181093600D01*
X218200000Y-181093600D01*
X218120715Y-181101409D01*
X218044477Y-181124535D01*
X217974216Y-181162091D01*
X217912632Y-181212632D01*
X217862091Y-181274216D01*
X217824535Y-181344477D01*
X217801409Y-181420715D01*
X217793600Y-181500000D01*
X214701600Y-181500000D01*
X214701600Y-180326269D01*
X235645573Y-180326269D01*
X236011262Y-180761328D01*
X236629122Y-181111919D01*
X237303508Y-181335236D01*
X238008503Y-181422695D01*
X238717014Y-181370937D01*
X239401813Y-181181949D01*
X240036584Y-180862994D01*
X240188738Y-180761328D01*
X240554427Y-180326269D01*
X238100000Y-177871842D01*
X235645573Y-180326269D01*
X214701600Y-180326269D01*
X214701600Y-179601600D01*
X232300000Y-179601600D01*
X232319821Y-179599648D01*
X232338881Y-179593866D01*
X232356446Y-179584477D01*
X232371842Y-179571842D01*
X232384477Y-179556446D01*
X232393866Y-179538881D01*
X232399648Y-179519821D01*
X232401600Y-179500000D01*
X232401600Y-177708503D01*
X234477305Y-177708503D01*
X234529063Y-178417014D01*
X234718051Y-179101813D01*
X235037006Y-179736584D01*
X235138672Y-179888738D01*
X235573731Y-180254427D01*
X238028158Y-177800000D01*
X238171842Y-177800000D01*
X240626269Y-180254427D01*
X241061328Y-179888738D01*
X241411919Y-179270878D01*
X241635236Y-178596492D01*
X241722695Y-177891497D01*
X241670937Y-177182986D01*
X241481949Y-176498187D01*
X241162994Y-175863416D01*
X241061328Y-175711262D01*
X240626269Y-175345573D01*
X238171842Y-177800000D01*
X238028158Y-177800000D01*
X235573731Y-175345573D01*
X235138672Y-175711262D01*
X234788081Y-176329122D01*
X234564764Y-177003508D01*
X234477305Y-177708503D01*
X232401600Y-177708503D01*
X232401600Y-174801600D01*
X236066744Y-174801600D01*
X236011262Y-174838672D01*
%TA.AperFunction,Conductor*%
D20*
G36*
X236011262Y-174838672D02*
G01*
X235645573Y-175273731D01*
X238100000Y-177728158D01*
X240554427Y-175273731D01*
X240188738Y-174838672D01*
X240123405Y-174801600D01*
X241998400Y-174801600D01*
X241998400Y-206598400D01*
X214701600Y-206598400D01*
X214701600Y-204226269D01*
X235645573Y-204226269D01*
X236011262Y-204661328D01*
X236629122Y-205011919D01*
X237303508Y-205235236D01*
X238008503Y-205322695D01*
X238717014Y-205270937D01*
X239401813Y-205081949D01*
X240036584Y-204762994D01*
X240188738Y-204661328D01*
X240554427Y-204226269D01*
X238100000Y-201771842D01*
X235645573Y-204226269D01*
X214701600Y-204226269D01*
X214701600Y-181500000D01*
X217793600Y-181500000D01*
X217793600Y-202000000D01*
X217801409Y-202079285D01*
X217824535Y-202155523D01*
X217862091Y-202225784D01*
X217912632Y-202287368D01*
X217974216Y-202337909D01*
X218044477Y-202375465D01*
X218120715Y-202398591D01*
X218200000Y-202406400D01*
X231500000Y-202406400D01*
X231579285Y-202398591D01*
X231655523Y-202375465D01*
X231725784Y-202337909D01*
X231787368Y-202287368D01*
X231837909Y-202225784D01*
X231875465Y-202155523D01*
X231898591Y-202079285D01*
X231906400Y-202000000D01*
X231906400Y-201608503D01*
X234477305Y-201608503D01*
X234529063Y-202317014D01*
X234718051Y-203001813D01*
X235037006Y-203636584D01*
X235138672Y-203788738D01*
X235573731Y-204154427D01*
X238028158Y-201700000D01*
X238171842Y-201700000D01*
X240626269Y-204154427D01*
X241061328Y-203788738D01*
X241411919Y-203170878D01*
X241635236Y-202496492D01*
X241722695Y-201791497D01*
X241670937Y-201082986D01*
X241481949Y-200398187D01*
X241162994Y-199763416D01*
X241061328Y-199611262D01*
X240626269Y-199245573D01*
X238171842Y-201700000D01*
X238028158Y-201700000D01*
X235573731Y-199245573D01*
X235138672Y-199611262D01*
X234788081Y-200229122D01*
X234564764Y-200903508D01*
X234477305Y-201608503D01*
X231906400Y-201608503D01*
X231906400Y-199173731D01*
X235645573Y-199173731D01*
X238100000Y-201628158D01*
X240554427Y-199173731D01*
X240188738Y-198738672D01*
X239570878Y-198388081D01*
X238896492Y-198164764D01*
X238191497Y-198077305D01*
X237482986Y-198129063D01*
X236798187Y-198318051D01*
X236163416Y-198637006D01*
X236011262Y-198738672D01*
X235645573Y-199173731D01*
X231906400Y-199173731D01*
X231906400Y-181500000D01*
X231898591Y-181420715D01*
X231875465Y-181344477D01*
X231837909Y-181274216D01*
X231787368Y-181212632D01*
X231725784Y-181162091D01*
X231655523Y-181124535D01*
X231579285Y-181101409D01*
X231500000Y-181093600D01*
X218200000Y-181093600D01*
X218120715Y-181101409D01*
X218044477Y-181124535D01*
X217974216Y-181162091D01*
X217912632Y-181212632D01*
X217862091Y-181274216D01*
X217824535Y-181344477D01*
X217801409Y-181420715D01*
X217793600Y-181500000D01*
X214701600Y-181500000D01*
X214701600Y-180326269D01*
X235645573Y-180326269D01*
X236011262Y-180761328D01*
X236629122Y-181111919D01*
X237303508Y-181335236D01*
X238008503Y-181422695D01*
X238717014Y-181370937D01*
X239401813Y-181181949D01*
X240036584Y-180862994D01*
X240188738Y-180761328D01*
X240554427Y-180326269D01*
X238100000Y-177871842D01*
X235645573Y-180326269D01*
X214701600Y-180326269D01*
X214701600Y-179601600D01*
X232300000Y-179601600D01*
X232319821Y-179599648D01*
X232338881Y-179593866D01*
X232356446Y-179584477D01*
X232371842Y-179571842D01*
X232384477Y-179556446D01*
X232393866Y-179538881D01*
X232399648Y-179519821D01*
X232401600Y-179500000D01*
X232401600Y-177708503D01*
X234477305Y-177708503D01*
X234529063Y-178417014D01*
X234718051Y-179101813D01*
X235037006Y-179736584D01*
X235138672Y-179888738D01*
X235573731Y-180254427D01*
X238028158Y-177800000D01*
X238171842Y-177800000D01*
X240626269Y-180254427D01*
X241061328Y-179888738D01*
X241411919Y-179270878D01*
X241635236Y-178596492D01*
X241722695Y-177891497D01*
X241670937Y-177182986D01*
X241481949Y-176498187D01*
X241162994Y-175863416D01*
X241061328Y-175711262D01*
X240626269Y-175345573D01*
X238171842Y-177800000D01*
X238028158Y-177800000D01*
X235573731Y-175345573D01*
X235138672Y-175711262D01*
X234788081Y-176329122D01*
X234564764Y-177003508D01*
X234477305Y-177708503D01*
X232401600Y-177708503D01*
X232401600Y-174801600D01*
X236066744Y-174801600D01*
X236011262Y-174838672D01*
G37*
%TD.AperFunction*%
%TD*%
D19*
%TO.N,VCC*%
X231398400Y-201898400D02*
X224302684Y-201898400D01*
X224313913Y-201881595D01*
X224374641Y-201734985D01*
X224405600Y-201579345D01*
X224405600Y-201420655D01*
X224374641Y-201265015D01*
X224313913Y-201118405D01*
X224225750Y-200986460D01*
X224113540Y-200874250D01*
X223981595Y-200786087D01*
X223834985Y-200725359D01*
X223679345Y-200694400D01*
X223520655Y-200694400D01*
X223365015Y-200725359D01*
X223218405Y-200786087D01*
X223086460Y-200874250D01*
X222974250Y-200986460D01*
X222886087Y-201118405D01*
X222825359Y-201265015D01*
X222794400Y-201420655D01*
X222794400Y-201579345D01*
X222825359Y-201734985D01*
X222886087Y-201881595D01*
X222897316Y-201898400D01*
X219902684Y-201898400D01*
X219913913Y-201881595D01*
X219974641Y-201734985D01*
X220005600Y-201579345D01*
X220005600Y-201420655D01*
X219974641Y-201265015D01*
X219913913Y-201118405D01*
X219825750Y-200986460D01*
X219713540Y-200874250D01*
X219581595Y-200786087D01*
X219434985Y-200725359D01*
X219279345Y-200694400D01*
X219120655Y-200694400D01*
X218965015Y-200725359D01*
X218818405Y-200786087D01*
X218686460Y-200874250D01*
X218574250Y-200986460D01*
X218486087Y-201118405D01*
X218425359Y-201265015D01*
X218394400Y-201420655D01*
X218394400Y-201579345D01*
X218425359Y-201734985D01*
X218486087Y-201881595D01*
X218497316Y-201898400D01*
X218301600Y-201898400D01*
X218301600Y-198849960D01*
X223217400Y-198849960D01*
X223217400Y-198970040D01*
X223240826Y-199087814D01*
X223286779Y-199198754D01*
X223353492Y-199298598D01*
X223438402Y-199383508D01*
X223538246Y-199450221D01*
X223649186Y-199496174D01*
X223766960Y-199519600D01*
X223887040Y-199519600D01*
X224004814Y-199496174D01*
X224115754Y-199450221D01*
X224215598Y-199383508D01*
X224300508Y-199298598D01*
X224367221Y-199198754D01*
X224413174Y-199087814D01*
X224436600Y-198970040D01*
X224436600Y-198849960D01*
X225185900Y-198849960D01*
X225185900Y-198970040D01*
X225209326Y-199087814D01*
X225255279Y-199198754D01*
X225321992Y-199298598D01*
X225406902Y-199383508D01*
X225506746Y-199450221D01*
X225617686Y-199496174D01*
X225735460Y-199519600D01*
X225855540Y-199519600D01*
X225973314Y-199496174D01*
X226084254Y-199450221D01*
X226184098Y-199383508D01*
X226269008Y-199298598D01*
X226335721Y-199198754D01*
X226381674Y-199087814D01*
X226405100Y-198970040D01*
X226405100Y-198849960D01*
X226381674Y-198732186D01*
X226335721Y-198621246D01*
X226269008Y-198521402D01*
X226184098Y-198436492D01*
X226084254Y-198369779D01*
X225973314Y-198323826D01*
X225855540Y-198300400D01*
X225735460Y-198300400D01*
X225617686Y-198323826D01*
X225506746Y-198369779D01*
X225406902Y-198436492D01*
X225321992Y-198521402D01*
X225255279Y-198621246D01*
X225209326Y-198732186D01*
X225185900Y-198849960D01*
X224436600Y-198849960D01*
X224413174Y-198732186D01*
X224367221Y-198621246D01*
X224300508Y-198521402D01*
X224215598Y-198436492D01*
X224115754Y-198369779D01*
X224004814Y-198323826D01*
X223887040Y-198300400D01*
X223766960Y-198300400D01*
X223649186Y-198323826D01*
X223538246Y-198369779D01*
X223438402Y-198436492D01*
X223353492Y-198521402D01*
X223286779Y-198621246D01*
X223240826Y-198732186D01*
X223217400Y-198849960D01*
X218301600Y-198849960D01*
X218301600Y-195189960D01*
X219290400Y-195189960D01*
X219290400Y-195310040D01*
X219313826Y-195427814D01*
X219359779Y-195538754D01*
X219426492Y-195638598D01*
X219511402Y-195723508D01*
X219611246Y-195790221D01*
X219722186Y-195836174D01*
X219839960Y-195859600D01*
X219960040Y-195859600D01*
X219982973Y-195855038D01*
X219980900Y-195865460D01*
X219980900Y-195985540D01*
X220004326Y-196103314D01*
X220050279Y-196214254D01*
X220116992Y-196314098D01*
X220201902Y-196399008D01*
X220301746Y-196465721D01*
X220412686Y-196511674D01*
X220530460Y-196535100D01*
X220650540Y-196535100D01*
X220768314Y-196511674D01*
X220879254Y-196465721D01*
X220969500Y-196405421D01*
X221059746Y-196465721D01*
X221170686Y-196511674D01*
X221288460Y-196535100D01*
X221408540Y-196535100D01*
X221526314Y-196511674D01*
X221637254Y-196465721D01*
X221737098Y-196399008D01*
X221822008Y-196314098D01*
X221888721Y-196214254D01*
X221934674Y-196103314D01*
X221958100Y-195985540D01*
X221958100Y-195865460D01*
X221950487Y-195827186D01*
X221972186Y-195836174D01*
X222089960Y-195859600D01*
X222120191Y-195859600D01*
X222116500Y-195864097D01*
X222103404Y-195888598D01*
X222074600Y-195942487D01*
X222053783Y-196011111D01*
X222019992Y-196044902D01*
X221953279Y-196144746D01*
X221907326Y-196255686D01*
X221883900Y-196373460D01*
X221883900Y-196493540D01*
X221907326Y-196611314D01*
X221953279Y-196722254D01*
X222019992Y-196822098D01*
X222104902Y-196907008D01*
X222204746Y-196973721D01*
X222315686Y-197019674D01*
X222433460Y-197043100D01*
X222553540Y-197043100D01*
X222671314Y-197019674D01*
X222772900Y-196977596D01*
X222772900Y-197065040D01*
X222796326Y-197182814D01*
X222842279Y-197293754D01*
X222908992Y-197393598D01*
X222993902Y-197478508D01*
X223093746Y-197545221D01*
X223204686Y-197591174D01*
X223322460Y-197614600D01*
X223442540Y-197614600D01*
X223560314Y-197591174D01*
X223671254Y-197545221D01*
X223771098Y-197478508D01*
X223856008Y-197393598D01*
X223922721Y-197293754D01*
X223968674Y-197182814D01*
X223992100Y-197065040D01*
X223992100Y-196944960D01*
X223968674Y-196827186D01*
X223922721Y-196716246D01*
X223856008Y-196616402D01*
X223771098Y-196531492D01*
X223671254Y-196464779D01*
X223560314Y-196418826D01*
X223442540Y-196395400D01*
X223322460Y-196395400D01*
X223204686Y-196418826D01*
X223103100Y-196460904D01*
X223103100Y-196373460D01*
X223079674Y-196255686D01*
X223053980Y-196193656D01*
X223807676Y-195439960D01*
X228040400Y-195439960D01*
X228040400Y-195560040D01*
X228063826Y-195677814D01*
X228109779Y-195788754D01*
X228176492Y-195888598D01*
X228261402Y-195973508D01*
X228361246Y-196040221D01*
X228472186Y-196086174D01*
X228589960Y-196109600D01*
X228710040Y-196109600D01*
X228827814Y-196086174D01*
X228938754Y-196040221D01*
X229038598Y-195973508D01*
X229123508Y-195888598D01*
X229190221Y-195788754D01*
X229236174Y-195677814D01*
X229259600Y-195560040D01*
X229259600Y-195439960D01*
X229236174Y-195322186D01*
X229190221Y-195211246D01*
X229123508Y-195111402D01*
X229038598Y-195026492D01*
X228938754Y-194959779D01*
X228827814Y-194913826D01*
X228710040Y-194890400D01*
X228589960Y-194890400D01*
X228472186Y-194913826D01*
X228361246Y-194959779D01*
X228261402Y-195026492D01*
X228176492Y-195111402D01*
X228109779Y-195211246D01*
X228063826Y-195322186D01*
X228040400Y-195439960D01*
X223807676Y-195439960D01*
X226953397Y-192294240D01*
X226970612Y-192280112D01*
X227018151Y-192222186D01*
X227027000Y-192211404D01*
X227068900Y-192133014D01*
X227075503Y-192111246D01*
X227094702Y-192047957D01*
X227101231Y-191981665D01*
X227101231Y-191981662D01*
X227103414Y-191959500D01*
X227101231Y-191937338D01*
X227101231Y-190939960D01*
X228790400Y-190939960D01*
X228790400Y-191060040D01*
X228813826Y-191177814D01*
X228859779Y-191288754D01*
X228926492Y-191388598D01*
X229011402Y-191473508D01*
X229111246Y-191540221D01*
X229222186Y-191586174D01*
X229339960Y-191609600D01*
X229460040Y-191609600D01*
X229577814Y-191586174D01*
X229688754Y-191540221D01*
X229788598Y-191473508D01*
X229873508Y-191388598D01*
X229940221Y-191288754D01*
X229986174Y-191177814D01*
X230009600Y-191060040D01*
X230009600Y-190939960D01*
X229986174Y-190822186D01*
X229940221Y-190711246D01*
X229873508Y-190611402D01*
X229788598Y-190526492D01*
X229688754Y-190459779D01*
X229577814Y-190413826D01*
X229460040Y-190390400D01*
X229339960Y-190390400D01*
X229222186Y-190413826D01*
X229111246Y-190459779D01*
X229011402Y-190526492D01*
X228926492Y-190611402D01*
X228859779Y-190711246D01*
X228813826Y-190822186D01*
X228790400Y-190939960D01*
X227101231Y-190939960D01*
X227101231Y-187721655D01*
X227103413Y-187699500D01*
X227101231Y-187677345D01*
X227101231Y-187677335D01*
X227094702Y-187611043D01*
X227073163Y-187540040D01*
X227068900Y-187525985D01*
X227040100Y-187472105D01*
X227040100Y-187419960D01*
X227016674Y-187302186D01*
X226970721Y-187191246D01*
X226904008Y-187091402D01*
X226819098Y-187006492D01*
X226719254Y-186939779D01*
X226608314Y-186893826D01*
X226490540Y-186870400D01*
X226370460Y-186870400D01*
X226252686Y-186893826D01*
X226141746Y-186939779D01*
X226041902Y-187006492D01*
X225956992Y-187091402D01*
X225890279Y-187191246D01*
X225875195Y-187227662D01*
X225869008Y-187218402D01*
X225784098Y-187133492D01*
X225684254Y-187066779D01*
X225573314Y-187020826D01*
X225455540Y-186997400D01*
X225335460Y-186997400D01*
X225217686Y-187020826D01*
X225106746Y-187066779D01*
X225016500Y-187127079D01*
X224926254Y-187066779D01*
X224815314Y-187020826D01*
X224697540Y-186997400D01*
X224577460Y-186997400D01*
X224459686Y-187020826D01*
X224348746Y-187066779D01*
X224248902Y-187133492D01*
X224163992Y-187218402D01*
X224097279Y-187318246D01*
X224051326Y-187429186D01*
X224027900Y-187546960D01*
X224027900Y-187652744D01*
X223972186Y-187663826D01*
X223861246Y-187709779D01*
X223761402Y-187776492D01*
X223676492Y-187861402D01*
X223609779Y-187961246D01*
X223563826Y-188072186D01*
X223540400Y-188189960D01*
X223540400Y-188310040D01*
X223563826Y-188427814D01*
X223609779Y-188538754D01*
X223676492Y-188638598D01*
X223761402Y-188723508D01*
X223861246Y-188790221D01*
X223972186Y-188836174D01*
X224089960Y-188859600D01*
X224210040Y-188859600D01*
X224327814Y-188836174D01*
X224438754Y-188790221D01*
X224538598Y-188723508D01*
X224623508Y-188638598D01*
X224690221Y-188538754D01*
X224736174Y-188427814D01*
X224759600Y-188310040D01*
X224759600Y-188204256D01*
X224815314Y-188193174D01*
X224926254Y-188147221D01*
X225016500Y-188086921D01*
X225106746Y-188147221D01*
X225217686Y-188193174D01*
X225335460Y-188216600D01*
X225357561Y-188216600D01*
X225313826Y-188322186D01*
X225290400Y-188439960D01*
X225290400Y-188560040D01*
X225313826Y-188677814D01*
X225359779Y-188788754D01*
X225426492Y-188888598D01*
X225511402Y-188973508D01*
X225611246Y-189040221D01*
X225722186Y-189086174D01*
X225839960Y-189109600D01*
X225960040Y-189109600D01*
X226077814Y-189086174D01*
X226188754Y-189040221D01*
X226198769Y-189033529D01*
X226198770Y-190883471D01*
X226188754Y-190876779D01*
X226077814Y-190830826D01*
X225960040Y-190807400D01*
X225839960Y-190807400D01*
X225722186Y-190830826D01*
X225611246Y-190876779D01*
X225511402Y-190943492D01*
X225426492Y-191028402D01*
X225359779Y-191128246D01*
X225313826Y-191239186D01*
X225290400Y-191356960D01*
X225290400Y-191477040D01*
X225313826Y-191594814D01*
X225359779Y-191705754D01*
X225426492Y-191805598D01*
X225511402Y-191890508D01*
X225611246Y-191957221D01*
X225722186Y-192003174D01*
X225839960Y-192026600D01*
X225944763Y-192026600D01*
X224509600Y-193461763D01*
X224509600Y-193439960D01*
X224486174Y-193322186D01*
X224440221Y-193211246D01*
X224373508Y-193111402D01*
X224288598Y-193026492D01*
X224188754Y-192959779D01*
X224077814Y-192913826D01*
X223960040Y-192890400D01*
X223839960Y-192890400D01*
X223722186Y-192913826D01*
X223611246Y-192959779D01*
X223511402Y-193026492D01*
X223426492Y-193111402D01*
X223359779Y-193211246D01*
X223313826Y-193322186D01*
X223290400Y-193439960D01*
X223290400Y-193560040D01*
X223313826Y-193677814D01*
X223359779Y-193788754D01*
X223426492Y-193888598D01*
X223511402Y-193973508D01*
X223611246Y-194040221D01*
X223722186Y-194086174D01*
X223839960Y-194109600D01*
X223861764Y-194109600D01*
X222759600Y-195211764D01*
X222759600Y-195189960D01*
X222736174Y-195072186D01*
X222690221Y-194961246D01*
X222623508Y-194861402D01*
X222538598Y-194776492D01*
X222438754Y-194709779D01*
X222327814Y-194663826D01*
X222210040Y-194640400D01*
X222089960Y-194640400D01*
X221972186Y-194663826D01*
X221861246Y-194709779D01*
X221761402Y-194776492D01*
X221676492Y-194861402D01*
X221609779Y-194961246D01*
X221563826Y-195072186D01*
X221540400Y-195189960D01*
X221540400Y-195310040D01*
X221548013Y-195348314D01*
X221526314Y-195339326D01*
X221408540Y-195315900D01*
X221288460Y-195315900D01*
X221170686Y-195339326D01*
X221059746Y-195385279D01*
X220969500Y-195445579D01*
X220879254Y-195385279D01*
X220768314Y-195339326D01*
X220650540Y-195315900D01*
X220530460Y-195315900D01*
X220507527Y-195320462D01*
X220509600Y-195310040D01*
X220509600Y-195189960D01*
X220486174Y-195072186D01*
X220440221Y-194961246D01*
X220373508Y-194861402D01*
X220288598Y-194776492D01*
X220188754Y-194709779D01*
X220077814Y-194663826D01*
X219960040Y-194640400D01*
X219839960Y-194640400D01*
X219722186Y-194663826D01*
X219611246Y-194709779D01*
X219511402Y-194776492D01*
X219426492Y-194861402D01*
X219359779Y-194961246D01*
X219313826Y-195072186D01*
X219290400Y-195189960D01*
X218301600Y-195189960D01*
X218301600Y-192339960D01*
X220490400Y-192339960D01*
X220490400Y-192460040D01*
X220513826Y-192577814D01*
X220559779Y-192688754D01*
X220626492Y-192788598D01*
X220711402Y-192873508D01*
X220811246Y-192940221D01*
X220922186Y-192986174D01*
X221039960Y-193009600D01*
X221160040Y-193009600D01*
X221277814Y-192986174D01*
X221388754Y-192940221D01*
X221488598Y-192873508D01*
X221573508Y-192788598D01*
X221640221Y-192688754D01*
X221686174Y-192577814D01*
X221709600Y-192460040D01*
X221709600Y-192339960D01*
X221686174Y-192222186D01*
X221640221Y-192111246D01*
X221573508Y-192011402D01*
X221488598Y-191926492D01*
X221388754Y-191859779D01*
X221277814Y-191813826D01*
X221160040Y-191790400D01*
X221039960Y-191790400D01*
X220922186Y-191813826D01*
X220811246Y-191859779D01*
X220711402Y-191926492D01*
X220626492Y-192011402D01*
X220559779Y-192111246D01*
X220513826Y-192222186D01*
X220490400Y-192339960D01*
X218301600Y-192339960D01*
X218301600Y-190239960D01*
X222290400Y-190239960D01*
X222290400Y-190360040D01*
X222313826Y-190477814D01*
X222359779Y-190588754D01*
X222426492Y-190688598D01*
X222511402Y-190773508D01*
X222611246Y-190840221D01*
X222722186Y-190886174D01*
X222839960Y-190909600D01*
X222960040Y-190909600D01*
X223077814Y-190886174D01*
X223188754Y-190840221D01*
X223288598Y-190773508D01*
X223373508Y-190688598D01*
X223440221Y-190588754D01*
X223486174Y-190477814D01*
X223509600Y-190360040D01*
X223509600Y-190239960D01*
X223486174Y-190122186D01*
X223440221Y-190011246D01*
X223373508Y-189911402D01*
X223288598Y-189826492D01*
X223188754Y-189759779D01*
X223077814Y-189713826D01*
X222960040Y-189690400D01*
X222839960Y-189690400D01*
X222722186Y-189713826D01*
X222611246Y-189759779D01*
X222511402Y-189826492D01*
X222426492Y-189911402D01*
X222359779Y-190011246D01*
X222313826Y-190122186D01*
X222290400Y-190239960D01*
X218301600Y-190239960D01*
X218301600Y-188189960D01*
X219290400Y-188189960D01*
X219290400Y-188310040D01*
X219313826Y-188427814D01*
X219359779Y-188538754D01*
X219426492Y-188638598D01*
X219511402Y-188723508D01*
X219611246Y-188790221D01*
X219722186Y-188836174D01*
X219839960Y-188859600D01*
X219960040Y-188859600D01*
X220077814Y-188836174D01*
X220188754Y-188790221D01*
X220288598Y-188723508D01*
X220373508Y-188638598D01*
X220440221Y-188538754D01*
X220486174Y-188427814D01*
X220509600Y-188310040D01*
X220509600Y-188189960D01*
X220486174Y-188072186D01*
X220440221Y-187961246D01*
X220373508Y-187861402D01*
X220288598Y-187776492D01*
X220188754Y-187709779D01*
X220077814Y-187663826D01*
X219960040Y-187640400D01*
X219839960Y-187640400D01*
X219722186Y-187663826D01*
X219611246Y-187709779D01*
X219511402Y-187776492D01*
X219426492Y-187861402D01*
X219359779Y-187961246D01*
X219313826Y-188072186D01*
X219290400Y-188189960D01*
X218301600Y-188189960D01*
X218301600Y-184943460D01*
X222137900Y-184943460D01*
X222137900Y-185063540D01*
X222161326Y-185181314D01*
X222207279Y-185292254D01*
X222273992Y-185392098D01*
X222358902Y-185477008D01*
X222458746Y-185543721D01*
X222569686Y-185589674D01*
X222687460Y-185613100D01*
X222807540Y-185613100D01*
X222925314Y-185589674D01*
X223036254Y-185543721D01*
X223136098Y-185477008D01*
X223221008Y-185392098D01*
X223287721Y-185292254D01*
X223333674Y-185181314D01*
X223357100Y-185063540D01*
X223357100Y-184943460D01*
X227281400Y-184943460D01*
X227281400Y-185063540D01*
X227304826Y-185181314D01*
X227350779Y-185292254D01*
X227417492Y-185392098D01*
X227502402Y-185477008D01*
X227602246Y-185543721D01*
X227713186Y-185589674D01*
X227830960Y-185613100D01*
X227951040Y-185613100D01*
X228068814Y-185589674D01*
X228179754Y-185543721D01*
X228279598Y-185477008D01*
X228364508Y-185392098D01*
X228431221Y-185292254D01*
X228477174Y-185181314D01*
X228500600Y-185063540D01*
X228500600Y-184943460D01*
X228477174Y-184825686D01*
X228431221Y-184714746D01*
X228364508Y-184614902D01*
X228279598Y-184529992D01*
X228179754Y-184463279D01*
X228068814Y-184417326D01*
X227951040Y-184393900D01*
X227830960Y-184393900D01*
X227713186Y-184417326D01*
X227602246Y-184463279D01*
X227502402Y-184529992D01*
X227417492Y-184614902D01*
X227350779Y-184714746D01*
X227304826Y-184825686D01*
X227281400Y-184943460D01*
X223357100Y-184943460D01*
X223333674Y-184825686D01*
X223287721Y-184714746D01*
X223221008Y-184614902D01*
X223136098Y-184529992D01*
X223036254Y-184463279D01*
X222925314Y-184417326D01*
X222807540Y-184393900D01*
X222687460Y-184393900D01*
X222569686Y-184417326D01*
X222458746Y-184463279D01*
X222358902Y-184529992D01*
X222273992Y-184614902D01*
X222207279Y-184714746D01*
X222161326Y-184825686D01*
X222137900Y-184943460D01*
X218301600Y-184943460D01*
X218301600Y-182439960D01*
X219290400Y-182439960D01*
X219290400Y-182560040D01*
X219313826Y-182677814D01*
X219359779Y-182788754D01*
X219426492Y-182888598D01*
X219511402Y-182973508D01*
X219611246Y-183040221D01*
X219722186Y-183086174D01*
X219839960Y-183109600D01*
X219960040Y-183109600D01*
X220077814Y-183086174D01*
X220188754Y-183040221D01*
X220288598Y-182973508D01*
X220373508Y-182888598D01*
X220440221Y-182788754D01*
X220486174Y-182677814D01*
X220509600Y-182560040D01*
X220509600Y-182439960D01*
X220486174Y-182322186D01*
X220440221Y-182211246D01*
X220373508Y-182111402D01*
X220288598Y-182026492D01*
X220188754Y-181959779D01*
X220077814Y-181913826D01*
X219960040Y-181890400D01*
X219839960Y-181890400D01*
X219722186Y-181913826D01*
X219611246Y-181959779D01*
X219511402Y-182026492D01*
X219426492Y-182111402D01*
X219359779Y-182211246D01*
X219313826Y-182322186D01*
X219290400Y-182439960D01*
X218301600Y-182439960D01*
X218301600Y-181601600D01*
X231398400Y-181601600D01*
X231398400Y-201898400D01*
%TA.AperFunction,Conductor*%
D20*
G36*
X231398400Y-201898400D02*
G01*
X224302684Y-201898400D01*
X224313913Y-201881595D01*
X224374641Y-201734985D01*
X224405600Y-201579345D01*
X224405600Y-201420655D01*
X224374641Y-201265015D01*
X224313913Y-201118405D01*
X224225750Y-200986460D01*
X224113540Y-200874250D01*
X223981595Y-200786087D01*
X223834985Y-200725359D01*
X223679345Y-200694400D01*
X223520655Y-200694400D01*
X223365015Y-200725359D01*
X223218405Y-200786087D01*
X223086460Y-200874250D01*
X222974250Y-200986460D01*
X222886087Y-201118405D01*
X222825359Y-201265015D01*
X222794400Y-201420655D01*
X222794400Y-201579345D01*
X222825359Y-201734985D01*
X222886087Y-201881595D01*
X222897316Y-201898400D01*
X219902684Y-201898400D01*
X219913913Y-201881595D01*
X219974641Y-201734985D01*
X220005600Y-201579345D01*
X220005600Y-201420655D01*
X219974641Y-201265015D01*
X219913913Y-201118405D01*
X219825750Y-200986460D01*
X219713540Y-200874250D01*
X219581595Y-200786087D01*
X219434985Y-200725359D01*
X219279345Y-200694400D01*
X219120655Y-200694400D01*
X218965015Y-200725359D01*
X218818405Y-200786087D01*
X218686460Y-200874250D01*
X218574250Y-200986460D01*
X218486087Y-201118405D01*
X218425359Y-201265015D01*
X218394400Y-201420655D01*
X218394400Y-201579345D01*
X218425359Y-201734985D01*
X218486087Y-201881595D01*
X218497316Y-201898400D01*
X218301600Y-201898400D01*
X218301600Y-198849960D01*
X223217400Y-198849960D01*
X223217400Y-198970040D01*
X223240826Y-199087814D01*
X223286779Y-199198754D01*
X223353492Y-199298598D01*
X223438402Y-199383508D01*
X223538246Y-199450221D01*
X223649186Y-199496174D01*
X223766960Y-199519600D01*
X223887040Y-199519600D01*
X224004814Y-199496174D01*
X224115754Y-199450221D01*
X224215598Y-199383508D01*
X224300508Y-199298598D01*
X224367221Y-199198754D01*
X224413174Y-199087814D01*
X224436600Y-198970040D01*
X224436600Y-198849960D01*
X225185900Y-198849960D01*
X225185900Y-198970040D01*
X225209326Y-199087814D01*
X225255279Y-199198754D01*
X225321992Y-199298598D01*
X225406902Y-199383508D01*
X225506746Y-199450221D01*
X225617686Y-199496174D01*
X225735460Y-199519600D01*
X225855540Y-199519600D01*
X225973314Y-199496174D01*
X226084254Y-199450221D01*
X226184098Y-199383508D01*
X226269008Y-199298598D01*
X226335721Y-199198754D01*
X226381674Y-199087814D01*
X226405100Y-198970040D01*
X226405100Y-198849960D01*
X226381674Y-198732186D01*
X226335721Y-198621246D01*
X226269008Y-198521402D01*
X226184098Y-198436492D01*
X226084254Y-198369779D01*
X225973314Y-198323826D01*
X225855540Y-198300400D01*
X225735460Y-198300400D01*
X225617686Y-198323826D01*
X225506746Y-198369779D01*
X225406902Y-198436492D01*
X225321992Y-198521402D01*
X225255279Y-198621246D01*
X225209326Y-198732186D01*
X225185900Y-198849960D01*
X224436600Y-198849960D01*
X224413174Y-198732186D01*
X224367221Y-198621246D01*
X224300508Y-198521402D01*
X224215598Y-198436492D01*
X224115754Y-198369779D01*
X224004814Y-198323826D01*
X223887040Y-198300400D01*
X223766960Y-198300400D01*
X223649186Y-198323826D01*
X223538246Y-198369779D01*
X223438402Y-198436492D01*
X223353492Y-198521402D01*
X223286779Y-198621246D01*
X223240826Y-198732186D01*
X223217400Y-198849960D01*
X218301600Y-198849960D01*
X218301600Y-195189960D01*
X219290400Y-195189960D01*
X219290400Y-195310040D01*
X219313826Y-195427814D01*
X219359779Y-195538754D01*
X219426492Y-195638598D01*
X219511402Y-195723508D01*
X219611246Y-195790221D01*
X219722186Y-195836174D01*
X219839960Y-195859600D01*
X219960040Y-195859600D01*
X219982973Y-195855038D01*
X219980900Y-195865460D01*
X219980900Y-195985540D01*
X220004326Y-196103314D01*
X220050279Y-196214254D01*
X220116992Y-196314098D01*
X220201902Y-196399008D01*
X220301746Y-196465721D01*
X220412686Y-196511674D01*
X220530460Y-196535100D01*
X220650540Y-196535100D01*
X220768314Y-196511674D01*
X220879254Y-196465721D01*
X220969500Y-196405421D01*
X221059746Y-196465721D01*
X221170686Y-196511674D01*
X221288460Y-196535100D01*
X221408540Y-196535100D01*
X221526314Y-196511674D01*
X221637254Y-196465721D01*
X221737098Y-196399008D01*
X221822008Y-196314098D01*
X221888721Y-196214254D01*
X221934674Y-196103314D01*
X221958100Y-195985540D01*
X221958100Y-195865460D01*
X221950487Y-195827186D01*
X221972186Y-195836174D01*
X222089960Y-195859600D01*
X222120191Y-195859600D01*
X222116500Y-195864097D01*
X222103404Y-195888598D01*
X222074600Y-195942487D01*
X222053783Y-196011111D01*
X222019992Y-196044902D01*
X221953279Y-196144746D01*
X221907326Y-196255686D01*
X221883900Y-196373460D01*
X221883900Y-196493540D01*
X221907326Y-196611314D01*
X221953279Y-196722254D01*
X222019992Y-196822098D01*
X222104902Y-196907008D01*
X222204746Y-196973721D01*
X222315686Y-197019674D01*
X222433460Y-197043100D01*
X222553540Y-197043100D01*
X222671314Y-197019674D01*
X222772900Y-196977596D01*
X222772900Y-197065040D01*
X222796326Y-197182814D01*
X222842279Y-197293754D01*
X222908992Y-197393598D01*
X222993902Y-197478508D01*
X223093746Y-197545221D01*
X223204686Y-197591174D01*
X223322460Y-197614600D01*
X223442540Y-197614600D01*
X223560314Y-197591174D01*
X223671254Y-197545221D01*
X223771098Y-197478508D01*
X223856008Y-197393598D01*
X223922721Y-197293754D01*
X223968674Y-197182814D01*
X223992100Y-197065040D01*
X223992100Y-196944960D01*
X223968674Y-196827186D01*
X223922721Y-196716246D01*
X223856008Y-196616402D01*
X223771098Y-196531492D01*
X223671254Y-196464779D01*
X223560314Y-196418826D01*
X223442540Y-196395400D01*
X223322460Y-196395400D01*
X223204686Y-196418826D01*
X223103100Y-196460904D01*
X223103100Y-196373460D01*
X223079674Y-196255686D01*
X223053980Y-196193656D01*
X223807676Y-195439960D01*
X228040400Y-195439960D01*
X228040400Y-195560040D01*
X228063826Y-195677814D01*
X228109779Y-195788754D01*
X228176492Y-195888598D01*
X228261402Y-195973508D01*
X228361246Y-196040221D01*
X228472186Y-196086174D01*
X228589960Y-196109600D01*
X228710040Y-196109600D01*
X228827814Y-196086174D01*
X228938754Y-196040221D01*
X229038598Y-195973508D01*
X229123508Y-195888598D01*
X229190221Y-195788754D01*
X229236174Y-195677814D01*
X229259600Y-195560040D01*
X229259600Y-195439960D01*
X229236174Y-195322186D01*
X229190221Y-195211246D01*
X229123508Y-195111402D01*
X229038598Y-195026492D01*
X228938754Y-194959779D01*
X228827814Y-194913826D01*
X228710040Y-194890400D01*
X228589960Y-194890400D01*
X228472186Y-194913826D01*
X228361246Y-194959779D01*
X228261402Y-195026492D01*
X228176492Y-195111402D01*
X228109779Y-195211246D01*
X228063826Y-195322186D01*
X228040400Y-195439960D01*
X223807676Y-195439960D01*
X226953397Y-192294240D01*
X226970612Y-192280112D01*
X227018151Y-192222186D01*
X227027000Y-192211404D01*
X227068900Y-192133014D01*
X227075503Y-192111246D01*
X227094702Y-192047957D01*
X227101231Y-191981665D01*
X227101231Y-191981662D01*
X227103414Y-191959500D01*
X227101231Y-191937338D01*
X227101231Y-190939960D01*
X228790400Y-190939960D01*
X228790400Y-191060040D01*
X228813826Y-191177814D01*
X228859779Y-191288754D01*
X228926492Y-191388598D01*
X229011402Y-191473508D01*
X229111246Y-191540221D01*
X229222186Y-191586174D01*
X229339960Y-191609600D01*
X229460040Y-191609600D01*
X229577814Y-191586174D01*
X229688754Y-191540221D01*
X229788598Y-191473508D01*
X229873508Y-191388598D01*
X229940221Y-191288754D01*
X229986174Y-191177814D01*
X230009600Y-191060040D01*
X230009600Y-190939960D01*
X229986174Y-190822186D01*
X229940221Y-190711246D01*
X229873508Y-190611402D01*
X229788598Y-190526492D01*
X229688754Y-190459779D01*
X229577814Y-190413826D01*
X229460040Y-190390400D01*
X229339960Y-190390400D01*
X229222186Y-190413826D01*
X229111246Y-190459779D01*
X229011402Y-190526492D01*
X228926492Y-190611402D01*
X228859779Y-190711246D01*
X228813826Y-190822186D01*
X228790400Y-190939960D01*
X227101231Y-190939960D01*
X227101231Y-187721655D01*
X227103413Y-187699500D01*
X227101231Y-187677345D01*
X227101231Y-187677335D01*
X227094702Y-187611043D01*
X227073163Y-187540040D01*
X227068900Y-187525985D01*
X227040100Y-187472105D01*
X227040100Y-187419960D01*
X227016674Y-187302186D01*
X226970721Y-187191246D01*
X226904008Y-187091402D01*
X226819098Y-187006492D01*
X226719254Y-186939779D01*
X226608314Y-186893826D01*
X226490540Y-186870400D01*
X226370460Y-186870400D01*
X226252686Y-186893826D01*
X226141746Y-186939779D01*
X226041902Y-187006492D01*
X225956992Y-187091402D01*
X225890279Y-187191246D01*
X225875195Y-187227662D01*
X225869008Y-187218402D01*
X225784098Y-187133492D01*
X225684254Y-187066779D01*
X225573314Y-187020826D01*
X225455540Y-186997400D01*
X225335460Y-186997400D01*
X225217686Y-187020826D01*
X225106746Y-187066779D01*
X225016500Y-187127079D01*
X224926254Y-187066779D01*
X224815314Y-187020826D01*
X224697540Y-186997400D01*
X224577460Y-186997400D01*
X224459686Y-187020826D01*
X224348746Y-187066779D01*
X224248902Y-187133492D01*
X224163992Y-187218402D01*
X224097279Y-187318246D01*
X224051326Y-187429186D01*
X224027900Y-187546960D01*
X224027900Y-187652744D01*
X223972186Y-187663826D01*
X223861246Y-187709779D01*
X223761402Y-187776492D01*
X223676492Y-187861402D01*
X223609779Y-187961246D01*
X223563826Y-188072186D01*
X223540400Y-188189960D01*
X223540400Y-188310040D01*
X223563826Y-188427814D01*
X223609779Y-188538754D01*
X223676492Y-188638598D01*
X223761402Y-188723508D01*
X223861246Y-188790221D01*
X223972186Y-188836174D01*
X224089960Y-188859600D01*
X224210040Y-188859600D01*
X224327814Y-188836174D01*
X224438754Y-188790221D01*
X224538598Y-188723508D01*
X224623508Y-188638598D01*
X224690221Y-188538754D01*
X224736174Y-188427814D01*
X224759600Y-188310040D01*
X224759600Y-188204256D01*
X224815314Y-188193174D01*
X224926254Y-188147221D01*
X225016500Y-188086921D01*
X225106746Y-188147221D01*
X225217686Y-188193174D01*
X225335460Y-188216600D01*
X225357561Y-188216600D01*
X225313826Y-188322186D01*
X225290400Y-188439960D01*
X225290400Y-188560040D01*
X225313826Y-188677814D01*
X225359779Y-188788754D01*
X225426492Y-188888598D01*
X225511402Y-188973508D01*
X225611246Y-189040221D01*
X225722186Y-189086174D01*
X225839960Y-189109600D01*
X225960040Y-189109600D01*
X226077814Y-189086174D01*
X226188754Y-189040221D01*
X226198769Y-189033529D01*
X226198770Y-190883471D01*
X226188754Y-190876779D01*
X226077814Y-190830826D01*
X225960040Y-190807400D01*
X225839960Y-190807400D01*
X225722186Y-190830826D01*
X225611246Y-190876779D01*
X225511402Y-190943492D01*
X225426492Y-191028402D01*
X225359779Y-191128246D01*
X225313826Y-191239186D01*
X225290400Y-191356960D01*
X225290400Y-191477040D01*
X225313826Y-191594814D01*
X225359779Y-191705754D01*
X225426492Y-191805598D01*
X225511402Y-191890508D01*
X225611246Y-191957221D01*
X225722186Y-192003174D01*
X225839960Y-192026600D01*
X225944763Y-192026600D01*
X224509600Y-193461763D01*
X224509600Y-193439960D01*
X224486174Y-193322186D01*
X224440221Y-193211246D01*
X224373508Y-193111402D01*
X224288598Y-193026492D01*
X224188754Y-192959779D01*
X224077814Y-192913826D01*
X223960040Y-192890400D01*
X223839960Y-192890400D01*
X223722186Y-192913826D01*
X223611246Y-192959779D01*
X223511402Y-193026492D01*
X223426492Y-193111402D01*
X223359779Y-193211246D01*
X223313826Y-193322186D01*
X223290400Y-193439960D01*
X223290400Y-193560040D01*
X223313826Y-193677814D01*
X223359779Y-193788754D01*
X223426492Y-193888598D01*
X223511402Y-193973508D01*
X223611246Y-194040221D01*
X223722186Y-194086174D01*
X223839960Y-194109600D01*
X223861764Y-194109600D01*
X222759600Y-195211764D01*
X222759600Y-195189960D01*
X222736174Y-195072186D01*
X222690221Y-194961246D01*
X222623508Y-194861402D01*
X222538598Y-194776492D01*
X222438754Y-194709779D01*
X222327814Y-194663826D01*
X222210040Y-194640400D01*
X222089960Y-194640400D01*
X221972186Y-194663826D01*
X221861246Y-194709779D01*
X221761402Y-194776492D01*
X221676492Y-194861402D01*
X221609779Y-194961246D01*
X221563826Y-195072186D01*
X221540400Y-195189960D01*
X221540400Y-195310040D01*
X221548013Y-195348314D01*
X221526314Y-195339326D01*
X221408540Y-195315900D01*
X221288460Y-195315900D01*
X221170686Y-195339326D01*
X221059746Y-195385279D01*
X220969500Y-195445579D01*
X220879254Y-195385279D01*
X220768314Y-195339326D01*
X220650540Y-195315900D01*
X220530460Y-195315900D01*
X220507527Y-195320462D01*
X220509600Y-195310040D01*
X220509600Y-195189960D01*
X220486174Y-195072186D01*
X220440221Y-194961246D01*
X220373508Y-194861402D01*
X220288598Y-194776492D01*
X220188754Y-194709779D01*
X220077814Y-194663826D01*
X219960040Y-194640400D01*
X219839960Y-194640400D01*
X219722186Y-194663826D01*
X219611246Y-194709779D01*
X219511402Y-194776492D01*
X219426492Y-194861402D01*
X219359779Y-194961246D01*
X219313826Y-195072186D01*
X219290400Y-195189960D01*
X218301600Y-195189960D01*
X218301600Y-192339960D01*
X220490400Y-192339960D01*
X220490400Y-192460040D01*
X220513826Y-192577814D01*
X220559779Y-192688754D01*
X220626492Y-192788598D01*
X220711402Y-192873508D01*
X220811246Y-192940221D01*
X220922186Y-192986174D01*
X221039960Y-193009600D01*
X221160040Y-193009600D01*
X221277814Y-192986174D01*
X221388754Y-192940221D01*
X221488598Y-192873508D01*
X221573508Y-192788598D01*
X221640221Y-192688754D01*
X221686174Y-192577814D01*
X221709600Y-192460040D01*
X221709600Y-192339960D01*
X221686174Y-192222186D01*
X221640221Y-192111246D01*
X221573508Y-192011402D01*
X221488598Y-191926492D01*
X221388754Y-191859779D01*
X221277814Y-191813826D01*
X221160040Y-191790400D01*
X221039960Y-191790400D01*
X220922186Y-191813826D01*
X220811246Y-191859779D01*
X220711402Y-191926492D01*
X220626492Y-192011402D01*
X220559779Y-192111246D01*
X220513826Y-192222186D01*
X220490400Y-192339960D01*
X218301600Y-192339960D01*
X218301600Y-190239960D01*
X222290400Y-190239960D01*
X222290400Y-190360040D01*
X222313826Y-190477814D01*
X222359779Y-190588754D01*
X222426492Y-190688598D01*
X222511402Y-190773508D01*
X222611246Y-190840221D01*
X222722186Y-190886174D01*
X222839960Y-190909600D01*
X222960040Y-190909600D01*
X223077814Y-190886174D01*
X223188754Y-190840221D01*
X223288598Y-190773508D01*
X223373508Y-190688598D01*
X223440221Y-190588754D01*
X223486174Y-190477814D01*
X223509600Y-190360040D01*
X223509600Y-190239960D01*
X223486174Y-190122186D01*
X223440221Y-190011246D01*
X223373508Y-189911402D01*
X223288598Y-189826492D01*
X223188754Y-189759779D01*
X223077814Y-189713826D01*
X222960040Y-189690400D01*
X222839960Y-189690400D01*
X222722186Y-189713826D01*
X222611246Y-189759779D01*
X222511402Y-189826492D01*
X222426492Y-189911402D01*
X222359779Y-190011246D01*
X222313826Y-190122186D01*
X222290400Y-190239960D01*
X218301600Y-190239960D01*
X218301600Y-188189960D01*
X219290400Y-188189960D01*
X219290400Y-188310040D01*
X219313826Y-188427814D01*
X219359779Y-188538754D01*
X219426492Y-188638598D01*
X219511402Y-188723508D01*
X219611246Y-188790221D01*
X219722186Y-188836174D01*
X219839960Y-188859600D01*
X219960040Y-188859600D01*
X220077814Y-188836174D01*
X220188754Y-188790221D01*
X220288598Y-188723508D01*
X220373508Y-188638598D01*
X220440221Y-188538754D01*
X220486174Y-188427814D01*
X220509600Y-188310040D01*
X220509600Y-188189960D01*
X220486174Y-188072186D01*
X220440221Y-187961246D01*
X220373508Y-187861402D01*
X220288598Y-187776492D01*
X220188754Y-187709779D01*
X220077814Y-187663826D01*
X219960040Y-187640400D01*
X219839960Y-187640400D01*
X219722186Y-187663826D01*
X219611246Y-187709779D01*
X219511402Y-187776492D01*
X219426492Y-187861402D01*
X219359779Y-187961246D01*
X219313826Y-188072186D01*
X219290400Y-188189960D01*
X218301600Y-188189960D01*
X218301600Y-184943460D01*
X222137900Y-184943460D01*
X222137900Y-185063540D01*
X222161326Y-185181314D01*
X222207279Y-185292254D01*
X222273992Y-185392098D01*
X222358902Y-185477008D01*
X222458746Y-185543721D01*
X222569686Y-185589674D01*
X222687460Y-185613100D01*
X222807540Y-185613100D01*
X222925314Y-185589674D01*
X223036254Y-185543721D01*
X223136098Y-185477008D01*
X223221008Y-185392098D01*
X223287721Y-185292254D01*
X223333674Y-185181314D01*
X223357100Y-185063540D01*
X223357100Y-184943460D01*
X227281400Y-184943460D01*
X227281400Y-185063540D01*
X227304826Y-185181314D01*
X227350779Y-185292254D01*
X227417492Y-185392098D01*
X227502402Y-185477008D01*
X227602246Y-185543721D01*
X227713186Y-185589674D01*
X227830960Y-185613100D01*
X227951040Y-185613100D01*
X228068814Y-185589674D01*
X228179754Y-185543721D01*
X228279598Y-185477008D01*
X228364508Y-185392098D01*
X228431221Y-185292254D01*
X228477174Y-185181314D01*
X228500600Y-185063540D01*
X228500600Y-184943460D01*
X228477174Y-184825686D01*
X228431221Y-184714746D01*
X228364508Y-184614902D01*
X228279598Y-184529992D01*
X228179754Y-184463279D01*
X228068814Y-184417326D01*
X227951040Y-184393900D01*
X227830960Y-184393900D01*
X227713186Y-184417326D01*
X227602246Y-184463279D01*
X227502402Y-184529992D01*
X227417492Y-184614902D01*
X227350779Y-184714746D01*
X227304826Y-184825686D01*
X227281400Y-184943460D01*
X223357100Y-184943460D01*
X223333674Y-184825686D01*
X223287721Y-184714746D01*
X223221008Y-184614902D01*
X223136098Y-184529992D01*
X223036254Y-184463279D01*
X222925314Y-184417326D01*
X222807540Y-184393900D01*
X222687460Y-184393900D01*
X222569686Y-184417326D01*
X222458746Y-184463279D01*
X222358902Y-184529992D01*
X222273992Y-184614902D01*
X222207279Y-184714746D01*
X222161326Y-184825686D01*
X222137900Y-184943460D01*
X218301600Y-184943460D01*
X218301600Y-182439960D01*
X219290400Y-182439960D01*
X219290400Y-182560040D01*
X219313826Y-182677814D01*
X219359779Y-182788754D01*
X219426492Y-182888598D01*
X219511402Y-182973508D01*
X219611246Y-183040221D01*
X219722186Y-183086174D01*
X219839960Y-183109600D01*
X219960040Y-183109600D01*
X220077814Y-183086174D01*
X220188754Y-183040221D01*
X220288598Y-182973508D01*
X220373508Y-182888598D01*
X220440221Y-182788754D01*
X220486174Y-182677814D01*
X220509600Y-182560040D01*
X220509600Y-182439960D01*
X220486174Y-182322186D01*
X220440221Y-182211246D01*
X220373508Y-182111402D01*
X220288598Y-182026492D01*
X220188754Y-181959779D01*
X220077814Y-181913826D01*
X219960040Y-181890400D01*
X219839960Y-181890400D01*
X219722186Y-181913826D01*
X219611246Y-181959779D01*
X219511402Y-182026492D01*
X219426492Y-182111402D01*
X219359779Y-182211246D01*
X219313826Y-182322186D01*
X219290400Y-182439960D01*
X218301600Y-182439960D01*
X218301600Y-181601600D01*
X231398400Y-181601600D01*
X231398400Y-201898400D01*
G37*
%TD.AperFunction*%
%TD*%
D16*
%TO.N,GND*%
X215270189Y-150544376D02*
X215433850Y-150594022D01*
X215584672Y-150674638D01*
X215716870Y-150783130D01*
X215825362Y-150915328D01*
X215905978Y-151066150D01*
X215955624Y-151229811D01*
X215973000Y-151406234D01*
X215973000Y-156693766D01*
X215955624Y-156870189D01*
X215905978Y-157033850D01*
X215825362Y-157184672D01*
X215716870Y-157316870D01*
X215584672Y-157425362D01*
X215433850Y-157505978D01*
X215270189Y-157555624D01*
X215093766Y-157573000D01*
X211100000Y-157573000D01*
X211087552Y-157573612D01*
X210892462Y-157592827D01*
X210868044Y-157597683D01*
X210680451Y-157654588D01*
X210657450Y-157664116D01*
X210484563Y-157756526D01*
X210463862Y-157770358D01*
X210312325Y-157894721D01*
X210294721Y-157912325D01*
X210170358Y-158063862D01*
X210156526Y-158084563D01*
X210064116Y-158257450D01*
X210054588Y-158280451D01*
X209997683Y-158468044D01*
X209992827Y-158492462D01*
X209973612Y-158687552D01*
X209973000Y-158700000D01*
X209973000Y-210585786D01*
X209973612Y-210598234D01*
X209992827Y-210793325D01*
X209997683Y-210817743D01*
X210054588Y-211005336D01*
X210064116Y-211028337D01*
X210156526Y-211201224D01*
X210170358Y-211221925D01*
X210294721Y-211373461D01*
X210303090Y-211382696D01*
X218512898Y-219592504D01*
X218625363Y-219729542D01*
X218705978Y-219880363D01*
X218755624Y-220044024D01*
X218773000Y-220220448D01*
X218773000Y-220622267D01*
X218489341Y-220400462D01*
X215989803Y-222900000D01*
X218489341Y-225399538D01*
X218773000Y-225177733D01*
X218773000Y-226193766D01*
X218755624Y-226370189D01*
X218705978Y-226533850D01*
X218625362Y-226684672D01*
X218516870Y-226816870D01*
X218384672Y-226925362D01*
X218233850Y-227005978D01*
X218070189Y-227055624D01*
X217893766Y-227073000D01*
X187512956Y-227073000D01*
X187339328Y-227056177D01*
X187178071Y-227008094D01*
X187029045Y-226929947D01*
X186892980Y-226820781D01*
X185527401Y-225489341D01*
X213400462Y-225489341D01*
X213761637Y-225951236D01*
X214397992Y-226309782D01*
X215092068Y-226537291D01*
X215817193Y-226625021D01*
X216545499Y-226569600D01*
X217249000Y-226373159D01*
X217900659Y-226043246D01*
X218038363Y-225951236D01*
X218399538Y-225489341D01*
X215900000Y-222989803D01*
X213400462Y-225489341D01*
X185527401Y-225489341D01*
X183495100Y-223507848D01*
X183379287Y-223369874D01*
X183296169Y-223217287D01*
X183244940Y-223051250D01*
X183227000Y-222872008D01*
X183227000Y-222817193D01*
X212174979Y-222817193D01*
X212230400Y-223545499D01*
X212426841Y-224249000D01*
X212756754Y-224900659D01*
X212848764Y-225038363D01*
X213310659Y-225399538D01*
X215810197Y-222900000D01*
X213310659Y-220400462D01*
X212848764Y-220761637D01*
X212490218Y-221397992D01*
X212262709Y-222092068D01*
X212174979Y-222817193D01*
X183227000Y-222817193D01*
X183227000Y-220919229D01*
X187587000Y-220919229D01*
X187587000Y-221092771D01*
X187620856Y-221262978D01*
X187687268Y-221423310D01*
X187783682Y-221567605D01*
X187906395Y-221690318D01*
X188050690Y-221786732D01*
X188211022Y-221853144D01*
X188381229Y-221887000D01*
X188554771Y-221887000D01*
X188724978Y-221853144D01*
X188885310Y-221786732D01*
X189029605Y-221690318D01*
X189152318Y-221567605D01*
X189248732Y-221423310D01*
X189315144Y-221262978D01*
X189349000Y-221092771D01*
X189349000Y-220919229D01*
X189315144Y-220749022D01*
X189248732Y-220588690D01*
X189152318Y-220444395D01*
X189029605Y-220321682D01*
X189013108Y-220310659D01*
X213400462Y-220310659D01*
X215900000Y-222810197D01*
X218399538Y-220310659D01*
X218038363Y-219848764D01*
X217402008Y-219490218D01*
X216707932Y-219262709D01*
X215982807Y-219174979D01*
X215254501Y-219230400D01*
X214551000Y-219426841D01*
X213899341Y-219756754D01*
X213761637Y-219848764D01*
X213400462Y-220310659D01*
X189013108Y-220310659D01*
X188885310Y-220225268D01*
X188724978Y-220158856D01*
X188554771Y-220125000D01*
X188381229Y-220125000D01*
X188211022Y-220158856D01*
X188050690Y-220225268D01*
X187906395Y-220321682D01*
X187783682Y-220444395D01*
X187687268Y-220588690D01*
X187620856Y-220749022D01*
X187587000Y-220919229D01*
X183227000Y-220919229D01*
X183227000Y-217158458D01*
X188065000Y-217158458D01*
X188065000Y-217283542D01*
X188089403Y-217406223D01*
X188137271Y-217521785D01*
X188189532Y-217600000D01*
X188137271Y-217678215D01*
X188089403Y-217793777D01*
X188065000Y-217916458D01*
X188065000Y-218041542D01*
X188089403Y-218164223D01*
X188137271Y-218279785D01*
X188206764Y-218383789D01*
X188295211Y-218472236D01*
X188399215Y-218541729D01*
X188514777Y-218589597D01*
X188519498Y-218590536D01*
X188495211Y-218606764D01*
X188406764Y-218695211D01*
X188337271Y-218799215D01*
X188289403Y-218914777D01*
X188265000Y-219037458D01*
X188265000Y-219162542D01*
X188289403Y-219285223D01*
X188337271Y-219400785D01*
X188406764Y-219504789D01*
X188495211Y-219593236D01*
X188599215Y-219662729D01*
X188714777Y-219710597D01*
X188837458Y-219735000D01*
X188962542Y-219735000D01*
X189085223Y-219710597D01*
X189200785Y-219662729D01*
X189304789Y-219593236D01*
X189315425Y-219582600D01*
X193276295Y-219582600D01*
X193300000Y-219584935D01*
X193323705Y-219582600D01*
X193323707Y-219582600D01*
X193394606Y-219575617D01*
X193485577Y-219548022D01*
X193569415Y-219503209D01*
X193642901Y-219442901D01*
X193658017Y-219424482D01*
X201624482Y-211458017D01*
X201642901Y-211442901D01*
X201703209Y-211369415D01*
X201748022Y-211285577D01*
X201775617Y-211194606D01*
X201782600Y-211123707D01*
X201782600Y-211123698D01*
X201784934Y-211100001D01*
X201782600Y-211076304D01*
X201782600Y-203615425D01*
X201793236Y-203604789D01*
X201862729Y-203500785D01*
X201910597Y-203385223D01*
X201935000Y-203262542D01*
X201935000Y-203137458D01*
X201910597Y-203014777D01*
X201862729Y-202899215D01*
X201793236Y-202795211D01*
X201704789Y-202706764D01*
X201600785Y-202637271D01*
X201485223Y-202589403D01*
X201362542Y-202565000D01*
X201237458Y-202565000D01*
X201114777Y-202589403D01*
X200999215Y-202637271D01*
X200895211Y-202706764D01*
X200806764Y-202795211D01*
X200737271Y-202899215D01*
X200689403Y-203014777D01*
X200665000Y-203137458D01*
X200665000Y-203262542D01*
X200689403Y-203385223D01*
X200737271Y-203500785D01*
X200806764Y-203604789D01*
X200817400Y-203615425D01*
X200817401Y-210900100D01*
X193100101Y-218617400D01*
X189315425Y-218617400D01*
X189304789Y-218606764D01*
X189200785Y-218537271D01*
X189085223Y-218489403D01*
X189080502Y-218488464D01*
X189104789Y-218472236D01*
X189193236Y-218383789D01*
X189262729Y-218279785D01*
X189310597Y-218164223D01*
X189335000Y-218041542D01*
X189335000Y-217916458D01*
X189310597Y-217793777D01*
X189262729Y-217678215D01*
X189210468Y-217600000D01*
X189262729Y-217521785D01*
X189310597Y-217406223D01*
X189335000Y-217283542D01*
X189335000Y-217158458D01*
X189310597Y-217035777D01*
X189262729Y-216920215D01*
X189193236Y-216816211D01*
X189104789Y-216727764D01*
X189000785Y-216658271D01*
X188885223Y-216610403D01*
X188762542Y-216586000D01*
X188637458Y-216586000D01*
X188514777Y-216610403D01*
X188399215Y-216658271D01*
X188295211Y-216727764D01*
X188206764Y-216816211D01*
X188137271Y-216920215D01*
X188089403Y-217035777D01*
X188065000Y-217158458D01*
X183227000Y-217158458D01*
X183227000Y-214919229D01*
X187587000Y-214919229D01*
X187587000Y-215092771D01*
X187620856Y-215262978D01*
X187687268Y-215423310D01*
X187783682Y-215567605D01*
X187906395Y-215690318D01*
X188050690Y-215786732D01*
X188211022Y-215853144D01*
X188381229Y-215887000D01*
X188554771Y-215887000D01*
X188724978Y-215853144D01*
X188885310Y-215786732D01*
X188959054Y-215737458D01*
X189565000Y-215737458D01*
X189565000Y-215862542D01*
X189589403Y-215985223D01*
X189637271Y-216100785D01*
X189706764Y-216204789D01*
X189795211Y-216293236D01*
X189899215Y-216362729D01*
X190014777Y-216410597D01*
X190137458Y-216435000D01*
X190262542Y-216435000D01*
X190385223Y-216410597D01*
X190479610Y-216371500D01*
X190671926Y-216371500D01*
X190700000Y-216374265D01*
X190728074Y-216371500D01*
X190812034Y-216363231D01*
X190919762Y-216330552D01*
X191019045Y-216277484D01*
X191106067Y-216206067D01*
X191123970Y-216184252D01*
X191484258Y-215823965D01*
X191506067Y-215806067D01*
X191577484Y-215719045D01*
X191630552Y-215619762D01*
X191663231Y-215512034D01*
X191665489Y-215489104D01*
X191689502Y-215444180D01*
X191725812Y-215324482D01*
X191735000Y-215231192D01*
X191738072Y-215200000D01*
X191735000Y-215168808D01*
X191735000Y-212663024D01*
X198926955Y-205471070D01*
X198951185Y-205451185D01*
X198988574Y-205405627D01*
X199030537Y-205354495D01*
X199056938Y-205305102D01*
X199089502Y-205244180D01*
X199125812Y-205124482D01*
X199135000Y-205031192D01*
X199135000Y-205031182D01*
X199138071Y-205000001D01*
X199135000Y-204968820D01*
X199135000Y-191337458D01*
X200665000Y-191337458D01*
X200665000Y-191462542D01*
X200689403Y-191585223D01*
X200737271Y-191700785D01*
X200806764Y-191804789D01*
X200817400Y-191815425D01*
X200817401Y-200884574D01*
X200806764Y-200895211D01*
X200737271Y-200999215D01*
X200689403Y-201114777D01*
X200665000Y-201237458D01*
X200665000Y-201362542D01*
X200689403Y-201485223D01*
X200737271Y-201600785D01*
X200806764Y-201704789D01*
X200895211Y-201793236D01*
X200999215Y-201862729D01*
X201114777Y-201910597D01*
X201237458Y-201935000D01*
X201362542Y-201935000D01*
X201485223Y-201910597D01*
X201600785Y-201862729D01*
X201704789Y-201793236D01*
X201793236Y-201704789D01*
X201862729Y-201600785D01*
X201910597Y-201485223D01*
X201935000Y-201362542D01*
X201935000Y-201237458D01*
X201910597Y-201114777D01*
X201862729Y-200999215D01*
X201793236Y-200895211D01*
X201782600Y-200884575D01*
X201782600Y-191815425D01*
X201793236Y-191804789D01*
X201862729Y-191700785D01*
X201910597Y-191585223D01*
X201935000Y-191462542D01*
X201935000Y-191337458D01*
X201910597Y-191214777D01*
X201862729Y-191099215D01*
X201793236Y-190995211D01*
X201704789Y-190906764D01*
X201600785Y-190837271D01*
X201485223Y-190789403D01*
X201362542Y-190765000D01*
X201237458Y-190765000D01*
X201114777Y-190789403D01*
X200999215Y-190837271D01*
X200895211Y-190906764D01*
X200806764Y-190995211D01*
X200737271Y-191099215D01*
X200689403Y-191214777D01*
X200665000Y-191337458D01*
X199135000Y-191337458D01*
X199135000Y-172837458D01*
X200665000Y-172837458D01*
X200665000Y-172962542D01*
X200689403Y-173085223D01*
X200737271Y-173200785D01*
X200806764Y-173304789D01*
X200817400Y-173315425D01*
X200817401Y-187684574D01*
X200806764Y-187695211D01*
X200737271Y-187799215D01*
X200689403Y-187914777D01*
X200665000Y-188037458D01*
X200665000Y-188162542D01*
X200689403Y-188285223D01*
X200737271Y-188400785D01*
X200806764Y-188504789D01*
X200895211Y-188593236D01*
X200999215Y-188662729D01*
X201114777Y-188710597D01*
X201237458Y-188735000D01*
X201362542Y-188735000D01*
X201485223Y-188710597D01*
X201600785Y-188662729D01*
X201704789Y-188593236D01*
X201793236Y-188504789D01*
X201862729Y-188400785D01*
X201910597Y-188285223D01*
X201935000Y-188162542D01*
X201935000Y-188037458D01*
X201910597Y-187914777D01*
X201862729Y-187799215D01*
X201793236Y-187695211D01*
X201782600Y-187684575D01*
X201782600Y-180789341D01*
X203000462Y-180789341D01*
X203361637Y-181251236D01*
X203997992Y-181609782D01*
X204692068Y-181837291D01*
X205417193Y-181925021D01*
X206145499Y-181869600D01*
X206849000Y-181673159D01*
X207500659Y-181343246D01*
X207638363Y-181251236D01*
X207999538Y-180789341D01*
X205500000Y-178289803D01*
X203000462Y-180789341D01*
X201782600Y-180789341D01*
X201782600Y-178217343D01*
X201830400Y-178845499D01*
X202026841Y-179549000D01*
X202356754Y-180200659D01*
X202448764Y-180338363D01*
X202910659Y-180699538D01*
X205410197Y-178200000D01*
X205589803Y-178200000D01*
X208089341Y-180699538D01*
X208551236Y-180338363D01*
X208909782Y-179702008D01*
X209137291Y-179007932D01*
X209225021Y-178282807D01*
X209169600Y-177554501D01*
X208973159Y-176851000D01*
X208643246Y-176199341D01*
X208551236Y-176061637D01*
X208089341Y-175700462D01*
X205589803Y-178200000D01*
X205410197Y-178200000D01*
X202910659Y-175700462D01*
X202448764Y-176061637D01*
X202090218Y-176697992D01*
X201862709Y-177392068D01*
X201782600Y-178054202D01*
X201782600Y-175610659D01*
X203000462Y-175610659D01*
X205500000Y-178110197D01*
X207999538Y-175610659D01*
X207638363Y-175148764D01*
X207002008Y-174790218D01*
X206307932Y-174562709D01*
X205582807Y-174474979D01*
X204854501Y-174530400D01*
X204151000Y-174726841D01*
X203499341Y-175056754D01*
X203361637Y-175148764D01*
X203000462Y-175610659D01*
X201782600Y-175610659D01*
X201782600Y-173315425D01*
X201793236Y-173304789D01*
X201862729Y-173200785D01*
X201910597Y-173085223D01*
X201935000Y-172962542D01*
X201935000Y-172837458D01*
X201910597Y-172714777D01*
X201862729Y-172599215D01*
X201793236Y-172495211D01*
X201704789Y-172406764D01*
X201600785Y-172337271D01*
X201485223Y-172289403D01*
X201362542Y-172265000D01*
X201237458Y-172265000D01*
X201114777Y-172289403D01*
X200999215Y-172337271D01*
X200895211Y-172406764D01*
X200806764Y-172495211D01*
X200737271Y-172599215D01*
X200689403Y-172714777D01*
X200665000Y-172837458D01*
X199135000Y-172837458D01*
X199135000Y-170437458D01*
X200665000Y-170437458D01*
X200665000Y-170562542D01*
X200689403Y-170685223D01*
X200737271Y-170800785D01*
X200806764Y-170904789D01*
X200895211Y-170993236D01*
X200999215Y-171062729D01*
X201114777Y-171110597D01*
X201237458Y-171135000D01*
X201362542Y-171135000D01*
X201485223Y-171110597D01*
X201600785Y-171062729D01*
X201704789Y-170993236D01*
X201793236Y-170904789D01*
X201862729Y-170800785D01*
X201910597Y-170685223D01*
X201935000Y-170562542D01*
X201935000Y-170437458D01*
X201910597Y-170314777D01*
X201862729Y-170199215D01*
X201793236Y-170095211D01*
X201782600Y-170084575D01*
X201782600Y-165299899D01*
X210724482Y-156358017D01*
X210742901Y-156342901D01*
X210803209Y-156269415D01*
X210848022Y-156185577D01*
X210875617Y-156094606D01*
X210882600Y-156023706D01*
X210882600Y-156023698D01*
X210884934Y-156000001D01*
X210882600Y-155976304D01*
X210882600Y-155915425D01*
X210893236Y-155904789D01*
X210962729Y-155800785D01*
X211010597Y-155685223D01*
X211035000Y-155562542D01*
X211035000Y-155437458D01*
X211010597Y-155314777D01*
X210962729Y-155199215D01*
X210893236Y-155095211D01*
X210804789Y-155006764D01*
X210700785Y-154937271D01*
X210585223Y-154889403D01*
X210462542Y-154865000D01*
X210337458Y-154865000D01*
X210214777Y-154889403D01*
X210099215Y-154937271D01*
X209995211Y-155006764D01*
X209906764Y-155095211D01*
X209837271Y-155199215D01*
X209789403Y-155314777D01*
X209765000Y-155437458D01*
X209765000Y-155562542D01*
X209789403Y-155685223D01*
X209837271Y-155800785D01*
X209869092Y-155848409D01*
X200975518Y-164741983D01*
X200957099Y-164757099D01*
X200896791Y-164830585D01*
X200851978Y-164914424D01*
X200824383Y-165005395D01*
X200817400Y-165076293D01*
X200815065Y-165100000D01*
X200817400Y-165123705D01*
X200817401Y-170084574D01*
X200806764Y-170095211D01*
X200737271Y-170199215D01*
X200689403Y-170314777D01*
X200665000Y-170437458D01*
X199135000Y-170437458D01*
X199135000Y-161963024D01*
X208263025Y-152835000D01*
X209954973Y-152835000D01*
X209923762Y-152866211D01*
X209854269Y-152970215D01*
X209806401Y-153085777D01*
X209781998Y-153208458D01*
X209781998Y-153333542D01*
X209806401Y-153456223D01*
X209854269Y-153571785D01*
X209906530Y-153650000D01*
X209854269Y-153728215D01*
X209806401Y-153843777D01*
X209781998Y-153966458D01*
X209781998Y-154091542D01*
X209806401Y-154214223D01*
X209854269Y-154329785D01*
X209923762Y-154433789D01*
X210012209Y-154522236D01*
X210116213Y-154591729D01*
X210231775Y-154639597D01*
X210354456Y-154664000D01*
X210479540Y-154664000D01*
X210602221Y-154639597D01*
X210717783Y-154591729D01*
X210821787Y-154522236D01*
X210910234Y-154433789D01*
X210979727Y-154329785D01*
X211027595Y-154214223D01*
X211051998Y-154091542D01*
X211051998Y-153966458D01*
X211027595Y-153843777D01*
X210979727Y-153728215D01*
X210927466Y-153650000D01*
X210979727Y-153571785D01*
X211027595Y-153456223D01*
X211051998Y-153333542D01*
X211051998Y-153208458D01*
X211027595Y-153085777D01*
X210979727Y-152970215D01*
X210910234Y-152866211D01*
X210876289Y-152832266D01*
X210893287Y-152828884D01*
X210924482Y-152825812D01*
X210954480Y-152816712D01*
X210985223Y-152810597D01*
X211014180Y-152798602D01*
X211044180Y-152789502D01*
X211071828Y-152774723D01*
X211100785Y-152762729D01*
X211126848Y-152745314D01*
X211154494Y-152730537D01*
X211178724Y-152710652D01*
X211204789Y-152693236D01*
X211226955Y-152671070D01*
X211251185Y-152651185D01*
X211271070Y-152626955D01*
X211293236Y-152604789D01*
X211310652Y-152578724D01*
X211330537Y-152554494D01*
X211345314Y-152526848D01*
X211362729Y-152500785D01*
X211374723Y-152471828D01*
X211389502Y-152444180D01*
X211398602Y-152414180D01*
X211410597Y-152385223D01*
X211416712Y-152354480D01*
X211425812Y-152324482D01*
X211428884Y-152293287D01*
X211435000Y-152262542D01*
X211435000Y-152231192D01*
X211438072Y-152200000D01*
X211435000Y-152168808D01*
X211435000Y-152137458D01*
X211428884Y-152106713D01*
X211425812Y-152075518D01*
X211416712Y-152045520D01*
X211410597Y-152014777D01*
X211398602Y-151985820D01*
X211389502Y-151955820D01*
X211374723Y-151928172D01*
X211362729Y-151899215D01*
X211345314Y-151873152D01*
X211330537Y-151845506D01*
X211310652Y-151821276D01*
X211293236Y-151795211D01*
X211271070Y-151773045D01*
X211251185Y-151748815D01*
X211226955Y-151728930D01*
X211204789Y-151706764D01*
X211178724Y-151689348D01*
X211154494Y-151669463D01*
X211126848Y-151654686D01*
X211100785Y-151637271D01*
X211071828Y-151625277D01*
X211044180Y-151610498D01*
X211014180Y-151601398D01*
X210985223Y-151589403D01*
X210954480Y-151583288D01*
X210924482Y-151574188D01*
X210893287Y-151571116D01*
X210862542Y-151565000D01*
X208031189Y-151565000D01*
X208000000Y-151561928D01*
X207968811Y-151565000D01*
X207968808Y-151565000D01*
X207875518Y-151574188D01*
X207755820Y-151610498D01*
X207645506Y-151669462D01*
X207600054Y-151706764D01*
X207548815Y-151748815D01*
X207528930Y-151773045D01*
X198073050Y-161228926D01*
X198048815Y-161248815D01*
X197969463Y-161345507D01*
X197910498Y-161455821D01*
X197874188Y-161575519D01*
X197865000Y-161668809D01*
X197865000Y-161668819D01*
X197861929Y-161700000D01*
X197865000Y-161731181D01*
X197865001Y-204736974D01*
X190673050Y-211928926D01*
X190648815Y-211948815D01*
X190569463Y-212045507D01*
X190510498Y-212155821D01*
X190474188Y-212275519D01*
X190465000Y-212368809D01*
X190465000Y-212368819D01*
X190461929Y-212400000D01*
X190465000Y-212431181D01*
X190465001Y-214659043D01*
X190445506Y-214669463D01*
X190421276Y-214689348D01*
X190395211Y-214706764D01*
X190373045Y-214728930D01*
X190348815Y-214748815D01*
X190328930Y-214773045D01*
X190306764Y-214795211D01*
X190289348Y-214821276D01*
X190269463Y-214845506D01*
X190254686Y-214873152D01*
X190237271Y-214899215D01*
X190225277Y-214928172D01*
X190210498Y-214955820D01*
X190201398Y-214985820D01*
X190189403Y-215014777D01*
X190183288Y-215045520D01*
X190174188Y-215075518D01*
X190171116Y-215106713D01*
X190165000Y-215137458D01*
X190165000Y-215165000D01*
X190137458Y-215165000D01*
X190014777Y-215189403D01*
X189899215Y-215237271D01*
X189795211Y-215306764D01*
X189706764Y-215395211D01*
X189637271Y-215499215D01*
X189589403Y-215614777D01*
X189565000Y-215737458D01*
X188959054Y-215737458D01*
X189029605Y-215690318D01*
X189152318Y-215567605D01*
X189248732Y-215423310D01*
X189315144Y-215262978D01*
X189349000Y-215092771D01*
X189349000Y-214919229D01*
X189315144Y-214749022D01*
X189248732Y-214588690D01*
X189152318Y-214444395D01*
X189029605Y-214321682D01*
X188885310Y-214225268D01*
X188724978Y-214158856D01*
X188554771Y-214125000D01*
X188381229Y-214125000D01*
X188211022Y-214158856D01*
X188050690Y-214225268D01*
X187906395Y-214321682D01*
X187783682Y-214444395D01*
X187687268Y-214588690D01*
X187620856Y-214749022D01*
X187587000Y-214919229D01*
X183227000Y-214919229D01*
X183227000Y-205289341D01*
X185100462Y-205289341D01*
X185461637Y-205751236D01*
X186097992Y-206109782D01*
X186792068Y-206337291D01*
X187517193Y-206425021D01*
X188245499Y-206369600D01*
X188949000Y-206173159D01*
X189600659Y-205843246D01*
X189738363Y-205751236D01*
X190099538Y-205289341D01*
X187600000Y-202789803D01*
X185100462Y-205289341D01*
X183227000Y-205289341D01*
X183227000Y-202617193D01*
X183874979Y-202617193D01*
X183930400Y-203345499D01*
X184126841Y-204049000D01*
X184456754Y-204700659D01*
X184548764Y-204838363D01*
X185010659Y-205199538D01*
X187510197Y-202700000D01*
X187689803Y-202700000D01*
X190189341Y-205199538D01*
X190651236Y-204838363D01*
X191009782Y-204202008D01*
X191237291Y-203507932D01*
X191325021Y-202782807D01*
X191269600Y-202054501D01*
X191073159Y-201351000D01*
X190743246Y-200699341D01*
X190651236Y-200561637D01*
X190189341Y-200200462D01*
X187689803Y-202700000D01*
X187510197Y-202700000D01*
X185010659Y-200200462D01*
X184548764Y-200561637D01*
X184190218Y-201197992D01*
X183962709Y-201892068D01*
X183874979Y-202617193D01*
X183227000Y-202617193D01*
X183227000Y-200306234D01*
X183244376Y-200129811D01*
X183294022Y-199966150D01*
X183374638Y-199815328D01*
X183483130Y-199683130D01*
X183615328Y-199574638D01*
X183766150Y-199494022D01*
X183929811Y-199444376D01*
X184106234Y-199427000D01*
X185855637Y-199427000D01*
X185599341Y-199556754D01*
X185461637Y-199648764D01*
X185100462Y-200110659D01*
X187600000Y-202610197D01*
X190099538Y-200110659D01*
X189738363Y-199648764D01*
X189344772Y-199427000D01*
X196100000Y-199427000D01*
X196112448Y-199426388D01*
X196307538Y-199407173D01*
X196331956Y-199402317D01*
X196519549Y-199345412D01*
X196542550Y-199335884D01*
X196715437Y-199243474D01*
X196736138Y-199229642D01*
X196887675Y-199105279D01*
X196905279Y-199087675D01*
X197029642Y-198936138D01*
X197043474Y-198915437D01*
X197135884Y-198742550D01*
X197145412Y-198719549D01*
X197202317Y-198531956D01*
X197207173Y-198507538D01*
X197226388Y-198312448D01*
X197227000Y-198300000D01*
X197227000Y-151406234D01*
X197244376Y-151229811D01*
X197294022Y-151066150D01*
X197374638Y-150915328D01*
X197483130Y-150783130D01*
X197615328Y-150674638D01*
X197766150Y-150594022D01*
X197929811Y-150544376D01*
X198106234Y-150527000D01*
X215093766Y-150527000D01*
X215270189Y-150544376D01*
%TA.AperFunction,Conductor*%
D20*
G36*
X215270189Y-150544376D02*
G01*
X215433850Y-150594022D01*
X215584672Y-150674638D01*
X215716870Y-150783130D01*
X215825362Y-150915328D01*
X215905978Y-151066150D01*
X215955624Y-151229811D01*
X215973000Y-151406234D01*
X215973000Y-156693766D01*
X215955624Y-156870189D01*
X215905978Y-157033850D01*
X215825362Y-157184672D01*
X215716870Y-157316870D01*
X215584672Y-157425362D01*
X215433850Y-157505978D01*
X215270189Y-157555624D01*
X215093766Y-157573000D01*
X211100000Y-157573000D01*
X211087552Y-157573612D01*
X210892462Y-157592827D01*
X210868044Y-157597683D01*
X210680451Y-157654588D01*
X210657450Y-157664116D01*
X210484563Y-157756526D01*
X210463862Y-157770358D01*
X210312325Y-157894721D01*
X210294721Y-157912325D01*
X210170358Y-158063862D01*
X210156526Y-158084563D01*
X210064116Y-158257450D01*
X210054588Y-158280451D01*
X209997683Y-158468044D01*
X209992827Y-158492462D01*
X209973612Y-158687552D01*
X209973000Y-158700000D01*
X209973000Y-210585786D01*
X209973612Y-210598234D01*
X209992827Y-210793325D01*
X209997683Y-210817743D01*
X210054588Y-211005336D01*
X210064116Y-211028337D01*
X210156526Y-211201224D01*
X210170358Y-211221925D01*
X210294721Y-211373461D01*
X210303090Y-211382696D01*
X218512898Y-219592504D01*
X218625363Y-219729542D01*
X218705978Y-219880363D01*
X218755624Y-220044024D01*
X218773000Y-220220448D01*
X218773000Y-220622267D01*
X218489341Y-220400462D01*
X215989803Y-222900000D01*
X218489341Y-225399538D01*
X218773000Y-225177733D01*
X218773000Y-226193766D01*
X218755624Y-226370189D01*
X218705978Y-226533850D01*
X218625362Y-226684672D01*
X218516870Y-226816870D01*
X218384672Y-226925362D01*
X218233850Y-227005978D01*
X218070189Y-227055624D01*
X217893766Y-227073000D01*
X187512956Y-227073000D01*
X187339328Y-227056177D01*
X187178071Y-227008094D01*
X187029045Y-226929947D01*
X186892980Y-226820781D01*
X185527401Y-225489341D01*
X213400462Y-225489341D01*
X213761637Y-225951236D01*
X214397992Y-226309782D01*
X215092068Y-226537291D01*
X215817193Y-226625021D01*
X216545499Y-226569600D01*
X217249000Y-226373159D01*
X217900659Y-226043246D01*
X218038363Y-225951236D01*
X218399538Y-225489341D01*
X215900000Y-222989803D01*
X213400462Y-225489341D01*
X185527401Y-225489341D01*
X183495100Y-223507848D01*
X183379287Y-223369874D01*
X183296169Y-223217287D01*
X183244940Y-223051250D01*
X183227000Y-222872008D01*
X183227000Y-222817193D01*
X212174979Y-222817193D01*
X212230400Y-223545499D01*
X212426841Y-224249000D01*
X212756754Y-224900659D01*
X212848764Y-225038363D01*
X213310659Y-225399538D01*
X215810197Y-222900000D01*
X213310659Y-220400462D01*
X212848764Y-220761637D01*
X212490218Y-221397992D01*
X212262709Y-222092068D01*
X212174979Y-222817193D01*
X183227000Y-222817193D01*
X183227000Y-220919229D01*
X187587000Y-220919229D01*
X187587000Y-221092771D01*
X187620856Y-221262978D01*
X187687268Y-221423310D01*
X187783682Y-221567605D01*
X187906395Y-221690318D01*
X188050690Y-221786732D01*
X188211022Y-221853144D01*
X188381229Y-221887000D01*
X188554771Y-221887000D01*
X188724978Y-221853144D01*
X188885310Y-221786732D01*
X189029605Y-221690318D01*
X189152318Y-221567605D01*
X189248732Y-221423310D01*
X189315144Y-221262978D01*
X189349000Y-221092771D01*
X189349000Y-220919229D01*
X189315144Y-220749022D01*
X189248732Y-220588690D01*
X189152318Y-220444395D01*
X189029605Y-220321682D01*
X189013108Y-220310659D01*
X213400462Y-220310659D01*
X215900000Y-222810197D01*
X218399538Y-220310659D01*
X218038363Y-219848764D01*
X217402008Y-219490218D01*
X216707932Y-219262709D01*
X215982807Y-219174979D01*
X215254501Y-219230400D01*
X214551000Y-219426841D01*
X213899341Y-219756754D01*
X213761637Y-219848764D01*
X213400462Y-220310659D01*
X189013108Y-220310659D01*
X188885310Y-220225268D01*
X188724978Y-220158856D01*
X188554771Y-220125000D01*
X188381229Y-220125000D01*
X188211022Y-220158856D01*
X188050690Y-220225268D01*
X187906395Y-220321682D01*
X187783682Y-220444395D01*
X187687268Y-220588690D01*
X187620856Y-220749022D01*
X187587000Y-220919229D01*
X183227000Y-220919229D01*
X183227000Y-217158458D01*
X188065000Y-217158458D01*
X188065000Y-217283542D01*
X188089403Y-217406223D01*
X188137271Y-217521785D01*
X188189532Y-217600000D01*
X188137271Y-217678215D01*
X188089403Y-217793777D01*
X188065000Y-217916458D01*
X188065000Y-218041542D01*
X188089403Y-218164223D01*
X188137271Y-218279785D01*
X188206764Y-218383789D01*
X188295211Y-218472236D01*
X188399215Y-218541729D01*
X188514777Y-218589597D01*
X188519498Y-218590536D01*
X188495211Y-218606764D01*
X188406764Y-218695211D01*
X188337271Y-218799215D01*
X188289403Y-218914777D01*
X188265000Y-219037458D01*
X188265000Y-219162542D01*
X188289403Y-219285223D01*
X188337271Y-219400785D01*
X188406764Y-219504789D01*
X188495211Y-219593236D01*
X188599215Y-219662729D01*
X188714777Y-219710597D01*
X188837458Y-219735000D01*
X188962542Y-219735000D01*
X189085223Y-219710597D01*
X189200785Y-219662729D01*
X189304789Y-219593236D01*
X189315425Y-219582600D01*
X193276295Y-219582600D01*
X193300000Y-219584935D01*
X193323705Y-219582600D01*
X193323707Y-219582600D01*
X193394606Y-219575617D01*
X193485577Y-219548022D01*
X193569415Y-219503209D01*
X193642901Y-219442901D01*
X193658017Y-219424482D01*
X201624482Y-211458017D01*
X201642901Y-211442901D01*
X201703209Y-211369415D01*
X201748022Y-211285577D01*
X201775617Y-211194606D01*
X201782600Y-211123707D01*
X201782600Y-211123698D01*
X201784934Y-211100001D01*
X201782600Y-211076304D01*
X201782600Y-203615425D01*
X201793236Y-203604789D01*
X201862729Y-203500785D01*
X201910597Y-203385223D01*
X201935000Y-203262542D01*
X201935000Y-203137458D01*
X201910597Y-203014777D01*
X201862729Y-202899215D01*
X201793236Y-202795211D01*
X201704789Y-202706764D01*
X201600785Y-202637271D01*
X201485223Y-202589403D01*
X201362542Y-202565000D01*
X201237458Y-202565000D01*
X201114777Y-202589403D01*
X200999215Y-202637271D01*
X200895211Y-202706764D01*
X200806764Y-202795211D01*
X200737271Y-202899215D01*
X200689403Y-203014777D01*
X200665000Y-203137458D01*
X200665000Y-203262542D01*
X200689403Y-203385223D01*
X200737271Y-203500785D01*
X200806764Y-203604789D01*
X200817400Y-203615425D01*
X200817401Y-210900100D01*
X193100101Y-218617400D01*
X189315425Y-218617400D01*
X189304789Y-218606764D01*
X189200785Y-218537271D01*
X189085223Y-218489403D01*
X189080502Y-218488464D01*
X189104789Y-218472236D01*
X189193236Y-218383789D01*
X189262729Y-218279785D01*
X189310597Y-218164223D01*
X189335000Y-218041542D01*
X189335000Y-217916458D01*
X189310597Y-217793777D01*
X189262729Y-217678215D01*
X189210468Y-217600000D01*
X189262729Y-217521785D01*
X189310597Y-217406223D01*
X189335000Y-217283542D01*
X189335000Y-217158458D01*
X189310597Y-217035777D01*
X189262729Y-216920215D01*
X189193236Y-216816211D01*
X189104789Y-216727764D01*
X189000785Y-216658271D01*
X188885223Y-216610403D01*
X188762542Y-216586000D01*
X188637458Y-216586000D01*
X188514777Y-216610403D01*
X188399215Y-216658271D01*
X188295211Y-216727764D01*
X188206764Y-216816211D01*
X188137271Y-216920215D01*
X188089403Y-217035777D01*
X188065000Y-217158458D01*
X183227000Y-217158458D01*
X183227000Y-214919229D01*
X187587000Y-214919229D01*
X187587000Y-215092771D01*
X187620856Y-215262978D01*
X187687268Y-215423310D01*
X187783682Y-215567605D01*
X187906395Y-215690318D01*
X188050690Y-215786732D01*
X188211022Y-215853144D01*
X188381229Y-215887000D01*
X188554771Y-215887000D01*
X188724978Y-215853144D01*
X188885310Y-215786732D01*
X188959054Y-215737458D01*
X189565000Y-215737458D01*
X189565000Y-215862542D01*
X189589403Y-215985223D01*
X189637271Y-216100785D01*
X189706764Y-216204789D01*
X189795211Y-216293236D01*
X189899215Y-216362729D01*
X190014777Y-216410597D01*
X190137458Y-216435000D01*
X190262542Y-216435000D01*
X190385223Y-216410597D01*
X190479610Y-216371500D01*
X190671926Y-216371500D01*
X190700000Y-216374265D01*
X190728074Y-216371500D01*
X190812034Y-216363231D01*
X190919762Y-216330552D01*
X191019045Y-216277484D01*
X191106067Y-216206067D01*
X191123970Y-216184252D01*
X191484258Y-215823965D01*
X191506067Y-215806067D01*
X191577484Y-215719045D01*
X191630552Y-215619762D01*
X191663231Y-215512034D01*
X191665489Y-215489104D01*
X191689502Y-215444180D01*
X191725812Y-215324482D01*
X191735000Y-215231192D01*
X191738072Y-215200000D01*
X191735000Y-215168808D01*
X191735000Y-212663024D01*
X198926955Y-205471070D01*
X198951185Y-205451185D01*
X198988574Y-205405627D01*
X199030537Y-205354495D01*
X199056938Y-205305102D01*
X199089502Y-205244180D01*
X199125812Y-205124482D01*
X199135000Y-205031192D01*
X199135000Y-205031182D01*
X199138071Y-205000001D01*
X199135000Y-204968820D01*
X199135000Y-191337458D01*
X200665000Y-191337458D01*
X200665000Y-191462542D01*
X200689403Y-191585223D01*
X200737271Y-191700785D01*
X200806764Y-191804789D01*
X200817400Y-191815425D01*
X200817401Y-200884574D01*
X200806764Y-200895211D01*
X200737271Y-200999215D01*
X200689403Y-201114777D01*
X200665000Y-201237458D01*
X200665000Y-201362542D01*
X200689403Y-201485223D01*
X200737271Y-201600785D01*
X200806764Y-201704789D01*
X200895211Y-201793236D01*
X200999215Y-201862729D01*
X201114777Y-201910597D01*
X201237458Y-201935000D01*
X201362542Y-201935000D01*
X201485223Y-201910597D01*
X201600785Y-201862729D01*
X201704789Y-201793236D01*
X201793236Y-201704789D01*
X201862729Y-201600785D01*
X201910597Y-201485223D01*
X201935000Y-201362542D01*
X201935000Y-201237458D01*
X201910597Y-201114777D01*
X201862729Y-200999215D01*
X201793236Y-200895211D01*
X201782600Y-200884575D01*
X201782600Y-191815425D01*
X201793236Y-191804789D01*
X201862729Y-191700785D01*
X201910597Y-191585223D01*
X201935000Y-191462542D01*
X201935000Y-191337458D01*
X201910597Y-191214777D01*
X201862729Y-191099215D01*
X201793236Y-190995211D01*
X201704789Y-190906764D01*
X201600785Y-190837271D01*
X201485223Y-190789403D01*
X201362542Y-190765000D01*
X201237458Y-190765000D01*
X201114777Y-190789403D01*
X200999215Y-190837271D01*
X200895211Y-190906764D01*
X200806764Y-190995211D01*
X200737271Y-191099215D01*
X200689403Y-191214777D01*
X200665000Y-191337458D01*
X199135000Y-191337458D01*
X199135000Y-172837458D01*
X200665000Y-172837458D01*
X200665000Y-172962542D01*
X200689403Y-173085223D01*
X200737271Y-173200785D01*
X200806764Y-173304789D01*
X200817400Y-173315425D01*
X200817401Y-187684574D01*
X200806764Y-187695211D01*
X200737271Y-187799215D01*
X200689403Y-187914777D01*
X200665000Y-188037458D01*
X200665000Y-188162542D01*
X200689403Y-188285223D01*
X200737271Y-188400785D01*
X200806764Y-188504789D01*
X200895211Y-188593236D01*
X200999215Y-188662729D01*
X201114777Y-188710597D01*
X201237458Y-188735000D01*
X201362542Y-188735000D01*
X201485223Y-188710597D01*
X201600785Y-188662729D01*
X201704789Y-188593236D01*
X201793236Y-188504789D01*
X201862729Y-188400785D01*
X201910597Y-188285223D01*
X201935000Y-188162542D01*
X201935000Y-188037458D01*
X201910597Y-187914777D01*
X201862729Y-187799215D01*
X201793236Y-187695211D01*
X201782600Y-187684575D01*
X201782600Y-180789341D01*
X203000462Y-180789341D01*
X203361637Y-181251236D01*
X203997992Y-181609782D01*
X204692068Y-181837291D01*
X205417193Y-181925021D01*
X206145499Y-181869600D01*
X206849000Y-181673159D01*
X207500659Y-181343246D01*
X207638363Y-181251236D01*
X207999538Y-180789341D01*
X205500000Y-178289803D01*
X203000462Y-180789341D01*
X201782600Y-180789341D01*
X201782600Y-178217343D01*
X201830400Y-178845499D01*
X202026841Y-179549000D01*
X202356754Y-180200659D01*
X202448764Y-180338363D01*
X202910659Y-180699538D01*
X205410197Y-178200000D01*
X205589803Y-178200000D01*
X208089341Y-180699538D01*
X208551236Y-180338363D01*
X208909782Y-179702008D01*
X209137291Y-179007932D01*
X209225021Y-178282807D01*
X209169600Y-177554501D01*
X208973159Y-176851000D01*
X208643246Y-176199341D01*
X208551236Y-176061637D01*
X208089341Y-175700462D01*
X205589803Y-178200000D01*
X205410197Y-178200000D01*
X202910659Y-175700462D01*
X202448764Y-176061637D01*
X202090218Y-176697992D01*
X201862709Y-177392068D01*
X201782600Y-178054202D01*
X201782600Y-175610659D01*
X203000462Y-175610659D01*
X205500000Y-178110197D01*
X207999538Y-175610659D01*
X207638363Y-175148764D01*
X207002008Y-174790218D01*
X206307932Y-174562709D01*
X205582807Y-174474979D01*
X204854501Y-174530400D01*
X204151000Y-174726841D01*
X203499341Y-175056754D01*
X203361637Y-175148764D01*
X203000462Y-175610659D01*
X201782600Y-175610659D01*
X201782600Y-173315425D01*
X201793236Y-173304789D01*
X201862729Y-173200785D01*
X201910597Y-173085223D01*
X201935000Y-172962542D01*
X201935000Y-172837458D01*
X201910597Y-172714777D01*
X201862729Y-172599215D01*
X201793236Y-172495211D01*
X201704789Y-172406764D01*
X201600785Y-172337271D01*
X201485223Y-172289403D01*
X201362542Y-172265000D01*
X201237458Y-172265000D01*
X201114777Y-172289403D01*
X200999215Y-172337271D01*
X200895211Y-172406764D01*
X200806764Y-172495211D01*
X200737271Y-172599215D01*
X200689403Y-172714777D01*
X200665000Y-172837458D01*
X199135000Y-172837458D01*
X199135000Y-170437458D01*
X200665000Y-170437458D01*
X200665000Y-170562542D01*
X200689403Y-170685223D01*
X200737271Y-170800785D01*
X200806764Y-170904789D01*
X200895211Y-170993236D01*
X200999215Y-171062729D01*
X201114777Y-171110597D01*
X201237458Y-171135000D01*
X201362542Y-171135000D01*
X201485223Y-171110597D01*
X201600785Y-171062729D01*
X201704789Y-170993236D01*
X201793236Y-170904789D01*
X201862729Y-170800785D01*
X201910597Y-170685223D01*
X201935000Y-170562542D01*
X201935000Y-170437458D01*
X201910597Y-170314777D01*
X201862729Y-170199215D01*
X201793236Y-170095211D01*
X201782600Y-170084575D01*
X201782600Y-165299899D01*
X210724482Y-156358017D01*
X210742901Y-156342901D01*
X210803209Y-156269415D01*
X210848022Y-156185577D01*
X210875617Y-156094606D01*
X210882600Y-156023706D01*
X210882600Y-156023698D01*
X210884934Y-156000001D01*
X210882600Y-155976304D01*
X210882600Y-155915425D01*
X210893236Y-155904789D01*
X210962729Y-155800785D01*
X211010597Y-155685223D01*
X211035000Y-155562542D01*
X211035000Y-155437458D01*
X211010597Y-155314777D01*
X210962729Y-155199215D01*
X210893236Y-155095211D01*
X210804789Y-155006764D01*
X210700785Y-154937271D01*
X210585223Y-154889403D01*
X210462542Y-154865000D01*
X210337458Y-154865000D01*
X210214777Y-154889403D01*
X210099215Y-154937271D01*
X209995211Y-155006764D01*
X209906764Y-155095211D01*
X209837271Y-155199215D01*
X209789403Y-155314777D01*
X209765000Y-155437458D01*
X209765000Y-155562542D01*
X209789403Y-155685223D01*
X209837271Y-155800785D01*
X209869092Y-155848409D01*
X200975518Y-164741983D01*
X200957099Y-164757099D01*
X200896791Y-164830585D01*
X200851978Y-164914424D01*
X200824383Y-165005395D01*
X200817400Y-165076293D01*
X200815065Y-165100000D01*
X200817400Y-165123705D01*
X200817401Y-170084574D01*
X200806764Y-170095211D01*
X200737271Y-170199215D01*
X200689403Y-170314777D01*
X200665000Y-170437458D01*
X199135000Y-170437458D01*
X199135000Y-161963024D01*
X208263025Y-152835000D01*
X209954973Y-152835000D01*
X209923762Y-152866211D01*
X209854269Y-152970215D01*
X209806401Y-153085777D01*
X209781998Y-153208458D01*
X209781998Y-153333542D01*
X209806401Y-153456223D01*
X209854269Y-153571785D01*
X209906530Y-153650000D01*
X209854269Y-153728215D01*
X209806401Y-153843777D01*
X209781998Y-153966458D01*
X209781998Y-154091542D01*
X209806401Y-154214223D01*
X209854269Y-154329785D01*
X209923762Y-154433789D01*
X210012209Y-154522236D01*
X210116213Y-154591729D01*
X210231775Y-154639597D01*
X210354456Y-154664000D01*
X210479540Y-154664000D01*
X210602221Y-154639597D01*
X210717783Y-154591729D01*
X210821787Y-154522236D01*
X210910234Y-154433789D01*
X210979727Y-154329785D01*
X211027595Y-154214223D01*
X211051998Y-154091542D01*
X211051998Y-153966458D01*
X211027595Y-153843777D01*
X210979727Y-153728215D01*
X210927466Y-153650000D01*
X210979727Y-153571785D01*
X211027595Y-153456223D01*
X211051998Y-153333542D01*
X211051998Y-153208458D01*
X211027595Y-153085777D01*
X210979727Y-152970215D01*
X210910234Y-152866211D01*
X210876289Y-152832266D01*
X210893287Y-152828884D01*
X210924482Y-152825812D01*
X210954480Y-152816712D01*
X210985223Y-152810597D01*
X211014180Y-152798602D01*
X211044180Y-152789502D01*
X211071828Y-152774723D01*
X211100785Y-152762729D01*
X211126848Y-152745314D01*
X211154494Y-152730537D01*
X211178724Y-152710652D01*
X211204789Y-152693236D01*
X211226955Y-152671070D01*
X211251185Y-152651185D01*
X211271070Y-152626955D01*
X211293236Y-152604789D01*
X211310652Y-152578724D01*
X211330537Y-152554494D01*
X211345314Y-152526848D01*
X211362729Y-152500785D01*
X211374723Y-152471828D01*
X211389502Y-152444180D01*
X211398602Y-152414180D01*
X211410597Y-152385223D01*
X211416712Y-152354480D01*
X211425812Y-152324482D01*
X211428884Y-152293287D01*
X211435000Y-152262542D01*
X211435000Y-152231192D01*
X211438072Y-152200000D01*
X211435000Y-152168808D01*
X211435000Y-152137458D01*
X211428884Y-152106713D01*
X211425812Y-152075518D01*
X211416712Y-152045520D01*
X211410597Y-152014777D01*
X211398602Y-151985820D01*
X211389502Y-151955820D01*
X211374723Y-151928172D01*
X211362729Y-151899215D01*
X211345314Y-151873152D01*
X211330537Y-151845506D01*
X211310652Y-151821276D01*
X211293236Y-151795211D01*
X211271070Y-151773045D01*
X211251185Y-151748815D01*
X211226955Y-151728930D01*
X211204789Y-151706764D01*
X211178724Y-151689348D01*
X211154494Y-151669463D01*
X211126848Y-151654686D01*
X211100785Y-151637271D01*
X211071828Y-151625277D01*
X211044180Y-151610498D01*
X211014180Y-151601398D01*
X210985223Y-151589403D01*
X210954480Y-151583288D01*
X210924482Y-151574188D01*
X210893287Y-151571116D01*
X210862542Y-151565000D01*
X208031189Y-151565000D01*
X208000000Y-151561928D01*
X207968811Y-151565000D01*
X207968808Y-151565000D01*
X207875518Y-151574188D01*
X207755820Y-151610498D01*
X207645506Y-151669462D01*
X207600054Y-151706764D01*
X207548815Y-151748815D01*
X207528930Y-151773045D01*
X198073050Y-161228926D01*
X198048815Y-161248815D01*
X197969463Y-161345507D01*
X197910498Y-161455821D01*
X197874188Y-161575519D01*
X197865000Y-161668809D01*
X197865000Y-161668819D01*
X197861929Y-161700000D01*
X197865000Y-161731181D01*
X197865001Y-204736974D01*
X190673050Y-211928926D01*
X190648815Y-211948815D01*
X190569463Y-212045507D01*
X190510498Y-212155821D01*
X190474188Y-212275519D01*
X190465000Y-212368809D01*
X190465000Y-212368819D01*
X190461929Y-212400000D01*
X190465000Y-212431181D01*
X190465001Y-214659043D01*
X190445506Y-214669463D01*
X190421276Y-214689348D01*
X190395211Y-214706764D01*
X190373045Y-214728930D01*
X190348815Y-214748815D01*
X190328930Y-214773045D01*
X190306764Y-214795211D01*
X190289348Y-214821276D01*
X190269463Y-214845506D01*
X190254686Y-214873152D01*
X190237271Y-214899215D01*
X190225277Y-214928172D01*
X190210498Y-214955820D01*
X190201398Y-214985820D01*
X190189403Y-215014777D01*
X190183288Y-215045520D01*
X190174188Y-215075518D01*
X190171116Y-215106713D01*
X190165000Y-215137458D01*
X190165000Y-215165000D01*
X190137458Y-215165000D01*
X190014777Y-215189403D01*
X189899215Y-215237271D01*
X189795211Y-215306764D01*
X189706764Y-215395211D01*
X189637271Y-215499215D01*
X189589403Y-215614777D01*
X189565000Y-215737458D01*
X188959054Y-215737458D01*
X189029605Y-215690318D01*
X189152318Y-215567605D01*
X189248732Y-215423310D01*
X189315144Y-215262978D01*
X189349000Y-215092771D01*
X189349000Y-214919229D01*
X189315144Y-214749022D01*
X189248732Y-214588690D01*
X189152318Y-214444395D01*
X189029605Y-214321682D01*
X188885310Y-214225268D01*
X188724978Y-214158856D01*
X188554771Y-214125000D01*
X188381229Y-214125000D01*
X188211022Y-214158856D01*
X188050690Y-214225268D01*
X187906395Y-214321682D01*
X187783682Y-214444395D01*
X187687268Y-214588690D01*
X187620856Y-214749022D01*
X187587000Y-214919229D01*
X183227000Y-214919229D01*
X183227000Y-205289341D01*
X185100462Y-205289341D01*
X185461637Y-205751236D01*
X186097992Y-206109782D01*
X186792068Y-206337291D01*
X187517193Y-206425021D01*
X188245499Y-206369600D01*
X188949000Y-206173159D01*
X189600659Y-205843246D01*
X189738363Y-205751236D01*
X190099538Y-205289341D01*
X187600000Y-202789803D01*
X185100462Y-205289341D01*
X183227000Y-205289341D01*
X183227000Y-202617193D01*
X183874979Y-202617193D01*
X183930400Y-203345499D01*
X184126841Y-204049000D01*
X184456754Y-204700659D01*
X184548764Y-204838363D01*
X185010659Y-205199538D01*
X187510197Y-202700000D01*
X187689803Y-202700000D01*
X190189341Y-205199538D01*
X190651236Y-204838363D01*
X191009782Y-204202008D01*
X191237291Y-203507932D01*
X191325021Y-202782807D01*
X191269600Y-202054501D01*
X191073159Y-201351000D01*
X190743246Y-200699341D01*
X190651236Y-200561637D01*
X190189341Y-200200462D01*
X187689803Y-202700000D01*
X187510197Y-202700000D01*
X185010659Y-200200462D01*
X184548764Y-200561637D01*
X184190218Y-201197992D01*
X183962709Y-201892068D01*
X183874979Y-202617193D01*
X183227000Y-202617193D01*
X183227000Y-200306234D01*
X183244376Y-200129811D01*
X183294022Y-199966150D01*
X183374638Y-199815328D01*
X183483130Y-199683130D01*
X183615328Y-199574638D01*
X183766150Y-199494022D01*
X183929811Y-199444376D01*
X184106234Y-199427000D01*
X185855637Y-199427000D01*
X185599341Y-199556754D01*
X185461637Y-199648764D01*
X185100462Y-200110659D01*
X187600000Y-202610197D01*
X190099538Y-200110659D01*
X189738363Y-199648764D01*
X189344772Y-199427000D01*
X196100000Y-199427000D01*
X196112448Y-199426388D01*
X196307538Y-199407173D01*
X196331956Y-199402317D01*
X196519549Y-199345412D01*
X196542550Y-199335884D01*
X196715437Y-199243474D01*
X196736138Y-199229642D01*
X196887675Y-199105279D01*
X196905279Y-199087675D01*
X197029642Y-198936138D01*
X197043474Y-198915437D01*
X197135884Y-198742550D01*
X197145412Y-198719549D01*
X197202317Y-198531956D01*
X197207173Y-198507538D01*
X197226388Y-198312448D01*
X197227000Y-198300000D01*
X197227000Y-151406234D01*
X197244376Y-151229811D01*
X197294022Y-151066150D01*
X197374638Y-150915328D01*
X197483130Y-150783130D01*
X197615328Y-150674638D01*
X197766150Y-150594022D01*
X197929811Y-150544376D01*
X198106234Y-150527000D01*
X215093766Y-150527000D01*
X215270189Y-150544376D01*
G37*
%TD.AperFunction*%
%TD*%
D16*
%TO.N,GND*%
X182100462Y-145210659D02*
X184600000Y-147710197D01*
X187099538Y-145210659D01*
X186799539Y-144827000D01*
X188473000Y-144827000D01*
X188473000Y-174947394D01*
X178410197Y-185010197D01*
X178394403Y-185029443D01*
X178382667Y-185051399D01*
X178375440Y-185075224D01*
X178373000Y-185100000D01*
X178373000Y-227073000D01*
X163371049Y-227073000D01*
X160233470Y-221963229D01*
X165519000Y-221963229D01*
X165519000Y-222136771D01*
X165552856Y-222306978D01*
X165619268Y-222467310D01*
X165715682Y-222611605D01*
X165838395Y-222734318D01*
X165982690Y-222830732D01*
X166143022Y-222897144D01*
X166313229Y-222931000D01*
X166486771Y-222931000D01*
X166656978Y-222897144D01*
X166817310Y-222830732D01*
X166961605Y-222734318D01*
X167084318Y-222611605D01*
X167180732Y-222467310D01*
X167247144Y-222306978D01*
X167281000Y-222136771D01*
X167281000Y-221963229D01*
X167247144Y-221793022D01*
X167180732Y-221632690D01*
X167084318Y-221488395D01*
X166961605Y-221365682D01*
X166817310Y-221269268D01*
X166656978Y-221202856D01*
X166486771Y-221169000D01*
X166313229Y-221169000D01*
X166143022Y-221202856D01*
X165982690Y-221269268D01*
X165838395Y-221365682D01*
X165715682Y-221488395D01*
X165619268Y-221632690D01*
X165552856Y-221793022D01*
X165519000Y-221963229D01*
X160233470Y-221963229D01*
X159927000Y-221464121D01*
X159927000Y-206300000D01*
X162834314Y-206300000D01*
X162838000Y-206337423D01*
X162838001Y-217762567D01*
X162834314Y-217800000D01*
X162849027Y-217949378D01*
X162892599Y-218093015D01*
X162963355Y-218225392D01*
X163030317Y-218306985D01*
X163058579Y-218341422D01*
X163087649Y-218365279D01*
X163887648Y-219165279D01*
X163887654Y-219165284D01*
X164887649Y-220165279D01*
X164974607Y-220236645D01*
X165106984Y-220307401D01*
X165250621Y-220350973D01*
X165400000Y-220365686D01*
X165549378Y-220350973D01*
X165693016Y-220307401D01*
X165825392Y-220236645D01*
X165941422Y-220141422D01*
X166036645Y-220025392D01*
X166107401Y-219893016D01*
X166150973Y-219749378D01*
X166165686Y-219600000D01*
X166150973Y-219450621D01*
X166107401Y-219306984D01*
X166036645Y-219174607D01*
X165965279Y-219087649D01*
X164965284Y-218087654D01*
X164965279Y-218087648D01*
X164477631Y-217600000D01*
X167815065Y-217600000D01*
X167824384Y-217694606D01*
X167851978Y-217785576D01*
X167878030Y-217834314D01*
X167896792Y-217869415D01*
X167957100Y-217942901D01*
X167975513Y-217958012D01*
X169817400Y-219799900D01*
X169817401Y-221084574D01*
X169806764Y-221095211D01*
X169737271Y-221199215D01*
X169689403Y-221314777D01*
X169666160Y-221431627D01*
X169564223Y-221389403D01*
X169441542Y-221365000D01*
X169316458Y-221365000D01*
X169193777Y-221389403D01*
X169078215Y-221437271D01*
X169000000Y-221489532D01*
X168921785Y-221437271D01*
X168806223Y-221389403D01*
X168683542Y-221365000D01*
X168558458Y-221365000D01*
X168435777Y-221389403D01*
X168320215Y-221437271D01*
X168216211Y-221506764D01*
X168127764Y-221595211D01*
X168058271Y-221699215D01*
X168010403Y-221814777D01*
X167986000Y-221937458D01*
X167986000Y-222062542D01*
X168010403Y-222185223D01*
X168058271Y-222300785D01*
X168127764Y-222404789D01*
X168216211Y-222493236D01*
X168320215Y-222562729D01*
X168435777Y-222610597D01*
X168558458Y-222635000D01*
X168683542Y-222635000D01*
X168806223Y-222610597D01*
X168921785Y-222562729D01*
X169000000Y-222510468D01*
X169078215Y-222562729D01*
X169193777Y-222610597D01*
X169316458Y-222635000D01*
X169441542Y-222635000D01*
X169564223Y-222610597D01*
X169679785Y-222562729D01*
X169783789Y-222493236D01*
X169872236Y-222404789D01*
X169941729Y-222300785D01*
X169989597Y-222185223D01*
X170012840Y-222068373D01*
X170114777Y-222110597D01*
X170237458Y-222135000D01*
X170362542Y-222135000D01*
X170485223Y-222110597D01*
X170600785Y-222062729D01*
X170704789Y-221993236D01*
X170734796Y-221963229D01*
X171519000Y-221963229D01*
X171519000Y-222136771D01*
X171552856Y-222306978D01*
X171619268Y-222467310D01*
X171715682Y-222611605D01*
X171838395Y-222734318D01*
X171982690Y-222830732D01*
X172143022Y-222897144D01*
X172313229Y-222931000D01*
X172486771Y-222931000D01*
X172656978Y-222897144D01*
X172817310Y-222830732D01*
X172961605Y-222734318D01*
X173084318Y-222611605D01*
X173180732Y-222467310D01*
X173247144Y-222306978D01*
X173281000Y-222136771D01*
X173281000Y-221963229D01*
X173247144Y-221793022D01*
X173180732Y-221632690D01*
X173084318Y-221488395D01*
X172961605Y-221365682D01*
X172817310Y-221269268D01*
X172656978Y-221202856D01*
X172486771Y-221169000D01*
X172313229Y-221169000D01*
X172143022Y-221202856D01*
X171982690Y-221269268D01*
X171838395Y-221365682D01*
X171715682Y-221488395D01*
X171619268Y-221632690D01*
X171552856Y-221793022D01*
X171519000Y-221963229D01*
X170734796Y-221963229D01*
X170793236Y-221904789D01*
X170862729Y-221800785D01*
X170910597Y-221685223D01*
X170935000Y-221562542D01*
X170935000Y-221437458D01*
X170910597Y-221314777D01*
X170862729Y-221199215D01*
X170793236Y-221095211D01*
X170782600Y-221084575D01*
X170782600Y-219623704D01*
X170784935Y-219599999D01*
X170782533Y-219575617D01*
X170775617Y-219505394D01*
X170748022Y-219414423D01*
X170703209Y-219330585D01*
X170642901Y-219257099D01*
X170624488Y-219241988D01*
X168782600Y-217400101D01*
X168782600Y-213189341D01*
X170100462Y-213189341D01*
X170461637Y-213651236D01*
X171097992Y-214009782D01*
X171792068Y-214237291D01*
X172517193Y-214325021D01*
X173245499Y-214269600D01*
X173949000Y-214073159D01*
X174600659Y-213743246D01*
X174738363Y-213651236D01*
X175099538Y-213189341D01*
X172600000Y-210689803D01*
X170100462Y-213189341D01*
X168782600Y-213189341D01*
X168782600Y-210517193D01*
X168874979Y-210517193D01*
X168930400Y-211245499D01*
X169126841Y-211949000D01*
X169456754Y-212600659D01*
X169548764Y-212738363D01*
X170010659Y-213099538D01*
X172510197Y-210600000D01*
X172689803Y-210600000D01*
X175189341Y-213099538D01*
X175651236Y-212738363D01*
X176009782Y-212102008D01*
X176237291Y-211407932D01*
X176325021Y-210682807D01*
X176269600Y-209954501D01*
X176073159Y-209251000D01*
X175743246Y-208599341D01*
X175651236Y-208461637D01*
X175189341Y-208100462D01*
X172689803Y-210600000D01*
X172510197Y-210600000D01*
X170010659Y-208100462D01*
X169548764Y-208461637D01*
X169190218Y-209097992D01*
X168962709Y-209792068D01*
X168874979Y-210517193D01*
X168782600Y-210517193D01*
X168782600Y-208791457D01*
X169563398Y-208010659D01*
X170100462Y-208010659D01*
X172600000Y-210510197D01*
X175099538Y-208010659D01*
X174738363Y-207548764D01*
X174102008Y-207190218D01*
X173407932Y-206962709D01*
X172682807Y-206874979D01*
X171954501Y-206930400D01*
X171251000Y-207126841D01*
X170599341Y-207456754D01*
X170461637Y-207548764D01*
X170100462Y-208010659D01*
X169563398Y-208010659D01*
X174120470Y-203453588D01*
X174138660Y-203438660D01*
X174198222Y-203366083D01*
X174227064Y-203312124D01*
X174242480Y-203283282D01*
X174269734Y-203193437D01*
X174278937Y-203100000D01*
X174276631Y-203076588D01*
X174276631Y-174289341D01*
X182100462Y-174289341D01*
X182461637Y-174751236D01*
X183097992Y-175109782D01*
X183792068Y-175337291D01*
X184517193Y-175425021D01*
X185245499Y-175369600D01*
X185949000Y-175173159D01*
X186600659Y-174843246D01*
X186738363Y-174751236D01*
X187099538Y-174289341D01*
X184600000Y-171789803D01*
X182100462Y-174289341D01*
X174276631Y-174289341D01*
X174276631Y-171617193D01*
X180874979Y-171617193D01*
X180930400Y-172345499D01*
X181126841Y-173049000D01*
X181456754Y-173700659D01*
X181548764Y-173838363D01*
X182010659Y-174199538D01*
X184510197Y-171700000D01*
X184689803Y-171700000D01*
X187189341Y-174199538D01*
X187651236Y-173838363D01*
X188009782Y-173202008D01*
X188237291Y-172507932D01*
X188325021Y-171782807D01*
X188269600Y-171054501D01*
X188073159Y-170351000D01*
X187743246Y-169699341D01*
X187651236Y-169561637D01*
X187189341Y-169200462D01*
X184689803Y-171700000D01*
X184510197Y-171700000D01*
X182010659Y-169200462D01*
X181548764Y-169561637D01*
X181190218Y-170197992D01*
X180962709Y-170892068D01*
X180874979Y-171617193D01*
X174276631Y-171617193D01*
X174276631Y-169110659D01*
X182100462Y-169110659D01*
X184600000Y-171610197D01*
X187099538Y-169110659D01*
X186738363Y-168648764D01*
X186102008Y-168290218D01*
X185407932Y-168062709D01*
X184682807Y-167974979D01*
X183954501Y-168030400D01*
X183251000Y-168226841D01*
X182599341Y-168556754D01*
X182461637Y-168648764D01*
X182100462Y-169110659D01*
X174276631Y-169110659D01*
X174276631Y-157823412D01*
X174278937Y-157799999D01*
X174269734Y-157706563D01*
X174261466Y-157679309D01*
X174242480Y-157616719D01*
X174198222Y-157533917D01*
X174138660Y-157461340D01*
X174135000Y-157458336D01*
X174135000Y-157437458D01*
X174110597Y-157314777D01*
X174062729Y-157199215D01*
X173993236Y-157095211D01*
X173904789Y-157006764D01*
X173800785Y-156937271D01*
X173685223Y-156889403D01*
X173562542Y-156865000D01*
X173437458Y-156865000D01*
X173314777Y-156889403D01*
X173199215Y-156937271D01*
X173095211Y-157006764D01*
X173006764Y-157095211D01*
X172937271Y-157199215D01*
X172889403Y-157314777D01*
X172865000Y-157437458D01*
X172865000Y-157562542D01*
X172889403Y-157685223D01*
X172937271Y-157800785D01*
X173006764Y-157904789D01*
X173095211Y-157993236D01*
X173199215Y-158062729D01*
X173314777Y-158110597D01*
X173323369Y-158112306D01*
X173323370Y-202902572D01*
X168022594Y-208203349D01*
X167957099Y-208257099D01*
X167896791Y-208330585D01*
X167851978Y-208414424D01*
X167824383Y-208505395D01*
X167817400Y-208576294D01*
X167817401Y-217576285D01*
X167815065Y-217600000D01*
X164477631Y-217600000D01*
X164362000Y-217484370D01*
X164362000Y-206615630D01*
X168712352Y-202265279D01*
X168741422Y-202241422D01*
X168836645Y-202125392D01*
X168907402Y-201993015D01*
X168950974Y-201849378D01*
X168962000Y-201737426D01*
X168962000Y-201737424D01*
X168965686Y-201700001D01*
X168962000Y-201662578D01*
X168962000Y-159115630D01*
X169812352Y-158265279D01*
X169841422Y-158241422D01*
X169905490Y-158163355D01*
X169936645Y-158125393D01*
X169998554Y-158009568D01*
X170007402Y-157993015D01*
X170050974Y-157849378D01*
X170062000Y-157737426D01*
X170062000Y-157737423D01*
X170065686Y-157700000D01*
X170062000Y-157662577D01*
X170062000Y-157453790D01*
X170502500Y-157453790D01*
X170502500Y-157578874D01*
X170526903Y-157701555D01*
X170574771Y-157817117D01*
X170644264Y-157921121D01*
X170732711Y-158009568D01*
X170836715Y-158079061D01*
X170952277Y-158126929D01*
X171074958Y-158151332D01*
X171200042Y-158151332D01*
X171322723Y-158126929D01*
X171438285Y-158079061D01*
X171516500Y-158026800D01*
X171594715Y-158079061D01*
X171710277Y-158126929D01*
X171832958Y-158151332D01*
X171958042Y-158151332D01*
X172080723Y-158126929D01*
X172196285Y-158079061D01*
X172300289Y-158009568D01*
X172388736Y-157921121D01*
X172458229Y-157817117D01*
X172506097Y-157701555D01*
X172530500Y-157578874D01*
X172530500Y-157453790D01*
X172506097Y-157331109D01*
X172458229Y-157215547D01*
X172388736Y-157111543D01*
X172300289Y-157023096D01*
X172196285Y-156953603D01*
X172080723Y-156905735D01*
X171958042Y-156881332D01*
X171832958Y-156881332D01*
X171710277Y-156905735D01*
X171594715Y-156953603D01*
X171516500Y-157005864D01*
X171438285Y-156953603D01*
X171322723Y-156905735D01*
X171200042Y-156881332D01*
X171074958Y-156881332D01*
X170952277Y-156905735D01*
X170836715Y-156953603D01*
X170732711Y-157023096D01*
X170644264Y-157111543D01*
X170574771Y-157215547D01*
X170526903Y-157331109D01*
X170502500Y-157453790D01*
X170062000Y-157453790D01*
X170062000Y-156662574D01*
X170050974Y-156550622D01*
X170007402Y-156406985D01*
X169936645Y-156274608D01*
X169841422Y-156158578D01*
X169725391Y-156063355D01*
X169593014Y-155992598D01*
X169449377Y-155949026D01*
X169300000Y-155934314D01*
X169150622Y-155949026D01*
X169006985Y-155992598D01*
X168874608Y-156063355D01*
X168758578Y-156158578D01*
X168663355Y-156274609D01*
X168592598Y-156406986D01*
X168549026Y-156550623D01*
X168538000Y-156662575D01*
X168538001Y-157384369D01*
X167687654Y-158234716D01*
X167658578Y-158258578D01*
X167608989Y-158319003D01*
X167563355Y-158374608D01*
X167525535Y-158445365D01*
X167492598Y-158506986D01*
X167449026Y-158650623D01*
X167438000Y-158762574D01*
X167434314Y-158800000D01*
X167438000Y-158837423D01*
X167438001Y-201384368D01*
X163087654Y-205734716D01*
X163058578Y-205758578D01*
X163002983Y-205826322D01*
X162963355Y-205874608D01*
X162932708Y-205931946D01*
X162892598Y-206006986D01*
X162849026Y-206150623D01*
X162838000Y-206262574D01*
X162834314Y-206300000D01*
X159927000Y-206300000D01*
X159927000Y-202353550D01*
X163888659Y-198490932D01*
X163904695Y-198471888D01*
X163916708Y-198450082D01*
X163924236Y-198426351D01*
X163927000Y-198400000D01*
X163927000Y-150389341D01*
X182100462Y-150389341D01*
X182461637Y-150851236D01*
X183097992Y-151209782D01*
X183792068Y-151437291D01*
X184517193Y-151525021D01*
X185245499Y-151469600D01*
X185949000Y-151273159D01*
X186600659Y-150943246D01*
X186738363Y-150851236D01*
X187099538Y-150389341D01*
X184600000Y-147889803D01*
X182100462Y-150389341D01*
X163927000Y-150389341D01*
X163927000Y-149627000D01*
X178800000Y-149627000D01*
X178824776Y-149624560D01*
X178848601Y-149617333D01*
X178870557Y-149605597D01*
X178889803Y-149589803D01*
X178905597Y-149570557D01*
X178917333Y-149548601D01*
X178924560Y-149524776D01*
X178927000Y-149500000D01*
X178927000Y-147717193D01*
X180874979Y-147717193D01*
X180930400Y-148445499D01*
X181126841Y-149149000D01*
X181456754Y-149800659D01*
X181548764Y-149938363D01*
X182010659Y-150299538D01*
X184510197Y-147800000D01*
X184689803Y-147800000D01*
X187189341Y-150299538D01*
X187651236Y-149938363D01*
X188009782Y-149302008D01*
X188237291Y-148607932D01*
X188325021Y-147882807D01*
X188269600Y-147154501D01*
X188073159Y-146451000D01*
X187743246Y-145799341D01*
X187651236Y-145661637D01*
X187189341Y-145300462D01*
X184689803Y-147800000D01*
X184510197Y-147800000D01*
X182010659Y-145300462D01*
X181548764Y-145661637D01*
X181190218Y-146297992D01*
X180962709Y-146992068D01*
X180874979Y-147717193D01*
X178927000Y-147717193D01*
X178927000Y-144827000D01*
X182400461Y-144827000D01*
X182100462Y-145210659D01*
%TA.AperFunction,Conductor*%
D20*
G36*
X182100462Y-145210659D02*
G01*
X184600000Y-147710197D01*
X187099538Y-145210659D01*
X186799539Y-144827000D01*
X188473000Y-144827000D01*
X188473000Y-174947394D01*
X178410197Y-185010197D01*
X178394403Y-185029443D01*
X178382667Y-185051399D01*
X178375440Y-185075224D01*
X178373000Y-185100000D01*
X178373000Y-227073000D01*
X163371049Y-227073000D01*
X160233470Y-221963229D01*
X165519000Y-221963229D01*
X165519000Y-222136771D01*
X165552856Y-222306978D01*
X165619268Y-222467310D01*
X165715682Y-222611605D01*
X165838395Y-222734318D01*
X165982690Y-222830732D01*
X166143022Y-222897144D01*
X166313229Y-222931000D01*
X166486771Y-222931000D01*
X166656978Y-222897144D01*
X166817310Y-222830732D01*
X166961605Y-222734318D01*
X167084318Y-222611605D01*
X167180732Y-222467310D01*
X167247144Y-222306978D01*
X167281000Y-222136771D01*
X167281000Y-221963229D01*
X167247144Y-221793022D01*
X167180732Y-221632690D01*
X167084318Y-221488395D01*
X166961605Y-221365682D01*
X166817310Y-221269268D01*
X166656978Y-221202856D01*
X166486771Y-221169000D01*
X166313229Y-221169000D01*
X166143022Y-221202856D01*
X165982690Y-221269268D01*
X165838395Y-221365682D01*
X165715682Y-221488395D01*
X165619268Y-221632690D01*
X165552856Y-221793022D01*
X165519000Y-221963229D01*
X160233470Y-221963229D01*
X159927000Y-221464121D01*
X159927000Y-206300000D01*
X162834314Y-206300000D01*
X162838000Y-206337423D01*
X162838001Y-217762567D01*
X162834314Y-217800000D01*
X162849027Y-217949378D01*
X162892599Y-218093015D01*
X162963355Y-218225392D01*
X163030317Y-218306985D01*
X163058579Y-218341422D01*
X163087649Y-218365279D01*
X163887648Y-219165279D01*
X163887654Y-219165284D01*
X164887649Y-220165279D01*
X164974607Y-220236645D01*
X165106984Y-220307401D01*
X165250621Y-220350973D01*
X165400000Y-220365686D01*
X165549378Y-220350973D01*
X165693016Y-220307401D01*
X165825392Y-220236645D01*
X165941422Y-220141422D01*
X166036645Y-220025392D01*
X166107401Y-219893016D01*
X166150973Y-219749378D01*
X166165686Y-219600000D01*
X166150973Y-219450621D01*
X166107401Y-219306984D01*
X166036645Y-219174607D01*
X165965279Y-219087649D01*
X164965284Y-218087654D01*
X164965279Y-218087648D01*
X164477631Y-217600000D01*
X167815065Y-217600000D01*
X167824384Y-217694606D01*
X167851978Y-217785576D01*
X167878030Y-217834314D01*
X167896792Y-217869415D01*
X167957100Y-217942901D01*
X167975513Y-217958012D01*
X169817400Y-219799900D01*
X169817401Y-221084574D01*
X169806764Y-221095211D01*
X169737271Y-221199215D01*
X169689403Y-221314777D01*
X169666160Y-221431627D01*
X169564223Y-221389403D01*
X169441542Y-221365000D01*
X169316458Y-221365000D01*
X169193777Y-221389403D01*
X169078215Y-221437271D01*
X169000000Y-221489532D01*
X168921785Y-221437271D01*
X168806223Y-221389403D01*
X168683542Y-221365000D01*
X168558458Y-221365000D01*
X168435777Y-221389403D01*
X168320215Y-221437271D01*
X168216211Y-221506764D01*
X168127764Y-221595211D01*
X168058271Y-221699215D01*
X168010403Y-221814777D01*
X167986000Y-221937458D01*
X167986000Y-222062542D01*
X168010403Y-222185223D01*
X168058271Y-222300785D01*
X168127764Y-222404789D01*
X168216211Y-222493236D01*
X168320215Y-222562729D01*
X168435777Y-222610597D01*
X168558458Y-222635000D01*
X168683542Y-222635000D01*
X168806223Y-222610597D01*
X168921785Y-222562729D01*
X169000000Y-222510468D01*
X169078215Y-222562729D01*
X169193777Y-222610597D01*
X169316458Y-222635000D01*
X169441542Y-222635000D01*
X169564223Y-222610597D01*
X169679785Y-222562729D01*
X169783789Y-222493236D01*
X169872236Y-222404789D01*
X169941729Y-222300785D01*
X169989597Y-222185223D01*
X170012840Y-222068373D01*
X170114777Y-222110597D01*
X170237458Y-222135000D01*
X170362542Y-222135000D01*
X170485223Y-222110597D01*
X170600785Y-222062729D01*
X170704789Y-221993236D01*
X170734796Y-221963229D01*
X171519000Y-221963229D01*
X171519000Y-222136771D01*
X171552856Y-222306978D01*
X171619268Y-222467310D01*
X171715682Y-222611605D01*
X171838395Y-222734318D01*
X171982690Y-222830732D01*
X172143022Y-222897144D01*
X172313229Y-222931000D01*
X172486771Y-222931000D01*
X172656978Y-222897144D01*
X172817310Y-222830732D01*
X172961605Y-222734318D01*
X173084318Y-222611605D01*
X173180732Y-222467310D01*
X173247144Y-222306978D01*
X173281000Y-222136771D01*
X173281000Y-221963229D01*
X173247144Y-221793022D01*
X173180732Y-221632690D01*
X173084318Y-221488395D01*
X172961605Y-221365682D01*
X172817310Y-221269268D01*
X172656978Y-221202856D01*
X172486771Y-221169000D01*
X172313229Y-221169000D01*
X172143022Y-221202856D01*
X171982690Y-221269268D01*
X171838395Y-221365682D01*
X171715682Y-221488395D01*
X171619268Y-221632690D01*
X171552856Y-221793022D01*
X171519000Y-221963229D01*
X170734796Y-221963229D01*
X170793236Y-221904789D01*
X170862729Y-221800785D01*
X170910597Y-221685223D01*
X170935000Y-221562542D01*
X170935000Y-221437458D01*
X170910597Y-221314777D01*
X170862729Y-221199215D01*
X170793236Y-221095211D01*
X170782600Y-221084575D01*
X170782600Y-219623704D01*
X170784935Y-219599999D01*
X170782533Y-219575617D01*
X170775617Y-219505394D01*
X170748022Y-219414423D01*
X170703209Y-219330585D01*
X170642901Y-219257099D01*
X170624488Y-219241988D01*
X168782600Y-217400101D01*
X168782600Y-213189341D01*
X170100462Y-213189341D01*
X170461637Y-213651236D01*
X171097992Y-214009782D01*
X171792068Y-214237291D01*
X172517193Y-214325021D01*
X173245499Y-214269600D01*
X173949000Y-214073159D01*
X174600659Y-213743246D01*
X174738363Y-213651236D01*
X175099538Y-213189341D01*
X172600000Y-210689803D01*
X170100462Y-213189341D01*
X168782600Y-213189341D01*
X168782600Y-210517193D01*
X168874979Y-210517193D01*
X168930400Y-211245499D01*
X169126841Y-211949000D01*
X169456754Y-212600659D01*
X169548764Y-212738363D01*
X170010659Y-213099538D01*
X172510197Y-210600000D01*
X172689803Y-210600000D01*
X175189341Y-213099538D01*
X175651236Y-212738363D01*
X176009782Y-212102008D01*
X176237291Y-211407932D01*
X176325021Y-210682807D01*
X176269600Y-209954501D01*
X176073159Y-209251000D01*
X175743246Y-208599341D01*
X175651236Y-208461637D01*
X175189341Y-208100462D01*
X172689803Y-210600000D01*
X172510197Y-210600000D01*
X170010659Y-208100462D01*
X169548764Y-208461637D01*
X169190218Y-209097992D01*
X168962709Y-209792068D01*
X168874979Y-210517193D01*
X168782600Y-210517193D01*
X168782600Y-208791457D01*
X169563398Y-208010659D01*
X170100462Y-208010659D01*
X172600000Y-210510197D01*
X175099538Y-208010659D01*
X174738363Y-207548764D01*
X174102008Y-207190218D01*
X173407932Y-206962709D01*
X172682807Y-206874979D01*
X171954501Y-206930400D01*
X171251000Y-207126841D01*
X170599341Y-207456754D01*
X170461637Y-207548764D01*
X170100462Y-208010659D01*
X169563398Y-208010659D01*
X174120470Y-203453588D01*
X174138660Y-203438660D01*
X174198222Y-203366083D01*
X174227064Y-203312124D01*
X174242480Y-203283282D01*
X174269734Y-203193437D01*
X174278937Y-203100000D01*
X174276631Y-203076588D01*
X174276631Y-174289341D01*
X182100462Y-174289341D01*
X182461637Y-174751236D01*
X183097992Y-175109782D01*
X183792068Y-175337291D01*
X184517193Y-175425021D01*
X185245499Y-175369600D01*
X185949000Y-175173159D01*
X186600659Y-174843246D01*
X186738363Y-174751236D01*
X187099538Y-174289341D01*
X184600000Y-171789803D01*
X182100462Y-174289341D01*
X174276631Y-174289341D01*
X174276631Y-171617193D01*
X180874979Y-171617193D01*
X180930400Y-172345499D01*
X181126841Y-173049000D01*
X181456754Y-173700659D01*
X181548764Y-173838363D01*
X182010659Y-174199538D01*
X184510197Y-171700000D01*
X184689803Y-171700000D01*
X187189341Y-174199538D01*
X187651236Y-173838363D01*
X188009782Y-173202008D01*
X188237291Y-172507932D01*
X188325021Y-171782807D01*
X188269600Y-171054501D01*
X188073159Y-170351000D01*
X187743246Y-169699341D01*
X187651236Y-169561637D01*
X187189341Y-169200462D01*
X184689803Y-171700000D01*
X184510197Y-171700000D01*
X182010659Y-169200462D01*
X181548764Y-169561637D01*
X181190218Y-170197992D01*
X180962709Y-170892068D01*
X180874979Y-171617193D01*
X174276631Y-171617193D01*
X174276631Y-169110659D01*
X182100462Y-169110659D01*
X184600000Y-171610197D01*
X187099538Y-169110659D01*
X186738363Y-168648764D01*
X186102008Y-168290218D01*
X185407932Y-168062709D01*
X184682807Y-167974979D01*
X183954501Y-168030400D01*
X183251000Y-168226841D01*
X182599341Y-168556754D01*
X182461637Y-168648764D01*
X182100462Y-169110659D01*
X174276631Y-169110659D01*
X174276631Y-157823412D01*
X174278937Y-157799999D01*
X174269734Y-157706563D01*
X174261466Y-157679309D01*
X174242480Y-157616719D01*
X174198222Y-157533917D01*
X174138660Y-157461340D01*
X174135000Y-157458336D01*
X174135000Y-157437458D01*
X174110597Y-157314777D01*
X174062729Y-157199215D01*
X173993236Y-157095211D01*
X173904789Y-157006764D01*
X173800785Y-156937271D01*
X173685223Y-156889403D01*
X173562542Y-156865000D01*
X173437458Y-156865000D01*
X173314777Y-156889403D01*
X173199215Y-156937271D01*
X173095211Y-157006764D01*
X173006764Y-157095211D01*
X172937271Y-157199215D01*
X172889403Y-157314777D01*
X172865000Y-157437458D01*
X172865000Y-157562542D01*
X172889403Y-157685223D01*
X172937271Y-157800785D01*
X173006764Y-157904789D01*
X173095211Y-157993236D01*
X173199215Y-158062729D01*
X173314777Y-158110597D01*
X173323369Y-158112306D01*
X173323370Y-202902572D01*
X168022594Y-208203349D01*
X167957099Y-208257099D01*
X167896791Y-208330585D01*
X167851978Y-208414424D01*
X167824383Y-208505395D01*
X167817400Y-208576294D01*
X167817401Y-217576285D01*
X167815065Y-217600000D01*
X164477631Y-217600000D01*
X164362000Y-217484370D01*
X164362000Y-206615630D01*
X168712352Y-202265279D01*
X168741422Y-202241422D01*
X168836645Y-202125392D01*
X168907402Y-201993015D01*
X168950974Y-201849378D01*
X168962000Y-201737426D01*
X168962000Y-201737424D01*
X168965686Y-201700001D01*
X168962000Y-201662578D01*
X168962000Y-159115630D01*
X169812352Y-158265279D01*
X169841422Y-158241422D01*
X169905490Y-158163355D01*
X169936645Y-158125393D01*
X169998554Y-158009568D01*
X170007402Y-157993015D01*
X170050974Y-157849378D01*
X170062000Y-157737426D01*
X170062000Y-157737423D01*
X170065686Y-157700000D01*
X170062000Y-157662577D01*
X170062000Y-157453790D01*
X170502500Y-157453790D01*
X170502500Y-157578874D01*
X170526903Y-157701555D01*
X170574771Y-157817117D01*
X170644264Y-157921121D01*
X170732711Y-158009568D01*
X170836715Y-158079061D01*
X170952277Y-158126929D01*
X171074958Y-158151332D01*
X171200042Y-158151332D01*
X171322723Y-158126929D01*
X171438285Y-158079061D01*
X171516500Y-158026800D01*
X171594715Y-158079061D01*
X171710277Y-158126929D01*
X171832958Y-158151332D01*
X171958042Y-158151332D01*
X172080723Y-158126929D01*
X172196285Y-158079061D01*
X172300289Y-158009568D01*
X172388736Y-157921121D01*
X172458229Y-157817117D01*
X172506097Y-157701555D01*
X172530500Y-157578874D01*
X172530500Y-157453790D01*
X172506097Y-157331109D01*
X172458229Y-157215547D01*
X172388736Y-157111543D01*
X172300289Y-157023096D01*
X172196285Y-156953603D01*
X172080723Y-156905735D01*
X171958042Y-156881332D01*
X171832958Y-156881332D01*
X171710277Y-156905735D01*
X171594715Y-156953603D01*
X171516500Y-157005864D01*
X171438285Y-156953603D01*
X171322723Y-156905735D01*
X171200042Y-156881332D01*
X171074958Y-156881332D01*
X170952277Y-156905735D01*
X170836715Y-156953603D01*
X170732711Y-157023096D01*
X170644264Y-157111543D01*
X170574771Y-157215547D01*
X170526903Y-157331109D01*
X170502500Y-157453790D01*
X170062000Y-157453790D01*
X170062000Y-156662574D01*
X170050974Y-156550622D01*
X170007402Y-156406985D01*
X169936645Y-156274608D01*
X169841422Y-156158578D01*
X169725391Y-156063355D01*
X169593014Y-155992598D01*
X169449377Y-155949026D01*
X169300000Y-155934314D01*
X169150622Y-155949026D01*
X169006985Y-155992598D01*
X168874608Y-156063355D01*
X168758578Y-156158578D01*
X168663355Y-156274609D01*
X168592598Y-156406986D01*
X168549026Y-156550623D01*
X168538000Y-156662575D01*
X168538001Y-157384369D01*
X167687654Y-158234716D01*
X167658578Y-158258578D01*
X167608989Y-158319003D01*
X167563355Y-158374608D01*
X167525535Y-158445365D01*
X167492598Y-158506986D01*
X167449026Y-158650623D01*
X167438000Y-158762574D01*
X167434314Y-158800000D01*
X167438000Y-158837423D01*
X167438001Y-201384368D01*
X163087654Y-205734716D01*
X163058578Y-205758578D01*
X163002983Y-205826322D01*
X162963355Y-205874608D01*
X162932708Y-205931946D01*
X162892598Y-206006986D01*
X162849026Y-206150623D01*
X162838000Y-206262574D01*
X162834314Y-206300000D01*
X159927000Y-206300000D01*
X159927000Y-202353550D01*
X163888659Y-198490932D01*
X163904695Y-198471888D01*
X163916708Y-198450082D01*
X163924236Y-198426351D01*
X163927000Y-198400000D01*
X163927000Y-150389341D01*
X182100462Y-150389341D01*
X182461637Y-150851236D01*
X183097992Y-151209782D01*
X183792068Y-151437291D01*
X184517193Y-151525021D01*
X185245499Y-151469600D01*
X185949000Y-151273159D01*
X186600659Y-150943246D01*
X186738363Y-150851236D01*
X187099538Y-150389341D01*
X184600000Y-147889803D01*
X182100462Y-150389341D01*
X163927000Y-150389341D01*
X163927000Y-149627000D01*
X178800000Y-149627000D01*
X178824776Y-149624560D01*
X178848601Y-149617333D01*
X178870557Y-149605597D01*
X178889803Y-149589803D01*
X178905597Y-149570557D01*
X178917333Y-149548601D01*
X178924560Y-149524776D01*
X178927000Y-149500000D01*
X178927000Y-147717193D01*
X180874979Y-147717193D01*
X180930400Y-148445499D01*
X181126841Y-149149000D01*
X181456754Y-149800659D01*
X181548764Y-149938363D01*
X182010659Y-150299538D01*
X184510197Y-147800000D01*
X184689803Y-147800000D01*
X187189341Y-150299538D01*
X187651236Y-149938363D01*
X188009782Y-149302008D01*
X188237291Y-148607932D01*
X188325021Y-147882807D01*
X188269600Y-147154501D01*
X188073159Y-146451000D01*
X187743246Y-145799341D01*
X187651236Y-145661637D01*
X187189341Y-145300462D01*
X184689803Y-147800000D01*
X184510197Y-147800000D01*
X182010659Y-145300462D01*
X181548764Y-145661637D01*
X181190218Y-146297992D01*
X180962709Y-146992068D01*
X180874979Y-147717193D01*
X178927000Y-147717193D01*
X178927000Y-144827000D01*
X182400461Y-144827000D01*
X182100462Y-145210659D01*
G37*
%TD.AperFunction*%
%TD*%
M02*
