<?xml version="1.0" standalone="no"?>
 <!DOCTYPE svg PUBLIC "-//W3C//DTD SVG 1.1//EN" 
 "http://www.w3.org/Graphics/SVG/1.1/DTD/svg11.dtd"> 
<svg
  xmlns:svg="http://www.w3.org/2000/svg"
  xmlns="http://www.w3.org/2000/svg"
  xmlns:xlink="http://www.w3.org/1999/xlink"
  version="1.1"
  width="29.700220cm" height="21.000720cm" viewBox="0 0 116930 82680">
<title>SVG Picture created as hard_cam_usb_production-NPTH-drl_map.svg date 2021/10/19 18:19:04 </title>
  <desc>Picture generated by PCBNEW </desc>
<g style="fill:#000000; fill-opacity:1;stroke:#000000; stroke-opacity:1;
stroke-linecap:round; stroke-linejoin:round;"
 transform="translate(0 0) scale(1 1)">
</g>
<g style="fill:#000000; fill-opacity:0.0; 
stroke:#000000; stroke-width:-0.000393701; stroke-opacity:1; 
stroke-linecap:round; stroke-linejoin:round;">
</g>
<g style="fill:#000000; fill-opacity:0.0; 
stroke:#000000; stroke-width:19.685; stroke-opacity:1; 
stroke-linecap:round; stroke-linejoin:round;">
<path d="M64212 89842
L62519 87185
" />
<path d="M70708 84468
L70708 89448
" />
<path d="M71692 78464
L71692 82303
" />
<path d="M71692.9 84468.5 A492.126 492.126 0.0 0 0 70708.7 84468.5" />
<path d="M70708 82322
L70708 82303
" />
<path d="M70708.7 82303.1 A492.126 492.126 0.0 0 0 71692.9 82303.1" />
<path d="M83110 74291
L83110 74271
" />
<path d="M83110 62834
L83110 74291
" />
<path d="M84094 76437
L84094 81377
" />
<path d="M84094 70669
L84094 74271
" />
<path d="M84094.5 76437 A492.126 492.126 0.0 0 0 83110.2 76437" />
<path d="M83110.2 74291.3 A492.52 492.52 0.0 0 0 84094.9 74271.7" />
<path d="M70315 89842.5 A393.701 393.701 0.0 0 0 70708.7 89448.8" />
<path d="M62519 87185
L62519 79448
" />
<path d="M62519 79448
L64094 77874
" />
<path d="M84488.2 70275.6 A393.701 393.701 0.0 0 0 84094.5 70669.3" />
<path d="M95315 81771.7 A393.701 393.701 0.0 0 0 95708.7 81378" />
<path d="M95314 81771
L84488 81771
" />
<path d="M95708 68779
L95708 81377
" />
<path d="M91456 68385
L95314 68385
" />
<path d="M91062 69881
L91062 68779
" />
<path d="M95708.7 68779.5 A393.701 393.701 0.0 0 0 95315 68385.8" />
<path d="M84488 70275
L90669 70275
" />
<path d="M90669.3 70275.6 A393.701 393.701 0.0 0 0 91063 69881.9" />
<path d="M84094.5 81378 A393.701 393.701 0.0 0 0 84488.2 81771.7" />
<path d="M91456.7 68385.8 A393.701 393.701 0.0 0 0 91063 68779.5" />
<path d="M86811 86377
L83110 82677
" />
<path d="M77598.4 58818.9 A393.701 393.701 0.0 0 0 77204.7 59212.6" />
<path d="M85078.7 62440.9 A393.701 393.701 0.0 0 0 85472.4 62047.2" />
<path d="M85472.4 59212.6 A393.701 393.701 0.0 0 0 85078.7 58818.9" />
<path d="M83110 82677
L83110 81811
" />
<path d="M83110 76437
L83110 81811
" />
<path d="M85078 62440
L83503 62440
" />
<path d="M85472 59212
L85472 62047
" />
<path d="M86417.3 89842.5 A393.701 393.701 0.0 0 0 86811 89448.8" />
<path d="M86811 89448
L86811 86377
" />
</g>
<g style="fill:#000000; fill-opacity:1.0; 
stroke:#000000; stroke-width:0; stroke-opacity:1; 
stroke-linecap:round; stroke-linejoin:round;">
<circle cx="77598.4" cy="58818.9" r="9.84252" /> 
</g>
<g style="fill:#000000; fill-opacity:1.0; 
stroke:#000000; stroke-width:19.685; stroke-opacity:1; 
stroke-linecap:round; stroke-linejoin:round;">
</g>
<g style="fill:#000000; fill-opacity:0.0; 
stroke:#000000; stroke-width:19.685; stroke-opacity:1; 
stroke-linecap:round; stroke-linejoin:round;">
<path d="M78779 58818
L77598 58818
" />
<path d="M83267 89842
L86417 89842
" />
<path d="M85078 58818
L78779 58818
" />
<path d="M72086.6 78070.9 A393.701 393.701 0.0 0 0 71692.9 78464.6" />
<path d="M76811 78070.9 A393.701 393.701 0.0 0 0 77204.7 77677.2" />
<path d="M72086 78070
L76811 78070
" />
<path d="M77204 77677
L77204 59212
" />
<path d="M73503 89842
L71692 88031
" />
<path d="M71692 88031
L71692 84468
" />
<path d="M83267 89842
L73503 89842
" />
<path d="M83503.9 62440.9 A393.701 393.701 0.0 0 0 83110.2 62834.6" />
<path d="M74645.7 56968.5 A393.701 393.701 0.0 0 0 74252 56574.8" />
<path d="M64488 58464
L69606 58464
" />
<path d="M74645 56968
L74645 69015
" />
<path d="M70000 58070
L70000 56968
" />
<path d="M64094 69566
L64094 58858
" />
<path d="M64488.2 58464.6 A393.701 393.701 0.0 0 0 64094.5 58858.3" />
<path d="M70393.7 56574.8 A393.701 393.701 0.0 0 0 70000 56968.5" />
<path d="M69606.3 58464.6 A393.701 393.701 0.0 0 0 70000 58070.9" />
<path d="M70314 89842
L64212 89842
" />
<path d="M70393 56574
L74251 56574
" />
<path d="M70708 72952
L74645 69015
" />
<path d="M64094 77874
L64094 69566
" />
<path d="M70708 82322
L70708 72952
" />
</g>
<g style="fill:#000000; fill-opacity:0.0; 
stroke:#000000; stroke-width:78.7402; stroke-opacity:1; 
stroke-linecap:round; stroke-linejoin:round;">
<path d="M86122 79153
L86476 79507
" />
<path d="M86476 79153
L86122 79507
" />
<path d="M87854 79153
L88208 79507
" />
<path d="M88208 79153
L87854 79507
" />
<circle cx="65511.8" cy="87421.3" r="196.85" /> 
<circle cx="67874" cy="87421.3" r="196.85" /> 
<circle cx="74200" cy="84648" r="196.85" /> 
<circle cx="74200" cy="87010.2" r="196.85" /> 
</g>
<g style="fill:#000000; fill-opacity:0.0; 
stroke:#000000; stroke-width:118.11; stroke-opacity:1; 
stroke-linecap:round; stroke-linejoin:round;">
<text x="63297.2" y="91742.1"
textLength="8779.53" font-size="1574.8" lengthAdjust="spacingAndGlyphs"
text-anchor="start" opacity="0">Drill Map:</text>
<path d="M63637 91685
L63637 90504
L63918 90504
L64087 90561
L64199 90673
L64256 90785
L64312 91010
L64312 91179
L64256 91404
L64199 91517
L64087 91629
L63918 91685
L63637 91685
" />
<path d="M64818 91685
L64818 90898
" />
<path d="M64818 91123
L64874 91010
L64931 90954
L65043 90898
L65156 90898
" />
<path d="M65549 91685
L65549 90898
" />
<path d="M65549 90504
L65493 90561
L65549 90617
L65606 90561
L65549 90504
L65549 90617
" />
<path d="M66280 91685
L66168 91629
L66112 91517
L66112 90504
" />
<path d="M66899 91685
L66787 91629
L66730 91517
L66730 90504
" />
<path d="M68249 91685
L68249 90504
L68643 91348
L69036 90504
L69036 91685
" />
<path d="M70105 91685
L70105 91067
L70049 90954
L69936 90898
L69711 90898
L69599 90954
" />
<path d="M70105 91629
L69992 91685
L69711 91685
L69599 91629
L69543 91517
L69543 91404
L69599 91292
L69711 91235
L69992 91235
L70105 91179
" />
<path d="M70667 90898
L70667 92079
" />
<path d="M70667 90954
L70780 90898
L71005 90898
L71117 90954
L71174 91010
L71230 91123
L71230 91460
L71174 91573
L71117 91629
L71005 91685
L70780 91685
L70667 91629
" />
<path d="M71736 91573
L71792 91629
L71736 91685
L71680 91629
L71736 91573
L71736 91685
" />
<path d="M71736 90954
L71792 91010
L71736 91067
L71680 91010
L71736 90954
L71736 91067
" />
<path d="M62155 93454
L62509 93809
" />
<path d="M62509 93454
L62155 93809
" />
<text x="63297.2" y="94222.4"
textLength="39375.7" font-size="1574.8" lengthAdjust="spacingAndGlyphs"
text-anchor="start" opacity="0">0.900mm / 0.0354" (2 holes) (not plated)</text>
<path d="M63862 92985
L63974 92985
L64087 93041
L64143 93097
L64199 93210
L64256 93435
L64256 93716
L64199 93941
L64143 94053
L64087 94109
L63974 94166
L63862 94166
L63749 94109
L63693 94053
L63637 93941
L63581 93716
L63581 93435
L63637 93210
L63693 93097
L63749 93041
L63862 92985
" />
<path d="M64762 94053
L64818 94109
L64762 94166
L64706 94109
L64762 94053
L64762 94166
" />
<path d="M65381 94166
L65606 94166
L65718 94109
L65774 94053
L65887 93884
L65943 93660
L65943 93210
L65887 93097
L65830 93041
L65718 92985
L65493 92985
L65381 93041
L65324 93097
L65268 93210
L65268 93491
L65324 93603
L65381 93660
L65493 93716
L65718 93716
L65830 93660
L65887 93603
L65943 93491
" />
<path d="M66674 92985
L66787 92985
L66899 93041
L66955 93097
L67012 93210
L67068 93435
L67068 93716
L67012 93941
L66955 94053
L66899 94109
L66787 94166
L66674 94166
L66562 94109
L66505 94053
L66449 93941
L66393 93716
L66393 93435
L66449 93210
L66505 93097
L66562 93041
L66674 92985
" />
<path d="M67799 92985
L67911 92985
L68024 93041
L68080 93097
L68136 93210
L68193 93435
L68193 93716
L68136 93941
L68080 94053
L68024 94109
L67911 94166
L67799 94166
L67687 94109
L67630 94053
L67574 93941
L67518 93716
L67518 93435
L67574 93210
L67630 93097
L67687 93041
L67799 92985
" />
<path d="M68699 94166
L68699 93378
" />
<path d="M68699 93491
L68755 93435
L68868 93378
L69036 93378
L69149 93435
L69205 93547
L69205 94166
" />
<path d="M69205 93547
L69261 93435
L69374 93378
L69543 93378
L69655 93435
L69711 93547
L69711 94166
" />
<path d="M70274 94166
L70274 93378
" />
<path d="M70274 93491
L70330 93435
L70442 93378
L70611 93378
L70724 93435
L70780 93547
L70780 94166
" />
<path d="M70780 93547
L70836 93435
L70949 93378
L71117 93378
L71230 93435
L71286 93547
L71286 94166
" />
<path d="M73592 92928
L72580 94447
" />
<path d="M75111 92985
L75223 92985
L75336 93041
L75392 93097
L75448 93210
L75504 93435
L75504 93716
L75448 93941
L75392 94053
L75336 94109
L75223 94166
L75111 94166
L74998 94109
L74942 94053
L74886 93941
L74829 93716
L74829 93435
L74886 93210
L74942 93097
L74998 93041
L75111 92985
" />
<path d="M76010 94053
L76067 94109
L76010 94166
L75954 94109
L76010 94053
L76010 94166
" />
<path d="M76798 92985
L76910 92985
L77023 93041
L77079 93097
L77135 93210
L77192 93435
L77192 93716
L77135 93941
L77079 94053
L77023 94109
L76910 94166
L76798 94166
L76685 94109
L76629 94053
L76573 93941
L76517 93716
L76517 93435
L76573 93210
L76629 93097
L76685 93041
L76798 92985
" />
<path d="M77585 92985
L78316 92985
L77923 93435
L78091 93435
L78204 93491
L78260 93547
L78316 93660
L78316 93941
L78260 94053
L78204 94109
L78091 94166
L77754 94166
L77642 94109
L77585 94053
" />
<path d="M79385 92985
L78823 92985
L78766 93547
L78823 93491
L78935 93435
L79216 93435
L79329 93491
L79385 93547
L79441 93660
L79441 93941
L79385 94053
L79329 94109
L79216 94166
L78935 94166
L78823 94109
L78766 94053
" />
<path d="M80454 93378
L80454 94166
" />
<path d="M80172 92928
L79891 93772
L80622 93772
" />
<path d="M81016 92985
L81016 93210
" />
<path d="M81466 92985
L81466 93210
" />
<path d="M83210 94616
L83153 94559
L83041 94391
L82985 94278
L82928 94109
L82872 93828
L82872 93603
L82928 93322
L82985 93153
L83041 93041
L83153 92872
L83210 92816
" />
<path d="M83603 93097
L83660 93041
L83772 92985
L84053 92985
L84166 93041
L84222 93097
L84278 93210
L84278 93322
L84222 93491
L83547 94166
L84278 94166
" />
<path d="M85684 94166
L85684 92985
" />
<path d="M86190 94166
L86190 93547
L86134 93435
L86022 93378
L85853 93378
L85741 93435
L85684 93491
" />
<path d="M86922 94166
L86809 94109
L86753 94053
L86697 93941
L86697 93603
L86753 93491
L86809 93435
L86922 93378
L87090 93378
L87203 93435
L87259 93491
L87315 93603
L87315 93941
L87259 94053
L87203 94109
L87090 94166
L86922 94166
" />
<path d="M87990 94166
L87878 94109
L87821 93997
L87821 92985
" />
<path d="M88890 94109
L88778 94166
L88553 94166
L88440 94109
L88384 93997
L88384 93547
L88440 93435
L88553 93378
L88778 93378
L88890 93435
L88946 93547
L88946 93660
L88384 93772
" />
<path d="M89396 94109
L89509 94166
L89734 94166
L89846 94109
L89902 93997
L89902 93941
L89846 93828
L89734 93772
L89565 93772
L89453 93716
L89396 93603
L89396 93547
L89453 93435
L89565 93378
L89734 93378
L89846 93435
" />
<path d="M90296 94616
L90352 94559
L90465 94391
L90521 94278
L90577 94109
L90634 93828
L90634 93603
L90577 93322
L90521 93153
L90465 93041
L90352 92872
L90296 92816
" />
<path d="M92433 94616
L92377 94559
L92265 94391
L92208 94278
L92152 94109
L92096 93828
L92096 93603
L92152 93322
L92208 93153
L92265 93041
L92377 92872
L92433 92816
" />
<path d="M92883 93378
L92883 94166
" />
<path d="M92883 93491
L92940 93435
L93052 93378
L93221 93378
L93333 93435
L93390 93547
L93390 94166
" />
<path d="M94121 94166
L94008 94109
L93952 94053
L93896 93941
L93896 93603
L93952 93491
L94008 93435
L94121 93378
L94289 93378
L94402 93435
L94458 93491
L94514 93603
L94514 93941
L94458 94053
L94402 94109
L94289 94166
L94121 94166
" />
<path d="M94852 93378
L95302 93378
" />
<path d="M95021 92985
L95021 93997
L95077 94109
L95189 94166
L95302 94166
" />
<path d="M96595 93378
L96595 94559
" />
<path d="M96595 93435
L96708 93378
L96933 93378
L97045 93435
L97102 93491
L97158 93603
L97158 93941
L97102 94053
L97045 94109
L96933 94166
L96708 94166
L96595 94109
" />
<path d="M97833 94166
L97720 94109
L97664 93997
L97664 92985
" />
<path d="M98789 94166
L98789 93547
L98733 93435
L98620 93378
L98395 93378
L98283 93435
" />
<path d="M98789 94109
L98676 94166
L98395 94166
L98283 94109
L98226 93997
L98226 93884
L98283 93772
L98395 93716
L98676 93716
L98789 93660
" />
<path d="M99183 93378
L99633 93378
" />
<path d="M99351 92985
L99351 93997
L99408 94109
L99520 94166
L99633 94166
" />
<path d="M100476 94109
L100364 94166
L100139 94166
L100026 94109
L99970 93997
L99970 93547
L100026 93435
L100139 93378
L100364 93378
L100476 93435
L100532 93547
L100532 93660
L99970 93772
" />
<path d="M101545 94166
L101545 92985
" />
<path d="M101545 94109
L101432 94166
L101207 94166
L101095 94109
L101039 94053
L100982 93941
L100982 93603
L101039 93491
L101095 93435
L101207 93378
L101432 93378
L101545 93435
" />
<path d="M101995 94616
L102051 94559
L102163 94391
L102220 94278
L102276 94109
L102332 93828
L102332 93603
L102276 93322
L102220 93153
L102163 93041
L102051 92872
L101995 92816
" />
<circle cx="62313" cy="95190.9" r="196.85" /> 
<text x="63297.2" y="95781.5"
textLength="39375.7" font-size="1574.8" lengthAdjust="spacingAndGlyphs"
text-anchor="start" opacity="0">1.000mm / 0.0394" (4 holes) (not plated)</text>
<path d="M64256 95725
L63581 95725
" />
<path d="M63918 95725
L63918 94544
L63806 94712
L63693 94825
L63581 94881
" />
<path d="M64762 95612
L64818 95669
L64762 95725
L64706 95669
L64762 95612
L64762 95725
" />
<path d="M65549 94544
L65662 94544
L65774 94600
L65830 94656
L65887 94769
L65943 94994
L65943 95275
L65887 95500
L65830 95612
L65774 95669
L65662 95725
L65549 95725
L65437 95669
L65381 95612
L65324 95500
L65268 95275
L65268 94994
L65324 94769
L65381 94656
L65437 94600
L65549 94544
" />
<path d="M66674 94544
L66787 94544
L66899 94600
L66955 94656
L67012 94769
L67068 94994
L67068 95275
L67012 95500
L66955 95612
L66899 95669
L66787 95725
L66674 95725
L66562 95669
L66505 95612
L66449 95500
L66393 95275
L66393 94994
L66449 94769
L66505 94656
L66562 94600
L66674 94544
" />
<path d="M67799 94544
L67911 94544
L68024 94600
L68080 94656
L68136 94769
L68193 94994
L68193 95275
L68136 95500
L68080 95612
L68024 95669
L67911 95725
L67799 95725
L67687 95669
L67630 95612
L67574 95500
L67518 95275
L67518 94994
L67574 94769
L67630 94656
L67687 94600
L67799 94544
" />
<path d="M68699 95725
L68699 94937
" />
<path d="M68699 95050
L68755 94994
L68868 94937
L69036 94937
L69149 94994
L69205 95106
L69205 95725
" />
<path d="M69205 95106
L69261 94994
L69374 94937
L69543 94937
L69655 94994
L69711 95106
L69711 95725
" />
<path d="M70274 95725
L70274 94937
" />
<path d="M70274 95050
L70330 94994
L70442 94937
L70611 94937
L70724 94994
L70780 95106
L70780 95725
" />
<path d="M70780 95106
L70836 94994
L70949 94937
L71117 94937
L71230 94994
L71286 95106
L71286 95725
" />
<path d="M73592 94487
L72580 96006
" />
<path d="M75111 94544
L75223 94544
L75336 94600
L75392 94656
L75448 94769
L75504 94994
L75504 95275
L75448 95500
L75392 95612
L75336 95669
L75223 95725
L75111 95725
L74998 95669
L74942 95612
L74886 95500
L74829 95275
L74829 94994
L74886 94769
L74942 94656
L74998 94600
L75111 94544
" />
<path d="M76010 95612
L76067 95669
L76010 95725
L75954 95669
L76010 95612
L76010 95725
" />
<path d="M76798 94544
L76910 94544
L77023 94600
L77079 94656
L77135 94769
L77192 94994
L77192 95275
L77135 95500
L77079 95612
L77023 95669
L76910 95725
L76798 95725
L76685 95669
L76629 95612
L76573 95500
L76517 95275
L76517 94994
L76573 94769
L76629 94656
L76685 94600
L76798 94544
" />
<path d="M77585 94544
L78316 94544
L77923 94994
L78091 94994
L78204 95050
L78260 95106
L78316 95219
L78316 95500
L78260 95612
L78204 95669
L78091 95725
L77754 95725
L77642 95669
L77585 95612
" />
<path d="M78879 95725
L79104 95725
L79216 95669
L79273 95612
L79385 95444
L79441 95219
L79441 94769
L79385 94656
L79329 94600
L79216 94544
L78991 94544
L78879 94600
L78823 94656
L78766 94769
L78766 95050
L78823 95162
L78879 95219
L78991 95275
L79216 95275
L79329 95219
L79385 95162
L79441 95050
" />
<path d="M80454 94937
L80454 95725
" />
<path d="M80172 94487
L79891 95331
L80622 95331
" />
<path d="M81016 94544
L81016 94769
" />
<path d="M81466 94544
L81466 94769
" />
<path d="M83210 96175
L83153 96118
L83041 95950
L82985 95837
L82928 95669
L82872 95387
L82872 95162
L82928 94881
L82985 94712
L83041 94600
L83153 94431
L83210 94375
" />
<path d="M84166 94937
L84166 95725
" />
<path d="M83884 94487
L83603 95331
L84334 95331
" />
<path d="M85684 95725
L85684 94544
" />
<path d="M86190 95725
L86190 95106
L86134 94994
L86022 94937
L85853 94937
L85741 94994
L85684 95050
" />
<path d="M86922 95725
L86809 95669
L86753 95612
L86697 95500
L86697 95162
L86753 95050
L86809 94994
L86922 94937
L87090 94937
L87203 94994
L87259 95050
L87315 95162
L87315 95500
L87259 95612
L87203 95669
L87090 95725
L86922 95725
" />
<path d="M87990 95725
L87878 95669
L87821 95556
L87821 94544
" />
<path d="M88890 95669
L88778 95725
L88553 95725
L88440 95669
L88384 95556
L88384 95106
L88440 94994
L88553 94937
L88778 94937
L88890 94994
L88946 95106
L88946 95219
L88384 95331
" />
<path d="M89396 95669
L89509 95725
L89734 95725
L89846 95669
L89902 95556
L89902 95500
L89846 95387
L89734 95331
L89565 95331
L89453 95275
L89396 95162
L89396 95106
L89453 94994
L89565 94937
L89734 94937
L89846 94994
" />
<path d="M90296 96175
L90352 96118
L90465 95950
L90521 95837
L90577 95669
L90634 95387
L90634 95162
L90577 94881
L90521 94712
L90465 94600
L90352 94431
L90296 94375
" />
<path d="M92433 96175
L92377 96118
L92265 95950
L92208 95837
L92152 95669
L92096 95387
L92096 95162
L92152 94881
L92208 94712
L92265 94600
L92377 94431
L92433 94375
" />
<path d="M92883 94937
L92883 95725
" />
<path d="M92883 95050
L92940 94994
L93052 94937
L93221 94937
L93333 94994
L93390 95106
L93390 95725
" />
<path d="M94121 95725
L94008 95669
L93952 95612
L93896 95500
L93896 95162
L93952 95050
L94008 94994
L94121 94937
L94289 94937
L94402 94994
L94458 95050
L94514 95162
L94514 95500
L94458 95612
L94402 95669
L94289 95725
L94121 95725
" />
<path d="M94852 94937
L95302 94937
" />
<path d="M95021 94544
L95021 95556
L95077 95669
L95189 95725
L95302 95725
" />
<path d="M96595 94937
L96595 96118
" />
<path d="M96595 94994
L96708 94937
L96933 94937
L97045 94994
L97102 95050
L97158 95162
L97158 95500
L97102 95612
L97045 95669
L96933 95725
L96708 95725
L96595 95669
" />
<path d="M97833 95725
L97720 95669
L97664 95556
L97664 94544
" />
<path d="M98789 95725
L98789 95106
L98733 94994
L98620 94937
L98395 94937
L98283 94994
" />
<path d="M98789 95669
L98676 95725
L98395 95725
L98283 95669
L98226 95556
L98226 95444
L98283 95331
L98395 95275
L98676 95275
L98789 95219
" />
<path d="M99183 94937
L99633 94937
" />
<path d="M99351 94544
L99351 95556
L99408 95669
L99520 95725
L99633 95725
" />
<path d="M100476 95669
L100364 95725
L100139 95725
L100026 95669
L99970 95556
L99970 95106
L100026 94994
L100139 94937
L100364 94937
L100476 94994
L100532 95106
L100532 95219
L99970 95331
" />
<path d="M101545 95725
L101545 94544
" />
<path d="M101545 95669
L101432 95725
L101207 95725
L101095 95669
L101039 95612
L100982 95500
L100982 95162
L101039 95050
L101095 94994
L101207 94937
L101432 94937
L101545 94994
" />
<path d="M101995 96175
L102051 96118
L102163 95950
L102220 95837
L102276 95669
L102332 95387
L102332 95162
L102276 94881
L102220 94712
L102163 94600
L102051 94431
L101995 94375
" />
</g> 
</svg>
