  0
SECTION
  2
HEADER
  9
$ANGBASE
  50
0.0
  9
$ANGDIR
  70
1
  9
$MEASUREMENT
  70
0
  0
ENDSEC
  0
SECTION
  2
TABLES
  0
TABLE
  2
LTYPE
  70
4
  0
LTYPE
  5
40F
  2
CONTINUOUS
  70
0
  3
Solid line
  72
65
  73
0
  40
0.0
  0
LTYPE
  5
410
  2
DASHDOT
 70
0
  3
Dash Dot ____ _ ____ _
 72
65
 73
4
 40
2.0
 49
1.25
 49
-0.25
 49
0.25
 49
-0.25
  0
LTYPE
  5
411
  2
DASHED
 70
0
  3
Dashed __ __ __ __ __
 72
65
 73
2
 40
0.75
 49
0.5
 49
-0.25
  0
LTYPE
  5
43B
  2
DOTTED
 70
0
  3
Dotted .  .  .  .
 72
65
 73
2
 40
0.2
 49
0.0
 49
-0.2
  0
ENDTAB
  0
TABLE
  2
STYLE
  70
4
  0
STYLE
  2
KICAD
  70
0
  40
0
  41
1
  42
1
  50
0
  71
0
  3
isocp.shx
  0
STYLE
  2
KICADB
  70
0
  40
0
  41
1
  42
1
  50
0
  71
0
  3
isocp.shx
  0
STYLE
  2
KICADI
  70
0
  40
0
  41
1
  42
1
  50
15
  71
0
  3
isocp.shx
  0
STYLE
  2
KICADBI
  70
0
  40
0
  41
1
  42
1
  50
15
  71
0
  3
isocp.shx
  0
ENDTAB
  0
TABLE
  2
LAYER
  70
1
  0
LAYER
  2
BLACK
  70
0
  62
7
  6
CONTINUOUS
  0
ENDTAB
  0
ENDSEC
  0
SECTION
  2
ENTITIES
0
LINE
8
BLACK
6
CONTINUOUS
10
6.42126
20
-8.98425
11
6.25197
21
-8.7185
0
LINE
8
BLACK
6
CONTINUOUS
10
7.07087
20
-8.44685
11
7.07087
21
-8.94488
0
LINE
8
BLACK
6
CONTINUOUS
10
7.16929
20
-7.84646
11
7.16929
21
-8.23031
0
ARC
8
BLACK
10
7.12008
20
-8.44685
40
0.0492126
50
-0
51
180
0
LINE
8
BLACK
6
CONTINUOUS
10
7.07087
20
-8.23228
11
7.07087
21
-8.23031
0
ARC
8
BLACK
10
7.12008
20
-8.23031
40
0.0492126
50
180
51
360
0
LINE
8
BLACK
6
CONTINUOUS
10
8.31102
20
-7.42913
11
8.31102
21
-7.42717
0
LINE
8
BLACK
6
CONTINUOUS
10
8.31102
20
-6.28346
11
8.31102
21
-7.42913
0
LINE
8
BLACK
6
CONTINUOUS
10
8.40945
20
-7.6437
11
8.40945
21
-8.1378
0
LINE
8
BLACK
6
CONTINUOUS
10
8.40945
20
-7.06693
11
8.40949
21
-7.42717
0
ARC
8
BLACK
10
8.36024
20
-7.6437
40
0.0492126
50
-0
51
180
0
ARC
8
BLACK
10
8.36024
20
-7.42717
40
0.049252
50
-177.709
51
4.26385e-08
0
ARC
8
BLACK
10
7.0315
20
-8.94488
40
0.0393701
50
-90
51
-0
0
LINE
8
BLACK
6
CONTINUOUS
10
6.25197
20
-8.7185
11
6.25197
21
-7.94488
0
LINE
8
BLACK
6
CONTINUOUS
10
6.25197
20
-7.94488
11
6.40945
21
-7.7874
0
ARC
8
BLACK
10
8.44882
20
-7.06693
40
0.0393701
50
90
51
180
0
ARC
8
BLACK
10
9.5315
20
-8.1378
40
0.0393701
50
-90
51
-0
0
LINE
8
BLACK
6
CONTINUOUS
10
9.5315
20
-8.17717
11
8.44882
21
-8.17717
0
LINE
8
BLACK
6
CONTINUOUS
10
9.57087
20
-6.87795
11
9.57087
21
-8.1378
0
LINE
8
BLACK
6
CONTINUOUS
10
9.14567
20
-6.83858
11
9.5315
21
-6.83858
0
LINE
8
BLACK
6
CONTINUOUS
10
9.1063
20
-6.98819
11
9.1063
21
-6.87795
0
ARC
8
BLACK
10
9.5315
20
-6.87795
40
0.0393701
50
-0
51
90
0
LINE
8
BLACK
6
CONTINUOUS
10
8.44882
20
-7.02756
11
9.06693
21
-7.02756
0
ARC
8
BLACK
10
9.06693
20
-6.98819
40
0.0393701
50
-90
51
-0
0
ARC
8
BLACK
10
8.44882
20
-8.1378
40
0.0393701
50
180
51
270
0
ARC
8
BLACK
10
9.14567
20
-6.87795
40
0.0393701
50
90
51
180
0
LINE
8
BLACK
6
CONTINUOUS
10
8.6811
20
-8.6378
11
8.31102
21
-8.26772
0
ARC
8
BLACK
10
7.75984
20
-5.92126
40
0.0393701
50
90
51
180
0
ARC
8
BLACK
10
8.50787
20
-6.20472
40
0.0393701
50
-90
51
-0
0
ARC
8
BLACK
10
8.50787
20
-5.92126
40
0.0393701
50
-0
51
90
0
LINE
8
BLACK
6
CONTINUOUS
10
8.31102
20
-8.26772
11
8.31102
21
-8.1811
0
LINE
8
BLACK
6
CONTINUOUS
10
8.31102
20
-7.6437
11
8.31102
21
-8.1811
0
LINE
8
BLACK
6
CONTINUOUS
10
8.50787
20
-6.24409
11
8.35039
21
-6.24409
0
LINE
8
BLACK
6
CONTINUOUS
10
8.54724
20
-5.92126
11
8.54724
21
-6.20472
0
ARC
8
BLACK
10
8.64173
20
-8.94488
40
0.0393701
50
-90
51
-0
0
LINE
8
BLACK
6
CONTINUOUS
10
8.6811
20
-8.94488
11
8.6811
21
-8.6378
0
LINE
8
BLACK
6
CONTINUOUS
10
7.87795
20
-5.88189
11
7.75984
21
-5.88189
0
LINE
8
BLACK
6
CONTINUOUS
10
8.32677
20
-8.98425
11
8.64173
21
-8.98425
0
LINE
8
BLACK
6
CONTINUOUS
10
8.50787
20
-5.88189
11
7.87795
21
-5.88189
0
ARC
8
BLACK
10
7.20866
20
-7.84646
40
0.0393701
50
90
51
180
0
ARC
8
BLACK
10
7.6811
20
-7.76772
40
0.0393701
50
-90
51
-0
0
LINE
8
BLACK
6
CONTINUOUS
10
7.20866
20
-7.80709
11
7.6811
21
-7.80709
0
LINE
8
BLACK
6
CONTINUOUS
10
7.72047
20
-7.76772
11
7.72047
21
-5.92126
0
LINE
8
BLACK
6
CONTINUOUS
10
7.35039
20
-8.98425
11
7.16929
21
-8.80315
0
LINE
8
BLACK
6
CONTINUOUS
10
7.16929
20
-8.80315
11
7.16929
21
-8.44685
0
LINE
8
BLACK
6
CONTINUOUS
10
8.32677
20
-8.98425
11
7.35039
21
-8.98425
0
ARC
8
BLACK
10
8.35039
20
-6.28346
40
0.0393701
50
90
51
180
0
ARC
8
BLACK
10
7.4252
20
-5.69685
40
0.0393701
50
-0
51
90
0
LINE
8
BLACK
6
CONTINUOUS
10
6.44882
20
-5.84646
11
6.96063
21
-5.84646
0
LINE
8
BLACK
6
CONTINUOUS
10
7.46457
20
-5.69685
11
7.46457
21
-6.90157
0
LINE
8
BLACK
6
CONTINUOUS
10
7
20
-5.80709
11
7
21
-5.69685
0
LINE
8
BLACK
6
CONTINUOUS
10
6.40945
20
-6.95669
11
6.40945
21
-5.88583
0
ARC
8
BLACK
10
6.44882
20
-5.88583
40
0.0393701
50
90
51
180
0
ARC
8
BLACK
10
7.03937
20
-5.69685
40
0.0393701
50
90
51
180
0
ARC
8
BLACK
10
6.96063
20
-5.80709
40
0.0393701
50
-90
51
-0
0
LINE
8
BLACK
6
CONTINUOUS
10
7.0315
20
-8.98425
11
6.42126
21
-8.98425
0
LINE
8
BLACK
6
CONTINUOUS
10
7.03937
20
-5.65748
11
7.4252
21
-5.65748
0
LINE
8
BLACK
6
CONTINUOUS
10
7.07087
20
-7.29528
11
7.46457
21
-6.90157
0
LINE
8
BLACK
6
CONTINUOUS
10
6.40945
20
-7.7874
11
6.40945
21
-6.95669
0
LINE
8
BLACK
6
CONTINUOUS
10
7.07087
20
-8.23228
11
7.07087
21
-7.29528
0
LINE
8
BLACK
6
CONTINUOUS
10
6.33358
20
-7.96744
11
6.34358
21
-7.97744
0
LINE
8
BLACK
6
CONTINUOUS
10
6.34358
20
-7.96744
11
6.33358
21
-7.97744
0
LINE
8
BLACK
6
CONTINUOUS
10
6.33358
20
-8.12492
11
6.34358
21
-8.13492
0
LINE
8
BLACK
6
CONTINUOUS
10
6.34358
20
-8.12492
11
6.33358
21
-8.13492
0
LINE
8
BLACK
6
CONTINUOUS
10
6.33358
20
-8.32177
11
6.34358
21
-8.33177
0
LINE
8
BLACK
6
CONTINUOUS
10
6.34358
20
-8.32177
11
6.33358
21
-8.33177
0
LINE
8
BLACK
6
CONTINUOUS
10
6.33358
20
-8.51862
11
6.34358
21
-8.52862
0
LINE
8
BLACK
6
CONTINUOUS
10
6.34358
20
-8.51862
11
6.33358
21
-8.52862
0
LINE
8
BLACK
6
CONTINUOUS
10
6.33358
20
-8.71547
11
6.34358
21
-8.72547
0
LINE
8
BLACK
6
CONTINUOUS
10
6.34358
20
-8.71547
11
6.33358
21
-8.72547
0
LINE
8
BLACK
6
CONTINUOUS
10
6.43201
20
-7.86902
11
6.44201
21
-7.87902
0
LINE
8
BLACK
6
CONTINUOUS
10
6.44201
20
-7.86902
11
6.43201
21
-7.87902
0
LINE
8
BLACK
6
CONTINUOUS
10
6.47138
20
-8.60524
11
6.48138
21
-8.61524
0
LINE
8
BLACK
6
CONTINUOUS
10
6.48138
20
-8.60524
11
6.47138
21
-8.61524
0
LINE
8
BLACK
6
CONTINUOUS
10
6.49106
20
-5.9202
11
6.50106
21
-5.9302
0
LINE
8
BLACK
6
CONTINUOUS
10
6.50106
20
-5.9202
11
6.49106
21
-5.9302
0
LINE
8
BLACK
6
CONTINUOUS
10
6.49106
20
-6.01862
11
6.50106
21
-6.02862
0
LINE
8
BLACK
6
CONTINUOUS
10
6.50106
20
-6.01862
11
6.49106
21
-6.02862
0
LINE
8
BLACK
6
CONTINUOUS
10
6.49106
20
-6.1761
11
6.50106
21
-6.1861
0
LINE
8
BLACK
6
CONTINUOUS
10
6.50106
20
-6.1761
11
6.49106
21
-6.1861
0
LINE
8
BLACK
6
CONTINUOUS
10
6.49106
20
-6.37295
11
6.50106
21
-6.38295
0
LINE
8
BLACK
6
CONTINUOUS
10
6.50106
20
-6.37295
11
6.49106
21
-6.38295
0
LINE
8
BLACK
6
CONTINUOUS
10
6.49106
20
-6.5698
11
6.50106
21
-6.5798
0
LINE
8
BLACK
6
CONTINUOUS
10
6.50106
20
-6.5698
11
6.49106
21
-6.5798
0
LINE
8
BLACK
6
CONTINUOUS
10
6.49106
20
-6.76665
11
6.50106
21
-6.77665
0
LINE
8
BLACK
6
CONTINUOUS
10
6.50106
20
-6.76665
11
6.49106
21
-6.77665
0
LINE
8
BLACK
6
CONTINUOUS
10
6.49106
20
-6.9635
11
6.50106
21
-6.9735
0
LINE
8
BLACK
6
CONTINUOUS
10
6.50106
20
-6.9635
11
6.49106
21
-6.9735
0
LINE
8
BLACK
6
CONTINUOUS
10
6.49106
20
-7.16035
11
6.50106
21
-7.17035
0
LINE
8
BLACK
6
CONTINUOUS
10
6.50106
20
-7.16035
11
6.49106
21
-7.17035
0
LINE
8
BLACK
6
CONTINUOUS
10
6.49106
20
-7.3572
11
6.50106
21
-7.3672
0
LINE
8
BLACK
6
CONTINUOUS
10
6.50106
20
-7.3572
11
6.49106
21
-7.3672
0
LINE
8
BLACK
6
CONTINUOUS
10
6.49106
20
-7.55406
11
6.50106
21
-7.56406
0
LINE
8
BLACK
6
CONTINUOUS
10
6.50106
20
-7.55406
11
6.49106
21
-7.56406
0
LINE
8
BLACK
6
CONTINUOUS
10
6.49106
20
-7.75091
11
6.50106
21
-7.76091
0
LINE
8
BLACK
6
CONTINUOUS
10
6.50106
20
-7.75091
11
6.49106
21
-7.76091
0
LINE
8
BLACK
6
CONTINUOUS
10
6.49106
20
-8.49894
11
6.50106
21
-8.50894
0
LINE
8
BLACK
6
CONTINUOUS
10
6.50106
20
-8.49894
11
6.49106
21
-8.50894
0
LINE
8
BLACK
6
CONTINUOUS
10
6.50681
20
-8.64067
11
6.51681
21
-8.65067
0
LINE
8
BLACK
6
CONTINUOUS
10
6.51681
20
-8.64067
11
6.50681
21
-8.65067
0
LINE
8
BLACK
6
CONTINUOUS
10
6.58555
20
-8.05012
11
6.59555
21
-8.06012
0
LINE
8
BLACK
6
CONTINUOUS
10
6.59555
20
-8.05012
11
6.58555
21
-8.06012
0
LINE
8
BLACK
6
CONTINUOUS
10
6.59343
20
-8.30209
11
6.60343
21
-8.31209
0
LINE
8
BLACK
6
CONTINUOUS
10
6.60343
20
-8.30209
11
6.59343
21
-8.31209
0
LINE
8
BLACK
6
CONTINUOUS
10
6.63362
20
-8.73516
11
6.64362
21
-8.74516
0
LINE
8
BLACK
6
CONTINUOUS
10
6.64362
20
-8.73516
11
6.63362
21
-8.74516
0
LINE
8
BLACK
6
CONTINUOUS
10
6.64461
20
-6.09736
11
6.65461
21
-6.10736
0
LINE
8
BLACK
6
CONTINUOUS
10
6.65461
20
-6.09736
11
6.64461
21
-6.10736
0
LINE
8
BLACK
6
CONTINUOUS
10
6.66346
20
-8.73516
11
6.67346
21
-8.74516
0
LINE
8
BLACK
6
CONTINUOUS
10
6.67346
20
-8.73516
11
6.66346
21
-8.74516
0
LINE
8
BLACK
6
CONTINUOUS
10
6.66823
20
-5.9202
11
6.67823
21
-5.9302
0
LINE
8
BLACK
6
CONTINUOUS
10
6.67823
20
-5.9202
11
6.66823
21
-5.9302
0
LINE
8
BLACK
6
CONTINUOUS
10
6.67217
20
-6.44382
11
6.68217
21
-6.45382
0
LINE
8
BLACK
6
CONTINUOUS
10
6.68217
20
-6.44382
11
6.67217
21
-6.45382
0
LINE
8
BLACK
6
CONTINUOUS
10
6.67217
20
-6.85327
11
6.68217
21
-6.86327
0
LINE
8
BLACK
6
CONTINUOUS
10
6.68217
20
-6.85327
11
6.67217
21
-6.86327
0
LINE
8
BLACK
6
CONTINUOUS
10
6.67217
20
-7.23122
11
6.68217
21
-7.24122
0
LINE
8
BLACK
6
CONTINUOUS
10
6.68217
20
-7.23122
11
6.67217
21
-7.24122
0
LINE
8
BLACK
6
CONTINUOUS
10
6.67217
20
-7.74303
11
6.68217
21
-7.75303
0
LINE
8
BLACK
6
CONTINUOUS
10
6.68217
20
-7.74303
11
6.67217
21
-7.75303
0
LINE
8
BLACK
6
CONTINUOUS
10
6.68791
20
-8.50681
11
6.69791
21
-8.51681
0
LINE
8
BLACK
6
CONTINUOUS
10
6.69791
20
-8.50681
11
6.68791
21
-8.51681
0
LINE
8
BLACK
6
CONTINUOUS
10
6.69972
20
-8.71547
11
6.70972
21
-8.72547
0
LINE
8
BLACK
6
CONTINUOUS
10
6.70972
20
-8.71547
11
6.69972
21
-8.72547
0
LINE
8
BLACK
6
CONTINUOUS
10
6.7076
20
-6.22531
11
6.7176
21
-6.23531
0
LINE
8
BLACK
6
CONTINUOUS
10
6.7176
20
-6.22531
11
6.7076
21
-6.23531
0
LINE
8
BLACK
6
CONTINUOUS
10
6.7327
20
-6.19643
11
6.7427
21
-6.20643
0
LINE
8
BLACK
6
CONTINUOUS
10
6.7427
20
-6.19643
11
6.7327
21
-6.20643
0
LINE
8
BLACK
6
CONTINUOUS
10
6.73516
20
-8.04224
11
6.74516
21
-8.05224
0
LINE
8
BLACK
6
CONTINUOUS
10
6.74516
20
-8.04224
11
6.73516
21
-8.05224
0
LINE
8
BLACK
6
CONTINUOUS
10
6.76254
20
-6.19643
11
6.77254
21
-6.20643
0
LINE
8
BLACK
6
CONTINUOUS
10
6.77254
20
-6.19643
11
6.76254
21
-6.20643
0
LINE
8
BLACK
6
CONTINUOUS
10
6.78634
20
-6.22531
11
6.79634
21
-6.23531
0
LINE
8
BLACK
6
CONTINUOUS
10
6.79634
20
-6.22531
11
6.78634
21
-6.23531
0
LINE
8
BLACK
6
CONTINUOUS
10
6.80602
20
-6.3572
11
6.81602
21
-6.3672
0
LINE
8
BLACK
6
CONTINUOUS
10
6.81602
20
-6.3572
11
6.80602
21
-6.3672
0
LINE
8
BLACK
6
CONTINUOUS
10
6.80602
20
-6.6328
11
6.81602
21
-6.6428
0
LINE
8
BLACK
6
CONTINUOUS
10
6.81602
20
-6.6328
11
6.80602
21
-6.6428
0
LINE
8
BLACK
6
CONTINUOUS
10
6.80602
20
-7.10524
11
6.81602
21
-7.11524
0
LINE
8
BLACK
6
CONTINUOUS
10
6.81602
20
-7.10524
11
6.80602
21
-7.11524
0
LINE
8
BLACK
6
CONTINUOUS
10
6.80602
20
-7.54618
11
6.81602
21
-7.55618
0
LINE
8
BLACK
6
CONTINUOUS
10
6.81602
20
-7.54618
11
6.80602
21
-7.55618
0
LINE
8
BLACK
6
CONTINUOUS
10
6.80602
20
-7.86902
11
6.81602
21
-7.87902
0
LINE
8
BLACK
6
CONTINUOUS
10
6.81602
20
-7.86902
11
6.80602
21
-7.87902
0
LINE
8
BLACK
6
CONTINUOUS
10
6.82571
20
-6.19579
11
6.83571
21
-6.20579
0
LINE
8
BLACK
6
CONTINUOUS
10
6.83571
20
-6.19579
11
6.82571
21
-6.20579
0
LINE
8
BLACK
6
CONTINUOUS
10
6.84933
20
-8.83358
11
6.85933
21
-8.84358
0
LINE
8
BLACK
6
CONTINUOUS
10
6.85933
20
-8.83358
11
6.84933
21
-8.84358
0
LINE
8
BLACK
6
CONTINUOUS
10
6.8572
20
-6.14461
11
6.8672
21
-6.15461
0
LINE
8
BLACK
6
CONTINUOUS
10
6.8672
20
-6.14461
11
6.8572
21
-6.15461
0
LINE
8
BLACK
6
CONTINUOUS
10
6.86114
20
-8.61705
11
6.87114
21
-8.62705
0
LINE
8
BLACK
6
CONTINUOUS
10
6.87114
20
-8.61705
11
6.86114
21
-8.62705
0
LINE
8
BLACK
6
CONTINUOUS
10
6.86508
20
-5.9202
11
6.87508
21
-5.9302
0
LINE
8
BLACK
6
CONTINUOUS
10
6.87508
20
-5.9202
11
6.86508
21
-5.9302
0
LINE
8
BLACK
6
CONTINUOUS
10
6.87295
20
-6.09736
11
6.88295
21
-6.10736
0
LINE
8
BLACK
6
CONTINUOUS
10
6.88295
20
-6.09736
11
6.87295
21
-6.10736
0
LINE
8
BLACK
6
CONTINUOUS
10
6.8887
20
-8.80209
11
6.8987
21
-8.81209
0
LINE
8
BLACK
6
CONTINUOUS
10
6.8987
20
-8.80209
11
6.8887
21
-8.81209
0
LINE
8
BLACK
6
CONTINUOUS
10
6.89264
20
-8.86902
11
6.90264
21
-8.87902
0
LINE
8
BLACK
6
CONTINUOUS
10
6.90264
20
-8.86902
11
6.89264
21
-8.87902
0
LINE
8
BLACK
6
CONTINUOUS
10
6.90839
20
-7.37295
11
6.91839
21
-7.38295
0
LINE
8
BLACK
6
CONTINUOUS
10
6.91839
20
-7.37295
11
6.90839
21
-7.38295
0
LINE
8
BLACK
6
CONTINUOUS
10
6.91626
20
-6.67217
11
6.92626
21
-6.68217
0
LINE
8
BLACK
6
CONTINUOUS
10
6.92626
20
-6.67217
11
6.91626
21
-6.68217
0
LINE
8
BLACK
6
CONTINUOUS
10
6.95563
20
-6.34933
11
6.96563
21
-6.35933
0
LINE
8
BLACK
6
CONTINUOUS
10
6.96563
20
-6.34933
11
6.95563
21
-6.35933
0
LINE
8
BLACK
6
CONTINUOUS
10
6.98319
20
-7.00287
11
6.99319
21
-7.01287
0
LINE
8
BLACK
6
CONTINUOUS
10
6.99319
20
-7.00287
11
6.98319
21
-7.01287
0
LINE
8
BLACK
6
CONTINUOUS
10
6.98319
20
-7.27846
11
6.99319
21
-7.28846
0
LINE
8
BLACK
6
CONTINUOUS
10
6.99319
20
-7.27846
11
6.98319
21
-7.28846
0
LINE
8
BLACK
6
CONTINUOUS
10
6.98319
20
-7.47531
11
6.99319
21
-7.48531
0
LINE
8
BLACK
6
CONTINUOUS
10
6.99319
20
-7.47531
11
6.98319
21
-7.48531
0
LINE
8
BLACK
6
CONTINUOUS
10
6.98319
20
-7.67217
11
6.99319
21
-7.68217
0
LINE
8
BLACK
6
CONTINUOUS
10
6.99319
20
-7.67217
11
6.98319
21
-7.68217
0
LINE
8
BLACK
6
CONTINUOUS
10
6.98319
20
-7.86902
11
6.99319
21
-7.87902
0
LINE
8
BLACK
6
CONTINUOUS
10
6.99319
20
-7.86902
11
6.98319
21
-7.87902
0
LINE
8
BLACK
6
CONTINUOUS
10
6.98319
20
-8.06587
11
6.99319
21
-8.07587
0
LINE
8
BLACK
6
CONTINUOUS
10
6.99319
20
-8.06587
11
6.98319
21
-8.07587
0
LINE
8
BLACK
6
CONTINUOUS
10
6.98319
20
-8.26272
11
6.99319
21
-8.27272
0
LINE
8
BLACK
6
CONTINUOUS
10
6.99319
20
-8.26272
11
6.98319
21
-8.27272
0
LINE
8
BLACK
6
CONTINUOUS
10
6.98319
20
-8.45957
11
6.99319
21
-8.46957
0
LINE
8
BLACK
6
CONTINUOUS
10
6.99319
20
-8.45957
11
6.98319
21
-8.46957
0
LINE
8
BLACK
6
CONTINUOUS
10
6.98319
20
-8.65642
11
6.99319
21
-8.66642
0
LINE
8
BLACK
6
CONTINUOUS
10
6.99319
20
-8.65642
11
6.98319
21
-8.66642
0
LINE
8
BLACK
6
CONTINUOUS
10
6.98319
20
-8.85327
11
6.99319
21
-8.86327
0
LINE
8
BLACK
6
CONTINUOUS
10
6.99319
20
-8.85327
11
6.98319
21
-8.86327
0
LINE
8
BLACK
6
CONTINUOUS
10
7.02256
20
-6.72728
11
7.03256
21
-6.73728
0
LINE
8
BLACK
6
CONTINUOUS
10
7.03256
20
-6.72728
11
7.02256
21
-6.73728
0
LINE
8
BLACK
6
CONTINUOUS
10
7.06193
20
-5.9202
11
7.07193
21
-5.9302
0
LINE
8
BLACK
6
CONTINUOUS
10
7.07193
20
-5.9202
11
7.06193
21
-5.9302
0
LINE
8
BLACK
6
CONTINUOUS
10
7.06193
20
-6.49106
11
7.07193
21
-6.50106
0
LINE
8
BLACK
6
CONTINUOUS
10
7.07193
20
-6.49106
11
7.06193
21
-6.50106
0
LINE
8
BLACK
6
CONTINUOUS
10
7.08161
20
-7.16035
11
7.09161
21
-7.17035
0
LINE
8
BLACK
6
CONTINUOUS
10
7.09161
20
-7.16035
11
7.08161
21
-7.17035
0
LINE
8
BLACK
6
CONTINUOUS
10
7.12098
20
-6.25484
11
7.13098
21
-6.26484
0
LINE
8
BLACK
6
CONTINUOUS
10
7.13098
20
-6.25484
11
7.12098
21
-6.26484
0
LINE
8
BLACK
6
CONTINUOUS
10
7.18004
20
-6.09736
11
7.19004
21
-6.10736
0
LINE
8
BLACK
6
CONTINUOUS
10
7.19004
20
-6.09736
11
7.18004
21
-6.10736
0
LINE
8
BLACK
6
CONTINUOUS
10
7.19972
20
-7.04224
11
7.20972
21
-7.05224
0
LINE
8
BLACK
6
CONTINUOUS
10
7.20972
20
-7.04224
11
7.19972
21
-7.05224
0
LINE
8
BLACK
6
CONTINUOUS
10
7.23909
20
-6.41232
11
7.24909
21
-6.42232
0
LINE
8
BLACK
6
CONTINUOUS
10
7.24909
20
-6.41232
11
7.23909
21
-6.42232
0
LINE
8
BLACK
6
CONTINUOUS
10
7.24303
20
-8.11311
11
7.25303
21
-8.12311
0
LINE
8
BLACK
6
CONTINUOUS
10
7.25303
20
-8.11311
11
7.24303
21
-8.12311
0
LINE
8
BLACK
6
CONTINUOUS
10
7.24303
20
-8.27059
11
7.25303
21
-8.28059
0
LINE
8
BLACK
6
CONTINUOUS
10
7.25303
20
-8.27059
11
7.24303
21
-8.28059
0
LINE
8
BLACK
6
CONTINUOUS
10
7.3028
20
-8.67933
11
7.3128
21
-8.68933
0
LINE
8
BLACK
6
CONTINUOUS
10
7.3128
20
-8.67933
11
7.3028
21
-8.68933
0
LINE
8
BLACK
6
CONTINUOUS
10
7.31783
20
-6.92413
11
7.32783
21
-6.93413
0
LINE
8
BLACK
6
CONTINUOUS
10
7.32783
20
-6.92413
11
7.31783
21
-6.93413
0
LINE
8
BLACK
6
CONTINUOUS
10
7.31783
20
-8.39264
11
7.32783
21
-8.40264
0
LINE
8
BLACK
6
CONTINUOUS
10
7.32783
20
-8.39264
11
7.31783
21
-8.40264
0
LINE
8
BLACK
6
CONTINUOUS
10
7.31854
20
-8.76295
11
7.32854
21
-8.77295
0
LINE
8
BLACK
6
CONTINUOUS
10
7.32854
20
-8.76295
11
7.31854
21
-8.77295
0
LINE
8
BLACK
6
CONTINUOUS
10
7.34146
20
-8.86114
11
7.35146
21
-8.87114
0
LINE
8
BLACK
6
CONTINUOUS
10
7.35146
20
-8.86114
11
7.34146
21
-8.87114
0
LINE
8
BLACK
6
CONTINUOUS
10
7.37689
20
-5.95957
11
7.38689
21
-5.96957
0
LINE
8
BLACK
6
CONTINUOUS
10
7.38689
20
-5.95957
11
7.37689
21
-5.96957
0
LINE
8
BLACK
6
CONTINUOUS
10
7.37689
20
-6.15642
11
7.38689
21
-6.16642
0
LINE
8
BLACK
6
CONTINUOUS
10
7.38689
20
-6.15642
11
7.37689
21
-6.16642
0
LINE
8
BLACK
6
CONTINUOUS
10
7.37689
20
-6.35327
11
7.38689
21
-6.36327
0
LINE
8
BLACK
6
CONTINUOUS
10
7.38689
20
-6.35327
11
7.37689
21
-6.36327
0
LINE
8
BLACK
6
CONTINUOUS
10
7.37689
20
-6.55012
11
7.38689
21
-6.56012
0
LINE
8
BLACK
6
CONTINUOUS
10
7.38689
20
-6.55012
11
7.37689
21
-6.56012
0
LINE
8
BLACK
6
CONTINUOUS
10
7.37689
20
-8.65248
11
7.38689
21
-8.66248
0
LINE
8
BLACK
6
CONTINUOUS
10
7.38689
20
-8.65248
11
7.37689
21
-8.66248
0
LINE
8
BLACK
6
CONTINUOUS
10
7.39264
20
-8.76272
11
7.40264
21
-8.77272
0
LINE
8
BLACK
6
CONTINUOUS
10
7.40264
20
-8.76272
11
7.39264
21
-8.77272
0
LINE
8
BLACK
6
CONTINUOUS
10
7.42413
20
-8.54701
11
7.43413
21
-8.55701
0
LINE
8
BLACK
6
CONTINUOUS
10
7.43413
20
-8.54701
11
7.42413
21
-8.55701
0
LINE
8
BLACK
6
CONTINUOUS
10
7.42413
20
-8.57685
11
7.43413
21
-8.58685
0
LINE
8
BLACK
6
CONTINUOUS
10
7.43413
20
-8.57685
11
7.42413
21
-8.58685
0
LINE
8
BLACK
6
CONTINUOUS
10
7.43201
20
-8.62098
11
7.44201
21
-8.63098
0
LINE
8
BLACK
6
CONTINUOUS
10
7.44201
20
-8.62098
11
7.43201
21
-8.63098
0
LINE
8
BLACK
6
CONTINUOUS
10
7.47925
20
-8.90051
11
7.48925
21
-8.91051
0
LINE
8
BLACK
6
CONTINUOUS
10
7.48925
20
-8.90051
11
7.47925
21
-8.91051
0
LINE
8
BLACK
6
CONTINUOUS
10
7.48319
20
-8.49106
11
7.49319
21
-8.50106
0
LINE
8
BLACK
6
CONTINUOUS
10
7.49319
20
-8.49106
11
7.48319
21
-8.50106
0
LINE
8
BLACK
6
CONTINUOUS
10
7.50681
20
-8.46744
11
7.51681
21
-8.47744
0
LINE
8
BLACK
6
CONTINUOUS
10
7.51681
20
-8.46744
11
7.50681
21
-8.47744
0
LINE
8
BLACK
6
CONTINUOUS
10
7.51862
20
-8.23122
11
7.52862
21
-8.24122
0
LINE
8
BLACK
6
CONTINUOUS
10
7.52862
20
-8.23122
11
7.51862
21
-8.24122
0
LINE
8
BLACK
6
CONTINUOUS
10
7.55799
20
-7.87689
11
7.56799
21
-7.88689
0
LINE
8
BLACK
6
CONTINUOUS
10
7.56799
20
-7.87689
11
7.55799
21
-7.88689
0
LINE
8
BLACK
6
CONTINUOUS
10
7.5698
20
-8.4202
11
7.5798
21
-8.4302
0
LINE
8
BLACK
6
CONTINUOUS
10
7.5798
20
-8.4202
11
7.5698
21
-8.4302
0
LINE
8
BLACK
6
CONTINUOUS
10
7.57768
20
-8.7824
11
7.58768
21
-8.7924
0
LINE
8
BLACK
6
CONTINUOUS
10
7.58768
20
-8.7824
11
7.57768
21
-8.7924
0
LINE
8
BLACK
6
CONTINUOUS
10
7.63673
20
-8.34146
11
7.64673
21
-8.35146
0
LINE
8
BLACK
6
CONTINUOUS
10
7.64673
20
-8.34146
11
7.63673
21
-8.35146
0
LINE
8
BLACK
6
CONTINUOUS
10
7.63673
20
-8.90051
11
7.64673
21
-8.91051
0
LINE
8
BLACK
6
CONTINUOUS
10
7.64673
20
-8.90051
11
7.63673
21
-8.91051
0
LINE
8
BLACK
6
CONTINUOUS
10
7.65642
20
-8.07374
11
7.66642
21
-8.08374
0
LINE
8
BLACK
6
CONTINUOUS
10
7.66642
20
-8.07374
11
7.65642
21
-8.08374
0
LINE
8
BLACK
6
CONTINUOUS
10
7.65642
20
-8.50681
11
7.66642
21
-8.51681
0
LINE
8
BLACK
6
CONTINUOUS
10
7.66642
20
-8.50681
11
7.65642
21
-8.51681
0
LINE
8
BLACK
6
CONTINUOUS
10
7.69579
20
-7.87689
11
7.70579
21
-7.88689
0
LINE
8
BLACK
6
CONTINUOUS
10
7.70579
20
-7.87689
11
7.69579
21
-7.88689
0
LINE
8
BLACK
6
CONTINUOUS
10
7.73909
20
-8.23516
11
7.74909
21
-8.24516
0
LINE
8
BLACK
6
CONTINUOUS
10
7.74909
20
-8.23516
11
7.73909
21
-8.24516
0
LINE
8
BLACK
6
CONTINUOUS
10
7.77453
20
-6.4202
11
7.78453
21
-6.4302
0
LINE
8
BLACK
6
CONTINUOUS
10
7.78453
20
-6.4202
11
7.77453
21
-6.4302
0
LINE
8
BLACK
6
CONTINUOUS
10
7.77453
20
-6.57768
11
7.78453
21
-6.58768
0
LINE
8
BLACK
6
CONTINUOUS
10
7.78453
20
-6.57768
11
7.77453
21
-6.58768
0
LINE
8
BLACK
6
CONTINUOUS
10
7.77453
20
-6.73516
11
7.78453
21
-6.74516
0
LINE
8
BLACK
6
CONTINUOUS
10
7.78453
20
-6.73516
11
7.77453
21
-6.74516
0
LINE
8
BLACK
6
CONTINUOUS
10
7.77453
20
-6.89264
11
7.78453
21
-6.90264
0
LINE
8
BLACK
6
CONTINUOUS
10
7.78453
20
-6.89264
11
7.77453
21
-6.90264
0
LINE
8
BLACK
6
CONTINUOUS
10
7.77453
20
-7.05012
11
7.78453
21
-7.06012
0
LINE
8
BLACK
6
CONTINUOUS
10
7.78453
20
-7.05012
11
7.77453
21
-7.06012
0
LINE
8
BLACK
6
CONTINUOUS
10
7.77453
20
-7.2076
11
7.78453
21
-7.2176
0
LINE
8
BLACK
6
CONTINUOUS
10
7.78453
20
-7.2076
11
7.77453
21
-7.2176
0
LINE
8
BLACK
6
CONTINUOUS
10
7.77453
20
-7.36508
11
7.78453
21
-7.37508
0
LINE
8
BLACK
6
CONTINUOUS
10
7.78453
20
-7.36508
11
7.77453
21
-7.37508
0
LINE
8
BLACK
6
CONTINUOUS
10
7.77453
20
-7.52256
11
7.78453
21
-7.53256
0
LINE
8
BLACK
6
CONTINUOUS
10
7.78453
20
-7.52256
11
7.77453
21
-7.53256
0
LINE
8
BLACK
6
CONTINUOUS
10
7.77453
20
-7.68004
11
7.78453
21
-7.69004
0
LINE
8
BLACK
6
CONTINUOUS
10
7.78453
20
-7.68004
11
7.77453
21
-7.69004
0
LINE
8
BLACK
6
CONTINUOUS
10
7.77453
20
-7.83752
11
7.78453
21
-7.84752
0
LINE
8
BLACK
6
CONTINUOUS
10
7.78453
20
-7.83752
11
7.77453
21
-7.84752
0
LINE
8
BLACK
6
CONTINUOUS
10
7.79421
20
-5.94776
11
7.80421
21
-5.95776
0
LINE
8
BLACK
6
CONTINUOUS
10
7.80421
20
-5.94776
11
7.79421
21
-5.95776
0
LINE
8
BLACK
6
CONTINUOUS
10
7.79421
20
-6.10524
11
7.80421
21
-6.11524
0
LINE
8
BLACK
6
CONTINUOUS
10
7.80421
20
-6.10524
11
7.79421
21
-6.11524
0
LINE
8
BLACK
6
CONTINUOUS
10
7.79421
20
-6.26272
11
7.80421
21
-6.27272
0
LINE
8
BLACK
6
CONTINUOUS
10
7.80421
20
-6.26272
11
7.79421
21
-6.27272
0
LINE
8
BLACK
6
CONTINUOUS
10
7.79421
20
-8.90051
11
7.80421
21
-8.91051
0
LINE
8
BLACK
6
CONTINUOUS
10
7.80421
20
-8.90051
11
7.79421
21
-8.91051
0
LINE
8
BLACK
6
CONTINUOUS
10
7.80996
20
-8.15248
11
7.81996
21
-8.16248
0
LINE
8
BLACK
6
CONTINUOUS
10
7.81996
20
-8.15248
11
7.80996
21
-8.16248
0
LINE
8
BLACK
6
CONTINUOUS
10
7.8139
20
-8.34933
11
7.8239
21
-8.35933
0
LINE
8
BLACK
6
CONTINUOUS
10
7.8239
20
-8.34933
11
7.8139
21
-8.35933
0
LINE
8
BLACK
6
CONTINUOUS
10
7.8139
20
-8.58555
11
7.8239
21
-8.59555
0
LINE
8
BLACK
6
CONTINUOUS
10
7.8239
20
-8.58555
11
7.8139
21
-8.59555
0
LINE
8
BLACK
6
CONTINUOUS
10
7.87295
20
-8.76272
11
7.88295
21
-8.77272
0
LINE
8
BLACK
6
CONTINUOUS
10
7.88295
20
-8.76272
11
7.87295
21
-8.77272
0
LINE
8
BLACK
6
CONTINUOUS
10
7.91232
20
-5.94776
11
7.92232
21
-5.95776
0
LINE
8
BLACK
6
CONTINUOUS
10
7.92232
20
-5.94776
11
7.91232
21
-5.95776
0
LINE
8
BLACK
6
CONTINUOUS
10
7.91232
20
-6.06587
11
7.92232
21
-6.07587
0
LINE
8
BLACK
6
CONTINUOUS
10
7.92232
20
-6.06587
11
7.91232
21
-6.07587
0
LINE
8
BLACK
6
CONTINUOUS
10
7.9202
20
-6.7076
11
7.9302
21
-6.7176
0
LINE
8
BLACK
6
CONTINUOUS
10
7.9302
20
-6.7076
11
7.9202
21
-6.7176
0
LINE
8
BLACK
6
CONTINUOUS
10
7.9202
20
-6.80209
11
7.9302
21
-6.81209
0
LINE
8
BLACK
6
CONTINUOUS
10
7.9302
20
-6.80209
11
7.9202
21
-6.81209
0
LINE
8
BLACK
6
CONTINUOUS
10
7.9202
20
-7.40051
11
7.9302
21
-7.41051
0
LINE
8
BLACK
6
CONTINUOUS
10
7.9302
20
-7.40051
11
7.9202
21
-7.41051
0
LINE
8
BLACK
6
CONTINUOUS
10
7.9202
20
-7.53043
11
7.9302
21
-7.54043
0
LINE
8
BLACK
6
CONTINUOUS
10
7.9302
20
-7.53043
11
7.9202
21
-7.54043
0
LINE
8
BLACK
6
CONTINUOUS
10
7.9202
20
-7.9202
11
7.9302
21
-7.9302
0
LINE
8
BLACK
6
CONTINUOUS
10
7.9302
20
-7.9202
11
7.9202
21
-7.9302
0
LINE
8
BLACK
6
CONTINUOUS
10
7.9202
20
-7.995
11
7.9302
21
-8.005
0
LINE
8
BLACK
6
CONTINUOUS
10
7.9302
20
-7.995
11
7.9202
21
-8.005
0
LINE
8
BLACK
6
CONTINUOUS
10
7.93201
20
-6.44776
11
7.94201
21
-6.45776
0
LINE
8
BLACK
6
CONTINUOUS
10
7.94201
20
-6.44776
11
7.93201
21
-6.45776
0
LINE
8
BLACK
6
CONTINUOUS
10
7.95169
20
-6.27846
11
7.96169
21
-6.28846
0
LINE
8
BLACK
6
CONTINUOUS
10
7.96169
20
-6.27846
11
7.95169
21
-6.28846
0
LINE
8
BLACK
6
CONTINUOUS
10
7.95169
20
-8.90051
11
7.96169
21
-8.91051
0
LINE
8
BLACK
6
CONTINUOUS
10
7.96169
20
-8.90051
11
7.95169
21
-8.91051
0
LINE
8
BLACK
6
CONTINUOUS
10
7.97138
20
-7.87689
11
7.98138
21
-7.88689
0
LINE
8
BLACK
6
CONTINUOUS
10
7.98138
20
-7.87689
11
7.97138
21
-7.88689
0
LINE
8
BLACK
6
CONTINUOUS
10
7.97138
20
-8.42807
11
7.98138
21
-8.43807
0
LINE
8
BLACK
6
CONTINUOUS
10
7.98138
20
-8.42807
11
7.97138
21
-8.43807
0
LINE
8
BLACK
6
CONTINUOUS
10
7.99106
20
-7.30602
11
8.00106
21
-7.31602
0
LINE
8
BLACK
6
CONTINUOUS
10
8.00106
20
-7.30602
11
7.99106
21
-7.31602
0
LINE
8
BLACK
6
CONTINUOUS
10
8.01075
20
-6.65642
11
8.02075
21
-6.66642
0
LINE
8
BLACK
6
CONTINUOUS
10
8.02075
20
-6.65642
11
8.01075
21
-6.66642
0
LINE
8
BLACK
6
CONTINUOUS
10
8.0698
20
-5.94776
11
8.0798
21
-5.95776
0
LINE
8
BLACK
6
CONTINUOUS
10
8.0798
20
-5.94776
11
8.0698
21
-5.95776
0
LINE
8
BLACK
6
CONTINUOUS
10
8.0698
20
-8.17217
11
8.0798
21
-8.18217
0
LINE
8
BLACK
6
CONTINUOUS
10
8.0798
20
-8.17217
11
8.0698
21
-8.18217
0
LINE
8
BLACK
6
CONTINUOUS
10
8.0698
20
-8.64461
11
8.0798
21
-8.65461
0
LINE
8
BLACK
6
CONTINUOUS
10
8.0798
20
-8.64461
11
8.0698
21
-8.65461
0
LINE
8
BLACK
6
CONTINUOUS
10
8.08949
20
-6.45957
11
8.09949
21
-6.46957
0
LINE
8
BLACK
6
CONTINUOUS
10
8.09949
20
-6.45957
11
8.08949
21
-6.46957
0
LINE
8
BLACK
6
CONTINUOUS
10
8.08949
20
-7.66035
11
8.09949
21
-7.67035
0
LINE
8
BLACK
6
CONTINUOUS
10
8.09949
20
-7.66035
11
8.08949
21
-7.67035
0
LINE
8
BLACK
6
CONTINUOUS
10
8.10524
20
-6.12492
11
8.11524
21
-6.13492
0
LINE
8
BLACK
6
CONTINUOUS
10
8.11524
20
-6.12492
11
8.10524
21
-6.13492
0
LINE
8
BLACK
6
CONTINUOUS
10
8.10917
20
-6.27059
11
8.11917
21
-6.28059
0
LINE
8
BLACK
6
CONTINUOUS
10
8.11917
20
-6.27059
11
8.10917
21
-6.28059
0
LINE
8
BLACK
6
CONTINUOUS
10
8.10917
20
-8.90051
11
8.11917
21
-8.91051
0
LINE
8
BLACK
6
CONTINUOUS
10
8.11917
20
-8.90051
11
8.10917
21
-8.91051
0
LINE
8
BLACK
6
CONTINUOUS
10
8.22728
20
-5.94776
11
8.23728
21
-5.95776
0
LINE
8
BLACK
6
CONTINUOUS
10
8.23728
20
-5.94776
11
8.22728
21
-5.95776
0
LINE
8
BLACK
6
CONTINUOUS
10
8.22728
20
-6.2824
11
8.23728
21
-6.2924
0
LINE
8
BLACK
6
CONTINUOUS
10
8.23728
20
-6.2824
11
8.22728
21
-6.2924
0
LINE
8
BLACK
6
CONTINUOUS
10
8.22728
20
-6.4202
11
8.23728
21
-6.4302
0
LINE
8
BLACK
6
CONTINUOUS
10
8.23728
20
-6.4202
11
8.22728
21
-6.4302
0
LINE
8
BLACK
6
CONTINUOUS
10
8.22728
20
-6.57768
11
8.23728
21
-6.58768
0
LINE
8
BLACK
6
CONTINUOUS
10
8.23728
20
-6.57768
11
8.22728
21
-6.58768
0
LINE
8
BLACK
6
CONTINUOUS
10
8.22728
20
-6.73516
11
8.23728
21
-6.74516
0
LINE
8
BLACK
6
CONTINUOUS
10
8.23728
20
-6.73516
11
8.22728
21
-6.74516
0
LINE
8
BLACK
6
CONTINUOUS
10
8.22728
20
-6.89264
11
8.23728
21
-6.90264
0
LINE
8
BLACK
6
CONTINUOUS
10
8.23728
20
-6.89264
11
8.22728
21
-6.90264
0
LINE
8
BLACK
6
CONTINUOUS
10
8.22728
20
-7.16823
11
8.23728
21
-7.17823
0
LINE
8
BLACK
6
CONTINUOUS
10
8.23728
20
-7.16823
11
8.22728
21
-7.17823
0
LINE
8
BLACK
6
CONTINUOUS
10
8.22728
20
-7.32571
11
8.23728
21
-7.33571
0
LINE
8
BLACK
6
CONTINUOUS
10
8.23728
20
-7.32571
11
8.22728
21
-7.33571
0
LINE
8
BLACK
6
CONTINUOUS
10
8.22728
20
-7.48319
11
8.23728
21
-7.49319
0
LINE
8
BLACK
6
CONTINUOUS
10
8.23728
20
-7.48319
11
8.22728
21
-7.49319
0
LINE
8
BLACK
6
CONTINUOUS
10
8.22728
20
-7.64067
11
8.23728
21
-7.65067
0
LINE
8
BLACK
6
CONTINUOUS
10
8.23728
20
-7.64067
11
8.22728
21
-7.65067
0
LINE
8
BLACK
6
CONTINUOUS
10
8.22728
20
-7.79815
11
8.23728
21
-7.80815
0
LINE
8
BLACK
6
CONTINUOUS
10
8.23728
20
-7.79815
11
8.22728
21
-7.80815
0
LINE
8
BLACK
6
CONTINUOUS
10
8.22728
20
-7.95563
11
8.23728
21
-7.96563
0
LINE
8
BLACK
6
CONTINUOUS
10
8.23728
20
-7.95563
11
8.22728
21
-7.96563
0
LINE
8
BLACK
6
CONTINUOUS
10
8.22728
20
-8.11311
11
8.23728
21
-8.12311
0
LINE
8
BLACK
6
CONTINUOUS
10
8.23728
20
-8.11311
11
8.22728
21
-8.12311
0
LINE
8
BLACK
6
CONTINUOUS
10
8.22728
20
-8.27059
11
8.23728
21
-8.28059
0
LINE
8
BLACK
6
CONTINUOUS
10
8.23728
20
-8.27059
11
8.22728
21
-8.28059
0
LINE
8
BLACK
6
CONTINUOUS
10
8.23909
20
-6.02256
11
8.24909
21
-6.03256
0
LINE
8
BLACK
6
CONTINUOUS
10
8.24909
20
-6.02256
11
8.23909
21
-6.03256
0
LINE
8
BLACK
6
CONTINUOUS
10
8.24697
20
-6.12886
11
8.25697
21
-6.13886
0
LINE
8
BLACK
6
CONTINUOUS
10
8.25697
20
-6.12886
11
8.24697
21
-6.13886
0
LINE
8
BLACK
6
CONTINUOUS
10
8.25878
20
-5.98713
11
8.26878
21
-5.99713
0
LINE
8
BLACK
6
CONTINUOUS
10
8.26878
20
-5.98713
11
8.25878
21
-5.99713
0
LINE
8
BLACK
6
CONTINUOUS
10
8.26665
20
-8.42807
11
8.27665
21
-8.43807
0
LINE
8
BLACK
6
CONTINUOUS
10
8.27665
20
-8.42807
11
8.26665
21
-8.43807
0
LINE
8
BLACK
6
CONTINUOUS
10
8.26665
20
-8.58555
11
8.27665
21
-8.59555
0
LINE
8
BLACK
6
CONTINUOUS
10
8.27665
20
-8.58555
11
8.26665
21
-8.59555
0
LINE
8
BLACK
6
CONTINUOUS
10
8.26665
20
-8.74303
11
8.27665
21
-8.75303
0
LINE
8
BLACK
6
CONTINUOUS
10
8.27665
20
-8.74303
11
8.26665
21
-8.75303
0
LINE
8
BLACK
6
CONTINUOUS
10
8.26665
20
-8.90051
11
8.27665
21
-8.91051
0
LINE
8
BLACK
6
CONTINUOUS
10
8.27665
20
-8.90051
11
8.26665
21
-8.91051
0
LINE
8
BLACK
6
CONTINUOUS
10
8.27846
20
-6.11705
11
8.28846
21
-6.12705
0
LINE
8
BLACK
6
CONTINUOUS
10
8.28846
20
-6.11705
11
8.27846
21
-6.12705
0
LINE
8
BLACK
6
CONTINUOUS
10
8.27913
20
-6.02929
11
8.28913
21
-6.03929
0
LINE
8
BLACK
6
CONTINUOUS
10
8.28913
20
-6.02929
11
8.27913
21
-6.03929
0
LINE
8
BLACK
6
CONTINUOUS
10
8.27913
20
-6.05913
11
8.28913
21
-6.06913
0
LINE
8
BLACK
6
CONTINUOUS
10
8.28913
20
-6.05913
11
8.27913
21
-6.06913
0
LINE
8
BLACK
6
CONTINUOUS
10
8.29421
20
-5.98713
11
8.30421
21
-5.99713
0
LINE
8
BLACK
6
CONTINUOUS
10
8.30421
20
-5.98713
11
8.29421
21
-5.99713
0
LINE
8
BLACK
6
CONTINUOUS
10
8.30602
20
-6.18398
11
8.31602
21
-6.19398
0
LINE
8
BLACK
6
CONTINUOUS
10
8.31602
20
-6.18398
11
8.30602
21
-6.19398
0
LINE
8
BLACK
6
CONTINUOUS
10
8.32965
20
-6.11705
11
8.33965
21
-6.12705
0
LINE
8
BLACK
6
CONTINUOUS
10
8.33965
20
-6.11705
11
8.32965
21
-6.12705
0
LINE
8
BLACK
6
CONTINUOUS
10
8.37689
20
-5.95169
11
8.38689
21
-5.96169
0
LINE
8
BLACK
6
CONTINUOUS
10
8.38689
20
-5.95169
11
8.37689
21
-5.96169
0
LINE
8
BLACK
6
CONTINUOUS
10
8.37689
20
-6.15248
11
8.38689
21
-6.16248
0
LINE
8
BLACK
6
CONTINUOUS
10
8.38689
20
-6.15248
11
8.37689
21
-6.16248
0
LINE
8
BLACK
6
CONTINUOUS
10
8.48516
20
-7.1013
11
8.49516
21
-7.1113
0
LINE
8
BLACK
6
CONTINUOUS
10
8.49516
20
-7.1013
11
8.48516
21
-7.1113
0
LINE
8
BLACK
6
CONTINUOUS
10
8.495
20
-7.30799
11
8.505
21
-7.31799
0
LINE
8
BLACK
6
CONTINUOUS
10
8.505
20
-7.30799
11
8.495
21
-7.31799
0
LINE
8
BLACK
6
CONTINUOUS
10
8.495
20
-7.50484
11
8.505
21
-7.51484
0
LINE
8
BLACK
6
CONTINUOUS
10
8.505
20
-7.50484
11
8.495
21
-7.51484
0
LINE
8
BLACK
6
CONTINUOUS
10
8.495
20
-7.70169
11
8.505
21
-7.71169
0
LINE
8
BLACK
6
CONTINUOUS
10
8.505
20
-7.70169
11
8.495
21
-7.71169
0
LINE
8
BLACK
6
CONTINUOUS
10
8.50484
20
-7.93791
11
8.51484
21
-7.94791
0
LINE
8
BLACK
6
CONTINUOUS
10
8.51484
20
-7.93791
11
8.50484
21
-7.94791
0
LINE
8
BLACK
6
CONTINUOUS
10
8.53459
20
-8.0436
11
8.54459
21
-8.0536
0
LINE
8
BLACK
6
CONTINUOUS
10
8.54459
20
-8.0436
11
8.53459
21
-8.0536
0
LINE
8
BLACK
6
CONTINUOUS
10
8.53709
20
-7.8261
11
8.54709
21
-7.8361
0
LINE
8
BLACK
6
CONTINUOUS
10
8.54709
20
-7.8261
11
8.53709
21
-7.8361
0
LINE
8
BLACK
6
CONTINUOUS
10
8.5639
20
-7.18988
11
8.5739
21
-7.19988
0
LINE
8
BLACK
6
CONTINUOUS
10
8.5739
20
-7.18988
11
8.5639
21
-7.19988
0
LINE
8
BLACK
6
CONTINUOUS
10
8.61311
20
-8.09539
11
8.62311
21
-8.10539
0
LINE
8
BLACK
6
CONTINUOUS
10
8.62311
20
-8.09539
11
8.61311
21
-8.10539
0
LINE
8
BLACK
6
CONTINUOUS
10
8.61959
20
-7.8261
11
8.62959
21
-7.8361
0
LINE
8
BLACK
6
CONTINUOUS
10
8.62959
20
-7.8261
11
8.61959
21
-7.8361
0
LINE
8
BLACK
6
CONTINUOUS
10
8.64854
20
-7.75006
11
8.65854
21
-7.76006
0
LINE
8
BLACK
6
CONTINUOUS
10
8.65854
20
-7.75006
11
8.64854
21
-7.76006
0
LINE
8
BLACK
6
CONTINUOUS
10
8.65248
20
-7.18004
11
8.66248
21
-7.19004
0
LINE
8
BLACK
6
CONTINUOUS
10
8.66248
20
-7.18004
11
8.65248
21
-7.19004
0
LINE
8
BLACK
6
CONTINUOUS
10
8.65248
20
-7.40642
11
8.66248
21
-7.41642
0
LINE
8
BLACK
6
CONTINUOUS
10
8.66248
20
-7.40642
11
8.65248
21
-7.41642
0
LINE
8
BLACK
6
CONTINUOUS
10
8.65248
20
-7.68201
11
8.66248
21
-7.69201
0
LINE
8
BLACK
6
CONTINUOUS
10
8.66248
20
-7.68201
11
8.65248
21
-7.69201
0
LINE
8
BLACK
6
CONTINUOUS
10
8.67967
20
-7.7086
11
8.68967
21
-7.7186
0
LINE
8
BLACK
6
CONTINUOUS
10
8.68967
20
-7.7086
11
8.67967
21
-7.7186
0
LINE
8
BLACK
6
CONTINUOUS
10
8.68201
20
-7.1013
11
8.69201
21
-7.1113
0
LINE
8
BLACK
6
CONTINUOUS
10
8.69201
20
-7.1013
11
8.68201
21
-7.1113
0
LINE
8
BLACK
6
CONTINUOUS
10
8.69972
20
-7.5698
11
8.70972
21
-7.5798
0
LINE
8
BLACK
6
CONTINUOUS
10
8.70972
20
-7.5698
11
8.69972
21
-7.5798
0
LINE
8
BLACK
6
CONTINUOUS
10
8.70951
20
-7.7086
11
8.71951
21
-7.7186
0
LINE
8
BLACK
6
CONTINUOUS
10
8.71951
20
-7.7086
11
8.70951
21
-7.7186
0
LINE
8
BLACK
6
CONTINUOUS
10
8.74106
20
-7.68201
11
8.75106
21
-7.69201
0
LINE
8
BLACK
6
CONTINUOUS
10
8.75106
20
-7.68201
11
8.74106
21
-7.69201
0
LINE
8
BLACK
6
CONTINUOUS
10
8.75459
20
-7.7286
11
8.76459
21
-7.7386
0
LINE
8
BLACK
6
CONTINUOUS
10
8.76459
20
-7.7286
11
8.75459
21
-7.7386
0
LINE
8
BLACK
6
CONTINUOUS
10
8.76459
20
-7.2786
11
8.77459
21
-7.2886
0
LINE
8
BLACK
6
CONTINUOUS
10
8.77459
20
-7.2786
11
8.76459
21
-7.2886
0
LINE
8
BLACK
6
CONTINUOUS
10
8.76709
20
-7.3236
11
8.77709
21
-7.3336
0
LINE
8
BLACK
6
CONTINUOUS
10
8.77709
20
-7.3236
11
8.76709
21
-7.3336
0
LINE
8
BLACK
6
CONTINUOUS
10
8.77059
20
-7.48713
11
8.78059
21
-7.49713
0
LINE
8
BLACK
6
CONTINUOUS
10
8.78059
20
-7.48713
11
8.77059
21
-7.49713
0
LINE
8
BLACK
6
CONTINUOUS
10
8.77709
20
-7.3611
11
8.78709
21
-7.3711
0
LINE
8
BLACK
6
CONTINUOUS
10
8.78709
20
-7.3611
11
8.77709
21
-7.3711
0
LINE
8
BLACK
6
CONTINUOUS
10
8.78959
20
-7.7511
11
8.79959
21
-7.7611
0
LINE
8
BLACK
6
CONTINUOUS
10
8.79959
20
-7.7511
11
8.78959
21
-7.7611
0
LINE
8
BLACK
6
CONTINUOUS
10
8.79028
20
-8.09539
11
8.80028
21
-8.10539
0
LINE
8
BLACK
6
CONTINUOUS
10
8.80028
20
-8.09539
11
8.79028
21
-8.10539
0
LINE
8
BLACK
6
CONTINUOUS
10
8.80709
20
-7.8261
11
8.81709
21
-7.8361
0
LINE
8
BLACK
6
CONTINUOUS
10
8.81709
20
-7.8261
11
8.80709
21
-7.8361
0
LINE
8
BLACK
6
CONTINUOUS
10
8.80996
20
-7.61311
11
8.81996
21
-7.62311
0
LINE
8
BLACK
6
CONTINUOUS
10
8.81996
20
-7.61311
11
8.80996
21
-7.62311
0
LINE
8
BLACK
6
CONTINUOUS
10
8.8198
20
-7.40642
11
8.8298
21
-7.41642
0
LINE
8
BLACK
6
CONTINUOUS
10
8.8298
20
-7.40642
11
8.8198
21
-7.41642
0
LINE
8
BLACK
6
CONTINUOUS
10
8.839
20
-7.3811
11
8.849
21
-7.3911
0
LINE
8
BLACK
6
CONTINUOUS
10
8.849
20
-7.3811
11
8.839
21
-7.3911
0
LINE
8
BLACK
6
CONTINUOUS
10
8.86884
20
-7.3811
11
8.87884
21
-7.3911
0
LINE
8
BLACK
6
CONTINUOUS
10
8.87884
20
-7.3811
11
8.86884
21
-7.3911
0
LINE
8
BLACK
6
CONTINUOUS
10
8.87886
20
-7.1013
11
8.88886
21
-7.1113
0
LINE
8
BLACK
6
CONTINUOUS
10
8.88886
20
-7.1013
11
8.87886
21
-7.1113
0
LINE
8
BLACK
6
CONTINUOUS
10
8.88459
20
-7.8261
11
8.89459
21
-7.8361
0
LINE
8
BLACK
6
CONTINUOUS
10
8.89459
20
-7.8261
11
8.88459
21
-7.8361
0
LINE
8
BLACK
6
CONTINUOUS
10
8.88459
20
-8.0411
11
8.89459
21
-8.0511
0
LINE
8
BLACK
6
CONTINUOUS
10
8.89459
20
-8.0411
11
8.88459
21
-8.0511
0
LINE
8
BLACK
6
CONTINUOUS
10
8.8887
20
-7.41626
11
8.8987
21
-7.42626
0
LINE
8
BLACK
6
CONTINUOUS
10
8.8987
20
-7.41626
11
8.8887
21
-7.42626
0
LINE
8
BLACK
6
CONTINUOUS
10
8.8887
20
-7.5311
11
8.8987
21
-7.5411
0
LINE
8
BLACK
6
CONTINUOUS
10
8.8987
20
-7.5311
11
8.8887
21
-7.5411
0
LINE
8
BLACK
6
CONTINUOUS
10
8.90959
20
-7.3761
11
8.91959
21
-7.3861
0
LINE
8
BLACK
6
CONTINUOUS
10
8.91959
20
-7.3761
11
8.90959
21
-7.3861
0
LINE
8
BLACK
6
CONTINUOUS
10
8.96709
20
-7.2786
11
8.97709
21
-7.2886
0
LINE
8
BLACK
6
CONTINUOUS
10
8.97709
20
-7.2786
11
8.96709
21
-7.2886
0
LINE
8
BLACK
6
CONTINUOUS
10
8.99697
20
-7.69185
11
9.00697
21
-7.70185
0
LINE
8
BLACK
6
CONTINUOUS
10
9.00697
20
-7.69185
11
8.99697
21
-7.70185
0
LINE
8
BLACK
6
CONTINUOUS
10
9.0265
20
-7.51469
11
9.0365
21
-7.52469
0
LINE
8
BLACK
6
CONTINUOUS
10
9.0365
20
-7.51469
11
9.0265
21
-7.52469
0
LINE
8
BLACK
6
CONTINUOUS
10
9.05602
20
-8.09539
11
9.06602
21
-8.10539
0
LINE
8
BLACK
6
CONTINUOUS
10
9.06602
20
-8.09539
11
9.05602
21
-8.10539
0
LINE
8
BLACK
6
CONTINUOUS
10
9.07571
20
-7.1013
11
9.08571
21
-7.1113
0
LINE
8
BLACK
6
CONTINUOUS
10
9.08571
20
-7.1013
11
9.07571
21
-7.1113
0
LINE
8
BLACK
6
CONTINUOUS
10
9.16429
20
-7.85917
11
9.17429
21
-7.86917
0
LINE
8
BLACK
6
CONTINUOUS
10
9.17429
20
-7.85917
11
9.16429
21
-7.86917
0
LINE
8
BLACK
6
CONTINUOUS
10
9.2135
20
-7.1013
11
9.2235
21
-7.1113
0
LINE
8
BLACK
6
CONTINUOUS
10
9.2235
20
-7.1013
11
9.2135
21
-7.1113
0
LINE
8
BLACK
6
CONTINUOUS
10
9.25287
20
-8.09539
11
9.26287
21
-8.10539
0
LINE
8
BLACK
6
CONTINUOUS
10
9.26287
20
-8.09539
11
9.25287
21
-8.10539
0
LINE
8
BLACK
6
CONTINUOUS
10
9.2824
20
-7.30799
11
9.2924
21
-7.31799
0
LINE
8
BLACK
6
CONTINUOUS
10
9.2924
20
-7.30799
11
9.2824
21
-7.31799
0
LINE
8
BLACK
6
CONTINUOUS
10
9.2824
20
-7.48516
11
9.2924
21
-7.49516
0
LINE
8
BLACK
6
CONTINUOUS
10
9.2924
20
-7.48516
11
9.2824
21
-7.49516
0
LINE
8
BLACK
6
CONTINUOUS
10
9.2824
20
-7.65248
11
9.2924
21
-7.66248
0
LINE
8
BLACK
6
CONTINUOUS
10
9.2924
20
-7.65248
11
9.2824
21
-7.66248
0
LINE
8
BLACK
6
CONTINUOUS
10
9.47925
20
-7.16035
11
9.48925
21
-7.17035
0
LINE
8
BLACK
6
CONTINUOUS
10
9.48925
20
-7.16035
11
9.47925
21
-7.17035
0
LINE
8
BLACK
6
CONTINUOUS
10
9.47925
20
-7.3572
11
9.48925
21
-7.3672
0
LINE
8
BLACK
6
CONTINUOUS
10
9.48925
20
-7.3572
11
9.47925
21
-7.3672
0
LINE
8
BLACK
6
CONTINUOUS
10
9.47925
20
-7.55406
11
9.48925
21
-7.56406
0
LINE
8
BLACK
6
CONTINUOUS
10
9.48925
20
-7.55406
11
9.47925
21
-7.56406
0
LINE
8
BLACK
6
CONTINUOUS
10
9.47925
20
-7.75091
11
9.48925
21
-7.76091
0
LINE
8
BLACK
6
CONTINUOUS
10
9.48925
20
-7.75091
11
9.47925
21
-7.76091
0
CIRCLE
8
BLACK
10
6.4685
20
-8.80709
40
0.0065
0
CIRCLE
8
BLACK
10
6.4685
20
-8.87402
40
0.0065
0
CIRCLE
8
BLACK
10
6.51181
20
-8.83858
40
0.0065
0
CIRCLE
8
BLACK
10
6.66535
20
-6.16929
40
0.0065
0
CIRCLE
8
BLACK
10
6.66535
20
-6.20866
40
0.0065
0
CIRCLE
8
BLACK
10
7.12205
20
-8.30512
40
0.0065
0
CIRCLE
8
BLACK
10
7.12205
20
-8.34055
40
0.0065
0
CIRCLE
8
BLACK
10
7.12205
20
-8.37598
40
0.0065
0
CIRCLE
8
BLACK
10
8.3622
20
-7.50197
40
0.0065
0
CIRCLE
8
BLACK
10
8.3622
20
-7.5374
40
0.0065
0
CIRCLE
8
BLACK
10
8.3622
20
-7.57283
40
0.0065
0
LINE
8
BLACK
6
CONTINUOUS
10
6.70079
20
-8.2815
11
6.70079
21
-8.30118
0
LINE
8
BLACK
6
CONTINUOUS
10
6.69094
20
-8.29134
11
6.71063
21
-8.29134
0
LINE
8
BLACK
6
CONTINUOUS
10
6.72846
20
-8.21468
11
6.72846
21
-8.23437
0
LINE
8
BLACK
6
CONTINUOUS
10
6.71862
20
-8.22453
11
6.7383
21
-8.22453
0
LINE
8
BLACK
6
CONTINUOUS
10
6.72846
20
-8.34831
11
6.72846
21
-8.36799
0
LINE
8
BLACK
6
CONTINUOUS
10
6.71862
20
-8.35815
11
6.7383
21
-8.35815
0
LINE
8
BLACK
6
CONTINUOUS
10
6.79528
20
-8.18701
11
6.79528
21
-8.20669
0
LINE
8
BLACK
6
CONTINUOUS
10
6.78543
20
-8.19685
11
6.80512
21
-8.19685
0
LINE
8
BLACK
6
CONTINUOUS
10
6.79528
20
-8.37598
11
6.79528
21
-8.39567
0
LINE
8
BLACK
6
CONTINUOUS
10
6.78543
20
-8.38583
11
6.80512
21
-8.38583
0
LINE
8
BLACK
6
CONTINUOUS
10
6.86209
20
-8.21468
11
6.86209
21
-8.23437
0
LINE
8
BLACK
6
CONTINUOUS
10
6.85225
20
-8.22453
11
6.87193
21
-8.22453
0
LINE
8
BLACK
6
CONTINUOUS
10
6.86209
20
-8.34831
11
6.86209
21
-8.36799
0
LINE
8
BLACK
6
CONTINUOUS
10
6.85225
20
-8.35815
11
6.87193
21
-8.35815
0
LINE
8
BLACK
6
CONTINUOUS
10
6.88976
20
-8.2815
11
6.88976
21
-8.30118
0
LINE
8
BLACK
6
CONTINUOUS
10
6.87992
20
-8.29134
11
6.89961
21
-8.29134
0
LINE
8
BLACK
6
CONTINUOUS
10
7.17323
20
-5.80906
11
7.17323
21
-5.82874
0
LINE
8
BLACK
6
CONTINUOUS
10
7.16339
20
-5.8189
11
7.18307
21
-5.8189
0
LINE
8
BLACK
6
CONTINUOUS
10
7.17323
20
-6.75
11
7.17323
21
-6.76969
0
LINE
8
BLACK
6
CONTINUOUS
10
7.16339
20
-6.75984
11
7.18307
21
-6.75984
0
LINE
8
BLACK
6
CONTINUOUS
10
7.2009
20
-5.74224
11
7.2009
21
-5.76193
0
LINE
8
BLACK
6
CONTINUOUS
10
7.19106
20
-5.75208
11
7.21075
21
-5.75208
0
LINE
8
BLACK
6
CONTINUOUS
10
7.2009
20
-5.87587
11
7.2009
21
-5.89555
0
LINE
8
BLACK
6
CONTINUOUS
10
7.19106
20
-5.88571
11
7.21075
21
-5.88571
0
LINE
8
BLACK
6
CONTINUOUS
10
7.2009
20
-6.68319
11
7.2009
21
-6.70287
0
LINE
8
BLACK
6
CONTINUOUS
10
7.19106
20
-6.69303
11
7.21075
21
-6.69303
0
LINE
8
BLACK
6
CONTINUOUS
10
7.2009
20
-6.81681
11
7.2009
21
-6.8365
0
LINE
8
BLACK
6
CONTINUOUS
10
7.19106
20
-6.82666
11
7.21075
21
-6.82666
0
LINE
8
BLACK
6
CONTINUOUS
10
7.26772
20
-5.71457
11
7.26772
21
-5.73425
0
LINE
8
BLACK
6
CONTINUOUS
10
7.25787
20
-5.72441
11
7.27756
21
-5.72441
0
LINE
8
BLACK
6
CONTINUOUS
10
7.26772
20
-5.90354
11
7.26772
21
-5.92323
0
LINE
8
BLACK
6
CONTINUOUS
10
7.25787
20
-5.91339
11
7.27756
21
-5.91339
0
LINE
8
BLACK
6
CONTINUOUS
10
7.26772
20
-6.65551
11
7.26772
21
-6.6752
0
LINE
8
BLACK
6
CONTINUOUS
10
7.25787
20
-6.66535
11
7.27756
21
-6.66535
0
LINE
8
BLACK
6
CONTINUOUS
10
7.26772
20
-6.84449
11
7.26772
21
-6.86417
0
LINE
8
BLACK
6
CONTINUOUS
10
7.25787
20
-6.85433
11
7.27756
21
-6.85433
0
LINE
8
BLACK
6
CONTINUOUS
10
7.29134
20
-7.97047
11
7.29134
21
-7.99016
0
LINE
8
BLACK
6
CONTINUOUS
10
7.2815
20
-7.98031
11
7.30118
21
-7.98031
0
LINE
8
BLACK
6
CONTINUOUS
10
7.31901
20
-7.90366
11
7.31901
21
-7.92334
0
LINE
8
BLACK
6
CONTINUOUS
10
7.30917
20
-7.9135
11
7.32886
21
-7.9135
0
LINE
8
BLACK
6
CONTINUOUS
10
7.31901
20
-8.03729
11
7.31901
21
-8.05697
0
LINE
8
BLACK
6
CONTINUOUS
10
7.30917
20
-8.04713
11
7.32886
21
-8.04713
0
LINE
8
BLACK
6
CONTINUOUS
10
7.33453
20
-5.74224
11
7.33453
21
-5.76193
0
LINE
8
BLACK
6
CONTINUOUS
10
7.32469
20
-5.75208
11
7.34437
21
-5.75208
0
LINE
8
BLACK
6
CONTINUOUS
10
7.33453
20
-5.87587
11
7.33453
21
-5.89555
0
LINE
8
BLACK
6
CONTINUOUS
10
7.32469
20
-5.88571
11
7.34437
21
-5.88571
0
LINE
8
BLACK
6
CONTINUOUS
10
7.33453
20
-6.68319
11
7.33453
21
-6.70287
0
LINE
8
BLACK
6
CONTINUOUS
10
7.32469
20
-6.69303
11
7.34437
21
-6.69303
0
LINE
8
BLACK
6
CONTINUOUS
10
7.33453
20
-6.81681
11
7.33453
21
-6.8365
0
LINE
8
BLACK
6
CONTINUOUS
10
7.32469
20
-6.82666
11
7.34437
21
-6.82666
0
LINE
8
BLACK
6
CONTINUOUS
10
7.3622
20
-5.80906
11
7.3622
21
-5.82874
0
LINE
8
BLACK
6
CONTINUOUS
10
7.35236
20
-5.8189
11
7.37205
21
-5.8189
0
LINE
8
BLACK
6
CONTINUOUS
10
7.3622
20
-6.75
11
7.3622
21
-6.76969
0
LINE
8
BLACK
6
CONTINUOUS
10
7.35236
20
-6.75984
11
7.37205
21
-6.75984
0
LINE
8
BLACK
6
CONTINUOUS
10
7.38583
20
-7.87598
11
7.38583
21
-7.89567
0
LINE
8
BLACK
6
CONTINUOUS
10
7.37598
20
-7.88583
11
7.39567
21
-7.88583
0
LINE
8
BLACK
6
CONTINUOUS
10
7.38583
20
-8.06496
11
7.38583
21
-8.08465
0
LINE
8
BLACK
6
CONTINUOUS
10
7.37598
20
-8.0748
11
7.39567
21
-8.0748
0
LINE
8
BLACK
6
CONTINUOUS
10
7.45264
20
-7.90366
11
7.45264
21
-7.92334
0
LINE
8
BLACK
6
CONTINUOUS
10
7.4428
20
-7.9135
11
7.46248
21
-7.9135
0
LINE
8
BLACK
6
CONTINUOUS
10
7.45264
20
-8.03729
11
7.45264
21
-8.05697
0
LINE
8
BLACK
6
CONTINUOUS
10
7.4428
20
-8.04713
11
7.46248
21
-8.04713
0
LINE
8
BLACK
6
CONTINUOUS
10
7.48031
20
-7.97047
11
7.48031
21
-7.99016
0
LINE
8
BLACK
6
CONTINUOUS
10
7.47047
20
-7.98031
11
7.49016
21
-7.98031
0
LINE
8
BLACK
6
CONTINUOUS
10
7.99606
20
-7.00591
11
7.99606
21
-7.02559
0
LINE
8
BLACK
6
CONTINUOUS
10
7.98622
20
-7.01575
11
8.00591
21
-7.01575
0
LINE
8
BLACK
6
CONTINUOUS
10
8.02374
20
-6.93909
11
8.02374
21
-6.95878
0
LINE
8
BLACK
6
CONTINUOUS
10
8.0139
20
-6.94893
11
8.03358
21
-6.94893
0
LINE
8
BLACK
6
CONTINUOUS
10
8.02374
20
-7.07272
11
8.02374
21
-7.0924
0
LINE
8
BLACK
6
CONTINUOUS
10
8.0139
20
-7.08256
11
8.03358
21
-7.08256
0
LINE
8
BLACK
6
CONTINUOUS
10
8.09055
20
-6.91142
11
8.09055
21
-6.9311
0
LINE
8
BLACK
6
CONTINUOUS
10
8.08071
20
-6.92126
11
8.10039
21
-6.92126
0
LINE
8
BLACK
6
CONTINUOUS
10
8.09055
20
-7.10039
11
8.09055
21
-7.12008
0
LINE
8
BLACK
6
CONTINUOUS
10
8.08071
20
-7.11024
11
8.10039
21
-7.11024
0
LINE
8
BLACK
6
CONTINUOUS
10
8.15736
20
-6.93909
11
8.15736
21
-6.95878
0
LINE
8
BLACK
6
CONTINUOUS
10
8.14752
20
-6.94893
11
8.16721
21
-6.94893
0
LINE
8
BLACK
6
CONTINUOUS
10
8.15736
20
-7.07272
11
8.15736
21
-7.0924
0
LINE
8
BLACK
6
CONTINUOUS
10
8.14752
20
-7.08256
11
8.16721
21
-7.08256
0
LINE
8
BLACK
6
CONTINUOUS
10
8.18504
20
-7.00591
11
8.18504
21
-7.02559
0
LINE
8
BLACK
6
CONTINUOUS
10
8.1752
20
-7.01575
11
8.19488
21
-7.01575
0
LINE
8
BLACK
6
CONTINUOUS
10
8.40551
20
-8.76575
11
8.40551
21
-8.78543
0
LINE
8
BLACK
6
CONTINUOUS
10
8.39567
20
-8.77559
11
8.41535
21
-8.77559
0
LINE
8
BLACK
6
CONTINUOUS
10
8.43319
20
-8.69893
11
8.43319
21
-8.71862
0
LINE
8
BLACK
6
CONTINUOUS
10
8.42334
20
-8.70878
11
8.44303
21
-8.70878
0
LINE
8
BLACK
6
CONTINUOUS
10
8.43319
20
-8.83256
11
8.43319
21
-8.85225
0
LINE
8
BLACK
6
CONTINUOUS
10
8.42334
20
-8.8424
11
8.44303
21
-8.8424
0
LINE
8
BLACK
6
CONTINUOUS
10
8.5
20
-8.67126
11
8.5
21
-8.69094
0
LINE
8
BLACK
6
CONTINUOUS
10
8.49016
20
-8.6811
11
8.50984
21
-8.6811
0
LINE
8
BLACK
6
CONTINUOUS
10
8.5
20
-8.86024
11
8.5
21
-8.87992
0
LINE
8
BLACK
6
CONTINUOUS
10
8.49016
20
-8.87008
11
8.50984
21
-8.87008
0
LINE
8
BLACK
6
CONTINUOUS
10
8.56681
20
-8.69893
11
8.56681
21
-8.71862
0
LINE
8
BLACK
6
CONTINUOUS
10
8.55697
20
-8.70878
11
8.57666
21
-8.70878
0
LINE
8
BLACK
6
CONTINUOUS
10
8.56681
20
-8.83256
11
8.56681
21
-8.85225
0
LINE
8
BLACK
6
CONTINUOUS
10
8.55697
20
-8.8424
11
8.57666
21
-8.8424
0
LINE
8
BLACK
6
CONTINUOUS
10
8.59449
20
-8.76575
11
8.59449
21
-8.78543
0
LINE
8
BLACK
6
CONTINUOUS
10
8.58465
20
-8.77559
11
8.60433
21
-8.77559
0
LINE
8
BLACK
6
CONTINUOUS
10
9.27953
20
-6.99016
11
9.27953
21
-7.00984
0
LINE
8
BLACK
6
CONTINUOUS
10
9.26969
20
-7
11
9.28937
21
-7
0
LINE
8
BLACK
6
CONTINUOUS
10
9.27953
20
-7.9311
11
9.27953
21
-7.95079
0
LINE
8
BLACK
6
CONTINUOUS
10
9.26969
20
-7.94094
11
9.28937
21
-7.94094
0
LINE
8
BLACK
6
CONTINUOUS
10
9.3072
20
-6.92334
11
9.3072
21
-6.94303
0
LINE
8
BLACK
6
CONTINUOUS
10
9.29736
20
-6.93319
11
9.31705
21
-6.93319
0
LINE
8
BLACK
6
CONTINUOUS
10
9.3072
20
-7.05697
11
9.3072
21
-7.07666
0
LINE
8
BLACK
6
CONTINUOUS
10
9.29736
20
-7.06681
11
9.31705
21
-7.06681
0
LINE
8
BLACK
6
CONTINUOUS
10
9.3072
20
-7.86429
11
9.3072
21
-7.88397
0
LINE
8
BLACK
6
CONTINUOUS
10
9.29736
20
-7.87413
11
9.31705
21
-7.87413
0
LINE
8
BLACK
6
CONTINUOUS
10
9.3072
20
-7.99792
11
9.3072
21
-8.0176
0
LINE
8
BLACK
6
CONTINUOUS
10
9.29736
20
-8.00776
11
9.31705
21
-8.00776
0
LINE
8
BLACK
6
CONTINUOUS
10
9.37402
20
-6.89567
11
9.37402
21
-6.91535
0
LINE
8
BLACK
6
CONTINUOUS
10
9.36417
20
-6.90551
11
9.38386
21
-6.90551
0
LINE
8
BLACK
6
CONTINUOUS
10
9.37402
20
-7.08465
11
9.37402
21
-7.10433
0
LINE
8
BLACK
6
CONTINUOUS
10
9.36417
20
-7.09449
11
9.38386
21
-7.09449
0
LINE
8
BLACK
6
CONTINUOUS
10
9.37402
20
-7.83661
11
9.37402
21
-7.8563
0
LINE
8
BLACK
6
CONTINUOUS
10
9.36417
20
-7.84646
11
9.38386
21
-7.84646
0
LINE
8
BLACK
6
CONTINUOUS
10
9.37402
20
-8.02559
11
9.37402
21
-8.04528
0
LINE
8
BLACK
6
CONTINUOUS
10
9.36417
20
-8.03543
11
9.38386
21
-8.03543
0
LINE
8
BLACK
6
CONTINUOUS
10
9.44083
20
-6.92334
11
9.44083
21
-6.94303
0
LINE
8
BLACK
6
CONTINUOUS
10
9.43099
20
-6.93319
11
9.45067
21
-6.93319
0
LINE
8
BLACK
6
CONTINUOUS
10
9.44083
20
-7.05697
11
9.44083
21
-7.07666
0
LINE
8
BLACK
6
CONTINUOUS
10
9.43099
20
-7.06681
11
9.45067
21
-7.06681
0
LINE
8
BLACK
6
CONTINUOUS
10
9.44083
20
-7.86429
11
9.44083
21
-7.88397
0
LINE
8
BLACK
6
CONTINUOUS
10
9.43099
20
-7.87413
11
9.45067
21
-7.87413
0
LINE
8
BLACK
6
CONTINUOUS
10
9.44083
20
-7.99792
11
9.44083
21
-8.0176
0
LINE
8
BLACK
6
CONTINUOUS
10
9.43099
20
-8.00776
11
9.45067
21
-8.00776
0
LINE
8
BLACK
6
CONTINUOUS
10
9.4685
20
-6.99016
11
9.4685
21
-7.00984
0
LINE
8
BLACK
6
CONTINUOUS
10
9.45866
20
-7
11
9.47835
21
-7
0
LINE
8
BLACK
6
CONTINUOUS
10
9.4685
20
-7.9311
11
9.4685
21
-7.95079
0
LINE
8
BLACK
6
CONTINUOUS
10
9.45866
20
-7.94094
11
9.47835
21
-7.94094
0
LINE
8
BLACK
6
CONTINUOUS
10
6.83982
20
-8.33588
11
6.83982
21
-8.2468
0
LINE
8
BLACK
6
CONTINUOUS
10
6.83982
20
-8.2468
11
6.75073
21
-8.2468
0
LINE
8
BLACK
6
CONTINUOUS
10
6.75073
20
-8.2468
11
6.75073
21
-8.33588
0
LINE
8
BLACK
6
CONTINUOUS
10
6.75073
20
-8.33588
11
6.83982
21
-8.33588
0
LINE
8
BLACK
6
CONTINUOUS
10
7.31226
20
-5.86344
11
7.31226
21
-5.77436
0
LINE
8
BLACK
6
CONTINUOUS
10
7.31226
20
-5.77436
11
7.22317
21
-5.77436
0
LINE
8
BLACK
6
CONTINUOUS
10
7.22317
20
-5.77436
11
7.22317
21
-5.86344
0
LINE
8
BLACK
6
CONTINUOUS
10
7.22317
20
-5.86344
11
7.31226
21
-5.86344
0
LINE
8
BLACK
6
CONTINUOUS
10
7.31226
20
-6.80439
11
7.31226
21
-6.7153
0
LINE
8
BLACK
6
CONTINUOUS
10
7.31226
20
-6.7153
11
7.22317
21
-6.7153
0
LINE
8
BLACK
6
CONTINUOUS
10
7.22317
20
-6.7153
11
7.22317
21
-6.80439
0
LINE
8
BLACK
6
CONTINUOUS
10
7.22317
20
-6.80439
11
7.31226
21
-6.80439
0
LINE
8
BLACK
6
CONTINUOUS
10
7.43037
20
-8.02486
11
7.43037
21
-7.93577
0
LINE
8
BLACK
6
CONTINUOUS
10
7.43037
20
-7.93577
11
7.34128
21
-7.93577
0
LINE
8
BLACK
6
CONTINUOUS
10
7.34128
20
-7.93577
11
7.34128
21
-8.02486
0
LINE
8
BLACK
6
CONTINUOUS
10
7.34128
20
-8.02486
11
7.43037
21
-8.02486
0
LINE
8
BLACK
6
CONTINUOUS
10
8.13509
20
-7.06029
11
8.13509
21
-6.97121
0
LINE
8
BLACK
6
CONTINUOUS
10
8.13509
20
-6.97121
11
8.04601
21
-6.97121
0
LINE
8
BLACK
6
CONTINUOUS
10
8.04601
20
-6.97121
11
8.04601
21
-7.06029
0
LINE
8
BLACK
6
CONTINUOUS
10
8.04601
20
-7.06029
11
8.13509
21
-7.06029
0
LINE
8
BLACK
6
CONTINUOUS
10
8.54454
20
-8.82013
11
8.54454
21
-8.73105
0
LINE
8
BLACK
6
CONTINUOUS
10
8.54454
20
-8.73105
11
8.45546
21
-8.73105
0
LINE
8
BLACK
6
CONTINUOUS
10
8.45546
20
-8.73105
11
8.45546
21
-8.82013
0
LINE
8
BLACK
6
CONTINUOUS
10
8.45546
20
-8.82013
11
8.54454
21
-8.82013
0
LINE
8
BLACK
6
CONTINUOUS
10
9.41856
20
-7.04454
11
9.41856
21
-6.95546
0
LINE
8
BLACK
6
CONTINUOUS
10
9.41856
20
-6.95546
11
9.32947
21
-6.95546
0
LINE
8
BLACK
6
CONTINUOUS
10
9.32947
20
-6.95546
11
9.32947
21
-7.04454
0
LINE
8
BLACK
6
CONTINUOUS
10
9.32947
20
-7.04454
11
9.41856
21
-7.04454
0
LINE
8
BLACK
6
CONTINUOUS
10
9.41856
20
-7.98549
11
9.41856
21
-7.8964
0
LINE
8
BLACK
6
CONTINUOUS
10
9.41856
20
-7.8964
11
9.32947
21
-7.8964
0
LINE
8
BLACK
6
CONTINUOUS
10
9.32947
20
-7.8964
11
9.32947
21
-7.98549
0
LINE
8
BLACK
6
CONTINUOUS
10
9.32947
20
-7.98549
11
9.41856
21
-7.98549
0
LINE
8
BLACK
6
CONTINUOUS
10
6.36375
20
-9.16859
11
6.36375
21
-9.05048
0
LINE
8
BLACK
6
CONTINUOUS
10
6.36375
20
-9.05048
11
6.39187
21
-9.05048
0
LINE
8
BLACK
6
CONTINUOUS
10
6.39187
20
-9.05048
11
6.40875
21
-9.0561
0
LINE
8
BLACK
6
CONTINUOUS
10
6.40875
20
-9.0561
11
6.41999
21
-9.06735
0
LINE
8
BLACK
6
CONTINUOUS
10
6.41999
20
-9.06735
11
6.42562
21
-9.0786
0
LINE
8
BLACK
6
CONTINUOUS
10
6.42562
20
-9.0786
11
6.43124
21
-9.1011
0
LINE
8
BLACK
6
CONTINUOUS
10
6.43124
20
-9.1011
11
6.43124
21
-9.11797
0
LINE
8
BLACK
6
CONTINUOUS
10
6.43124
20
-9.11797
11
6.42562
21
-9.14047
0
LINE
8
BLACK
6
CONTINUOUS
10
6.42562
20
-9.14047
11
6.41999
21
-9.15172
0
LINE
8
BLACK
6
CONTINUOUS
10
6.41999
20
-9.15172
11
6.40875
21
-9.16296
0
LINE
8
BLACK
6
CONTINUOUS
10
6.40875
20
-9.16296
11
6.39187
21
-9.16859
0
LINE
8
BLACK
6
CONTINUOUS
10
6.39187
20
-9.16859
11
6.36375
21
-9.16859
0
LINE
8
BLACK
6
CONTINUOUS
10
6.48186
20
-9.16859
11
6.48186
21
-9.08985
0
LINE
8
BLACK
6
CONTINUOUS
10
6.48186
20
-9.11235
11
6.48749
21
-9.1011
0
LINE
8
BLACK
6
CONTINUOUS
10
6.48749
20
-9.1011
11
6.49311
21
-9.09547
0
LINE
8
BLACK
6
CONTINUOUS
10
6.49311
20
-9.09547
11
6.50436
21
-9.08985
0
LINE
8
BLACK
6
CONTINUOUS
10
6.50436
20
-9.08985
11
6.51561
21
-9.08985
0
LINE
8
BLACK
6
CONTINUOUS
10
6.55498
20
-9.16859
11
6.55498
21
-9.08985
0
LINE
8
BLACK
6
CONTINUOUS
10
6.55498
20
-9.05048
11
6.54935
21
-9.0561
0
LINE
8
BLACK
6
CONTINUOUS
10
6.54935
20
-9.0561
11
6.55498
21
-9.06173
0
LINE
8
BLACK
6
CONTINUOUS
10
6.55498
20
-9.06173
11
6.5606
21
-9.0561
0
LINE
8
BLACK
6
CONTINUOUS
10
6.5606
20
-9.0561
11
6.55498
21
-9.05048
0
LINE
8
BLACK
6
CONTINUOUS
10
6.55498
20
-9.05048
11
6.55498
21
-9.06173
0
LINE
8
BLACK
6
CONTINUOUS
10
6.62809
20
-9.16859
11
6.61684
21
-9.16296
0
LINE
8
BLACK
6
CONTINUOUS
10
6.61684
20
-9.16296
11
6.61122
21
-9.15172
0
LINE
8
BLACK
6
CONTINUOUS
10
6.61122
20
-9.15172
11
6.61122
21
-9.05048
0
LINE
8
BLACK
6
CONTINUOUS
10
6.68996
20
-9.16859
11
6.67871
21
-9.16296
0
LINE
8
BLACK
6
CONTINUOUS
10
6.67871
20
-9.16296
11
6.67309
21
-9.15172
0
LINE
8
BLACK
6
CONTINUOUS
10
6.67309
20
-9.15172
11
6.67309
21
-9.05048
0
LINE
8
BLACK
6
CONTINUOUS
10
6.82494
20
-9.16859
11
6.82494
21
-9.05048
0
LINE
8
BLACK
6
CONTINUOUS
10
6.82494
20
-9.05048
11
6.86431
21
-9.13484
0
LINE
8
BLACK
6
CONTINUOUS
10
6.86431
20
-9.13484
11
6.90368
21
-9.05048
0
LINE
8
BLACK
6
CONTINUOUS
10
6.90368
20
-9.05048
11
6.90368
21
-9.16859
0
LINE
8
BLACK
6
CONTINUOUS
10
7.01055
20
-9.16859
11
7.01055
21
-9.10672
0
LINE
8
BLACK
6
CONTINUOUS
10
7.01055
20
-9.10672
11
7.00492
21
-9.09547
0
LINE
8
BLACK
6
CONTINUOUS
10
7.00492
20
-9.09547
11
6.99367
21
-9.08985
0
LINE
8
BLACK
6
CONTINUOUS
10
6.99367
20
-9.08985
11
6.97118
21
-9.08985
0
LINE
8
BLACK
6
CONTINUOUS
10
6.97118
20
-9.08985
11
6.95993
21
-9.09547
0
LINE
8
BLACK
6
CONTINUOUS
10
7.01055
20
-9.16296
11
6.9993
21
-9.16859
0
LINE
8
BLACK
6
CONTINUOUS
10
6.9993
20
-9.16859
11
6.97118
21
-9.16859
0
LINE
8
BLACK
6
CONTINUOUS
10
6.97118
20
-9.16859
11
6.95993
21
-9.16296
0
LINE
8
BLACK
6
CONTINUOUS
10
6.95993
20
-9.16296
11
6.9543
21
-9.15172
0
LINE
8
BLACK
6
CONTINUOUS
10
6.9543
20
-9.15172
11
6.9543
21
-9.14047
0
LINE
8
BLACK
6
CONTINUOUS
10
6.9543
20
-9.14047
11
6.95993
21
-9.12922
0
LINE
8
BLACK
6
CONTINUOUS
10
6.95993
20
-9.12922
11
6.97118
21
-9.12359
0
LINE
8
BLACK
6
CONTINUOUS
10
6.97118
20
-9.12359
11
6.9993
21
-9.12359
0
LINE
8
BLACK
6
CONTINUOUS
10
6.9993
20
-9.12359
11
7.01055
21
-9.11797
0
LINE
8
BLACK
6
CONTINUOUS
10
7.06679
20
-9.08985
11
7.06679
21
-9.20796
0
LINE
8
BLACK
6
CONTINUOUS
10
7.06679
20
-9.09547
11
7.07804
21
-9.08985
0
LINE
8
BLACK
6
CONTINUOUS
10
7.07804
20
-9.08985
11
7.10053
21
-9.08985
0
LINE
8
BLACK
6
CONTINUOUS
10
7.10053
20
-9.08985
11
7.11178
21
-9.09547
0
LINE
8
BLACK
6
CONTINUOUS
10
7.11178
20
-9.09547
11
7.11741
21
-9.1011
0
LINE
8
BLACK
6
CONTINUOUS
10
7.11741
20
-9.1011
11
7.12303
21
-9.11235
0
LINE
8
BLACK
6
CONTINUOUS
10
7.12303
20
-9.11235
11
7.12303
21
-9.14609
0
LINE
8
BLACK
6
CONTINUOUS
10
7.12303
20
-9.14609
11
7.11741
21
-9.15734
0
LINE
8
BLACK
6
CONTINUOUS
10
7.11741
20
-9.15734
11
7.11178
21
-9.16296
0
LINE
8
BLACK
6
CONTINUOUS
10
7.11178
20
-9.16296
11
7.10053
21
-9.16859
0
LINE
8
BLACK
6
CONTINUOUS
10
7.10053
20
-9.16859
11
7.07804
21
-9.16859
0
LINE
8
BLACK
6
CONTINUOUS
10
7.07804
20
-9.16859
11
7.06679
21
-9.16296
0
LINE
8
BLACK
6
CONTINUOUS
10
7.17365
20
-9.15734
11
7.17927
21
-9.16296
0
LINE
8
BLACK
6
CONTINUOUS
10
7.17927
20
-9.16296
11
7.17365
21
-9.16859
0
LINE
8
BLACK
6
CONTINUOUS
10
7.17365
20
-9.16859
11
7.16803
21
-9.16296
0
LINE
8
BLACK
6
CONTINUOUS
10
7.16803
20
-9.16296
11
7.17365
21
-9.15734
0
LINE
8
BLACK
6
CONTINUOUS
10
7.17365
20
-9.15734
11
7.17365
21
-9.16859
0
LINE
8
BLACK
6
CONTINUOUS
10
7.17365
20
-9.09547
11
7.17927
21
-9.1011
0
LINE
8
BLACK
6
CONTINUOUS
10
7.17927
20
-9.1011
11
7.17365
21
-9.10672
0
LINE
8
BLACK
6
CONTINUOUS
10
7.17365
20
-9.10672
11
7.16803
21
-9.1011
0
LINE
8
BLACK
6
CONTINUOUS
10
7.16803
20
-9.1011
11
7.17365
21
-9.09547
0
LINE
8
BLACK
6
CONTINUOUS
10
7.17365
20
-9.09547
11
7.17365
21
-9.10672
0
LINE
8
BLACK
6
CONTINUOUS
10
6.24098
20
-9.35819
11
6.25098
21
-9.36819
0
LINE
8
BLACK
6
CONTINUOUS
10
6.25098
20
-9.35819
11
6.24098
21
-9.36819
0
LINE
8
BLACK
6
CONTINUOUS
10
6.38625
20
-9.29851
11
6.3975
21
-9.29851
0
LINE
8
BLACK
6
CONTINUOUS
10
6.3975
20
-9.29851
11
6.40875
21
-9.30413
0
LINE
8
BLACK
6
CONTINUOUS
10
6.40875
20
-9.30413
11
6.41437
21
-9.30976
0
LINE
8
BLACK
6
CONTINUOUS
10
6.41437
20
-9.30976
11
6.41999
21
-9.32101
0
LINE
8
BLACK
6
CONTINUOUS
10
6.41999
20
-9.32101
11
6.42562
21
-9.3435
0
LINE
8
BLACK
6
CONTINUOUS
10
6.42562
20
-9.3435
11
6.42562
21
-9.37163
0
LINE
8
BLACK
6
CONTINUOUS
10
6.42562
20
-9.37163
11
6.41999
21
-9.39412
0
LINE
8
BLACK
6
CONTINUOUS
10
6.41999
20
-9.39412
11
6.41437
21
-9.40537
0
LINE
8
BLACK
6
CONTINUOUS
10
6.41437
20
-9.40537
11
6.40875
21
-9.411
0
LINE
8
BLACK
6
CONTINUOUS
10
6.40875
20
-9.411
11
6.3975
21
-9.41662
0
LINE
8
BLACK
6
CONTINUOUS
10
6.3975
20
-9.41662
11
6.38625
21
-9.41662
0
LINE
8
BLACK
6
CONTINUOUS
10
6.38625
20
-9.41662
11
6.375
21
-9.411
0
LINE
8
BLACK
6
CONTINUOUS
10
6.375
20
-9.411
11
6.36938
21
-9.40537
0
LINE
8
BLACK
6
CONTINUOUS
10
6.36938
20
-9.40537
11
6.36375
21
-9.39412
0
LINE
8
BLACK
6
CONTINUOUS
10
6.36375
20
-9.39412
11
6.35813
21
-9.37163
0
LINE
8
BLACK
6
CONTINUOUS
10
6.35813
20
-9.37163
11
6.35813
21
-9.3435
0
LINE
8
BLACK
6
CONTINUOUS
10
6.35813
20
-9.3435
11
6.36375
21
-9.32101
0
LINE
8
BLACK
6
CONTINUOUS
10
6.36375
20
-9.32101
11
6.36938
21
-9.30976
0
LINE
8
BLACK
6
CONTINUOUS
10
6.36938
20
-9.30976
11
6.375
21
-9.30413
0
LINE
8
BLACK
6
CONTINUOUS
10
6.375
20
-9.30413
11
6.38625
21
-9.29851
0
LINE
8
BLACK
6
CONTINUOUS
10
6.47624
20
-9.40537
11
6.48186
21
-9.411
0
LINE
8
BLACK
6
CONTINUOUS
10
6.48186
20
-9.411
11
6.47624
21
-9.41662
0
LINE
8
BLACK
6
CONTINUOUS
10
6.47624
20
-9.41662
11
6.47061
21
-9.411
0
LINE
8
BLACK
6
CONTINUOUS
10
6.47061
20
-9.411
11
6.47624
21
-9.40537
0
LINE
8
BLACK
6
CONTINUOUS
10
6.47624
20
-9.40537
11
6.47624
21
-9.41662
0
LINE
8
BLACK
6
CONTINUOUS
10
6.52686
20
-9.30976
11
6.53248
21
-9.30413
0
LINE
8
BLACK
6
CONTINUOUS
10
6.53248
20
-9.30413
11
6.54373
21
-9.29851
0
LINE
8
BLACK
6
CONTINUOUS
10
6.54373
20
-9.29851
11
6.57185
21
-9.29851
0
LINE
8
BLACK
6
CONTINUOUS
10
6.57185
20
-9.29851
11
6.5831
21
-9.30413
0
LINE
8
BLACK
6
CONTINUOUS
10
6.5831
20
-9.30413
11
6.58872
21
-9.30976
0
LINE
8
BLACK
6
CONTINUOUS
10
6.58872
20
-9.30976
11
6.59435
21
-9.32101
0
LINE
8
BLACK
6
CONTINUOUS
10
6.59435
20
-9.32101
11
6.59435
21
-9.33226
0
LINE
8
BLACK
6
CONTINUOUS
10
6.59435
20
-9.33226
11
6.58872
21
-9.34913
0
LINE
8
BLACK
6
CONTINUOUS
10
6.58872
20
-9.34913
11
6.52123
21
-9.41662
0
LINE
8
BLACK
6
CONTINUOUS
10
6.52123
20
-9.41662
11
6.59435
21
-9.41662
0
LINE
8
BLACK
6
CONTINUOUS
10
6.70121
20
-9.29851
11
6.64497
21
-9.29851
0
LINE
8
BLACK
6
CONTINUOUS
10
6.64497
20
-9.29851
11
6.63934
21
-9.35475
0
LINE
8
BLACK
6
CONTINUOUS
10
6.63934
20
-9.35475
11
6.64497
21
-9.34913
0
LINE
8
BLACK
6
CONTINUOUS
10
6.64497
20
-9.34913
11
6.65621
21
-9.3435
0
LINE
8
BLACK
6
CONTINUOUS
10
6.65621
20
-9.3435
11
6.68434
21
-9.3435
0
LINE
8
BLACK
6
CONTINUOUS
10
6.68434
20
-9.3435
11
6.69558
21
-9.34913
0
LINE
8
BLACK
6
CONTINUOUS
10
6.69558
20
-9.34913
11
6.70121
21
-9.35475
0
LINE
8
BLACK
6
CONTINUOUS
10
6.70121
20
-9.35475
11
6.70683
21
-9.366
0
LINE
8
BLACK
6
CONTINUOUS
10
6.70683
20
-9.366
11
6.70683
21
-9.39412
0
LINE
8
BLACK
6
CONTINUOUS
10
6.70683
20
-9.39412
11
6.70121
21
-9.40537
0
LINE
8
BLACK
6
CONTINUOUS
10
6.70121
20
-9.40537
11
6.69558
21
-9.411
0
LINE
8
BLACK
6
CONTINUOUS
10
6.69558
20
-9.411
11
6.68434
21
-9.41662
0
LINE
8
BLACK
6
CONTINUOUS
10
6.68434
20
-9.41662
11
6.65621
21
-9.41662
0
LINE
8
BLACK
6
CONTINUOUS
10
6.65621
20
-9.41662
11
6.64497
21
-9.411
0
LINE
8
BLACK
6
CONTINUOUS
10
6.64497
20
-9.411
11
6.63934
21
-9.40537
0
LINE
8
BLACK
6
CONTINUOUS
10
6.80807
20
-9.33788
11
6.80807
21
-9.41662
0
LINE
8
BLACK
6
CONTINUOUS
10
6.77995
20
-9.29289
11
6.75183
21
-9.37725
0
LINE
8
BLACK
6
CONTINUOUS
10
6.75183
20
-9.37725
11
6.82494
21
-9.37725
0
LINE
8
BLACK
6
CONTINUOUS
10
6.86994
20
-9.41662
11
6.86994
21
-9.33788
0
LINE
8
BLACK
6
CONTINUOUS
10
6.86994
20
-9.34913
11
6.87556
21
-9.3435
0
LINE
8
BLACK
6
CONTINUOUS
10
6.87556
20
-9.3435
11
6.88681
21
-9.33788
0
LINE
8
BLACK
6
CONTINUOUS
10
6.88681
20
-9.33788
11
6.90368
21
-9.33788
0
LINE
8
BLACK
6
CONTINUOUS
10
6.90368
20
-9.33788
11
6.91493
21
-9.3435
0
LINE
8
BLACK
6
CONTINUOUS
10
6.91493
20
-9.3435
11
6.92056
21
-9.35475
0
LINE
8
BLACK
6
CONTINUOUS
10
6.92056
20
-9.35475
11
6.92056
21
-9.41662
0
LINE
8
BLACK
6
CONTINUOUS
10
6.92056
20
-9.35475
11
6.92618
21
-9.3435
0
LINE
8
BLACK
6
CONTINUOUS
10
6.92618
20
-9.3435
11
6.93743
21
-9.33788
0
LINE
8
BLACK
6
CONTINUOUS
10
6.93743
20
-9.33788
11
6.9543
21
-9.33788
0
LINE
8
BLACK
6
CONTINUOUS
10
6.9543
20
-9.33788
11
6.96555
21
-9.3435
0
LINE
8
BLACK
6
CONTINUOUS
10
6.96555
20
-9.3435
11
6.97118
21
-9.35475
0
LINE
8
BLACK
6
CONTINUOUS
10
6.97118
20
-9.35475
11
6.97118
21
-9.41662
0
LINE
8
BLACK
6
CONTINUOUS
10
7.02742
20
-9.41662
11
7.02742
21
-9.33788
0
LINE
8
BLACK
6
CONTINUOUS
10
7.02742
20
-9.34913
11
7.03304
21
-9.3435
0
LINE
8
BLACK
6
CONTINUOUS
10
7.03304
20
-9.3435
11
7.04429
21
-9.33788
0
LINE
8
BLACK
6
CONTINUOUS
10
7.04429
20
-9.33788
11
7.06116
21
-9.33788
0
LINE
8
BLACK
6
CONTINUOUS
10
7.06116
20
-9.33788
11
7.07241
21
-9.3435
0
LINE
8
BLACK
6
CONTINUOUS
10
7.07241
20
-9.3435
11
7.07804
21
-9.35475
0
LINE
8
BLACK
6
CONTINUOUS
10
7.07804
20
-9.35475
11
7.07804
21
-9.41662
0
LINE
8
BLACK
6
CONTINUOUS
10
7.07804
20
-9.35475
11
7.08366
21
-9.3435
0
LINE
8
BLACK
6
CONTINUOUS
10
7.08366
20
-9.3435
11
7.09491
21
-9.33788
0
LINE
8
BLACK
6
CONTINUOUS
10
7.09491
20
-9.33788
11
7.11178
21
-9.33788
0
LINE
8
BLACK
6
CONTINUOUS
10
7.11178
20
-9.33788
11
7.12303
21
-9.3435
0
LINE
8
BLACK
6
CONTINUOUS
10
7.12303
20
-9.3435
11
7.12866
21
-9.35475
0
LINE
8
BLACK
6
CONTINUOUS
10
7.12866
20
-9.35475
11
7.12866
21
-9.41662
0
LINE
8
BLACK
6
CONTINUOUS
10
7.35925
20
-9.29289
11
7.25801
21
-9.44474
0
LINE
8
BLACK
6
CONTINUOUS
10
7.51111
20
-9.29851
11
7.52236
21
-9.29851
0
LINE
8
BLACK
6
CONTINUOUS
10
7.52236
20
-9.29851
11
7.53361
21
-9.30413
0
LINE
8
BLACK
6
CONTINUOUS
10
7.53361
20
-9.30413
11
7.53923
21
-9.30976
0
LINE
8
BLACK
6
CONTINUOUS
10
7.53923
20
-9.30976
11
7.54485
21
-9.32101
0
LINE
8
BLACK
6
CONTINUOUS
10
7.54485
20
-9.32101
11
7.55048
21
-9.3435
0
LINE
8
BLACK
6
CONTINUOUS
10
7.55048
20
-9.3435
11
7.55048
21
-9.37163
0
LINE
8
BLACK
6
CONTINUOUS
10
7.55048
20
-9.37163
11
7.54485
21
-9.39412
0
LINE
8
BLACK
6
CONTINUOUS
10
7.54485
20
-9.39412
11
7.53923
21
-9.40537
0
LINE
8
BLACK
6
CONTINUOUS
10
7.53923
20
-9.40537
11
7.53361
21
-9.411
0
LINE
8
BLACK
6
CONTINUOUS
10
7.53361
20
-9.411
11
7.52236
21
-9.41662
0
LINE
8
BLACK
6
CONTINUOUS
10
7.52236
20
-9.41662
11
7.51111
21
-9.41662
0
LINE
8
BLACK
6
CONTINUOUS
10
7.51111
20
-9.41662
11
7.49986
21
-9.411
0
LINE
8
BLACK
6
CONTINUOUS
10
7.49986
20
-9.411
11
7.49424
21
-9.40537
0
LINE
8
BLACK
6
CONTINUOUS
10
7.49424
20
-9.40537
11
7.48861
21
-9.39412
0
LINE
8
BLACK
6
CONTINUOUS
10
7.48861
20
-9.39412
11
7.48299
21
-9.37163
0
LINE
8
BLACK
6
CONTINUOUS
10
7.48299
20
-9.37163
11
7.48299
21
-9.3435
0
LINE
8
BLACK
6
CONTINUOUS
10
7.48299
20
-9.3435
11
7.48861
21
-9.32101
0
LINE
8
BLACK
6
CONTINUOUS
10
7.48861
20
-9.32101
11
7.49424
21
-9.30976
0
LINE
8
BLACK
6
CONTINUOUS
10
7.49424
20
-9.30976
11
7.49986
21
-9.30413
0
LINE
8
BLACK
6
CONTINUOUS
10
7.49986
20
-9.30413
11
7.51111
21
-9.29851
0
LINE
8
BLACK
6
CONTINUOUS
10
7.6011
20
-9.40537
11
7.60672
21
-9.411
0
LINE
8
BLACK
6
CONTINUOUS
10
7.60672
20
-9.411
11
7.6011
21
-9.41662
0
LINE
8
BLACK
6
CONTINUOUS
10
7.6011
20
-9.41662
11
7.59547
21
-9.411
0
LINE
8
BLACK
6
CONTINUOUS
10
7.59547
20
-9.411
11
7.6011
21
-9.40537
0
LINE
8
BLACK
6
CONTINUOUS
10
7.6011
20
-9.40537
11
7.6011
21
-9.41662
0
LINE
8
BLACK
6
CONTINUOUS
10
7.67984
20
-9.29851
11
7.69109
21
-9.29851
0
LINE
8
BLACK
6
CONTINUOUS
10
7.69109
20
-9.29851
11
7.70233
21
-9.30413
0
LINE
8
BLACK
6
CONTINUOUS
10
7.70233
20
-9.30413
11
7.70796
21
-9.30976
0
LINE
8
BLACK
6
CONTINUOUS
10
7.70796
20
-9.30976
11
7.71358
21
-9.32101
0
LINE
8
BLACK
6
CONTINUOUS
10
7.71358
20
-9.32101
11
7.71921
21
-9.3435
0
LINE
8
BLACK
6
CONTINUOUS
10
7.71921
20
-9.3435
11
7.71921
21
-9.37163
0
LINE
8
BLACK
6
CONTINUOUS
10
7.71921
20
-9.37163
11
7.71358
21
-9.39412
0
LINE
8
BLACK
6
CONTINUOUS
10
7.71358
20
-9.39412
11
7.70796
21
-9.40537
0
LINE
8
BLACK
6
CONTINUOUS
10
7.70796
20
-9.40537
11
7.70233
21
-9.411
0
LINE
8
BLACK
6
CONTINUOUS
10
7.70233
20
-9.411
11
7.69109
21
-9.41662
0
LINE
8
BLACK
6
CONTINUOUS
10
7.69109
20
-9.41662
11
7.67984
21
-9.41662
0
LINE
8
BLACK
6
CONTINUOUS
10
7.67984
20
-9.41662
11
7.66859
21
-9.411
0
LINE
8
BLACK
6
CONTINUOUS
10
7.66859
20
-9.411
11
7.66296
21
-9.40537
0
LINE
8
BLACK
6
CONTINUOUS
10
7.66296
20
-9.40537
11
7.65734
21
-9.39412
0
LINE
8
BLACK
6
CONTINUOUS
10
7.65734
20
-9.39412
11
7.65172
21
-9.37163
0
LINE
8
BLACK
6
CONTINUOUS
10
7.65172
20
-9.37163
11
7.65172
21
-9.3435
0
LINE
8
BLACK
6
CONTINUOUS
10
7.65172
20
-9.3435
11
7.65734
21
-9.32101
0
LINE
8
BLACK
6
CONTINUOUS
10
7.65734
20
-9.32101
11
7.66296
21
-9.30976
0
LINE
8
BLACK
6
CONTINUOUS
10
7.66296
20
-9.30976
11
7.66859
21
-9.30413
0
LINE
8
BLACK
6
CONTINUOUS
10
7.66859
20
-9.30413
11
7.67984
21
-9.29851
0
LINE
8
BLACK
6
CONTINUOUS
10
7.83169
20
-9.41662
11
7.7642
21
-9.41662
0
LINE
8
BLACK
6
CONTINUOUS
10
7.79795
20
-9.41662
11
7.79795
21
-9.29851
0
LINE
8
BLACK
6
CONTINUOUS
10
7.79795
20
-9.29851
11
7.7867
21
-9.31538
0
LINE
8
BLACK
6
CONTINUOUS
10
7.7867
20
-9.31538
11
7.77545
21
-9.32663
0
LINE
8
BLACK
6
CONTINUOUS
10
7.77545
20
-9.32663
11
7.7642
21
-9.33226
0
LINE
8
BLACK
6
CONTINUOUS
10
7.90481
20
-9.29851
11
7.91606
21
-9.29851
0
LINE
8
BLACK
6
CONTINUOUS
10
7.91606
20
-9.29851
11
7.92731
21
-9.30413
0
LINE
8
BLACK
6
CONTINUOUS
10
7.92731
20
-9.30413
11
7.93293
21
-9.30976
0
LINE
8
BLACK
6
CONTINUOUS
10
7.93293
20
-9.30976
11
7.93855
21
-9.32101
0
LINE
8
BLACK
6
CONTINUOUS
10
7.93855
20
-9.32101
11
7.94418
21
-9.3435
0
LINE
8
BLACK
6
CONTINUOUS
10
7.94418
20
-9.3435
11
7.94418
21
-9.37163
0
LINE
8
BLACK
6
CONTINUOUS
10
7.94418
20
-9.37163
11
7.93855
21
-9.39412
0
LINE
8
BLACK
6
CONTINUOUS
10
7.93855
20
-9.39412
11
7.93293
21
-9.40537
0
LINE
8
BLACK
6
CONTINUOUS
10
7.93293
20
-9.40537
11
7.92731
21
-9.411
0
LINE
8
BLACK
6
CONTINUOUS
10
7.92731
20
-9.411
11
7.91606
21
-9.41662
0
LINE
8
BLACK
6
CONTINUOUS
10
7.91606
20
-9.41662
11
7.90481
21
-9.41662
0
LINE
8
BLACK
6
CONTINUOUS
10
7.90481
20
-9.41662
11
7.89356
21
-9.411
0
LINE
8
BLACK
6
CONTINUOUS
10
7.89356
20
-9.411
11
7.88794
21
-9.40537
0
LINE
8
BLACK
6
CONTINUOUS
10
7.88794
20
-9.40537
11
7.88231
21
-9.39412
0
LINE
8
BLACK
6
CONTINUOUS
10
7.88231
20
-9.39412
11
7.87669
21
-9.37163
0
LINE
8
BLACK
6
CONTINUOUS
10
7.87669
20
-9.37163
11
7.87669
21
-9.3435
0
LINE
8
BLACK
6
CONTINUOUS
10
7.87669
20
-9.3435
11
7.88231
21
-9.32101
0
LINE
8
BLACK
6
CONTINUOUS
10
7.88231
20
-9.32101
11
7.88794
21
-9.30976
0
LINE
8
BLACK
6
CONTINUOUS
10
7.88794
20
-9.30976
11
7.89356
21
-9.30413
0
LINE
8
BLACK
6
CONTINUOUS
10
7.89356
20
-9.30413
11
7.90481
21
-9.29851
0
LINE
8
BLACK
6
CONTINUOUS
10
8.01729
20
-9.29851
11
8.02854
21
-9.29851
0
LINE
8
BLACK
6
CONTINUOUS
10
8.02854
20
-9.29851
11
8.03979
21
-9.30413
0
LINE
8
BLACK
6
CONTINUOUS
10
8.03979
20
-9.30413
11
8.04542
21
-9.30976
0
LINE
8
BLACK
6
CONTINUOUS
10
8.04542
20
-9.30976
11
8.05104
21
-9.32101
0
LINE
8
BLACK
6
CONTINUOUS
10
8.05104
20
-9.32101
11
8.05666
21
-9.3435
0
LINE
8
BLACK
6
CONTINUOUS
10
8.05666
20
-9.3435
11
8.05666
21
-9.37163
0
LINE
8
BLACK
6
CONTINUOUS
10
8.05666
20
-9.37163
11
8.05104
21
-9.39412
0
LINE
8
BLACK
6
CONTINUOUS
10
8.05104
20
-9.39412
11
8.04542
21
-9.40537
0
LINE
8
BLACK
6
CONTINUOUS
10
8.04542
20
-9.40537
11
8.03979
21
-9.411
0
LINE
8
BLACK
6
CONTINUOUS
10
8.03979
20
-9.411
11
8.02854
21
-9.41662
0
LINE
8
BLACK
6
CONTINUOUS
10
8.02854
20
-9.41662
11
8.01729
21
-9.41662
0
LINE
8
BLACK
6
CONTINUOUS
10
8.01729
20
-9.41662
11
8.00605
21
-9.411
0
LINE
8
BLACK
6
CONTINUOUS
10
8.00605
20
-9.411
11
8.00042
21
-9.40537
0
LINE
8
BLACK
6
CONTINUOUS
10
8.00042
20
-9.40537
11
7.9948
21
-9.39412
0
LINE
8
BLACK
6
CONTINUOUS
10
7.9948
20
-9.39412
11
7.98917
21
-9.37163
0
LINE
8
BLACK
6
CONTINUOUS
10
7.98917
20
-9.37163
11
7.98917
21
-9.3435
0
LINE
8
BLACK
6
CONTINUOUS
10
7.98917
20
-9.3435
11
7.9948
21
-9.32101
0
LINE
8
BLACK
6
CONTINUOUS
10
7.9948
20
-9.32101
11
8.00042
21
-9.30976
0
LINE
8
BLACK
6
CONTINUOUS
10
8.00042
20
-9.30976
11
8.00605
21
-9.30413
0
LINE
8
BLACK
6
CONTINUOUS
10
8.00605
20
-9.30413
11
8.01729
21
-9.29851
0
LINE
8
BLACK
6
CONTINUOUS
10
8.10166
20
-9.29851
11
8.10166
21
-9.32101
0
LINE
8
BLACK
6
CONTINUOUS
10
8.14665
20
-9.29851
11
8.14665
21
-9.32101
0
LINE
8
BLACK
6
CONTINUOUS
10
8.32101
20
-9.46161
11
8.31538
21
-9.45599
0
LINE
8
BLACK
6
CONTINUOUS
10
8.31538
20
-9.45599
11
8.30413
21
-9.43912
0
LINE
8
BLACK
6
CONTINUOUS
10
8.30413
20
-9.43912
11
8.29851
21
-9.42787
0
LINE
8
BLACK
6
CONTINUOUS
10
8.29851
20
-9.42787
11
8.29289
21
-9.411
0
LINE
8
BLACK
6
CONTINUOUS
10
8.29289
20
-9.411
11
8.28726
21
-9.38287
0
LINE
8
BLACK
6
CONTINUOUS
10
8.28726
20
-9.38287
11
8.28726
21
-9.36038
0
LINE
8
BLACK
6
CONTINUOUS
10
8.28726
20
-9.36038
11
8.29289
21
-9.33226
0
LINE
8
BLACK
6
CONTINUOUS
10
8.29289
20
-9.33226
11
8.29851
21
-9.31538
0
LINE
8
BLACK
6
CONTINUOUS
10
8.29851
20
-9.31538
11
8.30413
21
-9.30413
0
LINE
8
BLACK
6
CONTINUOUS
10
8.30413
20
-9.30413
11
8.31538
21
-9.28726
0
LINE
8
BLACK
6
CONTINUOUS
10
8.31538
20
-9.28726
11
8.32101
21
-9.28164
0
LINE
8
BLACK
6
CONTINUOUS
10
8.36038
20
-9.30976
11
8.366
21
-9.30413
0
LINE
8
BLACK
6
CONTINUOUS
10
8.366
20
-9.30413
11
8.37725
21
-9.29851
0
LINE
8
BLACK
6
CONTINUOUS
10
8.37725
20
-9.29851
11
8.40537
21
-9.29851
0
LINE
8
BLACK
6
CONTINUOUS
10
8.40537
20
-9.29851
11
8.41662
21
-9.30413
0
LINE
8
BLACK
6
CONTINUOUS
10
8.41662
20
-9.30413
11
8.42224
21
-9.30976
0
LINE
8
BLACK
6
CONTINUOUS
10
8.42224
20
-9.30976
11
8.42787
21
-9.32101
0
LINE
8
BLACK
6
CONTINUOUS
10
8.42787
20
-9.32101
11
8.42787
21
-9.33226
0
LINE
8
BLACK
6
CONTINUOUS
10
8.42787
20
-9.33226
11
8.42224
21
-9.34913
0
LINE
8
BLACK
6
CONTINUOUS
10
8.42224
20
-9.34913
11
8.35475
21
-9.41662
0
LINE
8
BLACK
6
CONTINUOUS
10
8.35475
20
-9.41662
11
8.42787
21
-9.41662
0
LINE
8
BLACK
6
CONTINUOUS
10
8.47286
20
-9.30976
11
8.47849
21
-9.30413
0
LINE
8
BLACK
6
CONTINUOUS
10
8.47849
20
-9.30413
11
8.48974
21
-9.29851
0
LINE
8
BLACK
6
CONTINUOUS
10
8.48974
20
-9.29851
11
8.51786
21
-9.29851
0
LINE
8
BLACK
6
CONTINUOUS
10
8.51786
20
-9.29851
11
8.52911
21
-9.30413
0
LINE
8
BLACK
6
CONTINUOUS
10
8.52911
20
-9.30413
11
8.53473
21
-9.30976
0
LINE
8
BLACK
6
CONTINUOUS
10
8.53473
20
-9.30976
11
8.54035
21
-9.32101
0
LINE
8
BLACK
6
CONTINUOUS
10
8.54035
20
-9.32101
11
8.54035
21
-9.33226
0
LINE
8
BLACK
6
CONTINUOUS
10
8.54035
20
-9.33226
11
8.53473
21
-9.34913
0
LINE
8
BLACK
6
CONTINUOUS
10
8.53473
20
-9.34913
11
8.46724
21
-9.41662
0
LINE
8
BLACK
6
CONTINUOUS
10
8.46724
20
-9.41662
11
8.54035
21
-9.41662
0
LINE
8
BLACK
6
CONTINUOUS
10
8.58535
20
-9.30976
11
8.59097
21
-9.30413
0
LINE
8
BLACK
6
CONTINUOUS
10
8.59097
20
-9.30413
11
8.60222
21
-9.29851
0
LINE
8
BLACK
6
CONTINUOUS
10
8.60222
20
-9.29851
11
8.63034
21
-9.29851
0
LINE
8
BLACK
6
CONTINUOUS
10
8.63034
20
-9.29851
11
8.64159
21
-9.30413
0
LINE
8
BLACK
6
CONTINUOUS
10
8.64159
20
-9.30413
11
8.64722
21
-9.30976
0
LINE
8
BLACK
6
CONTINUOUS
10
8.64722
20
-9.30976
11
8.65284
21
-9.32101
0
LINE
8
BLACK
6
CONTINUOUS
10
8.65284
20
-9.32101
11
8.65284
21
-9.33226
0
LINE
8
BLACK
6
CONTINUOUS
10
8.65284
20
-9.33226
11
8.64722
21
-9.34913
0
LINE
8
BLACK
6
CONTINUOUS
10
8.64722
20
-9.34913
11
8.57972
21
-9.41662
0
LINE
8
BLACK
6
CONTINUOUS
10
8.57972
20
-9.41662
11
8.65284
21
-9.41662
0
LINE
8
BLACK
6
CONTINUOUS
10
8.79345
20
-9.41662
11
8.79345
21
-9.29851
0
LINE
8
BLACK
6
CONTINUOUS
10
8.84407
20
-9.41662
11
8.84407
21
-9.35475
0
LINE
8
BLACK
6
CONTINUOUS
10
8.84407
20
-9.35475
11
8.83844
21
-9.3435
0
LINE
8
BLACK
6
CONTINUOUS
10
8.83844
20
-9.3435
11
8.82719
21
-9.33788
0
LINE
8
BLACK
6
CONTINUOUS
10
8.82719
20
-9.33788
11
8.81032
21
-9.33788
0
LINE
8
BLACK
6
CONTINUOUS
10
8.81032
20
-9.33788
11
8.79907
21
-9.3435
0
LINE
8
BLACK
6
CONTINUOUS
10
8.79907
20
-9.3435
11
8.79345
21
-9.34913
0
LINE
8
BLACK
6
CONTINUOUS
10
8.91718
20
-9.41662
11
8.90593
21
-9.411
0
LINE
8
BLACK
6
CONTINUOUS
10
8.90593
20
-9.411
11
8.90031
21
-9.40537
0
LINE
8
BLACK
6
CONTINUOUS
10
8.90031
20
-9.40537
11
8.89468
21
-9.39412
0
LINE
8
BLACK
6
CONTINUOUS
10
8.89468
20
-9.39412
11
8.89468
21
-9.36038
0
LINE
8
BLACK
6
CONTINUOUS
10
8.89468
20
-9.36038
11
8.90031
21
-9.34913
0
LINE
8
BLACK
6
CONTINUOUS
10
8.90031
20
-9.34913
11
8.90593
21
-9.3435
0
LINE
8
BLACK
6
CONTINUOUS
10
8.90593
20
-9.3435
11
8.91718
21
-9.33788
0
LINE
8
BLACK
6
CONTINUOUS
10
8.91718
20
-9.33788
11
8.93406
21
-9.33788
0
LINE
8
BLACK
6
CONTINUOUS
10
8.93406
20
-9.33788
11
8.9453
21
-9.3435
0
LINE
8
BLACK
6
CONTINUOUS
10
8.9453
20
-9.3435
11
8.95093
21
-9.34913
0
LINE
8
BLACK
6
CONTINUOUS
10
8.95093
20
-9.34913
11
8.95655
21
-9.36038
0
LINE
8
BLACK
6
CONTINUOUS
10
8.95655
20
-9.36038
11
8.95655
21
-9.39412
0
LINE
8
BLACK
6
CONTINUOUS
10
8.95655
20
-9.39412
11
8.95093
21
-9.40537
0
LINE
8
BLACK
6
CONTINUOUS
10
8.95093
20
-9.40537
11
8.9453
21
-9.411
0
LINE
8
BLACK
6
CONTINUOUS
10
8.9453
20
-9.411
11
8.93406
21
-9.41662
0
LINE
8
BLACK
6
CONTINUOUS
10
8.93406
20
-9.41662
11
8.91718
21
-9.41662
0
LINE
8
BLACK
6
CONTINUOUS
10
9.02404
20
-9.41662
11
9.0128
21
-9.411
0
LINE
8
BLACK
6
CONTINUOUS
10
9.0128
20
-9.411
11
9.00717
21
-9.39975
0
LINE
8
BLACK
6
CONTINUOUS
10
9.00717
20
-9.39975
11
9.00717
21
-9.29851
0
LINE
8
BLACK
6
CONTINUOUS
10
9.11403
20
-9.411
11
9.10278
21
-9.41662
0
LINE
8
BLACK
6
CONTINUOUS
10
9.10278
20
-9.41662
11
9.08029
21
-9.41662
0
LINE
8
BLACK
6
CONTINUOUS
10
9.08029
20
-9.41662
11
9.06904
21
-9.411
0
LINE
8
BLACK
6
CONTINUOUS
10
9.06904
20
-9.411
11
9.06341
21
-9.39975
0
LINE
8
BLACK
6
CONTINUOUS
10
9.06341
20
-9.39975
11
9.06341
21
-9.35475
0
LINE
8
BLACK
6
CONTINUOUS
10
9.06341
20
-9.35475
11
9.06904
21
-9.3435
0
LINE
8
BLACK
6
CONTINUOUS
10
9.06904
20
-9.3435
11
9.08029
21
-9.33788
0
LINE
8
BLACK
6
CONTINUOUS
10
9.08029
20
-9.33788
11
9.10278
21
-9.33788
0
LINE
8
BLACK
6
CONTINUOUS
10
9.10278
20
-9.33788
11
9.11403
21
-9.3435
0
LINE
8
BLACK
6
CONTINUOUS
10
9.11403
20
-9.3435
11
9.11966
21
-9.35475
0
LINE
8
BLACK
6
CONTINUOUS
10
9.11966
20
-9.35475
11
9.11966
21
-9.366
0
LINE
8
BLACK
6
CONTINUOUS
10
9.11966
20
-9.366
11
9.06341
21
-9.37725
0
LINE
8
BLACK
6
CONTINUOUS
10
9.16465
20
-9.411
11
9.1759
21
-9.41662
0
LINE
8
BLACK
6
CONTINUOUS
10
9.1759
20
-9.41662
11
9.1984
21
-9.41662
0
LINE
8
BLACK
6
CONTINUOUS
10
9.1984
20
-9.41662
11
9.20965
21
-9.411
0
LINE
8
BLACK
6
CONTINUOUS
10
9.20965
20
-9.411
11
9.21527
21
-9.39975
0
LINE
8
BLACK
6
CONTINUOUS
10
9.21527
20
-9.39975
11
9.21527
21
-9.39412
0
LINE
8
BLACK
6
CONTINUOUS
10
9.21527
20
-9.39412
11
9.20965
21
-9.38287
0
LINE
8
BLACK
6
CONTINUOUS
10
9.20965
20
-9.38287
11
9.1984
21
-9.37725
0
LINE
8
BLACK
6
CONTINUOUS
10
9.1984
20
-9.37725
11
9.18152
21
-9.37725
0
LINE
8
BLACK
6
CONTINUOUS
10
9.18152
20
-9.37725
11
9.17028
21
-9.37163
0
LINE
8
BLACK
6
CONTINUOUS
10
9.17028
20
-9.37163
11
9.16465
21
-9.36038
0
LINE
8
BLACK
6
CONTINUOUS
10
9.16465
20
-9.36038
11
9.16465
21
-9.35475
0
LINE
8
BLACK
6
CONTINUOUS
10
9.16465
20
-9.35475
11
9.17028
21
-9.3435
0
LINE
8
BLACK
6
CONTINUOUS
10
9.17028
20
-9.3435
11
9.18152
21
-9.33788
0
LINE
8
BLACK
6
CONTINUOUS
10
9.18152
20
-9.33788
11
9.1984
21
-9.33788
0
LINE
8
BLACK
6
CONTINUOUS
10
9.1984
20
-9.33788
11
9.20965
21
-9.3435
0
LINE
8
BLACK
6
CONTINUOUS
10
9.25464
20
-9.46161
11
9.26026
21
-9.45599
0
LINE
8
BLACK
6
CONTINUOUS
10
9.26026
20
-9.45599
11
9.27151
21
-9.43912
0
LINE
8
BLACK
6
CONTINUOUS
10
9.27151
20
-9.43912
11
9.27714
21
-9.42787
0
LINE
8
BLACK
6
CONTINUOUS
10
9.27714
20
-9.42787
11
9.28276
21
-9.411
0
LINE
8
BLACK
6
CONTINUOUS
10
9.28276
20
-9.411
11
9.28839
21
-9.38287
0
LINE
8
BLACK
6
CONTINUOUS
10
9.28839
20
-9.38287
11
9.28839
21
-9.36038
0
LINE
8
BLACK
6
CONTINUOUS
10
9.28839
20
-9.36038
11
9.28276
21
-9.33226
0
LINE
8
BLACK
6
CONTINUOUS
10
9.28276
20
-9.33226
11
9.27714
21
-9.31538
0
LINE
8
BLACK
6
CONTINUOUS
10
9.27714
20
-9.31538
11
9.27151
21
-9.30413
0
LINE
8
BLACK
6
CONTINUOUS
10
9.27151
20
-9.30413
11
9.26026
21
-9.28726
0
LINE
8
BLACK
6
CONTINUOUS
10
9.26026
20
-9.28726
11
9.25464
21
-9.28164
0
CIRCLE
8
BLACK
10
6.24448
20
-9.51909
40
0.0065
0
LINE
8
BLACK
6
CONTINUOUS
10
6.38625
20
-9.45442
11
6.3975
21
-9.45442
0
LINE
8
BLACK
6
CONTINUOUS
10
6.3975
20
-9.45442
11
6.40875
21
-9.46004
0
LINE
8
BLACK
6
CONTINUOUS
10
6.40875
20
-9.46004
11
6.41437
21
-9.46566
0
LINE
8
BLACK
6
CONTINUOUS
10
6.41437
20
-9.46566
11
6.41999
21
-9.47691
0
LINE
8
BLACK
6
CONTINUOUS
10
6.41999
20
-9.47691
11
6.42562
21
-9.49941
0
LINE
8
BLACK
6
CONTINUOUS
10
6.42562
20
-9.49941
11
6.42562
21
-9.52753
0
LINE
8
BLACK
6
CONTINUOUS
10
6.42562
20
-9.52753
11
6.41999
21
-9.55003
0
LINE
8
BLACK
6
CONTINUOUS
10
6.41999
20
-9.55003
11
6.41437
21
-9.56128
0
LINE
8
BLACK
6
CONTINUOUS
10
6.41437
20
-9.56128
11
6.40875
21
-9.5669
0
LINE
8
BLACK
6
CONTINUOUS
10
6.40875
20
-9.5669
11
6.3975
21
-9.57253
0
LINE
8
BLACK
6
CONTINUOUS
10
6.3975
20
-9.57253
11
6.38625
21
-9.57253
0
LINE
8
BLACK
6
CONTINUOUS
10
6.38625
20
-9.57253
11
6.375
21
-9.5669
0
LINE
8
BLACK
6
CONTINUOUS
10
6.375
20
-9.5669
11
6.36938
21
-9.56128
0
LINE
8
BLACK
6
CONTINUOUS
10
6.36938
20
-9.56128
11
6.36375
21
-9.55003
0
LINE
8
BLACK
6
CONTINUOUS
10
6.36375
20
-9.55003
11
6.35813
21
-9.52753
0
LINE
8
BLACK
6
CONTINUOUS
10
6.35813
20
-9.52753
11
6.35813
21
-9.49941
0
LINE
8
BLACK
6
CONTINUOUS
10
6.35813
20
-9.49941
11
6.36375
21
-9.47691
0
LINE
8
BLACK
6
CONTINUOUS
10
6.36375
20
-9.47691
11
6.36938
21
-9.46566
0
LINE
8
BLACK
6
CONTINUOUS
10
6.36938
20
-9.46566
11
6.375
21
-9.46004
0
LINE
8
BLACK
6
CONTINUOUS
10
6.375
20
-9.46004
11
6.38625
21
-9.45442
0
LINE
8
BLACK
6
CONTINUOUS
10
6.47624
20
-9.56128
11
6.48186
21
-9.5669
0
LINE
8
BLACK
6
CONTINUOUS
10
6.48186
20
-9.5669
11
6.47624
21
-9.57253
0
LINE
8
BLACK
6
CONTINUOUS
10
6.47624
20
-9.57253
11
6.47061
21
-9.5669
0
LINE
8
BLACK
6
CONTINUOUS
10
6.47061
20
-9.5669
11
6.47624
21
-9.56128
0
LINE
8
BLACK
6
CONTINUOUS
10
6.47624
20
-9.56128
11
6.47624
21
-9.57253
0
LINE
8
BLACK
6
CONTINUOUS
10
6.52123
20
-9.45442
11
6.59435
21
-9.45442
0
LINE
8
BLACK
6
CONTINUOUS
10
6.59435
20
-9.45442
11
6.55498
21
-9.49941
0
LINE
8
BLACK
6
CONTINUOUS
10
6.55498
20
-9.49941
11
6.57185
21
-9.49941
0
LINE
8
BLACK
6
CONTINUOUS
10
6.57185
20
-9.49941
11
6.5831
21
-9.50503
0
LINE
8
BLACK
6
CONTINUOUS
10
6.5831
20
-9.50503
11
6.58872
21
-9.51066
0
LINE
8
BLACK
6
CONTINUOUS
10
6.58872
20
-9.51066
11
6.59435
21
-9.52191
0
LINE
8
BLACK
6
CONTINUOUS
10
6.59435
20
-9.52191
11
6.59435
21
-9.55003
0
LINE
8
BLACK
6
CONTINUOUS
10
6.59435
20
-9.55003
11
6.58872
21
-9.56128
0
LINE
8
BLACK
6
CONTINUOUS
10
6.58872
20
-9.56128
11
6.5831
21
-9.5669
0
LINE
8
BLACK
6
CONTINUOUS
10
6.5831
20
-9.5669
11
6.57185
21
-9.57253
0
LINE
8
BLACK
6
CONTINUOUS
10
6.57185
20
-9.57253
11
6.5381
21
-9.57253
0
LINE
8
BLACK
6
CONTINUOUS
10
6.5381
20
-9.57253
11
6.52686
21
-9.5669
0
LINE
8
BLACK
6
CONTINUOUS
10
6.52686
20
-9.5669
11
6.52123
21
-9.56128
0
LINE
8
BLACK
6
CONTINUOUS
10
6.63372
20
-9.45442
11
6.70683
21
-9.45442
0
LINE
8
BLACK
6
CONTINUOUS
10
6.70683
20
-9.45442
11
6.66746
21
-9.49941
0
LINE
8
BLACK
6
CONTINUOUS
10
6.66746
20
-9.49941
11
6.68434
21
-9.49941
0
LINE
8
BLACK
6
CONTINUOUS
10
6.68434
20
-9.49941
11
6.69558
21
-9.50503
0
LINE
8
BLACK
6
CONTINUOUS
10
6.69558
20
-9.50503
11
6.70121
21
-9.51066
0
LINE
8
BLACK
6
CONTINUOUS
10
6.70121
20
-9.51066
11
6.70683
21
-9.52191
0
LINE
8
BLACK
6
CONTINUOUS
10
6.70683
20
-9.52191
11
6.70683
21
-9.55003
0
LINE
8
BLACK
6
CONTINUOUS
10
6.70683
20
-9.55003
11
6.70121
21
-9.56128
0
LINE
8
BLACK
6
CONTINUOUS
10
6.70121
20
-9.56128
11
6.69558
21
-9.5669
0
LINE
8
BLACK
6
CONTINUOUS
10
6.69558
20
-9.5669
11
6.68434
21
-9.57253
0
LINE
8
BLACK
6
CONTINUOUS
10
6.68434
20
-9.57253
11
6.65059
21
-9.57253
0
LINE
8
BLACK
6
CONTINUOUS
10
6.65059
20
-9.57253
11
6.63934
21
-9.5669
0
LINE
8
BLACK
6
CONTINUOUS
10
6.63934
20
-9.5669
11
6.63372
21
-9.56128
0
LINE
8
BLACK
6
CONTINUOUS
10
6.77995
20
-9.45442
11
6.7912
21
-9.45442
0
LINE
8
BLACK
6
CONTINUOUS
10
6.7912
20
-9.45442
11
6.80245
21
-9.46004
0
LINE
8
BLACK
6
CONTINUOUS
10
6.80245
20
-9.46004
11
6.80807
21
-9.46566
0
LINE
8
BLACK
6
CONTINUOUS
10
6.80807
20
-9.46566
11
6.8137
21
-9.47691
0
LINE
8
BLACK
6
CONTINUOUS
10
6.8137
20
-9.47691
11
6.81932
21
-9.49941
0
LINE
8
BLACK
6
CONTINUOUS
10
6.81932
20
-9.49941
11
6.81932
21
-9.52753
0
LINE
8
BLACK
6
CONTINUOUS
10
6.81932
20
-9.52753
11
6.8137
21
-9.55003
0
LINE
8
BLACK
6
CONTINUOUS
10
6.8137
20
-9.55003
11
6.80807
21
-9.56128
0
LINE
8
BLACK
6
CONTINUOUS
10
6.80807
20
-9.56128
11
6.80245
21
-9.5669
0
LINE
8
BLACK
6
CONTINUOUS
10
6.80245
20
-9.5669
11
6.7912
21
-9.57253
0
LINE
8
BLACK
6
CONTINUOUS
10
6.7912
20
-9.57253
11
6.77995
21
-9.57253
0
LINE
8
BLACK
6
CONTINUOUS
10
6.77995
20
-9.57253
11
6.7687
21
-9.5669
0
LINE
8
BLACK
6
CONTINUOUS
10
6.7687
20
-9.5669
11
6.76308
21
-9.56128
0
LINE
8
BLACK
6
CONTINUOUS
10
6.76308
20
-9.56128
11
6.75745
21
-9.55003
0
LINE
8
BLACK
6
CONTINUOUS
10
6.75745
20
-9.55003
11
6.75183
21
-9.52753
0
LINE
8
BLACK
6
CONTINUOUS
10
6.75183
20
-9.52753
11
6.75183
21
-9.49941
0
LINE
8
BLACK
6
CONTINUOUS
10
6.75183
20
-9.49941
11
6.75745
21
-9.47691
0
LINE
8
BLACK
6
CONTINUOUS
10
6.75745
20
-9.47691
11
6.76308
21
-9.46566
0
LINE
8
BLACK
6
CONTINUOUS
10
6.76308
20
-9.46566
11
6.7687
21
-9.46004
0
LINE
8
BLACK
6
CONTINUOUS
10
6.7687
20
-9.46004
11
6.77995
21
-9.45442
0
LINE
8
BLACK
6
CONTINUOUS
10
6.86994
20
-9.57253
11
6.86994
21
-9.49379
0
LINE
8
BLACK
6
CONTINUOUS
10
6.86994
20
-9.50503
11
6.87556
21
-9.49941
0
LINE
8
BLACK
6
CONTINUOUS
10
6.87556
20
-9.49941
11
6.88681
21
-9.49379
0
LINE
8
BLACK
6
CONTINUOUS
10
6.88681
20
-9.49379
11
6.90368
21
-9.49379
0
LINE
8
BLACK
6
CONTINUOUS
10
6.90368
20
-9.49379
11
6.91493
21
-9.49941
0
LINE
8
BLACK
6
CONTINUOUS
10
6.91493
20
-9.49941
11
6.92056
21
-9.51066
0
LINE
8
BLACK
6
CONTINUOUS
10
6.92056
20
-9.51066
11
6.92056
21
-9.57253
0
LINE
8
BLACK
6
CONTINUOUS
10
6.92056
20
-9.51066
11
6.92618
21
-9.49941
0
LINE
8
BLACK
6
CONTINUOUS
10
6.92618
20
-9.49941
11
6.93743
21
-9.49379
0
LINE
8
BLACK
6
CONTINUOUS
10
6.93743
20
-9.49379
11
6.9543
21
-9.49379
0
LINE
8
BLACK
6
CONTINUOUS
10
6.9543
20
-9.49379
11
6.96555
21
-9.49941
0
LINE
8
BLACK
6
CONTINUOUS
10
6.96555
20
-9.49941
11
6.97118
21
-9.51066
0
LINE
8
BLACK
6
CONTINUOUS
10
6.97118
20
-9.51066
11
6.97118
21
-9.57253
0
LINE
8
BLACK
6
CONTINUOUS
10
7.02742
20
-9.57253
11
7.02742
21
-9.49379
0
LINE
8
BLACK
6
CONTINUOUS
10
7.02742
20
-9.50503
11
7.03304
21
-9.49941
0
LINE
8
BLACK
6
CONTINUOUS
10
7.03304
20
-9.49941
11
7.04429
21
-9.49379
0
LINE
8
BLACK
6
CONTINUOUS
10
7.04429
20
-9.49379
11
7.06116
21
-9.49379
0
LINE
8
BLACK
6
CONTINUOUS
10
7.06116
20
-9.49379
11
7.07241
21
-9.49941
0
LINE
8
BLACK
6
CONTINUOUS
10
7.07241
20
-9.49941
11
7.07804
21
-9.51066
0
LINE
8
BLACK
6
CONTINUOUS
10
7.07804
20
-9.51066
11
7.07804
21
-9.57253
0
LINE
8
BLACK
6
CONTINUOUS
10
7.07804
20
-9.51066
11
7.08366
21
-9.49941
0
LINE
8
BLACK
6
CONTINUOUS
10
7.08366
20
-9.49941
11
7.09491
21
-9.49379
0
LINE
8
BLACK
6
CONTINUOUS
10
7.09491
20
-9.49379
11
7.11178
21
-9.49379
0
LINE
8
BLACK
6
CONTINUOUS
10
7.11178
20
-9.49379
11
7.12303
21
-9.49941
0
LINE
8
BLACK
6
CONTINUOUS
10
7.12303
20
-9.49941
11
7.12866
21
-9.51066
0
LINE
8
BLACK
6
CONTINUOUS
10
7.12866
20
-9.51066
11
7.12866
21
-9.57253
0
LINE
8
BLACK
6
CONTINUOUS
10
7.35925
20
-9.44879
11
7.25801
21
-9.60065
0
LINE
8
BLACK
6
CONTINUOUS
10
7.51111
20
-9.45442
11
7.52236
21
-9.45442
0
LINE
8
BLACK
6
CONTINUOUS
10
7.52236
20
-9.45442
11
7.53361
21
-9.46004
0
LINE
8
BLACK
6
CONTINUOUS
10
7.53361
20
-9.46004
11
7.53923
21
-9.46566
0
LINE
8
BLACK
6
CONTINUOUS
10
7.53923
20
-9.46566
11
7.54485
21
-9.47691
0
LINE
8
BLACK
6
CONTINUOUS
10
7.54485
20
-9.47691
11
7.55048
21
-9.49941
0
LINE
8
BLACK
6
CONTINUOUS
10
7.55048
20
-9.49941
11
7.55048
21
-9.52753
0
LINE
8
BLACK
6
CONTINUOUS
10
7.55048
20
-9.52753
11
7.54485
21
-9.55003
0
LINE
8
BLACK
6
CONTINUOUS
10
7.54485
20
-9.55003
11
7.53923
21
-9.56128
0
LINE
8
BLACK
6
CONTINUOUS
10
7.53923
20
-9.56128
11
7.53361
21
-9.5669
0
LINE
8
BLACK
6
CONTINUOUS
10
7.53361
20
-9.5669
11
7.52236
21
-9.57253
0
LINE
8
BLACK
6
CONTINUOUS
10
7.52236
20
-9.57253
11
7.51111
21
-9.57253
0
LINE
8
BLACK
6
CONTINUOUS
10
7.51111
20
-9.57253
11
7.49986
21
-9.5669
0
LINE
8
BLACK
6
CONTINUOUS
10
7.49986
20
-9.5669
11
7.49424
21
-9.56128
0
LINE
8
BLACK
6
CONTINUOUS
10
7.49424
20
-9.56128
11
7.48861
21
-9.55003
0
LINE
8
BLACK
6
CONTINUOUS
10
7.48861
20
-9.55003
11
7.48299
21
-9.52753
0
LINE
8
BLACK
6
CONTINUOUS
10
7.48299
20
-9.52753
11
7.48299
21
-9.49941
0
LINE
8
BLACK
6
CONTINUOUS
10
7.48299
20
-9.49941
11
7.48861
21
-9.47691
0
LINE
8
BLACK
6
CONTINUOUS
10
7.48861
20
-9.47691
11
7.49424
21
-9.46566
0
LINE
8
BLACK
6
CONTINUOUS
10
7.49424
20
-9.46566
11
7.49986
21
-9.46004
0
LINE
8
BLACK
6
CONTINUOUS
10
7.49986
20
-9.46004
11
7.51111
21
-9.45442
0
LINE
8
BLACK
6
CONTINUOUS
10
7.6011
20
-9.56128
11
7.60672
21
-9.5669
0
LINE
8
BLACK
6
CONTINUOUS
10
7.60672
20
-9.5669
11
7.6011
21
-9.57253
0
LINE
8
BLACK
6
CONTINUOUS
10
7.6011
20
-9.57253
11
7.59547
21
-9.5669
0
LINE
8
BLACK
6
CONTINUOUS
10
7.59547
20
-9.5669
11
7.6011
21
-9.56128
0
LINE
8
BLACK
6
CONTINUOUS
10
7.6011
20
-9.56128
11
7.6011
21
-9.57253
0
LINE
8
BLACK
6
CONTINUOUS
10
7.67984
20
-9.45442
11
7.69109
21
-9.45442
0
LINE
8
BLACK
6
CONTINUOUS
10
7.69109
20
-9.45442
11
7.70233
21
-9.46004
0
LINE
8
BLACK
6
CONTINUOUS
10
7.70233
20
-9.46004
11
7.70796
21
-9.46566
0
LINE
8
BLACK
6
CONTINUOUS
10
7.70796
20
-9.46566
11
7.71358
21
-9.47691
0
LINE
8
BLACK
6
CONTINUOUS
10
7.71358
20
-9.47691
11
7.71921
21
-9.49941
0
LINE
8
BLACK
6
CONTINUOUS
10
7.71921
20
-9.49941
11
7.71921
21
-9.52753
0
LINE
8
BLACK
6
CONTINUOUS
10
7.71921
20
-9.52753
11
7.71358
21
-9.55003
0
LINE
8
BLACK
6
CONTINUOUS
10
7.71358
20
-9.55003
11
7.70796
21
-9.56128
0
LINE
8
BLACK
6
CONTINUOUS
10
7.70796
20
-9.56128
11
7.70233
21
-9.5669
0
LINE
8
BLACK
6
CONTINUOUS
10
7.70233
20
-9.5669
11
7.69109
21
-9.57253
0
LINE
8
BLACK
6
CONTINUOUS
10
7.69109
20
-9.57253
11
7.67984
21
-9.57253
0
LINE
8
BLACK
6
CONTINUOUS
10
7.67984
20
-9.57253
11
7.66859
21
-9.5669
0
LINE
8
BLACK
6
CONTINUOUS
10
7.66859
20
-9.5669
11
7.66296
21
-9.56128
0
LINE
8
BLACK
6
CONTINUOUS
10
7.66296
20
-9.56128
11
7.65734
21
-9.55003
0
LINE
8
BLACK
6
CONTINUOUS
10
7.65734
20
-9.55003
11
7.65172
21
-9.52753
0
LINE
8
BLACK
6
CONTINUOUS
10
7.65172
20
-9.52753
11
7.65172
21
-9.49941
0
LINE
8
BLACK
6
CONTINUOUS
10
7.65172
20
-9.49941
11
7.65734
21
-9.47691
0
LINE
8
BLACK
6
CONTINUOUS
10
7.65734
20
-9.47691
11
7.66296
21
-9.46566
0
LINE
8
BLACK
6
CONTINUOUS
10
7.66296
20
-9.46566
11
7.66859
21
-9.46004
0
LINE
8
BLACK
6
CONTINUOUS
10
7.66859
20
-9.46004
11
7.67984
21
-9.45442
0
LINE
8
BLACK
6
CONTINUOUS
10
7.83169
20
-9.57253
11
7.7642
21
-9.57253
0
LINE
8
BLACK
6
CONTINUOUS
10
7.79795
20
-9.57253
11
7.79795
21
-9.45442
0
LINE
8
BLACK
6
CONTINUOUS
10
7.79795
20
-9.45442
11
7.7867
21
-9.47129
0
LINE
8
BLACK
6
CONTINUOUS
10
7.7867
20
-9.47129
11
7.77545
21
-9.48254
0
LINE
8
BLACK
6
CONTINUOUS
10
7.77545
20
-9.48254
11
7.7642
21
-9.48816
0
LINE
8
BLACK
6
CONTINUOUS
10
7.87106
20
-9.45442
11
7.94418
21
-9.45442
0
LINE
8
BLACK
6
CONTINUOUS
10
7.94418
20
-9.45442
11
7.90481
21
-9.49941
0
LINE
8
BLACK
6
CONTINUOUS
10
7.90481
20
-9.49941
11
7.92168
21
-9.49941
0
LINE
8
BLACK
6
CONTINUOUS
10
7.92168
20
-9.49941
11
7.93293
21
-9.50503
0
LINE
8
BLACK
6
CONTINUOUS
10
7.93293
20
-9.50503
11
7.93855
21
-9.51066
0
LINE
8
BLACK
6
CONTINUOUS
10
7.93855
20
-9.51066
11
7.94418
21
-9.52191
0
LINE
8
BLACK
6
CONTINUOUS
10
7.94418
20
-9.52191
11
7.94418
21
-9.55003
0
LINE
8
BLACK
6
CONTINUOUS
10
7.94418
20
-9.55003
11
7.93855
21
-9.56128
0
LINE
8
BLACK
6
CONTINUOUS
10
7.93855
20
-9.56128
11
7.93293
21
-9.5669
0
LINE
8
BLACK
6
CONTINUOUS
10
7.93293
20
-9.5669
11
7.92168
21
-9.57253
0
LINE
8
BLACK
6
CONTINUOUS
10
7.92168
20
-9.57253
11
7.88794
21
-9.57253
0
LINE
8
BLACK
6
CONTINUOUS
10
7.88794
20
-9.57253
11
7.87669
21
-9.5669
0
LINE
8
BLACK
6
CONTINUOUS
10
7.87669
20
-9.5669
11
7.87106
21
-9.56128
0
LINE
8
BLACK
6
CONTINUOUS
10
8.01729
20
-9.45442
11
8.02854
21
-9.45442
0
LINE
8
BLACK
6
CONTINUOUS
10
8.02854
20
-9.45442
11
8.03979
21
-9.46004
0
LINE
8
BLACK
6
CONTINUOUS
10
8.03979
20
-9.46004
11
8.04542
21
-9.46566
0
LINE
8
BLACK
6
CONTINUOUS
10
8.04542
20
-9.46566
11
8.05104
21
-9.47691
0
LINE
8
BLACK
6
CONTINUOUS
10
8.05104
20
-9.47691
11
8.05666
21
-9.49941
0
LINE
8
BLACK
6
CONTINUOUS
10
8.05666
20
-9.49941
11
8.05666
21
-9.52753
0
LINE
8
BLACK
6
CONTINUOUS
10
8.05666
20
-9.52753
11
8.05104
21
-9.55003
0
LINE
8
BLACK
6
CONTINUOUS
10
8.05104
20
-9.55003
11
8.04542
21
-9.56128
0
LINE
8
BLACK
6
CONTINUOUS
10
8.04542
20
-9.56128
11
8.03979
21
-9.5669
0
LINE
8
BLACK
6
CONTINUOUS
10
8.03979
20
-9.5669
11
8.02854
21
-9.57253
0
LINE
8
BLACK
6
CONTINUOUS
10
8.02854
20
-9.57253
11
8.01729
21
-9.57253
0
LINE
8
BLACK
6
CONTINUOUS
10
8.01729
20
-9.57253
11
8.00605
21
-9.5669
0
LINE
8
BLACK
6
CONTINUOUS
10
8.00605
20
-9.5669
11
8.00042
21
-9.56128
0
LINE
8
BLACK
6
CONTINUOUS
10
8.00042
20
-9.56128
11
7.9948
21
-9.55003
0
LINE
8
BLACK
6
CONTINUOUS
10
7.9948
20
-9.55003
11
7.98917
21
-9.52753
0
LINE
8
BLACK
6
CONTINUOUS
10
7.98917
20
-9.52753
11
7.98917
21
-9.49941
0
LINE
8
BLACK
6
CONTINUOUS
10
7.98917
20
-9.49941
11
7.9948
21
-9.47691
0
LINE
8
BLACK
6
CONTINUOUS
10
7.9948
20
-9.47691
11
8.00042
21
-9.46566
0
LINE
8
BLACK
6
CONTINUOUS
10
8.00042
20
-9.46566
11
8.00605
21
-9.46004
0
LINE
8
BLACK
6
CONTINUOUS
10
8.00605
20
-9.46004
11
8.01729
21
-9.45442
0
LINE
8
BLACK
6
CONTINUOUS
10
8.10166
20
-9.45442
11
8.10166
21
-9.47691
0
LINE
8
BLACK
6
CONTINUOUS
10
8.14665
20
-9.45442
11
8.14665
21
-9.47691
0
LINE
8
BLACK
6
CONTINUOUS
10
8.32101
20
-9.61752
11
8.31538
21
-9.6119
0
LINE
8
BLACK
6
CONTINUOUS
10
8.31538
20
-9.6119
11
8.30413
21
-9.59502
0
LINE
8
BLACK
6
CONTINUOUS
10
8.30413
20
-9.59502
11
8.29851
21
-9.58377
0
LINE
8
BLACK
6
CONTINUOUS
10
8.29851
20
-9.58377
11
8.29289
21
-9.5669
0
LINE
8
BLACK
6
CONTINUOUS
10
8.29289
20
-9.5669
11
8.28726
21
-9.53878
0
LINE
8
BLACK
6
CONTINUOUS
10
8.28726
20
-9.53878
11
8.28726
21
-9.51628
0
LINE
8
BLACK
6
CONTINUOUS
10
8.28726
20
-9.51628
11
8.29289
21
-9.48816
0
LINE
8
BLACK
6
CONTINUOUS
10
8.29289
20
-9.48816
11
8.29851
21
-9.47129
0
LINE
8
BLACK
6
CONTINUOUS
10
8.29851
20
-9.47129
11
8.30413
21
-9.46004
0
LINE
8
BLACK
6
CONTINUOUS
10
8.30413
20
-9.46004
11
8.31538
21
-9.44317
0
LINE
8
BLACK
6
CONTINUOUS
10
8.31538
20
-9.44317
11
8.32101
21
-9.43754
0
LINE
8
BLACK
6
CONTINUOUS
10
8.42787
20
-9.57253
11
8.36038
21
-9.57253
0
LINE
8
BLACK
6
CONTINUOUS
10
8.39412
20
-9.57253
11
8.39412
21
-9.45442
0
LINE
8
BLACK
6
CONTINUOUS
10
8.39412
20
-9.45442
11
8.38287
21
-9.47129
0
LINE
8
BLACK
6
CONTINUOUS
10
8.38287
20
-9.47129
11
8.37163
21
-9.48254
0
LINE
8
BLACK
6
CONTINUOUS
10
8.37163
20
-9.48254
11
8.36038
21
-9.48816
0
LINE
8
BLACK
6
CONTINUOUS
10
8.54035
20
-9.57253
11
8.47286
21
-9.57253
0
LINE
8
BLACK
6
CONTINUOUS
10
8.50661
20
-9.57253
11
8.50661
21
-9.45442
0
LINE
8
BLACK
6
CONTINUOUS
10
8.50661
20
-9.45442
11
8.49536
21
-9.47129
0
LINE
8
BLACK
6
CONTINUOUS
10
8.49536
20
-9.47129
11
8.48411
21
-9.48254
0
LINE
8
BLACK
6
CONTINUOUS
10
8.48411
20
-9.48254
11
8.47286
21
-9.48816
0
LINE
8
BLACK
6
CONTINUOUS
10
8.68096
20
-9.57253
11
8.68096
21
-9.45442
0
LINE
8
BLACK
6
CONTINUOUS
10
8.73158
20
-9.57253
11
8.73158
21
-9.51066
0
LINE
8
BLACK
6
CONTINUOUS
10
8.73158
20
-9.51066
11
8.72596
21
-9.49941
0
LINE
8
BLACK
6
CONTINUOUS
10
8.72596
20
-9.49941
11
8.71471
21
-9.49379
0
LINE
8
BLACK
6
CONTINUOUS
10
8.71471
20
-9.49379
11
8.69783
21
-9.49379
0
LINE
8
BLACK
6
CONTINUOUS
10
8.69783
20
-9.49379
11
8.68659
21
-9.49941
0
LINE
8
BLACK
6
CONTINUOUS
10
8.68659
20
-9.49941
11
8.68096
21
-9.50503
0
LINE
8
BLACK
6
CONTINUOUS
10
8.8047
20
-9.57253
11
8.79345
21
-9.5669
0
LINE
8
BLACK
6
CONTINUOUS
10
8.79345
20
-9.5669
11
8.78782
21
-9.56128
0
LINE
8
BLACK
6
CONTINUOUS
10
8.78782
20
-9.56128
11
8.7822
21
-9.55003
0
LINE
8
BLACK
6
CONTINUOUS
10
8.7822
20
-9.55003
11
8.7822
21
-9.51628
0
LINE
8
BLACK
6
CONTINUOUS
10
8.7822
20
-9.51628
11
8.78782
21
-9.50503
0
LINE
8
BLACK
6
CONTINUOUS
10
8.78782
20
-9.50503
11
8.79345
21
-9.49941
0
LINE
8
BLACK
6
CONTINUOUS
10
8.79345
20
-9.49941
11
8.8047
21
-9.49379
0
LINE
8
BLACK
6
CONTINUOUS
10
8.8047
20
-9.49379
11
8.82157
21
-9.49379
0
LINE
8
BLACK
6
CONTINUOUS
10
8.82157
20
-9.49379
11
8.83282
21
-9.49941
0
LINE
8
BLACK
6
CONTINUOUS
10
8.83282
20
-9.49941
11
8.83844
21
-9.50503
0
LINE
8
BLACK
6
CONTINUOUS
10
8.83844
20
-9.50503
11
8.84407
21
-9.51628
0
LINE
8
BLACK
6
CONTINUOUS
10
8.84407
20
-9.51628
11
8.84407
21
-9.55003
0
LINE
8
BLACK
6
CONTINUOUS
10
8.84407
20
-9.55003
11
8.83844
21
-9.56128
0
LINE
8
BLACK
6
CONTINUOUS
10
8.83844
20
-9.56128
11
8.83282
21
-9.5669
0
LINE
8
BLACK
6
CONTINUOUS
10
8.83282
20
-9.5669
11
8.82157
21
-9.57253
0
LINE
8
BLACK
6
CONTINUOUS
10
8.82157
20
-9.57253
11
8.8047
21
-9.57253
0
LINE
8
BLACK
6
CONTINUOUS
10
8.91156
20
-9.57253
11
8.90031
21
-9.5669
0
LINE
8
BLACK
6
CONTINUOUS
10
8.90031
20
-9.5669
11
8.89468
21
-9.55565
0
LINE
8
BLACK
6
CONTINUOUS
10
8.89468
20
-9.55565
11
8.89468
21
-9.45442
0
LINE
8
BLACK
6
CONTINUOUS
10
9.00155
20
-9.5669
11
8.9903
21
-9.57253
0
LINE
8
BLACK
6
CONTINUOUS
10
8.9903
20
-9.57253
11
8.9678
21
-9.57253
0
LINE
8
BLACK
6
CONTINUOUS
10
8.9678
20
-9.57253
11
8.95655
21
-9.5669
0
LINE
8
BLACK
6
CONTINUOUS
10
8.95655
20
-9.5669
11
8.95093
21
-9.55565
0
LINE
8
BLACK
6
CONTINUOUS
10
8.95093
20
-9.55565
11
8.95093
21
-9.51066
0
LINE
8
BLACK
6
CONTINUOUS
10
8.95093
20
-9.51066
11
8.95655
21
-9.49941
0
LINE
8
BLACK
6
CONTINUOUS
10
8.95655
20
-9.49941
11
8.9678
21
-9.49379
0
LINE
8
BLACK
6
CONTINUOUS
10
8.9678
20
-9.49379
11
8.9903
21
-9.49379
0
LINE
8
BLACK
6
CONTINUOUS
10
8.9903
20
-9.49379
11
9.00155
21
-9.49941
0
LINE
8
BLACK
6
CONTINUOUS
10
9.00155
20
-9.49941
11
9.00717
21
-9.51066
0
LINE
8
BLACK
6
CONTINUOUS
10
9.00717
20
-9.51066
11
9.00717
21
-9.52191
0
LINE
8
BLACK
6
CONTINUOUS
10
9.00717
20
-9.52191
11
8.95093
21
-9.53316
0
LINE
8
BLACK
6
CONTINUOUS
10
9.05217
20
-9.5669
11
9.06341
21
-9.57253
0
LINE
8
BLACK
6
CONTINUOUS
10
9.06341
20
-9.57253
11
9.08591
21
-9.57253
0
LINE
8
BLACK
6
CONTINUOUS
10
9.08591
20
-9.57253
11
9.09716
21
-9.5669
0
LINE
8
BLACK
6
CONTINUOUS
10
9.09716
20
-9.5669
11
9.10278
21
-9.55565
0
LINE
8
BLACK
6
CONTINUOUS
10
9.10278
20
-9.55565
11
9.10278
21
-9.55003
0
LINE
8
BLACK
6
CONTINUOUS
10
9.10278
20
-9.55003
11
9.09716
21
-9.53878
0
LINE
8
BLACK
6
CONTINUOUS
10
9.09716
20
-9.53878
11
9.08591
21
-9.53316
0
LINE
8
BLACK
6
CONTINUOUS
10
9.08591
20
-9.53316
11
9.06904
21
-9.53316
0
LINE
8
BLACK
6
CONTINUOUS
10
9.06904
20
-9.53316
11
9.05779
21
-9.52753
0
LINE
8
BLACK
6
CONTINUOUS
10
9.05779
20
-9.52753
11
9.05217
21
-9.51628
0
LINE
8
BLACK
6
CONTINUOUS
10
9.05217
20
-9.51628
11
9.05217
21
-9.51066
0
LINE
8
BLACK
6
CONTINUOUS
10
9.05217
20
-9.51066
11
9.05779
21
-9.49941
0
LINE
8
BLACK
6
CONTINUOUS
10
9.05779
20
-9.49941
11
9.06904
21
-9.49379
0
LINE
8
BLACK
6
CONTINUOUS
10
9.06904
20
-9.49379
11
9.08591
21
-9.49379
0
LINE
8
BLACK
6
CONTINUOUS
10
9.08591
20
-9.49379
11
9.09716
21
-9.49941
0
LINE
8
BLACK
6
CONTINUOUS
10
9.14215
20
-9.61752
11
9.14778
21
-9.6119
0
LINE
8
BLACK
6
CONTINUOUS
10
9.14778
20
-9.6119
11
9.15903
21
-9.59502
0
LINE
8
BLACK
6
CONTINUOUS
10
9.15903
20
-9.59502
11
9.16465
21
-9.58377
0
LINE
8
BLACK
6
CONTINUOUS
10
9.16465
20
-9.58377
11
9.17028
21
-9.5669
0
LINE
8
BLACK
6
CONTINUOUS
10
9.17028
20
-9.5669
11
9.1759
21
-9.53878
0
LINE
8
BLACK
6
CONTINUOUS
10
9.1759
20
-9.53878
11
9.1759
21
-9.51628
0
LINE
8
BLACK
6
CONTINUOUS
10
9.1759
20
-9.51628
11
9.17028
21
-9.48816
0
LINE
8
BLACK
6
CONTINUOUS
10
9.17028
20
-9.48816
11
9.16465
21
-9.47129
0
LINE
8
BLACK
6
CONTINUOUS
10
9.16465
20
-9.47129
11
9.15903
21
-9.46004
0
LINE
8
BLACK
6
CONTINUOUS
10
9.15903
20
-9.46004
11
9.14778
21
-9.44317
0
LINE
8
BLACK
6
CONTINUOUS
10
9.14778
20
-9.44317
11
9.14215
21
-9.43754
0
LINE
8
BLACK
6
CONTINUOUS
10
6.24114
20
-9.66516
11
6.24114
21
-9.68484
0
LINE
8
BLACK
6
CONTINUOUS
10
6.2313
20
-9.675
11
6.25098
21
-9.675
0
LINE
8
BLACK
6
CONTINUOUS
10
6.38625
20
-9.61032
11
6.3975
21
-9.61032
0
LINE
8
BLACK
6
CONTINUOUS
10
6.3975
20
-9.61032
11
6.40875
21
-9.61594
0
LINE
8
BLACK
6
CONTINUOUS
10
6.40875
20
-9.61594
11
6.41437
21
-9.62157
0
LINE
8
BLACK
6
CONTINUOUS
10
6.41437
20
-9.62157
11
6.41999
21
-9.63282
0
LINE
8
BLACK
6
CONTINUOUS
10
6.41999
20
-9.63282
11
6.42562
21
-9.65531
0
LINE
8
BLACK
6
CONTINUOUS
10
6.42562
20
-9.65531
11
6.42562
21
-9.68344
0
LINE
8
BLACK
6
CONTINUOUS
10
6.42562
20
-9.68344
11
6.41999
21
-9.70593
0
LINE
8
BLACK
6
CONTINUOUS
10
6.41999
20
-9.70593
11
6.41437
21
-9.71718
0
LINE
8
BLACK
6
CONTINUOUS
10
6.41437
20
-9.71718
11
6.40875
21
-9.72281
0
LINE
8
BLACK
6
CONTINUOUS
10
6.40875
20
-9.72281
11
6.3975
21
-9.72843
0
LINE
8
BLACK
6
CONTINUOUS
10
6.3975
20
-9.72843
11
6.38625
21
-9.72843
0
LINE
8
BLACK
6
CONTINUOUS
10
6.38625
20
-9.72843
11
6.375
21
-9.72281
0
LINE
8
BLACK
6
CONTINUOUS
10
6.375
20
-9.72281
11
6.36938
21
-9.71718
0
LINE
8
BLACK
6
CONTINUOUS
10
6.36938
20
-9.71718
11
6.36375
21
-9.70593
0
LINE
8
BLACK
6
CONTINUOUS
10
6.36375
20
-9.70593
11
6.35813
21
-9.68344
0
LINE
8
BLACK
6
CONTINUOUS
10
6.35813
20
-9.68344
11
6.35813
21
-9.65531
0
LINE
8
BLACK
6
CONTINUOUS
10
6.35813
20
-9.65531
11
6.36375
21
-9.63282
0
LINE
8
BLACK
6
CONTINUOUS
10
6.36375
20
-9.63282
11
6.36938
21
-9.62157
0
LINE
8
BLACK
6
CONTINUOUS
10
6.36938
20
-9.62157
11
6.375
21
-9.61594
0
LINE
8
BLACK
6
CONTINUOUS
10
6.375
20
-9.61594
11
6.38625
21
-9.61032
0
LINE
8
BLACK
6
CONTINUOUS
10
6.47624
20
-9.71718
11
6.48186
21
-9.72281
0
LINE
8
BLACK
6
CONTINUOUS
10
6.48186
20
-9.72281
11
6.47624
21
-9.72843
0
LINE
8
BLACK
6
CONTINUOUS
10
6.47624
20
-9.72843
11
6.47061
21
-9.72281
0
LINE
8
BLACK
6
CONTINUOUS
10
6.47061
20
-9.72281
11
6.47624
21
-9.71718
0
LINE
8
BLACK
6
CONTINUOUS
10
6.47624
20
-9.71718
11
6.47624
21
-9.72843
0
LINE
8
BLACK
6
CONTINUOUS
10
6.58872
20
-9.61032
11
6.53248
21
-9.61032
0
LINE
8
BLACK
6
CONTINUOUS
10
6.53248
20
-9.61032
11
6.52686
21
-9.66656
0
LINE
8
BLACK
6
CONTINUOUS
10
6.52686
20
-9.66656
11
6.53248
21
-9.66094
0
LINE
8
BLACK
6
CONTINUOUS
10
6.53248
20
-9.66094
11
6.54373
21
-9.65531
0
LINE
8
BLACK
6
CONTINUOUS
10
6.54373
20
-9.65531
11
6.57185
21
-9.65531
0
LINE
8
BLACK
6
CONTINUOUS
10
6.57185
20
-9.65531
11
6.5831
21
-9.66094
0
LINE
8
BLACK
6
CONTINUOUS
10
6.5831
20
-9.66094
11
6.58872
21
-9.66656
0
LINE
8
BLACK
6
CONTINUOUS
10
6.58872
20
-9.66656
11
6.59435
21
-9.67781
0
LINE
8
BLACK
6
CONTINUOUS
10
6.59435
20
-9.67781
11
6.59435
21
-9.70593
0
LINE
8
BLACK
6
CONTINUOUS
10
6.59435
20
-9.70593
11
6.58872
21
-9.71718
0
LINE
8
BLACK
6
CONTINUOUS
10
6.58872
20
-9.71718
11
6.5831
21
-9.72281
0
LINE
8
BLACK
6
CONTINUOUS
10
6.5831
20
-9.72281
11
6.57185
21
-9.72843
0
LINE
8
BLACK
6
CONTINUOUS
10
6.57185
20
-9.72843
11
6.54373
21
-9.72843
0
LINE
8
BLACK
6
CONTINUOUS
10
6.54373
20
-9.72843
11
6.53248
21
-9.72281
0
LINE
8
BLACK
6
CONTINUOUS
10
6.53248
20
-9.72281
11
6.52686
21
-9.71718
0
LINE
8
BLACK
6
CONTINUOUS
10
6.66746
20
-9.61032
11
6.67871
21
-9.61032
0
LINE
8
BLACK
6
CONTINUOUS
10
6.67871
20
-9.61032
11
6.68996
21
-9.61594
0
LINE
8
BLACK
6
CONTINUOUS
10
6.68996
20
-9.61594
11
6.69558
21
-9.62157
0
LINE
8
BLACK
6
CONTINUOUS
10
6.69558
20
-9.62157
11
6.70121
21
-9.63282
0
LINE
8
BLACK
6
CONTINUOUS
10
6.70121
20
-9.63282
11
6.70683
21
-9.65531
0
LINE
8
BLACK
6
CONTINUOUS
10
6.70683
20
-9.65531
11
6.70683
21
-9.68344
0
LINE
8
BLACK
6
CONTINUOUS
10
6.70683
20
-9.68344
11
6.70121
21
-9.70593
0
LINE
8
BLACK
6
CONTINUOUS
10
6.70121
20
-9.70593
11
6.69558
21
-9.71718
0
LINE
8
BLACK
6
CONTINUOUS
10
6.69558
20
-9.71718
11
6.68996
21
-9.72281
0
LINE
8
BLACK
6
CONTINUOUS
10
6.68996
20
-9.72281
11
6.67871
21
-9.72843
0
LINE
8
BLACK
6
CONTINUOUS
10
6.67871
20
-9.72843
11
6.66746
21
-9.72843
0
LINE
8
BLACK
6
CONTINUOUS
10
6.66746
20
-9.72843
11
6.65621
21
-9.72281
0
LINE
8
BLACK
6
CONTINUOUS
10
6.65621
20
-9.72281
11
6.65059
21
-9.71718
0
LINE
8
BLACK
6
CONTINUOUS
10
6.65059
20
-9.71718
11
6.64497
21
-9.70593
0
LINE
8
BLACK
6
CONTINUOUS
10
6.64497
20
-9.70593
11
6.63934
21
-9.68344
0
LINE
8
BLACK
6
CONTINUOUS
10
6.63934
20
-9.68344
11
6.63934
21
-9.65531
0
LINE
8
BLACK
6
CONTINUOUS
10
6.63934
20
-9.65531
11
6.64497
21
-9.63282
0
LINE
8
BLACK
6
CONTINUOUS
10
6.64497
20
-9.63282
11
6.65059
21
-9.62157
0
LINE
8
BLACK
6
CONTINUOUS
10
6.65059
20
-9.62157
11
6.65621
21
-9.61594
0
LINE
8
BLACK
6
CONTINUOUS
10
6.65621
20
-9.61594
11
6.66746
21
-9.61032
0
LINE
8
BLACK
6
CONTINUOUS
10
6.77995
20
-9.61032
11
6.7912
21
-9.61032
0
LINE
8
BLACK
6
CONTINUOUS
10
6.7912
20
-9.61032
11
6.80245
21
-9.61594
0
LINE
8
BLACK
6
CONTINUOUS
10
6.80245
20
-9.61594
11
6.80807
21
-9.62157
0
LINE
8
BLACK
6
CONTINUOUS
10
6.80807
20
-9.62157
11
6.8137
21
-9.63282
0
LINE
8
BLACK
6
CONTINUOUS
10
6.8137
20
-9.63282
11
6.81932
21
-9.65531
0
LINE
8
BLACK
6
CONTINUOUS
10
6.81932
20
-9.65531
11
6.81932
21
-9.68344
0
LINE
8
BLACK
6
CONTINUOUS
10
6.81932
20
-9.68344
11
6.8137
21
-9.70593
0
LINE
8
BLACK
6
CONTINUOUS
10
6.8137
20
-9.70593
11
6.80807
21
-9.71718
0
LINE
8
BLACK
6
CONTINUOUS
10
6.80807
20
-9.71718
11
6.80245
21
-9.72281
0
LINE
8
BLACK
6
CONTINUOUS
10
6.80245
20
-9.72281
11
6.7912
21
-9.72843
0
LINE
8
BLACK
6
CONTINUOUS
10
6.7912
20
-9.72843
11
6.77995
21
-9.72843
0
LINE
8
BLACK
6
CONTINUOUS
10
6.77995
20
-9.72843
11
6.7687
21
-9.72281
0
LINE
8
BLACK
6
CONTINUOUS
10
6.7687
20
-9.72281
11
6.76308
21
-9.71718
0
LINE
8
BLACK
6
CONTINUOUS
10
6.76308
20
-9.71718
11
6.75745
21
-9.70593
0
LINE
8
BLACK
6
CONTINUOUS
10
6.75745
20
-9.70593
11
6.75183
21
-9.68344
0
LINE
8
BLACK
6
CONTINUOUS
10
6.75183
20
-9.68344
11
6.75183
21
-9.65531
0
LINE
8
BLACK
6
CONTINUOUS
10
6.75183
20
-9.65531
11
6.75745
21
-9.63282
0
LINE
8
BLACK
6
CONTINUOUS
10
6.75745
20
-9.63282
11
6.76308
21
-9.62157
0
LINE
8
BLACK
6
CONTINUOUS
10
6.76308
20
-9.62157
11
6.7687
21
-9.61594
0
LINE
8
BLACK
6
CONTINUOUS
10
6.7687
20
-9.61594
11
6.77995
21
-9.61032
0
LINE
8
BLACK
6
CONTINUOUS
10
6.86994
20
-9.72843
11
6.86994
21
-9.64969
0
LINE
8
BLACK
6
CONTINUOUS
10
6.86994
20
-9.66094
11
6.87556
21
-9.65531
0
LINE
8
BLACK
6
CONTINUOUS
10
6.87556
20
-9.65531
11
6.88681
21
-9.64969
0
LINE
8
BLACK
6
CONTINUOUS
10
6.88681
20
-9.64969
11
6.90368
21
-9.64969
0
LINE
8
BLACK
6
CONTINUOUS
10
6.90368
20
-9.64969
11
6.91493
21
-9.65531
0
LINE
8
BLACK
6
CONTINUOUS
10
6.91493
20
-9.65531
11
6.92056
21
-9.66656
0
LINE
8
BLACK
6
CONTINUOUS
10
6.92056
20
-9.66656
11
6.92056
21
-9.72843
0
LINE
8
BLACK
6
CONTINUOUS
10
6.92056
20
-9.66656
11
6.92618
21
-9.65531
0
LINE
8
BLACK
6
CONTINUOUS
10
6.92618
20
-9.65531
11
6.93743
21
-9.64969
0
LINE
8
BLACK
6
CONTINUOUS
10
6.93743
20
-9.64969
11
6.9543
21
-9.64969
0
LINE
8
BLACK
6
CONTINUOUS
10
6.9543
20
-9.64969
11
6.96555
21
-9.65531
0
LINE
8
BLACK
6
CONTINUOUS
10
6.96555
20
-9.65531
11
6.97118
21
-9.66656
0
LINE
8
BLACK
6
CONTINUOUS
10
6.97118
20
-9.66656
11
6.97118
21
-9.72843
0
LINE
8
BLACK
6
CONTINUOUS
10
7.02742
20
-9.72843
11
7.02742
21
-9.64969
0
LINE
8
BLACK
6
CONTINUOUS
10
7.02742
20
-9.66094
11
7.03304
21
-9.65531
0
LINE
8
BLACK
6
CONTINUOUS
10
7.03304
20
-9.65531
11
7.04429
21
-9.64969
0
LINE
8
BLACK
6
CONTINUOUS
10
7.04429
20
-9.64969
11
7.06116
21
-9.64969
0
LINE
8
BLACK
6
CONTINUOUS
10
7.06116
20
-9.64969
11
7.07241
21
-9.65531
0
LINE
8
BLACK
6
CONTINUOUS
10
7.07241
20
-9.65531
11
7.07804
21
-9.66656
0
LINE
8
BLACK
6
CONTINUOUS
10
7.07804
20
-9.66656
11
7.07804
21
-9.72843
0
LINE
8
BLACK
6
CONTINUOUS
10
7.07804
20
-9.66656
11
7.08366
21
-9.65531
0
LINE
8
BLACK
6
CONTINUOUS
10
7.08366
20
-9.65531
11
7.09491
21
-9.64969
0
LINE
8
BLACK
6
CONTINUOUS
10
7.09491
20
-9.64969
11
7.11178
21
-9.64969
0
LINE
8
BLACK
6
CONTINUOUS
10
7.11178
20
-9.64969
11
7.12303
21
-9.65531
0
LINE
8
BLACK
6
CONTINUOUS
10
7.12303
20
-9.65531
11
7.12866
21
-9.66656
0
LINE
8
BLACK
6
CONTINUOUS
10
7.12866
20
-9.66656
11
7.12866
21
-9.72843
0
LINE
8
BLACK
6
CONTINUOUS
10
7.35925
20
-9.6047
11
7.25801
21
-9.75655
0
LINE
8
BLACK
6
CONTINUOUS
10
7.51111
20
-9.61032
11
7.52236
21
-9.61032
0
LINE
8
BLACK
6
CONTINUOUS
10
7.52236
20
-9.61032
11
7.53361
21
-9.61594
0
LINE
8
BLACK
6
CONTINUOUS
10
7.53361
20
-9.61594
11
7.53923
21
-9.62157
0
LINE
8
BLACK
6
CONTINUOUS
10
7.53923
20
-9.62157
11
7.54485
21
-9.63282
0
LINE
8
BLACK
6
CONTINUOUS
10
7.54485
20
-9.63282
11
7.55048
21
-9.65531
0
LINE
8
BLACK
6
CONTINUOUS
10
7.55048
20
-9.65531
11
7.55048
21
-9.68344
0
LINE
8
BLACK
6
CONTINUOUS
10
7.55048
20
-9.68344
11
7.54485
21
-9.70593
0
LINE
8
BLACK
6
CONTINUOUS
10
7.54485
20
-9.70593
11
7.53923
21
-9.71718
0
LINE
8
BLACK
6
CONTINUOUS
10
7.53923
20
-9.71718
11
7.53361
21
-9.72281
0
LINE
8
BLACK
6
CONTINUOUS
10
7.53361
20
-9.72281
11
7.52236
21
-9.72843
0
LINE
8
BLACK
6
CONTINUOUS
10
7.52236
20
-9.72843
11
7.51111
21
-9.72843
0
LINE
8
BLACK
6
CONTINUOUS
10
7.51111
20
-9.72843
11
7.49986
21
-9.72281
0
LINE
8
BLACK
6
CONTINUOUS
10
7.49986
20
-9.72281
11
7.49424
21
-9.71718
0
LINE
8
BLACK
6
CONTINUOUS
10
7.49424
20
-9.71718
11
7.48861
21
-9.70593
0
LINE
8
BLACK
6
CONTINUOUS
10
7.48861
20
-9.70593
11
7.48299
21
-9.68344
0
LINE
8
BLACK
6
CONTINUOUS
10
7.48299
20
-9.68344
11
7.48299
21
-9.65531
0
LINE
8
BLACK
6
CONTINUOUS
10
7.48299
20
-9.65531
11
7.48861
21
-9.63282
0
LINE
8
BLACK
6
CONTINUOUS
10
7.48861
20
-9.63282
11
7.49424
21
-9.62157
0
LINE
8
BLACK
6
CONTINUOUS
10
7.49424
20
-9.62157
11
7.49986
21
-9.61594
0
LINE
8
BLACK
6
CONTINUOUS
10
7.49986
20
-9.61594
11
7.51111
21
-9.61032
0
LINE
8
BLACK
6
CONTINUOUS
10
7.6011
20
-9.71718
11
7.60672
21
-9.72281
0
LINE
8
BLACK
6
CONTINUOUS
10
7.60672
20
-9.72281
11
7.6011
21
-9.72843
0
LINE
8
BLACK
6
CONTINUOUS
10
7.6011
20
-9.72843
11
7.59547
21
-9.72281
0
LINE
8
BLACK
6
CONTINUOUS
10
7.59547
20
-9.72281
11
7.6011
21
-9.71718
0
LINE
8
BLACK
6
CONTINUOUS
10
7.6011
20
-9.71718
11
7.6011
21
-9.72843
0
LINE
8
BLACK
6
CONTINUOUS
10
7.67984
20
-9.61032
11
7.69109
21
-9.61032
0
LINE
8
BLACK
6
CONTINUOUS
10
7.69109
20
-9.61032
11
7.70233
21
-9.61594
0
LINE
8
BLACK
6
CONTINUOUS
10
7.70233
20
-9.61594
11
7.70796
21
-9.62157
0
LINE
8
BLACK
6
CONTINUOUS
10
7.70796
20
-9.62157
11
7.71358
21
-9.63282
0
LINE
8
BLACK
6
CONTINUOUS
10
7.71358
20
-9.63282
11
7.71921
21
-9.65531
0
LINE
8
BLACK
6
CONTINUOUS
10
7.71921
20
-9.65531
11
7.71921
21
-9.68344
0
LINE
8
BLACK
6
CONTINUOUS
10
7.71921
20
-9.68344
11
7.71358
21
-9.70593
0
LINE
8
BLACK
6
CONTINUOUS
10
7.71358
20
-9.70593
11
7.70796
21
-9.71718
0
LINE
8
BLACK
6
CONTINUOUS
10
7.70796
20
-9.71718
11
7.70233
21
-9.72281
0
LINE
8
BLACK
6
CONTINUOUS
10
7.70233
20
-9.72281
11
7.69109
21
-9.72843
0
LINE
8
BLACK
6
CONTINUOUS
10
7.69109
20
-9.72843
11
7.67984
21
-9.72843
0
LINE
8
BLACK
6
CONTINUOUS
10
7.67984
20
-9.72843
11
7.66859
21
-9.72281
0
LINE
8
BLACK
6
CONTINUOUS
10
7.66859
20
-9.72281
11
7.66296
21
-9.71718
0
LINE
8
BLACK
6
CONTINUOUS
10
7.66296
20
-9.71718
11
7.65734
21
-9.70593
0
LINE
8
BLACK
6
CONTINUOUS
10
7.65734
20
-9.70593
11
7.65172
21
-9.68344
0
LINE
8
BLACK
6
CONTINUOUS
10
7.65172
20
-9.68344
11
7.65172
21
-9.65531
0
LINE
8
BLACK
6
CONTINUOUS
10
7.65172
20
-9.65531
11
7.65734
21
-9.63282
0
LINE
8
BLACK
6
CONTINUOUS
10
7.65734
20
-9.63282
11
7.66296
21
-9.62157
0
LINE
8
BLACK
6
CONTINUOUS
10
7.66296
20
-9.62157
11
7.66859
21
-9.61594
0
LINE
8
BLACK
6
CONTINUOUS
10
7.66859
20
-9.61594
11
7.67984
21
-9.61032
0
LINE
8
BLACK
6
CONTINUOUS
10
7.83169
20
-9.72843
11
7.7642
21
-9.72843
0
LINE
8
BLACK
6
CONTINUOUS
10
7.79795
20
-9.72843
11
7.79795
21
-9.61032
0
LINE
8
BLACK
6
CONTINUOUS
10
7.79795
20
-9.61032
11
7.7867
21
-9.62719
0
LINE
8
BLACK
6
CONTINUOUS
10
7.7867
20
-9.62719
11
7.77545
21
-9.63844
0
LINE
8
BLACK
6
CONTINUOUS
10
7.77545
20
-9.63844
11
7.7642
21
-9.64407
0
LINE
8
BLACK
6
CONTINUOUS
10
7.88794
20
-9.72843
11
7.91043
21
-9.72843
0
LINE
8
BLACK
6
CONTINUOUS
10
7.91043
20
-9.72843
11
7.92168
21
-9.72281
0
LINE
8
BLACK
6
CONTINUOUS
10
7.92168
20
-9.72281
11
7.92731
21
-9.71718
0
LINE
8
BLACK
6
CONTINUOUS
10
7.92731
20
-9.71718
11
7.93855
21
-9.70031
0
LINE
8
BLACK
6
CONTINUOUS
10
7.93855
20
-9.70031
11
7.94418
21
-9.67781
0
LINE
8
BLACK
6
CONTINUOUS
10
7.94418
20
-9.67781
11
7.94418
21
-9.63282
0
LINE
8
BLACK
6
CONTINUOUS
10
7.94418
20
-9.63282
11
7.93855
21
-9.62157
0
LINE
8
BLACK
6
CONTINUOUS
10
7.93855
20
-9.62157
11
7.93293
21
-9.61594
0
LINE
8
BLACK
6
CONTINUOUS
10
7.93293
20
-9.61594
11
7.92168
21
-9.61032
0
LINE
8
BLACK
6
CONTINUOUS
10
7.92168
20
-9.61032
11
7.89918
21
-9.61032
0
LINE
8
BLACK
6
CONTINUOUS
10
7.89918
20
-9.61032
11
7.88794
21
-9.61594
0
LINE
8
BLACK
6
CONTINUOUS
10
7.88794
20
-9.61594
11
7.88231
21
-9.62157
0
LINE
8
BLACK
6
CONTINUOUS
10
7.88231
20
-9.62157
11
7.87669
21
-9.63282
0
LINE
8
BLACK
6
CONTINUOUS
10
7.87669
20
-9.63282
11
7.87669
21
-9.66094
0
LINE
8
BLACK
6
CONTINUOUS
10
7.87669
20
-9.66094
11
7.88231
21
-9.67219
0
LINE
8
BLACK
6
CONTINUOUS
10
7.88231
20
-9.67219
11
7.88794
21
-9.67781
0
LINE
8
BLACK
6
CONTINUOUS
10
7.88794
20
-9.67781
11
7.89918
21
-9.68344
0
LINE
8
BLACK
6
CONTINUOUS
10
7.89918
20
-9.68344
11
7.92168
21
-9.68344
0
LINE
8
BLACK
6
CONTINUOUS
10
7.92168
20
-9.68344
11
7.93293
21
-9.67781
0
LINE
8
BLACK
6
CONTINUOUS
10
7.93293
20
-9.67781
11
7.93855
21
-9.67219
0
LINE
8
BLACK
6
CONTINUOUS
10
7.93855
20
-9.67219
11
7.94418
21
-9.66094
0
LINE
8
BLACK
6
CONTINUOUS
10
7.98355
20
-9.61032
11
8.06229
21
-9.61032
0
LINE
8
BLACK
6
CONTINUOUS
10
8.06229
20
-9.61032
11
8.01167
21
-9.72843
0
LINE
8
BLACK
6
CONTINUOUS
10
8.10166
20
-9.61032
11
8.10166
21
-9.63282
0
LINE
8
BLACK
6
CONTINUOUS
10
8.14665
20
-9.61032
11
8.14665
21
-9.63282
0
LINE
8
BLACK
6
CONTINUOUS
10
8.32101
20
-9.77343
11
8.31538
21
-9.7678
0
LINE
8
BLACK
6
CONTINUOUS
10
8.31538
20
-9.7678
11
8.30413
21
-9.75093
0
LINE
8
BLACK
6
CONTINUOUS
10
8.30413
20
-9.75093
11
8.29851
21
-9.73968
0
LINE
8
BLACK
6
CONTINUOUS
10
8.29851
20
-9.73968
11
8.29289
21
-9.72281
0
LINE
8
BLACK
6
CONTINUOUS
10
8.29289
20
-9.72281
11
8.28726
21
-9.69469
0
LINE
8
BLACK
6
CONTINUOUS
10
8.28726
20
-9.69469
11
8.28726
21
-9.67219
0
LINE
8
BLACK
6
CONTINUOUS
10
8.28726
20
-9.67219
11
8.29289
21
-9.64407
0
LINE
8
BLACK
6
CONTINUOUS
10
8.29289
20
-9.64407
11
8.29851
21
-9.62719
0
LINE
8
BLACK
6
CONTINUOUS
10
8.29851
20
-9.62719
11
8.30413
21
-9.61594
0
LINE
8
BLACK
6
CONTINUOUS
10
8.30413
20
-9.61594
11
8.31538
21
-9.59907
0
LINE
8
BLACK
6
CONTINUOUS
10
8.31538
20
-9.59907
11
8.32101
21
-9.59345
0
LINE
8
BLACK
6
CONTINUOUS
10
8.41662
20
-9.61032
11
8.39412
21
-9.61032
0
LINE
8
BLACK
6
CONTINUOUS
10
8.39412
20
-9.61032
11
8.38287
21
-9.61594
0
LINE
8
BLACK
6
CONTINUOUS
10
8.38287
20
-9.61594
11
8.37725
21
-9.62157
0
LINE
8
BLACK
6
CONTINUOUS
10
8.37725
20
-9.62157
11
8.366
21
-9.63844
0
LINE
8
BLACK
6
CONTINUOUS
10
8.366
20
-9.63844
11
8.36038
21
-9.66094
0
LINE
8
BLACK
6
CONTINUOUS
10
8.36038
20
-9.66094
11
8.36038
21
-9.70593
0
LINE
8
BLACK
6
CONTINUOUS
10
8.36038
20
-9.70593
11
8.366
21
-9.71718
0
LINE
8
BLACK
6
CONTINUOUS
10
8.366
20
-9.71718
11
8.37163
21
-9.72281
0
LINE
8
BLACK
6
CONTINUOUS
10
8.37163
20
-9.72281
11
8.38287
21
-9.72843
0
LINE
8
BLACK
6
CONTINUOUS
10
8.38287
20
-9.72843
11
8.40537
21
-9.72843
0
LINE
8
BLACK
6
CONTINUOUS
10
8.40537
20
-9.72843
11
8.41662
21
-9.72281
0
LINE
8
BLACK
6
CONTINUOUS
10
8.41662
20
-9.72281
11
8.42224
21
-9.71718
0
LINE
8
BLACK
6
CONTINUOUS
10
8.42224
20
-9.71718
11
8.42787
21
-9.70593
0
LINE
8
BLACK
6
CONTINUOUS
10
8.42787
20
-9.70593
11
8.42787
21
-9.67781
0
LINE
8
BLACK
6
CONTINUOUS
10
8.42787
20
-9.67781
11
8.42224
21
-9.66656
0
LINE
8
BLACK
6
CONTINUOUS
10
8.42224
20
-9.66656
11
8.41662
21
-9.66094
0
LINE
8
BLACK
6
CONTINUOUS
10
8.41662
20
-9.66094
11
8.40537
21
-9.65531
0
LINE
8
BLACK
6
CONTINUOUS
10
8.40537
20
-9.65531
11
8.38287
21
-9.65531
0
LINE
8
BLACK
6
CONTINUOUS
10
8.38287
20
-9.65531
11
8.37163
21
-9.66094
0
LINE
8
BLACK
6
CONTINUOUS
10
8.37163
20
-9.66094
11
8.366
21
-9.66656
0
LINE
8
BLACK
6
CONTINUOUS
10
8.366
20
-9.66656
11
8.36038
21
-9.67781
0
LINE
8
BLACK
6
CONTINUOUS
10
8.52911
20
-9.64969
11
8.52911
21
-9.72843
0
LINE
8
BLACK
6
CONTINUOUS
10
8.50098
20
-9.6047
11
8.47286
21
-9.68906
0
LINE
8
BLACK
6
CONTINUOUS
10
8.47286
20
-9.68906
11
8.54598
21
-9.68906
0
LINE
8
BLACK
6
CONTINUOUS
10
8.68096
20
-9.72843
11
8.68096
21
-9.61032
0
LINE
8
BLACK
6
CONTINUOUS
10
8.73158
20
-9.72843
11
8.73158
21
-9.66656
0
LINE
8
BLACK
6
CONTINUOUS
10
8.73158
20
-9.66656
11
8.72596
21
-9.65531
0
LINE
8
BLACK
6
CONTINUOUS
10
8.72596
20
-9.65531
11
8.71471
21
-9.64969
0
LINE
8
BLACK
6
CONTINUOUS
10
8.71471
20
-9.64969
11
8.69783
21
-9.64969
0
LINE
8
BLACK
6
CONTINUOUS
10
8.69783
20
-9.64969
11
8.68659
21
-9.65531
0
LINE
8
BLACK
6
CONTINUOUS
10
8.68659
20
-9.65531
11
8.68096
21
-9.66094
0
LINE
8
BLACK
6
CONTINUOUS
10
8.8047
20
-9.72843
11
8.79345
21
-9.72281
0
LINE
8
BLACK
6
CONTINUOUS
10
8.79345
20
-9.72281
11
8.78782
21
-9.71718
0
LINE
8
BLACK
6
CONTINUOUS
10
8.78782
20
-9.71718
11
8.7822
21
-9.70593
0
LINE
8
BLACK
6
CONTINUOUS
10
8.7822
20
-9.70593
11
8.7822
21
-9.67219
0
LINE
8
BLACK
6
CONTINUOUS
10
8.7822
20
-9.67219
11
8.78782
21
-9.66094
0
LINE
8
BLACK
6
CONTINUOUS
10
8.78782
20
-9.66094
11
8.79345
21
-9.65531
0
LINE
8
BLACK
6
CONTINUOUS
10
8.79345
20
-9.65531
11
8.8047
21
-9.64969
0
LINE
8
BLACK
6
CONTINUOUS
10
8.8047
20
-9.64969
11
8.82157
21
-9.64969
0
LINE
8
BLACK
6
CONTINUOUS
10
8.82157
20
-9.64969
11
8.83282
21
-9.65531
0
LINE
8
BLACK
6
CONTINUOUS
10
8.83282
20
-9.65531
11
8.83844
21
-9.66094
0
LINE
8
BLACK
6
CONTINUOUS
10
8.83844
20
-9.66094
11
8.84407
21
-9.67219
0
LINE
8
BLACK
6
CONTINUOUS
10
8.84407
20
-9.67219
11
8.84407
21
-9.70593
0
LINE
8
BLACK
6
CONTINUOUS
10
8.84407
20
-9.70593
11
8.83844
21
-9.71718
0
LINE
8
BLACK
6
CONTINUOUS
10
8.83844
20
-9.71718
11
8.83282
21
-9.72281
0
LINE
8
BLACK
6
CONTINUOUS
10
8.83282
20
-9.72281
11
8.82157
21
-9.72843
0
LINE
8
BLACK
6
CONTINUOUS
10
8.82157
20
-9.72843
11
8.8047
21
-9.72843
0
LINE
8
BLACK
6
CONTINUOUS
10
8.91156
20
-9.72843
11
8.90031
21
-9.72281
0
LINE
8
BLACK
6
CONTINUOUS
10
8.90031
20
-9.72281
11
8.89468
21
-9.71156
0
LINE
8
BLACK
6
CONTINUOUS
10
8.89468
20
-9.71156
11
8.89468
21
-9.61032
0
LINE
8
BLACK
6
CONTINUOUS
10
9.00155
20
-9.72281
11
8.9903
21
-9.72843
0
LINE
8
BLACK
6
CONTINUOUS
10
8.9903
20
-9.72843
11
8.9678
21
-9.72843
0
LINE
8
BLACK
6
CONTINUOUS
10
8.9678
20
-9.72843
11
8.95655
21
-9.72281
0
LINE
8
BLACK
6
CONTINUOUS
10
8.95655
20
-9.72281
11
8.95093
21
-9.71156
0
LINE
8
BLACK
6
CONTINUOUS
10
8.95093
20
-9.71156
11
8.95093
21
-9.66656
0
LINE
8
BLACK
6
CONTINUOUS
10
8.95093
20
-9.66656
11
8.95655
21
-9.65531
0
LINE
8
BLACK
6
CONTINUOUS
10
8.95655
20
-9.65531
11
8.9678
21
-9.64969
0
LINE
8
BLACK
6
CONTINUOUS
10
8.9678
20
-9.64969
11
8.9903
21
-9.64969
0
LINE
8
BLACK
6
CONTINUOUS
10
8.9903
20
-9.64969
11
9.00155
21
-9.65531
0
LINE
8
BLACK
6
CONTINUOUS
10
9.00155
20
-9.65531
11
9.00717
21
-9.66656
0
LINE
8
BLACK
6
CONTINUOUS
10
9.00717
20
-9.66656
11
9.00717
21
-9.67781
0
LINE
8
BLACK
6
CONTINUOUS
10
9.00717
20
-9.67781
11
8.95093
21
-9.68906
0
LINE
8
BLACK
6
CONTINUOUS
10
9.05217
20
-9.72281
11
9.06341
21
-9.72843
0
LINE
8
BLACK
6
CONTINUOUS
10
9.06341
20
-9.72843
11
9.08591
21
-9.72843
0
LINE
8
BLACK
6
CONTINUOUS
10
9.08591
20
-9.72843
11
9.09716
21
-9.72281
0
LINE
8
BLACK
6
CONTINUOUS
10
9.09716
20
-9.72281
11
9.10278
21
-9.71156
0
LINE
8
BLACK
6
CONTINUOUS
10
9.10278
20
-9.71156
11
9.10278
21
-9.70593
0
LINE
8
BLACK
6
CONTINUOUS
10
9.10278
20
-9.70593
11
9.09716
21
-9.69469
0
LINE
8
BLACK
6
CONTINUOUS
10
9.09716
20
-9.69469
11
9.08591
21
-9.68906
0
LINE
8
BLACK
6
CONTINUOUS
10
9.08591
20
-9.68906
11
9.06904
21
-9.68906
0
LINE
8
BLACK
6
CONTINUOUS
10
9.06904
20
-9.68906
11
9.05779
21
-9.68344
0
LINE
8
BLACK
6
CONTINUOUS
10
9.05779
20
-9.68344
11
9.05217
21
-9.67219
0
LINE
8
BLACK
6
CONTINUOUS
10
9.05217
20
-9.67219
11
9.05217
21
-9.66656
0
LINE
8
BLACK
6
CONTINUOUS
10
9.05217
20
-9.66656
11
9.05779
21
-9.65531
0
LINE
8
BLACK
6
CONTINUOUS
10
9.05779
20
-9.65531
11
9.06904
21
-9.64969
0
LINE
8
BLACK
6
CONTINUOUS
10
9.06904
20
-9.64969
11
9.08591
21
-9.64969
0
LINE
8
BLACK
6
CONTINUOUS
10
9.08591
20
-9.64969
11
9.09716
21
-9.65531
0
LINE
8
BLACK
6
CONTINUOUS
10
9.14215
20
-9.77343
11
9.14778
21
-9.7678
0
LINE
8
BLACK
6
CONTINUOUS
10
9.14778
20
-9.7678
11
9.15903
21
-9.75093
0
LINE
8
BLACK
6
CONTINUOUS
10
9.15903
20
-9.75093
11
9.16465
21
-9.73968
0
LINE
8
BLACK
6
CONTINUOUS
10
9.16465
20
-9.73968
11
9.17028
21
-9.72281
0
LINE
8
BLACK
6
CONTINUOUS
10
9.17028
20
-9.72281
11
9.1759
21
-9.69469
0
LINE
8
BLACK
6
CONTINUOUS
10
9.1759
20
-9.69469
11
9.1759
21
-9.67219
0
LINE
8
BLACK
6
CONTINUOUS
10
9.1759
20
-9.67219
11
9.17028
21
-9.64407
0
LINE
8
BLACK
6
CONTINUOUS
10
9.17028
20
-9.64407
11
9.16465
21
-9.62719
0
LINE
8
BLACK
6
CONTINUOUS
10
9.16465
20
-9.62719
11
9.15903
21
-9.61594
0
LINE
8
BLACK
6
CONTINUOUS
10
9.15903
20
-9.61594
11
9.14778
21
-9.59907
0
LINE
8
BLACK
6
CONTINUOUS
10
9.14778
20
-9.59907
11
9.14215
21
-9.59345
0
LINE
8
BLACK
6
CONTINUOUS
10
6.23253
20
-9.87545
11
6.23253
21
-9.78636
0
LINE
8
BLACK
6
CONTINUOUS
10
6.23253
20
-9.78636
11
6.14345
21
-9.78636
0
LINE
8
BLACK
6
CONTINUOUS
10
6.14345
20
-9.78636
11
6.14345
21
-9.87545
0
LINE
8
BLACK
6
CONTINUOUS
10
6.14345
20
-9.87545
11
6.23253
21
-9.87545
0
LINE
8
BLACK
6
CONTINUOUS
10
6.3525
20
-9.76623
11
6.42562
21
-9.76623
0
LINE
8
BLACK
6
CONTINUOUS
10
6.42562
20
-9.76623
11
6.38625
21
-9.81122
0
LINE
8
BLACK
6
CONTINUOUS
10
6.38625
20
-9.81122
11
6.40312
21
-9.81122
0
LINE
8
BLACK
6
CONTINUOUS
10
6.40312
20
-9.81122
11
6.41437
21
-9.81684
0
LINE
8
BLACK
6
CONTINUOUS
10
6.41437
20
-9.81684
11
6.41999
21
-9.82247
0
LINE
8
BLACK
6
CONTINUOUS
10
6.41999
20
-9.82247
11
6.42562
21
-9.83372
0
LINE
8
BLACK
6
CONTINUOUS
10
6.42562
20
-9.83372
11
6.42562
21
-9.86184
0
LINE
8
BLACK
6
CONTINUOUS
10
6.42562
20
-9.86184
11
6.41999
21
-9.87309
0
LINE
8
BLACK
6
CONTINUOUS
10
6.41999
20
-9.87309
11
6.41437
21
-9.87871
0
LINE
8
BLACK
6
CONTINUOUS
10
6.41437
20
-9.87871
11
6.40312
21
-9.88434
0
LINE
8
BLACK
6
CONTINUOUS
10
6.40312
20
-9.88434
11
6.36938
21
-9.88434
0
LINE
8
BLACK
6
CONTINUOUS
10
6.36938
20
-9.88434
11
6.35813
21
-9.87871
0
LINE
8
BLACK
6
CONTINUOUS
10
6.35813
20
-9.87871
11
6.3525
21
-9.87309
0
LINE
8
BLACK
6
CONTINUOUS
10
6.47624
20
-9.87309
11
6.48186
21
-9.87871
0
LINE
8
BLACK
6
CONTINUOUS
10
6.48186
20
-9.87871
11
6.47624
21
-9.88434
0
LINE
8
BLACK
6
CONTINUOUS
10
6.47624
20
-9.88434
11
6.47061
21
-9.87871
0
LINE
8
BLACK
6
CONTINUOUS
10
6.47061
20
-9.87871
11
6.47624
21
-9.87309
0
LINE
8
BLACK
6
CONTINUOUS
10
6.47624
20
-9.87309
11
6.47624
21
-9.88434
0
LINE
8
BLACK
6
CONTINUOUS
10
6.52686
20
-9.77747
11
6.53248
21
-9.77185
0
LINE
8
BLACK
6
CONTINUOUS
10
6.53248
20
-9.77185
11
6.54373
21
-9.76623
0
LINE
8
BLACK
6
CONTINUOUS
10
6.54373
20
-9.76623
11
6.57185
21
-9.76623
0
LINE
8
BLACK
6
CONTINUOUS
10
6.57185
20
-9.76623
11
6.5831
21
-9.77185
0
LINE
8
BLACK
6
CONTINUOUS
10
6.5831
20
-9.77185
11
6.58872
21
-9.77747
0
LINE
8
BLACK
6
CONTINUOUS
10
6.58872
20
-9.77747
11
6.59435
21
-9.78872
0
LINE
8
BLACK
6
CONTINUOUS
10
6.59435
20
-9.78872
11
6.59435
21
-9.79997
0
LINE
8
BLACK
6
CONTINUOUS
10
6.59435
20
-9.79997
11
6.58872
21
-9.81684
0
LINE
8
BLACK
6
CONTINUOUS
10
6.58872
20
-9.81684
11
6.52123
21
-9.88434
0
LINE
8
BLACK
6
CONTINUOUS
10
6.52123
20
-9.88434
11
6.59435
21
-9.88434
0
LINE
8
BLACK
6
CONTINUOUS
10
6.66746
20
-9.76623
11
6.67871
21
-9.76623
0
LINE
8
BLACK
6
CONTINUOUS
10
6.67871
20
-9.76623
11
6.68996
21
-9.77185
0
LINE
8
BLACK
6
CONTINUOUS
10
6.68996
20
-9.77185
11
6.69558
21
-9.77747
0
LINE
8
BLACK
6
CONTINUOUS
10
6.69558
20
-9.77747
11
6.70121
21
-9.78872
0
LINE
8
BLACK
6
CONTINUOUS
10
6.70121
20
-9.78872
11
6.70683
21
-9.81122
0
LINE
8
BLACK
6
CONTINUOUS
10
6.70683
20
-9.81122
11
6.70683
21
-9.83934
0
LINE
8
BLACK
6
CONTINUOUS
10
6.70683
20
-9.83934
11
6.70121
21
-9.86184
0
LINE
8
BLACK
6
CONTINUOUS
10
6.70121
20
-9.86184
11
6.69558
21
-9.87309
0
LINE
8
BLACK
6
CONTINUOUS
10
6.69558
20
-9.87309
11
6.68996
21
-9.87871
0
LINE
8
BLACK
6
CONTINUOUS
10
6.68996
20
-9.87871
11
6.67871
21
-9.88434
0
LINE
8
BLACK
6
CONTINUOUS
10
6.67871
20
-9.88434
11
6.66746
21
-9.88434
0
LINE
8
BLACK
6
CONTINUOUS
10
6.66746
20
-9.88434
11
6.65621
21
-9.87871
0
LINE
8
BLACK
6
CONTINUOUS
10
6.65621
20
-9.87871
11
6.65059
21
-9.87309
0
LINE
8
BLACK
6
CONTINUOUS
10
6.65059
20
-9.87309
11
6.64497
21
-9.86184
0
LINE
8
BLACK
6
CONTINUOUS
10
6.64497
20
-9.86184
11
6.63934
21
-9.83934
0
LINE
8
BLACK
6
CONTINUOUS
10
6.63934
20
-9.83934
11
6.63934
21
-9.81122
0
LINE
8
BLACK
6
CONTINUOUS
10
6.63934
20
-9.81122
11
6.64497
21
-9.78872
0
LINE
8
BLACK
6
CONTINUOUS
10
6.64497
20
-9.78872
11
6.65059
21
-9.77747
0
LINE
8
BLACK
6
CONTINUOUS
10
6.65059
20
-9.77747
11
6.65621
21
-9.77185
0
LINE
8
BLACK
6
CONTINUOUS
10
6.65621
20
-9.77185
11
6.66746
21
-9.76623
0
LINE
8
BLACK
6
CONTINUOUS
10
6.77995
20
-9.76623
11
6.7912
21
-9.76623
0
LINE
8
BLACK
6
CONTINUOUS
10
6.7912
20
-9.76623
11
6.80245
21
-9.77185
0
LINE
8
BLACK
6
CONTINUOUS
10
6.80245
20
-9.77185
11
6.80807
21
-9.77747
0
LINE
8
BLACK
6
CONTINUOUS
10
6.80807
20
-9.77747
11
6.8137
21
-9.78872
0
LINE
8
BLACK
6
CONTINUOUS
10
6.8137
20
-9.78872
11
6.81932
21
-9.81122
0
LINE
8
BLACK
6
CONTINUOUS
10
6.81932
20
-9.81122
11
6.81932
21
-9.83934
0
LINE
8
BLACK
6
CONTINUOUS
10
6.81932
20
-9.83934
11
6.8137
21
-9.86184
0
LINE
8
BLACK
6
CONTINUOUS
10
6.8137
20
-9.86184
11
6.80807
21
-9.87309
0
LINE
8
BLACK
6
CONTINUOUS
10
6.80807
20
-9.87309
11
6.80245
21
-9.87871
0
LINE
8
BLACK
6
CONTINUOUS
10
6.80245
20
-9.87871
11
6.7912
21
-9.88434
0
LINE
8
BLACK
6
CONTINUOUS
10
6.7912
20
-9.88434
11
6.77995
21
-9.88434
0
LINE
8
BLACK
6
CONTINUOUS
10
6.77995
20
-9.88434
11
6.7687
21
-9.87871
0
LINE
8
BLACK
6
CONTINUOUS
10
6.7687
20
-9.87871
11
6.76308
21
-9.87309
0
LINE
8
BLACK
6
CONTINUOUS
10
6.76308
20
-9.87309
11
6.75745
21
-9.86184
0
LINE
8
BLACK
6
CONTINUOUS
10
6.75745
20
-9.86184
11
6.75183
21
-9.83934
0
LINE
8
BLACK
6
CONTINUOUS
10
6.75183
20
-9.83934
11
6.75183
21
-9.81122
0
LINE
8
BLACK
6
CONTINUOUS
10
6.75183
20
-9.81122
11
6.75745
21
-9.78872
0
LINE
8
BLACK
6
CONTINUOUS
10
6.75745
20
-9.78872
11
6.76308
21
-9.77747
0
LINE
8
BLACK
6
CONTINUOUS
10
6.76308
20
-9.77747
11
6.7687
21
-9.77185
0
LINE
8
BLACK
6
CONTINUOUS
10
6.7687
20
-9.77185
11
6.77995
21
-9.76623
0
LINE
8
BLACK
6
CONTINUOUS
10
6.86994
20
-9.88434
11
6.86994
21
-9.8056
0
LINE
8
BLACK
6
CONTINUOUS
10
6.86994
20
-9.81684
11
6.87556
21
-9.81122
0
LINE
8
BLACK
6
CONTINUOUS
10
6.87556
20
-9.81122
11
6.88681
21
-9.8056
0
LINE
8
BLACK
6
CONTINUOUS
10
6.88681
20
-9.8056
11
6.90368
21
-9.8056
0
LINE
8
BLACK
6
CONTINUOUS
10
6.90368
20
-9.8056
11
6.91493
21
-9.81122
0
LINE
8
BLACK
6
CONTINUOUS
10
6.91493
20
-9.81122
11
6.92056
21
-9.82247
0
LINE
8
BLACK
6
CONTINUOUS
10
6.92056
20
-9.82247
11
6.92056
21
-9.88434
0
LINE
8
BLACK
6
CONTINUOUS
10
6.92056
20
-9.82247
11
6.92618
21
-9.81122
0
LINE
8
BLACK
6
CONTINUOUS
10
6.92618
20
-9.81122
11
6.93743
21
-9.8056
0
LINE
8
BLACK
6
CONTINUOUS
10
6.93743
20
-9.8056
11
6.9543
21
-9.8056
0
LINE
8
BLACK
6
CONTINUOUS
10
6.9543
20
-9.8056
11
6.96555
21
-9.81122
0
LINE
8
BLACK
6
CONTINUOUS
10
6.96555
20
-9.81122
11
6.97118
21
-9.82247
0
LINE
8
BLACK
6
CONTINUOUS
10
6.97118
20
-9.82247
11
6.97118
21
-9.88434
0
LINE
8
BLACK
6
CONTINUOUS
10
7.02742
20
-9.88434
11
7.02742
21
-9.8056
0
LINE
8
BLACK
6
CONTINUOUS
10
7.02742
20
-9.81684
11
7.03304
21
-9.81122
0
LINE
8
BLACK
6
CONTINUOUS
10
7.03304
20
-9.81122
11
7.04429
21
-9.8056
0
LINE
8
BLACK
6
CONTINUOUS
10
7.04429
20
-9.8056
11
7.06116
21
-9.8056
0
LINE
8
BLACK
6
CONTINUOUS
10
7.06116
20
-9.8056
11
7.07241
21
-9.81122
0
LINE
8
BLACK
6
CONTINUOUS
10
7.07241
20
-9.81122
11
7.07804
21
-9.82247
0
LINE
8
BLACK
6
CONTINUOUS
10
7.07804
20
-9.82247
11
7.07804
21
-9.88434
0
LINE
8
BLACK
6
CONTINUOUS
10
7.07804
20
-9.82247
11
7.08366
21
-9.81122
0
LINE
8
BLACK
6
CONTINUOUS
10
7.08366
20
-9.81122
11
7.09491
21
-9.8056
0
LINE
8
BLACK
6
CONTINUOUS
10
7.09491
20
-9.8056
11
7.11178
21
-9.8056
0
LINE
8
BLACK
6
CONTINUOUS
10
7.11178
20
-9.8056
11
7.12303
21
-9.81122
0
LINE
8
BLACK
6
CONTINUOUS
10
7.12303
20
-9.81122
11
7.12866
21
-9.82247
0
LINE
8
BLACK
6
CONTINUOUS
10
7.12866
20
-9.82247
11
7.12866
21
-9.88434
0
LINE
8
BLACK
6
CONTINUOUS
10
7.35925
20
-9.7606
11
7.25801
21
-9.91246
0
LINE
8
BLACK
6
CONTINUOUS
10
7.51111
20
-9.76623
11
7.52236
21
-9.76623
0
LINE
8
BLACK
6
CONTINUOUS
10
7.52236
20
-9.76623
11
7.53361
21
-9.77185
0
LINE
8
BLACK
6
CONTINUOUS
10
7.53361
20
-9.77185
11
7.53923
21
-9.77747
0
LINE
8
BLACK
6
CONTINUOUS
10
7.53923
20
-9.77747
11
7.54485
21
-9.78872
0
LINE
8
BLACK
6
CONTINUOUS
10
7.54485
20
-9.78872
11
7.55048
21
-9.81122
0
LINE
8
BLACK
6
CONTINUOUS
10
7.55048
20
-9.81122
11
7.55048
21
-9.83934
0
LINE
8
BLACK
6
CONTINUOUS
10
7.55048
20
-9.83934
11
7.54485
21
-9.86184
0
LINE
8
BLACK
6
CONTINUOUS
10
7.54485
20
-9.86184
11
7.53923
21
-9.87309
0
LINE
8
BLACK
6
CONTINUOUS
10
7.53923
20
-9.87309
11
7.53361
21
-9.87871
0
LINE
8
BLACK
6
CONTINUOUS
10
7.53361
20
-9.87871
11
7.52236
21
-9.88434
0
LINE
8
BLACK
6
CONTINUOUS
10
7.52236
20
-9.88434
11
7.51111
21
-9.88434
0
LINE
8
BLACK
6
CONTINUOUS
10
7.51111
20
-9.88434
11
7.49986
21
-9.87871
0
LINE
8
BLACK
6
CONTINUOUS
10
7.49986
20
-9.87871
11
7.49424
21
-9.87309
0
LINE
8
BLACK
6
CONTINUOUS
10
7.49424
20
-9.87309
11
7.48861
21
-9.86184
0
LINE
8
BLACK
6
CONTINUOUS
10
7.48861
20
-9.86184
11
7.48299
21
-9.83934
0
LINE
8
BLACK
6
CONTINUOUS
10
7.48299
20
-9.83934
11
7.48299
21
-9.81122
0
LINE
8
BLACK
6
CONTINUOUS
10
7.48299
20
-9.81122
11
7.48861
21
-9.78872
0
LINE
8
BLACK
6
CONTINUOUS
10
7.48861
20
-9.78872
11
7.49424
21
-9.77747
0
LINE
8
BLACK
6
CONTINUOUS
10
7.49424
20
-9.77747
11
7.49986
21
-9.77185
0
LINE
8
BLACK
6
CONTINUOUS
10
7.49986
20
-9.77185
11
7.51111
21
-9.76623
0
LINE
8
BLACK
6
CONTINUOUS
10
7.6011
20
-9.87309
11
7.60672
21
-9.87871
0
LINE
8
BLACK
6
CONTINUOUS
10
7.60672
20
-9.87871
11
7.6011
21
-9.88434
0
LINE
8
BLACK
6
CONTINUOUS
10
7.6011
20
-9.88434
11
7.59547
21
-9.87871
0
LINE
8
BLACK
6
CONTINUOUS
10
7.59547
20
-9.87871
11
7.6011
21
-9.87309
0
LINE
8
BLACK
6
CONTINUOUS
10
7.6011
20
-9.87309
11
7.6011
21
-9.88434
0
LINE
8
BLACK
6
CONTINUOUS
10
7.71921
20
-9.88434
11
7.65172
21
-9.88434
0
LINE
8
BLACK
6
CONTINUOUS
10
7.68546
20
-9.88434
11
7.68546
21
-9.76623
0
LINE
8
BLACK
6
CONTINUOUS
10
7.68546
20
-9.76623
11
7.67421
21
-9.7831
0
LINE
8
BLACK
6
CONTINUOUS
10
7.67421
20
-9.7831
11
7.66296
21
-9.79435
0
LINE
8
BLACK
6
CONTINUOUS
10
7.66296
20
-9.79435
11
7.65172
21
-9.79997
0
LINE
8
BLACK
6
CONTINUOUS
10
7.7642
20
-9.77747
11
7.76983
21
-9.77185
0
LINE
8
BLACK
6
CONTINUOUS
10
7.76983
20
-9.77185
11
7.78107
21
-9.76623
0
LINE
8
BLACK
6
CONTINUOUS
10
7.78107
20
-9.76623
11
7.8092
21
-9.76623
0
LINE
8
BLACK
6
CONTINUOUS
10
7.8092
20
-9.76623
11
7.82044
21
-9.77185
0
LINE
8
BLACK
6
CONTINUOUS
10
7.82044
20
-9.77185
11
7.82607
21
-9.77747
0
LINE
8
BLACK
6
CONTINUOUS
10
7.82607
20
-9.77747
11
7.83169
21
-9.78872
0
LINE
8
BLACK
6
CONTINUOUS
10
7.83169
20
-9.78872
11
7.83169
21
-9.79997
0
LINE
8
BLACK
6
CONTINUOUS
10
7.83169
20
-9.79997
11
7.82607
21
-9.81684
0
LINE
8
BLACK
6
CONTINUOUS
10
7.82607
20
-9.81684
11
7.75858
21
-9.88434
0
LINE
8
BLACK
6
CONTINUOUS
10
7.75858
20
-9.88434
11
7.83169
21
-9.88434
0
LINE
8
BLACK
6
CONTINUOUS
10
7.93293
20
-9.76623
11
7.91043
21
-9.76623
0
LINE
8
BLACK
6
CONTINUOUS
10
7.91043
20
-9.76623
11
7.89918
21
-9.77185
0
LINE
8
BLACK
6
CONTINUOUS
10
7.89918
20
-9.77185
11
7.89356
21
-9.77747
0
LINE
8
BLACK
6
CONTINUOUS
10
7.89356
20
-9.77747
11
7.88231
21
-9.79435
0
LINE
8
BLACK
6
CONTINUOUS
10
7.88231
20
-9.79435
11
7.87669
21
-9.81684
0
LINE
8
BLACK
6
CONTINUOUS
10
7.87669
20
-9.81684
11
7.87669
21
-9.86184
0
LINE
8
BLACK
6
CONTINUOUS
10
7.87669
20
-9.86184
11
7.88231
21
-9.87309
0
LINE
8
BLACK
6
CONTINUOUS
10
7.88231
20
-9.87309
11
7.88794
21
-9.87871
0
LINE
8
BLACK
6
CONTINUOUS
10
7.88794
20
-9.87871
11
7.89918
21
-9.88434
0
LINE
8
BLACK
6
CONTINUOUS
10
7.89918
20
-9.88434
11
7.92168
21
-9.88434
0
LINE
8
BLACK
6
CONTINUOUS
10
7.92168
20
-9.88434
11
7.93293
21
-9.87871
0
LINE
8
BLACK
6
CONTINUOUS
10
7.93293
20
-9.87871
11
7.93855
21
-9.87309
0
LINE
8
BLACK
6
CONTINUOUS
10
7.93855
20
-9.87309
11
7.94418
21
-9.86184
0
LINE
8
BLACK
6
CONTINUOUS
10
7.94418
20
-9.86184
11
7.94418
21
-9.83372
0
LINE
8
BLACK
6
CONTINUOUS
10
7.94418
20
-9.83372
11
7.93855
21
-9.82247
0
LINE
8
BLACK
6
CONTINUOUS
10
7.93855
20
-9.82247
11
7.93293
21
-9.81684
0
LINE
8
BLACK
6
CONTINUOUS
10
7.93293
20
-9.81684
11
7.92168
21
-9.81122
0
LINE
8
BLACK
6
CONTINUOUS
10
7.92168
20
-9.81122
11
7.89918
21
-9.81122
0
LINE
8
BLACK
6
CONTINUOUS
10
7.89918
20
-9.81122
11
7.88794
21
-9.81684
0
LINE
8
BLACK
6
CONTINUOUS
10
7.88794
20
-9.81684
11
7.88231
21
-9.82247
0
LINE
8
BLACK
6
CONTINUOUS
10
7.88231
20
-9.82247
11
7.87669
21
-9.83372
0
LINE
8
BLACK
6
CONTINUOUS
10
8.01729
20
-9.76623
11
8.02854
21
-9.76623
0
LINE
8
BLACK
6
CONTINUOUS
10
8.02854
20
-9.76623
11
8.03979
21
-9.77185
0
LINE
8
BLACK
6
CONTINUOUS
10
8.03979
20
-9.77185
11
8.04542
21
-9.77747
0
LINE
8
BLACK
6
CONTINUOUS
10
8.04542
20
-9.77747
11
8.05104
21
-9.78872
0
LINE
8
BLACK
6
CONTINUOUS
10
8.05104
20
-9.78872
11
8.05666
21
-9.81122
0
LINE
8
BLACK
6
CONTINUOUS
10
8.05666
20
-9.81122
11
8.05666
21
-9.83934
0
LINE
8
BLACK
6
CONTINUOUS
10
8.05666
20
-9.83934
11
8.05104
21
-9.86184
0
LINE
8
BLACK
6
CONTINUOUS
10
8.05104
20
-9.86184
11
8.04542
21
-9.87309
0
LINE
8
BLACK
6
CONTINUOUS
10
8.04542
20
-9.87309
11
8.03979
21
-9.87871
0
LINE
8
BLACK
6
CONTINUOUS
10
8.03979
20
-9.87871
11
8.02854
21
-9.88434
0
LINE
8
BLACK
6
CONTINUOUS
10
8.02854
20
-9.88434
11
8.01729
21
-9.88434
0
LINE
8
BLACK
6
CONTINUOUS
10
8.01729
20
-9.88434
11
8.00605
21
-9.87871
0
LINE
8
BLACK
6
CONTINUOUS
10
8.00605
20
-9.87871
11
8.00042
21
-9.87309
0
LINE
8
BLACK
6
CONTINUOUS
10
8.00042
20
-9.87309
11
7.9948
21
-9.86184
0
LINE
8
BLACK
6
CONTINUOUS
10
7.9948
20
-9.86184
11
7.98917
21
-9.83934
0
LINE
8
BLACK
6
CONTINUOUS
10
7.98917
20
-9.83934
11
7.98917
21
-9.81122
0
LINE
8
BLACK
6
CONTINUOUS
10
7.98917
20
-9.81122
11
7.9948
21
-9.78872
0
LINE
8
BLACK
6
CONTINUOUS
10
7.9948
20
-9.78872
11
8.00042
21
-9.77747
0
LINE
8
BLACK
6
CONTINUOUS
10
8.00042
20
-9.77747
11
8.00605
21
-9.77185
0
LINE
8
BLACK
6
CONTINUOUS
10
8.00605
20
-9.77185
11
8.01729
21
-9.76623
0
LINE
8
BLACK
6
CONTINUOUS
10
8.10166
20
-9.76623
11
8.10166
21
-9.78872
0
LINE
8
BLACK
6
CONTINUOUS
10
8.14665
20
-9.76623
11
8.14665
21
-9.78872
0
LINE
8
BLACK
6
CONTINUOUS
10
8.32101
20
-9.92933
11
8.31538
21
-9.92371
0
LINE
8
BLACK
6
CONTINUOUS
10
8.31538
20
-9.92371
11
8.30413
21
-9.90683
0
LINE
8
BLACK
6
CONTINUOUS
10
8.30413
20
-9.90683
11
8.29851
21
-9.89558
0
LINE
8
BLACK
6
CONTINUOUS
10
8.29851
20
-9.89558
11
8.29289
21
-9.87871
0
LINE
8
BLACK
6
CONTINUOUS
10
8.29289
20
-9.87871
11
8.28726
21
-9.85059
0
LINE
8
BLACK
6
CONTINUOUS
10
8.28726
20
-9.85059
11
8.28726
21
-9.82809
0
LINE
8
BLACK
6
CONTINUOUS
10
8.28726
20
-9.82809
11
8.29289
21
-9.79997
0
LINE
8
BLACK
6
CONTINUOUS
10
8.29289
20
-9.79997
11
8.29851
21
-9.7831
0
LINE
8
BLACK
6
CONTINUOUS
10
8.29851
20
-9.7831
11
8.30413
21
-9.77185
0
LINE
8
BLACK
6
CONTINUOUS
10
8.30413
20
-9.77185
11
8.31538
21
-9.75498
0
LINE
8
BLACK
6
CONTINUOUS
10
8.31538
20
-9.75498
11
8.32101
21
-9.74935
0
LINE
8
BLACK
6
CONTINUOUS
10
8.38287
20
-9.81684
11
8.37163
21
-9.81122
0
LINE
8
BLACK
6
CONTINUOUS
10
8.37163
20
-9.81122
11
8.366
21
-9.8056
0
LINE
8
BLACK
6
CONTINUOUS
10
8.366
20
-9.8056
11
8.36038
21
-9.79435
0
LINE
8
BLACK
6
CONTINUOUS
10
8.36038
20
-9.79435
11
8.36038
21
-9.78872
0
LINE
8
BLACK
6
CONTINUOUS
10
8.36038
20
-9.78872
11
8.366
21
-9.77747
0
LINE
8
BLACK
6
CONTINUOUS
10
8.366
20
-9.77747
11
8.37163
21
-9.77185
0
LINE
8
BLACK
6
CONTINUOUS
10
8.37163
20
-9.77185
11
8.38287
21
-9.76623
0
LINE
8
BLACK
6
CONTINUOUS
10
8.38287
20
-9.76623
11
8.40537
21
-9.76623
0
LINE
8
BLACK
6
CONTINUOUS
10
8.40537
20
-9.76623
11
8.41662
21
-9.77185
0
LINE
8
BLACK
6
CONTINUOUS
10
8.41662
20
-9.77185
11
8.42224
21
-9.77747
0
LINE
8
BLACK
6
CONTINUOUS
10
8.42224
20
-9.77747
11
8.42787
21
-9.78872
0
LINE
8
BLACK
6
CONTINUOUS
10
8.42787
20
-9.78872
11
8.42787
21
-9.79435
0
LINE
8
BLACK
6
CONTINUOUS
10
8.42787
20
-9.79435
11
8.42224
21
-9.8056
0
LINE
8
BLACK
6
CONTINUOUS
10
8.42224
20
-9.8056
11
8.41662
21
-9.81122
0
LINE
8
BLACK
6
CONTINUOUS
10
8.41662
20
-9.81122
11
8.40537
21
-9.81684
0
LINE
8
BLACK
6
CONTINUOUS
10
8.40537
20
-9.81684
11
8.38287
21
-9.81684
0
LINE
8
BLACK
6
CONTINUOUS
10
8.38287
20
-9.81684
11
8.37163
21
-9.82247
0
LINE
8
BLACK
6
CONTINUOUS
10
8.37163
20
-9.82247
11
8.366
21
-9.82809
0
LINE
8
BLACK
6
CONTINUOUS
10
8.366
20
-9.82809
11
8.36038
21
-9.83934
0
LINE
8
BLACK
6
CONTINUOUS
10
8.36038
20
-9.83934
11
8.36038
21
-9.86184
0
LINE
8
BLACK
6
CONTINUOUS
10
8.36038
20
-9.86184
11
8.366
21
-9.87309
0
LINE
8
BLACK
6
CONTINUOUS
10
8.366
20
-9.87309
11
8.37163
21
-9.87871
0
LINE
8
BLACK
6
CONTINUOUS
10
8.37163
20
-9.87871
11
8.38287
21
-9.88434
0
LINE
8
BLACK
6
CONTINUOUS
10
8.38287
20
-9.88434
11
8.40537
21
-9.88434
0
LINE
8
BLACK
6
CONTINUOUS
10
8.40537
20
-9.88434
11
8.41662
21
-9.87871
0
LINE
8
BLACK
6
CONTINUOUS
10
8.41662
20
-9.87871
11
8.42224
21
-9.87309
0
LINE
8
BLACK
6
CONTINUOUS
10
8.42224
20
-9.87309
11
8.42787
21
-9.86184
0
LINE
8
BLACK
6
CONTINUOUS
10
8.42787
20
-9.86184
11
8.42787
21
-9.83934
0
LINE
8
BLACK
6
CONTINUOUS
10
8.42787
20
-9.83934
11
8.42224
21
-9.82809
0
LINE
8
BLACK
6
CONTINUOUS
10
8.42224
20
-9.82809
11
8.41662
21
-9.82247
0
LINE
8
BLACK
6
CONTINUOUS
10
8.41662
20
-9.82247
11
8.40537
21
-9.81684
0
LINE
8
BLACK
6
CONTINUOUS
10
8.56848
20
-9.88434
11
8.56848
21
-9.76623
0
LINE
8
BLACK
6
CONTINUOUS
10
8.61909
20
-9.88434
11
8.61909
21
-9.82247
0
LINE
8
BLACK
6
CONTINUOUS
10
8.61909
20
-9.82247
11
8.61347
21
-9.81122
0
LINE
8
BLACK
6
CONTINUOUS
10
8.61347
20
-9.81122
11
8.60222
21
-9.8056
0
LINE
8
BLACK
6
CONTINUOUS
10
8.60222
20
-9.8056
11
8.58535
21
-9.8056
0
LINE
8
BLACK
6
CONTINUOUS
10
8.58535
20
-9.8056
11
8.5741
21
-9.81122
0
LINE
8
BLACK
6
CONTINUOUS
10
8.5741
20
-9.81122
11
8.56848
21
-9.81684
0
LINE
8
BLACK
6
CONTINUOUS
10
8.69221
20
-9.88434
11
8.68096
21
-9.87871
0
LINE
8
BLACK
6
CONTINUOUS
10
8.68096
20
-9.87871
11
8.67534
21
-9.87309
0
LINE
8
BLACK
6
CONTINUOUS
10
8.67534
20
-9.87309
11
8.66971
21
-9.86184
0
LINE
8
BLACK
6
CONTINUOUS
10
8.66971
20
-9.86184
11
8.66971
21
-9.82809
0
LINE
8
BLACK
6
CONTINUOUS
10
8.66971
20
-9.82809
11
8.67534
21
-9.81684
0
LINE
8
BLACK
6
CONTINUOUS
10
8.67534
20
-9.81684
11
8.68096
21
-9.81122
0
LINE
8
BLACK
6
CONTINUOUS
10
8.68096
20
-9.81122
11
8.69221
21
-9.8056
0
LINE
8
BLACK
6
CONTINUOUS
10
8.69221
20
-9.8056
11
8.70908
21
-9.8056
0
LINE
8
BLACK
6
CONTINUOUS
10
8.70908
20
-9.8056
11
8.72033
21
-9.81122
0
LINE
8
BLACK
6
CONTINUOUS
10
8.72033
20
-9.81122
11
8.72596
21
-9.81684
0
LINE
8
BLACK
6
CONTINUOUS
10
8.72596
20
-9.81684
11
8.73158
21
-9.82809
0
LINE
8
BLACK
6
CONTINUOUS
10
8.73158
20
-9.82809
11
8.73158
21
-9.86184
0
LINE
8
BLACK
6
CONTINUOUS
10
8.73158
20
-9.86184
11
8.72596
21
-9.87309
0
LINE
8
BLACK
6
CONTINUOUS
10
8.72596
20
-9.87309
11
8.72033
21
-9.87871
0
LINE
8
BLACK
6
CONTINUOUS
10
8.72033
20
-9.87871
11
8.70908
21
-9.88434
0
LINE
8
BLACK
6
CONTINUOUS
10
8.70908
20
-9.88434
11
8.69221
21
-9.88434
0
LINE
8
BLACK
6
CONTINUOUS
10
8.79907
20
-9.88434
11
8.78782
21
-9.87871
0
LINE
8
BLACK
6
CONTINUOUS
10
8.78782
20
-9.87871
11
8.7822
21
-9.86746
0
LINE
8
BLACK
6
CONTINUOUS
10
8.7822
20
-9.86746
11
8.7822
21
-9.76623
0
LINE
8
BLACK
6
CONTINUOUS
10
8.88906
20
-9.87871
11
8.87781
21
-9.88434
0
LINE
8
BLACK
6
CONTINUOUS
10
8.87781
20
-9.88434
11
8.85531
21
-9.88434
0
LINE
8
BLACK
6
CONTINUOUS
10
8.85531
20
-9.88434
11
8.84407
21
-9.87871
0
LINE
8
BLACK
6
CONTINUOUS
10
8.84407
20
-9.87871
11
8.83844
21
-9.86746
0
LINE
8
BLACK
6
CONTINUOUS
10
8.83844
20
-9.86746
11
8.83844
21
-9.82247
0
LINE
8
BLACK
6
CONTINUOUS
10
8.83844
20
-9.82247
11
8.84407
21
-9.81122
0
LINE
8
BLACK
6
CONTINUOUS
10
8.84407
20
-9.81122
11
8.85531
21
-9.8056
0
LINE
8
BLACK
6
CONTINUOUS
10
8.85531
20
-9.8056
11
8.87781
21
-9.8056
0
LINE
8
BLACK
6
CONTINUOUS
10
8.87781
20
-9.8056
11
8.88906
21
-9.81122
0
LINE
8
BLACK
6
CONTINUOUS
10
8.88906
20
-9.81122
11
8.89468
21
-9.82247
0
LINE
8
BLACK
6
CONTINUOUS
10
8.89468
20
-9.82247
11
8.89468
21
-9.83372
0
LINE
8
BLACK
6
CONTINUOUS
10
8.89468
20
-9.83372
11
8.83844
21
-9.84497
0
LINE
8
BLACK
6
CONTINUOUS
10
8.93968
20
-9.87871
11
8.95093
21
-9.88434
0
LINE
8
BLACK
6
CONTINUOUS
10
8.95093
20
-9.88434
11
8.97343
21
-9.88434
0
LINE
8
BLACK
6
CONTINUOUS
10
8.97343
20
-9.88434
11
8.98467
21
-9.87871
0
LINE
8
BLACK
6
CONTINUOUS
10
8.98467
20
-9.87871
11
8.9903
21
-9.86746
0
LINE
8
BLACK
6
CONTINUOUS
10
8.9903
20
-9.86746
11
8.9903
21
-9.86184
0
LINE
8
BLACK
6
CONTINUOUS
10
8.9903
20
-9.86184
11
8.98467
21
-9.85059
0
LINE
8
BLACK
6
CONTINUOUS
10
8.98467
20
-9.85059
11
8.97343
21
-9.84497
0
LINE
8
BLACK
6
CONTINUOUS
10
8.97343
20
-9.84497
11
8.95655
21
-9.84497
0
LINE
8
BLACK
6
CONTINUOUS
10
8.95655
20
-9.84497
11
8.9453
21
-9.83934
0
LINE
8
BLACK
6
CONTINUOUS
10
8.9453
20
-9.83934
11
8.93968
21
-9.82809
0
LINE
8
BLACK
6
CONTINUOUS
10
8.93968
20
-9.82809
11
8.93968
21
-9.82247
0
LINE
8
BLACK
6
CONTINUOUS
10
8.93968
20
-9.82247
11
8.9453
21
-9.81122
0
LINE
8
BLACK
6
CONTINUOUS
10
8.9453
20
-9.81122
11
8.95655
21
-9.8056
0
LINE
8
BLACK
6
CONTINUOUS
10
8.95655
20
-9.8056
11
8.97343
21
-9.8056
0
LINE
8
BLACK
6
CONTINUOUS
10
8.97343
20
-9.8056
11
8.98467
21
-9.81122
0
LINE
8
BLACK
6
CONTINUOUS
10
9.02967
20
-9.92933
11
9.03529
21
-9.92371
0
LINE
8
BLACK
6
CONTINUOUS
10
9.03529
20
-9.92371
11
9.04654
21
-9.90683
0
LINE
8
BLACK
6
CONTINUOUS
10
9.04654
20
-9.90683
11
9.05217
21
-9.89558
0
LINE
8
BLACK
6
CONTINUOUS
10
9.05217
20
-9.89558
11
9.05779
21
-9.87871
0
LINE
8
BLACK
6
CONTINUOUS
10
9.05779
20
-9.87871
11
9.06341
21
-9.85059
0
LINE
8
BLACK
6
CONTINUOUS
10
9.06341
20
-9.85059
11
9.06341
21
-9.82809
0
LINE
8
BLACK
6
CONTINUOUS
10
9.06341
20
-9.82809
11
9.05779
21
-9.79997
0
LINE
8
BLACK
6
CONTINUOUS
10
9.05779
20
-9.79997
11
9.05217
21
-9.7831
0
LINE
8
BLACK
6
CONTINUOUS
10
9.05217
20
-9.7831
11
9.04654
21
-9.77185
0
LINE
8
BLACK
6
CONTINUOUS
10
9.04654
20
-9.77185
11
9.03529
21
-9.75498
0
LINE
8
BLACK
6
CONTINUOUS
10
9.03529
20
-9.75498
11
9.02967
21
-9.74935
  0
ENDSEC
  0
EOF
