%TF.GenerationSoftware,KiCad,Pcbnew,(5.1.10)-1*%
%TF.CreationDate,2021-10-19T18:18:53+02:00*%
%TF.ProjectId,hard_cam_usb_production,68617264-5f63-4616-9d5f-7573625f7072,rev?*%
%TF.SameCoordinates,Original*%
%TF.FileFunction,Paste,Top*%
%TF.FilePolarity,Positive*%
%FSLAX46Y46*%
G04 Gerber Fmt 4.6, Leading zero omitted, Abs format (unit mm)*
G04 Created by KiCad (PCBNEW (5.1.10)-1) date 2021-10-19 18:18:53*
%MOMM*%
%LPD*%
G01*
G04 APERTURE LIST*
%ADD10R,0.500000X2.500000*%
%ADD11R,2.000000X2.500000*%
%ADD12R,0.520000X1.000000*%
%ADD13R,0.300000X0.900000*%
%ADD14R,0.900000X0.300000*%
%ADD15R,1.000000X0.520000*%
G04 APERTURE END LIST*
%TO.C,J6*%
G36*
G01*
X167525000Y-226137500D02*
X167525000Y-223662500D01*
G75*
G02*
X167662500Y-223525000I137500J0D01*
G01*
X167937500Y-223525000D01*
G75*
G02*
X168075000Y-223662500I0J-137500D01*
G01*
X168075000Y-226137500D01*
G75*
G02*
X167937500Y-226275000I-137500J0D01*
G01*
X167662500Y-226275000D01*
G75*
G02*
X167525000Y-226137500I0J137500D01*
G01*
G37*
G36*
G01*
X168325000Y-226137500D02*
X168325000Y-223662500D01*
G75*
G02*
X168462500Y-223525000I137500J0D01*
G01*
X168737500Y-223525000D01*
G75*
G02*
X168875000Y-223662500I0J-137500D01*
G01*
X168875000Y-226137500D01*
G75*
G02*
X168737500Y-226275000I-137500J0D01*
G01*
X168462500Y-226275000D01*
G75*
G02*
X168325000Y-226137500I0J137500D01*
G01*
G37*
G36*
G01*
X169125000Y-226137500D02*
X169125000Y-223662500D01*
G75*
G02*
X169262500Y-223525000I137500J0D01*
G01*
X169537500Y-223525000D01*
G75*
G02*
X169675000Y-223662500I0J-137500D01*
G01*
X169675000Y-226137500D01*
G75*
G02*
X169537500Y-226275000I-137500J0D01*
G01*
X169262500Y-226275000D01*
G75*
G02*
X169125000Y-226137500I0J137500D01*
G01*
G37*
G36*
G01*
X169925000Y-226137500D02*
X169925000Y-223662500D01*
G75*
G02*
X170062500Y-223525000I137500J0D01*
G01*
X170337500Y-223525000D01*
G75*
G02*
X170475000Y-223662500I0J-137500D01*
G01*
X170475000Y-226137500D01*
G75*
G02*
X170337500Y-226275000I-137500J0D01*
G01*
X170062500Y-226275000D01*
G75*
G02*
X169925000Y-226137500I0J137500D01*
G01*
G37*
G36*
G01*
X170725000Y-226137500D02*
X170725000Y-223662500D01*
G75*
G02*
X170862500Y-223525000I137500J0D01*
G01*
X171137500Y-223525000D01*
G75*
G02*
X171275000Y-223662500I0J-137500D01*
G01*
X171275000Y-226137500D01*
G75*
G02*
X171137500Y-226275000I-137500J0D01*
G01*
X170862500Y-226275000D01*
G75*
G02*
X170725000Y-226137500I0J137500D01*
G01*
G37*
G36*
G01*
X172550000Y-225150000D02*
X172550000Y-223850000D01*
G75*
G02*
X173200000Y-223200000I650000J0D01*
G01*
X175000000Y-223200000D01*
G75*
G02*
X175650000Y-223850000I0J-650000D01*
G01*
X175650000Y-225150000D01*
G75*
G02*
X175000000Y-225800000I-650000J0D01*
G01*
X173200000Y-225800000D01*
G75*
G02*
X172550000Y-225150000I0J650000D01*
G01*
G37*
G36*
G01*
X163150000Y-225150000D02*
X163150000Y-223850000D01*
G75*
G02*
X163800000Y-223200000I650000J0D01*
G01*
X165600000Y-223200000D01*
G75*
G02*
X166250000Y-223850000I0J-650000D01*
G01*
X166250000Y-225150000D01*
G75*
G02*
X165600000Y-225800000I-650000J0D01*
G01*
X163800000Y-225800000D01*
G75*
G02*
X163150000Y-225150000I0J650000D01*
G01*
G37*
%TD*%
D10*
%TO.C,J2*%
X223000000Y-198900000D03*
X222200000Y-198900000D03*
X221400000Y-198900000D03*
X220600000Y-198900000D03*
X219800000Y-198900000D03*
D11*
X225800000Y-198900000D03*
X217000000Y-198900000D03*
X225800000Y-204400000D03*
X217000000Y-204400000D03*
%TD*%
D12*
%TO.C,J1*%
X223526500Y-185033500D03*
X227006500Y-185033500D03*
D13*
X224266500Y-186233500D03*
X224766500Y-186233500D03*
X225266500Y-186233500D03*
X225766500Y-186233500D03*
X226266500Y-186233500D03*
%TD*%
%TO.C,J4*%
G36*
G01*
X184380500Y-216131000D02*
X186855500Y-216131000D01*
G75*
G02*
X186993000Y-216268500I0J-137500D01*
G01*
X186993000Y-216543500D01*
G75*
G02*
X186855500Y-216681000I-137500J0D01*
G01*
X184380500Y-216681000D01*
G75*
G02*
X184243000Y-216543500I0J137500D01*
G01*
X184243000Y-216268500D01*
G75*
G02*
X184380500Y-216131000I137500J0D01*
G01*
G37*
G36*
G01*
X184380500Y-216931000D02*
X186855500Y-216931000D01*
G75*
G02*
X186993000Y-217068500I0J-137500D01*
G01*
X186993000Y-217343500D01*
G75*
G02*
X186855500Y-217481000I-137500J0D01*
G01*
X184380500Y-217481000D01*
G75*
G02*
X184243000Y-217343500I0J137500D01*
G01*
X184243000Y-217068500D01*
G75*
G02*
X184380500Y-216931000I137500J0D01*
G01*
G37*
G36*
G01*
X184380500Y-217731000D02*
X186855500Y-217731000D01*
G75*
G02*
X186993000Y-217868500I0J-137500D01*
G01*
X186993000Y-218143500D01*
G75*
G02*
X186855500Y-218281000I-137500J0D01*
G01*
X184380500Y-218281000D01*
G75*
G02*
X184243000Y-218143500I0J137500D01*
G01*
X184243000Y-217868500D01*
G75*
G02*
X184380500Y-217731000I137500J0D01*
G01*
G37*
G36*
G01*
X184380500Y-218531000D02*
X186855500Y-218531000D01*
G75*
G02*
X186993000Y-218668500I0J-137500D01*
G01*
X186993000Y-218943500D01*
G75*
G02*
X186855500Y-219081000I-137500J0D01*
G01*
X184380500Y-219081000D01*
G75*
G02*
X184243000Y-218943500I0J137500D01*
G01*
X184243000Y-218668500D01*
G75*
G02*
X184380500Y-218531000I137500J0D01*
G01*
G37*
G36*
G01*
X184380500Y-219331000D02*
X186855500Y-219331000D01*
G75*
G02*
X186993000Y-219468500I0J-137500D01*
G01*
X186993000Y-219743500D01*
G75*
G02*
X186855500Y-219881000I-137500J0D01*
G01*
X184380500Y-219881000D01*
G75*
G02*
X184243000Y-219743500I0J137500D01*
G01*
X184243000Y-219468500D01*
G75*
G02*
X184380500Y-219331000I137500J0D01*
G01*
G37*
G36*
G01*
X185368000Y-221156000D02*
X186668000Y-221156000D01*
G75*
G02*
X187318000Y-221806000I0J-650000D01*
G01*
X187318000Y-223606000D01*
G75*
G02*
X186668000Y-224256000I-650000J0D01*
G01*
X185368000Y-224256000D01*
G75*
G02*
X184718000Y-223606000I0J650000D01*
G01*
X184718000Y-221806000D01*
G75*
G02*
X185368000Y-221156000I650000J0D01*
G01*
G37*
G36*
G01*
X185368000Y-211756000D02*
X186668000Y-211756000D01*
G75*
G02*
X187318000Y-212406000I0J-650000D01*
G01*
X187318000Y-214206000D01*
G75*
G02*
X186668000Y-214856000I-650000J0D01*
G01*
X185368000Y-214856000D01*
G75*
G02*
X184718000Y-214206000I0J650000D01*
G01*
X184718000Y-212406000D01*
G75*
G02*
X185368000Y-211756000I650000J0D01*
G01*
G37*
%TD*%
D14*
%TO.C,J3*%
X211700000Y-154900000D03*
X211700000Y-154400000D03*
X211700000Y-153900000D03*
X211700000Y-153400000D03*
X211700000Y-152900000D03*
D15*
X212900000Y-155640000D03*
X212900000Y-152160000D03*
%TD*%
D12*
%TO.C,J5*%
X170026500Y-155033500D03*
X173506500Y-155033500D03*
D13*
X170766500Y-156233500D03*
X171266500Y-156233500D03*
X171766500Y-156233500D03*
X172266500Y-156233500D03*
X172766500Y-156233500D03*
%TD*%
M02*
