%TF.GenerationSoftware,KiCad,Pcbnew,(5.1.10)-1*%
%TF.CreationDate,2021-10-19T18:18:53+02:00*%
%TF.ProjectId,hard_cam_usb_production,68617264-5f63-4616-9d5f-7573625f7072,rev?*%
%TF.SameCoordinates,Original*%
%TF.FileFunction,Legend,Top*%
%TF.FilePolarity,Positive*%
%FSLAX46Y46*%
G04 Gerber Fmt 4.6, Leading zero omitted, Abs format (unit mm)*
G04 Created by KiCad (PCBNEW (5.1.10)-1) date 2021-10-19 18:18:53*
%MOMM*%
%LPD*%
G01*
G04 APERTURE LIST*
%ADD10C,0.150000*%
%ADD11C,0.120000*%
%ADD12C,0.100000*%
%ADD13C,0.200000*%
%ADD14C,0.010000*%
%ADD15C,0.254000*%
G04 APERTURE END LIST*
D10*
X232185714Y-192223809D02*
X232109523Y-192261904D01*
X231957142Y-192261904D01*
X231880952Y-192223809D01*
X231842857Y-192185714D01*
X231804761Y-192109523D01*
X231804761Y-191880952D01*
X231842857Y-191804761D01*
X231880952Y-191766666D01*
X231957142Y-191728571D01*
X232109523Y-191728571D01*
X232185714Y-191766666D01*
X232871428Y-192261904D02*
X232871428Y-191842857D01*
X232833333Y-191766666D01*
X232757142Y-191728571D01*
X232604761Y-191728571D01*
X232528571Y-191766666D01*
X232871428Y-192223809D02*
X232795238Y-192261904D01*
X232604761Y-192261904D01*
X232528571Y-192223809D01*
X232490476Y-192147619D01*
X232490476Y-192071428D01*
X232528571Y-191995238D01*
X232604761Y-191957142D01*
X232795238Y-191957142D01*
X232871428Y-191919047D01*
X233252380Y-192261904D02*
X233252380Y-191728571D01*
X233252380Y-191804761D02*
X233290476Y-191766666D01*
X233366666Y-191728571D01*
X233480952Y-191728571D01*
X233557142Y-191766666D01*
X233595238Y-191842857D01*
X233595238Y-192261904D01*
X233595238Y-191842857D02*
X233633333Y-191766666D01*
X233709523Y-191728571D01*
X233823809Y-191728571D01*
X233900000Y-191766666D01*
X233938095Y-191842857D01*
X233938095Y-192261904D01*
X234128571Y-192338095D02*
X234738095Y-192338095D01*
X235271428Y-191728571D02*
X235271428Y-192261904D01*
X234928571Y-191728571D02*
X234928571Y-192147619D01*
X234966666Y-192223809D01*
X235042857Y-192261904D01*
X235157142Y-192261904D01*
X235233333Y-192223809D01*
X235271428Y-192185714D01*
X235614285Y-192223809D02*
X235690476Y-192261904D01*
X235842857Y-192261904D01*
X235919047Y-192223809D01*
X235957142Y-192147619D01*
X235957142Y-192109523D01*
X235919047Y-192033333D01*
X235842857Y-191995238D01*
X235728571Y-191995238D01*
X235652380Y-191957142D01*
X235614285Y-191880952D01*
X235614285Y-191842857D01*
X235652380Y-191766666D01*
X235728571Y-191728571D01*
X235842857Y-191728571D01*
X235919047Y-191766666D01*
X236300000Y-192261904D02*
X236300000Y-191461904D01*
X236300000Y-191766666D02*
X236376190Y-191728571D01*
X236528571Y-191728571D01*
X236604761Y-191766666D01*
X236642857Y-191804761D01*
X236680952Y-191880952D01*
X236680952Y-192109523D01*
X236642857Y-192185714D01*
X236604761Y-192223809D01*
X236528571Y-192261904D01*
X236376190Y-192261904D01*
X236300000Y-192223809D01*
X236833333Y-192338095D02*
X237442857Y-192338095D01*
X238052380Y-192261904D02*
X237595238Y-192261904D01*
X237823809Y-192261904D02*
X237823809Y-191461904D01*
X237747619Y-191576190D01*
X237671428Y-191652380D01*
X237595238Y-191690476D01*
X238395238Y-192185714D02*
X238433333Y-192223809D01*
X238395238Y-192261904D01*
X238357142Y-192223809D01*
X238395238Y-192185714D01*
X238395238Y-192261904D01*
X239195238Y-192261904D02*
X238738095Y-192261904D01*
X238966666Y-192261904D02*
X238966666Y-191461904D01*
X238890476Y-191576190D01*
X238814285Y-191652380D01*
X238738095Y-191690476D01*
X175685714Y-163723809D02*
X175609523Y-163761904D01*
X175457142Y-163761904D01*
X175380952Y-163723809D01*
X175342857Y-163685714D01*
X175304761Y-163609523D01*
X175304761Y-163380952D01*
X175342857Y-163304761D01*
X175380952Y-163266666D01*
X175457142Y-163228571D01*
X175609523Y-163228571D01*
X175685714Y-163266666D01*
X176371428Y-163761904D02*
X176371428Y-163342857D01*
X176333333Y-163266666D01*
X176257142Y-163228571D01*
X176104761Y-163228571D01*
X176028571Y-163266666D01*
X176371428Y-163723809D02*
X176295238Y-163761904D01*
X176104761Y-163761904D01*
X176028571Y-163723809D01*
X175990476Y-163647619D01*
X175990476Y-163571428D01*
X176028571Y-163495238D01*
X176104761Y-163457142D01*
X176295238Y-163457142D01*
X176371428Y-163419047D01*
X176752380Y-163761904D02*
X176752380Y-163228571D01*
X176752380Y-163304761D02*
X176790476Y-163266666D01*
X176866666Y-163228571D01*
X176980952Y-163228571D01*
X177057142Y-163266666D01*
X177095238Y-163342857D01*
X177095238Y-163761904D01*
X177095238Y-163342857D02*
X177133333Y-163266666D01*
X177209523Y-163228571D01*
X177323809Y-163228571D01*
X177400000Y-163266666D01*
X177438095Y-163342857D01*
X177438095Y-163761904D01*
X177628571Y-163838095D02*
X178238095Y-163838095D01*
X178771428Y-163228571D02*
X178771428Y-163761904D01*
X178428571Y-163228571D02*
X178428571Y-163647619D01*
X178466666Y-163723809D01*
X178542857Y-163761904D01*
X178657142Y-163761904D01*
X178733333Y-163723809D01*
X178771428Y-163685714D01*
X179114285Y-163723809D02*
X179190476Y-163761904D01*
X179342857Y-163761904D01*
X179419047Y-163723809D01*
X179457142Y-163647619D01*
X179457142Y-163609523D01*
X179419047Y-163533333D01*
X179342857Y-163495238D01*
X179228571Y-163495238D01*
X179152380Y-163457142D01*
X179114285Y-163380952D01*
X179114285Y-163342857D01*
X179152380Y-163266666D01*
X179228571Y-163228571D01*
X179342857Y-163228571D01*
X179419047Y-163266666D01*
X179800000Y-163761904D02*
X179800000Y-162961904D01*
X179800000Y-163266666D02*
X179876190Y-163228571D01*
X180028571Y-163228571D01*
X180104761Y-163266666D01*
X180142857Y-163304761D01*
X180180952Y-163380952D01*
X180180952Y-163609523D01*
X180142857Y-163685714D01*
X180104761Y-163723809D01*
X180028571Y-163761904D01*
X179876190Y-163761904D01*
X179800000Y-163723809D01*
X180333333Y-163838095D02*
X180942857Y-163838095D01*
X181552380Y-163761904D02*
X181095238Y-163761904D01*
X181323809Y-163761904D02*
X181323809Y-162961904D01*
X181247619Y-163076190D01*
X181171428Y-163152380D01*
X181095238Y-163190476D01*
X181895238Y-163685714D02*
X181933333Y-163723809D01*
X181895238Y-163761904D01*
X181857142Y-163723809D01*
X181895238Y-163685714D01*
X181895238Y-163761904D01*
X182238095Y-163038095D02*
X182276190Y-163000000D01*
X182352380Y-162961904D01*
X182542857Y-162961904D01*
X182619047Y-163000000D01*
X182657142Y-163038095D01*
X182695238Y-163114285D01*
X182695238Y-163190476D01*
X182657142Y-163304761D01*
X182200000Y-163761904D01*
X182695238Y-163761904D01*
X204176190Y-210085714D02*
X204138095Y-210009523D01*
X204138095Y-209857142D01*
X204176190Y-209780952D01*
X204214285Y-209742857D01*
X204290476Y-209704761D01*
X204519047Y-209704761D01*
X204595238Y-209742857D01*
X204633333Y-209780952D01*
X204671428Y-209857142D01*
X204671428Y-210009523D01*
X204633333Y-210085714D01*
X204138095Y-210771428D02*
X204557142Y-210771428D01*
X204633333Y-210733333D01*
X204671428Y-210657142D01*
X204671428Y-210504761D01*
X204633333Y-210428571D01*
X204176190Y-210771428D02*
X204138095Y-210695238D01*
X204138095Y-210504761D01*
X204176190Y-210428571D01*
X204252380Y-210390476D01*
X204328571Y-210390476D01*
X204404761Y-210428571D01*
X204442857Y-210504761D01*
X204442857Y-210695238D01*
X204480952Y-210771428D01*
X204138095Y-211152380D02*
X204671428Y-211152380D01*
X204595238Y-211152380D02*
X204633333Y-211190476D01*
X204671428Y-211266666D01*
X204671428Y-211380952D01*
X204633333Y-211457142D01*
X204557142Y-211495238D01*
X204138095Y-211495238D01*
X204557142Y-211495238D02*
X204633333Y-211533333D01*
X204671428Y-211609523D01*
X204671428Y-211723809D01*
X204633333Y-211800000D01*
X204557142Y-211838095D01*
X204138095Y-211838095D01*
X204061904Y-212028571D02*
X204061904Y-212638095D01*
X204671428Y-213171428D02*
X204138095Y-213171428D01*
X204671428Y-212828571D02*
X204252380Y-212828571D01*
X204176190Y-212866666D01*
X204138095Y-212942857D01*
X204138095Y-213057142D01*
X204176190Y-213133333D01*
X204214285Y-213171428D01*
X204176190Y-213514285D02*
X204138095Y-213590476D01*
X204138095Y-213742857D01*
X204176190Y-213819047D01*
X204252380Y-213857142D01*
X204290476Y-213857142D01*
X204366666Y-213819047D01*
X204404761Y-213742857D01*
X204404761Y-213628571D01*
X204442857Y-213552380D01*
X204519047Y-213514285D01*
X204557142Y-213514285D01*
X204633333Y-213552380D01*
X204671428Y-213628571D01*
X204671428Y-213742857D01*
X204633333Y-213819047D01*
X204138095Y-214200000D02*
X204938095Y-214200000D01*
X204633333Y-214200000D02*
X204671428Y-214276190D01*
X204671428Y-214428571D01*
X204633333Y-214504761D01*
X204595238Y-214542857D01*
X204519047Y-214580952D01*
X204290476Y-214580952D01*
X204214285Y-214542857D01*
X204176190Y-214504761D01*
X204138095Y-214428571D01*
X204138095Y-214276190D01*
X204176190Y-214200000D01*
X204061904Y-214733333D02*
X204061904Y-215342857D01*
X204138095Y-215952380D02*
X204138095Y-215495238D01*
X204138095Y-215723809D02*
X204938095Y-215723809D01*
X204823809Y-215647619D01*
X204747619Y-215571428D01*
X204709523Y-215495238D01*
X204214285Y-216295238D02*
X204176190Y-216333333D01*
X204138095Y-216295238D01*
X204176190Y-216257142D01*
X204214285Y-216295238D01*
X204138095Y-216295238D01*
X204938095Y-216600000D02*
X204938095Y-217095238D01*
X204633333Y-216828571D01*
X204633333Y-216942857D01*
X204595238Y-217019047D01*
X204557142Y-217057142D01*
X204480952Y-217095238D01*
X204290476Y-217095238D01*
X204214285Y-217057142D01*
X204176190Y-217019047D01*
X204138095Y-216942857D01*
X204138095Y-216714285D01*
X204176190Y-216638095D01*
X204214285Y-216600000D01*
D11*
%TO.C,J6*%
X163400000Y-226400000D02*
X175400000Y-226400000D01*
X175400000Y-226400000D02*
X175400000Y-222200000D01*
X163400000Y-222200000D02*
X163400000Y-226400000D01*
X175400000Y-222200000D02*
X175400000Y-221200000D01*
X175400000Y-221200000D02*
X163400000Y-221200000D01*
X163400000Y-221200000D02*
X163400000Y-222200000D01*
%TO.C,J2*%
X225360000Y-207510000D02*
X225360000Y-205850000D01*
X217440000Y-207510000D02*
X225360000Y-207510000D01*
X217440000Y-205850000D02*
X217440000Y-207510000D01*
X223450000Y-198040000D02*
X224600000Y-198040000D01*
X219350000Y-197450000D02*
X220050000Y-197450000D01*
X219350000Y-198040000D02*
X219350000Y-197450000D01*
X218200000Y-198040000D02*
X219350000Y-198040000D01*
X225360000Y-200350000D02*
X225360000Y-202950000D01*
X217440000Y-202950000D02*
X217440000Y-200350000D01*
D12*
%TO.C,J1*%
X227266500Y-184233500D02*
X227266500Y-182933500D01*
X227266500Y-182933500D02*
X223266500Y-182933500D01*
X223266500Y-182933500D02*
X223266500Y-184233500D01*
X226666500Y-186433500D02*
X227266500Y-186433500D01*
X227266500Y-186433500D02*
X227266500Y-185833500D01*
X223866500Y-186433500D02*
X223266500Y-186433500D01*
X223266500Y-186433500D02*
X223266500Y-185833500D01*
D13*
X226366500Y-187133500D02*
X226366500Y-187133500D01*
X226166500Y-187133500D02*
X226166500Y-187133500D01*
X226366500Y-187133500D02*
G75*
G02*
X226166500Y-187133500I-100000J0D01*
G01*
X226166500Y-187133500D02*
G75*
G02*
X226366500Y-187133500I100000J0D01*
G01*
D11*
%TO.C,J4*%
X184118000Y-212006000D02*
X184118000Y-224006000D01*
X184118000Y-224006000D02*
X188318000Y-224006000D01*
X188318000Y-212006000D02*
X184118000Y-212006000D01*
X188318000Y-224006000D02*
X189318000Y-224006000D01*
X189318000Y-224006000D02*
X189318000Y-212006000D01*
X189318000Y-212006000D02*
X188318000Y-212006000D01*
D13*
%TO.C,J3*%
X210800000Y-154800000D02*
X210800000Y-154800000D01*
X210800000Y-155000000D02*
X210800000Y-155000000D01*
D12*
X211500000Y-151900000D02*
X212100000Y-151900000D01*
X211500000Y-152500000D02*
X211500000Y-151900000D01*
X211500000Y-155900000D02*
X212100000Y-155900000D01*
X211500000Y-155300000D02*
X211500000Y-155900000D01*
X215000000Y-151900000D02*
X213700000Y-151900000D01*
X215000000Y-155900000D02*
X215000000Y-151900000D01*
X213700000Y-155900000D02*
X215000000Y-155900000D01*
D13*
X210800000Y-154800000D02*
G75*
G02*
X210800000Y-155000000I0J-100000D01*
G01*
X210800000Y-155000000D02*
G75*
G02*
X210800000Y-154800000I0J100000D01*
G01*
D12*
%TO.C,J5*%
X173766500Y-154233500D02*
X173766500Y-152933500D01*
X173766500Y-152933500D02*
X169766500Y-152933500D01*
X169766500Y-152933500D02*
X169766500Y-154233500D01*
X173166500Y-156433500D02*
X173766500Y-156433500D01*
X173766500Y-156433500D02*
X173766500Y-155833500D01*
X170366500Y-156433500D02*
X169766500Y-156433500D01*
X169766500Y-156433500D02*
X169766500Y-155833500D01*
D13*
X172866500Y-157133500D02*
X172866500Y-157133500D01*
X172666500Y-157133500D02*
X172666500Y-157133500D01*
X172866500Y-157133500D02*
G75*
G02*
X172666500Y-157133500I-100000J0D01*
G01*
X172666500Y-157133500D02*
G75*
G02*
X172866500Y-157133500I100000J0D01*
G01*
D14*
%TO.C,L1*%
G36*
X230550200Y-188461799D02*
G01*
X230645551Y-188652046D01*
X230734027Y-188827156D01*
X230813035Y-188982109D01*
X230879985Y-189111885D01*
X230932285Y-189211463D01*
X230967345Y-189275821D01*
X230982573Y-189299940D01*
X230982771Y-189300000D01*
X230997009Y-189278124D01*
X231031367Y-189215846D01*
X231083225Y-189118190D01*
X231149964Y-188990183D01*
X231228965Y-188836848D01*
X231317609Y-188663210D01*
X231413276Y-188474294D01*
X231416375Y-188468150D01*
X231835892Y-187636300D01*
X232570996Y-187631415D01*
X232781857Y-187630166D01*
X232946216Y-187629699D01*
X233068367Y-187630239D01*
X233152606Y-187632012D01*
X233203227Y-187635244D01*
X233224525Y-187640158D01*
X233220794Y-187646980D01*
X233196330Y-187655937D01*
X233171685Y-187662917D01*
X232888700Y-187764112D01*
X232630834Y-187905801D01*
X232402216Y-188084038D01*
X232206977Y-188294878D01*
X232049244Y-188534373D01*
X231933147Y-188798579D01*
X231911298Y-188867396D01*
X231873702Y-189043478D01*
X231853896Y-189242701D01*
X231853280Y-189440947D01*
X231869217Y-189592568D01*
X231904560Y-189744815D01*
X231957058Y-189908013D01*
X232020060Y-190064776D01*
X232086919Y-190197719D01*
X232121591Y-190252500D01*
X232193228Y-190354100D01*
X231845260Y-191052600D01*
X230131100Y-191052448D01*
X229273850Y-189352512D01*
X229135971Y-189078910D01*
X229004956Y-188818560D01*
X228882578Y-188575009D01*
X228770607Y-188351800D01*
X228670818Y-188152479D01*
X228584982Y-187980592D01*
X228514873Y-187839682D01*
X228462263Y-187733295D01*
X228428925Y-187664977D01*
X228416630Y-187638272D01*
X228416600Y-187638088D01*
X228441024Y-187634659D01*
X228510396Y-187631520D01*
X228618862Y-187628768D01*
X228760571Y-187626505D01*
X228929670Y-187624827D01*
X229120307Y-187623835D01*
X229274157Y-187623599D01*
X230131715Y-187623599D01*
X230550200Y-188461799D01*
G37*
X230550200Y-188461799D02*
X230645551Y-188652046D01*
X230734027Y-188827156D01*
X230813035Y-188982109D01*
X230879985Y-189111885D01*
X230932285Y-189211463D01*
X230967345Y-189275821D01*
X230982573Y-189299940D01*
X230982771Y-189300000D01*
X230997009Y-189278124D01*
X231031367Y-189215846D01*
X231083225Y-189118190D01*
X231149964Y-188990183D01*
X231228965Y-188836848D01*
X231317609Y-188663210D01*
X231413276Y-188474294D01*
X231416375Y-188468150D01*
X231835892Y-187636300D01*
X232570996Y-187631415D01*
X232781857Y-187630166D01*
X232946216Y-187629699D01*
X233068367Y-187630239D01*
X233152606Y-187632012D01*
X233203227Y-187635244D01*
X233224525Y-187640158D01*
X233220794Y-187646980D01*
X233196330Y-187655937D01*
X233171685Y-187662917D01*
X232888700Y-187764112D01*
X232630834Y-187905801D01*
X232402216Y-188084038D01*
X232206977Y-188294878D01*
X232049244Y-188534373D01*
X231933147Y-188798579D01*
X231911298Y-188867396D01*
X231873702Y-189043478D01*
X231853896Y-189242701D01*
X231853280Y-189440947D01*
X231869217Y-189592568D01*
X231904560Y-189744815D01*
X231957058Y-189908013D01*
X232020060Y-190064776D01*
X232086919Y-190197719D01*
X232121591Y-190252500D01*
X232193228Y-190354100D01*
X231845260Y-191052600D01*
X230131100Y-191052448D01*
X229273850Y-189352512D01*
X229135971Y-189078910D01*
X229004956Y-188818560D01*
X228882578Y-188575009D01*
X228770607Y-188351800D01*
X228670818Y-188152479D01*
X228584982Y-187980592D01*
X228514873Y-187839682D01*
X228462263Y-187733295D01*
X228428925Y-187664977D01*
X228416630Y-187638272D01*
X228416600Y-187638088D01*
X228441024Y-187634659D01*
X228510396Y-187631520D01*
X228618862Y-187628768D01*
X228760571Y-187626505D01*
X228929670Y-187624827D01*
X229120307Y-187623835D01*
X229274157Y-187623599D01*
X230131715Y-187623599D01*
X230550200Y-188461799D01*
G36*
X236150900Y-187623803D02*
G01*
X237014500Y-187623818D01*
X237433600Y-188461285D01*
X237529177Y-188651449D01*
X237617956Y-188826509D01*
X237697328Y-188981436D01*
X237764681Y-189111206D01*
X237817408Y-189210793D01*
X237852898Y-189275171D01*
X237868543Y-189299315D01*
X237868752Y-189299375D01*
X237883441Y-189277641D01*
X237918218Y-189215492D01*
X237970453Y-189117949D01*
X238037513Y-188990035D01*
X238116767Y-188836770D01*
X238205583Y-188663176D01*
X238301328Y-188474273D01*
X238304418Y-188468150D01*
X238724032Y-187636300D01*
X240461482Y-187636300D01*
X241323561Y-189344449D01*
X242185639Y-191052599D01*
X241320993Y-191052600D01*
X240456348Y-191052600D01*
X240028613Y-190197427D01*
X239909173Y-189960027D01*
X239810144Y-189766379D01*
X239730308Y-189614270D01*
X239668448Y-189501486D01*
X239623346Y-189425815D01*
X239593784Y-189385044D01*
X239578544Y-189376958D01*
X239577689Y-189377969D01*
X239561203Y-189408278D01*
X239524633Y-189478592D01*
X239470722Y-189583534D01*
X239402217Y-189717729D01*
X239321861Y-189875801D01*
X239232401Y-190052372D01*
X239144287Y-190226792D01*
X238734075Y-191039900D01*
X237874287Y-191046426D01*
X237014500Y-191052953D01*
X236587592Y-190201278D01*
X236491118Y-190010004D01*
X236401351Y-189834311D01*
X236320879Y-189679094D01*
X236252293Y-189549248D01*
X236198179Y-189449666D01*
X236161128Y-189385243D01*
X236143727Y-189360873D01*
X236143092Y-189360867D01*
X236128137Y-189385414D01*
X236093254Y-189450379D01*
X236041059Y-189550656D01*
X235974169Y-189681139D01*
X235895200Y-189836722D01*
X235806768Y-190012301D01*
X235711491Y-190202769D01*
X235706707Y-190212365D01*
X235287915Y-191052600D01*
X234487507Y-191050307D01*
X234266970Y-191049538D01*
X234093354Y-191048489D01*
X233962778Y-191046941D01*
X233871363Y-191044674D01*
X233815231Y-191041469D01*
X233790500Y-191037105D01*
X233793292Y-191031364D01*
X233819727Y-191024025D01*
X233864900Y-191015059D01*
X234150422Y-190938617D01*
X234409691Y-190819189D01*
X234646278Y-190654893D01*
X234779922Y-190532902D01*
X234864511Y-190442422D01*
X234943743Y-190347546D01*
X235011584Y-190256801D01*
X235062005Y-190178718D01*
X235088973Y-190121823D01*
X235088730Y-190096263D01*
X235063396Y-190081938D01*
X234998876Y-190048354D01*
X234901536Y-189998742D01*
X234777741Y-189936331D01*
X234633856Y-189864350D01*
X234521341Y-189808386D01*
X233966500Y-189533056D01*
X233897051Y-189608156D01*
X233779394Y-189701678D01*
X233646438Y-189748112D01*
X233504439Y-189746369D01*
X233368736Y-189700049D01*
X233255184Y-189616883D01*
X233180047Y-189506285D01*
X233146013Y-189376931D01*
X233155765Y-189237500D01*
X233193047Y-189132323D01*
X233272665Y-189019945D01*
X233378814Y-188944577D01*
X233501872Y-188907540D01*
X233632220Y-188910156D01*
X233760237Y-188953744D01*
X233875340Y-189038660D01*
X233965050Y-189128370D01*
X234520327Y-188852235D01*
X234674757Y-188774956D01*
X234813602Y-188704558D01*
X234930509Y-188644335D01*
X235019130Y-188597582D01*
X235073113Y-188567594D01*
X235086977Y-188558220D01*
X235080891Y-188528638D01*
X235053253Y-188471102D01*
X235023481Y-188420053D01*
X234948612Y-188299766D01*
X235037434Y-188120433D01*
X235094835Y-188005102D01*
X235157203Y-187880655D01*
X235206777Y-187782443D01*
X235287300Y-187623787D01*
X236150900Y-187623803D01*
G37*
X236150900Y-187623803D02*
X237014500Y-187623818D01*
X237433600Y-188461285D01*
X237529177Y-188651449D01*
X237617956Y-188826509D01*
X237697328Y-188981436D01*
X237764681Y-189111206D01*
X237817408Y-189210793D01*
X237852898Y-189275171D01*
X237868543Y-189299315D01*
X237868752Y-189299375D01*
X237883441Y-189277641D01*
X237918218Y-189215492D01*
X237970453Y-189117949D01*
X238037513Y-188990035D01*
X238116767Y-188836770D01*
X238205583Y-188663176D01*
X238301328Y-188474273D01*
X238304418Y-188468150D01*
X238724032Y-187636300D01*
X240461482Y-187636300D01*
X241323561Y-189344449D01*
X242185639Y-191052599D01*
X241320993Y-191052600D01*
X240456348Y-191052600D01*
X240028613Y-190197427D01*
X239909173Y-189960027D01*
X239810144Y-189766379D01*
X239730308Y-189614270D01*
X239668448Y-189501486D01*
X239623346Y-189425815D01*
X239593784Y-189385044D01*
X239578544Y-189376958D01*
X239577689Y-189377969D01*
X239561203Y-189408278D01*
X239524633Y-189478592D01*
X239470722Y-189583534D01*
X239402217Y-189717729D01*
X239321861Y-189875801D01*
X239232401Y-190052372D01*
X239144287Y-190226792D01*
X238734075Y-191039900D01*
X237874287Y-191046426D01*
X237014500Y-191052953D01*
X236587592Y-190201278D01*
X236491118Y-190010004D01*
X236401351Y-189834311D01*
X236320879Y-189679094D01*
X236252293Y-189549248D01*
X236198179Y-189449666D01*
X236161128Y-189385243D01*
X236143727Y-189360873D01*
X236143092Y-189360867D01*
X236128137Y-189385414D01*
X236093254Y-189450379D01*
X236041059Y-189550656D01*
X235974169Y-189681139D01*
X235895200Y-189836722D01*
X235806768Y-190012301D01*
X235711491Y-190202769D01*
X235706707Y-190212365D01*
X235287915Y-191052600D01*
X234487507Y-191050307D01*
X234266970Y-191049538D01*
X234093354Y-191048489D01*
X233962778Y-191046941D01*
X233871363Y-191044674D01*
X233815231Y-191041469D01*
X233790500Y-191037105D01*
X233793292Y-191031364D01*
X233819727Y-191024025D01*
X233864900Y-191015059D01*
X234150422Y-190938617D01*
X234409691Y-190819189D01*
X234646278Y-190654893D01*
X234779922Y-190532902D01*
X234864511Y-190442422D01*
X234943743Y-190347546D01*
X235011584Y-190256801D01*
X235062005Y-190178718D01*
X235088973Y-190121823D01*
X235088730Y-190096263D01*
X235063396Y-190081938D01*
X234998876Y-190048354D01*
X234901536Y-189998742D01*
X234777741Y-189936331D01*
X234633856Y-189864350D01*
X234521341Y-189808386D01*
X233966500Y-189533056D01*
X233897051Y-189608156D01*
X233779394Y-189701678D01*
X233646438Y-189748112D01*
X233504439Y-189746369D01*
X233368736Y-189700049D01*
X233255184Y-189616883D01*
X233180047Y-189506285D01*
X233146013Y-189376931D01*
X233155765Y-189237500D01*
X233193047Y-189132323D01*
X233272665Y-189019945D01*
X233378814Y-188944577D01*
X233501872Y-188907540D01*
X233632220Y-188910156D01*
X233760237Y-188953744D01*
X233875340Y-189038660D01*
X233965050Y-189128370D01*
X234520327Y-188852235D01*
X234674757Y-188774956D01*
X234813602Y-188704558D01*
X234930509Y-188644335D01*
X235019130Y-188597582D01*
X235073113Y-188567594D01*
X235086977Y-188558220D01*
X235080891Y-188528638D01*
X235053253Y-188471102D01*
X235023481Y-188420053D01*
X234948612Y-188299766D01*
X235037434Y-188120433D01*
X235094835Y-188005102D01*
X235157203Y-187880655D01*
X235206777Y-187782443D01*
X235287300Y-187623787D01*
X236150900Y-187623803D01*
%TO.C,L2*%
G36*
X180850900Y-159023803D02*
G01*
X181714500Y-159023818D01*
X182133600Y-159861285D01*
X182229177Y-160051449D01*
X182317956Y-160226509D01*
X182397328Y-160381436D01*
X182464681Y-160511206D01*
X182517408Y-160610793D01*
X182552898Y-160675171D01*
X182568543Y-160699315D01*
X182568752Y-160699375D01*
X182583441Y-160677641D01*
X182618218Y-160615492D01*
X182670453Y-160517949D01*
X182737513Y-160390035D01*
X182816767Y-160236770D01*
X182905583Y-160063176D01*
X183001328Y-159874273D01*
X183004418Y-159868150D01*
X183424032Y-159036300D01*
X185161482Y-159036300D01*
X186023561Y-160744449D01*
X186885639Y-162452599D01*
X186020993Y-162452600D01*
X185156348Y-162452600D01*
X184728613Y-161597427D01*
X184609173Y-161360027D01*
X184510144Y-161166379D01*
X184430308Y-161014270D01*
X184368448Y-160901486D01*
X184323346Y-160825815D01*
X184293784Y-160785044D01*
X184278544Y-160776958D01*
X184277689Y-160777969D01*
X184261203Y-160808278D01*
X184224633Y-160878592D01*
X184170722Y-160983534D01*
X184102217Y-161117729D01*
X184021861Y-161275801D01*
X183932401Y-161452372D01*
X183844287Y-161626792D01*
X183434075Y-162439900D01*
X182574287Y-162446426D01*
X181714500Y-162452953D01*
X181287592Y-161601278D01*
X181191118Y-161410004D01*
X181101351Y-161234311D01*
X181020879Y-161079094D01*
X180952293Y-160949248D01*
X180898179Y-160849666D01*
X180861128Y-160785243D01*
X180843727Y-160760873D01*
X180843092Y-160760867D01*
X180828137Y-160785414D01*
X180793254Y-160850379D01*
X180741059Y-160950656D01*
X180674169Y-161081139D01*
X180595200Y-161236722D01*
X180506768Y-161412301D01*
X180411491Y-161602769D01*
X180406707Y-161612365D01*
X179987915Y-162452600D01*
X179187507Y-162450307D01*
X178966970Y-162449538D01*
X178793354Y-162448489D01*
X178662778Y-162446941D01*
X178571363Y-162444674D01*
X178515231Y-162441469D01*
X178490500Y-162437105D01*
X178493292Y-162431364D01*
X178519727Y-162424025D01*
X178564900Y-162415059D01*
X178850422Y-162338617D01*
X179109691Y-162219189D01*
X179346278Y-162054893D01*
X179479922Y-161932902D01*
X179564511Y-161842422D01*
X179643743Y-161747546D01*
X179711584Y-161656801D01*
X179762005Y-161578718D01*
X179788973Y-161521823D01*
X179788730Y-161496263D01*
X179763396Y-161481938D01*
X179698876Y-161448354D01*
X179601536Y-161398742D01*
X179477741Y-161336331D01*
X179333856Y-161264350D01*
X179221341Y-161208386D01*
X178666500Y-160933056D01*
X178597051Y-161008156D01*
X178479394Y-161101678D01*
X178346438Y-161148112D01*
X178204439Y-161146369D01*
X178068736Y-161100049D01*
X177955184Y-161016883D01*
X177880047Y-160906285D01*
X177846013Y-160776931D01*
X177855765Y-160637500D01*
X177893047Y-160532323D01*
X177972665Y-160419945D01*
X178078814Y-160344577D01*
X178201872Y-160307540D01*
X178332220Y-160310156D01*
X178460237Y-160353744D01*
X178575340Y-160438660D01*
X178665050Y-160528370D01*
X179220327Y-160252235D01*
X179374757Y-160174956D01*
X179513602Y-160104558D01*
X179630509Y-160044335D01*
X179719130Y-159997582D01*
X179773113Y-159967594D01*
X179786977Y-159958220D01*
X179780891Y-159928638D01*
X179753253Y-159871102D01*
X179723481Y-159820053D01*
X179648612Y-159699766D01*
X179737434Y-159520433D01*
X179794835Y-159405102D01*
X179857203Y-159280655D01*
X179906777Y-159182443D01*
X179987300Y-159023787D01*
X180850900Y-159023803D01*
G37*
X180850900Y-159023803D02*
X181714500Y-159023818D01*
X182133600Y-159861285D01*
X182229177Y-160051449D01*
X182317956Y-160226509D01*
X182397328Y-160381436D01*
X182464681Y-160511206D01*
X182517408Y-160610793D01*
X182552898Y-160675171D01*
X182568543Y-160699315D01*
X182568752Y-160699375D01*
X182583441Y-160677641D01*
X182618218Y-160615492D01*
X182670453Y-160517949D01*
X182737513Y-160390035D01*
X182816767Y-160236770D01*
X182905583Y-160063176D01*
X183001328Y-159874273D01*
X183004418Y-159868150D01*
X183424032Y-159036300D01*
X185161482Y-159036300D01*
X186023561Y-160744449D01*
X186885639Y-162452599D01*
X186020993Y-162452600D01*
X185156348Y-162452600D01*
X184728613Y-161597427D01*
X184609173Y-161360027D01*
X184510144Y-161166379D01*
X184430308Y-161014270D01*
X184368448Y-160901486D01*
X184323346Y-160825815D01*
X184293784Y-160785044D01*
X184278544Y-160776958D01*
X184277689Y-160777969D01*
X184261203Y-160808278D01*
X184224633Y-160878592D01*
X184170722Y-160983534D01*
X184102217Y-161117729D01*
X184021861Y-161275801D01*
X183932401Y-161452372D01*
X183844287Y-161626792D01*
X183434075Y-162439900D01*
X182574287Y-162446426D01*
X181714500Y-162452953D01*
X181287592Y-161601278D01*
X181191118Y-161410004D01*
X181101351Y-161234311D01*
X181020879Y-161079094D01*
X180952293Y-160949248D01*
X180898179Y-160849666D01*
X180861128Y-160785243D01*
X180843727Y-160760873D01*
X180843092Y-160760867D01*
X180828137Y-160785414D01*
X180793254Y-160850379D01*
X180741059Y-160950656D01*
X180674169Y-161081139D01*
X180595200Y-161236722D01*
X180506768Y-161412301D01*
X180411491Y-161602769D01*
X180406707Y-161612365D01*
X179987915Y-162452600D01*
X179187507Y-162450307D01*
X178966970Y-162449538D01*
X178793354Y-162448489D01*
X178662778Y-162446941D01*
X178571363Y-162444674D01*
X178515231Y-162441469D01*
X178490500Y-162437105D01*
X178493292Y-162431364D01*
X178519727Y-162424025D01*
X178564900Y-162415059D01*
X178850422Y-162338617D01*
X179109691Y-162219189D01*
X179346278Y-162054893D01*
X179479922Y-161932902D01*
X179564511Y-161842422D01*
X179643743Y-161747546D01*
X179711584Y-161656801D01*
X179762005Y-161578718D01*
X179788973Y-161521823D01*
X179788730Y-161496263D01*
X179763396Y-161481938D01*
X179698876Y-161448354D01*
X179601536Y-161398742D01*
X179477741Y-161336331D01*
X179333856Y-161264350D01*
X179221341Y-161208386D01*
X178666500Y-160933056D01*
X178597051Y-161008156D01*
X178479394Y-161101678D01*
X178346438Y-161148112D01*
X178204439Y-161146369D01*
X178068736Y-161100049D01*
X177955184Y-161016883D01*
X177880047Y-160906285D01*
X177846013Y-160776931D01*
X177855765Y-160637500D01*
X177893047Y-160532323D01*
X177972665Y-160419945D01*
X178078814Y-160344577D01*
X178201872Y-160307540D01*
X178332220Y-160310156D01*
X178460237Y-160353744D01*
X178575340Y-160438660D01*
X178665050Y-160528370D01*
X179220327Y-160252235D01*
X179374757Y-160174956D01*
X179513602Y-160104558D01*
X179630509Y-160044335D01*
X179719130Y-159997582D01*
X179773113Y-159967594D01*
X179786977Y-159958220D01*
X179780891Y-159928638D01*
X179753253Y-159871102D01*
X179723481Y-159820053D01*
X179648612Y-159699766D01*
X179737434Y-159520433D01*
X179794835Y-159405102D01*
X179857203Y-159280655D01*
X179906777Y-159182443D01*
X179987300Y-159023787D01*
X180850900Y-159023803D01*
G36*
X175250200Y-159861799D02*
G01*
X175345551Y-160052046D01*
X175434027Y-160227156D01*
X175513035Y-160382109D01*
X175579985Y-160511885D01*
X175632285Y-160611463D01*
X175667345Y-160675821D01*
X175682573Y-160699940D01*
X175682771Y-160700000D01*
X175697009Y-160678124D01*
X175731367Y-160615846D01*
X175783225Y-160518190D01*
X175849964Y-160390183D01*
X175928965Y-160236848D01*
X176017609Y-160063210D01*
X176113276Y-159874294D01*
X176116375Y-159868150D01*
X176535892Y-159036300D01*
X177270996Y-159031415D01*
X177481857Y-159030166D01*
X177646216Y-159029699D01*
X177768367Y-159030239D01*
X177852606Y-159032012D01*
X177903227Y-159035244D01*
X177924525Y-159040158D01*
X177920794Y-159046980D01*
X177896330Y-159055937D01*
X177871685Y-159062917D01*
X177588700Y-159164112D01*
X177330834Y-159305801D01*
X177102216Y-159484038D01*
X176906977Y-159694878D01*
X176749244Y-159934373D01*
X176633147Y-160198579D01*
X176611298Y-160267396D01*
X176573702Y-160443478D01*
X176553896Y-160642701D01*
X176553280Y-160840947D01*
X176569217Y-160992568D01*
X176604560Y-161144815D01*
X176657058Y-161308013D01*
X176720060Y-161464776D01*
X176786919Y-161597719D01*
X176821591Y-161652500D01*
X176893228Y-161754100D01*
X176545260Y-162452600D01*
X174831100Y-162452448D01*
X173973850Y-160752512D01*
X173835971Y-160478910D01*
X173704956Y-160218560D01*
X173582578Y-159975009D01*
X173470607Y-159751800D01*
X173370818Y-159552479D01*
X173284982Y-159380592D01*
X173214873Y-159239682D01*
X173162263Y-159133295D01*
X173128925Y-159064977D01*
X173116630Y-159038272D01*
X173116600Y-159038088D01*
X173141024Y-159034659D01*
X173210396Y-159031520D01*
X173318862Y-159028768D01*
X173460571Y-159026505D01*
X173629670Y-159024827D01*
X173820307Y-159023835D01*
X173974157Y-159023599D01*
X174831715Y-159023599D01*
X175250200Y-159861799D01*
G37*
X175250200Y-159861799D02*
X175345551Y-160052046D01*
X175434027Y-160227156D01*
X175513035Y-160382109D01*
X175579985Y-160511885D01*
X175632285Y-160611463D01*
X175667345Y-160675821D01*
X175682573Y-160699940D01*
X175682771Y-160700000D01*
X175697009Y-160678124D01*
X175731367Y-160615846D01*
X175783225Y-160518190D01*
X175849964Y-160390183D01*
X175928965Y-160236848D01*
X176017609Y-160063210D01*
X176113276Y-159874294D01*
X176116375Y-159868150D01*
X176535892Y-159036300D01*
X177270996Y-159031415D01*
X177481857Y-159030166D01*
X177646216Y-159029699D01*
X177768367Y-159030239D01*
X177852606Y-159032012D01*
X177903227Y-159035244D01*
X177924525Y-159040158D01*
X177920794Y-159046980D01*
X177896330Y-159055937D01*
X177871685Y-159062917D01*
X177588700Y-159164112D01*
X177330834Y-159305801D01*
X177102216Y-159484038D01*
X176906977Y-159694878D01*
X176749244Y-159934373D01*
X176633147Y-160198579D01*
X176611298Y-160267396D01*
X176573702Y-160443478D01*
X176553896Y-160642701D01*
X176553280Y-160840947D01*
X176569217Y-160992568D01*
X176604560Y-161144815D01*
X176657058Y-161308013D01*
X176720060Y-161464776D01*
X176786919Y-161597719D01*
X176821591Y-161652500D01*
X176893228Y-161754100D01*
X176545260Y-162452600D01*
X174831100Y-162452448D01*
X173973850Y-160752512D01*
X173835971Y-160478910D01*
X173704956Y-160218560D01*
X173582578Y-159975009D01*
X173470607Y-159751800D01*
X173370818Y-159552479D01*
X173284982Y-159380592D01*
X173214873Y-159239682D01*
X173162263Y-159133295D01*
X173128925Y-159064977D01*
X173116630Y-159038272D01*
X173116600Y-159038088D01*
X173141024Y-159034659D01*
X173210396Y-159031520D01*
X173318862Y-159028768D01*
X173460571Y-159026505D01*
X173629670Y-159024827D01*
X173820307Y-159023835D01*
X173974157Y-159023599D01*
X174831715Y-159023599D01*
X175250200Y-159861799D01*
%TO.C,L3*%
G36*
X208038201Y-208450200D02*
G01*
X207847954Y-208545551D01*
X207672844Y-208634027D01*
X207517891Y-208713035D01*
X207388115Y-208779985D01*
X207288537Y-208832285D01*
X207224179Y-208867345D01*
X207200060Y-208882573D01*
X207200000Y-208882771D01*
X207221876Y-208897009D01*
X207284154Y-208931367D01*
X207381810Y-208983225D01*
X207509817Y-209049964D01*
X207663152Y-209128965D01*
X207836790Y-209217609D01*
X208025706Y-209313276D01*
X208031850Y-209316375D01*
X208863700Y-209735892D01*
X208868585Y-210470996D01*
X208869834Y-210681857D01*
X208870301Y-210846216D01*
X208869761Y-210968367D01*
X208867988Y-211052606D01*
X208864756Y-211103227D01*
X208859842Y-211124525D01*
X208853020Y-211120794D01*
X208844063Y-211096330D01*
X208837083Y-211071685D01*
X208735888Y-210788700D01*
X208594199Y-210530834D01*
X208415962Y-210302216D01*
X208205122Y-210106977D01*
X207965627Y-209949244D01*
X207701421Y-209833147D01*
X207632604Y-209811298D01*
X207456522Y-209773702D01*
X207257299Y-209753896D01*
X207059053Y-209753280D01*
X206907432Y-209769217D01*
X206755185Y-209804560D01*
X206591987Y-209857058D01*
X206435224Y-209920060D01*
X206302281Y-209986919D01*
X206247500Y-210021591D01*
X206145900Y-210093228D01*
X205447400Y-209745260D01*
X205447552Y-208031100D01*
X207147488Y-207173850D01*
X207421090Y-207035971D01*
X207681440Y-206904956D01*
X207924991Y-206782578D01*
X208148200Y-206670607D01*
X208347521Y-206570818D01*
X208519408Y-206484982D01*
X208660318Y-206414873D01*
X208766705Y-206362263D01*
X208835023Y-206328925D01*
X208861728Y-206316630D01*
X208861912Y-206316600D01*
X208865341Y-206341024D01*
X208868480Y-206410396D01*
X208871232Y-206518862D01*
X208873495Y-206660571D01*
X208875173Y-206829670D01*
X208876165Y-207020307D01*
X208876401Y-207174157D01*
X208876401Y-208031715D01*
X208038201Y-208450200D01*
G37*
X208038201Y-208450200D02*
X207847954Y-208545551D01*
X207672844Y-208634027D01*
X207517891Y-208713035D01*
X207388115Y-208779985D01*
X207288537Y-208832285D01*
X207224179Y-208867345D01*
X207200060Y-208882573D01*
X207200000Y-208882771D01*
X207221876Y-208897009D01*
X207284154Y-208931367D01*
X207381810Y-208983225D01*
X207509817Y-209049964D01*
X207663152Y-209128965D01*
X207836790Y-209217609D01*
X208025706Y-209313276D01*
X208031850Y-209316375D01*
X208863700Y-209735892D01*
X208868585Y-210470996D01*
X208869834Y-210681857D01*
X208870301Y-210846216D01*
X208869761Y-210968367D01*
X208867988Y-211052606D01*
X208864756Y-211103227D01*
X208859842Y-211124525D01*
X208853020Y-211120794D01*
X208844063Y-211096330D01*
X208837083Y-211071685D01*
X208735888Y-210788700D01*
X208594199Y-210530834D01*
X208415962Y-210302216D01*
X208205122Y-210106977D01*
X207965627Y-209949244D01*
X207701421Y-209833147D01*
X207632604Y-209811298D01*
X207456522Y-209773702D01*
X207257299Y-209753896D01*
X207059053Y-209753280D01*
X206907432Y-209769217D01*
X206755185Y-209804560D01*
X206591987Y-209857058D01*
X206435224Y-209920060D01*
X206302281Y-209986919D01*
X206247500Y-210021591D01*
X206145900Y-210093228D01*
X205447400Y-209745260D01*
X205447552Y-208031100D01*
X207147488Y-207173850D01*
X207421090Y-207035971D01*
X207681440Y-206904956D01*
X207924991Y-206782578D01*
X208148200Y-206670607D01*
X208347521Y-206570818D01*
X208519408Y-206484982D01*
X208660318Y-206414873D01*
X208766705Y-206362263D01*
X208835023Y-206328925D01*
X208861728Y-206316630D01*
X208861912Y-206316600D01*
X208865341Y-206341024D01*
X208868480Y-206410396D01*
X208871232Y-206518862D01*
X208873495Y-206660571D01*
X208875173Y-206829670D01*
X208876165Y-207020307D01*
X208876401Y-207174157D01*
X208876401Y-208031715D01*
X208038201Y-208450200D01*
G36*
X208876197Y-214050900D02*
G01*
X208876182Y-214914500D01*
X208038715Y-215333600D01*
X207848551Y-215429177D01*
X207673491Y-215517956D01*
X207518564Y-215597328D01*
X207388794Y-215664681D01*
X207289207Y-215717408D01*
X207224829Y-215752898D01*
X207200685Y-215768543D01*
X207200625Y-215768752D01*
X207222359Y-215783441D01*
X207284508Y-215818218D01*
X207382051Y-215870453D01*
X207509965Y-215937513D01*
X207663230Y-216016767D01*
X207836824Y-216105583D01*
X208025727Y-216201328D01*
X208031850Y-216204418D01*
X208863700Y-216624032D01*
X208863700Y-218361482D01*
X207155551Y-219223561D01*
X205447401Y-220085639D01*
X205447400Y-219220993D01*
X205447400Y-218356348D01*
X206302573Y-217928613D01*
X206539973Y-217809173D01*
X206733621Y-217710144D01*
X206885730Y-217630308D01*
X206998514Y-217568448D01*
X207074185Y-217523346D01*
X207114956Y-217493784D01*
X207123042Y-217478544D01*
X207122031Y-217477689D01*
X207091722Y-217461203D01*
X207021408Y-217424633D01*
X206916466Y-217370722D01*
X206782271Y-217302217D01*
X206624199Y-217221861D01*
X206447628Y-217132401D01*
X206273208Y-217044287D01*
X205460100Y-216634075D01*
X205453574Y-215774287D01*
X205447047Y-214914500D01*
X206298722Y-214487592D01*
X206489996Y-214391118D01*
X206665689Y-214301351D01*
X206820906Y-214220879D01*
X206950752Y-214152293D01*
X207050334Y-214098179D01*
X207114757Y-214061128D01*
X207139127Y-214043727D01*
X207139133Y-214043092D01*
X207114586Y-214028137D01*
X207049621Y-213993254D01*
X206949344Y-213941059D01*
X206818861Y-213874169D01*
X206663278Y-213795200D01*
X206487699Y-213706768D01*
X206297231Y-213611491D01*
X206287635Y-213606707D01*
X205447400Y-213187915D01*
X205449693Y-212387507D01*
X205450462Y-212166970D01*
X205451511Y-211993354D01*
X205453059Y-211862778D01*
X205455326Y-211771363D01*
X205458531Y-211715231D01*
X205462895Y-211690500D01*
X205468636Y-211693292D01*
X205475975Y-211719727D01*
X205484941Y-211764900D01*
X205561383Y-212050422D01*
X205680811Y-212309691D01*
X205845107Y-212546278D01*
X205967098Y-212679922D01*
X206057578Y-212764511D01*
X206152454Y-212843743D01*
X206243199Y-212911584D01*
X206321282Y-212962005D01*
X206378177Y-212988973D01*
X206403737Y-212988730D01*
X206418062Y-212963396D01*
X206451646Y-212898876D01*
X206501258Y-212801536D01*
X206563669Y-212677741D01*
X206635650Y-212533856D01*
X206691614Y-212421341D01*
X206966944Y-211866500D01*
X206891844Y-211797051D01*
X206798322Y-211679394D01*
X206751888Y-211546438D01*
X206753631Y-211404439D01*
X206799951Y-211268736D01*
X206883117Y-211155184D01*
X206993715Y-211080047D01*
X207123069Y-211046013D01*
X207262500Y-211055765D01*
X207367677Y-211093047D01*
X207480055Y-211172665D01*
X207555423Y-211278814D01*
X207592460Y-211401872D01*
X207589844Y-211532220D01*
X207546256Y-211660237D01*
X207461340Y-211775340D01*
X207371630Y-211865050D01*
X207647765Y-212420327D01*
X207725044Y-212574757D01*
X207795442Y-212713602D01*
X207855665Y-212830509D01*
X207902418Y-212919130D01*
X207932406Y-212973113D01*
X207941780Y-212986977D01*
X207971362Y-212980891D01*
X208028898Y-212953253D01*
X208079947Y-212923481D01*
X208200234Y-212848612D01*
X208379567Y-212937434D01*
X208494898Y-212994835D01*
X208619345Y-213057203D01*
X208717557Y-213106777D01*
X208876213Y-213187300D01*
X208876197Y-214050900D01*
G37*
X208876197Y-214050900D02*
X208876182Y-214914500D01*
X208038715Y-215333600D01*
X207848551Y-215429177D01*
X207673491Y-215517956D01*
X207518564Y-215597328D01*
X207388794Y-215664681D01*
X207289207Y-215717408D01*
X207224829Y-215752898D01*
X207200685Y-215768543D01*
X207200625Y-215768752D01*
X207222359Y-215783441D01*
X207284508Y-215818218D01*
X207382051Y-215870453D01*
X207509965Y-215937513D01*
X207663230Y-216016767D01*
X207836824Y-216105583D01*
X208025727Y-216201328D01*
X208031850Y-216204418D01*
X208863700Y-216624032D01*
X208863700Y-218361482D01*
X207155551Y-219223561D01*
X205447401Y-220085639D01*
X205447400Y-219220993D01*
X205447400Y-218356348D01*
X206302573Y-217928613D01*
X206539973Y-217809173D01*
X206733621Y-217710144D01*
X206885730Y-217630308D01*
X206998514Y-217568448D01*
X207074185Y-217523346D01*
X207114956Y-217493784D01*
X207123042Y-217478544D01*
X207122031Y-217477689D01*
X207091722Y-217461203D01*
X207021408Y-217424633D01*
X206916466Y-217370722D01*
X206782271Y-217302217D01*
X206624199Y-217221861D01*
X206447628Y-217132401D01*
X206273208Y-217044287D01*
X205460100Y-216634075D01*
X205453574Y-215774287D01*
X205447047Y-214914500D01*
X206298722Y-214487592D01*
X206489996Y-214391118D01*
X206665689Y-214301351D01*
X206820906Y-214220879D01*
X206950752Y-214152293D01*
X207050334Y-214098179D01*
X207114757Y-214061128D01*
X207139127Y-214043727D01*
X207139133Y-214043092D01*
X207114586Y-214028137D01*
X207049621Y-213993254D01*
X206949344Y-213941059D01*
X206818861Y-213874169D01*
X206663278Y-213795200D01*
X206487699Y-213706768D01*
X206297231Y-213611491D01*
X206287635Y-213606707D01*
X205447400Y-213187915D01*
X205449693Y-212387507D01*
X205450462Y-212166970D01*
X205451511Y-211993354D01*
X205453059Y-211862778D01*
X205455326Y-211771363D01*
X205458531Y-211715231D01*
X205462895Y-211690500D01*
X205468636Y-211693292D01*
X205475975Y-211719727D01*
X205484941Y-211764900D01*
X205561383Y-212050422D01*
X205680811Y-212309691D01*
X205845107Y-212546278D01*
X205967098Y-212679922D01*
X206057578Y-212764511D01*
X206152454Y-212843743D01*
X206243199Y-212911584D01*
X206321282Y-212962005D01*
X206378177Y-212988973D01*
X206403737Y-212988730D01*
X206418062Y-212963396D01*
X206451646Y-212898876D01*
X206501258Y-212801536D01*
X206563669Y-212677741D01*
X206635650Y-212533856D01*
X206691614Y-212421341D01*
X206966944Y-211866500D01*
X206891844Y-211797051D01*
X206798322Y-211679394D01*
X206751888Y-211546438D01*
X206753631Y-211404439D01*
X206799951Y-211268736D01*
X206883117Y-211155184D01*
X206993715Y-211080047D01*
X207123069Y-211046013D01*
X207262500Y-211055765D01*
X207367677Y-211093047D01*
X207480055Y-211172665D01*
X207555423Y-211278814D01*
X207592460Y-211401872D01*
X207589844Y-211532220D01*
X207546256Y-211660237D01*
X207461340Y-211775340D01*
X207371630Y-211865050D01*
X207647765Y-212420327D01*
X207725044Y-212574757D01*
X207795442Y-212713602D01*
X207855665Y-212830509D01*
X207902418Y-212919130D01*
X207932406Y-212973113D01*
X207941780Y-212986977D01*
X207971362Y-212980891D01*
X208028898Y-212953253D01*
X208079947Y-212923481D01*
X208200234Y-212848612D01*
X208379567Y-212937434D01*
X208494898Y-212994835D01*
X208619345Y-213057203D01*
X208717557Y-213106777D01*
X208876213Y-213187300D01*
X208876197Y-214050900D01*
%TO.C,J6*%
D10*
X176866666Y-224052380D02*
X176866666Y-224766666D01*
X176819047Y-224909523D01*
X176723809Y-225004761D01*
X176580952Y-225052380D01*
X176485714Y-225052380D01*
X177771428Y-224052380D02*
X177580952Y-224052380D01*
X177485714Y-224100000D01*
X177438095Y-224147619D01*
X177342857Y-224290476D01*
X177295238Y-224480952D01*
X177295238Y-224861904D01*
X177342857Y-224957142D01*
X177390476Y-225004761D01*
X177485714Y-225052380D01*
X177676190Y-225052380D01*
X177771428Y-225004761D01*
X177819047Y-224957142D01*
X177866666Y-224861904D01*
X177866666Y-224623809D01*
X177819047Y-224528571D01*
X177771428Y-224480952D01*
X177676190Y-224433333D01*
X177485714Y-224433333D01*
X177390476Y-224480952D01*
X177342857Y-224528571D01*
X177295238Y-224623809D01*
%TO.C,J2*%
X228366666Y-203452380D02*
X228366666Y-204166666D01*
X228319047Y-204309523D01*
X228223809Y-204404761D01*
X228080952Y-204452380D01*
X227985714Y-204452380D01*
X228795238Y-203547619D02*
X228842857Y-203500000D01*
X228938095Y-203452380D01*
X229176190Y-203452380D01*
X229271428Y-203500000D01*
X229319047Y-203547619D01*
X229366666Y-203642857D01*
X229366666Y-203738095D01*
X229319047Y-203880952D01*
X228747619Y-204452380D01*
X229366666Y-204452380D01*
%TO.C,J1*%
D15*
X229276666Y-184004523D02*
X229276666Y-184911666D01*
X229216190Y-185093095D01*
X229095238Y-185214047D01*
X228913809Y-185274523D01*
X228792857Y-185274523D01*
X230546666Y-185274523D02*
X229820952Y-185274523D01*
X230183809Y-185274523D02*
X230183809Y-184004523D01*
X230062857Y-184185952D01*
X229941904Y-184306904D01*
X229820952Y-184367380D01*
%TO.C,J4*%
D10*
X190052380Y-221933333D02*
X190766666Y-221933333D01*
X190909523Y-221980952D01*
X191004761Y-222076190D01*
X191052380Y-222219047D01*
X191052380Y-222314285D01*
X190385714Y-221028571D02*
X191052380Y-221028571D01*
X190004761Y-221266666D02*
X190719047Y-221504761D01*
X190719047Y-220885714D01*
%TO.C,J3*%
D15*
X208604523Y-159023333D02*
X209511666Y-159023333D01*
X209693095Y-159083809D01*
X209814047Y-159204761D01*
X209874523Y-159386190D01*
X209874523Y-159507142D01*
X208604523Y-158539523D02*
X208604523Y-157753333D01*
X209088333Y-158176666D01*
X209088333Y-157995238D01*
X209148809Y-157874285D01*
X209209285Y-157813809D01*
X209330238Y-157753333D01*
X209632619Y-157753333D01*
X209753571Y-157813809D01*
X209814047Y-157874285D01*
X209874523Y-157995238D01*
X209874523Y-158358095D01*
X209814047Y-158479047D01*
X209753571Y-158539523D01*
%TO.C,J5*%
X175576666Y-154004523D02*
X175576666Y-154911666D01*
X175516190Y-155093095D01*
X175395238Y-155214047D01*
X175213809Y-155274523D01*
X175092857Y-155274523D01*
X176786190Y-154004523D02*
X176181428Y-154004523D01*
X176120952Y-154609285D01*
X176181428Y-154548809D01*
X176302380Y-154488333D01*
X176604761Y-154488333D01*
X176725714Y-154548809D01*
X176786190Y-154609285D01*
X176846666Y-154730238D01*
X176846666Y-155032619D01*
X176786190Y-155153571D01*
X176725714Y-155214047D01*
X176604761Y-155274523D01*
X176302380Y-155274523D01*
X176181428Y-155214047D01*
X176120952Y-155153571D01*
%TD*%
M02*
