<?xml version="1.0" standalone="no"?>
 <!DOCTYPE svg PUBLIC "-//W3C//DTD SVG 1.1//EN" 
 "http://www.w3.org/Graphics/SVG/1.1/DTD/svg11.dtd"> 
<svg
  xmlns:svg="http://www.w3.org/2000/svg"
  xmlns="http://www.w3.org/2000/svg"
  xmlns:xlink="http://www.w3.org/1999/xlink"
  version="1.1"
  width="29.700220cm" height="21.000720cm" viewBox="0 0 116930 82680">
<title>SVG Picture created as hard_cam_usb_production-PTH-drl_map.svg date 2021/10/19 18:19:04 </title>
  <desc>Picture generated by PCBNEW </desc>
<g style="fill:#000000; fill-opacity:1;stroke:#000000; stroke-opacity:1;
stroke-linecap:round; stroke-linejoin:round;"
 transform="translate(0 0) scale(1 1)">
</g>
<g style="fill:#000000; fill-opacity:0.0; 
stroke:#000000; stroke-width:-0.000393701; stroke-opacity:1; 
stroke-linecap:round; stroke-linejoin:round;">
</g>
<g style="fill:#000000; fill-opacity:0.0; 
stroke:#000000; stroke-width:19.685; stroke-opacity:1; 
stroke-linecap:round; stroke-linejoin:round;">
<path d="M64212 89842
L62519 87185
" />
<path d="M70708 84468
L70708 89448
" />
<path d="M71692 78464
L71692 82303
" />
<path d="M71692.9 84468.5 A492.126 492.126 0.0 0 0 70708.7 84468.5" />
<path d="M70708 82322
L70708 82303
" />
<path d="M70708.7 82303.1 A492.126 492.126 0.0 0 0 71692.9 82303.1" />
<path d="M83110 74291
L83110 74271
" />
<path d="M83110 62834
L83110 74291
" />
<path d="M84094 76437
L84094 81377
" />
<path d="M84094 70669
L84094 74271
" />
<path d="M84094.5 76437 A492.126 492.126 0.0 0 0 83110.2 76437" />
<path d="M83110.2 74291.3 A492.52 492.52 0.0 0 0 84094.9 74271.7" />
<path d="M70315 89842.5 A393.701 393.701 0.0 0 0 70708.7 89448.8" />
<path d="M62519 87185
L62519 79448
" />
<path d="M62519 79448
L64094 77874
" />
<path d="M84488.2 70275.6 A393.701 393.701 0.0 0 0 84094.5 70669.3" />
<path d="M95315 81771.7 A393.701 393.701 0.0 0 0 95708.7 81378" />
<path d="M95314 81771
L84488 81771
" />
<path d="M95708 68779
L95708 81377
" />
<path d="M91456 68385
L95314 68385
" />
<path d="M91062 69881
L91062 68779
" />
<path d="M95708.7 68779.5 A393.701 393.701 0.0 0 0 95315 68385.8" />
<path d="M84488 70275
L90669 70275
" />
<path d="M90669.3 70275.6 A393.701 393.701 0.0 0 0 91063 69881.9" />
<path d="M84094.5 81378 A393.701 393.701 0.0 0 0 84488.2 81771.7" />
<path d="M91456.7 68385.8 A393.701 393.701 0.0 0 0 91063 68779.5" />
<path d="M86811 86377
L83110 82677
" />
<path d="M77598.4 58818.9 A393.701 393.701 0.0 0 0 77204.7 59212.6" />
<path d="M85078.7 62440.9 A393.701 393.701 0.0 0 0 85472.4 62047.2" />
<path d="M85472.4 59212.6 A393.701 393.701 0.0 0 0 85078.7 58818.9" />
<path d="M83110 82677
L83110 81811
" />
<path d="M83110 76437
L83110 81811
" />
<path d="M85078 62440
L83503 62440
" />
<path d="M85472 59212
L85472 62047
" />
<path d="M86417.3 89842.5 A393.701 393.701 0.0 0 0 86811 89448.8" />
<path d="M86811 89448
L86811 86377
" />
</g>
<g style="fill:#000000; fill-opacity:1.0; 
stroke:#000000; stroke-width:0; stroke-opacity:1; 
stroke-linecap:round; stroke-linejoin:round;">
<circle cx="77598.4" cy="58818.9" r="9.84252" /> 
</g>
<g style="fill:#000000; fill-opacity:1.0; 
stroke:#000000; stroke-width:19.685; stroke-opacity:1; 
stroke-linecap:round; stroke-linejoin:round;">
</g>
<g style="fill:#000000; fill-opacity:0.0; 
stroke:#000000; stroke-width:19.685; stroke-opacity:1; 
stroke-linecap:round; stroke-linejoin:round;">
<path d="M78779 58818
L77598 58818
" />
<path d="M83267 89842
L86417 89842
" />
<path d="M85078 58818
L78779 58818
" />
<path d="M72086.6 78070.9 A393.701 393.701 0.0 0 0 71692.9 78464.6" />
<path d="M76811 78070.9 A393.701 393.701 0.0 0 0 77204.7 77677.2" />
<path d="M72086 78070
L76811 78070
" />
<path d="M77204 77677
L77204 59212
" />
<path d="M73503 89842
L71692 88031
" />
<path d="M71692 88031
L71692 84468
" />
<path d="M83267 89842
L73503 89842
" />
<path d="M83503.9 62440.9 A393.701 393.701 0.0 0 0 83110.2 62834.6" />
<path d="M74645.7 56968.5 A393.701 393.701 0.0 0 0 74252 56574.8" />
<path d="M64488 58464
L69606 58464
" />
<path d="M74645 56968
L74645 69015
" />
<path d="M70000 58070
L70000 56968
" />
<path d="M64094 69566
L64094 58858
" />
<path d="M64488.2 58464.6 A393.701 393.701 0.0 0 0 64094.5 58858.3" />
<path d="M70393.7 56574.8 A393.701 393.701 0.0 0 0 70000 56968.5" />
<path d="M69606.3 58464.6 A393.701 393.701 0.0 0 0 70000 58070.9" />
<path d="M70314 89842
L64212 89842
" />
<path d="M70393 56574
L74251 56574
" />
<path d="M70708 72952
L74645 69015
" />
<path d="M64094 77874
L64094 69566
" />
<path d="M70708 82322
L70708 72952
" />
</g>
<g style="fill:#000000; fill-opacity:0.0; 
stroke:#000000; stroke-width:78.7402; stroke-opacity:1; 
stroke-linecap:round; stroke-linejoin:round;">
<path d="M63335 79674
L63435 79774
" />
<path d="M63435 79674
L63335 79774
" />
<path d="M63335 81249
L63435 81349
" />
<path d="M63435 81249
L63335 81349
" />
<path d="M63335 83217
L63435 83317
" />
<path d="M63435 83217
L63335 83317
" />
<path d="M63335 85186
L63435 85286
" />
<path d="M63435 85186
L63335 85286
" />
<path d="M63335 87154
L63435 87254
" />
<path d="M63435 87154
L63335 87254
" />
<path d="M64320 78690
L64420 78790
" />
<path d="M64420 78690
L64320 78790
" />
<path d="M64713 86052
L64813 86152
" />
<path d="M64813 86052
L64713 86152
" />
<path d="M64910 59201
L65010 59301
" />
<path d="M65010 59201
L64910 59301
" />
<path d="M64910 60186
L65010 60286
" />
<path d="M65010 60186
L64910 60286
" />
<path d="M64910 61761
L65010 61861
" />
<path d="M65010 61761
L64910 61861
" />
<path d="M64910 63729
L65010 63829
" />
<path d="M65010 63729
L64910 63829
" />
<path d="M64910 65698
L65010 65798
" />
<path d="M65010 65698
L64910 65798
" />
<path d="M64910 67666
L65010 67766
" />
<path d="M65010 67666
L64910 67766
" />
<path d="M64910 69635
L65010 69735
" />
<path d="M65010 69635
L64910 69735
" />
<path d="M64910 71603
L65010 71703
" />
<path d="M65010 71603
L64910 71703
" />
<path d="M64910 73572
L65010 73672
" />
<path d="M65010 73572
L64910 73672
" />
<path d="M64910 75540
L65010 75640
" />
<path d="M65010 75540
L64910 75640
" />
<path d="M64910 77509
L65010 77609
" />
<path d="M65010 77509
L64910 77609
" />
<path d="M64910 84989
L65010 85089
" />
<path d="M65010 84989
L64910 85089
" />
<path d="M65068 86406
L65168 86506
" />
<path d="M65168 86406
L65068 86506
" />
<path d="M65855 80501
L65955 80601
" />
<path d="M65955 80501
L65855 80601
" />
<path d="M65934 83020
L66034 83120
" />
<path d="M66034 83020
L65934 83120
" />
<path d="M66336 87351
L66436 87451
" />
<path d="M66436 87351
L66336 87451
" />
<path d="M66446 60973
L66546 61073
" />
<path d="M66546 60973
L66446 61073
" />
<path d="M66634 87351
L66734 87451
" />
<path d="M66734 87351
L66634 87451
" />
<path d="M66682 59201
L66782 59301
" />
<path d="M66782 59201
L66682 59301
" />
<path d="M66721 64438
L66821 64538
" />
<path d="M66821 64438
L66721 64538
" />
<path d="M66721 68532
L66821 68632
" />
<path d="M66821 68532
L66721 68632
" />
<path d="M66721 72312
L66821 72412
" />
<path d="M66821 72312
L66721 72412
" />
<path d="M66721 77430
L66821 77530
" />
<path d="M66821 77430
L66721 77530
" />
<path d="M66879 85068
L66979 85168
" />
<path d="M66979 85068
L66879 85168
" />
<path d="M66997 87154
L67097 87254
" />
<path d="M67097 87154
L66997 87254
" />
<path d="M67075 62253
L67175 62353
" />
<path d="M67175 62253
L67075 62353
" />
<path d="M67326 61964
L67426 62064
" />
<path d="M67426 61964
L67326 62064
" />
<path d="M67351 80422
L67451 80522
" />
<path d="M67451 80422
L67351 80522
" />
<path d="M67625 61964
L67725 62064
" />
<path d="M67725 61964
L67625 62064
" />
<path d="M67863 62253
L67963 62353
" />
<path d="M67963 62253
L67863 62353
" />
<path d="M68060 63572
L68160 63672
" />
<path d="M68160 63572
L68060 63672
" />
<path d="M68060 66327
L68160 66427
" />
<path d="M68160 66327
L68060 66427
" />
<path d="M68060 71052
L68160 71152
" />
<path d="M68160 71052
L68060 71152
" />
<path d="M68060 75461
L68160 75561
" />
<path d="M68160 75461
L68060 75561
" />
<path d="M68060 78690
L68160 78790
" />
<path d="M68160 78690
L68060 78790
" />
<path d="M68257 61957
L68357 62057
" />
<path d="M68357 61957
L68257 62057
" />
<path d="M68493 88335
L68593 88435
" />
<path d="M68593 88335
L68493 88435
" />
<path d="M68572 61446
L68672 61546
" />
<path d="M68672 61446
L68572 61546
" />
<path d="M68611 86170
L68711 86270
" />
<path d="M68711 86170
L68611 86270
" />
<path d="M68650 59201
L68750 59301
" />
<path d="M68750 59201
L68650 59301
" />
<path d="M68729 60973
L68829 61073
" />
<path d="M68829 60973
L68729 61073
" />
<path d="M68887 88020
L68987 88120
" />
<path d="M68987 88020
L68887 88120
" />
<path d="M68926 88690
L69026 88790
" />
<path d="M69026 88690
L68926 88790
" />
<path d="M69083 73729
L69183 73829
" />
<path d="M69183 73729
L69083 73829
" />
<path d="M69162 66721
L69262 66821
" />
<path d="M69262 66721
L69162 66821
" />
<path d="M69556 63493
L69656 63593
" />
<path d="M69656 63493
L69556 63593
" />
<path d="M69831 70028
L69931 70128
" />
<path d="M69931 70028
L69831 70128
" />
<path d="M69831 72784
L69931 72884
" />
<path d="M69931 72784
L69831 72884
" />
<path d="M69831 74753
L69931 74853
" />
<path d="M69931 74753
L69831 74853
" />
<path d="M69831 76721
L69931 76821
" />
<path d="M69931 76721
L69831 76821
" />
<path d="M69831 78690
L69931 78790
" />
<path d="M69931 78690
L69831 78790
" />
<path d="M69831 80658
L69931 80758
" />
<path d="M69931 80658
L69831 80758
" />
<path d="M69831 82627
L69931 82727
" />
<path d="M69931 82627
L69831 82727
" />
<path d="M69831 84595
L69931 84695
" />
<path d="M69931 84595
L69831 84695
" />
<path d="M69831 86564
L69931 86664
" />
<path d="M69931 86564
L69831 86664
" />
<path d="M69831 88532
L69931 88632
" />
<path d="M69931 88532
L69831 88632
" />
<path d="M70225 67272
L70325 67372
" />
<path d="M70325 67272
L70225 67372
" />
<path d="M70619 59201
L70719 59301
" />
<path d="M70719 59201
L70619 59301
" />
<path d="M70619 64910
L70719 65010
" />
<path d="M70719 64910
L70619 65010
" />
<path d="M70816 71603
L70916 71703
" />
<path d="M70916 71603
L70816 71703
" />
<path d="M71209 62548
L71309 62648
" />
<path d="M71309 62548
L71209 62648
" />
<path d="M71800 60973
L71900 61073
" />
<path d="M71900 60973
L71800 61073
" />
<path d="M71997 70422
L72097 70522
" />
<path d="M72097 70422
L71997 70522
" />
<path d="M72390 64123
L72490 64223
" />
<path d="M72490 64123
L72390 64223
" />
<path d="M72430 81131
L72530 81231
" />
<path d="M72530 81131
L72430 81231
" />
<path d="M72430 82705
L72530 82805
" />
<path d="M72530 82705
L72430 82805
" />
<path d="M73027 86793
L73127 86893
" />
<path d="M73127 86793
L73027 86893
" />
<path d="M73178 69241
L73278 69341
" />
<path d="M73278 69241
L73178 69341
" />
<path d="M73178 83926
L73278 84026
" />
<path d="M73278 83926
L73178 84026
" />
<path d="M73185 87629
L73285 87729
" />
<path d="M73285 87629
L73185 87729
" />
<path d="M73414 88611
L73514 88711
" />
<path d="M73514 88611
L73414 88711
" />
<path d="M73768 59595
L73868 59695
" />
<path d="M73868 59595
L73768 59695
" />
<path d="M73768 61564
L73868 61664
" />
<path d="M73868 61564
L73768 61664
" />
<path d="M73768 63532
L73868 63632
" />
<path d="M73868 63532
L73768 63632
" />
<path d="M73768 65501
L73868 65601
" />
<path d="M73868 65501
L73768 65601
" />
<path d="M73768 86524
L73868 86624
" />
<path d="M73868 86524
L73768 86624
" />
<path d="M73926 87627
L74026 87727
" />
<path d="M74026 87627
L73926 87727
" />
<path d="M74241 85470
L74341 85570
" />
<path d="M74341 85470
L74241 85570
" />
<path d="M74241 85768
L74341 85868
" />
<path d="M74341 85768
L74241 85868
" />
<path d="M74320 86209
L74420 86309
" />
<path d="M74420 86209
L74320 86309
" />
<path d="M74792 89005
L74892 89105
" />
<path d="M74892 89005
L74792 89105
" />
<path d="M74831 84910
L74931 85010
" />
<path d="M74931 84910
L74831 85010
" />
<path d="M75068 84674
L75168 84774
" />
<path d="M75168 84674
L75068 84774
" />
<path d="M75186 82312
L75286 82412
" />
<path d="M75286 82312
L75186 82412
" />
<path d="M75579 78768
L75679 78868
" />
<path d="M75679 78768
L75579 78868
" />
<path d="M75698 84201
L75798 84301
" />
<path d="M75798 84201
L75698 84301
" />
<path d="M75776 87824
L75876 87924
" />
<path d="M75876 87824
L75776 87924
" />
<path d="M76367 83414
L76467 83514
" />
<path d="M76467 83414
L76367 83514
" />
<path d="M76367 89005
L76467 89105
" />
<path d="M76467 89005
L76367 89105
" />
<path d="M76564 80737
L76664 80837
" />
<path d="M76664 80737
L76564 80837
" />
<path d="M76564 85068
L76664 85168
" />
<path d="M76664 85068
L76564 85168
" />
<path d="M76957 78768
L77057 78868
" />
<path d="M77057 78768
L76957 78868
" />
<path d="M77390 82351
L77490 82451
" />
<path d="M77490 82351
L77390 82451
" />
<path d="M77745 64201
L77845 64301
" />
<path d="M77845 64201
L77745 64301
" />
<path d="M77745 65776
L77845 65876
" />
<path d="M77845 65776
L77745 65876
" />
<path d="M77745 67351
L77845 67451
" />
<path d="M77845 67351
L77745 67451
" />
<path d="M77745 68926
L77845 69026
" />
<path d="M77845 68926
L77745 69026
" />
<path d="M77745 70501
L77845 70601
" />
<path d="M77845 70501
L77745 70601
" />
<path d="M77745 72075
L77845 72175
" />
<path d="M77845 72075
L77745 72175
" />
<path d="M77745 73650
L77845 73750
" />
<path d="M77845 73650
L77745 73750
" />
<path d="M77745 75225
L77845 75325
" />
<path d="M77845 75225
L77745 75325
" />
<path d="M77745 76800
L77845 76900
" />
<path d="M77845 76800
L77745 76900
" />
<path d="M77745 78375
L77845 78475
" />
<path d="M77845 78375
L77745 78475
" />
<path d="M77942 59477
L78042 59577
" />
<path d="M78042 59477
L77942 59577
" />
<path d="M77942 61052
L78042 61152
" />
<path d="M78042 61052
L77942 61152
" />
<path d="M77942 62627
L78042 62727
" />
<path d="M78042 62627
L77942 62727
" />
<path d="M77942 89005
L78042 89105
" />
<path d="M78042 89005
L77942 89105
" />
<path d="M78099 81524
L78199 81624
" />
<path d="M78199 81524
L78099 81624
" />
<path d="M78138 83493
L78238 83593
" />
<path d="M78238 83493
L78138 83593
" />
<path d="M78138 85855
L78238 85955
" />
<path d="M78238 85855
L78138 85955
" />
<path d="M78729 87627
L78829 87727
" />
<path d="M78829 87627
L78729 87727
" />
<path d="M79123 59477
L79223 59577
" />
<path d="M79223 59477
L79123 59577
" />
<path d="M79123 60658
L79223 60758
" />
<path d="M79223 60658
L79123 60758
" />
<path d="M79201 67075
L79301 67175
" />
<path d="M79301 67075
L79201 67175
" />
<path d="M79201 68020
L79301 68120
" />
<path d="M79301 68020
L79201 68120
" />
<path d="M79201 74005
L79301 74105
" />
<path d="M79301 74005
L79201 74105
" />
<path d="M79201 75304
L79301 75404
" />
<path d="M79301 75304
L79201 75404
" />
<path d="M79201 79201
L79301 79301
" />
<path d="M79301 79201
L79201 79301
" />
<path d="M79201 79950
L79301 80050
" />
<path d="M79301 79950
L79201 80050
" />
<path d="M79320 64477
L79420 64577
" />
<path d="M79420 64477
L79320 64577
" />
<path d="M79516 62784
L79616 62884
" />
<path d="M79616 62784
L79516 62884
" />
<path d="M79516 89005
L79616 89105
" />
<path d="M79616 89005
L79516 89105
" />
<path d="M79713 78768
L79813 78868
" />
<path d="M79813 78768
L79713 78868
" />
<path d="M79713 84280
L79813 84380
" />
<path d="M79813 84280
L79713 84380
" />
<path d="M79910 73060
L80010 73160
" />
<path d="M80010 73060
L79910 73160
" />
<path d="M80107 66564
L80207 66664
" />
<path d="M80207 66564
L80107 66664
" />
<path d="M80698 59477
L80798 59577
" />
<path d="M80798 59477
L80698 59577
" />
<path d="M80698 81721
L80798 81821
" />
<path d="M80798 81721
L80698 81821
" />
<path d="M80698 86446
L80798 86546
" />
<path d="M80798 86446
L80698 86546
" />
<path d="M80894 64595
L80994 64695
" />
<path d="M80994 64595
L80894 64695
" />
<path d="M80894 76603
L80994 76703
" />
<path d="M80994 76603
L80894 76703
" />
<path d="M81052 61249
L81152 61349
" />
<path d="M81152 61249
L81052 61349
" />
<path d="M81091 62705
L81191 62805
" />
<path d="M81191 62705
L81091 62805
" />
<path d="M81091 89005
L81191 89105
" />
<path d="M81191 89005
L81091 89105
" />
<path d="M82272 59477
L82372 59577
" />
<path d="M82372 59477
L82272 59577
" />
<path d="M82272 62824
L82372 62924
" />
<path d="M82372 62824
L82272 62924
" />
<path d="M82272 64201
L82372 64301
" />
<path d="M82372 64201
L82272 64301
" />
<path d="M82272 65776
L82372 65876
" />
<path d="M82372 65776
L82272 65876
" />
<path d="M82272 67351
L82372 67451
" />
<path d="M82372 67351
L82272 67451
" />
<path d="M82272 68926
L82372 69026
" />
<path d="M82372 68926
L82272 69026
" />
<path d="M82272 71682
L82372 71782
" />
<path d="M82372 71682
L82272 71782
" />
<path d="M82272 73257
L82372 73357
" />
<path d="M82372 73257
L82272 73357
" />
<path d="M82272 74831
L82372 74931
" />
<path d="M82372 74831
L82272 74931
" />
<path d="M82272 76406
L82372 76506
" />
<path d="M82372 76406
L82272 76506
" />
<path d="M82272 77981
L82372 78081
" />
<path d="M82372 77981
L82272 78081
" />
<path d="M82272 79556
L82372 79656
" />
<path d="M82372 79556
L82272 79656
" />
<path d="M82272 81131
L82372 81231
" />
<path d="M82372 81131
L82272 81231
" />
<path d="M82272 82705
L82372 82805
" />
<path d="M82372 82705
L82272 82805
" />
<path d="M82390 60225
L82490 60325
" />
<path d="M82490 60225
L82390 60325
" />
<path d="M82469 61288
L82569 61388
" />
<path d="M82569 61288
L82469 61388
" />
<path d="M82587 59871
L82687 59971
" />
<path d="M82687 59871
L82587 59971
" />
<path d="M82666 84280
L82766 84380
" />
<path d="M82766 84280
L82666 84380
" />
<path d="M82666 85855
L82766 85955
" />
<path d="M82766 85855
L82666 85955
" />
<path d="M82666 87430
L82766 87530
" />
<path d="M82766 87430
L82666 87530
" />
<path d="M82666 89005
L82766 89105
" />
<path d="M82766 89005
L82666 89105
" />
<path d="M82784 61170
L82884 61270
" />
<path d="M82884 61170
L82784 61270
" />
<path d="M82791 60292
L82891 60392
" />
<path d="M82891 60292
L82791 60392
" />
<path d="M82791 60591
L82891 60691
" />
<path d="M82891 60591
L82791 60691
" />
<path d="M82942 59871
L83042 59971
" />
<path d="M83042 59871
L82942 59971
" />
<path d="M83060 61839
L83160 61939
" />
<path d="M83160 61839
L83060 61939
" />
<path d="M83296 61170
L83396 61270
" />
<path d="M83396 61170
L83296 61270
" />
<path d="M83768 59516
L83868 59616
" />
<path d="M83868 59516
L83768 59616
" />
<path d="M83768 61524
L83868 61624
" />
<path d="M83868 61524
L83768 61624
" />
<path d="M84851 71012
L84951 71112
" />
<path d="M84951 71012
L84851 71112
" />
<path d="M84950 73079
L85050 73179
" />
<path d="M85050 73079
L84950 73179
" />
<path d="M84950 75048
L85050 75148
" />
<path d="M85050 75048
L84950 75148
" />
<path d="M84950 77016
L85050 77116
" />
<path d="M85050 77016
L84950 77116
" />
<path d="M85048 79379
L85148 79479
" />
<path d="M85148 79379
L85048 79479
" />
<path d="M85345 80436
L85445 80536
" />
<path d="M85445 80436
L85345 80536
" />
<path d="M85370 78261
L85470 78361
" />
<path d="M85470 78261
L85370 78361
" />
<path d="M85638 71898
L85738 71998
" />
<path d="M85738 71898
L85638 71998
" />
<path d="M86131 80953
L86231 81053
" />
<path d="M86231 80953
L86131 81053
" />
<path d="M86195 78261
L86295 78361
" />
<path d="M86295 78261
L86195 78361
" />
<path d="M86485 77500
L86585 77600
" />
<path d="M86585 77500
L86485 77600
" />
<path d="M86524 71800
L86624 71900
" />
<path d="M86624 71800
L86524 71900
" />
<path d="M86524 74064
L86624 74164
" />
<path d="M86624 74064
L86524 74164
" />
<path d="M86524 76820
L86624 76920
" />
<path d="M86624 76820
L86524 76920
" />
<path d="M86796 77086
L86896 77186
" />
<path d="M86896 77086
L86796 77186
" />
<path d="M86820 71012
L86920 71112
" />
<path d="M86920 71012
L86820 71112
" />
<path d="M86997 75698
L87097 75798
" />
<path d="M87097 75698
L86997 75798
" />
<path d="M87095 77086
L87195 77186
" />
<path d="M87195 77086
L87095 77186
" />
<path d="M87410 76820
L87510 76920
" />
<path d="M87510 76820
L87410 76920
" />
<path d="M87545 77286
L87645 77386
" />
<path d="M87645 77286
L87545 77386
" />
<path d="M87645 72786
L87745 72886
" />
<path d="M87745 72786
L87645 72886
" />
<path d="M87670 73236
L87770 73336
" />
<path d="M87770 73236
L87670 73336
" />
<path d="M87705 74871
L87805 74971
" />
<path d="M87805 74871
L87705 74971
" />
<path d="M87770 73611
L87870 73711
" />
<path d="M87870 73611
L87770 73711
" />
<path d="M87895 77511
L87995 77611
" />
<path d="M87995 77511
L87895 77611
" />
<path d="M87902 80953
L88002 81053
" />
<path d="M88002 80953
L87902 81053
" />
<path d="M88070 78261
L88170 78361
" />
<path d="M88170 78261
L88070 78361
" />
<path d="M88099 76131
L88199 76231
" />
<path d="M88199 76131
L88099 76231
" />
<path d="M88198 74064
L88298 74164
" />
<path d="M88298 74064
L88198 74164
" />
<path d="M88389 73811
L88489 73911
" />
<path d="M88489 73811
L88389 73911
" />
<path d="M88688 73811
L88788 73911
" />
<path d="M88788 73811
L88688 73911
" />
<path d="M88788 71012
L88888 71112
" />
<path d="M88888 71012
L88788 71112
" />
<path d="M88845 78261
L88945 78361
" />
<path d="M88945 78261
L88845 78361
" />
<path d="M88845 80411
L88945 80511
" />
<path d="M88945 80411
L88845 80511
" />
<path d="M88887 74162
L88987 74262
" />
<path d="M88987 74162
L88887 74262
" />
<path d="M88887 75311
L88987 75411
" />
<path d="M88987 75311
L88887 75411
" />
<path d="M89095 73761
L89195 73861
" />
<path d="M89195 73761
L89095 73861
" />
<path d="M89670 72786
L89770 72886
" />
<path d="M89770 72786
L89670 72886
" />
<path d="M89969 76918
L90069 77018
" />
<path d="M90069 76918
L89969 77018
" />
<path d="M90264 75146
L90364 75246
" />
<path d="M90364 75146
L90264 75246
" />
<path d="M90560 80953
L90660 81053
" />
<path d="M90660 80953
L90560 81053
" />
<path d="M90757 71012
L90857 71112
" />
<path d="M90857 71012
L90757 71112
" />
<path d="M91642 78591
L91742 78691
" />
<path d="M91742 78591
L91642 78691
" />
<path d="M92135 71012
L92235 71112
" />
<path d="M92235 71012
L92135 71112
" />
<path d="M92528 80953
L92628 81053
" />
<path d="M92628 80953
L92528 81053
" />
<path d="M92824 73079
L92924 73179
" />
<path d="M92924 73079
L92824 73179
" />
<path d="M92824 74851
L92924 74951
" />
<path d="M92924 74851
L92824 74951
" />
<path d="M92824 76524
L92924 76624
" />
<path d="M92924 76524
L92824 76624
" />
<path d="M94792 71603
L94892 71703
" />
<path d="M94892 71603
L94792 71703
" />
<path d="M94792 73572
L94892 73672
" />
<path d="M94892 73572
L94792 73672
" />
<path d="M94792 75540
L94892 75640
" />
<path d="M94892 75540
L94792 75640
" />
<path d="M94792 77509
L94892 77609
" />
<path d="M94892 77509
L94792 77609
" />
<circle cx="64685" cy="88070.9" r="65" /> 
<circle cx="64685" cy="88740.2" r="65" /> 
<circle cx="65118.1" cy="88385.8" r="65" /> 
<circle cx="66653.5" cy="61692.9" r="65" /> 
<circle cx="66653.5" cy="62086.6" r="65" /> 
<circle cx="71220.5" cy="83051.2" r="65" /> 
<circle cx="71220.5" cy="83405.5" r="65" /> 
<circle cx="71220.5" cy="83759.8" r="65" /> 
<circle cx="83622" cy="75019.7" r="65" /> 
<circle cx="83622" cy="75374" r="65" /> 
<circle cx="83622" cy="75728.3" r="65" /> 
<path d="M67007 82814
L67007 83011
" />
<path d="M66909 82913
L67106 82913
" />
<path d="M67284 82146
L67284 82343
" />
<path d="M67186 82245
L67383 82245
" />
<path d="M67284 83483
L67284 83679
" />
<path d="M67186 83581
L67383 83581
" />
<path d="M67952 81870
L67952 82066
" />
<path d="M67854 81968
L68051 81968
" />
<path d="M67952 83759
L67952 83956
" />
<path d="M67854 83858
L68051 83858
" />
<path d="M68620 82146
L68620 82343
" />
<path d="M68522 82245
L68719 82245
" />
<path d="M68620 83483
L68620 83679
" />
<path d="M68522 83581
L68719 83581
" />
<path d="M68897 82814
L68897 83011
" />
<path d="M68799 82913
L68996 82913
" />
<path d="M71732 58090
L71732 58287
" />
<path d="M71633 58188
L71830 58188
" />
<path d="M71732 67500
L71732 67696
" />
<path d="M71633 67598
L71830 67598
" />
<path d="M72009 57422
L72009 57619
" />
<path d="M71910 57520
L72107 57520
" />
<path d="M72009 58758
L72009 58955
" />
<path d="M71910 58857
L72107 58857
" />
<path d="M72009 66831
L72009 67028
" />
<path d="M71910 66930
L72107 66930
" />
<path d="M72009 68168
L72009 68364
" />
<path d="M71910 68266
L72107 68266
" />
<path d="M72677 57145
L72677 57342
" />
<path d="M72578 57244
L72775 57244
" />
<path d="M72677 59035
L72677 59232
" />
<path d="M72578 59133
L72775 59133
" />
<path d="M72677 66555
L72677 66751
" />
<path d="M72578 66653
L72775 66653
" />
<path d="M72677 68444
L72677 68641
" />
<path d="M72578 68543
L72775 68543
" />
<path d="M72913 79704
L72913 79901
" />
<path d="M72814 79803
L73011 79803
" />
<path d="M73190 79036
L73190 79233
" />
<path d="M73091 79135
L73288 79135
" />
<path d="M73190 80372
L73190 80569
" />
<path d="M73091 80471
L73288 80471
" />
<path d="M73345 57422
L73345 57619
" />
<path d="M73246 57520
L73443 57520
" />
<path d="M73345 58758
L73345 58955
" />
<path d="M73246 58857
L73443 58857
" />
<path d="M73345 66831
L73345 67028
" />
<path d="M73246 66930
L73443 66930
" />
<path d="M73345 68168
L73345 68364
" />
<path d="M73246 68266
L73443 68266
" />
<path d="M73622 58090
L73622 58287
" />
<path d="M73523 58188
L73720 58188
" />
<path d="M73622 67500
L73622 67696
" />
<path d="M73523 67598
L73720 67598
" />
<path d="M73858 78759
L73858 78956
" />
<path d="M73759 78858
L73956 78858
" />
<path d="M73858 80649
L73858 80846
" />
<path d="M73759 80748
L73956 80748
" />
<path d="M74526 79036
L74526 79233
" />
<path d="M74427 79135
L74624 79135
" />
<path d="M74526 80372
L74526 80569
" />
<path d="M74427 80471
L74624 80471
" />
<path d="M74803 79704
L74803 79901
" />
<path d="M74704 79803
L74901 79803
" />
<path d="M79960 70059
L79960 70255
" />
<path d="M79862 70157
L80059 70157
" />
<path d="M80237 69390
L80237 69587
" />
<path d="M80138 69489
L80335 69489
" />
<path d="M80237 70727
L80237 70924
" />
<path d="M80138 70825
L80335 70825
" />
<path d="M80905 69114
L80905 69311
" />
<path d="M80807 69212
L81003 69212
" />
<path d="M80905 71003
L80905 71200
" />
<path d="M80807 71102
L81003 71102
" />
<path d="M81573 69390
L81573 69587
" />
<path d="M81475 69489
L81672 69489
" />
<path d="M81573 70727
L81573 70924
" />
<path d="M81475 70825
L81672 70825
" />
<path d="M81850 70059
L81850 70255
" />
<path d="M81751 70157
L81948 70157
" />
<path d="M84055 87657
L84055 87854
" />
<path d="M83956 87755
L84153 87755
" />
<path d="M84331 86989
L84331 87186
" />
<path d="M84233 87087
L84430 87087
" />
<path d="M84331 88325
L84331 88522
" />
<path d="M84233 88424
L84430 88424
" />
<path d="M85000 86712
L85000 86909
" />
<path d="M84901 86811
L85098 86811
" />
<path d="M85000 88602
L85000 88799
" />
<path d="M84901 88700
L85098 88700
" />
<path d="M85668 86989
L85668 87186
" />
<path d="M85569 87087
L85766 87087
" />
<path d="M85668 88325
L85668 88522
" />
<path d="M85569 88424
L85766 88424
" />
<path d="M85944 87657
L85944 87854
" />
<path d="M85846 87755
L86043 87755
" />
<path d="M92795 69901
L92795 70098
" />
<path d="M92696 70000
L92893 70000
" />
<path d="M92795 79311
L92795 79507
" />
<path d="M92696 79409
L92893 79409
" />
<path d="M93072 69233
L93072 69430
" />
<path d="M92973 69331
L93170 69331
" />
<path d="M93072 70569
L93072 70766
" />
<path d="M92973 70668
L93170 70668
" />
<path d="M93072 78642
L93072 78839
" />
<path d="M92973 78741
L93170 78741
" />
<path d="M93072 79979
L93072 80176
" />
<path d="M92973 80077
L93170 80077
" />
<path d="M93740 68956
L93740 69153
" />
<path d="M93641 69055
L93838 69055
" />
<path d="M93740 70846
L93740 71043
" />
<path d="M93641 70944
L93838 70944
" />
<path d="M93740 78366
L93740 78562
" />
<path d="M93641 78464
L93838 78464
" />
<path d="M93740 80255
L93740 80452
" />
<path d="M93641 80354
L93838 80354
" />
<path d="M94408 69233
L94408 69430
" />
<path d="M94309 69331
L94506 69331
" />
<path d="M94408 70569
L94408 70766
" />
<path d="M94309 70668
L94506 70668
" />
<path d="M94408 78642
L94408 78839
" />
<path d="M94309 78741
L94506 78741
" />
<path d="M94408 79979
L94408 80176
" />
<path d="M94309 80077
L94506 80077
" />
<path d="M94685 69901
L94685 70098
" />
<path d="M94586 70000
L94783 70000
" />
<path d="M94685 79311
L94685 79507
" />
<path d="M94586 79409
L94783 79409
" />
<path style="fill:#000000; fill-opacity:0.0; 
stroke:#000000; stroke-width:78.7402; stroke-opacity:1; 
stroke-linecap:round; stroke-linejoin:round;fill:none"
d="M 68398.2,83358.8
68398.2,82468
67507.3,82468
67507.3,83358.8
Z" /> 
<path style="fill:#000000; fill-opacity:0.0; 
stroke:#000000; stroke-width:78.7402; stroke-opacity:1; 
stroke-linecap:round; stroke-linejoin:round;fill:none"
d="M 73122.6,58634.4
73122.6,57743.6
72231.7,57743.6
72231.7,58634.4
Z" /> 
<path style="fill:#000000; fill-opacity:0.0; 
stroke:#000000; stroke-width:78.7402; stroke-opacity:1; 
stroke-linecap:round; stroke-linejoin:round;fill:none"
d="M 73122.6,68043.9
73122.6,67153
72231.7,67153
72231.7,68043.9
Z" /> 
<path style="fill:#000000; fill-opacity:0.0; 
stroke:#000000; stroke-width:78.7402; stroke-opacity:1; 
stroke-linecap:round; stroke-linejoin:round;fill:none"
d="M 74303.7,80248.6
74303.7,79357.7
73412.8,79357.7
73412.8,80248.6
Z" /> 
<path style="fill:#000000; fill-opacity:0.0; 
stroke:#000000; stroke-width:78.7402; stroke-opacity:1; 
stroke-linecap:round; stroke-linejoin:round;fill:none"
d="M 81350.9,70602.9
81350.9,69712.1
80460.1,69712.1
80460.1,70602.9
Z" /> 
<path style="fill:#000000; fill-opacity:0.0; 
stroke:#000000; stroke-width:78.7402; stroke-opacity:1; 
stroke-linecap:round; stroke-linejoin:round;fill:none"
d="M 85445.4,88201.3
85445.4,87310.5
84554.6,87310.5
84554.6,88201.3
Z" /> 
<path style="fill:#000000; fill-opacity:0.0; 
stroke:#000000; stroke-width:78.7402; stroke-opacity:1; 
stroke-linecap:round; stroke-linejoin:round;fill:none"
d="M 94185.6,70445.4
94185.6,69554.6
93294.7,69554.6
93294.7,70445.4
Z" /> 
<path style="fill:#000000; fill-opacity:0.0; 
stroke:#000000; stroke-width:78.7402; stroke-opacity:1; 
stroke-linecap:round; stroke-linejoin:round;fill:none"
d="M 94185.6,79854.9
94185.6,78964
93294.7,78964
93294.7,79854.9
Z" /> 
</g>
<g style="fill:#000000; fill-opacity:0.0; 
stroke:#000000; stroke-width:118.11; stroke-opacity:1; 
stroke-linecap:round; stroke-linejoin:round;">
<text x="63297.2" y="91742.1"
textLength="8779.53" font-size="1574.8" lengthAdjust="spacingAndGlyphs"
text-anchor="start" opacity="0">Drill Map:</text>
<path d="M63637 91685
L63637 90504
L63918 90504
L64087 90561
L64199 90673
L64256 90785
L64312 91010
L64312 91179
L64256 91404
L64199 91517
L64087 91629
L63918 91685
L63637 91685
" />
<path d="M64818 91685
L64818 90898
" />
<path d="M64818 91123
L64874 91010
L64931 90954
L65043 90898
L65156 90898
" />
<path d="M65549 91685
L65549 90898
" />
<path d="M65549 90504
L65493 90561
L65549 90617
L65606 90561
L65549 90504
L65549 90617
" />
<path d="M66280 91685
L66168 91629
L66112 91517
L66112 90504
" />
<path d="M66899 91685
L66787 91629
L66730 91517
L66730 90504
" />
<path d="M68249 91685
L68249 90504
L68643 91348
L69036 90504
L69036 91685
" />
<path d="M70105 91685
L70105 91067
L70049 90954
L69936 90898
L69711 90898
L69599 90954
" />
<path d="M70105 91629
L69992 91685
L69711 91685
L69599 91629
L69543 91517
L69543 91404
L69599 91292
L69711 91235
L69992 91235
L70105 91179
" />
<path d="M70667 90898
L70667 92079
" />
<path d="M70667 90954
L70780 90898
L71005 90898
L71117 90954
L71174 91010
L71230 91123
L71230 91460
L71174 91573
L71117 91629
L71005 91685
L70780 91685
L70667 91629
" />
<path d="M71736 91573
L71792 91629
L71736 91685
L71680 91629
L71736 91573
L71736 91685
" />
<path d="M71736 90954
L71792 91010
L71736 91067
L71680 91010
L71736 90954
L71736 91067
" />
<path d="M62409 93581
L62509 93681
" />
<path d="M62509 93581
L62409 93681
" />
<text x="63297.2" y="94222.4"
textLength="29926.9" font-size="1574.8" lengthAdjust="spacingAndGlyphs"
text-anchor="start" opacity="0">0.254mm / 0.0100" (222 holes)</text>
<path d="M63862 92985
L63974 92985
L64087 93041
L64143 93097
L64199 93210
L64256 93435
L64256 93716
L64199 93941
L64143 94053
L64087 94109
L63974 94166
L63862 94166
L63749 94109
L63693 94053
L63637 93941
L63581 93716
L63581 93435
L63637 93210
L63693 93097
L63749 93041
L63862 92985
" />
<path d="M64762 94053
L64818 94109
L64762 94166
L64706 94109
L64762 94053
L64762 94166
" />
<path d="M65268 93097
L65324 93041
L65437 92985
L65718 92985
L65830 93041
L65887 93097
L65943 93210
L65943 93322
L65887 93491
L65212 94166
L65943 94166
" />
<path d="M67012 92985
L66449 92985
L66393 93547
L66449 93491
L66562 93435
L66843 93435
L66955 93491
L67012 93547
L67068 93660
L67068 93941
L67012 94053
L66955 94109
L66843 94166
L66562 94166
L66449 94109
L66393 94053
" />
<path d="M68080 93378
L68080 94166
" />
<path d="M67799 92928
L67518 93772
L68249 93772
" />
<path d="M68699 94166
L68699 93378
" />
<path d="M68699 93491
L68755 93435
L68868 93378
L69036 93378
L69149 93435
L69205 93547
L69205 94166
" />
<path d="M69205 93547
L69261 93435
L69374 93378
L69543 93378
L69655 93435
L69711 93547
L69711 94166
" />
<path d="M70274 94166
L70274 93378
" />
<path d="M70274 93491
L70330 93435
L70442 93378
L70611 93378
L70724 93435
L70780 93547
L70780 94166
" />
<path d="M70780 93547
L70836 93435
L70949 93378
L71117 93378
L71230 93435
L71286 93547
L71286 94166
" />
<path d="M73592 92928
L72580 94447
" />
<path d="M75111 92985
L75223 92985
L75336 93041
L75392 93097
L75448 93210
L75504 93435
L75504 93716
L75448 93941
L75392 94053
L75336 94109
L75223 94166
L75111 94166
L74998 94109
L74942 94053
L74886 93941
L74829 93716
L74829 93435
L74886 93210
L74942 93097
L74998 93041
L75111 92985
" />
<path d="M76010 94053
L76067 94109
L76010 94166
L75954 94109
L76010 94053
L76010 94166
" />
<path d="M76798 92985
L76910 92985
L77023 93041
L77079 93097
L77135 93210
L77192 93435
L77192 93716
L77135 93941
L77079 94053
L77023 94109
L76910 94166
L76798 94166
L76685 94109
L76629 94053
L76573 93941
L76517 93716
L76517 93435
L76573 93210
L76629 93097
L76685 93041
L76798 92985
" />
<path d="M78316 94166
L77642 94166
" />
<path d="M77979 94166
L77979 92985
L77866 93153
L77754 93266
L77642 93322
" />
<path d="M79048 92985
L79160 92985
L79273 93041
L79329 93097
L79385 93210
L79441 93435
L79441 93716
L79385 93941
L79329 94053
L79273 94109
L79160 94166
L79048 94166
L78935 94109
L78879 94053
L78823 93941
L78766 93716
L78766 93435
L78823 93210
L78879 93097
L78935 93041
L79048 92985
" />
<path d="M80172 92985
L80285 92985
L80397 93041
L80454 93097
L80510 93210
L80566 93435
L80566 93716
L80510 93941
L80454 94053
L80397 94109
L80285 94166
L80172 94166
L80060 94109
L80004 94053
L79947 93941
L79891 93716
L79891 93435
L79947 93210
L80004 93097
L80060 93041
L80172 92985
" />
<path d="M81016 92985
L81016 93210
" />
<path d="M81466 92985
L81466 93210
" />
<path d="M83210 94616
L83153 94559
L83041 94391
L82985 94278
L82928 94109
L82872 93828
L82872 93603
L82928 93322
L82985 93153
L83041 93041
L83153 92872
L83210 92816
" />
<path d="M83603 93097
L83660 93041
L83772 92985
L84053 92985
L84166 93041
L84222 93097
L84278 93210
L84278 93322
L84222 93491
L83547 94166
L84278 94166
" />
<path d="M84728 93097
L84784 93041
L84897 92985
L85178 92985
L85291 93041
L85347 93097
L85403 93210
L85403 93322
L85347 93491
L84672 94166
L85403 94166
" />
<path d="M85853 93097
L85909 93041
L86022 92985
L86303 92985
L86415 93041
L86472 93097
L86528 93210
L86528 93322
L86472 93491
L85797 94166
L86528 94166
" />
<path d="M87934 94166
L87934 92985
" />
<path d="M88440 94166
L88440 93547
L88384 93435
L88271 93378
L88103 93378
L87990 93435
L87934 93491
" />
<path d="M89171 94166
L89059 94109
L89003 94053
L88946 93941
L88946 93603
L89003 93491
L89059 93435
L89171 93378
L89340 93378
L89453 93435
L89509 93491
L89565 93603
L89565 93941
L89509 94053
L89453 94109
L89340 94166
L89171 94166
" />
<path d="M90240 94166
L90127 94109
L90071 93997
L90071 92985
" />
<path d="M91140 94109
L91027 94166
L90802 94166
L90690 94109
L90634 93997
L90634 93547
L90690 93435
L90802 93378
L91027 93378
L91140 93435
L91196 93547
L91196 93660
L90634 93772
" />
<path d="M91646 94109
L91758 94166
L91983 94166
L92096 94109
L92152 93997
L92152 93941
L92096 93828
L91983 93772
L91815 93772
L91702 93716
L91646 93603
L91646 93547
L91702 93435
L91815 93378
L91983 93378
L92096 93435
" />
<path d="M92546 94616
L92602 94559
L92715 94391
L92771 94278
L92827 94109
L92883 93828
L92883 93603
L92827 93322
L92771 93153
L92715 93041
L92602 92872
L92546 92816
" />
<circle cx="62444.8" cy="95190.9" r="65" /> 
<text x="63297.2" y="95781.5"
textLength="28802" font-size="1574.8" lengthAdjust="spacingAndGlyphs"
text-anchor="start" opacity="0">0.330mm / 0.0130" (11 holes)</text>
<path d="M63862 94544
L63974 94544
L64087 94600
L64143 94656
L64199 94769
L64256 94994
L64256 95275
L64199 95500
L64143 95612
L64087 95669
L63974 95725
L63862 95725
L63749 95669
L63693 95612
L63637 95500
L63581 95275
L63581 94994
L63637 94769
L63693 94656
L63749 94600
L63862 94544
" />
<path d="M64762 95612
L64818 95669
L64762 95725
L64706 95669
L64762 95612
L64762 95725
" />
<path d="M65212 94544
L65943 94544
L65549 94994
L65718 94994
L65830 95050
L65887 95106
L65943 95219
L65943 95500
L65887 95612
L65830 95669
L65718 95725
L65381 95725
L65268 95669
L65212 95612
" />
<path d="M66337 94544
L67068 94544
L66674 94994
L66843 94994
L66955 95050
L67012 95106
L67068 95219
L67068 95500
L67012 95612
L66955 95669
L66843 95725
L66505 95725
L66393 95669
L66337 95612
" />
<path d="M67799 94544
L67911 94544
L68024 94600
L68080 94656
L68136 94769
L68193 94994
L68193 95275
L68136 95500
L68080 95612
L68024 95669
L67911 95725
L67799 95725
L67687 95669
L67630 95612
L67574 95500
L67518 95275
L67518 94994
L67574 94769
L67630 94656
L67687 94600
L67799 94544
" />
<path d="M68699 95725
L68699 94937
" />
<path d="M68699 95050
L68755 94994
L68868 94937
L69036 94937
L69149 94994
L69205 95106
L69205 95725
" />
<path d="M69205 95106
L69261 94994
L69374 94937
L69543 94937
L69655 94994
L69711 95106
L69711 95725
" />
<path d="M70274 95725
L70274 94937
" />
<path d="M70274 95050
L70330 94994
L70442 94937
L70611 94937
L70724 94994
L70780 95106
L70780 95725
" />
<path d="M70780 95106
L70836 94994
L70949 94937
L71117 94937
L71230 94994
L71286 95106
L71286 95725
" />
<path d="M73592 94487
L72580 96006
" />
<path d="M75111 94544
L75223 94544
L75336 94600
L75392 94656
L75448 94769
L75504 94994
L75504 95275
L75448 95500
L75392 95612
L75336 95669
L75223 95725
L75111 95725
L74998 95669
L74942 95612
L74886 95500
L74829 95275
L74829 94994
L74886 94769
L74942 94656
L74998 94600
L75111 94544
" />
<path d="M76010 95612
L76067 95669
L76010 95725
L75954 95669
L76010 95612
L76010 95725
" />
<path d="M76798 94544
L76910 94544
L77023 94600
L77079 94656
L77135 94769
L77192 94994
L77192 95275
L77135 95500
L77079 95612
L77023 95669
L76910 95725
L76798 95725
L76685 95669
L76629 95612
L76573 95500
L76517 95275
L76517 94994
L76573 94769
L76629 94656
L76685 94600
L76798 94544
" />
<path d="M78316 95725
L77642 95725
" />
<path d="M77979 95725
L77979 94544
L77866 94712
L77754 94825
L77642 94881
" />
<path d="M78710 94544
L79441 94544
L79048 94994
L79216 94994
L79329 95050
L79385 95106
L79441 95219
L79441 95500
L79385 95612
L79329 95669
L79216 95725
L78879 95725
L78766 95669
L78710 95612
" />
<path d="M80172 94544
L80285 94544
L80397 94600
L80454 94656
L80510 94769
L80566 94994
L80566 95275
L80510 95500
L80454 95612
L80397 95669
L80285 95725
L80172 95725
L80060 95669
L80004 95612
L79947 95500
L79891 95275
L79891 94994
L79947 94769
L80004 94656
L80060 94600
L80172 94544
" />
<path d="M81016 94544
L81016 94769
" />
<path d="M81466 94544
L81466 94769
" />
<path d="M83210 96175
L83153 96118
L83041 95950
L82985 95837
L82928 95669
L82872 95387
L82872 95162
L82928 94881
L82985 94712
L83041 94600
L83153 94431
L83210 94375
" />
<path d="M84278 95725
L83603 95725
" />
<path d="M83941 95725
L83941 94544
L83828 94712
L83716 94825
L83603 94881
" />
<path d="M85403 95725
L84728 95725
" />
<path d="M85066 95725
L85066 94544
L84953 94712
L84841 94825
L84728 94881
" />
<path d="M86809 95725
L86809 94544
" />
<path d="M87315 95725
L87315 95106
L87259 94994
L87147 94937
L86978 94937
L86865 94994
L86809 95050
" />
<path d="M88046 95725
L87934 95669
L87878 95612
L87821 95500
L87821 95162
L87878 95050
L87934 94994
L88046 94937
L88215 94937
L88328 94994
L88384 95050
L88440 95162
L88440 95500
L88384 95612
L88328 95669
L88215 95725
L88046 95725
" />
<path d="M89115 95725
L89003 95669
L88946 95556
L88946 94544
" />
<path d="M90015 95669
L89902 95725
L89678 95725
L89565 95669
L89509 95556
L89509 95106
L89565 94994
L89678 94937
L89902 94937
L90015 94994
L90071 95106
L90071 95219
L89509 95331
" />
<path d="M90521 95669
L90634 95725
L90859 95725
L90971 95669
L91027 95556
L91027 95500
L90971 95387
L90859 95331
L90690 95331
L90577 95275
L90521 95162
L90521 95106
L90577 94994
L90690 94937
L90859 94937
L90971 94994
" />
<path d="M91421 96175
L91477 96118
L91590 95950
L91646 95837
L91702 95669
L91758 95387
L91758 95162
L91702 94881
L91646 94712
L91590 94600
L91477 94431
L91421 94375
" />
<path d="M62411 96651
L62411 96848
" />
<path d="M62312 96750
L62509 96750
" />
<text x="63297.2" y="97340.6"
textLength="28802" font-size="1574.8" lengthAdjust="spacingAndGlyphs"
text-anchor="start" opacity="0">0.500mm / 0.0197" (64 holes)</text>
<path d="M63862 96103
L63974 96103
L64087 96159
L64143 96215
L64199 96328
L64256 96553
L64256 96834
L64199 97059
L64143 97171
L64087 97228
L63974 97284
L63862 97284
L63749 97228
L63693 97171
L63637 97059
L63581 96834
L63581 96553
L63637 96328
L63693 96215
L63749 96159
L63862 96103
" />
<path d="M64762 97171
L64818 97228
L64762 97284
L64706 97228
L64762 97171
L64762 97284
" />
<path d="M65887 96103
L65324 96103
L65268 96665
L65324 96609
L65437 96553
L65718 96553
L65830 96609
L65887 96665
L65943 96778
L65943 97059
L65887 97171
L65830 97228
L65718 97284
L65437 97284
L65324 97228
L65268 97171
" />
<path d="M66674 96103
L66787 96103
L66899 96159
L66955 96215
L67012 96328
L67068 96553
L67068 96834
L67012 97059
L66955 97171
L66899 97228
L66787 97284
L66674 97284
L66562 97228
L66505 97171
L66449 97059
L66393 96834
L66393 96553
L66449 96328
L66505 96215
L66562 96159
L66674 96103
" />
<path d="M67799 96103
L67911 96103
L68024 96159
L68080 96215
L68136 96328
L68193 96553
L68193 96834
L68136 97059
L68080 97171
L68024 97228
L67911 97284
L67799 97284
L67687 97228
L67630 97171
L67574 97059
L67518 96834
L67518 96553
L67574 96328
L67630 96215
L67687 96159
L67799 96103
" />
<path d="M68699 97284
L68699 96496
" />
<path d="M68699 96609
L68755 96553
L68868 96496
L69036 96496
L69149 96553
L69205 96665
L69205 97284
" />
<path d="M69205 96665
L69261 96553
L69374 96496
L69543 96496
L69655 96553
L69711 96665
L69711 97284
" />
<path d="M70274 97284
L70274 96496
" />
<path d="M70274 96609
L70330 96553
L70442 96496
L70611 96496
L70724 96553
L70780 96665
L70780 97284
" />
<path d="M70780 96665
L70836 96553
L70949 96496
L71117 96496
L71230 96553
L71286 96665
L71286 97284
" />
<path d="M73592 96046
L72580 97565
" />
<path d="M75111 96103
L75223 96103
L75336 96159
L75392 96215
L75448 96328
L75504 96553
L75504 96834
L75448 97059
L75392 97171
L75336 97228
L75223 97284
L75111 97284
L74998 97228
L74942 97171
L74886 97059
L74829 96834
L74829 96553
L74886 96328
L74942 96215
L74998 96159
L75111 96103
" />
<path d="M76010 97171
L76067 97228
L76010 97284
L75954 97228
L76010 97171
L76010 97284
" />
<path d="M76798 96103
L76910 96103
L77023 96159
L77079 96215
L77135 96328
L77192 96553
L77192 96834
L77135 97059
L77079 97171
L77023 97228
L76910 97284
L76798 97284
L76685 97228
L76629 97171
L76573 97059
L76517 96834
L76517 96553
L76573 96328
L76629 96215
L76685 96159
L76798 96103
" />
<path d="M78316 97284
L77642 97284
" />
<path d="M77979 97284
L77979 96103
L77866 96271
L77754 96384
L77642 96440
" />
<path d="M78879 97284
L79104 97284
L79216 97228
L79273 97171
L79385 97003
L79441 96778
L79441 96328
L79385 96215
L79329 96159
L79216 96103
L78991 96103
L78879 96159
L78823 96215
L78766 96328
L78766 96609
L78823 96721
L78879 96778
L78991 96834
L79216 96834
L79329 96778
L79385 96721
L79441 96609
" />
<path d="M79835 96103
L80622 96103
L80116 97284
" />
<path d="M81016 96103
L81016 96328
" />
<path d="M81466 96103
L81466 96328
" />
<path d="M83210 97734
L83153 97678
L83041 97509
L82985 97396
L82928 97228
L82872 96946
L82872 96721
L82928 96440
L82985 96271
L83041 96159
L83153 95990
L83210 95934
" />
<path d="M84166 96103
L83941 96103
L83828 96159
L83772 96215
L83660 96384
L83603 96609
L83603 97059
L83660 97171
L83716 97228
L83828 97284
L84053 97284
L84166 97228
L84222 97171
L84278 97059
L84278 96778
L84222 96665
L84166 96609
L84053 96553
L83828 96553
L83716 96609
L83660 96665
L83603 96778
" />
<path d="M85291 96496
L85291 97284
" />
<path d="M85009 96046
L84728 96890
L85459 96890
" />
<path d="M86809 97284
L86809 96103
" />
<path d="M87315 97284
L87315 96665
L87259 96553
L87147 96496
L86978 96496
L86865 96553
L86809 96609
" />
<path d="M88046 97284
L87934 97228
L87878 97171
L87821 97059
L87821 96721
L87878 96609
L87934 96553
L88046 96496
L88215 96496
L88328 96553
L88384 96609
L88440 96721
L88440 97059
L88384 97171
L88328 97228
L88215 97284
L88046 97284
" />
<path d="M89115 97284
L89003 97228
L88946 97115
L88946 96103
" />
<path d="M90015 97228
L89902 97284
L89678 97284
L89565 97228
L89509 97115
L89509 96665
L89565 96553
L89678 96496
L89902 96496
L90015 96553
L90071 96665
L90071 96778
L89509 96890
" />
<path d="M90521 97228
L90634 97284
L90859 97284
L90971 97228
L91027 97115
L91027 97059
L90971 96946
L90859 96890
L90690 96890
L90577 96834
L90521 96721
L90521 96665
L90577 96553
L90690 96496
L90859 96496
L90971 96553
" />
<path d="M91421 97734
L91477 97678
L91590 97509
L91646 97396
L91702 97228
L91758 96946
L91758 96721
L91702 96440
L91646 96271
L91590 96159
L91477 95990
L91421 95934
" />
<path style="fill:#000000; fill-opacity:0.0; 
stroke:#000000; stroke-width:118.11; stroke-opacity:1; 
stroke-linecap:round; stroke-linejoin:round;fill:none"
d="M 62325.3,98754.5
62325.3,97863.6
61434.5,97863.6
61434.5,98754.5
Z" /> 
<text x="63297.2" y="98899.6"
textLength="27677.2" font-size="1574.8" lengthAdjust="spacingAndGlyphs"
text-anchor="start" opacity="0">3.200mm / 0.1260" (8 holes)</text>
<path d="M63525 97662
L64256 97662
L63862 98112
L64031 98112
L64143 98168
L64199 98224
L64256 98337
L64256 98618
L64199 98730
L64143 98787
L64031 98843
L63693 98843
L63581 98787
L63525 98730
" />
<path d="M64762 98730
L64818 98787
L64762 98843
L64706 98787
L64762 98730
L64762 98843
" />
<path d="M65268 97774
L65324 97718
L65437 97662
L65718 97662
L65830 97718
L65887 97774
L65943 97887
L65943 97999
L65887 98168
L65212 98843
L65943 98843
" />
<path d="M66674 97662
L66787 97662
L66899 97718
L66955 97774
L67012 97887
L67068 98112
L67068 98393
L67012 98618
L66955 98730
L66899 98787
L66787 98843
L66674 98843
L66562 98787
L66505 98730
L66449 98618
L66393 98393
L66393 98112
L66449 97887
L66505 97774
L66562 97718
L66674 97662
" />
<path d="M67799 97662
L67911 97662
L68024 97718
L68080 97774
L68136 97887
L68193 98112
L68193 98393
L68136 98618
L68080 98730
L68024 98787
L67911 98843
L67799 98843
L67687 98787
L67630 98730
L67574 98618
L67518 98393
L67518 98112
L67574 97887
L67630 97774
L67687 97718
L67799 97662
" />
<path d="M68699 98843
L68699 98055
" />
<path d="M68699 98168
L68755 98112
L68868 98055
L69036 98055
L69149 98112
L69205 98224
L69205 98843
" />
<path d="M69205 98224
L69261 98112
L69374 98055
L69543 98055
L69655 98112
L69711 98224
L69711 98843
" />
<path d="M70274 98843
L70274 98055
" />
<path d="M70274 98168
L70330 98112
L70442 98055
L70611 98055
L70724 98112
L70780 98224
L70780 98843
" />
<path d="M70780 98224
L70836 98112
L70949 98055
L71117 98055
L71230 98112
L71286 98224
L71286 98843
" />
<path d="M73592 97606
L72580 99124
" />
<path d="M75111 97662
L75223 97662
L75336 97718
L75392 97774
L75448 97887
L75504 98112
L75504 98393
L75448 98618
L75392 98730
L75336 98787
L75223 98843
L75111 98843
L74998 98787
L74942 98730
L74886 98618
L74829 98393
L74829 98112
L74886 97887
L74942 97774
L74998 97718
L75111 97662
" />
<path d="M76010 98730
L76067 98787
L76010 98843
L75954 98787
L76010 98730
L76010 98843
" />
<path d="M77192 98843
L76517 98843
" />
<path d="M76854 98843
L76854 97662
L76742 97830
L76629 97943
L76517 97999
" />
<path d="M77642 97774
L77698 97718
L77810 97662
L78091 97662
L78204 97718
L78260 97774
L78316 97887
L78316 97999
L78260 98168
L77585 98843
L78316 98843
" />
<path d="M79329 97662
L79104 97662
L78991 97718
L78935 97774
L78823 97943
L78766 98168
L78766 98618
L78823 98730
L78879 98787
L78991 98843
L79216 98843
L79329 98787
L79385 98730
L79441 98618
L79441 98337
L79385 98224
L79329 98168
L79216 98112
L78991 98112
L78879 98168
L78823 98224
L78766 98337
" />
<path d="M80172 97662
L80285 97662
L80397 97718
L80454 97774
L80510 97887
L80566 98112
L80566 98393
L80510 98618
L80454 98730
L80397 98787
L80285 98843
L80172 98843
L80060 98787
L80004 98730
L79947 98618
L79891 98393
L79891 98112
L79947 97887
L80004 97774
L80060 97718
L80172 97662
" />
<path d="M81016 97662
L81016 97887
" />
<path d="M81466 97662
L81466 97887
" />
<path d="M83210 99293
L83153 99237
L83041 99068
L82985 98955
L82928 98787
L82872 98505
L82872 98280
L82928 97999
L82985 97830
L83041 97718
L83153 97549
L83210 97493
" />
<path d="M83828 98168
L83716 98112
L83660 98055
L83603 97943
L83603 97887
L83660 97774
L83716 97718
L83828 97662
L84053 97662
L84166 97718
L84222 97774
L84278 97887
L84278 97943
L84222 98055
L84166 98112
L84053 98168
L83828 98168
L83716 98224
L83660 98280
L83603 98393
L83603 98618
L83660 98730
L83716 98787
L83828 98843
L84053 98843
L84166 98787
L84222 98730
L84278 98618
L84278 98393
L84222 98280
L84166 98224
L84053 98168
" />
<path d="M85684 98843
L85684 97662
" />
<path d="M86190 98843
L86190 98224
L86134 98112
L86022 98055
L85853 98055
L85741 98112
L85684 98168
" />
<path d="M86922 98843
L86809 98787
L86753 98730
L86697 98618
L86697 98280
L86753 98168
L86809 98112
L86922 98055
L87090 98055
L87203 98112
L87259 98168
L87315 98280
L87315 98618
L87259 98730
L87203 98787
L87090 98843
L86922 98843
" />
<path d="M87990 98843
L87878 98787
L87821 98674
L87821 97662
" />
<path d="M88890 98787
L88778 98843
L88553 98843
L88440 98787
L88384 98674
L88384 98224
L88440 98112
L88553 98055
L88778 98055
L88890 98112
L88946 98224
L88946 98337
L88384 98449
" />
<path d="M89396 98787
L89509 98843
L89734 98843
L89846 98787
L89902 98674
L89902 98618
L89846 98505
L89734 98449
L89565 98449
L89453 98393
L89396 98280
L89396 98224
L89453 98112
L89565 98055
L89734 98055
L89846 98112
" />
<path d="M90296 99293
L90352 99237
L90465 99068
L90521 98955
L90577 98787
L90634 98505
L90634 98280
L90577 97999
L90521 97830
L90465 97718
L90352 97549
L90296 97493
" />
</g> 
</svg>
