%TF.GenerationSoftware,KiCad,Pcbnew,(5.1.10)-1*%
%TF.CreationDate,2021-10-19T18:18:53+02:00*%
%TF.ProjectId,hard_cam_usb_production,68617264-5f63-4616-9d5f-7573625f7072,rev?*%
%TF.SameCoordinates,Original*%
%TF.FileFunction,Soldermask,Top*%
%TF.FilePolarity,Negative*%
%FSLAX46Y46*%
G04 Gerber Fmt 4.6, Leading zero omitted, Abs format (unit mm)*
G04 Created by KiCad (PCBNEW (5.1.10)-1) date 2021-10-19 18:18:54*
%MOMM*%
%LPD*%
G01*
G04 APERTURE LIST*
%ADD10C,1.400000*%
%ADD11C,1.300000*%
%ADD12C,1.200000*%
%ADD13C,6.800000*%
%ADD14C,0.100000*%
G04 APERTURE END LIST*
%TO.C,J6*%
G36*
G01*
X167325000Y-226237500D02*
X167325000Y-223562500D01*
G75*
G02*
X167562500Y-223325000I237500J0D01*
G01*
X168037500Y-223325000D01*
G75*
G02*
X168275000Y-223562500I0J-237500D01*
G01*
X168275000Y-226237500D01*
G75*
G02*
X168037500Y-226475000I-237500J0D01*
G01*
X167562500Y-226475000D01*
G75*
G02*
X167325000Y-226237500I0J237500D01*
G01*
G37*
G36*
G01*
X168125000Y-226237500D02*
X168125000Y-223562500D01*
G75*
G02*
X168362500Y-223325000I237500J0D01*
G01*
X168837500Y-223325000D01*
G75*
G02*
X169075000Y-223562500I0J-237500D01*
G01*
X169075000Y-226237500D01*
G75*
G02*
X168837500Y-226475000I-237500J0D01*
G01*
X168362500Y-226475000D01*
G75*
G02*
X168125000Y-226237500I0J237500D01*
G01*
G37*
G36*
G01*
X168925000Y-226237500D02*
X168925000Y-223562500D01*
G75*
G02*
X169162500Y-223325000I237500J0D01*
G01*
X169637500Y-223325000D01*
G75*
G02*
X169875000Y-223562500I0J-237500D01*
G01*
X169875000Y-226237500D01*
G75*
G02*
X169637500Y-226475000I-237500J0D01*
G01*
X169162500Y-226475000D01*
G75*
G02*
X168925000Y-226237500I0J237500D01*
G01*
G37*
G36*
G01*
X169725000Y-226237500D02*
X169725000Y-223562500D01*
G75*
G02*
X169962500Y-223325000I237500J0D01*
G01*
X170437500Y-223325000D01*
G75*
G02*
X170675000Y-223562500I0J-237500D01*
G01*
X170675000Y-226237500D01*
G75*
G02*
X170437500Y-226475000I-237500J0D01*
G01*
X169962500Y-226475000D01*
G75*
G02*
X169725000Y-226237500I0J237500D01*
G01*
G37*
G36*
G01*
X170525000Y-226237500D02*
X170525000Y-223562500D01*
G75*
G02*
X170762500Y-223325000I237500J0D01*
G01*
X171237500Y-223325000D01*
G75*
G02*
X171475000Y-223562500I0J-237500D01*
G01*
X171475000Y-226237500D01*
G75*
G02*
X171237500Y-226475000I-237500J0D01*
G01*
X170762500Y-226475000D01*
G75*
G02*
X170525000Y-226237500I0J237500D01*
G01*
G37*
G36*
G01*
X172350000Y-225250000D02*
X172350000Y-223750000D01*
G75*
G02*
X173100000Y-223000000I750000J0D01*
G01*
X175100000Y-223000000D01*
G75*
G02*
X175850000Y-223750000I0J-750000D01*
G01*
X175850000Y-225250000D01*
G75*
G02*
X175100000Y-226000000I-750000J0D01*
G01*
X173100000Y-226000000D01*
G75*
G02*
X172350000Y-225250000I0J750000D01*
G01*
G37*
G36*
G01*
X162950000Y-225250000D02*
X162950000Y-223750000D01*
G75*
G02*
X163700000Y-223000000I750000J0D01*
G01*
X165700000Y-223000000D01*
G75*
G02*
X166450000Y-223750000I0J-750000D01*
G01*
X166450000Y-225250000D01*
G75*
G02*
X165700000Y-226000000I-750000J0D01*
G01*
X163700000Y-226000000D01*
G75*
G02*
X162950000Y-225250000I0J750000D01*
G01*
G37*
D10*
X172400000Y-222050000D03*
X166400000Y-222050000D03*
%TD*%
D11*
%TO.C,J2*%
X223600000Y-201500000D03*
X219200000Y-201500000D03*
G36*
G01*
X222550000Y-200150000D02*
X222550000Y-197650000D01*
G75*
G02*
X222750000Y-197450000I200000J0D01*
G01*
X223250000Y-197450000D01*
G75*
G02*
X223450000Y-197650000I0J-200000D01*
G01*
X223450000Y-200150000D01*
G75*
G02*
X223250000Y-200350000I-200000J0D01*
G01*
X222750000Y-200350000D01*
G75*
G02*
X222550000Y-200150000I0J200000D01*
G01*
G37*
G36*
G01*
X221750000Y-200150000D02*
X221750000Y-197650000D01*
G75*
G02*
X221950000Y-197450000I200000J0D01*
G01*
X222450000Y-197450000D01*
G75*
G02*
X222650000Y-197650000I0J-200000D01*
G01*
X222650000Y-200150000D01*
G75*
G02*
X222450000Y-200350000I-200000J0D01*
G01*
X221950000Y-200350000D01*
G75*
G02*
X221750000Y-200150000I0J200000D01*
G01*
G37*
G36*
G01*
X220950000Y-200150000D02*
X220950000Y-197650000D01*
G75*
G02*
X221150000Y-197450000I200000J0D01*
G01*
X221650000Y-197450000D01*
G75*
G02*
X221850000Y-197650000I0J-200000D01*
G01*
X221850000Y-200150000D01*
G75*
G02*
X221650000Y-200350000I-200000J0D01*
G01*
X221150000Y-200350000D01*
G75*
G02*
X220950000Y-200150000I0J200000D01*
G01*
G37*
G36*
G01*
X220150000Y-200150000D02*
X220150000Y-197650000D01*
G75*
G02*
X220350000Y-197450000I200000J0D01*
G01*
X220850000Y-197450000D01*
G75*
G02*
X221050000Y-197650000I0J-200000D01*
G01*
X221050000Y-200150000D01*
G75*
G02*
X220850000Y-200350000I-200000J0D01*
G01*
X220350000Y-200350000D01*
G75*
G02*
X220150000Y-200150000I0J200000D01*
G01*
G37*
G36*
G01*
X219350000Y-200150000D02*
X219350000Y-197650000D01*
G75*
G02*
X219550000Y-197450000I200000J0D01*
G01*
X220050000Y-197450000D01*
G75*
G02*
X220250000Y-197650000I0J-200000D01*
G01*
X220250000Y-200150000D01*
G75*
G02*
X220050000Y-200350000I-200000J0D01*
G01*
X219550000Y-200350000D01*
G75*
G02*
X219350000Y-200150000I0J200000D01*
G01*
G37*
G36*
G01*
X224600000Y-200150000D02*
X224600000Y-197650000D01*
G75*
G02*
X224800000Y-197450000I200000J0D01*
G01*
X226800000Y-197450000D01*
G75*
G02*
X227000000Y-197650000I0J-200000D01*
G01*
X227000000Y-200150000D01*
G75*
G02*
X226800000Y-200350000I-200000J0D01*
G01*
X224800000Y-200350000D01*
G75*
G02*
X224600000Y-200150000I0J200000D01*
G01*
G37*
G36*
G01*
X215800000Y-200150000D02*
X215800000Y-197650000D01*
G75*
G02*
X216000000Y-197450000I200000J0D01*
G01*
X218000000Y-197450000D01*
G75*
G02*
X218200000Y-197650000I0J-200000D01*
G01*
X218200000Y-200150000D01*
G75*
G02*
X218000000Y-200350000I-200000J0D01*
G01*
X216000000Y-200350000D01*
G75*
G02*
X215800000Y-200150000I0J200000D01*
G01*
G37*
G36*
G01*
X224600000Y-205650000D02*
X224600000Y-203150000D01*
G75*
G02*
X224800000Y-202950000I200000J0D01*
G01*
X226800000Y-202950000D01*
G75*
G02*
X227000000Y-203150000I0J-200000D01*
G01*
X227000000Y-205650000D01*
G75*
G02*
X226800000Y-205850000I-200000J0D01*
G01*
X224800000Y-205850000D01*
G75*
G02*
X224600000Y-205650000I0J200000D01*
G01*
G37*
G36*
G01*
X215800000Y-205650000D02*
X215800000Y-203150000D01*
G75*
G02*
X216000000Y-202950000I200000J0D01*
G01*
X218000000Y-202950000D01*
G75*
G02*
X218200000Y-203150000I0J-200000D01*
G01*
X218200000Y-205650000D01*
G75*
G02*
X218000000Y-205850000I-200000J0D01*
G01*
X216000000Y-205850000D01*
G75*
G02*
X215800000Y-205650000I0J200000D01*
G01*
G37*
%TD*%
%TO.C,J1*%
G36*
G01*
X223986500Y-184533500D02*
X223986500Y-185533500D01*
G75*
G02*
X223786500Y-185733500I-200000J0D01*
G01*
X223266500Y-185733500D01*
G75*
G02*
X223066500Y-185533500I0J200000D01*
G01*
X223066500Y-184533500D01*
G75*
G02*
X223266500Y-184333500I200000J0D01*
G01*
X223786500Y-184333500D01*
G75*
G02*
X223986500Y-184533500I0J-200000D01*
G01*
G37*
G36*
G01*
X227466500Y-184533500D02*
X227466500Y-185533500D01*
G75*
G02*
X227266500Y-185733500I-200000J0D01*
G01*
X226746500Y-185733500D01*
G75*
G02*
X226546500Y-185533500I0J200000D01*
G01*
X226546500Y-184533500D01*
G75*
G02*
X226746500Y-184333500I200000J0D01*
G01*
X227266500Y-184333500D01*
G75*
G02*
X227466500Y-184533500I0J-200000D01*
G01*
G37*
G36*
G01*
X224616500Y-185783500D02*
X224616500Y-186683500D01*
G75*
G02*
X224416500Y-186883500I-200000J0D01*
G01*
X224116500Y-186883500D01*
G75*
G02*
X223916500Y-186683500I0J200000D01*
G01*
X223916500Y-185783500D01*
G75*
G02*
X224116500Y-185583500I200000J0D01*
G01*
X224416500Y-185583500D01*
G75*
G02*
X224616500Y-185783500I0J-200000D01*
G01*
G37*
G36*
G01*
X225116500Y-185783500D02*
X225116500Y-186683500D01*
G75*
G02*
X224916500Y-186883500I-200000J0D01*
G01*
X224616500Y-186883500D01*
G75*
G02*
X224416500Y-186683500I0J200000D01*
G01*
X224416500Y-185783500D01*
G75*
G02*
X224616500Y-185583500I200000J0D01*
G01*
X224916500Y-185583500D01*
G75*
G02*
X225116500Y-185783500I0J-200000D01*
G01*
G37*
G36*
G01*
X225616500Y-185783500D02*
X225616500Y-186683500D01*
G75*
G02*
X225416500Y-186883500I-200000J0D01*
G01*
X225116500Y-186883500D01*
G75*
G02*
X224916500Y-186683500I0J200000D01*
G01*
X224916500Y-185783500D01*
G75*
G02*
X225116500Y-185583500I200000J0D01*
G01*
X225416500Y-185583500D01*
G75*
G02*
X225616500Y-185783500I0J-200000D01*
G01*
G37*
G36*
G01*
X226116500Y-185783500D02*
X226116500Y-186683500D01*
G75*
G02*
X225916500Y-186883500I-200000J0D01*
G01*
X225616500Y-186883500D01*
G75*
G02*
X225416500Y-186683500I0J200000D01*
G01*
X225416500Y-185783500D01*
G75*
G02*
X225616500Y-185583500I200000J0D01*
G01*
X225916500Y-185583500D01*
G75*
G02*
X226116500Y-185783500I0J-200000D01*
G01*
G37*
G36*
G01*
X226616500Y-185783500D02*
X226616500Y-186683500D01*
G75*
G02*
X226416500Y-186883500I-200000J0D01*
G01*
X226116500Y-186883500D01*
G75*
G02*
X225916500Y-186683500I0J200000D01*
G01*
X225916500Y-185783500D01*
G75*
G02*
X226116500Y-185583500I200000J0D01*
G01*
X226416500Y-185583500D01*
G75*
G02*
X226616500Y-185783500I0J-200000D01*
G01*
G37*
%TD*%
D12*
%TO.C,H1*%
X239797056Y-176102944D03*
X238100000Y-175400000D03*
X236402944Y-176102944D03*
X235700000Y-177800000D03*
X236402944Y-179497056D03*
X238100000Y-180200000D03*
X239797056Y-179497056D03*
X240500000Y-177800000D03*
D13*
X238100000Y-177800000D03*
%TD*%
%TO.C,H2*%
X238100000Y-201700000D03*
D12*
X240500000Y-201700000D03*
X239797056Y-203397056D03*
X238100000Y-204100000D03*
X236402944Y-203397056D03*
X235700000Y-201700000D03*
X236402944Y-200002944D03*
X238100000Y-199300000D03*
X239797056Y-200002944D03*
%TD*%
%TO.C,J4*%
G36*
G01*
X184280500Y-215931000D02*
X186955500Y-215931000D01*
G75*
G02*
X187193000Y-216168500I0J-237500D01*
G01*
X187193000Y-216643500D01*
G75*
G02*
X186955500Y-216881000I-237500J0D01*
G01*
X184280500Y-216881000D01*
G75*
G02*
X184043000Y-216643500I0J237500D01*
G01*
X184043000Y-216168500D01*
G75*
G02*
X184280500Y-215931000I237500J0D01*
G01*
G37*
G36*
G01*
X184280500Y-216731000D02*
X186955500Y-216731000D01*
G75*
G02*
X187193000Y-216968500I0J-237500D01*
G01*
X187193000Y-217443500D01*
G75*
G02*
X186955500Y-217681000I-237500J0D01*
G01*
X184280500Y-217681000D01*
G75*
G02*
X184043000Y-217443500I0J237500D01*
G01*
X184043000Y-216968500D01*
G75*
G02*
X184280500Y-216731000I237500J0D01*
G01*
G37*
G36*
G01*
X184280500Y-217531000D02*
X186955500Y-217531000D01*
G75*
G02*
X187193000Y-217768500I0J-237500D01*
G01*
X187193000Y-218243500D01*
G75*
G02*
X186955500Y-218481000I-237500J0D01*
G01*
X184280500Y-218481000D01*
G75*
G02*
X184043000Y-218243500I0J237500D01*
G01*
X184043000Y-217768500D01*
G75*
G02*
X184280500Y-217531000I237500J0D01*
G01*
G37*
G36*
G01*
X184280500Y-218331000D02*
X186955500Y-218331000D01*
G75*
G02*
X187193000Y-218568500I0J-237500D01*
G01*
X187193000Y-219043500D01*
G75*
G02*
X186955500Y-219281000I-237500J0D01*
G01*
X184280500Y-219281000D01*
G75*
G02*
X184043000Y-219043500I0J237500D01*
G01*
X184043000Y-218568500D01*
G75*
G02*
X184280500Y-218331000I237500J0D01*
G01*
G37*
G36*
G01*
X184280500Y-219131000D02*
X186955500Y-219131000D01*
G75*
G02*
X187193000Y-219368500I0J-237500D01*
G01*
X187193000Y-219843500D01*
G75*
G02*
X186955500Y-220081000I-237500J0D01*
G01*
X184280500Y-220081000D01*
G75*
G02*
X184043000Y-219843500I0J237500D01*
G01*
X184043000Y-219368500D01*
G75*
G02*
X184280500Y-219131000I237500J0D01*
G01*
G37*
G36*
G01*
X185268000Y-220956000D02*
X186768000Y-220956000D01*
G75*
G02*
X187518000Y-221706000I0J-750000D01*
G01*
X187518000Y-223706000D01*
G75*
G02*
X186768000Y-224456000I-750000J0D01*
G01*
X185268000Y-224456000D01*
G75*
G02*
X184518000Y-223706000I0J750000D01*
G01*
X184518000Y-221706000D01*
G75*
G02*
X185268000Y-220956000I750000J0D01*
G01*
G37*
G36*
G01*
X185268000Y-211556000D02*
X186768000Y-211556000D01*
G75*
G02*
X187518000Y-212306000I0J-750000D01*
G01*
X187518000Y-214306000D01*
G75*
G02*
X186768000Y-215056000I-750000J0D01*
G01*
X185268000Y-215056000D01*
G75*
G02*
X184518000Y-214306000I0J750000D01*
G01*
X184518000Y-212306000D01*
G75*
G02*
X185268000Y-211556000I750000J0D01*
G01*
G37*
D10*
X188468000Y-221006000D03*
X188468000Y-215006000D03*
%TD*%
D12*
%TO.C,H5*%
X207197056Y-179897056D03*
X207900000Y-178200000D03*
X207197056Y-176502944D03*
X205500000Y-175800000D03*
X203802944Y-176502944D03*
X203100000Y-178200000D03*
X203802944Y-179897056D03*
X205500000Y-180600000D03*
D13*
X205500000Y-178200000D03*
%TD*%
%TO.C,J3*%
G36*
G01*
X212150000Y-155250000D02*
X211250000Y-155250000D01*
G75*
G02*
X211050000Y-155050000I0J200000D01*
G01*
X211050000Y-154750000D01*
G75*
G02*
X211250000Y-154550000I200000J0D01*
G01*
X212150000Y-154550000D01*
G75*
G02*
X212350000Y-154750000I0J-200000D01*
G01*
X212350000Y-155050000D01*
G75*
G02*
X212150000Y-155250000I-200000J0D01*
G01*
G37*
G36*
G01*
X212150000Y-154750000D02*
X211250000Y-154750000D01*
G75*
G02*
X211050000Y-154550000I0J200000D01*
G01*
X211050000Y-154250000D01*
G75*
G02*
X211250000Y-154050000I200000J0D01*
G01*
X212150000Y-154050000D01*
G75*
G02*
X212350000Y-154250000I0J-200000D01*
G01*
X212350000Y-154550000D01*
G75*
G02*
X212150000Y-154750000I-200000J0D01*
G01*
G37*
G36*
G01*
X212150000Y-154250000D02*
X211250000Y-154250000D01*
G75*
G02*
X211050000Y-154050000I0J200000D01*
G01*
X211050000Y-153750000D01*
G75*
G02*
X211250000Y-153550000I200000J0D01*
G01*
X212150000Y-153550000D01*
G75*
G02*
X212350000Y-153750000I0J-200000D01*
G01*
X212350000Y-154050000D01*
G75*
G02*
X212150000Y-154250000I-200000J0D01*
G01*
G37*
G36*
G01*
X212150000Y-153750000D02*
X211250000Y-153750000D01*
G75*
G02*
X211050000Y-153550000I0J200000D01*
G01*
X211050000Y-153250000D01*
G75*
G02*
X211250000Y-153050000I200000J0D01*
G01*
X212150000Y-153050000D01*
G75*
G02*
X212350000Y-153250000I0J-200000D01*
G01*
X212350000Y-153550000D01*
G75*
G02*
X212150000Y-153750000I-200000J0D01*
G01*
G37*
G36*
G01*
X212150000Y-153250000D02*
X211250000Y-153250000D01*
G75*
G02*
X211050000Y-153050000I0J200000D01*
G01*
X211050000Y-152750000D01*
G75*
G02*
X211250000Y-152550000I200000J0D01*
G01*
X212150000Y-152550000D01*
G75*
G02*
X212350000Y-152750000I0J-200000D01*
G01*
X212350000Y-153050000D01*
G75*
G02*
X212150000Y-153250000I-200000J0D01*
G01*
G37*
G36*
G01*
X213400000Y-156100000D02*
X212400000Y-156100000D01*
G75*
G02*
X212200000Y-155900000I0J200000D01*
G01*
X212200000Y-155380000D01*
G75*
G02*
X212400000Y-155180000I200000J0D01*
G01*
X213400000Y-155180000D01*
G75*
G02*
X213600000Y-155380000I0J-200000D01*
G01*
X213600000Y-155900000D01*
G75*
G02*
X213400000Y-156100000I-200000J0D01*
G01*
G37*
G36*
G01*
X213400000Y-152620000D02*
X212400000Y-152620000D01*
G75*
G02*
X212200000Y-152420000I0J200000D01*
G01*
X212200000Y-151900000D01*
G75*
G02*
X212400000Y-151700000I200000J0D01*
G01*
X213400000Y-151700000D01*
G75*
G02*
X213600000Y-151900000I0J-200000D01*
G01*
X213600000Y-152420000D01*
G75*
G02*
X213400000Y-152620000I-200000J0D01*
G01*
G37*
%TD*%
D12*
%TO.C,H6*%
X217597056Y-224597056D03*
X218300000Y-222900000D03*
X217597056Y-221202944D03*
X215900000Y-220500000D03*
X214202944Y-221202944D03*
X213500000Y-222900000D03*
X214202944Y-224597056D03*
X215900000Y-225300000D03*
D13*
X215900000Y-222900000D03*
%TD*%
%TO.C,H8*%
X187600000Y-202700000D03*
D12*
X187600000Y-205100000D03*
X185902944Y-204397056D03*
X185200000Y-202700000D03*
X185902944Y-201002944D03*
X187600000Y-200300000D03*
X189297056Y-201002944D03*
X190000000Y-202700000D03*
X189297056Y-204397056D03*
%TD*%
D13*
%TO.C,H4*%
X184600000Y-171700000D03*
D12*
X187000000Y-171700000D03*
X186297056Y-173397056D03*
X184600000Y-174100000D03*
X182902944Y-173397056D03*
X182200000Y-171700000D03*
X182902944Y-170002944D03*
X184600000Y-169300000D03*
X186297056Y-170002944D03*
%TD*%
%TO.C,J5*%
G36*
G01*
X170486500Y-154533500D02*
X170486500Y-155533500D01*
G75*
G02*
X170286500Y-155733500I-200000J0D01*
G01*
X169766500Y-155733500D01*
G75*
G02*
X169566500Y-155533500I0J200000D01*
G01*
X169566500Y-154533500D01*
G75*
G02*
X169766500Y-154333500I200000J0D01*
G01*
X170286500Y-154333500D01*
G75*
G02*
X170486500Y-154533500I0J-200000D01*
G01*
G37*
G36*
G01*
X173966500Y-154533500D02*
X173966500Y-155533500D01*
G75*
G02*
X173766500Y-155733500I-200000J0D01*
G01*
X173246500Y-155733500D01*
G75*
G02*
X173046500Y-155533500I0J200000D01*
G01*
X173046500Y-154533500D01*
G75*
G02*
X173246500Y-154333500I200000J0D01*
G01*
X173766500Y-154333500D01*
G75*
G02*
X173966500Y-154533500I0J-200000D01*
G01*
G37*
G36*
G01*
X171116500Y-155783500D02*
X171116500Y-156683500D01*
G75*
G02*
X170916500Y-156883500I-200000J0D01*
G01*
X170616500Y-156883500D01*
G75*
G02*
X170416500Y-156683500I0J200000D01*
G01*
X170416500Y-155783500D01*
G75*
G02*
X170616500Y-155583500I200000J0D01*
G01*
X170916500Y-155583500D01*
G75*
G02*
X171116500Y-155783500I0J-200000D01*
G01*
G37*
G36*
G01*
X171616500Y-155783500D02*
X171616500Y-156683500D01*
G75*
G02*
X171416500Y-156883500I-200000J0D01*
G01*
X171116500Y-156883500D01*
G75*
G02*
X170916500Y-156683500I0J200000D01*
G01*
X170916500Y-155783500D01*
G75*
G02*
X171116500Y-155583500I200000J0D01*
G01*
X171416500Y-155583500D01*
G75*
G02*
X171616500Y-155783500I0J-200000D01*
G01*
G37*
G36*
G01*
X172116500Y-155783500D02*
X172116500Y-156683500D01*
G75*
G02*
X171916500Y-156883500I-200000J0D01*
G01*
X171616500Y-156883500D01*
G75*
G02*
X171416500Y-156683500I0J200000D01*
G01*
X171416500Y-155783500D01*
G75*
G02*
X171616500Y-155583500I200000J0D01*
G01*
X171916500Y-155583500D01*
G75*
G02*
X172116500Y-155783500I0J-200000D01*
G01*
G37*
G36*
G01*
X172616500Y-155783500D02*
X172616500Y-156683500D01*
G75*
G02*
X172416500Y-156883500I-200000J0D01*
G01*
X172116500Y-156883500D01*
G75*
G02*
X171916500Y-156683500I0J200000D01*
G01*
X171916500Y-155783500D01*
G75*
G02*
X172116500Y-155583500I200000J0D01*
G01*
X172416500Y-155583500D01*
G75*
G02*
X172616500Y-155783500I0J-200000D01*
G01*
G37*
G36*
G01*
X173116500Y-155783500D02*
X173116500Y-156683500D01*
G75*
G02*
X172916500Y-156883500I-200000J0D01*
G01*
X172616500Y-156883500D01*
G75*
G02*
X172416500Y-156683500I0J200000D01*
G01*
X172416500Y-155783500D01*
G75*
G02*
X172616500Y-155583500I200000J0D01*
G01*
X172916500Y-155583500D01*
G75*
G02*
X173116500Y-155783500I0J-200000D01*
G01*
G37*
%TD*%
D13*
%TO.C,H3*%
X184600000Y-147800000D03*
D12*
X187000000Y-147800000D03*
X186297056Y-149497056D03*
X184600000Y-150200000D03*
X182902944Y-149497056D03*
X182200000Y-147800000D03*
X182902944Y-146102944D03*
X184600000Y-145400000D03*
X186297056Y-146102944D03*
%TD*%
D13*
%TO.C,H7*%
X172600000Y-210600000D03*
D12*
X175000000Y-210600000D03*
X174297056Y-212297056D03*
X172600000Y-213000000D03*
X170902944Y-212297056D03*
X170200000Y-210600000D03*
X170902944Y-208902944D03*
X172600000Y-208200000D03*
X174297056Y-208902944D03*
%TD*%
D14*
G36*
X175851165Y-225248374D02*
G01*
X175852000Y-225250000D01*
X175852000Y-225295092D01*
X175851990Y-225295288D01*
X175838065Y-225436663D01*
X175837989Y-225437048D01*
X175798183Y-225568275D01*
X175798033Y-225568637D01*
X175733391Y-225689573D01*
X175733173Y-225689899D01*
X175646179Y-225795902D01*
X175645902Y-225796179D01*
X175539899Y-225883173D01*
X175539573Y-225883391D01*
X175418637Y-225948033D01*
X175418275Y-225948183D01*
X175287048Y-225987989D01*
X175286663Y-225988065D01*
X175145288Y-226001990D01*
X175145092Y-226002000D01*
X175100000Y-226002000D01*
X175098268Y-226001000D01*
X175098268Y-225999000D01*
X175099804Y-225998010D01*
X175245923Y-225983619D01*
X175386244Y-225941053D01*
X175515562Y-225871931D01*
X175628909Y-225778909D01*
X175721931Y-225665562D01*
X175791053Y-225536244D01*
X175833619Y-225395923D01*
X175848010Y-225249804D01*
X175849175Y-225248178D01*
X175851165Y-225248374D01*
G37*
G36*
X166451165Y-225248374D02*
G01*
X166452000Y-225250000D01*
X166452000Y-225295092D01*
X166451990Y-225295288D01*
X166438065Y-225436663D01*
X166437989Y-225437048D01*
X166398183Y-225568275D01*
X166398033Y-225568637D01*
X166333391Y-225689573D01*
X166333173Y-225689899D01*
X166246179Y-225795902D01*
X166245902Y-225796179D01*
X166139899Y-225883173D01*
X166139573Y-225883391D01*
X166018637Y-225948033D01*
X166018275Y-225948183D01*
X165887048Y-225987989D01*
X165886663Y-225988065D01*
X165745288Y-226001990D01*
X165745092Y-226002000D01*
X165700000Y-226002000D01*
X165698268Y-226001000D01*
X165698268Y-225999000D01*
X165699804Y-225998010D01*
X165845923Y-225983619D01*
X165986244Y-225941053D01*
X166115562Y-225871931D01*
X166228909Y-225778909D01*
X166321931Y-225665562D01*
X166391053Y-225536244D01*
X166433619Y-225395923D01*
X166448010Y-225249804D01*
X166449175Y-225248178D01*
X166451165Y-225248374D01*
G37*
G36*
X162951990Y-225249804D02*
G01*
X162966381Y-225395923D01*
X163008947Y-225536244D01*
X163078069Y-225665562D01*
X163171091Y-225778909D01*
X163284438Y-225871931D01*
X163413756Y-225941053D01*
X163554077Y-225983619D01*
X163700196Y-225998010D01*
X163701822Y-225999175D01*
X163701626Y-226001165D01*
X163700000Y-226002000D01*
X163654908Y-226002000D01*
X163654712Y-226001990D01*
X163513337Y-225988065D01*
X163512952Y-225987989D01*
X163381725Y-225948183D01*
X163381363Y-225948033D01*
X163260427Y-225883391D01*
X163260101Y-225883173D01*
X163154098Y-225796179D01*
X163153821Y-225795902D01*
X163066827Y-225689899D01*
X163066609Y-225689573D01*
X163001967Y-225568637D01*
X163001817Y-225568275D01*
X162962011Y-225437048D01*
X162961935Y-225436663D01*
X162948010Y-225295288D01*
X162948000Y-225295092D01*
X162948000Y-225250000D01*
X162949000Y-225248268D01*
X162951000Y-225248268D01*
X162951990Y-225249804D01*
G37*
G36*
X172351990Y-225249804D02*
G01*
X172366381Y-225395923D01*
X172408947Y-225536244D01*
X172478069Y-225665562D01*
X172571091Y-225778909D01*
X172684438Y-225871931D01*
X172813756Y-225941053D01*
X172954077Y-225983619D01*
X173100196Y-225998010D01*
X173101822Y-225999175D01*
X173101626Y-226001165D01*
X173100000Y-226002000D01*
X173054908Y-226002000D01*
X173054712Y-226001990D01*
X172913337Y-225988065D01*
X172912952Y-225987989D01*
X172781725Y-225948183D01*
X172781363Y-225948033D01*
X172660427Y-225883391D01*
X172660101Y-225883173D01*
X172554098Y-225796179D01*
X172553821Y-225795902D01*
X172466827Y-225689899D01*
X172466609Y-225689573D01*
X172401967Y-225568637D01*
X172401817Y-225568275D01*
X172362011Y-225437048D01*
X172361935Y-225436663D01*
X172348010Y-225295288D01*
X172348000Y-225295092D01*
X172348000Y-225250000D01*
X172349000Y-225248268D01*
X172351000Y-225248268D01*
X172351990Y-225249804D01*
G37*
G36*
X187519165Y-223704374D02*
G01*
X187520000Y-223706000D01*
X187520000Y-223751092D01*
X187519990Y-223751288D01*
X187506065Y-223892663D01*
X187505989Y-223893048D01*
X187466183Y-224024275D01*
X187466033Y-224024637D01*
X187401391Y-224145573D01*
X187401173Y-224145899D01*
X187314179Y-224251902D01*
X187313902Y-224252179D01*
X187207899Y-224339173D01*
X187207573Y-224339391D01*
X187086637Y-224404033D01*
X187086275Y-224404183D01*
X186955048Y-224443989D01*
X186954663Y-224444065D01*
X186813288Y-224457990D01*
X186813092Y-224458000D01*
X186768000Y-224458000D01*
X186766268Y-224457000D01*
X186766268Y-224455000D01*
X186767804Y-224454010D01*
X186913923Y-224439619D01*
X187054244Y-224397053D01*
X187183562Y-224327931D01*
X187296909Y-224234909D01*
X187389931Y-224121562D01*
X187459053Y-223992244D01*
X187501619Y-223851923D01*
X187516010Y-223705804D01*
X187517175Y-223704178D01*
X187519165Y-223704374D01*
G37*
G36*
X184519990Y-223705804D02*
G01*
X184534381Y-223851923D01*
X184576947Y-223992244D01*
X184646069Y-224121562D01*
X184739091Y-224234909D01*
X184852438Y-224327931D01*
X184981756Y-224397053D01*
X185122077Y-224439619D01*
X185268196Y-224454010D01*
X185269822Y-224455175D01*
X185269626Y-224457165D01*
X185268000Y-224458000D01*
X185222908Y-224458000D01*
X185222712Y-224457990D01*
X185081337Y-224444065D01*
X185080952Y-224443989D01*
X184949725Y-224404183D01*
X184949363Y-224404033D01*
X184828427Y-224339391D01*
X184828101Y-224339173D01*
X184722098Y-224252179D01*
X184721821Y-224251902D01*
X184634827Y-224145899D01*
X184634609Y-224145573D01*
X184569967Y-224024637D01*
X184569817Y-224024275D01*
X184530011Y-223893048D01*
X184529935Y-223892663D01*
X184516010Y-223751288D01*
X184516000Y-223751092D01*
X184516000Y-223706000D01*
X184517000Y-223704268D01*
X184519000Y-223704268D01*
X184519990Y-223705804D01*
G37*
G36*
X173101732Y-222999000D02*
G01*
X173101732Y-223001000D01*
X173100196Y-223001990D01*
X172954077Y-223016381D01*
X172813756Y-223058947D01*
X172684438Y-223128069D01*
X172571091Y-223221091D01*
X172478069Y-223334438D01*
X172408947Y-223463756D01*
X172366381Y-223604077D01*
X172351990Y-223750196D01*
X172350825Y-223751822D01*
X172348835Y-223751626D01*
X172348000Y-223750000D01*
X172348000Y-223704908D01*
X172348010Y-223704712D01*
X172361935Y-223563337D01*
X172362011Y-223562952D01*
X172401817Y-223431725D01*
X172401967Y-223431363D01*
X172466609Y-223310427D01*
X172466827Y-223310101D01*
X172553821Y-223204098D01*
X172554098Y-223203821D01*
X172660101Y-223116827D01*
X172660427Y-223116609D01*
X172781363Y-223051967D01*
X172781725Y-223051817D01*
X172912952Y-223012011D01*
X172913337Y-223011935D01*
X173054712Y-222998010D01*
X173054908Y-222998000D01*
X173100000Y-222998000D01*
X173101732Y-222999000D01*
G37*
G36*
X163701732Y-222999000D02*
G01*
X163701732Y-223001000D01*
X163700196Y-223001990D01*
X163554077Y-223016381D01*
X163413756Y-223058947D01*
X163284438Y-223128069D01*
X163171091Y-223221091D01*
X163078069Y-223334438D01*
X163008947Y-223463756D01*
X162966381Y-223604077D01*
X162951990Y-223750196D01*
X162950825Y-223751822D01*
X162948835Y-223751626D01*
X162948000Y-223750000D01*
X162948000Y-223704908D01*
X162948010Y-223704712D01*
X162961935Y-223563337D01*
X162962011Y-223562952D01*
X163001817Y-223431725D01*
X163001967Y-223431363D01*
X163066609Y-223310427D01*
X163066827Y-223310101D01*
X163153821Y-223204098D01*
X163154098Y-223203821D01*
X163260101Y-223116827D01*
X163260427Y-223116609D01*
X163381363Y-223051967D01*
X163381725Y-223051817D01*
X163512952Y-223012011D01*
X163513337Y-223011935D01*
X163654712Y-222998010D01*
X163654908Y-222998000D01*
X163700000Y-222998000D01*
X163701732Y-222999000D01*
G37*
G36*
X175145288Y-222998010D02*
G01*
X175286663Y-223011935D01*
X175287048Y-223012011D01*
X175418275Y-223051817D01*
X175418637Y-223051967D01*
X175539573Y-223116609D01*
X175539899Y-223116827D01*
X175645902Y-223203821D01*
X175646179Y-223204098D01*
X175733173Y-223310101D01*
X175733391Y-223310427D01*
X175798033Y-223431363D01*
X175798183Y-223431725D01*
X175837989Y-223562952D01*
X175838065Y-223563337D01*
X175851990Y-223704712D01*
X175852000Y-223704908D01*
X175852000Y-223750000D01*
X175851000Y-223751732D01*
X175849000Y-223751732D01*
X175848010Y-223750196D01*
X175833619Y-223604077D01*
X175791053Y-223463756D01*
X175721931Y-223334438D01*
X175628909Y-223221091D01*
X175515562Y-223128069D01*
X175386244Y-223058947D01*
X175245923Y-223016381D01*
X175099804Y-223001990D01*
X175098178Y-223000825D01*
X175098374Y-222998835D01*
X175100000Y-222998000D01*
X175145092Y-222998000D01*
X175145288Y-222998010D01*
G37*
G36*
X165745288Y-222998010D02*
G01*
X165886663Y-223011935D01*
X165887048Y-223012011D01*
X166018275Y-223051817D01*
X166018637Y-223051967D01*
X166139573Y-223116609D01*
X166139899Y-223116827D01*
X166245902Y-223203821D01*
X166246179Y-223204098D01*
X166333173Y-223310101D01*
X166333391Y-223310427D01*
X166398033Y-223431363D01*
X166398183Y-223431725D01*
X166437989Y-223562952D01*
X166438065Y-223563337D01*
X166451990Y-223704712D01*
X166452000Y-223704908D01*
X166452000Y-223750000D01*
X166451000Y-223751732D01*
X166449000Y-223751732D01*
X166448010Y-223750196D01*
X166433619Y-223604077D01*
X166391053Y-223463756D01*
X166321931Y-223334438D01*
X166228909Y-223221091D01*
X166115562Y-223128069D01*
X165986244Y-223058947D01*
X165845923Y-223016381D01*
X165699804Y-223001990D01*
X165698178Y-223000825D01*
X165698374Y-222998835D01*
X165700000Y-222998000D01*
X165745092Y-222998000D01*
X165745288Y-222998010D01*
G37*
G36*
X185269732Y-220955000D02*
G01*
X185269732Y-220957000D01*
X185268196Y-220957990D01*
X185122077Y-220972381D01*
X184981756Y-221014947D01*
X184852438Y-221084069D01*
X184739091Y-221177091D01*
X184646069Y-221290438D01*
X184576947Y-221419756D01*
X184534381Y-221560077D01*
X184519990Y-221706196D01*
X184518825Y-221707822D01*
X184516835Y-221707626D01*
X184516000Y-221706000D01*
X184516000Y-221660908D01*
X184516010Y-221660712D01*
X184529935Y-221519337D01*
X184530011Y-221518952D01*
X184569817Y-221387725D01*
X184569967Y-221387363D01*
X184634609Y-221266427D01*
X184634827Y-221266101D01*
X184721821Y-221160098D01*
X184722098Y-221159821D01*
X184828101Y-221072827D01*
X184828427Y-221072609D01*
X184949363Y-221007967D01*
X184949725Y-221007817D01*
X185080952Y-220968011D01*
X185081337Y-220967935D01*
X185222712Y-220954010D01*
X185222908Y-220954000D01*
X185268000Y-220954000D01*
X185269732Y-220955000D01*
G37*
G36*
X186813288Y-220954010D02*
G01*
X186954663Y-220967935D01*
X186955048Y-220968011D01*
X187086275Y-221007817D01*
X187086637Y-221007967D01*
X187207573Y-221072609D01*
X187207899Y-221072827D01*
X187313902Y-221159821D01*
X187314179Y-221160098D01*
X187401173Y-221266101D01*
X187401391Y-221266427D01*
X187466033Y-221387363D01*
X187466183Y-221387725D01*
X187505989Y-221518952D01*
X187506065Y-221519337D01*
X187519990Y-221660712D01*
X187520000Y-221660908D01*
X187520000Y-221706000D01*
X187519000Y-221707732D01*
X187517000Y-221707732D01*
X187516010Y-221706196D01*
X187501619Y-221560077D01*
X187459053Y-221419756D01*
X187389931Y-221290438D01*
X187296909Y-221177091D01*
X187183562Y-221084069D01*
X187054244Y-221014947D01*
X186913923Y-220972381D01*
X186767804Y-220957990D01*
X186766178Y-220956825D01*
X186766374Y-220954835D01*
X186768000Y-220954000D01*
X186813092Y-220954000D01*
X186813288Y-220954010D01*
G37*
G36*
X184519990Y-214305804D02*
G01*
X184534381Y-214451923D01*
X184576947Y-214592244D01*
X184646069Y-214721562D01*
X184739091Y-214834909D01*
X184852438Y-214927931D01*
X184981756Y-214997053D01*
X185122077Y-215039619D01*
X185268196Y-215054010D01*
X185269822Y-215055175D01*
X185269626Y-215057165D01*
X185268000Y-215058000D01*
X185222908Y-215058000D01*
X185222712Y-215057990D01*
X185081337Y-215044065D01*
X185080952Y-215043989D01*
X184949725Y-215004183D01*
X184949363Y-215004033D01*
X184828427Y-214939391D01*
X184828101Y-214939173D01*
X184722098Y-214852179D01*
X184721821Y-214851902D01*
X184634827Y-214745899D01*
X184634609Y-214745573D01*
X184569967Y-214624637D01*
X184569817Y-214624275D01*
X184530011Y-214493048D01*
X184529935Y-214492663D01*
X184516010Y-214351288D01*
X184516000Y-214351092D01*
X184516000Y-214306000D01*
X184517000Y-214304268D01*
X184519000Y-214304268D01*
X184519990Y-214305804D01*
G37*
G36*
X187519165Y-214304374D02*
G01*
X187520000Y-214306000D01*
X187520000Y-214351092D01*
X187519990Y-214351288D01*
X187506065Y-214492663D01*
X187505989Y-214493048D01*
X187466183Y-214624275D01*
X187466033Y-214624637D01*
X187401391Y-214745573D01*
X187401173Y-214745899D01*
X187314179Y-214851902D01*
X187313902Y-214852179D01*
X187207899Y-214939173D01*
X187207573Y-214939391D01*
X187086637Y-215004033D01*
X187086275Y-215004183D01*
X186955048Y-215043989D01*
X186954663Y-215044065D01*
X186813288Y-215057990D01*
X186813092Y-215058000D01*
X186768000Y-215058000D01*
X186766268Y-215057000D01*
X186766268Y-215055000D01*
X186767804Y-215054010D01*
X186913923Y-215039619D01*
X187054244Y-214997053D01*
X187183562Y-214927931D01*
X187296909Y-214834909D01*
X187389931Y-214721562D01*
X187459053Y-214592244D01*
X187501619Y-214451923D01*
X187516010Y-214305804D01*
X187517175Y-214304178D01*
X187519165Y-214304374D01*
G37*
G36*
X185269732Y-211555000D02*
G01*
X185269732Y-211557000D01*
X185268196Y-211557990D01*
X185122077Y-211572381D01*
X184981756Y-211614947D01*
X184852438Y-211684069D01*
X184739091Y-211777091D01*
X184646069Y-211890438D01*
X184576947Y-212019756D01*
X184534381Y-212160077D01*
X184519990Y-212306196D01*
X184518825Y-212307822D01*
X184516835Y-212307626D01*
X184516000Y-212306000D01*
X184516000Y-212260908D01*
X184516010Y-212260712D01*
X184529935Y-212119337D01*
X184530011Y-212118952D01*
X184569817Y-211987725D01*
X184569967Y-211987363D01*
X184634609Y-211866427D01*
X184634827Y-211866101D01*
X184721821Y-211760098D01*
X184722098Y-211759821D01*
X184828101Y-211672827D01*
X184828427Y-211672609D01*
X184949363Y-211607967D01*
X184949725Y-211607817D01*
X185080952Y-211568011D01*
X185081337Y-211567935D01*
X185222712Y-211554010D01*
X185222908Y-211554000D01*
X185268000Y-211554000D01*
X185269732Y-211555000D01*
G37*
G36*
X186813288Y-211554010D02*
G01*
X186954663Y-211567935D01*
X186955048Y-211568011D01*
X187086275Y-211607817D01*
X187086637Y-211607967D01*
X187207573Y-211672609D01*
X187207899Y-211672827D01*
X187313902Y-211759821D01*
X187314179Y-211760098D01*
X187401173Y-211866101D01*
X187401391Y-211866427D01*
X187466033Y-211987363D01*
X187466183Y-211987725D01*
X187505989Y-212118952D01*
X187506065Y-212119337D01*
X187519990Y-212260712D01*
X187520000Y-212260908D01*
X187520000Y-212306000D01*
X187519000Y-212307732D01*
X187517000Y-212307732D01*
X187516010Y-212306196D01*
X187501619Y-212160077D01*
X187459053Y-212019756D01*
X187389931Y-211890438D01*
X187296909Y-211777091D01*
X187183562Y-211684069D01*
X187054244Y-211614947D01*
X186913923Y-211572381D01*
X186767804Y-211557990D01*
X186766178Y-211556825D01*
X186766374Y-211554835D01*
X186768000Y-211554000D01*
X186813092Y-211554000D01*
X186813288Y-211554010D01*
G37*
M02*
