  0
SECTION
  2
HEADER
  9
$ANGBASE
  50
0.0
  9
$ANGDIR
  70
1
  9
$MEASUREMENT
  70
0
  0
ENDSEC
  0
SECTION
  2
TABLES
  0
TABLE
  2
LTYPE
  70
4
  0
LTYPE
  5
40F
  2
CONTINUOUS
  70
0
  3
Solid line
  72
65
  73
0
  40
0.0
  0
LTYPE
  5
410
  2
DASHDOT
 70
0
  3
Dash Dot ____ _ ____ _
 72
65
 73
4
 40
2.0
 49
1.25
 49
-0.25
 49
0.25
 49
-0.25
  0
LTYPE
  5
411
  2
DASHED
 70
0
  3
Dashed __ __ __ __ __
 72
65
 73
2
 40
0.75
 49
0.5
 49
-0.25
  0
LTYPE
  5
43B
  2
DOTTED
 70
0
  3
Dotted .  .  .  .
 72
65
 73
2
 40
0.2
 49
0.0
 49
-0.2
  0
ENDTAB
  0
TABLE
  2
STYLE
  70
4
  0
STYLE
  2
KICAD
  70
0
  40
0
  41
1
  42
1
  50
0
  71
0
  3
isocp.shx
  0
STYLE
  2
KICADB
  70
0
  40
0
  41
1
  42
1
  50
0
  71
0
  3
isocp.shx
  0
STYLE
  2
KICADI
  70
0
  40
0
  41
1
  42
1
  50
15
  71
0
  3
isocp.shx
  0
STYLE
  2
KICADBI
  70
0
  40
0
  41
1
  42
1
  50
15
  71
0
  3
isocp.shx
  0
ENDTAB
  0
TABLE
  2
LAYER
  70
1
  0
LAYER
  2
BLACK
  70
0
  62
7
  6
CONTINUOUS
  0
ENDTAB
  0
ENDSEC
  0
SECTION
  2
ENTITIES
0
LINE
8
BLACK
6
CONTINUOUS
10
6.42126
20
-8.98425
11
6.25197
21
-8.7185
0
LINE
8
BLACK
6
CONTINUOUS
10
7.07087
20
-8.44685
11
7.07087
21
-8.94488
0
LINE
8
BLACK
6
CONTINUOUS
10
7.16929
20
-7.84646
11
7.16929
21
-8.23031
0
ARC
8
BLACK
10
7.12008
20
-8.44685
40
0.0492126
50
-0
51
180
0
LINE
8
BLACK
6
CONTINUOUS
10
7.07087
20
-8.23228
11
7.07087
21
-8.23031
0
ARC
8
BLACK
10
7.12008
20
-8.23031
40
0.0492126
50
180
51
360
0
LINE
8
BLACK
6
CONTINUOUS
10
8.31102
20
-7.42913
11
8.31102
21
-7.42717
0
LINE
8
BLACK
6
CONTINUOUS
10
8.31102
20
-6.28346
11
8.31102
21
-7.42913
0
LINE
8
BLACK
6
CONTINUOUS
10
8.40945
20
-7.6437
11
8.40945
21
-8.1378
0
LINE
8
BLACK
6
CONTINUOUS
10
8.40945
20
-7.06693
11
8.40949
21
-7.42717
0
ARC
8
BLACK
10
8.36024
20
-7.6437
40
0.0492126
50
-0
51
180
0
ARC
8
BLACK
10
8.36024
20
-7.42717
40
0.049252
50
-177.709
51
4.26385e-08
0
ARC
8
BLACK
10
7.0315
20
-8.94488
40
0.0393701
50
-90
51
-0
0
LINE
8
BLACK
6
CONTINUOUS
10
6.25197
20
-8.7185
11
6.25197
21
-7.94488
0
LINE
8
BLACK
6
CONTINUOUS
10
6.25197
20
-7.94488
11
6.40945
21
-7.7874
0
ARC
8
BLACK
10
8.44882
20
-7.06693
40
0.0393701
50
90
51
180
0
ARC
8
BLACK
10
9.5315
20
-8.1378
40
0.0393701
50
-90
51
-0
0
LINE
8
BLACK
6
CONTINUOUS
10
9.5315
20
-8.17717
11
8.44882
21
-8.17717
0
LINE
8
BLACK
6
CONTINUOUS
10
9.57087
20
-6.87795
11
9.57087
21
-8.1378
0
LINE
8
BLACK
6
CONTINUOUS
10
9.14567
20
-6.83858
11
9.5315
21
-6.83858
0
LINE
8
BLACK
6
CONTINUOUS
10
9.1063
20
-6.98819
11
9.1063
21
-6.87795
0
ARC
8
BLACK
10
9.5315
20
-6.87795
40
0.0393701
50
-0
51
90
0
LINE
8
BLACK
6
CONTINUOUS
10
8.44882
20
-7.02756
11
9.06693
21
-7.02756
0
ARC
8
BLACK
10
9.06693
20
-6.98819
40
0.0393701
50
-90
51
-0
0
ARC
8
BLACK
10
8.44882
20
-8.1378
40
0.0393701
50
180
51
270
0
ARC
8
BLACK
10
9.14567
20
-6.87795
40
0.0393701
50
90
51
180
0
LINE
8
BLACK
6
CONTINUOUS
10
8.6811
20
-8.6378
11
8.31102
21
-8.26772
0
ARC
8
BLACK
10
7.75984
20
-5.92126
40
0.0393701
50
90
51
180
0
ARC
8
BLACK
10
8.50787
20
-6.20472
40
0.0393701
50
-90
51
-0
0
ARC
8
BLACK
10
8.50787
20
-5.92126
40
0.0393701
50
-0
51
90
0
LINE
8
BLACK
6
CONTINUOUS
10
8.31102
20
-8.26772
11
8.31102
21
-8.1811
0
LINE
8
BLACK
6
CONTINUOUS
10
8.31102
20
-7.6437
11
8.31102
21
-8.1811
0
LINE
8
BLACK
6
CONTINUOUS
10
8.50787
20
-6.24409
11
8.35039
21
-6.24409
0
LINE
8
BLACK
6
CONTINUOUS
10
8.54724
20
-5.92126
11
8.54724
21
-6.20472
0
ARC
8
BLACK
10
8.64173
20
-8.94488
40
0.0393701
50
-90
51
-0
0
LINE
8
BLACK
6
CONTINUOUS
10
8.6811
20
-8.94488
11
8.6811
21
-8.6378
0
LINE
8
BLACK
6
CONTINUOUS
10
7.87795
20
-5.88189
11
7.75984
21
-5.88189
0
LINE
8
BLACK
6
CONTINUOUS
10
8.32677
20
-8.98425
11
8.64173
21
-8.98425
0
LINE
8
BLACK
6
CONTINUOUS
10
8.50787
20
-5.88189
11
7.87795
21
-5.88189
0
ARC
8
BLACK
10
7.20866
20
-7.84646
40
0.0393701
50
90
51
180
0
ARC
8
BLACK
10
7.6811
20
-7.76772
40
0.0393701
50
-90
51
-0
0
LINE
8
BLACK
6
CONTINUOUS
10
7.20866
20
-7.80709
11
7.6811
21
-7.80709
0
LINE
8
BLACK
6
CONTINUOUS
10
7.72047
20
-7.76772
11
7.72047
21
-5.92126
0
LINE
8
BLACK
6
CONTINUOUS
10
7.35039
20
-8.98425
11
7.16929
21
-8.80315
0
LINE
8
BLACK
6
CONTINUOUS
10
7.16929
20
-8.80315
11
7.16929
21
-8.44685
0
LINE
8
BLACK
6
CONTINUOUS
10
8.32677
20
-8.98425
11
7.35039
21
-8.98425
0
ARC
8
BLACK
10
8.35039
20
-6.28346
40
0.0393701
50
90
51
180
0
ARC
8
BLACK
10
7.4252
20
-5.69685
40
0.0393701
50
-0
51
90
0
LINE
8
BLACK
6
CONTINUOUS
10
6.44882
20
-5.84646
11
6.96063
21
-5.84646
0
LINE
8
BLACK
6
CONTINUOUS
10
7.46457
20
-5.69685
11
7.46457
21
-6.90157
0
LINE
8
BLACK
6
CONTINUOUS
10
7
20
-5.80709
11
7
21
-5.69685
0
LINE
8
BLACK
6
CONTINUOUS
10
6.40945
20
-6.95669
11
6.40945
21
-5.88583
0
ARC
8
BLACK
10
6.44882
20
-5.88583
40
0.0393701
50
90
51
180
0
ARC
8
BLACK
10
7.03937
20
-5.69685
40
0.0393701
50
90
51
180
0
ARC
8
BLACK
10
6.96063
20
-5.80709
40
0.0393701
50
-90
51
-0
0
LINE
8
BLACK
6
CONTINUOUS
10
7.0315
20
-8.98425
11
6.42126
21
-8.98425
0
LINE
8
BLACK
6
CONTINUOUS
10
7.03937
20
-5.65748
11
7.4252
21
-5.65748
0
LINE
8
BLACK
6
CONTINUOUS
10
7.07087
20
-7.29528
11
7.46457
21
-6.90157
0
LINE
8
BLACK
6
CONTINUOUS
10
6.40945
20
-7.7874
11
6.40945
21
-6.95669
0
LINE
8
BLACK
6
CONTINUOUS
10
7.07087
20
-8.23228
11
7.07087
21
-7.29528
0
LINE
8
BLACK
6
CONTINUOUS
10
8.6122
20
-7.91535
11
8.64764
21
-7.95079
0
LINE
8
BLACK
6
CONTINUOUS
10
8.64764
20
-7.91535
11
8.6122
21
-7.95079
0
LINE
8
BLACK
6
CONTINUOUS
10
8.78543
20
-7.91535
11
8.82087
21
-7.95079
0
LINE
8
BLACK
6
CONTINUOUS
10
8.82087
20
-7.91535
11
8.78543
21
-7.95079
0
CIRCLE
8
BLACK
10
6.55118
20
-8.74213
40
0.019685
0
CIRCLE
8
BLACK
10
6.7874
20
-8.74213
40
0.019685
0
CIRCLE
8
BLACK
10
7.42
20
-8.4648
40
0.019685
0
CIRCLE
8
BLACK
10
7.42
20
-8.70102
40
0.019685
0
LINE
8
BLACK
6
CONTINUOUS
10
6.36375
20
-9.16859
11
6.36375
21
-9.05048
0
LINE
8
BLACK
6
CONTINUOUS
10
6.36375
20
-9.05048
11
6.39187
21
-9.05048
0
LINE
8
BLACK
6
CONTINUOUS
10
6.39187
20
-9.05048
11
6.40875
21
-9.0561
0
LINE
8
BLACK
6
CONTINUOUS
10
6.40875
20
-9.0561
11
6.41999
21
-9.06735
0
LINE
8
BLACK
6
CONTINUOUS
10
6.41999
20
-9.06735
11
6.42562
21
-9.0786
0
LINE
8
BLACK
6
CONTINUOUS
10
6.42562
20
-9.0786
11
6.43124
21
-9.1011
0
LINE
8
BLACK
6
CONTINUOUS
10
6.43124
20
-9.1011
11
6.43124
21
-9.11797
0
LINE
8
BLACK
6
CONTINUOUS
10
6.43124
20
-9.11797
11
6.42562
21
-9.14047
0
LINE
8
BLACK
6
CONTINUOUS
10
6.42562
20
-9.14047
11
6.41999
21
-9.15172
0
LINE
8
BLACK
6
CONTINUOUS
10
6.41999
20
-9.15172
11
6.40875
21
-9.16296
0
LINE
8
BLACK
6
CONTINUOUS
10
6.40875
20
-9.16296
11
6.39187
21
-9.16859
0
LINE
8
BLACK
6
CONTINUOUS
10
6.39187
20
-9.16859
11
6.36375
21
-9.16859
0
LINE
8
BLACK
6
CONTINUOUS
10
6.48186
20
-9.16859
11
6.48186
21
-9.08985
0
LINE
8
BLACK
6
CONTINUOUS
10
6.48186
20
-9.11235
11
6.48749
21
-9.1011
0
LINE
8
BLACK
6
CONTINUOUS
10
6.48749
20
-9.1011
11
6.49311
21
-9.09547
0
LINE
8
BLACK
6
CONTINUOUS
10
6.49311
20
-9.09547
11
6.50436
21
-9.08985
0
LINE
8
BLACK
6
CONTINUOUS
10
6.50436
20
-9.08985
11
6.51561
21
-9.08985
0
LINE
8
BLACK
6
CONTINUOUS
10
6.55498
20
-9.16859
11
6.55498
21
-9.08985
0
LINE
8
BLACK
6
CONTINUOUS
10
6.55498
20
-9.05048
11
6.54935
21
-9.0561
0
LINE
8
BLACK
6
CONTINUOUS
10
6.54935
20
-9.0561
11
6.55498
21
-9.06173
0
LINE
8
BLACK
6
CONTINUOUS
10
6.55498
20
-9.06173
11
6.5606
21
-9.0561
0
LINE
8
BLACK
6
CONTINUOUS
10
6.5606
20
-9.0561
11
6.55498
21
-9.05048
0
LINE
8
BLACK
6
CONTINUOUS
10
6.55498
20
-9.05048
11
6.55498
21
-9.06173
0
LINE
8
BLACK
6
CONTINUOUS
10
6.62809
20
-9.16859
11
6.61684
21
-9.16296
0
LINE
8
BLACK
6
CONTINUOUS
10
6.61684
20
-9.16296
11
6.61122
21
-9.15172
0
LINE
8
BLACK
6
CONTINUOUS
10
6.61122
20
-9.15172
11
6.61122
21
-9.05048
0
LINE
8
BLACK
6
CONTINUOUS
10
6.68996
20
-9.16859
11
6.67871
21
-9.16296
0
LINE
8
BLACK
6
CONTINUOUS
10
6.67871
20
-9.16296
11
6.67309
21
-9.15172
0
LINE
8
BLACK
6
CONTINUOUS
10
6.67309
20
-9.15172
11
6.67309
21
-9.05048
0
LINE
8
BLACK
6
CONTINUOUS
10
6.82494
20
-9.16859
11
6.82494
21
-9.05048
0
LINE
8
BLACK
6
CONTINUOUS
10
6.82494
20
-9.05048
11
6.86431
21
-9.13484
0
LINE
8
BLACK
6
CONTINUOUS
10
6.86431
20
-9.13484
11
6.90368
21
-9.05048
0
LINE
8
BLACK
6
CONTINUOUS
10
6.90368
20
-9.05048
11
6.90368
21
-9.16859
0
LINE
8
BLACK
6
CONTINUOUS
10
7.01055
20
-9.16859
11
7.01055
21
-9.10672
0
LINE
8
BLACK
6
CONTINUOUS
10
7.01055
20
-9.10672
11
7.00492
21
-9.09547
0
LINE
8
BLACK
6
CONTINUOUS
10
7.00492
20
-9.09547
11
6.99367
21
-9.08985
0
LINE
8
BLACK
6
CONTINUOUS
10
6.99367
20
-9.08985
11
6.97118
21
-9.08985
0
LINE
8
BLACK
6
CONTINUOUS
10
6.97118
20
-9.08985
11
6.95993
21
-9.09547
0
LINE
8
BLACK
6
CONTINUOUS
10
7.01055
20
-9.16296
11
6.9993
21
-9.16859
0
LINE
8
BLACK
6
CONTINUOUS
10
6.9993
20
-9.16859
11
6.97118
21
-9.16859
0
LINE
8
BLACK
6
CONTINUOUS
10
6.97118
20
-9.16859
11
6.95993
21
-9.16296
0
LINE
8
BLACK
6
CONTINUOUS
10
6.95993
20
-9.16296
11
6.9543
21
-9.15172
0
LINE
8
BLACK
6
CONTINUOUS
10
6.9543
20
-9.15172
11
6.9543
21
-9.14047
0
LINE
8
BLACK
6
CONTINUOUS
10
6.9543
20
-9.14047
11
6.95993
21
-9.12922
0
LINE
8
BLACK
6
CONTINUOUS
10
6.95993
20
-9.12922
11
6.97118
21
-9.12359
0
LINE
8
BLACK
6
CONTINUOUS
10
6.97118
20
-9.12359
11
6.9993
21
-9.12359
0
LINE
8
BLACK
6
CONTINUOUS
10
6.9993
20
-9.12359
11
7.01055
21
-9.11797
0
LINE
8
BLACK
6
CONTINUOUS
10
7.06679
20
-9.08985
11
7.06679
21
-9.20796
0
LINE
8
BLACK
6
CONTINUOUS
10
7.06679
20
-9.09547
11
7.07804
21
-9.08985
0
LINE
8
BLACK
6
CONTINUOUS
10
7.07804
20
-9.08985
11
7.10053
21
-9.08985
0
LINE
8
BLACK
6
CONTINUOUS
10
7.10053
20
-9.08985
11
7.11178
21
-9.09547
0
LINE
8
BLACK
6
CONTINUOUS
10
7.11178
20
-9.09547
11
7.11741
21
-9.1011
0
LINE
8
BLACK
6
CONTINUOUS
10
7.11741
20
-9.1011
11
7.12303
21
-9.11235
0
LINE
8
BLACK
6
CONTINUOUS
10
7.12303
20
-9.11235
11
7.12303
21
-9.14609
0
LINE
8
BLACK
6
CONTINUOUS
10
7.12303
20
-9.14609
11
7.11741
21
-9.15734
0
LINE
8
BLACK
6
CONTINUOUS
10
7.11741
20
-9.15734
11
7.11178
21
-9.16296
0
LINE
8
BLACK
6
CONTINUOUS
10
7.11178
20
-9.16296
11
7.10053
21
-9.16859
0
LINE
8
BLACK
6
CONTINUOUS
10
7.10053
20
-9.16859
11
7.07804
21
-9.16859
0
LINE
8
BLACK
6
CONTINUOUS
10
7.07804
20
-9.16859
11
7.06679
21
-9.16296
0
LINE
8
BLACK
6
CONTINUOUS
10
7.17365
20
-9.15734
11
7.17927
21
-9.16296
0
LINE
8
BLACK
6
CONTINUOUS
10
7.17927
20
-9.16296
11
7.17365
21
-9.16859
0
LINE
8
BLACK
6
CONTINUOUS
10
7.17365
20
-9.16859
11
7.16803
21
-9.16296
0
LINE
8
BLACK
6
CONTINUOUS
10
7.16803
20
-9.16296
11
7.17365
21
-9.15734
0
LINE
8
BLACK
6
CONTINUOUS
10
7.17365
20
-9.15734
11
7.17365
21
-9.16859
0
LINE
8
BLACK
6
CONTINUOUS
10
7.17365
20
-9.09547
11
7.17927
21
-9.1011
0
LINE
8
BLACK
6
CONTINUOUS
10
7.17927
20
-9.1011
11
7.17365
21
-9.10672
0
LINE
8
BLACK
6
CONTINUOUS
10
7.17365
20
-9.10672
11
7.16803
21
-9.1011
0
LINE
8
BLACK
6
CONTINUOUS
10
7.16803
20
-9.1011
11
7.17365
21
-9.09547
0
LINE
8
BLACK
6
CONTINUOUS
10
7.17365
20
-9.09547
11
7.17365
21
-9.10672
0
LINE
8
BLACK
6
CONTINUOUS
10
6.21555
20
-9.34547
11
6.25098
21
-9.38091
0
LINE
8
BLACK
6
CONTINUOUS
10
6.25098
20
-9.34547
11
6.21555
21
-9.38091
0
LINE
8
BLACK
6
CONTINUOUS
10
6.38625
20
-9.29851
11
6.3975
21
-9.29851
0
LINE
8
BLACK
6
CONTINUOUS
10
6.3975
20
-9.29851
11
6.40875
21
-9.30413
0
LINE
8
BLACK
6
CONTINUOUS
10
6.40875
20
-9.30413
11
6.41437
21
-9.30976
0
LINE
8
BLACK
6
CONTINUOUS
10
6.41437
20
-9.30976
11
6.41999
21
-9.32101
0
LINE
8
BLACK
6
CONTINUOUS
10
6.41999
20
-9.32101
11
6.42562
21
-9.3435
0
LINE
8
BLACK
6
CONTINUOUS
10
6.42562
20
-9.3435
11
6.42562
21
-9.37163
0
LINE
8
BLACK
6
CONTINUOUS
10
6.42562
20
-9.37163
11
6.41999
21
-9.39412
0
LINE
8
BLACK
6
CONTINUOUS
10
6.41999
20
-9.39412
11
6.41437
21
-9.40537
0
LINE
8
BLACK
6
CONTINUOUS
10
6.41437
20
-9.40537
11
6.40875
21
-9.411
0
LINE
8
BLACK
6
CONTINUOUS
10
6.40875
20
-9.411
11
6.3975
21
-9.41662
0
LINE
8
BLACK
6
CONTINUOUS
10
6.3975
20
-9.41662
11
6.38625
21
-9.41662
0
LINE
8
BLACK
6
CONTINUOUS
10
6.38625
20
-9.41662
11
6.375
21
-9.411
0
LINE
8
BLACK
6
CONTINUOUS
10
6.375
20
-9.411
11
6.36938
21
-9.40537
0
LINE
8
BLACK
6
CONTINUOUS
10
6.36938
20
-9.40537
11
6.36375
21
-9.39412
0
LINE
8
BLACK
6
CONTINUOUS
10
6.36375
20
-9.39412
11
6.35813
21
-9.37163
0
LINE
8
BLACK
6
CONTINUOUS
10
6.35813
20
-9.37163
11
6.35813
21
-9.3435
0
LINE
8
BLACK
6
CONTINUOUS
10
6.35813
20
-9.3435
11
6.36375
21
-9.32101
0
LINE
8
BLACK
6
CONTINUOUS
10
6.36375
20
-9.32101
11
6.36938
21
-9.30976
0
LINE
8
BLACK
6
CONTINUOUS
10
6.36938
20
-9.30976
11
6.375
21
-9.30413
0
LINE
8
BLACK
6
CONTINUOUS
10
6.375
20
-9.30413
11
6.38625
21
-9.29851
0
LINE
8
BLACK
6
CONTINUOUS
10
6.47624
20
-9.40537
11
6.48186
21
-9.411
0
LINE
8
BLACK
6
CONTINUOUS
10
6.48186
20
-9.411
11
6.47624
21
-9.41662
0
LINE
8
BLACK
6
CONTINUOUS
10
6.47624
20
-9.41662
11
6.47061
21
-9.411
0
LINE
8
BLACK
6
CONTINUOUS
10
6.47061
20
-9.411
11
6.47624
21
-9.40537
0
LINE
8
BLACK
6
CONTINUOUS
10
6.47624
20
-9.40537
11
6.47624
21
-9.41662
0
LINE
8
BLACK
6
CONTINUOUS
10
6.5381
20
-9.41662
11
6.5606
21
-9.41662
0
LINE
8
BLACK
6
CONTINUOUS
10
6.5606
20
-9.41662
11
6.57185
21
-9.411
0
LINE
8
BLACK
6
CONTINUOUS
10
6.57185
20
-9.411
11
6.57747
21
-9.40537
0
LINE
8
BLACK
6
CONTINUOUS
10
6.57747
20
-9.40537
11
6.58872
21
-9.3885
0
LINE
8
BLACK
6
CONTINUOUS
10
6.58872
20
-9.3885
11
6.59435
21
-9.366
0
LINE
8
BLACK
6
CONTINUOUS
10
6.59435
20
-9.366
11
6.59435
21
-9.32101
0
LINE
8
BLACK
6
CONTINUOUS
10
6.59435
20
-9.32101
11
6.58872
21
-9.30976
0
LINE
8
BLACK
6
CONTINUOUS
10
6.58872
20
-9.30976
11
6.5831
21
-9.30413
0
LINE
8
BLACK
6
CONTINUOUS
10
6.5831
20
-9.30413
11
6.57185
21
-9.29851
0
LINE
8
BLACK
6
CONTINUOUS
10
6.57185
20
-9.29851
11
6.54935
21
-9.29851
0
LINE
8
BLACK
6
CONTINUOUS
10
6.54935
20
-9.29851
11
6.5381
21
-9.30413
0
LINE
8
BLACK
6
CONTINUOUS
10
6.5381
20
-9.30413
11
6.53248
21
-9.30976
0
LINE
8
BLACK
6
CONTINUOUS
10
6.53248
20
-9.30976
11
6.52686
21
-9.32101
0
LINE
8
BLACK
6
CONTINUOUS
10
6.52686
20
-9.32101
11
6.52686
21
-9.34913
0
LINE
8
BLACK
6
CONTINUOUS
10
6.52686
20
-9.34913
11
6.53248
21
-9.36038
0
LINE
8
BLACK
6
CONTINUOUS
10
6.53248
20
-9.36038
11
6.5381
21
-9.366
0
LINE
8
BLACK
6
CONTINUOUS
10
6.5381
20
-9.366
11
6.54935
21
-9.37163
0
LINE
8
BLACK
6
CONTINUOUS
10
6.54935
20
-9.37163
11
6.57185
21
-9.37163
0
LINE
8
BLACK
6
CONTINUOUS
10
6.57185
20
-9.37163
11
6.5831
21
-9.366
0
LINE
8
BLACK
6
CONTINUOUS
10
6.5831
20
-9.366
11
6.58872
21
-9.36038
0
LINE
8
BLACK
6
CONTINUOUS
10
6.58872
20
-9.36038
11
6.59435
21
-9.34913
0
LINE
8
BLACK
6
CONTINUOUS
10
6.66746
20
-9.29851
11
6.67871
21
-9.29851
0
LINE
8
BLACK
6
CONTINUOUS
10
6.67871
20
-9.29851
11
6.68996
21
-9.30413
0
LINE
8
BLACK
6
CONTINUOUS
10
6.68996
20
-9.30413
11
6.69558
21
-9.30976
0
LINE
8
BLACK
6
CONTINUOUS
10
6.69558
20
-9.30976
11
6.70121
21
-9.32101
0
LINE
8
BLACK
6
CONTINUOUS
10
6.70121
20
-9.32101
11
6.70683
21
-9.3435
0
LINE
8
BLACK
6
CONTINUOUS
10
6.70683
20
-9.3435
11
6.70683
21
-9.37163
0
LINE
8
BLACK
6
CONTINUOUS
10
6.70683
20
-9.37163
11
6.70121
21
-9.39412
0
LINE
8
BLACK
6
CONTINUOUS
10
6.70121
20
-9.39412
11
6.69558
21
-9.40537
0
LINE
8
BLACK
6
CONTINUOUS
10
6.69558
20
-9.40537
11
6.68996
21
-9.411
0
LINE
8
BLACK
6
CONTINUOUS
10
6.68996
20
-9.411
11
6.67871
21
-9.41662
0
LINE
8
BLACK
6
CONTINUOUS
10
6.67871
20
-9.41662
11
6.66746
21
-9.41662
0
LINE
8
BLACK
6
CONTINUOUS
10
6.66746
20
-9.41662
11
6.65621
21
-9.411
0
LINE
8
BLACK
6
CONTINUOUS
10
6.65621
20
-9.411
11
6.65059
21
-9.40537
0
LINE
8
BLACK
6
CONTINUOUS
10
6.65059
20
-9.40537
11
6.64497
21
-9.39412
0
LINE
8
BLACK
6
CONTINUOUS
10
6.64497
20
-9.39412
11
6.63934
21
-9.37163
0
LINE
8
BLACK
6
CONTINUOUS
10
6.63934
20
-9.37163
11
6.63934
21
-9.3435
0
LINE
8
BLACK
6
CONTINUOUS
10
6.63934
20
-9.3435
11
6.64497
21
-9.32101
0
LINE
8
BLACK
6
CONTINUOUS
10
6.64497
20
-9.32101
11
6.65059
21
-9.30976
0
LINE
8
BLACK
6
CONTINUOUS
10
6.65059
20
-9.30976
11
6.65621
21
-9.30413
0
LINE
8
BLACK
6
CONTINUOUS
10
6.65621
20
-9.30413
11
6.66746
21
-9.29851
0
LINE
8
BLACK
6
CONTINUOUS
10
6.77995
20
-9.29851
11
6.7912
21
-9.29851
0
LINE
8
BLACK
6
CONTINUOUS
10
6.7912
20
-9.29851
11
6.80245
21
-9.30413
0
LINE
8
BLACK
6
CONTINUOUS
10
6.80245
20
-9.30413
11
6.80807
21
-9.30976
0
LINE
8
BLACK
6
CONTINUOUS
10
6.80807
20
-9.30976
11
6.8137
21
-9.32101
0
LINE
8
BLACK
6
CONTINUOUS
10
6.8137
20
-9.32101
11
6.81932
21
-9.3435
0
LINE
8
BLACK
6
CONTINUOUS
10
6.81932
20
-9.3435
11
6.81932
21
-9.37163
0
LINE
8
BLACK
6
CONTINUOUS
10
6.81932
20
-9.37163
11
6.8137
21
-9.39412
0
LINE
8
BLACK
6
CONTINUOUS
10
6.8137
20
-9.39412
11
6.80807
21
-9.40537
0
LINE
8
BLACK
6
CONTINUOUS
10
6.80807
20
-9.40537
11
6.80245
21
-9.411
0
LINE
8
BLACK
6
CONTINUOUS
10
6.80245
20
-9.411
11
6.7912
21
-9.41662
0
LINE
8
BLACK
6
CONTINUOUS
10
6.7912
20
-9.41662
11
6.77995
21
-9.41662
0
LINE
8
BLACK
6
CONTINUOUS
10
6.77995
20
-9.41662
11
6.7687
21
-9.411
0
LINE
8
BLACK
6
CONTINUOUS
10
6.7687
20
-9.411
11
6.76308
21
-9.40537
0
LINE
8
BLACK
6
CONTINUOUS
10
6.76308
20
-9.40537
11
6.75745
21
-9.39412
0
LINE
8
BLACK
6
CONTINUOUS
10
6.75745
20
-9.39412
11
6.75183
21
-9.37163
0
LINE
8
BLACK
6
CONTINUOUS
10
6.75183
20
-9.37163
11
6.75183
21
-9.3435
0
LINE
8
BLACK
6
CONTINUOUS
10
6.75183
20
-9.3435
11
6.75745
21
-9.32101
0
LINE
8
BLACK
6
CONTINUOUS
10
6.75745
20
-9.32101
11
6.76308
21
-9.30976
0
LINE
8
BLACK
6
CONTINUOUS
10
6.76308
20
-9.30976
11
6.7687
21
-9.30413
0
LINE
8
BLACK
6
CONTINUOUS
10
6.7687
20
-9.30413
11
6.77995
21
-9.29851
0
LINE
8
BLACK
6
CONTINUOUS
10
6.86994
20
-9.41662
11
6.86994
21
-9.33788
0
LINE
8
BLACK
6
CONTINUOUS
10
6.86994
20
-9.34913
11
6.87556
21
-9.3435
0
LINE
8
BLACK
6
CONTINUOUS
10
6.87556
20
-9.3435
11
6.88681
21
-9.33788
0
LINE
8
BLACK
6
CONTINUOUS
10
6.88681
20
-9.33788
11
6.90368
21
-9.33788
0
LINE
8
BLACK
6
CONTINUOUS
10
6.90368
20
-9.33788
11
6.91493
21
-9.3435
0
LINE
8
BLACK
6
CONTINUOUS
10
6.91493
20
-9.3435
11
6.92056
21
-9.35475
0
LINE
8
BLACK
6
CONTINUOUS
10
6.92056
20
-9.35475
11
6.92056
21
-9.41662
0
LINE
8
BLACK
6
CONTINUOUS
10
6.92056
20
-9.35475
11
6.92618
21
-9.3435
0
LINE
8
BLACK
6
CONTINUOUS
10
6.92618
20
-9.3435
11
6.93743
21
-9.33788
0
LINE
8
BLACK
6
CONTINUOUS
10
6.93743
20
-9.33788
11
6.9543
21
-9.33788
0
LINE
8
BLACK
6
CONTINUOUS
10
6.9543
20
-9.33788
11
6.96555
21
-9.3435
0
LINE
8
BLACK
6
CONTINUOUS
10
6.96555
20
-9.3435
11
6.97118
21
-9.35475
0
LINE
8
BLACK
6
CONTINUOUS
10
6.97118
20
-9.35475
11
6.97118
21
-9.41662
0
LINE
8
BLACK
6
CONTINUOUS
10
7.02742
20
-9.41662
11
7.02742
21
-9.33788
0
LINE
8
BLACK
6
CONTINUOUS
10
7.02742
20
-9.34913
11
7.03304
21
-9.3435
0
LINE
8
BLACK
6
CONTINUOUS
10
7.03304
20
-9.3435
11
7.04429
21
-9.33788
0
LINE
8
BLACK
6
CONTINUOUS
10
7.04429
20
-9.33788
11
7.06116
21
-9.33788
0
LINE
8
BLACK
6
CONTINUOUS
10
7.06116
20
-9.33788
11
7.07241
21
-9.3435
0
LINE
8
BLACK
6
CONTINUOUS
10
7.07241
20
-9.3435
11
7.07804
21
-9.35475
0
LINE
8
BLACK
6
CONTINUOUS
10
7.07804
20
-9.35475
11
7.07804
21
-9.41662
0
LINE
8
BLACK
6
CONTINUOUS
10
7.07804
20
-9.35475
11
7.08366
21
-9.3435
0
LINE
8
BLACK
6
CONTINUOUS
10
7.08366
20
-9.3435
11
7.09491
21
-9.33788
0
LINE
8
BLACK
6
CONTINUOUS
10
7.09491
20
-9.33788
11
7.11178
21
-9.33788
0
LINE
8
BLACK
6
CONTINUOUS
10
7.11178
20
-9.33788
11
7.12303
21
-9.3435
0
LINE
8
BLACK
6
CONTINUOUS
10
7.12303
20
-9.3435
11
7.12866
21
-9.35475
0
LINE
8
BLACK
6
CONTINUOUS
10
7.12866
20
-9.35475
11
7.12866
21
-9.41662
0
LINE
8
BLACK
6
CONTINUOUS
10
7.35925
20
-9.29289
11
7.25801
21
-9.44474
0
LINE
8
BLACK
6
CONTINUOUS
10
7.51111
20
-9.29851
11
7.52236
21
-9.29851
0
LINE
8
BLACK
6
CONTINUOUS
10
7.52236
20
-9.29851
11
7.53361
21
-9.30413
0
LINE
8
BLACK
6
CONTINUOUS
10
7.53361
20
-9.30413
11
7.53923
21
-9.30976
0
LINE
8
BLACK
6
CONTINUOUS
10
7.53923
20
-9.30976
11
7.54485
21
-9.32101
0
LINE
8
BLACK
6
CONTINUOUS
10
7.54485
20
-9.32101
11
7.55048
21
-9.3435
0
LINE
8
BLACK
6
CONTINUOUS
10
7.55048
20
-9.3435
11
7.55048
21
-9.37163
0
LINE
8
BLACK
6
CONTINUOUS
10
7.55048
20
-9.37163
11
7.54485
21
-9.39412
0
LINE
8
BLACK
6
CONTINUOUS
10
7.54485
20
-9.39412
11
7.53923
21
-9.40537
0
LINE
8
BLACK
6
CONTINUOUS
10
7.53923
20
-9.40537
11
7.53361
21
-9.411
0
LINE
8
BLACK
6
CONTINUOUS
10
7.53361
20
-9.411
11
7.52236
21
-9.41662
0
LINE
8
BLACK
6
CONTINUOUS
10
7.52236
20
-9.41662
11
7.51111
21
-9.41662
0
LINE
8
BLACK
6
CONTINUOUS
10
7.51111
20
-9.41662
11
7.49986
21
-9.411
0
LINE
8
BLACK
6
CONTINUOUS
10
7.49986
20
-9.411
11
7.49424
21
-9.40537
0
LINE
8
BLACK
6
CONTINUOUS
10
7.49424
20
-9.40537
11
7.48861
21
-9.39412
0
LINE
8
BLACK
6
CONTINUOUS
10
7.48861
20
-9.39412
11
7.48299
21
-9.37163
0
LINE
8
BLACK
6
CONTINUOUS
10
7.48299
20
-9.37163
11
7.48299
21
-9.3435
0
LINE
8
BLACK
6
CONTINUOUS
10
7.48299
20
-9.3435
11
7.48861
21
-9.32101
0
LINE
8
BLACK
6
CONTINUOUS
10
7.48861
20
-9.32101
11
7.49424
21
-9.30976
0
LINE
8
BLACK
6
CONTINUOUS
10
7.49424
20
-9.30976
11
7.49986
21
-9.30413
0
LINE
8
BLACK
6
CONTINUOUS
10
7.49986
20
-9.30413
11
7.51111
21
-9.29851
0
LINE
8
BLACK
6
CONTINUOUS
10
7.6011
20
-9.40537
11
7.60672
21
-9.411
0
LINE
8
BLACK
6
CONTINUOUS
10
7.60672
20
-9.411
11
7.6011
21
-9.41662
0
LINE
8
BLACK
6
CONTINUOUS
10
7.6011
20
-9.41662
11
7.59547
21
-9.411
0
LINE
8
BLACK
6
CONTINUOUS
10
7.59547
20
-9.411
11
7.6011
21
-9.40537
0
LINE
8
BLACK
6
CONTINUOUS
10
7.6011
20
-9.40537
11
7.6011
21
-9.41662
0
LINE
8
BLACK
6
CONTINUOUS
10
7.67984
20
-9.29851
11
7.69109
21
-9.29851
0
LINE
8
BLACK
6
CONTINUOUS
10
7.69109
20
-9.29851
11
7.70233
21
-9.30413
0
LINE
8
BLACK
6
CONTINUOUS
10
7.70233
20
-9.30413
11
7.70796
21
-9.30976
0
LINE
8
BLACK
6
CONTINUOUS
10
7.70796
20
-9.30976
11
7.71358
21
-9.32101
0
LINE
8
BLACK
6
CONTINUOUS
10
7.71358
20
-9.32101
11
7.71921
21
-9.3435
0
LINE
8
BLACK
6
CONTINUOUS
10
7.71921
20
-9.3435
11
7.71921
21
-9.37163
0
LINE
8
BLACK
6
CONTINUOUS
10
7.71921
20
-9.37163
11
7.71358
21
-9.39412
0
LINE
8
BLACK
6
CONTINUOUS
10
7.71358
20
-9.39412
11
7.70796
21
-9.40537
0
LINE
8
BLACK
6
CONTINUOUS
10
7.70796
20
-9.40537
11
7.70233
21
-9.411
0
LINE
8
BLACK
6
CONTINUOUS
10
7.70233
20
-9.411
11
7.69109
21
-9.41662
0
LINE
8
BLACK
6
CONTINUOUS
10
7.69109
20
-9.41662
11
7.67984
21
-9.41662
0
LINE
8
BLACK
6
CONTINUOUS
10
7.67984
20
-9.41662
11
7.66859
21
-9.411
0
LINE
8
BLACK
6
CONTINUOUS
10
7.66859
20
-9.411
11
7.66296
21
-9.40537
0
LINE
8
BLACK
6
CONTINUOUS
10
7.66296
20
-9.40537
11
7.65734
21
-9.39412
0
LINE
8
BLACK
6
CONTINUOUS
10
7.65734
20
-9.39412
11
7.65172
21
-9.37163
0
LINE
8
BLACK
6
CONTINUOUS
10
7.65172
20
-9.37163
11
7.65172
21
-9.3435
0
LINE
8
BLACK
6
CONTINUOUS
10
7.65172
20
-9.3435
11
7.65734
21
-9.32101
0
LINE
8
BLACK
6
CONTINUOUS
10
7.65734
20
-9.32101
11
7.66296
21
-9.30976
0
LINE
8
BLACK
6
CONTINUOUS
10
7.66296
20
-9.30976
11
7.66859
21
-9.30413
0
LINE
8
BLACK
6
CONTINUOUS
10
7.66859
20
-9.30413
11
7.67984
21
-9.29851
0
LINE
8
BLACK
6
CONTINUOUS
10
7.75858
20
-9.29851
11
7.83169
21
-9.29851
0
LINE
8
BLACK
6
CONTINUOUS
10
7.83169
20
-9.29851
11
7.79232
21
-9.3435
0
LINE
8
BLACK
6
CONTINUOUS
10
7.79232
20
-9.3435
11
7.8092
21
-9.3435
0
LINE
8
BLACK
6
CONTINUOUS
10
7.8092
20
-9.3435
11
7.82044
21
-9.34913
0
LINE
8
BLACK
6
CONTINUOUS
10
7.82044
20
-9.34913
11
7.82607
21
-9.35475
0
LINE
8
BLACK
6
CONTINUOUS
10
7.82607
20
-9.35475
11
7.83169
21
-9.366
0
LINE
8
BLACK
6
CONTINUOUS
10
7.83169
20
-9.366
11
7.83169
21
-9.39412
0
LINE
8
BLACK
6
CONTINUOUS
10
7.83169
20
-9.39412
11
7.82607
21
-9.40537
0
LINE
8
BLACK
6
CONTINUOUS
10
7.82607
20
-9.40537
11
7.82044
21
-9.411
0
LINE
8
BLACK
6
CONTINUOUS
10
7.82044
20
-9.411
11
7.8092
21
-9.41662
0
LINE
8
BLACK
6
CONTINUOUS
10
7.8092
20
-9.41662
11
7.77545
21
-9.41662
0
LINE
8
BLACK
6
CONTINUOUS
10
7.77545
20
-9.41662
11
7.7642
21
-9.411
0
LINE
8
BLACK
6
CONTINUOUS
10
7.7642
20
-9.411
11
7.75858
21
-9.40537
0
LINE
8
BLACK
6
CONTINUOUS
10
7.93855
20
-9.29851
11
7.88231
21
-9.29851
0
LINE
8
BLACK
6
CONTINUOUS
10
7.88231
20
-9.29851
11
7.87669
21
-9.35475
0
LINE
8
BLACK
6
CONTINUOUS
10
7.87669
20
-9.35475
11
7.88231
21
-9.34913
0
LINE
8
BLACK
6
CONTINUOUS
10
7.88231
20
-9.34913
11
7.89356
21
-9.3435
0
LINE
8
BLACK
6
CONTINUOUS
10
7.89356
20
-9.3435
11
7.92168
21
-9.3435
0
LINE
8
BLACK
6
CONTINUOUS
10
7.92168
20
-9.3435
11
7.93293
21
-9.34913
0
LINE
8
BLACK
6
CONTINUOUS
10
7.93293
20
-9.34913
11
7.93855
21
-9.35475
0
LINE
8
BLACK
6
CONTINUOUS
10
7.93855
20
-9.35475
11
7.94418
21
-9.366
0
LINE
8
BLACK
6
CONTINUOUS
10
7.94418
20
-9.366
11
7.94418
21
-9.39412
0
LINE
8
BLACK
6
CONTINUOUS
10
7.94418
20
-9.39412
11
7.93855
21
-9.40537
0
LINE
8
BLACK
6
CONTINUOUS
10
7.93855
20
-9.40537
11
7.93293
21
-9.411
0
LINE
8
BLACK
6
CONTINUOUS
10
7.93293
20
-9.411
11
7.92168
21
-9.41662
0
LINE
8
BLACK
6
CONTINUOUS
10
7.92168
20
-9.41662
11
7.89356
21
-9.41662
0
LINE
8
BLACK
6
CONTINUOUS
10
7.89356
20
-9.41662
11
7.88231
21
-9.411
0
LINE
8
BLACK
6
CONTINUOUS
10
7.88231
20
-9.411
11
7.87669
21
-9.40537
0
LINE
8
BLACK
6
CONTINUOUS
10
8.04542
20
-9.33788
11
8.04542
21
-9.41662
0
LINE
8
BLACK
6
CONTINUOUS
10
8.01729
20
-9.29289
11
7.98917
21
-9.37725
0
LINE
8
BLACK
6
CONTINUOUS
10
7.98917
20
-9.37725
11
8.06229
21
-9.37725
0
LINE
8
BLACK
6
CONTINUOUS
10
8.10166
20
-9.29851
11
8.10166
21
-9.32101
0
LINE
8
BLACK
6
CONTINUOUS
10
8.14665
20
-9.29851
11
8.14665
21
-9.32101
0
LINE
8
BLACK
6
CONTINUOUS
10
8.32101
20
-9.46161
11
8.31538
21
-9.45599
0
LINE
8
BLACK
6
CONTINUOUS
10
8.31538
20
-9.45599
11
8.30413
21
-9.43912
0
LINE
8
BLACK
6
CONTINUOUS
10
8.30413
20
-9.43912
11
8.29851
21
-9.42787
0
LINE
8
BLACK
6
CONTINUOUS
10
8.29851
20
-9.42787
11
8.29289
21
-9.411
0
LINE
8
BLACK
6
CONTINUOUS
10
8.29289
20
-9.411
11
8.28726
21
-9.38287
0
LINE
8
BLACK
6
CONTINUOUS
10
8.28726
20
-9.38287
11
8.28726
21
-9.36038
0
LINE
8
BLACK
6
CONTINUOUS
10
8.28726
20
-9.36038
11
8.29289
21
-9.33226
0
LINE
8
BLACK
6
CONTINUOUS
10
8.29289
20
-9.33226
11
8.29851
21
-9.31538
0
LINE
8
BLACK
6
CONTINUOUS
10
8.29851
20
-9.31538
11
8.30413
21
-9.30413
0
LINE
8
BLACK
6
CONTINUOUS
10
8.30413
20
-9.30413
11
8.31538
21
-9.28726
0
LINE
8
BLACK
6
CONTINUOUS
10
8.31538
20
-9.28726
11
8.32101
21
-9.28164
0
LINE
8
BLACK
6
CONTINUOUS
10
8.36038
20
-9.30976
11
8.366
21
-9.30413
0
LINE
8
BLACK
6
CONTINUOUS
10
8.366
20
-9.30413
11
8.37725
21
-9.29851
0
LINE
8
BLACK
6
CONTINUOUS
10
8.37725
20
-9.29851
11
8.40537
21
-9.29851
0
LINE
8
BLACK
6
CONTINUOUS
10
8.40537
20
-9.29851
11
8.41662
21
-9.30413
0
LINE
8
BLACK
6
CONTINUOUS
10
8.41662
20
-9.30413
11
8.42224
21
-9.30976
0
LINE
8
BLACK
6
CONTINUOUS
10
8.42224
20
-9.30976
11
8.42787
21
-9.32101
0
LINE
8
BLACK
6
CONTINUOUS
10
8.42787
20
-9.32101
11
8.42787
21
-9.33226
0
LINE
8
BLACK
6
CONTINUOUS
10
8.42787
20
-9.33226
11
8.42224
21
-9.34913
0
LINE
8
BLACK
6
CONTINUOUS
10
8.42224
20
-9.34913
11
8.35475
21
-9.41662
0
LINE
8
BLACK
6
CONTINUOUS
10
8.35475
20
-9.41662
11
8.42787
21
-9.41662
0
LINE
8
BLACK
6
CONTINUOUS
10
8.56848
20
-9.41662
11
8.56848
21
-9.29851
0
LINE
8
BLACK
6
CONTINUOUS
10
8.61909
20
-9.41662
11
8.61909
21
-9.35475
0
LINE
8
BLACK
6
CONTINUOUS
10
8.61909
20
-9.35475
11
8.61347
21
-9.3435
0
LINE
8
BLACK
6
CONTINUOUS
10
8.61347
20
-9.3435
11
8.60222
21
-9.33788
0
LINE
8
BLACK
6
CONTINUOUS
10
8.60222
20
-9.33788
11
8.58535
21
-9.33788
0
LINE
8
BLACK
6
CONTINUOUS
10
8.58535
20
-9.33788
11
8.5741
21
-9.3435
0
LINE
8
BLACK
6
CONTINUOUS
10
8.5741
20
-9.3435
11
8.56848
21
-9.34913
0
LINE
8
BLACK
6
CONTINUOUS
10
8.69221
20
-9.41662
11
8.68096
21
-9.411
0
LINE
8
BLACK
6
CONTINUOUS
10
8.68096
20
-9.411
11
8.67534
21
-9.40537
0
LINE
8
BLACK
6
CONTINUOUS
10
8.67534
20
-9.40537
11
8.66971
21
-9.39412
0
LINE
8
BLACK
6
CONTINUOUS
10
8.66971
20
-9.39412
11
8.66971
21
-9.36038
0
LINE
8
BLACK
6
CONTINUOUS
10
8.66971
20
-9.36038
11
8.67534
21
-9.34913
0
LINE
8
BLACK
6
CONTINUOUS
10
8.67534
20
-9.34913
11
8.68096
21
-9.3435
0
LINE
8
BLACK
6
CONTINUOUS
10
8.68096
20
-9.3435
11
8.69221
21
-9.33788
0
LINE
8
BLACK
6
CONTINUOUS
10
8.69221
20
-9.33788
11
8.70908
21
-9.33788
0
LINE
8
BLACK
6
CONTINUOUS
10
8.70908
20
-9.33788
11
8.72033
21
-9.3435
0
LINE
8
BLACK
6
CONTINUOUS
10
8.72033
20
-9.3435
11
8.72596
21
-9.34913
0
LINE
8
BLACK
6
CONTINUOUS
10
8.72596
20
-9.34913
11
8.73158
21
-9.36038
0
LINE
8
BLACK
6
CONTINUOUS
10
8.73158
20
-9.36038
11
8.73158
21
-9.39412
0
LINE
8
BLACK
6
CONTINUOUS
10
8.73158
20
-9.39412
11
8.72596
21
-9.40537
0
LINE
8
BLACK
6
CONTINUOUS
10
8.72596
20
-9.40537
11
8.72033
21
-9.411
0
LINE
8
BLACK
6
CONTINUOUS
10
8.72033
20
-9.411
11
8.70908
21
-9.41662
0
LINE
8
BLACK
6
CONTINUOUS
10
8.70908
20
-9.41662
11
8.69221
21
-9.41662
0
LINE
8
BLACK
6
CONTINUOUS
10
8.79907
20
-9.41662
11
8.78782
21
-9.411
0
LINE
8
BLACK
6
CONTINUOUS
10
8.78782
20
-9.411
11
8.7822
21
-9.39975
0
LINE
8
BLACK
6
CONTINUOUS
10
8.7822
20
-9.39975
11
8.7822
21
-9.29851
0
LINE
8
BLACK
6
CONTINUOUS
10
8.88906
20
-9.411
11
8.87781
21
-9.41662
0
LINE
8
BLACK
6
CONTINUOUS
10
8.87781
20
-9.41662
11
8.85531
21
-9.41662
0
LINE
8
BLACK
6
CONTINUOUS
10
8.85531
20
-9.41662
11
8.84407
21
-9.411
0
LINE
8
BLACK
6
CONTINUOUS
10
8.84407
20
-9.411
11
8.83844
21
-9.39975
0
LINE
8
BLACK
6
CONTINUOUS
10
8.83844
20
-9.39975
11
8.83844
21
-9.35475
0
LINE
8
BLACK
6
CONTINUOUS
10
8.83844
20
-9.35475
11
8.84407
21
-9.3435
0
LINE
8
BLACK
6
CONTINUOUS
10
8.84407
20
-9.3435
11
8.85531
21
-9.33788
0
LINE
8
BLACK
6
CONTINUOUS
10
8.85531
20
-9.33788
11
8.87781
21
-9.33788
0
LINE
8
BLACK
6
CONTINUOUS
10
8.87781
20
-9.33788
11
8.88906
21
-9.3435
0
LINE
8
BLACK
6
CONTINUOUS
10
8.88906
20
-9.3435
11
8.89468
21
-9.35475
0
LINE
8
BLACK
6
CONTINUOUS
10
8.89468
20
-9.35475
11
8.89468
21
-9.366
0
LINE
8
BLACK
6
CONTINUOUS
10
8.89468
20
-9.366
11
8.83844
21
-9.37725
0
LINE
8
BLACK
6
CONTINUOUS
10
8.93968
20
-9.411
11
8.95093
21
-9.41662
0
LINE
8
BLACK
6
CONTINUOUS
10
8.95093
20
-9.41662
11
8.97343
21
-9.41662
0
LINE
8
BLACK
6
CONTINUOUS
10
8.97343
20
-9.41662
11
8.98467
21
-9.411
0
LINE
8
BLACK
6
CONTINUOUS
10
8.98467
20
-9.411
11
8.9903
21
-9.39975
0
LINE
8
BLACK
6
CONTINUOUS
10
8.9903
20
-9.39975
11
8.9903
21
-9.39412
0
LINE
8
BLACK
6
CONTINUOUS
10
8.9903
20
-9.39412
11
8.98467
21
-9.38287
0
LINE
8
BLACK
6
CONTINUOUS
10
8.98467
20
-9.38287
11
8.97343
21
-9.37725
0
LINE
8
BLACK
6
CONTINUOUS
10
8.97343
20
-9.37725
11
8.95655
21
-9.37725
0
LINE
8
BLACK
6
CONTINUOUS
10
8.95655
20
-9.37725
11
8.9453
21
-9.37163
0
LINE
8
BLACK
6
CONTINUOUS
10
8.9453
20
-9.37163
11
8.93968
21
-9.36038
0
LINE
8
BLACK
6
CONTINUOUS
10
8.93968
20
-9.36038
11
8.93968
21
-9.35475
0
LINE
8
BLACK
6
CONTINUOUS
10
8.93968
20
-9.35475
11
8.9453
21
-9.3435
0
LINE
8
BLACK
6
CONTINUOUS
10
8.9453
20
-9.3435
11
8.95655
21
-9.33788
0
LINE
8
BLACK
6
CONTINUOUS
10
8.95655
20
-9.33788
11
8.97343
21
-9.33788
0
LINE
8
BLACK
6
CONTINUOUS
10
8.97343
20
-9.33788
11
8.98467
21
-9.3435
0
LINE
8
BLACK
6
CONTINUOUS
10
9.02967
20
-9.46161
11
9.03529
21
-9.45599
0
LINE
8
BLACK
6
CONTINUOUS
10
9.03529
20
-9.45599
11
9.04654
21
-9.43912
0
LINE
8
BLACK
6
CONTINUOUS
10
9.04654
20
-9.43912
11
9.05217
21
-9.42787
0
LINE
8
BLACK
6
CONTINUOUS
10
9.05217
20
-9.42787
11
9.05779
21
-9.411
0
LINE
8
BLACK
6
CONTINUOUS
10
9.05779
20
-9.411
11
9.06341
21
-9.38287
0
LINE
8
BLACK
6
CONTINUOUS
10
9.06341
20
-9.38287
11
9.06341
21
-9.36038
0
LINE
8
BLACK
6
CONTINUOUS
10
9.06341
20
-9.36038
11
9.05779
21
-9.33226
0
LINE
8
BLACK
6
CONTINUOUS
10
9.05779
20
-9.33226
11
9.05217
21
-9.31538
0
LINE
8
BLACK
6
CONTINUOUS
10
9.05217
20
-9.31538
11
9.04654
21
-9.30413
0
LINE
8
BLACK
6
CONTINUOUS
10
9.04654
20
-9.30413
11
9.03529
21
-9.28726
0
LINE
8
BLACK
6
CONTINUOUS
10
9.03529
20
-9.28726
11
9.02967
21
-9.28164
0
LINE
8
BLACK
6
CONTINUOUS
10
9.24339
20
-9.46161
11
9.23777
21
-9.45599
0
LINE
8
BLACK
6
CONTINUOUS
10
9.23777
20
-9.45599
11
9.22652
21
-9.43912
0
LINE
8
BLACK
6
CONTINUOUS
10
9.22652
20
-9.43912
11
9.22089
21
-9.42787
0
LINE
8
BLACK
6
CONTINUOUS
10
9.22089
20
-9.42787
11
9.21527
21
-9.411
0
LINE
8
BLACK
6
CONTINUOUS
10
9.21527
20
-9.411
11
9.20965
21
-9.38287
0
LINE
8
BLACK
6
CONTINUOUS
10
9.20965
20
-9.38287
11
9.20965
21
-9.36038
0
LINE
8
BLACK
6
CONTINUOUS
10
9.20965
20
-9.36038
11
9.21527
21
-9.33226
0
LINE
8
BLACK
6
CONTINUOUS
10
9.21527
20
-9.33226
11
9.22089
21
-9.31538
0
LINE
8
BLACK
6
CONTINUOUS
10
9.22089
20
-9.31538
11
9.22652
21
-9.30413
0
LINE
8
BLACK
6
CONTINUOUS
10
9.22652
20
-9.30413
11
9.23777
21
-9.28726
0
LINE
8
BLACK
6
CONTINUOUS
10
9.23777
20
-9.28726
11
9.24339
21
-9.28164
0
LINE
8
BLACK
6
CONTINUOUS
10
9.28839
20
-9.33788
11
9.28839
21
-9.41662
0
LINE
8
BLACK
6
CONTINUOUS
10
9.28839
20
-9.34913
11
9.29401
21
-9.3435
0
LINE
8
BLACK
6
CONTINUOUS
10
9.29401
20
-9.3435
11
9.30526
21
-9.33788
0
LINE
8
BLACK
6
CONTINUOUS
10
9.30526
20
-9.33788
11
9.32213
21
-9.33788
0
LINE
8
BLACK
6
CONTINUOUS
10
9.32213
20
-9.33788
11
9.33338
21
-9.3435
0
LINE
8
BLACK
6
CONTINUOUS
10
9.33338
20
-9.3435
11
9.339
21
-9.35475
0
LINE
8
BLACK
6
CONTINUOUS
10
9.339
20
-9.35475
11
9.339
21
-9.41662
0
LINE
8
BLACK
6
CONTINUOUS
10
9.41212
20
-9.41662
11
9.40087
21
-9.411
0
LINE
8
BLACK
6
CONTINUOUS
10
9.40087
20
-9.411
11
9.39525
21
-9.40537
0
LINE
8
BLACK
6
CONTINUOUS
10
9.39525
20
-9.40537
11
9.38962
21
-9.39412
0
LINE
8
BLACK
6
CONTINUOUS
10
9.38962
20
-9.39412
11
9.38962
21
-9.36038
0
LINE
8
BLACK
6
CONTINUOUS
10
9.38962
20
-9.36038
11
9.39525
21
-9.34913
0
LINE
8
BLACK
6
CONTINUOUS
10
9.39525
20
-9.34913
11
9.40087
21
-9.3435
0
LINE
8
BLACK
6
CONTINUOUS
10
9.40087
20
-9.3435
11
9.41212
21
-9.33788
0
LINE
8
BLACK
6
CONTINUOUS
10
9.41212
20
-9.33788
11
9.42899
21
-9.33788
0
LINE
8
BLACK
6
CONTINUOUS
10
9.42899
20
-9.33788
11
9.44024
21
-9.3435
0
LINE
8
BLACK
6
CONTINUOUS
10
9.44024
20
-9.3435
11
9.44587
21
-9.34913
0
LINE
8
BLACK
6
CONTINUOUS
10
9.44587
20
-9.34913
11
9.45149
21
-9.36038
0
LINE
8
BLACK
6
CONTINUOUS
10
9.45149
20
-9.36038
11
9.45149
21
-9.39412
0
LINE
8
BLACK
6
CONTINUOUS
10
9.45149
20
-9.39412
11
9.44587
21
-9.40537
0
LINE
8
BLACK
6
CONTINUOUS
10
9.44587
20
-9.40537
11
9.44024
21
-9.411
0
LINE
8
BLACK
6
CONTINUOUS
10
9.44024
20
-9.411
11
9.42899
21
-9.41662
0
LINE
8
BLACK
6
CONTINUOUS
10
9.42899
20
-9.41662
11
9.41212
21
-9.41662
0
LINE
8
BLACK
6
CONTINUOUS
10
9.48524
20
-9.33788
11
9.53023
21
-9.33788
0
LINE
8
BLACK
6
CONTINUOUS
10
9.50211
20
-9.29851
11
9.50211
21
-9.39975
0
LINE
8
BLACK
6
CONTINUOUS
10
9.50211
20
-9.39975
11
9.50773
21
-9.411
0
LINE
8
BLACK
6
CONTINUOUS
10
9.50773
20
-9.411
11
9.51898
21
-9.41662
0
LINE
8
BLACK
6
CONTINUOUS
10
9.51898
20
-9.41662
11
9.53023
21
-9.41662
0
LINE
8
BLACK
6
CONTINUOUS
10
9.65959
20
-9.33788
11
9.65959
21
-9.45599
0
LINE
8
BLACK
6
CONTINUOUS
10
9.65959
20
-9.3435
11
9.67084
21
-9.33788
0
LINE
8
BLACK
6
CONTINUOUS
10
9.67084
20
-9.33788
11
9.69334
21
-9.33788
0
LINE
8
BLACK
6
CONTINUOUS
10
9.69334
20
-9.33788
11
9.70458
21
-9.3435
0
LINE
8
BLACK
6
CONTINUOUS
10
9.70458
20
-9.3435
11
9.71021
21
-9.34913
0
LINE
8
BLACK
6
CONTINUOUS
10
9.71021
20
-9.34913
11
9.71583
21
-9.36038
0
LINE
8
BLACK
6
CONTINUOUS
10
9.71583
20
-9.36038
11
9.71583
21
-9.39412
0
LINE
8
BLACK
6
CONTINUOUS
10
9.71583
20
-9.39412
11
9.71021
21
-9.40537
0
LINE
8
BLACK
6
CONTINUOUS
10
9.71021
20
-9.40537
11
9.70458
21
-9.411
0
LINE
8
BLACK
6
CONTINUOUS
10
9.70458
20
-9.411
11
9.69334
21
-9.41662
0
LINE
8
BLACK
6
CONTINUOUS
10
9.69334
20
-9.41662
11
9.67084
21
-9.41662
0
LINE
8
BLACK
6
CONTINUOUS
10
9.67084
20
-9.41662
11
9.65959
21
-9.411
0
LINE
8
BLACK
6
CONTINUOUS
10
9.78332
20
-9.41662
11
9.77208
21
-9.411
0
LINE
8
BLACK
6
CONTINUOUS
10
9.77208
20
-9.411
11
9.76645
21
-9.39975
0
LINE
8
BLACK
6
CONTINUOUS
10
9.76645
20
-9.39975
11
9.76645
21
-9.29851
0
LINE
8
BLACK
6
CONTINUOUS
10
9.87894
20
-9.41662
11
9.87894
21
-9.35475
0
LINE
8
BLACK
6
CONTINUOUS
10
9.87894
20
-9.35475
11
9.87331
21
-9.3435
0
LINE
8
BLACK
6
CONTINUOUS
10
9.87331
20
-9.3435
11
9.86206
21
-9.33788
0
LINE
8
BLACK
6
CONTINUOUS
10
9.86206
20
-9.33788
11
9.83957
21
-9.33788
0
LINE
8
BLACK
6
CONTINUOUS
10
9.83957
20
-9.33788
11
9.82832
21
-9.3435
0
LINE
8
BLACK
6
CONTINUOUS
10
9.87894
20
-9.411
11
9.86769
21
-9.41662
0
LINE
8
BLACK
6
CONTINUOUS
10
9.86769
20
-9.41662
11
9.83957
21
-9.41662
0
LINE
8
BLACK
6
CONTINUOUS
10
9.83957
20
-9.41662
11
9.82832
21
-9.411
0
LINE
8
BLACK
6
CONTINUOUS
10
9.82832
20
-9.411
11
9.82269
21
-9.39975
0
LINE
8
BLACK
6
CONTINUOUS
10
9.82269
20
-9.39975
11
9.82269
21
-9.3885
0
LINE
8
BLACK
6
CONTINUOUS
10
9.82269
20
-9.3885
11
9.82832
21
-9.37725
0
LINE
8
BLACK
6
CONTINUOUS
10
9.82832
20
-9.37725
11
9.83957
21
-9.37163
0
LINE
8
BLACK
6
CONTINUOUS
10
9.83957
20
-9.37163
11
9.86769
21
-9.37163
0
LINE
8
BLACK
6
CONTINUOUS
10
9.86769
20
-9.37163
11
9.87894
21
-9.366
0
LINE
8
BLACK
6
CONTINUOUS
10
9.91831
20
-9.33788
11
9.9633
21
-9.33788
0
LINE
8
BLACK
6
CONTINUOUS
10
9.93518
20
-9.29851
11
9.93518
21
-9.39975
0
LINE
8
BLACK
6
CONTINUOUS
10
9.93518
20
-9.39975
11
9.9408
21
-9.411
0
LINE
8
BLACK
6
CONTINUOUS
10
9.9408
20
-9.411
11
9.95205
21
-9.41662
0
LINE
8
BLACK
6
CONTINUOUS
10
9.95205
20
-9.41662
11
9.9633
21
-9.41662
0
LINE
8
BLACK
6
CONTINUOUS
10
10.0477
20
-9.411
11
10.0364
21
-9.41662
0
LINE
8
BLACK
6
CONTINUOUS
10
10.0364
20
-9.41662
11
10.0139
21
-9.41662
0
LINE
8
BLACK
6
CONTINUOUS
10
10.0139
20
-9.41662
11
10.0027
21
-9.411
0
LINE
8
BLACK
6
CONTINUOUS
10
10.0027
20
-9.411
11
9.99705
21
-9.39975
0
LINE
8
BLACK
6
CONTINUOUS
10
9.99705
20
-9.39975
11
9.99705
21
-9.35475
0
LINE
8
BLACK
6
CONTINUOUS
10
9.99705
20
-9.35475
11
10.0027
21
-9.3435
0
LINE
8
BLACK
6
CONTINUOUS
10
10.0027
20
-9.3435
11
10.0139
21
-9.33788
0
LINE
8
BLACK
6
CONTINUOUS
10
10.0139
20
-9.33788
11
10.0364
21
-9.33788
0
LINE
8
BLACK
6
CONTINUOUS
10
10.0364
20
-9.33788
11
10.0477
21
-9.3435
0
LINE
8
BLACK
6
CONTINUOUS
10
10.0477
20
-9.3435
11
10.0533
21
-9.35475
0
LINE
8
BLACK
6
CONTINUOUS
10
10.0533
20
-9.35475
11
10.0533
21
-9.366
0
LINE
8
BLACK
6
CONTINUOUS
10
10.0533
20
-9.366
11
9.99705
21
-9.37725
0
LINE
8
BLACK
6
CONTINUOUS
10
10.1545
20
-9.41662
11
10.1545
21
-9.29851
0
LINE
8
BLACK
6
CONTINUOUS
10
10.1545
20
-9.411
11
10.1433
21
-9.41662
0
LINE
8
BLACK
6
CONTINUOUS
10
10.1433
20
-9.41662
11
10.1208
21
-9.41662
0
LINE
8
BLACK
6
CONTINUOUS
10
10.1208
20
-9.41662
11
10.1095
21
-9.411
0
LINE
8
BLACK
6
CONTINUOUS
10
10.1095
20
-9.411
11
10.1039
21
-9.40537
0
LINE
8
BLACK
6
CONTINUOUS
10
10.1039
20
-9.40537
11
10.0983
21
-9.39412
0
LINE
8
BLACK
6
CONTINUOUS
10
10.0983
20
-9.39412
11
10.0983
21
-9.36038
0
LINE
8
BLACK
6
CONTINUOUS
10
10.0983
20
-9.36038
11
10.1039
21
-9.34913
0
LINE
8
BLACK
6
CONTINUOUS
10
10.1039
20
-9.34913
11
10.1095
21
-9.3435
0
LINE
8
BLACK
6
CONTINUOUS
10
10.1095
20
-9.3435
11
10.1208
21
-9.33788
0
LINE
8
BLACK
6
CONTINUOUS
10
10.1208
20
-9.33788
11
10.1433
21
-9.33788
0
LINE
8
BLACK
6
CONTINUOUS
10
10.1433
20
-9.33788
11
10.1545
21
-9.3435
0
LINE
8
BLACK
6
CONTINUOUS
10
10.1995
20
-9.46161
11
10.2051
21
-9.45599
0
LINE
8
BLACK
6
CONTINUOUS
10
10.2051
20
-9.45599
11
10.2164
21
-9.43912
0
LINE
8
BLACK
6
CONTINUOUS
10
10.2164
20
-9.43912
11
10.222
21
-9.42787
0
LINE
8
BLACK
6
CONTINUOUS
10
10.222
20
-9.42787
11
10.2276
21
-9.411
0
LINE
8
BLACK
6
CONTINUOUS
10
10.2276
20
-9.411
11
10.2333
21
-9.38287
0
LINE
8
BLACK
6
CONTINUOUS
10
10.2333
20
-9.38287
11
10.2333
21
-9.36038
0
LINE
8
BLACK
6
CONTINUOUS
10
10.2333
20
-9.36038
11
10.2276
21
-9.33226
0
LINE
8
BLACK
6
CONTINUOUS
10
10.2276
20
-9.33226
11
10.222
21
-9.31538
0
LINE
8
BLACK
6
CONTINUOUS
10
10.222
20
-9.31538
11
10.2164
21
-9.30413
0
LINE
8
BLACK
6
CONTINUOUS
10
10.2164
20
-9.30413
11
10.2051
21
-9.28726
0
LINE
8
BLACK
6
CONTINUOUS
10
10.2051
20
-9.28726
11
10.1995
21
-9.28164
0
CIRCLE
8
BLACK
10
6.2313
20
-9.51909
40
0.019685
0
LINE
8
BLACK
6
CONTINUOUS
10
6.42562
20
-9.57253
11
6.35813
21
-9.57253
0
LINE
8
BLACK
6
CONTINUOUS
10
6.39187
20
-9.57253
11
6.39187
21
-9.45442
0
LINE
8
BLACK
6
CONTINUOUS
10
6.39187
20
-9.45442
11
6.38062
21
-9.47129
0
LINE
8
BLACK
6
CONTINUOUS
10
6.38062
20
-9.47129
11
6.36938
21
-9.48254
0
LINE
8
BLACK
6
CONTINUOUS
10
6.36938
20
-9.48254
11
6.35813
21
-9.48816
0
LINE
8
BLACK
6
CONTINUOUS
10
6.47624
20
-9.56128
11
6.48186
21
-9.5669
0
LINE
8
BLACK
6
CONTINUOUS
10
6.48186
20
-9.5669
11
6.47624
21
-9.57253
0
LINE
8
BLACK
6
CONTINUOUS
10
6.47624
20
-9.57253
11
6.47061
21
-9.5669
0
LINE
8
BLACK
6
CONTINUOUS
10
6.47061
20
-9.5669
11
6.47624
21
-9.56128
0
LINE
8
BLACK
6
CONTINUOUS
10
6.47624
20
-9.56128
11
6.47624
21
-9.57253
0
LINE
8
BLACK
6
CONTINUOUS
10
6.55498
20
-9.45442
11
6.56623
21
-9.45442
0
LINE
8
BLACK
6
CONTINUOUS
10
6.56623
20
-9.45442
11
6.57747
21
-9.46004
0
LINE
8
BLACK
6
CONTINUOUS
10
6.57747
20
-9.46004
11
6.5831
21
-9.46566
0
LINE
8
BLACK
6
CONTINUOUS
10
6.5831
20
-9.46566
11
6.58872
21
-9.47691
0
LINE
8
BLACK
6
CONTINUOUS
10
6.58872
20
-9.47691
11
6.59435
21
-9.49941
0
LINE
8
BLACK
6
CONTINUOUS
10
6.59435
20
-9.49941
11
6.59435
21
-9.52753
0
LINE
8
BLACK
6
CONTINUOUS
10
6.59435
20
-9.52753
11
6.58872
21
-9.55003
0
LINE
8
BLACK
6
CONTINUOUS
10
6.58872
20
-9.55003
11
6.5831
21
-9.56128
0
LINE
8
BLACK
6
CONTINUOUS
10
6.5831
20
-9.56128
11
6.57747
21
-9.5669
0
LINE
8
BLACK
6
CONTINUOUS
10
6.57747
20
-9.5669
11
6.56623
21
-9.57253
0
LINE
8
BLACK
6
CONTINUOUS
10
6.56623
20
-9.57253
11
6.55498
21
-9.57253
0
LINE
8
BLACK
6
CONTINUOUS
10
6.55498
20
-9.57253
11
6.54373
21
-9.5669
0
LINE
8
BLACK
6
CONTINUOUS
10
6.54373
20
-9.5669
11
6.5381
21
-9.56128
0
LINE
8
BLACK
6
CONTINUOUS
10
6.5381
20
-9.56128
11
6.53248
21
-9.55003
0
LINE
8
BLACK
6
CONTINUOUS
10
6.53248
20
-9.55003
11
6.52686
21
-9.52753
0
LINE
8
BLACK
6
CONTINUOUS
10
6.52686
20
-9.52753
11
6.52686
21
-9.49941
0
LINE
8
BLACK
6
CONTINUOUS
10
6.52686
20
-9.49941
11
6.53248
21
-9.47691
0
LINE
8
BLACK
6
CONTINUOUS
10
6.53248
20
-9.47691
11
6.5381
21
-9.46566
0
LINE
8
BLACK
6
CONTINUOUS
10
6.5381
20
-9.46566
11
6.54373
21
-9.46004
0
LINE
8
BLACK
6
CONTINUOUS
10
6.54373
20
-9.46004
11
6.55498
21
-9.45442
0
LINE
8
BLACK
6
CONTINUOUS
10
6.66746
20
-9.45442
11
6.67871
21
-9.45442
0
LINE
8
BLACK
6
CONTINUOUS
10
6.67871
20
-9.45442
11
6.68996
21
-9.46004
0
LINE
8
BLACK
6
CONTINUOUS
10
6.68996
20
-9.46004
11
6.69558
21
-9.46566
0
LINE
8
BLACK
6
CONTINUOUS
10
6.69558
20
-9.46566
11
6.70121
21
-9.47691
0
LINE
8
BLACK
6
CONTINUOUS
10
6.70121
20
-9.47691
11
6.70683
21
-9.49941
0
LINE
8
BLACK
6
CONTINUOUS
10
6.70683
20
-9.49941
11
6.70683
21
-9.52753
0
LINE
8
BLACK
6
CONTINUOUS
10
6.70683
20
-9.52753
11
6.70121
21
-9.55003
0
LINE
8
BLACK
6
CONTINUOUS
10
6.70121
20
-9.55003
11
6.69558
21
-9.56128
0
LINE
8
BLACK
6
CONTINUOUS
10
6.69558
20
-9.56128
11
6.68996
21
-9.5669
0
LINE
8
BLACK
6
CONTINUOUS
10
6.68996
20
-9.5669
11
6.67871
21
-9.57253
0
LINE
8
BLACK
6
CONTINUOUS
10
6.67871
20
-9.57253
11
6.66746
21
-9.57253
0
LINE
8
BLACK
6
CONTINUOUS
10
6.66746
20
-9.57253
11
6.65621
21
-9.5669
0
LINE
8
BLACK
6
CONTINUOUS
10
6.65621
20
-9.5669
11
6.65059
21
-9.56128
0
LINE
8
BLACK
6
CONTINUOUS
10
6.65059
20
-9.56128
11
6.64497
21
-9.55003
0
LINE
8
BLACK
6
CONTINUOUS
10
6.64497
20
-9.55003
11
6.63934
21
-9.52753
0
LINE
8
BLACK
6
CONTINUOUS
10
6.63934
20
-9.52753
11
6.63934
21
-9.49941
0
LINE
8
BLACK
6
CONTINUOUS
10
6.63934
20
-9.49941
11
6.64497
21
-9.47691
0
LINE
8
BLACK
6
CONTINUOUS
10
6.64497
20
-9.47691
11
6.65059
21
-9.46566
0
LINE
8
BLACK
6
CONTINUOUS
10
6.65059
20
-9.46566
11
6.65621
21
-9.46004
0
LINE
8
BLACK
6
CONTINUOUS
10
6.65621
20
-9.46004
11
6.66746
21
-9.45442
0
LINE
8
BLACK
6
CONTINUOUS
10
6.77995
20
-9.45442
11
6.7912
21
-9.45442
0
LINE
8
BLACK
6
CONTINUOUS
10
6.7912
20
-9.45442
11
6.80245
21
-9.46004
0
LINE
8
BLACK
6
CONTINUOUS
10
6.80245
20
-9.46004
11
6.80807
21
-9.46566
0
LINE
8
BLACK
6
CONTINUOUS
10
6.80807
20
-9.46566
11
6.8137
21
-9.47691
0
LINE
8
BLACK
6
CONTINUOUS
10
6.8137
20
-9.47691
11
6.81932
21
-9.49941
0
LINE
8
BLACK
6
CONTINUOUS
10
6.81932
20
-9.49941
11
6.81932
21
-9.52753
0
LINE
8
BLACK
6
CONTINUOUS
10
6.81932
20
-9.52753
11
6.8137
21
-9.55003
0
LINE
8
BLACK
6
CONTINUOUS
10
6.8137
20
-9.55003
11
6.80807
21
-9.56128
0
LINE
8
BLACK
6
CONTINUOUS
10
6.80807
20
-9.56128
11
6.80245
21
-9.5669
0
LINE
8
BLACK
6
CONTINUOUS
10
6.80245
20
-9.5669
11
6.7912
21
-9.57253
0
LINE
8
BLACK
6
CONTINUOUS
10
6.7912
20
-9.57253
11
6.77995
21
-9.57253
0
LINE
8
BLACK
6
CONTINUOUS
10
6.77995
20
-9.57253
11
6.7687
21
-9.5669
0
LINE
8
BLACK
6
CONTINUOUS
10
6.7687
20
-9.5669
11
6.76308
21
-9.56128
0
LINE
8
BLACK
6
CONTINUOUS
10
6.76308
20
-9.56128
11
6.75745
21
-9.55003
0
LINE
8
BLACK
6
CONTINUOUS
10
6.75745
20
-9.55003
11
6.75183
21
-9.52753
0
LINE
8
BLACK
6
CONTINUOUS
10
6.75183
20
-9.52753
11
6.75183
21
-9.49941
0
LINE
8
BLACK
6
CONTINUOUS
10
6.75183
20
-9.49941
11
6.75745
21
-9.47691
0
LINE
8
BLACK
6
CONTINUOUS
10
6.75745
20
-9.47691
11
6.76308
21
-9.46566
0
LINE
8
BLACK
6
CONTINUOUS
10
6.76308
20
-9.46566
11
6.7687
21
-9.46004
0
LINE
8
BLACK
6
CONTINUOUS
10
6.7687
20
-9.46004
11
6.77995
21
-9.45442
0
LINE
8
BLACK
6
CONTINUOUS
10
6.86994
20
-9.57253
11
6.86994
21
-9.49379
0
LINE
8
BLACK
6
CONTINUOUS
10
6.86994
20
-9.50503
11
6.87556
21
-9.49941
0
LINE
8
BLACK
6
CONTINUOUS
10
6.87556
20
-9.49941
11
6.88681
21
-9.49379
0
LINE
8
BLACK
6
CONTINUOUS
10
6.88681
20
-9.49379
11
6.90368
21
-9.49379
0
LINE
8
BLACK
6
CONTINUOUS
10
6.90368
20
-9.49379
11
6.91493
21
-9.49941
0
LINE
8
BLACK
6
CONTINUOUS
10
6.91493
20
-9.49941
11
6.92056
21
-9.51066
0
LINE
8
BLACK
6
CONTINUOUS
10
6.92056
20
-9.51066
11
6.92056
21
-9.57253
0
LINE
8
BLACK
6
CONTINUOUS
10
6.92056
20
-9.51066
11
6.92618
21
-9.49941
0
LINE
8
BLACK
6
CONTINUOUS
10
6.92618
20
-9.49941
11
6.93743
21
-9.49379
0
LINE
8
BLACK
6
CONTINUOUS
10
6.93743
20
-9.49379
11
6.9543
21
-9.49379
0
LINE
8
BLACK
6
CONTINUOUS
10
6.9543
20
-9.49379
11
6.96555
21
-9.49941
0
LINE
8
BLACK
6
CONTINUOUS
10
6.96555
20
-9.49941
11
6.97118
21
-9.51066
0
LINE
8
BLACK
6
CONTINUOUS
10
6.97118
20
-9.51066
11
6.97118
21
-9.57253
0
LINE
8
BLACK
6
CONTINUOUS
10
7.02742
20
-9.57253
11
7.02742
21
-9.49379
0
LINE
8
BLACK
6
CONTINUOUS
10
7.02742
20
-9.50503
11
7.03304
21
-9.49941
0
LINE
8
BLACK
6
CONTINUOUS
10
7.03304
20
-9.49941
11
7.04429
21
-9.49379
0
LINE
8
BLACK
6
CONTINUOUS
10
7.04429
20
-9.49379
11
7.06116
21
-9.49379
0
LINE
8
BLACK
6
CONTINUOUS
10
7.06116
20
-9.49379
11
7.07241
21
-9.49941
0
LINE
8
BLACK
6
CONTINUOUS
10
7.07241
20
-9.49941
11
7.07804
21
-9.51066
0
LINE
8
BLACK
6
CONTINUOUS
10
7.07804
20
-9.51066
11
7.07804
21
-9.57253
0
LINE
8
BLACK
6
CONTINUOUS
10
7.07804
20
-9.51066
11
7.08366
21
-9.49941
0
LINE
8
BLACK
6
CONTINUOUS
10
7.08366
20
-9.49941
11
7.09491
21
-9.49379
0
LINE
8
BLACK
6
CONTINUOUS
10
7.09491
20
-9.49379
11
7.11178
21
-9.49379
0
LINE
8
BLACK
6
CONTINUOUS
10
7.11178
20
-9.49379
11
7.12303
21
-9.49941
0
LINE
8
BLACK
6
CONTINUOUS
10
7.12303
20
-9.49941
11
7.12866
21
-9.51066
0
LINE
8
BLACK
6
CONTINUOUS
10
7.12866
20
-9.51066
11
7.12866
21
-9.57253
0
LINE
8
BLACK
6
CONTINUOUS
10
7.35925
20
-9.44879
11
7.25801
21
-9.60065
0
LINE
8
BLACK
6
CONTINUOUS
10
7.51111
20
-9.45442
11
7.52236
21
-9.45442
0
LINE
8
BLACK
6
CONTINUOUS
10
7.52236
20
-9.45442
11
7.53361
21
-9.46004
0
LINE
8
BLACK
6
CONTINUOUS
10
7.53361
20
-9.46004
11
7.53923
21
-9.46566
0
LINE
8
BLACK
6
CONTINUOUS
10
7.53923
20
-9.46566
11
7.54485
21
-9.47691
0
LINE
8
BLACK
6
CONTINUOUS
10
7.54485
20
-9.47691
11
7.55048
21
-9.49941
0
LINE
8
BLACK
6
CONTINUOUS
10
7.55048
20
-9.49941
11
7.55048
21
-9.52753
0
LINE
8
BLACK
6
CONTINUOUS
10
7.55048
20
-9.52753
11
7.54485
21
-9.55003
0
LINE
8
BLACK
6
CONTINUOUS
10
7.54485
20
-9.55003
11
7.53923
21
-9.56128
0
LINE
8
BLACK
6
CONTINUOUS
10
7.53923
20
-9.56128
11
7.53361
21
-9.5669
0
LINE
8
BLACK
6
CONTINUOUS
10
7.53361
20
-9.5669
11
7.52236
21
-9.57253
0
LINE
8
BLACK
6
CONTINUOUS
10
7.52236
20
-9.57253
11
7.51111
21
-9.57253
0
LINE
8
BLACK
6
CONTINUOUS
10
7.51111
20
-9.57253
11
7.49986
21
-9.5669
0
LINE
8
BLACK
6
CONTINUOUS
10
7.49986
20
-9.5669
11
7.49424
21
-9.56128
0
LINE
8
BLACK
6
CONTINUOUS
10
7.49424
20
-9.56128
11
7.48861
21
-9.55003
0
LINE
8
BLACK
6
CONTINUOUS
10
7.48861
20
-9.55003
11
7.48299
21
-9.52753
0
LINE
8
BLACK
6
CONTINUOUS
10
7.48299
20
-9.52753
11
7.48299
21
-9.49941
0
LINE
8
BLACK
6
CONTINUOUS
10
7.48299
20
-9.49941
11
7.48861
21
-9.47691
0
LINE
8
BLACK
6
CONTINUOUS
10
7.48861
20
-9.47691
11
7.49424
21
-9.46566
0
LINE
8
BLACK
6
CONTINUOUS
10
7.49424
20
-9.46566
11
7.49986
21
-9.46004
0
LINE
8
BLACK
6
CONTINUOUS
10
7.49986
20
-9.46004
11
7.51111
21
-9.45442
0
LINE
8
BLACK
6
CONTINUOUS
10
7.6011
20
-9.56128
11
7.60672
21
-9.5669
0
LINE
8
BLACK
6
CONTINUOUS
10
7.60672
20
-9.5669
11
7.6011
21
-9.57253
0
LINE
8
BLACK
6
CONTINUOUS
10
7.6011
20
-9.57253
11
7.59547
21
-9.5669
0
LINE
8
BLACK
6
CONTINUOUS
10
7.59547
20
-9.5669
11
7.6011
21
-9.56128
0
LINE
8
BLACK
6
CONTINUOUS
10
7.6011
20
-9.56128
11
7.6011
21
-9.57253
0
LINE
8
BLACK
6
CONTINUOUS
10
7.67984
20
-9.45442
11
7.69109
21
-9.45442
0
LINE
8
BLACK
6
CONTINUOUS
10
7.69109
20
-9.45442
11
7.70233
21
-9.46004
0
LINE
8
BLACK
6
CONTINUOUS
10
7.70233
20
-9.46004
11
7.70796
21
-9.46566
0
LINE
8
BLACK
6
CONTINUOUS
10
7.70796
20
-9.46566
11
7.71358
21
-9.47691
0
LINE
8
BLACK
6
CONTINUOUS
10
7.71358
20
-9.47691
11
7.71921
21
-9.49941
0
LINE
8
BLACK
6
CONTINUOUS
10
7.71921
20
-9.49941
11
7.71921
21
-9.52753
0
LINE
8
BLACK
6
CONTINUOUS
10
7.71921
20
-9.52753
11
7.71358
21
-9.55003
0
LINE
8
BLACK
6
CONTINUOUS
10
7.71358
20
-9.55003
11
7.70796
21
-9.56128
0
LINE
8
BLACK
6
CONTINUOUS
10
7.70796
20
-9.56128
11
7.70233
21
-9.5669
0
LINE
8
BLACK
6
CONTINUOUS
10
7.70233
20
-9.5669
11
7.69109
21
-9.57253
0
LINE
8
BLACK
6
CONTINUOUS
10
7.69109
20
-9.57253
11
7.67984
21
-9.57253
0
LINE
8
BLACK
6
CONTINUOUS
10
7.67984
20
-9.57253
11
7.66859
21
-9.5669
0
LINE
8
BLACK
6
CONTINUOUS
10
7.66859
20
-9.5669
11
7.66296
21
-9.56128
0
LINE
8
BLACK
6
CONTINUOUS
10
7.66296
20
-9.56128
11
7.65734
21
-9.55003
0
LINE
8
BLACK
6
CONTINUOUS
10
7.65734
20
-9.55003
11
7.65172
21
-9.52753
0
LINE
8
BLACK
6
CONTINUOUS
10
7.65172
20
-9.52753
11
7.65172
21
-9.49941
0
LINE
8
BLACK
6
CONTINUOUS
10
7.65172
20
-9.49941
11
7.65734
21
-9.47691
0
LINE
8
BLACK
6
CONTINUOUS
10
7.65734
20
-9.47691
11
7.66296
21
-9.46566
0
LINE
8
BLACK
6
CONTINUOUS
10
7.66296
20
-9.46566
11
7.66859
21
-9.46004
0
LINE
8
BLACK
6
CONTINUOUS
10
7.66859
20
-9.46004
11
7.67984
21
-9.45442
0
LINE
8
BLACK
6
CONTINUOUS
10
7.75858
20
-9.45442
11
7.83169
21
-9.45442
0
LINE
8
BLACK
6
CONTINUOUS
10
7.83169
20
-9.45442
11
7.79232
21
-9.49941
0
LINE
8
BLACK
6
CONTINUOUS
10
7.79232
20
-9.49941
11
7.8092
21
-9.49941
0
LINE
8
BLACK
6
CONTINUOUS
10
7.8092
20
-9.49941
11
7.82044
21
-9.50503
0
LINE
8
BLACK
6
CONTINUOUS
10
7.82044
20
-9.50503
11
7.82607
21
-9.51066
0
LINE
8
BLACK
6
CONTINUOUS
10
7.82607
20
-9.51066
11
7.83169
21
-9.52191
0
LINE
8
BLACK
6
CONTINUOUS
10
7.83169
20
-9.52191
11
7.83169
21
-9.55003
0
LINE
8
BLACK
6
CONTINUOUS
10
7.83169
20
-9.55003
11
7.82607
21
-9.56128
0
LINE
8
BLACK
6
CONTINUOUS
10
7.82607
20
-9.56128
11
7.82044
21
-9.5669
0
LINE
8
BLACK
6
CONTINUOUS
10
7.82044
20
-9.5669
11
7.8092
21
-9.57253
0
LINE
8
BLACK
6
CONTINUOUS
10
7.8092
20
-9.57253
11
7.77545
21
-9.57253
0
LINE
8
BLACK
6
CONTINUOUS
10
7.77545
20
-9.57253
11
7.7642
21
-9.5669
0
LINE
8
BLACK
6
CONTINUOUS
10
7.7642
20
-9.5669
11
7.75858
21
-9.56128
0
LINE
8
BLACK
6
CONTINUOUS
10
7.88794
20
-9.57253
11
7.91043
21
-9.57253
0
LINE
8
BLACK
6
CONTINUOUS
10
7.91043
20
-9.57253
11
7.92168
21
-9.5669
0
LINE
8
BLACK
6
CONTINUOUS
10
7.92168
20
-9.5669
11
7.92731
21
-9.56128
0
LINE
8
BLACK
6
CONTINUOUS
10
7.92731
20
-9.56128
11
7.93855
21
-9.5444
0
LINE
8
BLACK
6
CONTINUOUS
10
7.93855
20
-9.5444
11
7.94418
21
-9.52191
0
LINE
8
BLACK
6
CONTINUOUS
10
7.94418
20
-9.52191
11
7.94418
21
-9.47691
0
LINE
8
BLACK
6
CONTINUOUS
10
7.94418
20
-9.47691
11
7.93855
21
-9.46566
0
LINE
8
BLACK
6
CONTINUOUS
10
7.93855
20
-9.46566
11
7.93293
21
-9.46004
0
LINE
8
BLACK
6
CONTINUOUS
10
7.93293
20
-9.46004
11
7.92168
21
-9.45442
0
LINE
8
BLACK
6
CONTINUOUS
10
7.92168
20
-9.45442
11
7.89918
21
-9.45442
0
LINE
8
BLACK
6
CONTINUOUS
10
7.89918
20
-9.45442
11
7.88794
21
-9.46004
0
LINE
8
BLACK
6
CONTINUOUS
10
7.88794
20
-9.46004
11
7.88231
21
-9.46566
0
LINE
8
BLACK
6
CONTINUOUS
10
7.88231
20
-9.46566
11
7.87669
21
-9.47691
0
LINE
8
BLACK
6
CONTINUOUS
10
7.87669
20
-9.47691
11
7.87669
21
-9.50503
0
LINE
8
BLACK
6
CONTINUOUS
10
7.87669
20
-9.50503
11
7.88231
21
-9.51628
0
LINE
8
BLACK
6
CONTINUOUS
10
7.88231
20
-9.51628
11
7.88794
21
-9.52191
0
LINE
8
BLACK
6
CONTINUOUS
10
7.88794
20
-9.52191
11
7.89918
21
-9.52753
0
LINE
8
BLACK
6
CONTINUOUS
10
7.89918
20
-9.52753
11
7.92168
21
-9.52753
0
LINE
8
BLACK
6
CONTINUOUS
10
7.92168
20
-9.52753
11
7.93293
21
-9.52191
0
LINE
8
BLACK
6
CONTINUOUS
10
7.93293
20
-9.52191
11
7.93855
21
-9.51628
0
LINE
8
BLACK
6
CONTINUOUS
10
7.93855
20
-9.51628
11
7.94418
21
-9.50503
0
LINE
8
BLACK
6
CONTINUOUS
10
8.04542
20
-9.49379
11
8.04542
21
-9.57253
0
LINE
8
BLACK
6
CONTINUOUS
10
8.01729
20
-9.44879
11
7.98917
21
-9.53316
0
LINE
8
BLACK
6
CONTINUOUS
10
7.98917
20
-9.53316
11
8.06229
21
-9.53316
0
LINE
8
BLACK
6
CONTINUOUS
10
8.10166
20
-9.45442
11
8.10166
21
-9.47691
0
LINE
8
BLACK
6
CONTINUOUS
10
8.14665
20
-9.45442
11
8.14665
21
-9.47691
0
LINE
8
BLACK
6
CONTINUOUS
10
8.32101
20
-9.61752
11
8.31538
21
-9.6119
0
LINE
8
BLACK
6
CONTINUOUS
10
8.31538
20
-9.6119
11
8.30413
21
-9.59502
0
LINE
8
BLACK
6
CONTINUOUS
10
8.30413
20
-9.59502
11
8.29851
21
-9.58377
0
LINE
8
BLACK
6
CONTINUOUS
10
8.29851
20
-9.58377
11
8.29289
21
-9.5669
0
LINE
8
BLACK
6
CONTINUOUS
10
8.29289
20
-9.5669
11
8.28726
21
-9.53878
0
LINE
8
BLACK
6
CONTINUOUS
10
8.28726
20
-9.53878
11
8.28726
21
-9.51628
0
LINE
8
BLACK
6
CONTINUOUS
10
8.28726
20
-9.51628
11
8.29289
21
-9.48816
0
LINE
8
BLACK
6
CONTINUOUS
10
8.29289
20
-9.48816
11
8.29851
21
-9.47129
0
LINE
8
BLACK
6
CONTINUOUS
10
8.29851
20
-9.47129
11
8.30413
21
-9.46004
0
LINE
8
BLACK
6
CONTINUOUS
10
8.30413
20
-9.46004
11
8.31538
21
-9.44317
0
LINE
8
BLACK
6
CONTINUOUS
10
8.31538
20
-9.44317
11
8.32101
21
-9.43754
0
LINE
8
BLACK
6
CONTINUOUS
10
8.41662
20
-9.49379
11
8.41662
21
-9.57253
0
LINE
8
BLACK
6
CONTINUOUS
10
8.3885
20
-9.44879
11
8.36038
21
-9.53316
0
LINE
8
BLACK
6
CONTINUOUS
10
8.36038
20
-9.53316
11
8.43349
21
-9.53316
0
LINE
8
BLACK
6
CONTINUOUS
10
8.56848
20
-9.57253
11
8.56848
21
-9.45442
0
LINE
8
BLACK
6
CONTINUOUS
10
8.61909
20
-9.57253
11
8.61909
21
-9.51066
0
LINE
8
BLACK
6
CONTINUOUS
10
8.61909
20
-9.51066
11
8.61347
21
-9.49941
0
LINE
8
BLACK
6
CONTINUOUS
10
8.61347
20
-9.49941
11
8.60222
21
-9.49379
0
LINE
8
BLACK
6
CONTINUOUS
10
8.60222
20
-9.49379
11
8.58535
21
-9.49379
0
LINE
8
BLACK
6
CONTINUOUS
10
8.58535
20
-9.49379
11
8.5741
21
-9.49941
0
LINE
8
BLACK
6
CONTINUOUS
10
8.5741
20
-9.49941
11
8.56848
21
-9.50503
0
LINE
8
BLACK
6
CONTINUOUS
10
8.69221
20
-9.57253
11
8.68096
21
-9.5669
0
LINE
8
BLACK
6
CONTINUOUS
10
8.68096
20
-9.5669
11
8.67534
21
-9.56128
0
LINE
8
BLACK
6
CONTINUOUS
10
8.67534
20
-9.56128
11
8.66971
21
-9.55003
0
LINE
8
BLACK
6
CONTINUOUS
10
8.66971
20
-9.55003
11
8.66971
21
-9.51628
0
LINE
8
BLACK
6
CONTINUOUS
10
8.66971
20
-9.51628
11
8.67534
21
-9.50503
0
LINE
8
BLACK
6
CONTINUOUS
10
8.67534
20
-9.50503
11
8.68096
21
-9.49941
0
LINE
8
BLACK
6
CONTINUOUS
10
8.68096
20
-9.49941
11
8.69221
21
-9.49379
0
LINE
8
BLACK
6
CONTINUOUS
10
8.69221
20
-9.49379
11
8.70908
21
-9.49379
0
LINE
8
BLACK
6
CONTINUOUS
10
8.70908
20
-9.49379
11
8.72033
21
-9.49941
0
LINE
8
BLACK
6
CONTINUOUS
10
8.72033
20
-9.49941
11
8.72596
21
-9.50503
0
LINE
8
BLACK
6
CONTINUOUS
10
8.72596
20
-9.50503
11
8.73158
21
-9.51628
0
LINE
8
BLACK
6
CONTINUOUS
10
8.73158
20
-9.51628
11
8.73158
21
-9.55003
0
LINE
8
BLACK
6
CONTINUOUS
10
8.73158
20
-9.55003
11
8.72596
21
-9.56128
0
LINE
8
BLACK
6
CONTINUOUS
10
8.72596
20
-9.56128
11
8.72033
21
-9.5669
0
LINE
8
BLACK
6
CONTINUOUS
10
8.72033
20
-9.5669
11
8.70908
21
-9.57253
0
LINE
8
BLACK
6
CONTINUOUS
10
8.70908
20
-9.57253
11
8.69221
21
-9.57253
0
LINE
8
BLACK
6
CONTINUOUS
10
8.79907
20
-9.57253
11
8.78782
21
-9.5669
0
LINE
8
BLACK
6
CONTINUOUS
10
8.78782
20
-9.5669
11
8.7822
21
-9.55565
0
LINE
8
BLACK
6
CONTINUOUS
10
8.7822
20
-9.55565
11
8.7822
21
-9.45442
0
LINE
8
BLACK
6
CONTINUOUS
10
8.88906
20
-9.5669
11
8.87781
21
-9.57253
0
LINE
8
BLACK
6
CONTINUOUS
10
8.87781
20
-9.57253
11
8.85531
21
-9.57253
0
LINE
8
BLACK
6
CONTINUOUS
10
8.85531
20
-9.57253
11
8.84407
21
-9.5669
0
LINE
8
BLACK
6
CONTINUOUS
10
8.84407
20
-9.5669
11
8.83844
21
-9.55565
0
LINE
8
BLACK
6
CONTINUOUS
10
8.83844
20
-9.55565
11
8.83844
21
-9.51066
0
LINE
8
BLACK
6
CONTINUOUS
10
8.83844
20
-9.51066
11
8.84407
21
-9.49941
0
LINE
8
BLACK
6
CONTINUOUS
10
8.84407
20
-9.49941
11
8.85531
21
-9.49379
0
LINE
8
BLACK
6
CONTINUOUS
10
8.85531
20
-9.49379
11
8.87781
21
-9.49379
0
LINE
8
BLACK
6
CONTINUOUS
10
8.87781
20
-9.49379
11
8.88906
21
-9.49941
0
LINE
8
BLACK
6
CONTINUOUS
10
8.88906
20
-9.49941
11
8.89468
21
-9.51066
0
LINE
8
BLACK
6
CONTINUOUS
10
8.89468
20
-9.51066
11
8.89468
21
-9.52191
0
LINE
8
BLACK
6
CONTINUOUS
10
8.89468
20
-9.52191
11
8.83844
21
-9.53316
0
LINE
8
BLACK
6
CONTINUOUS
10
8.93968
20
-9.5669
11
8.95093
21
-9.57253
0
LINE
8
BLACK
6
CONTINUOUS
10
8.95093
20
-9.57253
11
8.97343
21
-9.57253
0
LINE
8
BLACK
6
CONTINUOUS
10
8.97343
20
-9.57253
11
8.98467
21
-9.5669
0
LINE
8
BLACK
6
CONTINUOUS
10
8.98467
20
-9.5669
11
8.9903
21
-9.55565
0
LINE
8
BLACK
6
CONTINUOUS
10
8.9903
20
-9.55565
11
8.9903
21
-9.55003
0
LINE
8
BLACK
6
CONTINUOUS
10
8.9903
20
-9.55003
11
8.98467
21
-9.53878
0
LINE
8
BLACK
6
CONTINUOUS
10
8.98467
20
-9.53878
11
8.97343
21
-9.53316
0
LINE
8
BLACK
6
CONTINUOUS
10
8.97343
20
-9.53316
11
8.95655
21
-9.53316
0
LINE
8
BLACK
6
CONTINUOUS
10
8.95655
20
-9.53316
11
8.9453
21
-9.52753
0
LINE
8
BLACK
6
CONTINUOUS
10
8.9453
20
-9.52753
11
8.93968
21
-9.51628
0
LINE
8
BLACK
6
CONTINUOUS
10
8.93968
20
-9.51628
11
8.93968
21
-9.51066
0
LINE
8
BLACK
6
CONTINUOUS
10
8.93968
20
-9.51066
11
8.9453
21
-9.49941
0
LINE
8
BLACK
6
CONTINUOUS
10
8.9453
20
-9.49941
11
8.95655
21
-9.49379
0
LINE
8
BLACK
6
CONTINUOUS
10
8.95655
20
-9.49379
11
8.97343
21
-9.49379
0
LINE
8
BLACK
6
CONTINUOUS
10
8.97343
20
-9.49379
11
8.98467
21
-9.49941
0
LINE
8
BLACK
6
CONTINUOUS
10
9.02967
20
-9.61752
11
9.03529
21
-9.6119
0
LINE
8
BLACK
6
CONTINUOUS
10
9.03529
20
-9.6119
11
9.04654
21
-9.59502
0
LINE
8
BLACK
6
CONTINUOUS
10
9.04654
20
-9.59502
11
9.05217
21
-9.58377
0
LINE
8
BLACK
6
CONTINUOUS
10
9.05217
20
-9.58377
11
9.05779
21
-9.5669
0
LINE
8
BLACK
6
CONTINUOUS
10
9.05779
20
-9.5669
11
9.06341
21
-9.53878
0
LINE
8
BLACK
6
CONTINUOUS
10
9.06341
20
-9.53878
11
9.06341
21
-9.51628
0
LINE
8
BLACK
6
CONTINUOUS
10
9.06341
20
-9.51628
11
9.05779
21
-9.48816
0
LINE
8
BLACK
6
CONTINUOUS
10
9.05779
20
-9.48816
11
9.05217
21
-9.47129
0
LINE
8
BLACK
6
CONTINUOUS
10
9.05217
20
-9.47129
11
9.04654
21
-9.46004
0
LINE
8
BLACK
6
CONTINUOUS
10
9.04654
20
-9.46004
11
9.03529
21
-9.44317
0
LINE
8
BLACK
6
CONTINUOUS
10
9.03529
20
-9.44317
11
9.02967
21
-9.43754
0
LINE
8
BLACK
6
CONTINUOUS
10
9.24339
20
-9.61752
11
9.23777
21
-9.6119
0
LINE
8
BLACK
6
CONTINUOUS
10
9.23777
20
-9.6119
11
9.22652
21
-9.59502
0
LINE
8
BLACK
6
CONTINUOUS
10
9.22652
20
-9.59502
11
9.22089
21
-9.58377
0
LINE
8
BLACK
6
CONTINUOUS
10
9.22089
20
-9.58377
11
9.21527
21
-9.5669
0
LINE
8
BLACK
6
CONTINUOUS
10
9.21527
20
-9.5669
11
9.20965
21
-9.53878
0
LINE
8
BLACK
6
CONTINUOUS
10
9.20965
20
-9.53878
11
9.20965
21
-9.51628
0
LINE
8
BLACK
6
CONTINUOUS
10
9.20965
20
-9.51628
11
9.21527
21
-9.48816
0
LINE
8
BLACK
6
CONTINUOUS
10
9.21527
20
-9.48816
11
9.22089
21
-9.47129
0
LINE
8
BLACK
6
CONTINUOUS
10
9.22089
20
-9.47129
11
9.22652
21
-9.46004
0
LINE
8
BLACK
6
CONTINUOUS
10
9.22652
20
-9.46004
11
9.23777
21
-9.44317
0
LINE
8
BLACK
6
CONTINUOUS
10
9.23777
20
-9.44317
11
9.24339
21
-9.43754
0
LINE
8
BLACK
6
CONTINUOUS
10
9.28839
20
-9.49379
11
9.28839
21
-9.57253
0
LINE
8
BLACK
6
CONTINUOUS
10
9.28839
20
-9.50503
11
9.29401
21
-9.49941
0
LINE
8
BLACK
6
CONTINUOUS
10
9.29401
20
-9.49941
11
9.30526
21
-9.49379
0
LINE
8
BLACK
6
CONTINUOUS
10
9.30526
20
-9.49379
11
9.32213
21
-9.49379
0
LINE
8
BLACK
6
CONTINUOUS
10
9.32213
20
-9.49379
11
9.33338
21
-9.49941
0
LINE
8
BLACK
6
CONTINUOUS
10
9.33338
20
-9.49941
11
9.339
21
-9.51066
0
LINE
8
BLACK
6
CONTINUOUS
10
9.339
20
-9.51066
11
9.339
21
-9.57253
0
LINE
8
BLACK
6
CONTINUOUS
10
9.41212
20
-9.57253
11
9.40087
21
-9.5669
0
LINE
8
BLACK
6
CONTINUOUS
10
9.40087
20
-9.5669
11
9.39525
21
-9.56128
0
LINE
8
BLACK
6
CONTINUOUS
10
9.39525
20
-9.56128
11
9.38962
21
-9.55003
0
LINE
8
BLACK
6
CONTINUOUS
10
9.38962
20
-9.55003
11
9.38962
21
-9.51628
0
LINE
8
BLACK
6
CONTINUOUS
10
9.38962
20
-9.51628
11
9.39525
21
-9.50503
0
LINE
8
BLACK
6
CONTINUOUS
10
9.39525
20
-9.50503
11
9.40087
21
-9.49941
0
LINE
8
BLACK
6
CONTINUOUS
10
9.40087
20
-9.49941
11
9.41212
21
-9.49379
0
LINE
8
BLACK
6
CONTINUOUS
10
9.41212
20
-9.49379
11
9.42899
21
-9.49379
0
LINE
8
BLACK
6
CONTINUOUS
10
9.42899
20
-9.49379
11
9.44024
21
-9.49941
0
LINE
8
BLACK
6
CONTINUOUS
10
9.44024
20
-9.49941
11
9.44587
21
-9.50503
0
LINE
8
BLACK
6
CONTINUOUS
10
9.44587
20
-9.50503
11
9.45149
21
-9.51628
0
LINE
8
BLACK
6
CONTINUOUS
10
9.45149
20
-9.51628
11
9.45149
21
-9.55003
0
LINE
8
BLACK
6
CONTINUOUS
10
9.45149
20
-9.55003
11
9.44587
21
-9.56128
0
LINE
8
BLACK
6
CONTINUOUS
10
9.44587
20
-9.56128
11
9.44024
21
-9.5669
0
LINE
8
BLACK
6
CONTINUOUS
10
9.44024
20
-9.5669
11
9.42899
21
-9.57253
0
LINE
8
BLACK
6
CONTINUOUS
10
9.42899
20
-9.57253
11
9.41212
21
-9.57253
0
LINE
8
BLACK
6
CONTINUOUS
10
9.48524
20
-9.49379
11
9.53023
21
-9.49379
0
LINE
8
BLACK
6
CONTINUOUS
10
9.50211
20
-9.45442
11
9.50211
21
-9.55565
0
LINE
8
BLACK
6
CONTINUOUS
10
9.50211
20
-9.55565
11
9.50773
21
-9.5669
0
LINE
8
BLACK
6
CONTINUOUS
10
9.50773
20
-9.5669
11
9.51898
21
-9.57253
0
LINE
8
BLACK
6
CONTINUOUS
10
9.51898
20
-9.57253
11
9.53023
21
-9.57253
0
LINE
8
BLACK
6
CONTINUOUS
10
9.65959
20
-9.49379
11
9.65959
21
-9.6119
0
LINE
8
BLACK
6
CONTINUOUS
10
9.65959
20
-9.49941
11
9.67084
21
-9.49379
0
LINE
8
BLACK
6
CONTINUOUS
10
9.67084
20
-9.49379
11
9.69334
21
-9.49379
0
LINE
8
BLACK
6
CONTINUOUS
10
9.69334
20
-9.49379
11
9.70458
21
-9.49941
0
LINE
8
BLACK
6
CONTINUOUS
10
9.70458
20
-9.49941
11
9.71021
21
-9.50503
0
LINE
8
BLACK
6
CONTINUOUS
10
9.71021
20
-9.50503
11
9.71583
21
-9.51628
0
LINE
8
BLACK
6
CONTINUOUS
10
9.71583
20
-9.51628
11
9.71583
21
-9.55003
0
LINE
8
BLACK
6
CONTINUOUS
10
9.71583
20
-9.55003
11
9.71021
21
-9.56128
0
LINE
8
BLACK
6
CONTINUOUS
10
9.71021
20
-9.56128
11
9.70458
21
-9.5669
0
LINE
8
BLACK
6
CONTINUOUS
10
9.70458
20
-9.5669
11
9.69334
21
-9.57253
0
LINE
8
BLACK
6
CONTINUOUS
10
9.69334
20
-9.57253
11
9.67084
21
-9.57253
0
LINE
8
BLACK
6
CONTINUOUS
10
9.67084
20
-9.57253
11
9.65959
21
-9.5669
0
LINE
8
BLACK
6
CONTINUOUS
10
9.78332
20
-9.57253
11
9.77208
21
-9.5669
0
LINE
8
BLACK
6
CONTINUOUS
10
9.77208
20
-9.5669
11
9.76645
21
-9.55565
0
LINE
8
BLACK
6
CONTINUOUS
10
9.76645
20
-9.55565
11
9.76645
21
-9.45442
0
LINE
8
BLACK
6
CONTINUOUS
10
9.87894
20
-9.57253
11
9.87894
21
-9.51066
0
LINE
8
BLACK
6
CONTINUOUS
10
9.87894
20
-9.51066
11
9.87331
21
-9.49941
0
LINE
8
BLACK
6
CONTINUOUS
10
9.87331
20
-9.49941
11
9.86206
21
-9.49379
0
LINE
8
BLACK
6
CONTINUOUS
10
9.86206
20
-9.49379
11
9.83957
21
-9.49379
0
LINE
8
BLACK
6
CONTINUOUS
10
9.83957
20
-9.49379
11
9.82832
21
-9.49941
0
LINE
8
BLACK
6
CONTINUOUS
10
9.87894
20
-9.5669
11
9.86769
21
-9.57253
0
LINE
8
BLACK
6
CONTINUOUS
10
9.86769
20
-9.57253
11
9.83957
21
-9.57253
0
LINE
8
BLACK
6
CONTINUOUS
10
9.83957
20
-9.57253
11
9.82832
21
-9.5669
0
LINE
8
BLACK
6
CONTINUOUS
10
9.82832
20
-9.5669
11
9.82269
21
-9.55565
0
LINE
8
BLACK
6
CONTINUOUS
10
9.82269
20
-9.55565
11
9.82269
21
-9.5444
0
LINE
8
BLACK
6
CONTINUOUS
10
9.82269
20
-9.5444
11
9.82832
21
-9.53316
0
LINE
8
BLACK
6
CONTINUOUS
10
9.82832
20
-9.53316
11
9.83957
21
-9.52753
0
LINE
8
BLACK
6
CONTINUOUS
10
9.83957
20
-9.52753
11
9.86769
21
-9.52753
0
LINE
8
BLACK
6
CONTINUOUS
10
9.86769
20
-9.52753
11
9.87894
21
-9.52191
0
LINE
8
BLACK
6
CONTINUOUS
10
9.91831
20
-9.49379
11
9.9633
21
-9.49379
0
LINE
8
BLACK
6
CONTINUOUS
10
9.93518
20
-9.45442
11
9.93518
21
-9.55565
0
LINE
8
BLACK
6
CONTINUOUS
10
9.93518
20
-9.55565
11
9.9408
21
-9.5669
0
LINE
8
BLACK
6
CONTINUOUS
10
9.9408
20
-9.5669
11
9.95205
21
-9.57253
0
LINE
8
BLACK
6
CONTINUOUS
10
9.95205
20
-9.57253
11
9.9633
21
-9.57253
0
LINE
8
BLACK
6
CONTINUOUS
10
10.0477
20
-9.5669
11
10.0364
21
-9.57253
0
LINE
8
BLACK
6
CONTINUOUS
10
10.0364
20
-9.57253
11
10.0139
21
-9.57253
0
LINE
8
BLACK
6
CONTINUOUS
10
10.0139
20
-9.57253
11
10.0027
21
-9.5669
0
LINE
8
BLACK
6
CONTINUOUS
10
10.0027
20
-9.5669
11
9.99705
21
-9.55565
0
LINE
8
BLACK
6
CONTINUOUS
10
9.99705
20
-9.55565
11
9.99705
21
-9.51066
0
LINE
8
BLACK
6
CONTINUOUS
10
9.99705
20
-9.51066
11
10.0027
21
-9.49941
0
LINE
8
BLACK
6
CONTINUOUS
10
10.0027
20
-9.49941
11
10.0139
21
-9.49379
0
LINE
8
BLACK
6
CONTINUOUS
10
10.0139
20
-9.49379
11
10.0364
21
-9.49379
0
LINE
8
BLACK
6
CONTINUOUS
10
10.0364
20
-9.49379
11
10.0477
21
-9.49941
0
LINE
8
BLACK
6
CONTINUOUS
10
10.0477
20
-9.49941
11
10.0533
21
-9.51066
0
LINE
8
BLACK
6
CONTINUOUS
10
10.0533
20
-9.51066
11
10.0533
21
-9.52191
0
LINE
8
BLACK
6
CONTINUOUS
10
10.0533
20
-9.52191
11
9.99705
21
-9.53316
0
LINE
8
BLACK
6
CONTINUOUS
10
10.1545
20
-9.57253
11
10.1545
21
-9.45442
0
LINE
8
BLACK
6
CONTINUOUS
10
10.1545
20
-9.5669
11
10.1433
21
-9.57253
0
LINE
8
BLACK
6
CONTINUOUS
10
10.1433
20
-9.57253
11
10.1208
21
-9.57253
0
LINE
8
BLACK
6
CONTINUOUS
10
10.1208
20
-9.57253
11
10.1095
21
-9.5669
0
LINE
8
BLACK
6
CONTINUOUS
10
10.1095
20
-9.5669
11
10.1039
21
-9.56128
0
LINE
8
BLACK
6
CONTINUOUS
10
10.1039
20
-9.56128
11
10.0983
21
-9.55003
0
LINE
8
BLACK
6
CONTINUOUS
10
10.0983
20
-9.55003
11
10.0983
21
-9.51628
0
LINE
8
BLACK
6
CONTINUOUS
10
10.0983
20
-9.51628
11
10.1039
21
-9.50503
0
LINE
8
BLACK
6
CONTINUOUS
10
10.1039
20
-9.50503
11
10.1095
21
-9.49941
0
LINE
8
BLACK
6
CONTINUOUS
10
10.1095
20
-9.49941
11
10.1208
21
-9.49379
0
LINE
8
BLACK
6
CONTINUOUS
10
10.1208
20
-9.49379
11
10.1433
21
-9.49379
0
LINE
8
BLACK
6
CONTINUOUS
10
10.1433
20
-9.49379
11
10.1545
21
-9.49941
0
LINE
8
BLACK
6
CONTINUOUS
10
10.1995
20
-9.61752
11
10.2051
21
-9.6119
0
LINE
8
BLACK
6
CONTINUOUS
10
10.2051
20
-9.6119
11
10.2164
21
-9.59502
0
LINE
8
BLACK
6
CONTINUOUS
10
10.2164
20
-9.59502
11
10.222
21
-9.58377
0
LINE
8
BLACK
6
CONTINUOUS
10
10.222
20
-9.58377
11
10.2276
21
-9.5669
0
LINE
8
BLACK
6
CONTINUOUS
10
10.2276
20
-9.5669
11
10.2333
21
-9.53878
0
LINE
8
BLACK
6
CONTINUOUS
10
10.2333
20
-9.53878
11
10.2333
21
-9.51628
0
LINE
8
BLACK
6
CONTINUOUS
10
10.2333
20
-9.51628
11
10.2276
21
-9.48816
0
LINE
8
BLACK
6
CONTINUOUS
10
10.2276
20
-9.48816
11
10.222
21
-9.47129
0
LINE
8
BLACK
6
CONTINUOUS
10
10.222
20
-9.47129
11
10.2164
21
-9.46004
0
LINE
8
BLACK
6
CONTINUOUS
10
10.2164
20
-9.46004
11
10.2051
21
-9.44317
0
LINE
8
BLACK
6
CONTINUOUS
10
10.2051
20
-9.44317
11
10.1995
21
-9.43754
  0
ENDSEC
  0
EOF
