%TF.GenerationSoftware,KiCad,Pcbnew,(5.1.10)-1*%
%TF.CreationDate,2021-10-19T18:18:53+02:00*%
%TF.ProjectId,hard_cam_usb_production,68617264-5f63-4616-9d5f-7573625f7072,rev?*%
%TF.SameCoordinates,Original*%
%TF.FileFunction,Copper,L1,Top*%
%TF.FilePolarity,Positive*%
%FSLAX46Y46*%
G04 Gerber Fmt 4.6, Leading zero omitted, Abs format (unit mm)*
G04 Created by KiCad (PCBNEW (5.1.10)-1) date 2021-10-19 18:18:53*
%MOMM*%
%LPD*%
G01*
G04 APERTURE LIST*
%TA.AperFunction,SMDPad,CuDef*%
%ADD10R,0.500000X2.500000*%
%TD*%
%TA.AperFunction,SMDPad,CuDef*%
%ADD11R,2.000000X2.500000*%
%TD*%
%TA.AperFunction,SMDPad,CuDef*%
%ADD12R,0.520000X1.000000*%
%TD*%
%TA.AperFunction,SMDPad,CuDef*%
%ADD13R,0.300000X0.900000*%
%TD*%
%TA.AperFunction,ComponentPad*%
%ADD14C,0.800000*%
%TD*%
%TA.AperFunction,ComponentPad*%
%ADD15C,6.400000*%
%TD*%
%TA.AperFunction,SMDPad,CuDef*%
%ADD16R,0.900000X0.300000*%
%TD*%
%TA.AperFunction,SMDPad,CuDef*%
%ADD17R,1.000000X0.520000*%
%TD*%
%TA.AperFunction,ViaPad*%
%ADD18C,0.635000*%
%TD*%
%TA.AperFunction,ViaPad*%
%ADD19C,0.508000*%
%TD*%
%TA.AperFunction,Conductor*%
%ADD20C,0.191262*%
%TD*%
%TA.AperFunction,Conductor*%
%ADD21C,0.254000*%
%TD*%
%TA.AperFunction,Conductor*%
%ADD22C,0.203200*%
%TD*%
%TA.AperFunction,Conductor*%
%ADD23C,0.381000*%
%TD*%
%TA.AperFunction,Conductor*%
%ADD24C,0.200000*%
%TD*%
%TA.AperFunction,Conductor*%
%ADD25C,0.100000*%
%TD*%
G04 APERTURE END LIST*
%TO.P,J6,1*%
%TO.N,VCC*%
%TA.AperFunction,SMDPad,CuDef*%
G36*
G01*
X167525000Y-226137500D02*
X167525000Y-223662500D01*
G75*
G02*
X167662500Y-223525000I137500J0D01*
G01*
X167937500Y-223525000D01*
G75*
G02*
X168075000Y-223662500I0J-137500D01*
G01*
X168075000Y-226137500D01*
G75*
G02*
X167937500Y-226275000I-137500J0D01*
G01*
X167662500Y-226275000D01*
G75*
G02*
X167525000Y-226137500I0J137500D01*
G01*
G37*
%TD.AperFunction*%
%TO.P,J6,2*%
%TO.N,/D3_-*%
%TA.AperFunction,SMDPad,CuDef*%
G36*
G01*
X168325000Y-226137500D02*
X168325000Y-223662500D01*
G75*
G02*
X168462500Y-223525000I137500J0D01*
G01*
X168737500Y-223525000D01*
G75*
G02*
X168875000Y-223662500I0J-137500D01*
G01*
X168875000Y-226137500D01*
G75*
G02*
X168737500Y-226275000I-137500J0D01*
G01*
X168462500Y-226275000D01*
G75*
G02*
X168325000Y-226137500I0J137500D01*
G01*
G37*
%TD.AperFunction*%
%TO.P,J6,3*%
%TO.N,/D3_+*%
%TA.AperFunction,SMDPad,CuDef*%
G36*
G01*
X169125000Y-226137500D02*
X169125000Y-223662500D01*
G75*
G02*
X169262500Y-223525000I137500J0D01*
G01*
X169537500Y-223525000D01*
G75*
G02*
X169675000Y-223662500I0J-137500D01*
G01*
X169675000Y-226137500D01*
G75*
G02*
X169537500Y-226275000I-137500J0D01*
G01*
X169262500Y-226275000D01*
G75*
G02*
X169125000Y-226137500I0J137500D01*
G01*
G37*
%TD.AperFunction*%
%TO.P,J6,4*%
%TO.N,/id3*%
%TA.AperFunction,SMDPad,CuDef*%
G36*
G01*
X169925000Y-226137500D02*
X169925000Y-223662500D01*
G75*
G02*
X170062500Y-223525000I137500J0D01*
G01*
X170337500Y-223525000D01*
G75*
G02*
X170475000Y-223662500I0J-137500D01*
G01*
X170475000Y-226137500D01*
G75*
G02*
X170337500Y-226275000I-137500J0D01*
G01*
X170062500Y-226275000D01*
G75*
G02*
X169925000Y-226137500I0J137500D01*
G01*
G37*
%TD.AperFunction*%
%TO.P,J6,5*%
%TO.N,GND*%
%TA.AperFunction,SMDPad,CuDef*%
G36*
G01*
X170725000Y-226137500D02*
X170725000Y-223662500D01*
G75*
G02*
X170862500Y-223525000I137500J0D01*
G01*
X171137500Y-223525000D01*
G75*
G02*
X171275000Y-223662500I0J-137500D01*
G01*
X171275000Y-226137500D01*
G75*
G02*
X171137500Y-226275000I-137500J0D01*
G01*
X170862500Y-226275000D01*
G75*
G02*
X170725000Y-226137500I0J137500D01*
G01*
G37*
%TD.AperFunction*%
%TO.P,J6,6*%
%TA.AperFunction,SMDPad,CuDef*%
G36*
G01*
X172550000Y-225150000D02*
X172550000Y-223850000D01*
G75*
G02*
X173200000Y-223200000I650000J0D01*
G01*
X175000000Y-223200000D01*
G75*
G02*
X175650000Y-223850000I0J-650000D01*
G01*
X175650000Y-225150000D01*
G75*
G02*
X175000000Y-225800000I-650000J0D01*
G01*
X173200000Y-225800000D01*
G75*
G02*
X172550000Y-225150000I0J650000D01*
G01*
G37*
%TD.AperFunction*%
%TO.P,J6,7*%
%TA.AperFunction,SMDPad,CuDef*%
G36*
G01*
X163150000Y-225150000D02*
X163150000Y-223850000D01*
G75*
G02*
X163800000Y-223200000I650000J0D01*
G01*
X165600000Y-223200000D01*
G75*
G02*
X166250000Y-223850000I0J-650000D01*
G01*
X166250000Y-225150000D01*
G75*
G02*
X165600000Y-225800000I-650000J0D01*
G01*
X163800000Y-225800000D01*
G75*
G02*
X163150000Y-225150000I0J650000D01*
G01*
G37*
%TD.AperFunction*%
%TD*%
D10*
%TO.P,J2,5*%
%TO.N,GND*%
X223000000Y-198900000D03*
%TO.P,J2,4*%
%TO.N,/id*%
X222200000Y-198900000D03*
%TO.P,J2,3*%
%TO.N,/D+*%
X221400000Y-198900000D03*
%TO.P,J2,2*%
%TO.N,/D-*%
X220600000Y-198900000D03*
%TO.P,J2,1*%
%TO.N,VCC*%
X219800000Y-198900000D03*
D11*
%TO.P,J2,6*%
%TO.N,GND*%
X225800000Y-198900000D03*
X217000000Y-198900000D03*
X225800000Y-204400000D03*
X217000000Y-204400000D03*
%TD*%
D12*
%TO.P,J1,7*%
%TO.N,GND*%
X223526500Y-185033500D03*
%TO.P,J1,6*%
X227006500Y-185033500D03*
D13*
%TO.P,J1,5*%
%TO.N,VCC*%
X224266500Y-186233500D03*
%TO.P,J1,4*%
%TO.N,/D-*%
X224766500Y-186233500D03*
%TO.P,J1,3*%
%TO.N,/D+*%
X225266500Y-186233500D03*
%TO.P,J1,2*%
%TO.N,/id*%
X225766500Y-186233500D03*
%TO.P,J1,1*%
%TO.N,GND*%
X226266500Y-186233500D03*
%TD*%
D14*
%TO.P,H1,1*%
%TO.N,GND*%
X239797056Y-176102944D03*
X238100000Y-175400000D03*
X236402944Y-176102944D03*
X235700000Y-177800000D03*
X236402944Y-179497056D03*
X238100000Y-180200000D03*
X239797056Y-179497056D03*
X240500000Y-177800000D03*
D15*
X238100000Y-177800000D03*
%TD*%
%TO.P,H2,1*%
%TO.N,GND*%
X238100000Y-201700000D03*
D14*
X240500000Y-201700000D03*
X239797056Y-203397056D03*
X238100000Y-204100000D03*
X236402944Y-203397056D03*
X235700000Y-201700000D03*
X236402944Y-200002944D03*
X238100000Y-199300000D03*
X239797056Y-200002944D03*
%TD*%
%TO.P,J4,1*%
%TO.N,VCC*%
%TA.AperFunction,SMDPad,CuDef*%
G36*
G01*
X184380500Y-216131000D02*
X186855500Y-216131000D01*
G75*
G02*
X186993000Y-216268500I0J-137500D01*
G01*
X186993000Y-216543500D01*
G75*
G02*
X186855500Y-216681000I-137500J0D01*
G01*
X184380500Y-216681000D01*
G75*
G02*
X184243000Y-216543500I0J137500D01*
G01*
X184243000Y-216268500D01*
G75*
G02*
X184380500Y-216131000I137500J0D01*
G01*
G37*
%TD.AperFunction*%
%TO.P,J4,2*%
%TO.N,/D2_-*%
%TA.AperFunction,SMDPad,CuDef*%
G36*
G01*
X184380500Y-216931000D02*
X186855500Y-216931000D01*
G75*
G02*
X186993000Y-217068500I0J-137500D01*
G01*
X186993000Y-217343500D01*
G75*
G02*
X186855500Y-217481000I-137500J0D01*
G01*
X184380500Y-217481000D01*
G75*
G02*
X184243000Y-217343500I0J137500D01*
G01*
X184243000Y-217068500D01*
G75*
G02*
X184380500Y-216931000I137500J0D01*
G01*
G37*
%TD.AperFunction*%
%TO.P,J4,3*%
%TO.N,/D2_+*%
%TA.AperFunction,SMDPad,CuDef*%
G36*
G01*
X184380500Y-217731000D02*
X186855500Y-217731000D01*
G75*
G02*
X186993000Y-217868500I0J-137500D01*
G01*
X186993000Y-218143500D01*
G75*
G02*
X186855500Y-218281000I-137500J0D01*
G01*
X184380500Y-218281000D01*
G75*
G02*
X184243000Y-218143500I0J137500D01*
G01*
X184243000Y-217868500D01*
G75*
G02*
X184380500Y-217731000I137500J0D01*
G01*
G37*
%TD.AperFunction*%
%TO.P,J4,4*%
%TO.N,/id2*%
%TA.AperFunction,SMDPad,CuDef*%
G36*
G01*
X184380500Y-218531000D02*
X186855500Y-218531000D01*
G75*
G02*
X186993000Y-218668500I0J-137500D01*
G01*
X186993000Y-218943500D01*
G75*
G02*
X186855500Y-219081000I-137500J0D01*
G01*
X184380500Y-219081000D01*
G75*
G02*
X184243000Y-218943500I0J137500D01*
G01*
X184243000Y-218668500D01*
G75*
G02*
X184380500Y-218531000I137500J0D01*
G01*
G37*
%TD.AperFunction*%
%TO.P,J4,5*%
%TO.N,GND*%
%TA.AperFunction,SMDPad,CuDef*%
G36*
G01*
X184380500Y-219331000D02*
X186855500Y-219331000D01*
G75*
G02*
X186993000Y-219468500I0J-137500D01*
G01*
X186993000Y-219743500D01*
G75*
G02*
X186855500Y-219881000I-137500J0D01*
G01*
X184380500Y-219881000D01*
G75*
G02*
X184243000Y-219743500I0J137500D01*
G01*
X184243000Y-219468500D01*
G75*
G02*
X184380500Y-219331000I137500J0D01*
G01*
G37*
%TD.AperFunction*%
%TO.P,J4,6*%
%TA.AperFunction,SMDPad,CuDef*%
G36*
G01*
X185368000Y-221156000D02*
X186668000Y-221156000D01*
G75*
G02*
X187318000Y-221806000I0J-650000D01*
G01*
X187318000Y-223606000D01*
G75*
G02*
X186668000Y-224256000I-650000J0D01*
G01*
X185368000Y-224256000D01*
G75*
G02*
X184718000Y-223606000I0J650000D01*
G01*
X184718000Y-221806000D01*
G75*
G02*
X185368000Y-221156000I650000J0D01*
G01*
G37*
%TD.AperFunction*%
%TO.P,J4,7*%
%TA.AperFunction,SMDPad,CuDef*%
G36*
G01*
X185368000Y-211756000D02*
X186668000Y-211756000D01*
G75*
G02*
X187318000Y-212406000I0J-650000D01*
G01*
X187318000Y-214206000D01*
G75*
G02*
X186668000Y-214856000I-650000J0D01*
G01*
X185368000Y-214856000D01*
G75*
G02*
X184718000Y-214206000I0J650000D01*
G01*
X184718000Y-212406000D01*
G75*
G02*
X185368000Y-211756000I650000J0D01*
G01*
G37*
%TD.AperFunction*%
%TD*%
%TO.P,H5,1*%
%TO.N,GND*%
X207197056Y-179897056D03*
X207900000Y-178200000D03*
X207197056Y-176502944D03*
X205500000Y-175800000D03*
X203802944Y-176502944D03*
X203100000Y-178200000D03*
X203802944Y-179897056D03*
X205500000Y-180600000D03*
D15*
X205500000Y-178200000D03*
%TD*%
D16*
%TO.P,J3,1*%
%TO.N,GND*%
X211700000Y-154900000D03*
%TO.P,J3,2*%
%TO.N,/id2*%
X211700000Y-154400000D03*
%TO.P,J3,3*%
%TO.N,/D2_+*%
X211700000Y-153900000D03*
%TO.P,J3,4*%
%TO.N,/D2_-*%
X211700000Y-153400000D03*
%TO.P,J3,5*%
%TO.N,VCC*%
X211700000Y-152900000D03*
D17*
%TO.P,J3,6*%
%TO.N,GND*%
X212900000Y-155640000D03*
%TO.P,J3,7*%
X212900000Y-152160000D03*
%TD*%
D14*
%TO.P,H6,1*%
%TO.N,GND*%
X217597056Y-224597056D03*
X218300000Y-222900000D03*
X217597056Y-221202944D03*
X215900000Y-220500000D03*
X214202944Y-221202944D03*
X213500000Y-222900000D03*
X214202944Y-224597056D03*
X215900000Y-225300000D03*
D15*
X215900000Y-222900000D03*
%TD*%
%TO.P,H8,1*%
%TO.N,GND*%
X187600000Y-202700000D03*
D14*
X187600000Y-205100000D03*
X185902944Y-204397056D03*
X185200000Y-202700000D03*
X185902944Y-201002944D03*
X187600000Y-200300000D03*
X189297056Y-201002944D03*
X190000000Y-202700000D03*
X189297056Y-204397056D03*
%TD*%
D15*
%TO.P,H4,1*%
%TO.N,GND*%
X184600000Y-171700000D03*
D14*
X187000000Y-171700000D03*
X186297056Y-173397056D03*
X184600000Y-174100000D03*
X182902944Y-173397056D03*
X182200000Y-171700000D03*
X182902944Y-170002944D03*
X184600000Y-169300000D03*
X186297056Y-170002944D03*
%TD*%
D12*
%TO.P,J5,7*%
%TO.N,GND*%
X170026500Y-155033500D03*
%TO.P,J5,6*%
X173506500Y-155033500D03*
D13*
%TO.P,J5,5*%
%TO.N,VCC*%
X170766500Y-156233500D03*
%TO.P,J5,4*%
%TO.N,/D3_-*%
X171266500Y-156233500D03*
%TO.P,J5,3*%
%TO.N,/D3_+*%
X171766500Y-156233500D03*
%TO.P,J5,2*%
%TO.N,/id3*%
X172266500Y-156233500D03*
%TO.P,J5,1*%
%TO.N,GND*%
X172766500Y-156233500D03*
%TD*%
D15*
%TO.P,H3,1*%
%TO.N,GND*%
X184600000Y-147800000D03*
D14*
X187000000Y-147800000D03*
X186297056Y-149497056D03*
X184600000Y-150200000D03*
X182902944Y-149497056D03*
X182200000Y-147800000D03*
X182902944Y-146102944D03*
X184600000Y-145400000D03*
X186297056Y-146102944D03*
%TD*%
D15*
%TO.P,H7,1*%
%TO.N,GND*%
X172600000Y-210600000D03*
D14*
X175000000Y-210600000D03*
X174297056Y-212297056D03*
X172600000Y-213000000D03*
X170902944Y-212297056D03*
X170200000Y-210600000D03*
X170902944Y-208902944D03*
X172600000Y-208200000D03*
X174297056Y-208902944D03*
%TD*%
D18*
%TO.N,*%
X212400000Y-190550000D03*
X212400000Y-191450000D03*
X212400000Y-192350000D03*
X180900000Y-211850000D03*
X180900000Y-210950000D03*
X180900000Y-212750000D03*
D19*
%TO.N,GND*%
X175200000Y-225400000D03*
X175100000Y-223700000D03*
X177500000Y-195000000D03*
X180000000Y-182000000D03*
X187500000Y-151500000D03*
X165000000Y-150500000D03*
X177500000Y-215000000D03*
X186000000Y-176000000D03*
X187500000Y-156500000D03*
X187500000Y-166500000D03*
X169500000Y-150500000D03*
X187500000Y-161500000D03*
X177500000Y-185000000D03*
X174500000Y-150500000D03*
X183000000Y-179000000D03*
X179500000Y-150500000D03*
X177500000Y-200000000D03*
X170500000Y-158250000D03*
X165000000Y-172000000D03*
X161000000Y-211500000D03*
X165000000Y-157000000D03*
X178500000Y-171000000D03*
X182500000Y-155000000D03*
X165000000Y-182000000D03*
X165000000Y-187000000D03*
X181000000Y-159000000D03*
X165000000Y-192000000D03*
X177500000Y-225000000D03*
X163500000Y-200000000D03*
X161000000Y-221500000D03*
X179500000Y-165000000D03*
X165000000Y-197000000D03*
X161000000Y-206500000D03*
X161000000Y-202500000D03*
X165000000Y-177000000D03*
X165000000Y-153000000D03*
X177500000Y-178000000D03*
X165000000Y-167000000D03*
X165000000Y-162000000D03*
X161000000Y-216500000D03*
X165000000Y-216000000D03*
X172500000Y-158250000D03*
X175800000Y-169600000D03*
X184000000Y-163000000D03*
X173000000Y-168600000D03*
X175600000Y-187400000D03*
X169600000Y-196800000D03*
X167400000Y-204600000D03*
X169600000Y-163800000D03*
X173000000Y-161600000D03*
X176800000Y-161400000D03*
X173000000Y-191800000D03*
X169600000Y-183800000D03*
X173000000Y-180600000D03*
X174400000Y-219000000D03*
X173000000Y-200000000D03*
X167600000Y-211000000D03*
X171200000Y-204400000D03*
X169600000Y-174200000D03*
X170000000Y-216200000D03*
D18*
X165400000Y-224500000D03*
X164300000Y-223700000D03*
X164300000Y-225400000D03*
D19*
X174300000Y-156200000D03*
X174700000Y-155000000D03*
X177500000Y-210000000D03*
X177500000Y-205000000D03*
X177500000Y-190000000D03*
X177500000Y-220000000D03*
X168900000Y-155000000D03*
X216905500Y-204434500D03*
X216969000Y-198910000D03*
X225795500Y-198910000D03*
X227891000Y-185003500D03*
X225795500Y-204371000D03*
X223382500Y-197005000D03*
X223827000Y-198910000D03*
X222747500Y-185003500D03*
X212900000Y-156400000D03*
X212900000Y-151300000D03*
X211700000Y-155500000D03*
X185618000Y-220582000D03*
X186018000Y-222706000D03*
X186000000Y-213300000D03*
X187900000Y-222700000D03*
X187500000Y-219900000D03*
X215650000Y-180500000D03*
X220650000Y-180500000D03*
X225650000Y-180500000D03*
X230650000Y-180500000D03*
X234150000Y-180500000D03*
X240900000Y-182000000D03*
X240900000Y-187000000D03*
X240900000Y-192000000D03*
X240900000Y-197000000D03*
X235150000Y-205750000D03*
X230150000Y-205750000D03*
X223400000Y-205750000D03*
X218900000Y-205750000D03*
X216150000Y-201750000D03*
X215900000Y-195750000D03*
X215900000Y-190750000D03*
X215900000Y-185750000D03*
X217650000Y-182750000D03*
X224150000Y-188250000D03*
X225900000Y-188500000D03*
X219900000Y-195250000D03*
X222150000Y-195250000D03*
X221100000Y-192400000D03*
X222900000Y-190300000D03*
X223900000Y-193500000D03*
X225900000Y-191417000D03*
X235900000Y-185750000D03*
X235900000Y-190250000D03*
X235900000Y-194500000D03*
X232900000Y-199750000D03*
X228650000Y-195500000D03*
X229400000Y-191000000D03*
X219900000Y-188250000D03*
X219900000Y-182500000D03*
X209100000Y-151200000D03*
X205100000Y-151200000D03*
X201100000Y-151200000D03*
X198100000Y-151200000D03*
X198100000Y-155200000D03*
X198100000Y-159200000D03*
X197600000Y-163200000D03*
X197600000Y-167200000D03*
X197600000Y-171200000D03*
X197600000Y-175200000D03*
X197600000Y-179200000D03*
X197600000Y-183200000D03*
X197600000Y-187200000D03*
X197600000Y-191200000D03*
X197600000Y-195200000D03*
X197600000Y-199200000D03*
X195600000Y-200200000D03*
X192100000Y-200200000D03*
X184100000Y-206200000D03*
X184100000Y-210200000D03*
X186600000Y-225200000D03*
X190100000Y-226200000D03*
X194100000Y-226200000D03*
X198100000Y-226200000D03*
X202100000Y-226200000D03*
X206100000Y-226200000D03*
X210100000Y-226200000D03*
X210100000Y-222200000D03*
X210100000Y-218200000D03*
X210100000Y-214200000D03*
X209100000Y-210200000D03*
X209100000Y-206200000D03*
X209100000Y-202200000D03*
X209100000Y-198200000D03*
X209100000Y-194200000D03*
X209100000Y-190200000D03*
X209100000Y-186200000D03*
X209100000Y-182200000D03*
X209100000Y-175200000D03*
X209100000Y-171200000D03*
X209100000Y-167200000D03*
X209100000Y-163200000D03*
X209100000Y-159700000D03*
X211100000Y-157200000D03*
X205600000Y-164200000D03*
X203600000Y-169200000D03*
X203100000Y-185700000D03*
X205600000Y-194700000D03*
X202600000Y-200200000D03*
X205100000Y-207700000D03*
X202600000Y-214200000D03*
X205100000Y-219700000D03*
X200100000Y-222700000D03*
X192600000Y-223200000D03*
X198600000Y-218200000D03*
X191100000Y-209200000D03*
X194600000Y-205200000D03*
X201100000Y-154200000D03*
X198600000Y-212200000D03*
X194600000Y-216200000D03*
X209400000Y-153100000D03*
X209600000Y-155800000D03*
X206100000Y-159400000D03*
X206000000Y-155700000D03*
X202100000Y-159600000D03*
X198500000Y-207200000D03*
X196700000Y-209300000D03*
X194100000Y-212000000D03*
X192400000Y-214000000D03*
X201600000Y-163900000D03*
X174100000Y-224500000D03*
%TO.N,/id*%
X222493500Y-196433500D03*
X226430500Y-187480000D03*
%TO.N,/D+*%
X225395500Y-187607000D03*
X221348500Y-195925500D03*
%TO.N,/D-*%
X220590500Y-195925500D03*
X224637500Y-187607000D03*
D18*
%TO.N,VCC*%
X169300000Y-157700000D03*
X169300000Y-156700000D03*
D19*
X219800000Y-196978500D03*
X223065000Y-187099000D03*
X222811000Y-186146500D03*
X219064500Y-198910000D03*
X210800000Y-152200000D03*
X209900000Y-152200000D03*
X190800000Y-215200000D03*
X190200000Y-215800000D03*
X165400000Y-219600000D03*
X164500000Y-218700000D03*
%TO.N,/id2*%
X210400000Y-155500000D03*
X188900000Y-219100000D03*
X201300000Y-170500000D03*
X201300000Y-172900000D03*
X201300000Y-188100000D03*
X201300000Y-191400000D03*
X201300000Y-201300000D03*
X201300000Y-203200000D03*
%TO.N,/D2_+*%
X210416998Y-154029000D03*
X188700000Y-217979000D03*
%TO.N,/D2_-*%
X210416998Y-153271000D03*
X188700000Y-217221000D03*
%TO.N,/D3_-*%
X171137500Y-157516332D03*
X168621000Y-222000000D03*
%TO.N,/D3_+*%
X171895500Y-157516332D03*
X169379000Y-222000000D03*
%TO.N,/id3*%
X173500000Y-157500000D03*
X170300000Y-221500000D03*
%TD*%
D20*
%TO.N,GND*%
X174266500Y-156233500D02*
X174300000Y-156200000D01*
X172766500Y-156233500D02*
X174266500Y-156233500D01*
X173506500Y-155033500D02*
X174666500Y-155033500D01*
X172766500Y-156233500D02*
X172766500Y-155773500D01*
X170026500Y-155033500D02*
X168933500Y-155033500D01*
X174666500Y-155033500D02*
X174700000Y-155000000D01*
X172766500Y-155773500D02*
X173506500Y-155033500D01*
X168933500Y-155033500D02*
X168900000Y-155000000D01*
D21*
X223000000Y-198900000D02*
X223000000Y-197387500D01*
X223000000Y-198900000D02*
X223817000Y-198900000D01*
X227006500Y-185033500D02*
X227861000Y-185033500D01*
X222777500Y-185033500D02*
X222747500Y-185003500D01*
X223000000Y-197387500D02*
X223382500Y-197005000D01*
X227861000Y-185033500D02*
X227891000Y-185003500D01*
X223526500Y-185033500D02*
X222777500Y-185033500D01*
X223817000Y-198900000D02*
X223827000Y-198910000D01*
X212900000Y-155640000D02*
X212900000Y-156400000D01*
X212900000Y-152160000D02*
X212900000Y-151300000D01*
X211700000Y-154900000D02*
X211700000Y-155500000D01*
X211840000Y-155640000D02*
X211700000Y-155500000D01*
X212900000Y-155640000D02*
X211840000Y-155640000D01*
D22*
X185618000Y-222306000D02*
X186018000Y-222706000D01*
X185618000Y-219606000D02*
X185618000Y-220582000D01*
X185618000Y-220582000D02*
X185618000Y-222306000D01*
X186006000Y-213306000D02*
X186000000Y-213300000D01*
X186018000Y-213306000D02*
X186006000Y-213306000D01*
X187894000Y-222706000D02*
X187900000Y-222700000D01*
X186018000Y-222706000D02*
X187894000Y-222706000D01*
X187206000Y-219606000D02*
X187500000Y-219900000D01*
X185618000Y-219606000D02*
X187206000Y-219606000D01*
D23*
X173700000Y-224900000D02*
X174100000Y-224500000D01*
X171000000Y-224900000D02*
X173700000Y-224900000D01*
D20*
%TO.N,/id*%
X222200000Y-196727000D02*
X222200000Y-198900000D01*
X225766500Y-186233500D02*
X225766500Y-186816000D01*
X225766500Y-186816000D02*
X226430500Y-187480000D01*
X222493500Y-196433500D02*
X222200000Y-196727000D01*
D24*
%TO.N,/D+*%
X221348500Y-195925500D02*
X221194500Y-196079500D01*
X225241500Y-186933501D02*
X225241500Y-187453000D01*
X225241500Y-187453000D02*
X225395500Y-187607000D01*
X225266500Y-186908501D02*
X225241500Y-186933501D01*
X225266500Y-186233500D02*
X225266500Y-186908501D01*
X221194500Y-196079500D02*
X221194500Y-197132000D01*
D20*
X221400000Y-198900000D02*
X221400000Y-197337500D01*
X221400000Y-197337500D02*
X221194500Y-197132000D01*
D24*
%TO.N,/D-*%
X224791500Y-187453000D02*
X224637500Y-187607000D01*
D20*
X220600000Y-197276500D02*
X220744500Y-197132000D01*
D24*
X224766500Y-186233500D02*
X224766500Y-186908501D01*
X224766500Y-186908501D02*
X224791500Y-186933501D01*
X220744500Y-196079500D02*
X220744500Y-197132000D01*
X220590500Y-195925500D02*
X220744500Y-196079500D01*
D20*
X220600000Y-198900000D02*
X220600000Y-197276500D01*
D24*
X224791500Y-186933501D02*
X224791500Y-187453000D01*
D21*
%TO.N,VCC*%
X169300000Y-156700000D02*
X169300000Y-157700000D01*
X169766500Y-156233500D02*
X169300000Y-156700000D01*
X170766500Y-156233500D02*
X169766500Y-156233500D01*
X219800000Y-198900000D02*
X219074500Y-198900000D01*
X219074500Y-198900000D02*
X219064500Y-198910000D01*
X224266500Y-186233500D02*
X223930500Y-186233500D01*
X223930500Y-186233500D02*
X223065000Y-187099000D01*
X219800000Y-198900000D02*
X219800000Y-196978500D01*
X222898000Y-186233500D02*
X222811000Y-186146500D01*
X224266500Y-186233500D02*
X222898000Y-186233500D01*
X211500000Y-152900000D02*
X210800000Y-152200000D01*
X211700000Y-152900000D02*
X211500000Y-152900000D01*
D23*
X189594000Y-216406000D02*
X185618000Y-216406000D01*
X190800000Y-215200000D02*
X190200000Y-215800000D01*
X190200000Y-215800000D02*
X189594000Y-216406000D01*
D21*
X211700000Y-152900000D02*
X211700000Y-152100000D01*
X211700000Y-152100000D02*
X211200000Y-151600000D01*
X210500000Y-151600000D02*
X209900000Y-152200000D01*
X211200000Y-151600000D02*
X210500000Y-151600000D01*
D23*
X165400000Y-219600000D02*
X166100000Y-219600000D01*
X167800000Y-221300000D02*
X167800000Y-224900000D01*
X166100000Y-219600000D02*
X167800000Y-221300000D01*
X165400000Y-219600000D02*
X164500000Y-218700000D01*
D22*
%TO.N,/id2*%
X210400000Y-155046800D02*
X210400000Y-155500000D01*
X211046800Y-154400000D02*
X210400000Y-155046800D01*
X211700000Y-154400000D02*
X211046800Y-154400000D01*
X188606000Y-218806000D02*
X185618000Y-218806000D01*
X188900000Y-219100000D02*
X188606000Y-218806000D01*
D24*
%TO.N,/D2_+*%
X188700000Y-217979000D02*
X188546000Y-217825000D01*
X188546000Y-217825000D02*
X187500000Y-217825000D01*
D20*
X187319000Y-218006000D02*
X187500000Y-217825000D01*
X185618000Y-218006000D02*
X187319000Y-218006000D01*
D24*
X210545998Y-153900000D02*
X210416998Y-154029000D01*
X211700000Y-153900000D02*
X210545998Y-153900000D01*
%TO.N,/D2_-*%
X188700000Y-217221000D02*
X188546000Y-217375000D01*
X188546000Y-217375000D02*
X187500000Y-217375000D01*
D20*
X187331000Y-217206000D02*
X187500000Y-217375000D01*
X185618000Y-217206000D02*
X187331000Y-217206000D01*
D24*
X210545998Y-153400000D02*
X210416998Y-153271000D01*
X211700000Y-153400000D02*
X210545998Y-153400000D01*
%TO.N,/D3_-*%
X171266500Y-156233500D02*
X171266500Y-156908501D01*
X171291500Y-157362332D02*
X171137500Y-157516332D01*
X171266500Y-156908501D02*
X171291500Y-156933501D01*
X171291500Y-156933501D02*
X171291500Y-157362332D01*
X168775000Y-224725000D02*
X168600000Y-224900000D01*
X168775000Y-222154000D02*
X168775000Y-224725000D01*
X168621000Y-222000000D02*
X168775000Y-222154000D01*
%TO.N,/D3_+*%
X171766500Y-156233500D02*
X171766500Y-156908501D01*
X171741500Y-157362332D02*
X171895500Y-157516332D01*
X171766500Y-156908501D02*
X171741500Y-156933501D01*
X171741500Y-156933501D02*
X171741500Y-157362332D01*
X169225000Y-224725000D02*
X169400000Y-224900000D01*
X169225000Y-222154000D02*
X169225000Y-224725000D01*
X169379000Y-222000000D02*
X169225000Y-222154000D01*
D20*
%TO.N,/id3*%
X172891738Y-157500000D02*
X173500000Y-157500000D01*
X172266500Y-156233500D02*
X172266500Y-156874762D01*
X172266500Y-156874762D02*
X172891738Y-157500000D01*
D22*
X170200000Y-221600000D02*
X170200000Y-224900000D01*
X170300000Y-221500000D02*
X170200000Y-221600000D01*
%TD*%
D21*
%TO.N,GND*%
X235975553Y-174832737D02*
X235613861Y-175277940D01*
X238100000Y-177764079D01*
X240586139Y-175277940D01*
X240224447Y-174832737D01*
X240214501Y-174827000D01*
X241973000Y-174827000D01*
X241973000Y-206573000D01*
X214727000Y-206573000D01*
X214727000Y-205650000D01*
X215566111Y-205650000D01*
X215574448Y-205734648D01*
X215599139Y-205816042D01*
X215639234Y-205891056D01*
X215693194Y-205956806D01*
X215758944Y-206010766D01*
X215833958Y-206050861D01*
X215915352Y-206075552D01*
X216000000Y-206083889D01*
X216866650Y-206081800D01*
X216974600Y-205973850D01*
X216974600Y-204425400D01*
X217025400Y-204425400D01*
X217025400Y-205973850D01*
X217133350Y-206081800D01*
X218000000Y-206083889D01*
X218084648Y-206075552D01*
X218166042Y-206050861D01*
X218241056Y-206010766D01*
X218306806Y-205956806D01*
X218360766Y-205891056D01*
X218400861Y-205816042D01*
X218425552Y-205734648D01*
X218433889Y-205650000D01*
X224366111Y-205650000D01*
X224374448Y-205734648D01*
X224399139Y-205816042D01*
X224439234Y-205891056D01*
X224493194Y-205956806D01*
X224558944Y-206010766D01*
X224633958Y-206050861D01*
X224715352Y-206075552D01*
X224800000Y-206083889D01*
X225666650Y-206081800D01*
X225774600Y-205973850D01*
X225774600Y-204425400D01*
X225825400Y-204425400D01*
X225825400Y-205973850D01*
X225933350Y-206081800D01*
X226800000Y-206083889D01*
X226884648Y-206075552D01*
X226966042Y-206050861D01*
X227041056Y-206010766D01*
X227106806Y-205956806D01*
X227160766Y-205891056D01*
X227200861Y-205816042D01*
X227225552Y-205734648D01*
X227233889Y-205650000D01*
X227231800Y-204533350D01*
X227123850Y-204425400D01*
X225825400Y-204425400D01*
X225774600Y-204425400D01*
X224476150Y-204425400D01*
X224368200Y-204533350D01*
X224366111Y-205650000D01*
X218433889Y-205650000D01*
X218431800Y-204533350D01*
X218323850Y-204425400D01*
X217025400Y-204425400D01*
X216974600Y-204425400D01*
X215676150Y-204425400D01*
X215568200Y-204533350D01*
X215566111Y-205650000D01*
X214727000Y-205650000D01*
X214727000Y-203150000D01*
X215566111Y-203150000D01*
X215568200Y-204266650D01*
X215676150Y-204374600D01*
X216974600Y-204374600D01*
X216974600Y-202826150D01*
X217025400Y-202826150D01*
X217025400Y-204374600D01*
X218323850Y-204374600D01*
X218431800Y-204266650D01*
X218433889Y-203150000D01*
X224366111Y-203150000D01*
X224368200Y-204266650D01*
X224476150Y-204374600D01*
X225774600Y-204374600D01*
X225774600Y-202826150D01*
X225825400Y-202826150D01*
X225825400Y-204374600D01*
X227123850Y-204374600D01*
X227231800Y-204266650D01*
X227231883Y-204222060D01*
X235613861Y-204222060D01*
X235975553Y-204667263D01*
X236595258Y-205024707D01*
X237272790Y-205254384D01*
X237982110Y-205347468D01*
X238695962Y-205300382D01*
X239386910Y-205114935D01*
X240028403Y-204798255D01*
X240224447Y-204667263D01*
X240586139Y-204222060D01*
X238100000Y-201735921D01*
X235613861Y-204222060D01*
X227231883Y-204222060D01*
X227233889Y-203150000D01*
X227225552Y-203065352D01*
X227200861Y-202983958D01*
X227160766Y-202908944D01*
X227106806Y-202843194D01*
X227041056Y-202789234D01*
X226966042Y-202749139D01*
X226884648Y-202724448D01*
X226800000Y-202716111D01*
X225933350Y-202718200D01*
X225825400Y-202826150D01*
X225774600Y-202826150D01*
X225666650Y-202718200D01*
X224800000Y-202716111D01*
X224715352Y-202724448D01*
X224633958Y-202749139D01*
X224558944Y-202789234D01*
X224493194Y-202843194D01*
X224439234Y-202908944D01*
X224399139Y-202983958D01*
X224374448Y-203065352D01*
X224366111Y-203150000D01*
X218433889Y-203150000D01*
X218425552Y-203065352D01*
X218400861Y-202983958D01*
X218360766Y-202908944D01*
X218306806Y-202843194D01*
X218241056Y-202789234D01*
X218166042Y-202749139D01*
X218084648Y-202724448D01*
X218000000Y-202716111D01*
X217133350Y-202718200D01*
X217025400Y-202826150D01*
X216974600Y-202826150D01*
X216866650Y-202718200D01*
X216000000Y-202716111D01*
X215915352Y-202724448D01*
X215833958Y-202749139D01*
X215758944Y-202789234D01*
X215693194Y-202843194D01*
X215639234Y-202908944D01*
X215599139Y-202983958D01*
X215574448Y-203065352D01*
X215566111Y-203150000D01*
X214727000Y-203150000D01*
X214727000Y-201413150D01*
X218318200Y-201413150D01*
X218318200Y-201586850D01*
X218352087Y-201757212D01*
X218418559Y-201917689D01*
X218515061Y-202062115D01*
X218637885Y-202184939D01*
X218782311Y-202281441D01*
X218942788Y-202347913D01*
X219113150Y-202381800D01*
X219286850Y-202381800D01*
X219457212Y-202347913D01*
X219617689Y-202281441D01*
X219762115Y-202184939D01*
X219884939Y-202062115D01*
X219981441Y-201917689D01*
X220047913Y-201757212D01*
X220081800Y-201586850D01*
X220081800Y-201413150D01*
X222718200Y-201413150D01*
X222718200Y-201586850D01*
X222752087Y-201757212D01*
X222818559Y-201917689D01*
X222915061Y-202062115D01*
X223037885Y-202184939D01*
X223182311Y-202281441D01*
X223342788Y-202347913D01*
X223513150Y-202381800D01*
X223686850Y-202381800D01*
X223857212Y-202347913D01*
X224017689Y-202281441D01*
X224162115Y-202184939D01*
X224284939Y-202062115D01*
X224381441Y-201917689D01*
X224447913Y-201757212D01*
X224481800Y-201586850D01*
X224481800Y-201582110D01*
X234452532Y-201582110D01*
X234499618Y-202295962D01*
X234685065Y-202986910D01*
X235001745Y-203628403D01*
X235132737Y-203824447D01*
X235577940Y-204186139D01*
X238064079Y-201700000D01*
X238135921Y-201700000D01*
X240622060Y-204186139D01*
X241067263Y-203824447D01*
X241424707Y-203204742D01*
X241654384Y-202527210D01*
X241747468Y-201817890D01*
X241700382Y-201104038D01*
X241514935Y-200413090D01*
X241198255Y-199771597D01*
X241067263Y-199575553D01*
X240622060Y-199213861D01*
X238135921Y-201700000D01*
X238064079Y-201700000D01*
X235577940Y-199213861D01*
X235132737Y-199575553D01*
X234775293Y-200195258D01*
X234545616Y-200872790D01*
X234452532Y-201582110D01*
X224481800Y-201582110D01*
X224481800Y-201413150D01*
X224447913Y-201242788D01*
X224381441Y-201082311D01*
X224284939Y-200937885D01*
X224162115Y-200815061D01*
X224017689Y-200718559D01*
X223857212Y-200652087D01*
X223686850Y-200618200D01*
X223513150Y-200618200D01*
X223342788Y-200652087D01*
X223182311Y-200718559D01*
X223037885Y-200815061D01*
X222915061Y-200937885D01*
X222818559Y-201082311D01*
X222752087Y-201242788D01*
X222718200Y-201413150D01*
X220081800Y-201413150D01*
X220047913Y-201242788D01*
X219981441Y-201082311D01*
X219884939Y-200937885D01*
X219762115Y-200815061D01*
X219617689Y-200718559D01*
X219457212Y-200652087D01*
X219286850Y-200618200D01*
X219113150Y-200618200D01*
X218942788Y-200652087D01*
X218782311Y-200718559D01*
X218637885Y-200815061D01*
X218515061Y-200937885D01*
X218418559Y-201082311D01*
X218352087Y-201242788D01*
X218318200Y-201413150D01*
X214727000Y-201413150D01*
X214727000Y-200150000D01*
X215566111Y-200150000D01*
X215574448Y-200234648D01*
X215599139Y-200316042D01*
X215639234Y-200391056D01*
X215693194Y-200456806D01*
X215758944Y-200510766D01*
X215833958Y-200550861D01*
X215915352Y-200575552D01*
X216000000Y-200583889D01*
X216866650Y-200581800D01*
X216974600Y-200473850D01*
X216974600Y-198925400D01*
X215676150Y-198925400D01*
X215568200Y-199033350D01*
X215566111Y-200150000D01*
X214727000Y-200150000D01*
X214727000Y-197650000D01*
X215566111Y-197650000D01*
X215568200Y-198766650D01*
X215676150Y-198874600D01*
X216974600Y-198874600D01*
X216974600Y-197326150D01*
X217025400Y-197326150D01*
X217025400Y-198874600D01*
X217045400Y-198874600D01*
X217045400Y-198925400D01*
X217025400Y-198925400D01*
X217025400Y-200473850D01*
X217133350Y-200581800D01*
X218000000Y-200583889D01*
X218084648Y-200575552D01*
X218166042Y-200550861D01*
X218241056Y-200510766D01*
X218306806Y-200456806D01*
X218360766Y-200391056D01*
X218400861Y-200316042D01*
X218425552Y-200234648D01*
X218433889Y-200150000D01*
X218432065Y-199175249D01*
X218456752Y-199234848D01*
X218531805Y-199347172D01*
X218627328Y-199442695D01*
X218739652Y-199517748D01*
X218864460Y-199569445D01*
X218996955Y-199595800D01*
X219116111Y-199595800D01*
X219116111Y-200150000D01*
X219124448Y-200234648D01*
X219149139Y-200316042D01*
X219189234Y-200391056D01*
X219243194Y-200456806D01*
X219308944Y-200510766D01*
X219383958Y-200550861D01*
X219465352Y-200575552D01*
X219550000Y-200583889D01*
X220050000Y-200583889D01*
X220134648Y-200575552D01*
X220200000Y-200555727D01*
X220265352Y-200575552D01*
X220350000Y-200583889D01*
X220850000Y-200583889D01*
X220934648Y-200575552D01*
X221000000Y-200555727D01*
X221065352Y-200575552D01*
X221150000Y-200583889D01*
X221650000Y-200583889D01*
X221734648Y-200575552D01*
X221800000Y-200555727D01*
X221865352Y-200575552D01*
X221950000Y-200583889D01*
X222450000Y-200583889D01*
X222534648Y-200575552D01*
X222600000Y-200555727D01*
X222665352Y-200575552D01*
X222750000Y-200583889D01*
X222866650Y-200581800D01*
X222974600Y-200473850D01*
X222974600Y-198925400D01*
X223025400Y-198925400D01*
X223025400Y-200473850D01*
X223133350Y-200581800D01*
X223250000Y-200583889D01*
X223334648Y-200575552D01*
X223416042Y-200550861D01*
X223491056Y-200510766D01*
X223556806Y-200456806D01*
X223610766Y-200391056D01*
X223650861Y-200316042D01*
X223675552Y-200234648D01*
X223683889Y-200150000D01*
X224366111Y-200150000D01*
X224374448Y-200234648D01*
X224399139Y-200316042D01*
X224439234Y-200391056D01*
X224493194Y-200456806D01*
X224558944Y-200510766D01*
X224633958Y-200550861D01*
X224715352Y-200575552D01*
X224800000Y-200583889D01*
X225666650Y-200581800D01*
X225774600Y-200473850D01*
X225774600Y-198925400D01*
X225825400Y-198925400D01*
X225825400Y-200473850D01*
X225933350Y-200581800D01*
X226800000Y-200583889D01*
X226884648Y-200575552D01*
X226966042Y-200550861D01*
X227041056Y-200510766D01*
X227106806Y-200456806D01*
X227160766Y-200391056D01*
X227200861Y-200316042D01*
X227225552Y-200234648D01*
X227233889Y-200150000D01*
X227232071Y-199177940D01*
X235613861Y-199177940D01*
X238100000Y-201664079D01*
X240586139Y-199177940D01*
X240224447Y-198732737D01*
X239604742Y-198375293D01*
X238927210Y-198145616D01*
X238217890Y-198052532D01*
X237504038Y-198099618D01*
X236813090Y-198285065D01*
X236171597Y-198601745D01*
X235975553Y-198732737D01*
X235613861Y-199177940D01*
X227232071Y-199177940D01*
X227231800Y-199033350D01*
X227123850Y-198925400D01*
X225825400Y-198925400D01*
X225774600Y-198925400D01*
X224476150Y-198925400D01*
X224368200Y-199033350D01*
X224366111Y-200150000D01*
X223683889Y-200150000D01*
X223681800Y-199033350D01*
X223573850Y-198925400D01*
X223025400Y-198925400D01*
X222974600Y-198925400D01*
X222954600Y-198925400D01*
X222954600Y-198874600D01*
X222974600Y-198874600D01*
X222974600Y-197326150D01*
X223025400Y-197326150D01*
X223025400Y-198874600D01*
X223573850Y-198874600D01*
X223681800Y-198766650D01*
X223683889Y-197650000D01*
X224366111Y-197650000D01*
X224368200Y-198766650D01*
X224476150Y-198874600D01*
X225774600Y-198874600D01*
X225774600Y-197326150D01*
X225825400Y-197326150D01*
X225825400Y-198874600D01*
X227123850Y-198874600D01*
X227231800Y-198766650D01*
X227233889Y-197650000D01*
X227225552Y-197565352D01*
X227200861Y-197483958D01*
X227160766Y-197408944D01*
X227106806Y-197343194D01*
X227041056Y-197289234D01*
X226966042Y-197249139D01*
X226884648Y-197224448D01*
X226800000Y-197216111D01*
X225933350Y-197218200D01*
X225825400Y-197326150D01*
X225774600Y-197326150D01*
X225666650Y-197218200D01*
X224800000Y-197216111D01*
X224715352Y-197224448D01*
X224633958Y-197249139D01*
X224558944Y-197289234D01*
X224493194Y-197343194D01*
X224439234Y-197408944D01*
X224399139Y-197483958D01*
X224374448Y-197565352D01*
X224366111Y-197650000D01*
X223683889Y-197650000D01*
X223675552Y-197565352D01*
X223650861Y-197483958D01*
X223610766Y-197408944D01*
X223556806Y-197343194D01*
X223491056Y-197289234D01*
X223416042Y-197249139D01*
X223334648Y-197224448D01*
X223250000Y-197216111D01*
X223133350Y-197218200D01*
X223025400Y-197326150D01*
X222974600Y-197326150D01*
X222866650Y-197218200D01*
X222750000Y-197216111D01*
X222727431Y-197218334D01*
X222727431Y-197078907D01*
X222818348Y-197041248D01*
X222930672Y-196966195D01*
X223026195Y-196870672D01*
X223101248Y-196758348D01*
X223152945Y-196633540D01*
X223179300Y-196501045D01*
X223179300Y-196365955D01*
X223152945Y-196233460D01*
X223101248Y-196108652D01*
X223026195Y-195996328D01*
X222930672Y-195900805D01*
X222818348Y-195825752D01*
X222693540Y-195774055D01*
X222561045Y-195747700D01*
X222425955Y-195747700D01*
X222293460Y-195774055D01*
X222168652Y-195825752D01*
X222056328Y-195900805D01*
X222034300Y-195922833D01*
X222034300Y-195857955D01*
X222007945Y-195725460D01*
X221956248Y-195600652D01*
X221881195Y-195488328D01*
X221785672Y-195392805D01*
X221673348Y-195317752D01*
X221548540Y-195266055D01*
X221416045Y-195239700D01*
X221280955Y-195239700D01*
X221148460Y-195266055D01*
X221023652Y-195317752D01*
X220969500Y-195353935D01*
X220915348Y-195317752D01*
X220790540Y-195266055D01*
X220658045Y-195239700D01*
X220522955Y-195239700D01*
X220390460Y-195266055D01*
X220265652Y-195317752D01*
X220153328Y-195392805D01*
X220057805Y-195488328D01*
X219982752Y-195600652D01*
X219931055Y-195725460D01*
X219904700Y-195857955D01*
X219904700Y-195993045D01*
X219931055Y-196125540D01*
X219982752Y-196250348D01*
X220039614Y-196335447D01*
X220000040Y-196319055D01*
X219867545Y-196292700D01*
X219732455Y-196292700D01*
X219599960Y-196319055D01*
X219475152Y-196370752D01*
X219362828Y-196445805D01*
X219267305Y-196541328D01*
X219192252Y-196653652D01*
X219140555Y-196778460D01*
X219114200Y-196910955D01*
X219114200Y-197046045D01*
X219140555Y-197178540D01*
X219192252Y-197303348D01*
X219229790Y-197359527D01*
X219189234Y-197408944D01*
X219149139Y-197483958D01*
X219124448Y-197565352D01*
X219116111Y-197650000D01*
X219116111Y-198224200D01*
X218996955Y-198224200D01*
X218864460Y-198250555D01*
X218739652Y-198302252D01*
X218627328Y-198377305D01*
X218531805Y-198472828D01*
X218456752Y-198585152D01*
X218432028Y-198644842D01*
X218433889Y-197650000D01*
X218425552Y-197565352D01*
X218400861Y-197483958D01*
X218360766Y-197408944D01*
X218306806Y-197343194D01*
X218241056Y-197289234D01*
X218166042Y-197249139D01*
X218084648Y-197224448D01*
X218000000Y-197216111D01*
X217133350Y-197218200D01*
X217025400Y-197326150D01*
X216974600Y-197326150D01*
X216866650Y-197218200D01*
X216000000Y-197216111D01*
X215915352Y-197224448D01*
X215833958Y-197249139D01*
X215758944Y-197289234D01*
X215693194Y-197343194D01*
X215639234Y-197408944D01*
X215599139Y-197483958D01*
X215574448Y-197565352D01*
X215566111Y-197650000D01*
X214727000Y-197650000D01*
X214727000Y-186078955D01*
X222125200Y-186078955D01*
X222125200Y-186214045D01*
X222151555Y-186346540D01*
X222203252Y-186471348D01*
X222278305Y-186583672D01*
X222373828Y-186679195D01*
X222475367Y-186747041D01*
X222457252Y-186774152D01*
X222405555Y-186898960D01*
X222379200Y-187031455D01*
X222379200Y-187166545D01*
X222405555Y-187299040D01*
X222457252Y-187423848D01*
X222532305Y-187536172D01*
X222627828Y-187631695D01*
X222740152Y-187706748D01*
X222864960Y-187758445D01*
X222997455Y-187784800D01*
X223132545Y-187784800D01*
X223265040Y-187758445D01*
X223389848Y-187706748D01*
X223502172Y-187631695D01*
X223597695Y-187536172D01*
X223672748Y-187423848D01*
X223724445Y-187299040D01*
X223741633Y-187212629D01*
X223897961Y-187056301D01*
X223950458Y-187084361D01*
X224031852Y-187109052D01*
X224116500Y-187117389D01*
X224157244Y-187117389D01*
X224104805Y-187169828D01*
X224029752Y-187282152D01*
X223978055Y-187406960D01*
X223951700Y-187539455D01*
X223951700Y-187674545D01*
X223978055Y-187807040D01*
X224029752Y-187931848D01*
X224104805Y-188044172D01*
X224200328Y-188139695D01*
X224312652Y-188214748D01*
X224437460Y-188266445D01*
X224569955Y-188292800D01*
X224705045Y-188292800D01*
X224837540Y-188266445D01*
X224962348Y-188214748D01*
X225016500Y-188178565D01*
X225070652Y-188214748D01*
X225195460Y-188266445D01*
X225327955Y-188292800D01*
X225463045Y-188292800D01*
X225595540Y-188266445D01*
X225720348Y-188214748D01*
X225832672Y-188139695D01*
X225928195Y-188044172D01*
X225966892Y-187986259D01*
X225993328Y-188012695D01*
X226105652Y-188087748D01*
X226230460Y-188139445D01*
X226362955Y-188165800D01*
X226498045Y-188165800D01*
X226630540Y-188139445D01*
X226755348Y-188087748D01*
X226867672Y-188012695D01*
X226963195Y-187917172D01*
X227038248Y-187804848D01*
X227089945Y-187680040D01*
X227116300Y-187547545D01*
X227116300Y-187412455D01*
X227089945Y-187279960D01*
X227038248Y-187155152D01*
X226963195Y-187042828D01*
X226867672Y-186947305D01*
X226792098Y-186896807D01*
X226817361Y-186849542D01*
X226842052Y-186768148D01*
X226850389Y-186683500D01*
X226848300Y-186366850D01*
X226740350Y-186258900D01*
X226350389Y-186258900D01*
X226350389Y-186208100D01*
X226740350Y-186208100D01*
X226848300Y-186100150D01*
X226849187Y-185965695D01*
X226873150Y-185965300D01*
X226981100Y-185857350D01*
X226981100Y-185058900D01*
X227031900Y-185058900D01*
X227031900Y-185857350D01*
X227139850Y-185965300D01*
X227266500Y-185967389D01*
X227351148Y-185959052D01*
X227432542Y-185934361D01*
X227507556Y-185894266D01*
X227573306Y-185840306D01*
X227627266Y-185774556D01*
X227667361Y-185699542D01*
X227692052Y-185618148D01*
X227700389Y-185533500D01*
X227698300Y-185166850D01*
X227590350Y-185058900D01*
X227031900Y-185058900D01*
X226981100Y-185058900D01*
X226422650Y-185058900D01*
X226314700Y-185166850D01*
X226313167Y-185435983D01*
X226289500Y-185459650D01*
X226289500Y-185565333D01*
X226277266Y-185542444D01*
X226243500Y-185501300D01*
X226243500Y-185459650D01*
X226135550Y-185351700D01*
X226116500Y-185349611D01*
X226031852Y-185357948D01*
X226016500Y-185362605D01*
X226001148Y-185357948D01*
X225916500Y-185349611D01*
X225616500Y-185349611D01*
X225531852Y-185357948D01*
X225516500Y-185362605D01*
X225501148Y-185357948D01*
X225416500Y-185349611D01*
X225116500Y-185349611D01*
X225031852Y-185357948D01*
X225016500Y-185362605D01*
X225001148Y-185357948D01*
X224916500Y-185349611D01*
X224616500Y-185349611D01*
X224531852Y-185357948D01*
X224516500Y-185362605D01*
X224501148Y-185357948D01*
X224416500Y-185349611D01*
X224219341Y-185349611D01*
X224218300Y-185166850D01*
X224110350Y-185058900D01*
X223551900Y-185058900D01*
X223551900Y-185078900D01*
X223501100Y-185078900D01*
X223501100Y-185058900D01*
X222942650Y-185058900D01*
X222834700Y-185166850D01*
X222833026Y-185460700D01*
X222743455Y-185460700D01*
X222610960Y-185487055D01*
X222486152Y-185538752D01*
X222373828Y-185613805D01*
X222278305Y-185709328D01*
X222203252Y-185821652D01*
X222151555Y-185946460D01*
X222125200Y-186078955D01*
X214727000Y-186078955D01*
X214727000Y-184533500D01*
X222832611Y-184533500D01*
X222834700Y-184900150D01*
X222942650Y-185008100D01*
X223501100Y-185008100D01*
X223501100Y-184209650D01*
X223551900Y-184209650D01*
X223551900Y-185008100D01*
X224110350Y-185008100D01*
X224218300Y-184900150D01*
X224220389Y-184533500D01*
X226312611Y-184533500D01*
X226314700Y-184900150D01*
X226422650Y-185008100D01*
X226981100Y-185008100D01*
X226981100Y-184209650D01*
X227031900Y-184209650D01*
X227031900Y-185008100D01*
X227590350Y-185008100D01*
X227698300Y-184900150D01*
X227700389Y-184533500D01*
X227692052Y-184448852D01*
X227667361Y-184367458D01*
X227627266Y-184292444D01*
X227573306Y-184226694D01*
X227507556Y-184172734D01*
X227432542Y-184132639D01*
X227351148Y-184107948D01*
X227266500Y-184099611D01*
X227139850Y-184101700D01*
X227031900Y-184209650D01*
X226981100Y-184209650D01*
X226873150Y-184101700D01*
X226746500Y-184099611D01*
X226661852Y-184107948D01*
X226580458Y-184132639D01*
X226505444Y-184172734D01*
X226439694Y-184226694D01*
X226385734Y-184292444D01*
X226345639Y-184367458D01*
X226320948Y-184448852D01*
X226312611Y-184533500D01*
X224220389Y-184533500D01*
X224212052Y-184448852D01*
X224187361Y-184367458D01*
X224147266Y-184292444D01*
X224093306Y-184226694D01*
X224027556Y-184172734D01*
X223952542Y-184132639D01*
X223871148Y-184107948D01*
X223786500Y-184099611D01*
X223659850Y-184101700D01*
X223551900Y-184209650D01*
X223501100Y-184209650D01*
X223393150Y-184101700D01*
X223266500Y-184099611D01*
X223181852Y-184107948D01*
X223100458Y-184132639D01*
X223025444Y-184172734D01*
X222959694Y-184226694D01*
X222905734Y-184292444D01*
X222865639Y-184367458D01*
X222840948Y-184448852D01*
X222832611Y-184533500D01*
X214727000Y-184533500D01*
X214727000Y-180322060D01*
X235613861Y-180322060D01*
X235975553Y-180767263D01*
X236595258Y-181124707D01*
X237272790Y-181354384D01*
X237982110Y-181447468D01*
X238695962Y-181400382D01*
X239386910Y-181214935D01*
X240028403Y-180898255D01*
X240224447Y-180767263D01*
X240586139Y-180322060D01*
X238100000Y-177835921D01*
X235613861Y-180322060D01*
X214727000Y-180322060D01*
X214727000Y-179627000D01*
X232300000Y-179627000D01*
X232324776Y-179624560D01*
X232348601Y-179617333D01*
X232370557Y-179605597D01*
X232389803Y-179589803D01*
X232405597Y-179570557D01*
X232417333Y-179548601D01*
X232424560Y-179524776D01*
X232427000Y-179500000D01*
X232427000Y-177682110D01*
X234452532Y-177682110D01*
X234499618Y-178395962D01*
X234685065Y-179086910D01*
X235001745Y-179728403D01*
X235132737Y-179924447D01*
X235577940Y-180286139D01*
X238064079Y-177800000D01*
X238135921Y-177800000D01*
X240622060Y-180286139D01*
X241067263Y-179924447D01*
X241424707Y-179304742D01*
X241654384Y-178627210D01*
X241747468Y-177917890D01*
X241700382Y-177204038D01*
X241514935Y-176513090D01*
X241198255Y-175871597D01*
X241067263Y-175675553D01*
X240622060Y-175313861D01*
X238135921Y-177800000D01*
X238064079Y-177800000D01*
X235577940Y-175313861D01*
X235132737Y-175675553D01*
X234775293Y-176295258D01*
X234545616Y-176972790D01*
X234452532Y-177682110D01*
X232427000Y-177682110D01*
X232427000Y-174827000D01*
X235984139Y-174827000D01*
X235975553Y-174832737D01*
%TA.AperFunction,Conductor*%
D25*
G36*
X235975553Y-174832737D02*
G01*
X235613861Y-175277940D01*
X238100000Y-177764079D01*
X240586139Y-175277940D01*
X240224447Y-174832737D01*
X240214501Y-174827000D01*
X241973000Y-174827000D01*
X241973000Y-206573000D01*
X214727000Y-206573000D01*
X214727000Y-205650000D01*
X215566111Y-205650000D01*
X215574448Y-205734648D01*
X215599139Y-205816042D01*
X215639234Y-205891056D01*
X215693194Y-205956806D01*
X215758944Y-206010766D01*
X215833958Y-206050861D01*
X215915352Y-206075552D01*
X216000000Y-206083889D01*
X216866650Y-206081800D01*
X216974600Y-205973850D01*
X216974600Y-204425400D01*
X217025400Y-204425400D01*
X217025400Y-205973850D01*
X217133350Y-206081800D01*
X218000000Y-206083889D01*
X218084648Y-206075552D01*
X218166042Y-206050861D01*
X218241056Y-206010766D01*
X218306806Y-205956806D01*
X218360766Y-205891056D01*
X218400861Y-205816042D01*
X218425552Y-205734648D01*
X218433889Y-205650000D01*
X224366111Y-205650000D01*
X224374448Y-205734648D01*
X224399139Y-205816042D01*
X224439234Y-205891056D01*
X224493194Y-205956806D01*
X224558944Y-206010766D01*
X224633958Y-206050861D01*
X224715352Y-206075552D01*
X224800000Y-206083889D01*
X225666650Y-206081800D01*
X225774600Y-205973850D01*
X225774600Y-204425400D01*
X225825400Y-204425400D01*
X225825400Y-205973850D01*
X225933350Y-206081800D01*
X226800000Y-206083889D01*
X226884648Y-206075552D01*
X226966042Y-206050861D01*
X227041056Y-206010766D01*
X227106806Y-205956806D01*
X227160766Y-205891056D01*
X227200861Y-205816042D01*
X227225552Y-205734648D01*
X227233889Y-205650000D01*
X227231800Y-204533350D01*
X227123850Y-204425400D01*
X225825400Y-204425400D01*
X225774600Y-204425400D01*
X224476150Y-204425400D01*
X224368200Y-204533350D01*
X224366111Y-205650000D01*
X218433889Y-205650000D01*
X218431800Y-204533350D01*
X218323850Y-204425400D01*
X217025400Y-204425400D01*
X216974600Y-204425400D01*
X215676150Y-204425400D01*
X215568200Y-204533350D01*
X215566111Y-205650000D01*
X214727000Y-205650000D01*
X214727000Y-203150000D01*
X215566111Y-203150000D01*
X215568200Y-204266650D01*
X215676150Y-204374600D01*
X216974600Y-204374600D01*
X216974600Y-202826150D01*
X217025400Y-202826150D01*
X217025400Y-204374600D01*
X218323850Y-204374600D01*
X218431800Y-204266650D01*
X218433889Y-203150000D01*
X224366111Y-203150000D01*
X224368200Y-204266650D01*
X224476150Y-204374600D01*
X225774600Y-204374600D01*
X225774600Y-202826150D01*
X225825400Y-202826150D01*
X225825400Y-204374600D01*
X227123850Y-204374600D01*
X227231800Y-204266650D01*
X227231883Y-204222060D01*
X235613861Y-204222060D01*
X235975553Y-204667263D01*
X236595258Y-205024707D01*
X237272790Y-205254384D01*
X237982110Y-205347468D01*
X238695962Y-205300382D01*
X239386910Y-205114935D01*
X240028403Y-204798255D01*
X240224447Y-204667263D01*
X240586139Y-204222060D01*
X238100000Y-201735921D01*
X235613861Y-204222060D01*
X227231883Y-204222060D01*
X227233889Y-203150000D01*
X227225552Y-203065352D01*
X227200861Y-202983958D01*
X227160766Y-202908944D01*
X227106806Y-202843194D01*
X227041056Y-202789234D01*
X226966042Y-202749139D01*
X226884648Y-202724448D01*
X226800000Y-202716111D01*
X225933350Y-202718200D01*
X225825400Y-202826150D01*
X225774600Y-202826150D01*
X225666650Y-202718200D01*
X224800000Y-202716111D01*
X224715352Y-202724448D01*
X224633958Y-202749139D01*
X224558944Y-202789234D01*
X224493194Y-202843194D01*
X224439234Y-202908944D01*
X224399139Y-202983958D01*
X224374448Y-203065352D01*
X224366111Y-203150000D01*
X218433889Y-203150000D01*
X218425552Y-203065352D01*
X218400861Y-202983958D01*
X218360766Y-202908944D01*
X218306806Y-202843194D01*
X218241056Y-202789234D01*
X218166042Y-202749139D01*
X218084648Y-202724448D01*
X218000000Y-202716111D01*
X217133350Y-202718200D01*
X217025400Y-202826150D01*
X216974600Y-202826150D01*
X216866650Y-202718200D01*
X216000000Y-202716111D01*
X215915352Y-202724448D01*
X215833958Y-202749139D01*
X215758944Y-202789234D01*
X215693194Y-202843194D01*
X215639234Y-202908944D01*
X215599139Y-202983958D01*
X215574448Y-203065352D01*
X215566111Y-203150000D01*
X214727000Y-203150000D01*
X214727000Y-201413150D01*
X218318200Y-201413150D01*
X218318200Y-201586850D01*
X218352087Y-201757212D01*
X218418559Y-201917689D01*
X218515061Y-202062115D01*
X218637885Y-202184939D01*
X218782311Y-202281441D01*
X218942788Y-202347913D01*
X219113150Y-202381800D01*
X219286850Y-202381800D01*
X219457212Y-202347913D01*
X219617689Y-202281441D01*
X219762115Y-202184939D01*
X219884939Y-202062115D01*
X219981441Y-201917689D01*
X220047913Y-201757212D01*
X220081800Y-201586850D01*
X220081800Y-201413150D01*
X222718200Y-201413150D01*
X222718200Y-201586850D01*
X222752087Y-201757212D01*
X222818559Y-201917689D01*
X222915061Y-202062115D01*
X223037885Y-202184939D01*
X223182311Y-202281441D01*
X223342788Y-202347913D01*
X223513150Y-202381800D01*
X223686850Y-202381800D01*
X223857212Y-202347913D01*
X224017689Y-202281441D01*
X224162115Y-202184939D01*
X224284939Y-202062115D01*
X224381441Y-201917689D01*
X224447913Y-201757212D01*
X224481800Y-201586850D01*
X224481800Y-201582110D01*
X234452532Y-201582110D01*
X234499618Y-202295962D01*
X234685065Y-202986910D01*
X235001745Y-203628403D01*
X235132737Y-203824447D01*
X235577940Y-204186139D01*
X238064079Y-201700000D01*
X238135921Y-201700000D01*
X240622060Y-204186139D01*
X241067263Y-203824447D01*
X241424707Y-203204742D01*
X241654384Y-202527210D01*
X241747468Y-201817890D01*
X241700382Y-201104038D01*
X241514935Y-200413090D01*
X241198255Y-199771597D01*
X241067263Y-199575553D01*
X240622060Y-199213861D01*
X238135921Y-201700000D01*
X238064079Y-201700000D01*
X235577940Y-199213861D01*
X235132737Y-199575553D01*
X234775293Y-200195258D01*
X234545616Y-200872790D01*
X234452532Y-201582110D01*
X224481800Y-201582110D01*
X224481800Y-201413150D01*
X224447913Y-201242788D01*
X224381441Y-201082311D01*
X224284939Y-200937885D01*
X224162115Y-200815061D01*
X224017689Y-200718559D01*
X223857212Y-200652087D01*
X223686850Y-200618200D01*
X223513150Y-200618200D01*
X223342788Y-200652087D01*
X223182311Y-200718559D01*
X223037885Y-200815061D01*
X222915061Y-200937885D01*
X222818559Y-201082311D01*
X222752087Y-201242788D01*
X222718200Y-201413150D01*
X220081800Y-201413150D01*
X220047913Y-201242788D01*
X219981441Y-201082311D01*
X219884939Y-200937885D01*
X219762115Y-200815061D01*
X219617689Y-200718559D01*
X219457212Y-200652087D01*
X219286850Y-200618200D01*
X219113150Y-200618200D01*
X218942788Y-200652087D01*
X218782311Y-200718559D01*
X218637885Y-200815061D01*
X218515061Y-200937885D01*
X218418559Y-201082311D01*
X218352087Y-201242788D01*
X218318200Y-201413150D01*
X214727000Y-201413150D01*
X214727000Y-200150000D01*
X215566111Y-200150000D01*
X215574448Y-200234648D01*
X215599139Y-200316042D01*
X215639234Y-200391056D01*
X215693194Y-200456806D01*
X215758944Y-200510766D01*
X215833958Y-200550861D01*
X215915352Y-200575552D01*
X216000000Y-200583889D01*
X216866650Y-200581800D01*
X216974600Y-200473850D01*
X216974600Y-198925400D01*
X215676150Y-198925400D01*
X215568200Y-199033350D01*
X215566111Y-200150000D01*
X214727000Y-200150000D01*
X214727000Y-197650000D01*
X215566111Y-197650000D01*
X215568200Y-198766650D01*
X215676150Y-198874600D01*
X216974600Y-198874600D01*
X216974600Y-197326150D01*
X217025400Y-197326150D01*
X217025400Y-198874600D01*
X217045400Y-198874600D01*
X217045400Y-198925400D01*
X217025400Y-198925400D01*
X217025400Y-200473850D01*
X217133350Y-200581800D01*
X218000000Y-200583889D01*
X218084648Y-200575552D01*
X218166042Y-200550861D01*
X218241056Y-200510766D01*
X218306806Y-200456806D01*
X218360766Y-200391056D01*
X218400861Y-200316042D01*
X218425552Y-200234648D01*
X218433889Y-200150000D01*
X218432065Y-199175249D01*
X218456752Y-199234848D01*
X218531805Y-199347172D01*
X218627328Y-199442695D01*
X218739652Y-199517748D01*
X218864460Y-199569445D01*
X218996955Y-199595800D01*
X219116111Y-199595800D01*
X219116111Y-200150000D01*
X219124448Y-200234648D01*
X219149139Y-200316042D01*
X219189234Y-200391056D01*
X219243194Y-200456806D01*
X219308944Y-200510766D01*
X219383958Y-200550861D01*
X219465352Y-200575552D01*
X219550000Y-200583889D01*
X220050000Y-200583889D01*
X220134648Y-200575552D01*
X220200000Y-200555727D01*
X220265352Y-200575552D01*
X220350000Y-200583889D01*
X220850000Y-200583889D01*
X220934648Y-200575552D01*
X221000000Y-200555727D01*
X221065352Y-200575552D01*
X221150000Y-200583889D01*
X221650000Y-200583889D01*
X221734648Y-200575552D01*
X221800000Y-200555727D01*
X221865352Y-200575552D01*
X221950000Y-200583889D01*
X222450000Y-200583889D01*
X222534648Y-200575552D01*
X222600000Y-200555727D01*
X222665352Y-200575552D01*
X222750000Y-200583889D01*
X222866650Y-200581800D01*
X222974600Y-200473850D01*
X222974600Y-198925400D01*
X223025400Y-198925400D01*
X223025400Y-200473850D01*
X223133350Y-200581800D01*
X223250000Y-200583889D01*
X223334648Y-200575552D01*
X223416042Y-200550861D01*
X223491056Y-200510766D01*
X223556806Y-200456806D01*
X223610766Y-200391056D01*
X223650861Y-200316042D01*
X223675552Y-200234648D01*
X223683889Y-200150000D01*
X224366111Y-200150000D01*
X224374448Y-200234648D01*
X224399139Y-200316042D01*
X224439234Y-200391056D01*
X224493194Y-200456806D01*
X224558944Y-200510766D01*
X224633958Y-200550861D01*
X224715352Y-200575552D01*
X224800000Y-200583889D01*
X225666650Y-200581800D01*
X225774600Y-200473850D01*
X225774600Y-198925400D01*
X225825400Y-198925400D01*
X225825400Y-200473850D01*
X225933350Y-200581800D01*
X226800000Y-200583889D01*
X226884648Y-200575552D01*
X226966042Y-200550861D01*
X227041056Y-200510766D01*
X227106806Y-200456806D01*
X227160766Y-200391056D01*
X227200861Y-200316042D01*
X227225552Y-200234648D01*
X227233889Y-200150000D01*
X227232071Y-199177940D01*
X235613861Y-199177940D01*
X238100000Y-201664079D01*
X240586139Y-199177940D01*
X240224447Y-198732737D01*
X239604742Y-198375293D01*
X238927210Y-198145616D01*
X238217890Y-198052532D01*
X237504038Y-198099618D01*
X236813090Y-198285065D01*
X236171597Y-198601745D01*
X235975553Y-198732737D01*
X235613861Y-199177940D01*
X227232071Y-199177940D01*
X227231800Y-199033350D01*
X227123850Y-198925400D01*
X225825400Y-198925400D01*
X225774600Y-198925400D01*
X224476150Y-198925400D01*
X224368200Y-199033350D01*
X224366111Y-200150000D01*
X223683889Y-200150000D01*
X223681800Y-199033350D01*
X223573850Y-198925400D01*
X223025400Y-198925400D01*
X222974600Y-198925400D01*
X222954600Y-198925400D01*
X222954600Y-198874600D01*
X222974600Y-198874600D01*
X222974600Y-197326150D01*
X223025400Y-197326150D01*
X223025400Y-198874600D01*
X223573850Y-198874600D01*
X223681800Y-198766650D01*
X223683889Y-197650000D01*
X224366111Y-197650000D01*
X224368200Y-198766650D01*
X224476150Y-198874600D01*
X225774600Y-198874600D01*
X225774600Y-197326150D01*
X225825400Y-197326150D01*
X225825400Y-198874600D01*
X227123850Y-198874600D01*
X227231800Y-198766650D01*
X227233889Y-197650000D01*
X227225552Y-197565352D01*
X227200861Y-197483958D01*
X227160766Y-197408944D01*
X227106806Y-197343194D01*
X227041056Y-197289234D01*
X226966042Y-197249139D01*
X226884648Y-197224448D01*
X226800000Y-197216111D01*
X225933350Y-197218200D01*
X225825400Y-197326150D01*
X225774600Y-197326150D01*
X225666650Y-197218200D01*
X224800000Y-197216111D01*
X224715352Y-197224448D01*
X224633958Y-197249139D01*
X224558944Y-197289234D01*
X224493194Y-197343194D01*
X224439234Y-197408944D01*
X224399139Y-197483958D01*
X224374448Y-197565352D01*
X224366111Y-197650000D01*
X223683889Y-197650000D01*
X223675552Y-197565352D01*
X223650861Y-197483958D01*
X223610766Y-197408944D01*
X223556806Y-197343194D01*
X223491056Y-197289234D01*
X223416042Y-197249139D01*
X223334648Y-197224448D01*
X223250000Y-197216111D01*
X223133350Y-197218200D01*
X223025400Y-197326150D01*
X222974600Y-197326150D01*
X222866650Y-197218200D01*
X222750000Y-197216111D01*
X222727431Y-197218334D01*
X222727431Y-197078907D01*
X222818348Y-197041248D01*
X222930672Y-196966195D01*
X223026195Y-196870672D01*
X223101248Y-196758348D01*
X223152945Y-196633540D01*
X223179300Y-196501045D01*
X223179300Y-196365955D01*
X223152945Y-196233460D01*
X223101248Y-196108652D01*
X223026195Y-195996328D01*
X222930672Y-195900805D01*
X222818348Y-195825752D01*
X222693540Y-195774055D01*
X222561045Y-195747700D01*
X222425955Y-195747700D01*
X222293460Y-195774055D01*
X222168652Y-195825752D01*
X222056328Y-195900805D01*
X222034300Y-195922833D01*
X222034300Y-195857955D01*
X222007945Y-195725460D01*
X221956248Y-195600652D01*
X221881195Y-195488328D01*
X221785672Y-195392805D01*
X221673348Y-195317752D01*
X221548540Y-195266055D01*
X221416045Y-195239700D01*
X221280955Y-195239700D01*
X221148460Y-195266055D01*
X221023652Y-195317752D01*
X220969500Y-195353935D01*
X220915348Y-195317752D01*
X220790540Y-195266055D01*
X220658045Y-195239700D01*
X220522955Y-195239700D01*
X220390460Y-195266055D01*
X220265652Y-195317752D01*
X220153328Y-195392805D01*
X220057805Y-195488328D01*
X219982752Y-195600652D01*
X219931055Y-195725460D01*
X219904700Y-195857955D01*
X219904700Y-195993045D01*
X219931055Y-196125540D01*
X219982752Y-196250348D01*
X220039614Y-196335447D01*
X220000040Y-196319055D01*
X219867545Y-196292700D01*
X219732455Y-196292700D01*
X219599960Y-196319055D01*
X219475152Y-196370752D01*
X219362828Y-196445805D01*
X219267305Y-196541328D01*
X219192252Y-196653652D01*
X219140555Y-196778460D01*
X219114200Y-196910955D01*
X219114200Y-197046045D01*
X219140555Y-197178540D01*
X219192252Y-197303348D01*
X219229790Y-197359527D01*
X219189234Y-197408944D01*
X219149139Y-197483958D01*
X219124448Y-197565352D01*
X219116111Y-197650000D01*
X219116111Y-198224200D01*
X218996955Y-198224200D01*
X218864460Y-198250555D01*
X218739652Y-198302252D01*
X218627328Y-198377305D01*
X218531805Y-198472828D01*
X218456752Y-198585152D01*
X218432028Y-198644842D01*
X218433889Y-197650000D01*
X218425552Y-197565352D01*
X218400861Y-197483958D01*
X218360766Y-197408944D01*
X218306806Y-197343194D01*
X218241056Y-197289234D01*
X218166042Y-197249139D01*
X218084648Y-197224448D01*
X218000000Y-197216111D01*
X217133350Y-197218200D01*
X217025400Y-197326150D01*
X216974600Y-197326150D01*
X216866650Y-197218200D01*
X216000000Y-197216111D01*
X215915352Y-197224448D01*
X215833958Y-197249139D01*
X215758944Y-197289234D01*
X215693194Y-197343194D01*
X215639234Y-197408944D01*
X215599139Y-197483958D01*
X215574448Y-197565352D01*
X215566111Y-197650000D01*
X214727000Y-197650000D01*
X214727000Y-186078955D01*
X222125200Y-186078955D01*
X222125200Y-186214045D01*
X222151555Y-186346540D01*
X222203252Y-186471348D01*
X222278305Y-186583672D01*
X222373828Y-186679195D01*
X222475367Y-186747041D01*
X222457252Y-186774152D01*
X222405555Y-186898960D01*
X222379200Y-187031455D01*
X222379200Y-187166545D01*
X222405555Y-187299040D01*
X222457252Y-187423848D01*
X222532305Y-187536172D01*
X222627828Y-187631695D01*
X222740152Y-187706748D01*
X222864960Y-187758445D01*
X222997455Y-187784800D01*
X223132545Y-187784800D01*
X223265040Y-187758445D01*
X223389848Y-187706748D01*
X223502172Y-187631695D01*
X223597695Y-187536172D01*
X223672748Y-187423848D01*
X223724445Y-187299040D01*
X223741633Y-187212629D01*
X223897961Y-187056301D01*
X223950458Y-187084361D01*
X224031852Y-187109052D01*
X224116500Y-187117389D01*
X224157244Y-187117389D01*
X224104805Y-187169828D01*
X224029752Y-187282152D01*
X223978055Y-187406960D01*
X223951700Y-187539455D01*
X223951700Y-187674545D01*
X223978055Y-187807040D01*
X224029752Y-187931848D01*
X224104805Y-188044172D01*
X224200328Y-188139695D01*
X224312652Y-188214748D01*
X224437460Y-188266445D01*
X224569955Y-188292800D01*
X224705045Y-188292800D01*
X224837540Y-188266445D01*
X224962348Y-188214748D01*
X225016500Y-188178565D01*
X225070652Y-188214748D01*
X225195460Y-188266445D01*
X225327955Y-188292800D01*
X225463045Y-188292800D01*
X225595540Y-188266445D01*
X225720348Y-188214748D01*
X225832672Y-188139695D01*
X225928195Y-188044172D01*
X225966892Y-187986259D01*
X225993328Y-188012695D01*
X226105652Y-188087748D01*
X226230460Y-188139445D01*
X226362955Y-188165800D01*
X226498045Y-188165800D01*
X226630540Y-188139445D01*
X226755348Y-188087748D01*
X226867672Y-188012695D01*
X226963195Y-187917172D01*
X227038248Y-187804848D01*
X227089945Y-187680040D01*
X227116300Y-187547545D01*
X227116300Y-187412455D01*
X227089945Y-187279960D01*
X227038248Y-187155152D01*
X226963195Y-187042828D01*
X226867672Y-186947305D01*
X226792098Y-186896807D01*
X226817361Y-186849542D01*
X226842052Y-186768148D01*
X226850389Y-186683500D01*
X226848300Y-186366850D01*
X226740350Y-186258900D01*
X226350389Y-186258900D01*
X226350389Y-186208100D01*
X226740350Y-186208100D01*
X226848300Y-186100150D01*
X226849187Y-185965695D01*
X226873150Y-185965300D01*
X226981100Y-185857350D01*
X226981100Y-185058900D01*
X227031900Y-185058900D01*
X227031900Y-185857350D01*
X227139850Y-185965300D01*
X227266500Y-185967389D01*
X227351148Y-185959052D01*
X227432542Y-185934361D01*
X227507556Y-185894266D01*
X227573306Y-185840306D01*
X227627266Y-185774556D01*
X227667361Y-185699542D01*
X227692052Y-185618148D01*
X227700389Y-185533500D01*
X227698300Y-185166850D01*
X227590350Y-185058900D01*
X227031900Y-185058900D01*
X226981100Y-185058900D01*
X226422650Y-185058900D01*
X226314700Y-185166850D01*
X226313167Y-185435983D01*
X226289500Y-185459650D01*
X226289500Y-185565333D01*
X226277266Y-185542444D01*
X226243500Y-185501300D01*
X226243500Y-185459650D01*
X226135550Y-185351700D01*
X226116500Y-185349611D01*
X226031852Y-185357948D01*
X226016500Y-185362605D01*
X226001148Y-185357948D01*
X225916500Y-185349611D01*
X225616500Y-185349611D01*
X225531852Y-185357948D01*
X225516500Y-185362605D01*
X225501148Y-185357948D01*
X225416500Y-185349611D01*
X225116500Y-185349611D01*
X225031852Y-185357948D01*
X225016500Y-185362605D01*
X225001148Y-185357948D01*
X224916500Y-185349611D01*
X224616500Y-185349611D01*
X224531852Y-185357948D01*
X224516500Y-185362605D01*
X224501148Y-185357948D01*
X224416500Y-185349611D01*
X224219341Y-185349611D01*
X224218300Y-185166850D01*
X224110350Y-185058900D01*
X223551900Y-185058900D01*
X223551900Y-185078900D01*
X223501100Y-185078900D01*
X223501100Y-185058900D01*
X222942650Y-185058900D01*
X222834700Y-185166850D01*
X222833026Y-185460700D01*
X222743455Y-185460700D01*
X222610960Y-185487055D01*
X222486152Y-185538752D01*
X222373828Y-185613805D01*
X222278305Y-185709328D01*
X222203252Y-185821652D01*
X222151555Y-185946460D01*
X222125200Y-186078955D01*
X214727000Y-186078955D01*
X214727000Y-184533500D01*
X222832611Y-184533500D01*
X222834700Y-184900150D01*
X222942650Y-185008100D01*
X223501100Y-185008100D01*
X223501100Y-184209650D01*
X223551900Y-184209650D01*
X223551900Y-185008100D01*
X224110350Y-185008100D01*
X224218300Y-184900150D01*
X224220389Y-184533500D01*
X226312611Y-184533500D01*
X226314700Y-184900150D01*
X226422650Y-185008100D01*
X226981100Y-185008100D01*
X226981100Y-184209650D01*
X227031900Y-184209650D01*
X227031900Y-185008100D01*
X227590350Y-185008100D01*
X227698300Y-184900150D01*
X227700389Y-184533500D01*
X227692052Y-184448852D01*
X227667361Y-184367458D01*
X227627266Y-184292444D01*
X227573306Y-184226694D01*
X227507556Y-184172734D01*
X227432542Y-184132639D01*
X227351148Y-184107948D01*
X227266500Y-184099611D01*
X227139850Y-184101700D01*
X227031900Y-184209650D01*
X226981100Y-184209650D01*
X226873150Y-184101700D01*
X226746500Y-184099611D01*
X226661852Y-184107948D01*
X226580458Y-184132639D01*
X226505444Y-184172734D01*
X226439694Y-184226694D01*
X226385734Y-184292444D01*
X226345639Y-184367458D01*
X226320948Y-184448852D01*
X226312611Y-184533500D01*
X224220389Y-184533500D01*
X224212052Y-184448852D01*
X224187361Y-184367458D01*
X224147266Y-184292444D01*
X224093306Y-184226694D01*
X224027556Y-184172734D01*
X223952542Y-184132639D01*
X223871148Y-184107948D01*
X223786500Y-184099611D01*
X223659850Y-184101700D01*
X223551900Y-184209650D01*
X223501100Y-184209650D01*
X223393150Y-184101700D01*
X223266500Y-184099611D01*
X223181852Y-184107948D01*
X223100458Y-184132639D01*
X223025444Y-184172734D01*
X222959694Y-184226694D01*
X222905734Y-184292444D01*
X222865639Y-184367458D01*
X222840948Y-184448852D01*
X222832611Y-184533500D01*
X214727000Y-184533500D01*
X214727000Y-180322060D01*
X235613861Y-180322060D01*
X235975553Y-180767263D01*
X236595258Y-181124707D01*
X237272790Y-181354384D01*
X237982110Y-181447468D01*
X238695962Y-181400382D01*
X239386910Y-181214935D01*
X240028403Y-180898255D01*
X240224447Y-180767263D01*
X240586139Y-180322060D01*
X238100000Y-177835921D01*
X235613861Y-180322060D01*
X214727000Y-180322060D01*
X214727000Y-179627000D01*
X232300000Y-179627000D01*
X232324776Y-179624560D01*
X232348601Y-179617333D01*
X232370557Y-179605597D01*
X232389803Y-179589803D01*
X232405597Y-179570557D01*
X232417333Y-179548601D01*
X232424560Y-179524776D01*
X232427000Y-179500000D01*
X232427000Y-177682110D01*
X234452532Y-177682110D01*
X234499618Y-178395962D01*
X234685065Y-179086910D01*
X235001745Y-179728403D01*
X235132737Y-179924447D01*
X235577940Y-180286139D01*
X238064079Y-177800000D01*
X238135921Y-177800000D01*
X240622060Y-180286139D01*
X241067263Y-179924447D01*
X241424707Y-179304742D01*
X241654384Y-178627210D01*
X241747468Y-177917890D01*
X241700382Y-177204038D01*
X241514935Y-176513090D01*
X241198255Y-175871597D01*
X241067263Y-175675553D01*
X240622060Y-175313861D01*
X238135921Y-177800000D01*
X238064079Y-177800000D01*
X235577940Y-175313861D01*
X235132737Y-175675553D01*
X234775293Y-176295258D01*
X234545616Y-176972790D01*
X234452532Y-177682110D01*
X232427000Y-177682110D01*
X232427000Y-174827000D01*
X235984139Y-174827000D01*
X235975553Y-174832737D01*
G37*
%TD.AperFunction*%
%TD*%
D21*
%TO.N,GND*%
X215270189Y-150544376D02*
X215433850Y-150594022D01*
X215584672Y-150674638D01*
X215716870Y-150783130D01*
X215825362Y-150915328D01*
X215905978Y-151066150D01*
X215955624Y-151229811D01*
X215973000Y-151406234D01*
X215973000Y-156693766D01*
X215955624Y-156870189D01*
X215905978Y-157033850D01*
X215825362Y-157184672D01*
X215716870Y-157316870D01*
X215584672Y-157425362D01*
X215433850Y-157505978D01*
X215270189Y-157555624D01*
X215093766Y-157573000D01*
X211100000Y-157573000D01*
X211087552Y-157573612D01*
X210892462Y-157592827D01*
X210868044Y-157597683D01*
X210680451Y-157654588D01*
X210657450Y-157664116D01*
X210484563Y-157756526D01*
X210463862Y-157770358D01*
X210312325Y-157894721D01*
X210294721Y-157912325D01*
X210170358Y-158063862D01*
X210156526Y-158084563D01*
X210064116Y-158257450D01*
X210054588Y-158280451D01*
X209997683Y-158468044D01*
X209992827Y-158492462D01*
X209973612Y-158687552D01*
X209973000Y-158700000D01*
X209973000Y-210585786D01*
X209973612Y-210598234D01*
X209992827Y-210793325D01*
X209997683Y-210817743D01*
X210054588Y-211005336D01*
X210064116Y-211028337D01*
X210156526Y-211201224D01*
X210170358Y-211221925D01*
X210294721Y-211373461D01*
X210303090Y-211382696D01*
X218512898Y-219592504D01*
X218625363Y-219729542D01*
X218705978Y-219880363D01*
X218755624Y-220044024D01*
X218773000Y-220220448D01*
X218773000Y-220622267D01*
X218489341Y-220400462D01*
X215989803Y-222900000D01*
X218489341Y-225399538D01*
X218773000Y-225177733D01*
X218773000Y-226193766D01*
X218755624Y-226370189D01*
X218705978Y-226533850D01*
X218625362Y-226684672D01*
X218516870Y-226816870D01*
X218384672Y-226925362D01*
X218233850Y-227005978D01*
X218070189Y-227055624D01*
X217893766Y-227073000D01*
X187512956Y-227073000D01*
X187339328Y-227056177D01*
X187178071Y-227008094D01*
X187029045Y-226929947D01*
X186892980Y-226820781D01*
X185527401Y-225489341D01*
X213400462Y-225489341D01*
X213761637Y-225951236D01*
X214397992Y-226309782D01*
X215092068Y-226537291D01*
X215817193Y-226625021D01*
X216545499Y-226569600D01*
X217249000Y-226373159D01*
X217900659Y-226043246D01*
X218038363Y-225951236D01*
X218399538Y-225489341D01*
X215900000Y-222989803D01*
X213400462Y-225489341D01*
X185527401Y-225489341D01*
X184785828Y-224766308D01*
X185827500Y-224764000D01*
X185954500Y-224637000D01*
X185954500Y-222769500D01*
X186081500Y-222769500D01*
X186081500Y-224637000D01*
X186208500Y-224764000D01*
X187318000Y-224766458D01*
X187417585Y-224756650D01*
X187513344Y-224727602D01*
X187601595Y-224680430D01*
X187678948Y-224616948D01*
X187742430Y-224539595D01*
X187789602Y-224451344D01*
X187818650Y-224355585D01*
X187828458Y-224256000D01*
X187826000Y-222896500D01*
X187746693Y-222817193D01*
X212174979Y-222817193D01*
X212230400Y-223545499D01*
X212426841Y-224249000D01*
X212756754Y-224900659D01*
X212848764Y-225038363D01*
X213310659Y-225399538D01*
X215810197Y-222900000D01*
X213310659Y-220400462D01*
X212848764Y-220761637D01*
X212490218Y-221397992D01*
X212262709Y-222092068D01*
X212174979Y-222817193D01*
X187746693Y-222817193D01*
X187699000Y-222769500D01*
X186081500Y-222769500D01*
X185954500Y-222769500D01*
X184337000Y-222769500D01*
X184210000Y-222896500D01*
X184207639Y-224202573D01*
X183495100Y-223507848D01*
X183379287Y-223369874D01*
X183296169Y-223217287D01*
X183244940Y-223051250D01*
X183227000Y-222872008D01*
X183227000Y-221156000D01*
X184207542Y-221156000D01*
X184210000Y-222515500D01*
X184337000Y-222642500D01*
X185954500Y-222642500D01*
X185954500Y-220775000D01*
X186081500Y-220775000D01*
X186081500Y-222642500D01*
X187699000Y-222642500D01*
X187826000Y-222515500D01*
X187827634Y-221611557D01*
X187906395Y-221690318D01*
X188050690Y-221786732D01*
X188211022Y-221853144D01*
X188381229Y-221887000D01*
X188554771Y-221887000D01*
X188724978Y-221853144D01*
X188885310Y-221786732D01*
X189029605Y-221690318D01*
X189152318Y-221567605D01*
X189248732Y-221423310D01*
X189315144Y-221262978D01*
X189349000Y-221092771D01*
X189349000Y-220919229D01*
X189315144Y-220749022D01*
X189248732Y-220588690D01*
X189152318Y-220444395D01*
X189029605Y-220321682D01*
X189013108Y-220310659D01*
X213400462Y-220310659D01*
X215900000Y-222810197D01*
X218399538Y-220310659D01*
X218038363Y-219848764D01*
X217402008Y-219490218D01*
X216707932Y-219262709D01*
X215982807Y-219174979D01*
X215254501Y-219230400D01*
X214551000Y-219426841D01*
X213899341Y-219756754D01*
X213761637Y-219848764D01*
X213400462Y-220310659D01*
X189013108Y-220310659D01*
X188885310Y-220225268D01*
X188724978Y-220158856D01*
X188554771Y-220125000D01*
X188381229Y-220125000D01*
X188211022Y-220158856D01*
X188050690Y-220225268D01*
X187906395Y-220321682D01*
X187783682Y-220444395D01*
X187687268Y-220588690D01*
X187621364Y-220747794D01*
X187601595Y-220731570D01*
X187513344Y-220684398D01*
X187417585Y-220655350D01*
X187318000Y-220645542D01*
X186208500Y-220648000D01*
X186081500Y-220775000D01*
X185954500Y-220775000D01*
X185827500Y-220648000D01*
X184718000Y-220645542D01*
X184618415Y-220655350D01*
X184522656Y-220684398D01*
X184434405Y-220731570D01*
X184357052Y-220795052D01*
X184293570Y-220872405D01*
X184246398Y-220960656D01*
X184217350Y-221056415D01*
X184207542Y-221156000D01*
X183227000Y-221156000D01*
X183227000Y-219881000D01*
X183732542Y-219881000D01*
X183742350Y-219980585D01*
X183771398Y-220076344D01*
X183818570Y-220164595D01*
X183882052Y-220241948D01*
X183959405Y-220305430D01*
X184047656Y-220352602D01*
X184143415Y-220381650D01*
X184243000Y-220391458D01*
X185427500Y-220389000D01*
X185554500Y-220262000D01*
X185554500Y-219669500D01*
X185681500Y-219669500D01*
X185681500Y-220262000D01*
X185808500Y-220389000D01*
X186993000Y-220391458D01*
X187092585Y-220381650D01*
X187188344Y-220352602D01*
X187276595Y-220305430D01*
X187353948Y-220241948D01*
X187417430Y-220164595D01*
X187464602Y-220076344D01*
X187493650Y-219980585D01*
X187503458Y-219881000D01*
X187501000Y-219796500D01*
X187374000Y-219669500D01*
X185681500Y-219669500D01*
X185554500Y-219669500D01*
X183862000Y-219669500D01*
X183735000Y-219796500D01*
X183732542Y-219881000D01*
X183227000Y-219881000D01*
X183227000Y-219331000D01*
X183732542Y-219331000D01*
X183735000Y-219415500D01*
X183862000Y-219542500D01*
X185554500Y-219542500D01*
X185554500Y-219522500D01*
X185681500Y-219522500D01*
X185681500Y-219542500D01*
X187374000Y-219542500D01*
X187501000Y-219415500D01*
X187503458Y-219331000D01*
X187499282Y-219288600D01*
X188290802Y-219288600D01*
X188337271Y-219400785D01*
X188406764Y-219504789D01*
X188495211Y-219593236D01*
X188599215Y-219662729D01*
X188714777Y-219710597D01*
X188837458Y-219735000D01*
X188962542Y-219735000D01*
X189085223Y-219710597D01*
X189200785Y-219662729D01*
X189304789Y-219593236D01*
X189393236Y-219504789D01*
X189462729Y-219400785D01*
X189510597Y-219285223D01*
X189535000Y-219162542D01*
X189535000Y-219037458D01*
X189510597Y-218914777D01*
X189462729Y-218799215D01*
X189393236Y-218695211D01*
X189304789Y-218606764D01*
X189200785Y-218537271D01*
X189085223Y-218489403D01*
X189080502Y-218488464D01*
X189104789Y-218472236D01*
X189193236Y-218383789D01*
X189262729Y-218279785D01*
X189310597Y-218164223D01*
X189335000Y-218041542D01*
X189335000Y-217916458D01*
X189310597Y-217793777D01*
X189262729Y-217678215D01*
X189210468Y-217600000D01*
X189262729Y-217521785D01*
X189310597Y-217406223D01*
X189335000Y-217283542D01*
X189335000Y-217158458D01*
X189310597Y-217035777D01*
X189286458Y-216977500D01*
X189565926Y-216977500D01*
X189594000Y-216980265D01*
X189622074Y-216977500D01*
X189635792Y-216976149D01*
X189666465Y-216973128D01*
X189706034Y-216969231D01*
X189813762Y-216936552D01*
X189913045Y-216883484D01*
X190000067Y-216812067D01*
X190017970Y-216790252D01*
X190406396Y-216401827D01*
X190500785Y-216362729D01*
X190604789Y-216293236D01*
X190693236Y-216204789D01*
X190762729Y-216100785D01*
X190801827Y-216006395D01*
X191006396Y-215801827D01*
X191100785Y-215762729D01*
X191204789Y-215693236D01*
X191293236Y-215604789D01*
X191362729Y-215500785D01*
X191410597Y-215385223D01*
X191435000Y-215262542D01*
X191435000Y-215137458D01*
X191410597Y-215014777D01*
X191362729Y-214899215D01*
X191293236Y-214795211D01*
X191204789Y-214706764D01*
X191100785Y-214637271D01*
X190985223Y-214589403D01*
X190862542Y-214565000D01*
X190737458Y-214565000D01*
X190614777Y-214589403D01*
X190499215Y-214637271D01*
X190395211Y-214706764D01*
X190306764Y-214795211D01*
X190237271Y-214899215D01*
X190198173Y-214993604D01*
X189993605Y-215198173D01*
X189899215Y-215237271D01*
X189795211Y-215306764D01*
X189706764Y-215395211D01*
X189637271Y-215499215D01*
X189598173Y-215593604D01*
X189357278Y-215834500D01*
X188769988Y-215834500D01*
X188885310Y-215786732D01*
X189029605Y-215690318D01*
X189152318Y-215567605D01*
X189248732Y-215423310D01*
X189315144Y-215262978D01*
X189349000Y-215092771D01*
X189349000Y-214919229D01*
X189315144Y-214749022D01*
X189248732Y-214588690D01*
X189152318Y-214444395D01*
X189029605Y-214321682D01*
X188885310Y-214225268D01*
X188724978Y-214158856D01*
X188554771Y-214125000D01*
X188381229Y-214125000D01*
X188211022Y-214158856D01*
X188050690Y-214225268D01*
X187906395Y-214321682D01*
X187827634Y-214400443D01*
X187826000Y-213496500D01*
X187699000Y-213369500D01*
X186081500Y-213369500D01*
X186081500Y-215237000D01*
X186208500Y-215364000D01*
X187318000Y-215366458D01*
X187417585Y-215356650D01*
X187513344Y-215327602D01*
X187601595Y-215280430D01*
X187621364Y-215264206D01*
X187687268Y-215423310D01*
X187783682Y-215567605D01*
X187906395Y-215690318D01*
X188050690Y-215786732D01*
X188166012Y-215834500D01*
X187142059Y-215834500D01*
X187054627Y-215787766D01*
X186957014Y-215758155D01*
X186855500Y-215748157D01*
X184380500Y-215748157D01*
X184278986Y-215758155D01*
X184181373Y-215787766D01*
X184091413Y-215835851D01*
X184012562Y-215900562D01*
X183947851Y-215979413D01*
X183899766Y-216069373D01*
X183870155Y-216166986D01*
X183860157Y-216268500D01*
X183860157Y-216543500D01*
X183870155Y-216645014D01*
X183899766Y-216742627D01*
X183933640Y-216806000D01*
X183899766Y-216869373D01*
X183870155Y-216966986D01*
X183860157Y-217068500D01*
X183860157Y-217343500D01*
X183870155Y-217445014D01*
X183899766Y-217542627D01*
X183933640Y-217606000D01*
X183899766Y-217669373D01*
X183870155Y-217766986D01*
X183860157Y-217868500D01*
X183860157Y-218143500D01*
X183870155Y-218245014D01*
X183899766Y-218342627D01*
X183933640Y-218406000D01*
X183899766Y-218469373D01*
X183870155Y-218566986D01*
X183860157Y-218668500D01*
X183860157Y-218943500D01*
X183864838Y-218991027D01*
X183818570Y-219047405D01*
X183771398Y-219135656D01*
X183742350Y-219231415D01*
X183732542Y-219331000D01*
X183227000Y-219331000D01*
X183227000Y-214856000D01*
X184207542Y-214856000D01*
X184217350Y-214955585D01*
X184246398Y-215051344D01*
X184293570Y-215139595D01*
X184357052Y-215216948D01*
X184434405Y-215280430D01*
X184522656Y-215327602D01*
X184618415Y-215356650D01*
X184718000Y-215366458D01*
X185827500Y-215364000D01*
X185954500Y-215237000D01*
X185954500Y-213369500D01*
X184337000Y-213369500D01*
X184210000Y-213496500D01*
X184207542Y-214856000D01*
X183227000Y-214856000D01*
X183227000Y-211756000D01*
X184207542Y-211756000D01*
X184210000Y-213115500D01*
X184337000Y-213242500D01*
X185954500Y-213242500D01*
X185954500Y-211375000D01*
X186081500Y-211375000D01*
X186081500Y-213242500D01*
X187699000Y-213242500D01*
X187826000Y-213115500D01*
X187828458Y-211756000D01*
X187818650Y-211656415D01*
X187789602Y-211560656D01*
X187742430Y-211472405D01*
X187678948Y-211395052D01*
X187601595Y-211331570D01*
X187513344Y-211284398D01*
X187417585Y-211255350D01*
X187318000Y-211245542D01*
X186208500Y-211248000D01*
X186081500Y-211375000D01*
X185954500Y-211375000D01*
X185827500Y-211248000D01*
X184718000Y-211245542D01*
X184618415Y-211255350D01*
X184522656Y-211284398D01*
X184434405Y-211331570D01*
X184357052Y-211395052D01*
X184293570Y-211472405D01*
X184246398Y-211560656D01*
X184217350Y-211656415D01*
X184207542Y-211756000D01*
X183227000Y-211756000D01*
X183227000Y-205289341D01*
X185100462Y-205289341D01*
X185461637Y-205751236D01*
X186097992Y-206109782D01*
X186792068Y-206337291D01*
X187517193Y-206425021D01*
X188245499Y-206369600D01*
X188949000Y-206173159D01*
X189600659Y-205843246D01*
X189738363Y-205751236D01*
X190099538Y-205289341D01*
X187600000Y-202789803D01*
X185100462Y-205289341D01*
X183227000Y-205289341D01*
X183227000Y-202617193D01*
X183874979Y-202617193D01*
X183930400Y-203345499D01*
X184126841Y-204049000D01*
X184456754Y-204700659D01*
X184548764Y-204838363D01*
X185010659Y-205199538D01*
X187510197Y-202700000D01*
X187689803Y-202700000D01*
X190189341Y-205199538D01*
X190651236Y-204838363D01*
X191009782Y-204202008D01*
X191237291Y-203507932D01*
X191282113Y-203137458D01*
X200665000Y-203137458D01*
X200665000Y-203262542D01*
X200689403Y-203385223D01*
X200737271Y-203500785D01*
X200806764Y-203604789D01*
X200895211Y-203693236D01*
X200999215Y-203762729D01*
X201114777Y-203810597D01*
X201237458Y-203835000D01*
X201362542Y-203835000D01*
X201485223Y-203810597D01*
X201600785Y-203762729D01*
X201704789Y-203693236D01*
X201793236Y-203604789D01*
X201862729Y-203500785D01*
X201910597Y-203385223D01*
X201935000Y-203262542D01*
X201935000Y-203137458D01*
X201910597Y-203014777D01*
X201862729Y-202899215D01*
X201793236Y-202795211D01*
X201704789Y-202706764D01*
X201600785Y-202637271D01*
X201485223Y-202589403D01*
X201362542Y-202565000D01*
X201237458Y-202565000D01*
X201114777Y-202589403D01*
X200999215Y-202637271D01*
X200895211Y-202706764D01*
X200806764Y-202795211D01*
X200737271Y-202899215D01*
X200689403Y-203014777D01*
X200665000Y-203137458D01*
X191282113Y-203137458D01*
X191325021Y-202782807D01*
X191269600Y-202054501D01*
X191073159Y-201351000D01*
X191015677Y-201237458D01*
X200665000Y-201237458D01*
X200665000Y-201362542D01*
X200689403Y-201485223D01*
X200737271Y-201600785D01*
X200806764Y-201704789D01*
X200895211Y-201793236D01*
X200999215Y-201862729D01*
X201114777Y-201910597D01*
X201237458Y-201935000D01*
X201362542Y-201935000D01*
X201485223Y-201910597D01*
X201600785Y-201862729D01*
X201704789Y-201793236D01*
X201793236Y-201704789D01*
X201862729Y-201600785D01*
X201910597Y-201485223D01*
X201935000Y-201362542D01*
X201935000Y-201237458D01*
X201910597Y-201114777D01*
X201862729Y-200999215D01*
X201793236Y-200895211D01*
X201704789Y-200806764D01*
X201600785Y-200737271D01*
X201485223Y-200689403D01*
X201362542Y-200665000D01*
X201237458Y-200665000D01*
X201114777Y-200689403D01*
X200999215Y-200737271D01*
X200895211Y-200806764D01*
X200806764Y-200895211D01*
X200737271Y-200999215D01*
X200689403Y-201114777D01*
X200665000Y-201237458D01*
X191015677Y-201237458D01*
X190743246Y-200699341D01*
X190651236Y-200561637D01*
X190189341Y-200200462D01*
X187689803Y-202700000D01*
X187510197Y-202700000D01*
X185010659Y-200200462D01*
X184548764Y-200561637D01*
X184190218Y-201197992D01*
X183962709Y-201892068D01*
X183874979Y-202617193D01*
X183227000Y-202617193D01*
X183227000Y-200306234D01*
X183244376Y-200129811D01*
X183294022Y-199966150D01*
X183374638Y-199815328D01*
X183483130Y-199683130D01*
X183615328Y-199574638D01*
X183766150Y-199494022D01*
X183929811Y-199444376D01*
X184106234Y-199427000D01*
X185855637Y-199427000D01*
X185599341Y-199556754D01*
X185461637Y-199648764D01*
X185100462Y-200110659D01*
X187600000Y-202610197D01*
X190099538Y-200110659D01*
X189738363Y-199648764D01*
X189344772Y-199427000D01*
X196100000Y-199427000D01*
X196112448Y-199426388D01*
X196307538Y-199407173D01*
X196331956Y-199402317D01*
X196519549Y-199345412D01*
X196542550Y-199335884D01*
X196715437Y-199243474D01*
X196736138Y-199229642D01*
X196887675Y-199105279D01*
X196905279Y-199087675D01*
X197029642Y-198936138D01*
X197043474Y-198915437D01*
X197135884Y-198742550D01*
X197145412Y-198719549D01*
X197202317Y-198531956D01*
X197207173Y-198507538D01*
X197226388Y-198312448D01*
X197227000Y-198300000D01*
X197227000Y-191337458D01*
X200665000Y-191337458D01*
X200665000Y-191462542D01*
X200689403Y-191585223D01*
X200737271Y-191700785D01*
X200806764Y-191804789D01*
X200895211Y-191893236D01*
X200999215Y-191962729D01*
X201114777Y-192010597D01*
X201237458Y-192035000D01*
X201362542Y-192035000D01*
X201485223Y-192010597D01*
X201600785Y-191962729D01*
X201704789Y-191893236D01*
X201793236Y-191804789D01*
X201862729Y-191700785D01*
X201910597Y-191585223D01*
X201935000Y-191462542D01*
X201935000Y-191337458D01*
X201910597Y-191214777D01*
X201862729Y-191099215D01*
X201793236Y-190995211D01*
X201704789Y-190906764D01*
X201600785Y-190837271D01*
X201485223Y-190789403D01*
X201362542Y-190765000D01*
X201237458Y-190765000D01*
X201114777Y-190789403D01*
X200999215Y-190837271D01*
X200895211Y-190906764D01*
X200806764Y-190995211D01*
X200737271Y-191099215D01*
X200689403Y-191214777D01*
X200665000Y-191337458D01*
X197227000Y-191337458D01*
X197227000Y-188037458D01*
X200665000Y-188037458D01*
X200665000Y-188162542D01*
X200689403Y-188285223D01*
X200737271Y-188400785D01*
X200806764Y-188504789D01*
X200895211Y-188593236D01*
X200999215Y-188662729D01*
X201114777Y-188710597D01*
X201237458Y-188735000D01*
X201362542Y-188735000D01*
X201485223Y-188710597D01*
X201600785Y-188662729D01*
X201704789Y-188593236D01*
X201793236Y-188504789D01*
X201862729Y-188400785D01*
X201910597Y-188285223D01*
X201935000Y-188162542D01*
X201935000Y-188037458D01*
X201910597Y-187914777D01*
X201862729Y-187799215D01*
X201793236Y-187695211D01*
X201704789Y-187606764D01*
X201600785Y-187537271D01*
X201485223Y-187489403D01*
X201362542Y-187465000D01*
X201237458Y-187465000D01*
X201114777Y-187489403D01*
X200999215Y-187537271D01*
X200895211Y-187606764D01*
X200806764Y-187695211D01*
X200737271Y-187799215D01*
X200689403Y-187914777D01*
X200665000Y-188037458D01*
X197227000Y-188037458D01*
X197227000Y-180789341D01*
X203000462Y-180789341D01*
X203361637Y-181251236D01*
X203997992Y-181609782D01*
X204692068Y-181837291D01*
X205417193Y-181925021D01*
X206145499Y-181869600D01*
X206849000Y-181673159D01*
X207500659Y-181343246D01*
X207638363Y-181251236D01*
X207999538Y-180789341D01*
X205500000Y-178289803D01*
X203000462Y-180789341D01*
X197227000Y-180789341D01*
X197227000Y-178117193D01*
X201774979Y-178117193D01*
X201830400Y-178845499D01*
X202026841Y-179549000D01*
X202356754Y-180200659D01*
X202448764Y-180338363D01*
X202910659Y-180699538D01*
X205410197Y-178200000D01*
X205589803Y-178200000D01*
X208089341Y-180699538D01*
X208551236Y-180338363D01*
X208909782Y-179702008D01*
X209137291Y-179007932D01*
X209225021Y-178282807D01*
X209169600Y-177554501D01*
X208973159Y-176851000D01*
X208643246Y-176199341D01*
X208551236Y-176061637D01*
X208089341Y-175700462D01*
X205589803Y-178200000D01*
X205410197Y-178200000D01*
X202910659Y-175700462D01*
X202448764Y-176061637D01*
X202090218Y-176697992D01*
X201862709Y-177392068D01*
X201774979Y-178117193D01*
X197227000Y-178117193D01*
X197227000Y-175610659D01*
X203000462Y-175610659D01*
X205500000Y-178110197D01*
X207999538Y-175610659D01*
X207638363Y-175148764D01*
X207002008Y-174790218D01*
X206307932Y-174562709D01*
X205582807Y-174474979D01*
X204854501Y-174530400D01*
X204151000Y-174726841D01*
X203499341Y-175056754D01*
X203361637Y-175148764D01*
X203000462Y-175610659D01*
X197227000Y-175610659D01*
X197227000Y-172837458D01*
X200665000Y-172837458D01*
X200665000Y-172962542D01*
X200689403Y-173085223D01*
X200737271Y-173200785D01*
X200806764Y-173304789D01*
X200895211Y-173393236D01*
X200999215Y-173462729D01*
X201114777Y-173510597D01*
X201237458Y-173535000D01*
X201362542Y-173535000D01*
X201485223Y-173510597D01*
X201600785Y-173462729D01*
X201704789Y-173393236D01*
X201793236Y-173304789D01*
X201862729Y-173200785D01*
X201910597Y-173085223D01*
X201935000Y-172962542D01*
X201935000Y-172837458D01*
X201910597Y-172714777D01*
X201862729Y-172599215D01*
X201793236Y-172495211D01*
X201704789Y-172406764D01*
X201600785Y-172337271D01*
X201485223Y-172289403D01*
X201362542Y-172265000D01*
X201237458Y-172265000D01*
X201114777Y-172289403D01*
X200999215Y-172337271D01*
X200895211Y-172406764D01*
X200806764Y-172495211D01*
X200737271Y-172599215D01*
X200689403Y-172714777D01*
X200665000Y-172837458D01*
X197227000Y-172837458D01*
X197227000Y-170437458D01*
X200665000Y-170437458D01*
X200665000Y-170562542D01*
X200689403Y-170685223D01*
X200737271Y-170800785D01*
X200806764Y-170904789D01*
X200895211Y-170993236D01*
X200999215Y-171062729D01*
X201114777Y-171110597D01*
X201237458Y-171135000D01*
X201362542Y-171135000D01*
X201485223Y-171110597D01*
X201600785Y-171062729D01*
X201704789Y-170993236D01*
X201793236Y-170904789D01*
X201862729Y-170800785D01*
X201910597Y-170685223D01*
X201935000Y-170562542D01*
X201935000Y-170437458D01*
X201910597Y-170314777D01*
X201862729Y-170199215D01*
X201793236Y-170095211D01*
X201704789Y-170006764D01*
X201600785Y-169937271D01*
X201485223Y-169889403D01*
X201362542Y-169865000D01*
X201237458Y-169865000D01*
X201114777Y-169889403D01*
X200999215Y-169937271D01*
X200895211Y-170006764D01*
X200806764Y-170095211D01*
X200737271Y-170199215D01*
X200689403Y-170314777D01*
X200665000Y-170437458D01*
X197227000Y-170437458D01*
X197227000Y-152137458D01*
X209265000Y-152137458D01*
X209265000Y-152262542D01*
X209289403Y-152385223D01*
X209337271Y-152500785D01*
X209406764Y-152604789D01*
X209495211Y-152693236D01*
X209599215Y-152762729D01*
X209714777Y-152810597D01*
X209837458Y-152835000D01*
X209954973Y-152835000D01*
X209923762Y-152866211D01*
X209854269Y-152970215D01*
X209806401Y-153085777D01*
X209781998Y-153208458D01*
X209781998Y-153333542D01*
X209806401Y-153456223D01*
X209854269Y-153571785D01*
X209906530Y-153650000D01*
X209854269Y-153728215D01*
X209806401Y-153843777D01*
X209781998Y-153966458D01*
X209781998Y-154091542D01*
X209806401Y-154214223D01*
X209854269Y-154329785D01*
X209923762Y-154433789D01*
X210012209Y-154522236D01*
X210116213Y-154591729D01*
X210156065Y-154608236D01*
X210075518Y-154688783D01*
X210057099Y-154703899D01*
X209996791Y-154777385D01*
X209951978Y-154861224D01*
X209924383Y-154952195D01*
X209917798Y-155019052D01*
X209915065Y-155046800D01*
X209917400Y-155070506D01*
X209917400Y-155084575D01*
X209906764Y-155095211D01*
X209837271Y-155199215D01*
X209789403Y-155314777D01*
X209765000Y-155437458D01*
X209765000Y-155562542D01*
X209789403Y-155685223D01*
X209837271Y-155800785D01*
X209906764Y-155904789D01*
X209995211Y-155993236D01*
X210099215Y-156062729D01*
X210214777Y-156110597D01*
X210337458Y-156135000D01*
X210462542Y-156135000D01*
X210585223Y-156110597D01*
X210700785Y-156062729D01*
X210804789Y-155993236D01*
X210893236Y-155904789D01*
X210896435Y-155900000D01*
X211889542Y-155900000D01*
X211899350Y-155999585D01*
X211928398Y-156095344D01*
X211975570Y-156183595D01*
X212039052Y-156260948D01*
X212116405Y-156324430D01*
X212204656Y-156371602D01*
X212300415Y-156400650D01*
X212400000Y-156410458D01*
X212709500Y-156408000D01*
X212836500Y-156281000D01*
X212836500Y-155703500D01*
X212963500Y-155703500D01*
X212963500Y-156281000D01*
X213090500Y-156408000D01*
X213400000Y-156410458D01*
X213499585Y-156400650D01*
X213595344Y-156371602D01*
X213683595Y-156324430D01*
X213760948Y-156260948D01*
X213824430Y-156183595D01*
X213871602Y-156095344D01*
X213900650Y-155999585D01*
X213910458Y-155900000D01*
X213908000Y-155830500D01*
X213781000Y-155703500D01*
X212963500Y-155703500D01*
X212836500Y-155703500D01*
X212019000Y-155703500D01*
X211892000Y-155830500D01*
X211889542Y-155900000D01*
X210896435Y-155900000D01*
X210962729Y-155800785D01*
X211010597Y-155685223D01*
X211035000Y-155562542D01*
X211035000Y-155511095D01*
X211054656Y-155521602D01*
X211150415Y-155550650D01*
X211250000Y-155560458D01*
X211509500Y-155558000D01*
X211636500Y-155431000D01*
X211636500Y-154932843D01*
X211763500Y-154932843D01*
X211763500Y-155431000D01*
X211890500Y-155558000D01*
X212001552Y-155559052D01*
X212019000Y-155576500D01*
X212836500Y-155576500D01*
X212836500Y-154999000D01*
X212963500Y-154999000D01*
X212963500Y-155576500D01*
X213781000Y-155576500D01*
X213908000Y-155449500D01*
X213910458Y-155380000D01*
X213900650Y-155280415D01*
X213871602Y-155184656D01*
X213824430Y-155096405D01*
X213760948Y-155019052D01*
X213683595Y-154955570D01*
X213595344Y-154908398D01*
X213499585Y-154879350D01*
X213400000Y-154869542D01*
X213090500Y-154872000D01*
X212963500Y-154999000D01*
X212836500Y-154999000D01*
X212709500Y-154872000D01*
X212658000Y-154871591D01*
X212658000Y-154836498D01*
X212571502Y-154836498D01*
X212658000Y-154750000D01*
X212660458Y-154750000D01*
X212650650Y-154650415D01*
X212621602Y-154554656D01*
X212574430Y-154466405D01*
X212532843Y-154415731D01*
X212532843Y-154250000D01*
X212525487Y-154175311D01*
X212517809Y-154150000D01*
X212525487Y-154124689D01*
X212532843Y-154050000D01*
X212532843Y-153750000D01*
X212525487Y-153675311D01*
X212517809Y-153650000D01*
X212525487Y-153624689D01*
X212532843Y-153550000D01*
X212532843Y-153250000D01*
X212525487Y-153175311D01*
X212517809Y-153150000D01*
X212525487Y-153124689D01*
X212532843Y-153050000D01*
X212532843Y-152929403D01*
X212709500Y-152928000D01*
X212836500Y-152801000D01*
X212836500Y-152223500D01*
X212963500Y-152223500D01*
X212963500Y-152801000D01*
X213090500Y-152928000D01*
X213400000Y-152930458D01*
X213499585Y-152920650D01*
X213595344Y-152891602D01*
X213683595Y-152844430D01*
X213760948Y-152780948D01*
X213824430Y-152703595D01*
X213871602Y-152615344D01*
X213900650Y-152519585D01*
X213910458Y-152420000D01*
X213908000Y-152350500D01*
X213781000Y-152223500D01*
X212963500Y-152223500D01*
X212836500Y-152223500D01*
X212816500Y-152223500D01*
X212816500Y-152096500D01*
X212836500Y-152096500D01*
X212836500Y-151519000D01*
X212963500Y-151519000D01*
X212963500Y-152096500D01*
X213781000Y-152096500D01*
X213908000Y-151969500D01*
X213910458Y-151900000D01*
X213900650Y-151800415D01*
X213871602Y-151704656D01*
X213824430Y-151616405D01*
X213760948Y-151539052D01*
X213683595Y-151475570D01*
X213595344Y-151428398D01*
X213499585Y-151399350D01*
X213400000Y-151389542D01*
X213090500Y-151392000D01*
X212963500Y-151519000D01*
X212836500Y-151519000D01*
X212709500Y-151392000D01*
X212400000Y-151389542D01*
X212300415Y-151399350D01*
X212204656Y-151428398D01*
X212116405Y-151475570D01*
X212039052Y-151539052D01*
X211975570Y-151616405D01*
X211961377Y-151642957D01*
X211576855Y-151258435D01*
X211560948Y-151239052D01*
X211483595Y-151175571D01*
X211395343Y-151128399D01*
X211299585Y-151099351D01*
X211224947Y-151092000D01*
X211224944Y-151092000D01*
X211200000Y-151089543D01*
X211175056Y-151092000D01*
X210524943Y-151092000D01*
X210499999Y-151089543D01*
X210475055Y-151092000D01*
X210475053Y-151092000D01*
X210400415Y-151099351D01*
X210304657Y-151128399D01*
X210304655Y-151128400D01*
X210216404Y-151175571D01*
X210174718Y-151209782D01*
X210139052Y-151239052D01*
X210123149Y-151258430D01*
X209811395Y-151570184D01*
X209714777Y-151589403D01*
X209599215Y-151637271D01*
X209495211Y-151706764D01*
X209406764Y-151795211D01*
X209337271Y-151899215D01*
X209289403Y-152014777D01*
X209265000Y-152137458D01*
X197227000Y-152137458D01*
X197227000Y-151406234D01*
X197244376Y-151229811D01*
X197294022Y-151066150D01*
X197374638Y-150915328D01*
X197483130Y-150783130D01*
X197615328Y-150674638D01*
X197766150Y-150594022D01*
X197929811Y-150544376D01*
X198106234Y-150527000D01*
X215093766Y-150527000D01*
X215270189Y-150544376D01*
%TA.AperFunction,Conductor*%
D25*
G36*
X215270189Y-150544376D02*
G01*
X215433850Y-150594022D01*
X215584672Y-150674638D01*
X215716870Y-150783130D01*
X215825362Y-150915328D01*
X215905978Y-151066150D01*
X215955624Y-151229811D01*
X215973000Y-151406234D01*
X215973000Y-156693766D01*
X215955624Y-156870189D01*
X215905978Y-157033850D01*
X215825362Y-157184672D01*
X215716870Y-157316870D01*
X215584672Y-157425362D01*
X215433850Y-157505978D01*
X215270189Y-157555624D01*
X215093766Y-157573000D01*
X211100000Y-157573000D01*
X211087552Y-157573612D01*
X210892462Y-157592827D01*
X210868044Y-157597683D01*
X210680451Y-157654588D01*
X210657450Y-157664116D01*
X210484563Y-157756526D01*
X210463862Y-157770358D01*
X210312325Y-157894721D01*
X210294721Y-157912325D01*
X210170358Y-158063862D01*
X210156526Y-158084563D01*
X210064116Y-158257450D01*
X210054588Y-158280451D01*
X209997683Y-158468044D01*
X209992827Y-158492462D01*
X209973612Y-158687552D01*
X209973000Y-158700000D01*
X209973000Y-210585786D01*
X209973612Y-210598234D01*
X209992827Y-210793325D01*
X209997683Y-210817743D01*
X210054588Y-211005336D01*
X210064116Y-211028337D01*
X210156526Y-211201224D01*
X210170358Y-211221925D01*
X210294721Y-211373461D01*
X210303090Y-211382696D01*
X218512898Y-219592504D01*
X218625363Y-219729542D01*
X218705978Y-219880363D01*
X218755624Y-220044024D01*
X218773000Y-220220448D01*
X218773000Y-220622267D01*
X218489341Y-220400462D01*
X215989803Y-222900000D01*
X218489341Y-225399538D01*
X218773000Y-225177733D01*
X218773000Y-226193766D01*
X218755624Y-226370189D01*
X218705978Y-226533850D01*
X218625362Y-226684672D01*
X218516870Y-226816870D01*
X218384672Y-226925362D01*
X218233850Y-227005978D01*
X218070189Y-227055624D01*
X217893766Y-227073000D01*
X187512956Y-227073000D01*
X187339328Y-227056177D01*
X187178071Y-227008094D01*
X187029045Y-226929947D01*
X186892980Y-226820781D01*
X185527401Y-225489341D01*
X213400462Y-225489341D01*
X213761637Y-225951236D01*
X214397992Y-226309782D01*
X215092068Y-226537291D01*
X215817193Y-226625021D01*
X216545499Y-226569600D01*
X217249000Y-226373159D01*
X217900659Y-226043246D01*
X218038363Y-225951236D01*
X218399538Y-225489341D01*
X215900000Y-222989803D01*
X213400462Y-225489341D01*
X185527401Y-225489341D01*
X184785828Y-224766308D01*
X185827500Y-224764000D01*
X185954500Y-224637000D01*
X185954500Y-222769500D01*
X186081500Y-222769500D01*
X186081500Y-224637000D01*
X186208500Y-224764000D01*
X187318000Y-224766458D01*
X187417585Y-224756650D01*
X187513344Y-224727602D01*
X187601595Y-224680430D01*
X187678948Y-224616948D01*
X187742430Y-224539595D01*
X187789602Y-224451344D01*
X187818650Y-224355585D01*
X187828458Y-224256000D01*
X187826000Y-222896500D01*
X187746693Y-222817193D01*
X212174979Y-222817193D01*
X212230400Y-223545499D01*
X212426841Y-224249000D01*
X212756754Y-224900659D01*
X212848764Y-225038363D01*
X213310659Y-225399538D01*
X215810197Y-222900000D01*
X213310659Y-220400462D01*
X212848764Y-220761637D01*
X212490218Y-221397992D01*
X212262709Y-222092068D01*
X212174979Y-222817193D01*
X187746693Y-222817193D01*
X187699000Y-222769500D01*
X186081500Y-222769500D01*
X185954500Y-222769500D01*
X184337000Y-222769500D01*
X184210000Y-222896500D01*
X184207639Y-224202573D01*
X183495100Y-223507848D01*
X183379287Y-223369874D01*
X183296169Y-223217287D01*
X183244940Y-223051250D01*
X183227000Y-222872008D01*
X183227000Y-221156000D01*
X184207542Y-221156000D01*
X184210000Y-222515500D01*
X184337000Y-222642500D01*
X185954500Y-222642500D01*
X185954500Y-220775000D01*
X186081500Y-220775000D01*
X186081500Y-222642500D01*
X187699000Y-222642500D01*
X187826000Y-222515500D01*
X187827634Y-221611557D01*
X187906395Y-221690318D01*
X188050690Y-221786732D01*
X188211022Y-221853144D01*
X188381229Y-221887000D01*
X188554771Y-221887000D01*
X188724978Y-221853144D01*
X188885310Y-221786732D01*
X189029605Y-221690318D01*
X189152318Y-221567605D01*
X189248732Y-221423310D01*
X189315144Y-221262978D01*
X189349000Y-221092771D01*
X189349000Y-220919229D01*
X189315144Y-220749022D01*
X189248732Y-220588690D01*
X189152318Y-220444395D01*
X189029605Y-220321682D01*
X189013108Y-220310659D01*
X213400462Y-220310659D01*
X215900000Y-222810197D01*
X218399538Y-220310659D01*
X218038363Y-219848764D01*
X217402008Y-219490218D01*
X216707932Y-219262709D01*
X215982807Y-219174979D01*
X215254501Y-219230400D01*
X214551000Y-219426841D01*
X213899341Y-219756754D01*
X213761637Y-219848764D01*
X213400462Y-220310659D01*
X189013108Y-220310659D01*
X188885310Y-220225268D01*
X188724978Y-220158856D01*
X188554771Y-220125000D01*
X188381229Y-220125000D01*
X188211022Y-220158856D01*
X188050690Y-220225268D01*
X187906395Y-220321682D01*
X187783682Y-220444395D01*
X187687268Y-220588690D01*
X187621364Y-220747794D01*
X187601595Y-220731570D01*
X187513344Y-220684398D01*
X187417585Y-220655350D01*
X187318000Y-220645542D01*
X186208500Y-220648000D01*
X186081500Y-220775000D01*
X185954500Y-220775000D01*
X185827500Y-220648000D01*
X184718000Y-220645542D01*
X184618415Y-220655350D01*
X184522656Y-220684398D01*
X184434405Y-220731570D01*
X184357052Y-220795052D01*
X184293570Y-220872405D01*
X184246398Y-220960656D01*
X184217350Y-221056415D01*
X184207542Y-221156000D01*
X183227000Y-221156000D01*
X183227000Y-219881000D01*
X183732542Y-219881000D01*
X183742350Y-219980585D01*
X183771398Y-220076344D01*
X183818570Y-220164595D01*
X183882052Y-220241948D01*
X183959405Y-220305430D01*
X184047656Y-220352602D01*
X184143415Y-220381650D01*
X184243000Y-220391458D01*
X185427500Y-220389000D01*
X185554500Y-220262000D01*
X185554500Y-219669500D01*
X185681500Y-219669500D01*
X185681500Y-220262000D01*
X185808500Y-220389000D01*
X186993000Y-220391458D01*
X187092585Y-220381650D01*
X187188344Y-220352602D01*
X187276595Y-220305430D01*
X187353948Y-220241948D01*
X187417430Y-220164595D01*
X187464602Y-220076344D01*
X187493650Y-219980585D01*
X187503458Y-219881000D01*
X187501000Y-219796500D01*
X187374000Y-219669500D01*
X185681500Y-219669500D01*
X185554500Y-219669500D01*
X183862000Y-219669500D01*
X183735000Y-219796500D01*
X183732542Y-219881000D01*
X183227000Y-219881000D01*
X183227000Y-219331000D01*
X183732542Y-219331000D01*
X183735000Y-219415500D01*
X183862000Y-219542500D01*
X185554500Y-219542500D01*
X185554500Y-219522500D01*
X185681500Y-219522500D01*
X185681500Y-219542500D01*
X187374000Y-219542500D01*
X187501000Y-219415500D01*
X187503458Y-219331000D01*
X187499282Y-219288600D01*
X188290802Y-219288600D01*
X188337271Y-219400785D01*
X188406764Y-219504789D01*
X188495211Y-219593236D01*
X188599215Y-219662729D01*
X188714777Y-219710597D01*
X188837458Y-219735000D01*
X188962542Y-219735000D01*
X189085223Y-219710597D01*
X189200785Y-219662729D01*
X189304789Y-219593236D01*
X189393236Y-219504789D01*
X189462729Y-219400785D01*
X189510597Y-219285223D01*
X189535000Y-219162542D01*
X189535000Y-219037458D01*
X189510597Y-218914777D01*
X189462729Y-218799215D01*
X189393236Y-218695211D01*
X189304789Y-218606764D01*
X189200785Y-218537271D01*
X189085223Y-218489403D01*
X189080502Y-218488464D01*
X189104789Y-218472236D01*
X189193236Y-218383789D01*
X189262729Y-218279785D01*
X189310597Y-218164223D01*
X189335000Y-218041542D01*
X189335000Y-217916458D01*
X189310597Y-217793777D01*
X189262729Y-217678215D01*
X189210468Y-217600000D01*
X189262729Y-217521785D01*
X189310597Y-217406223D01*
X189335000Y-217283542D01*
X189335000Y-217158458D01*
X189310597Y-217035777D01*
X189286458Y-216977500D01*
X189565926Y-216977500D01*
X189594000Y-216980265D01*
X189622074Y-216977500D01*
X189635792Y-216976149D01*
X189666465Y-216973128D01*
X189706034Y-216969231D01*
X189813762Y-216936552D01*
X189913045Y-216883484D01*
X190000067Y-216812067D01*
X190017970Y-216790252D01*
X190406396Y-216401827D01*
X190500785Y-216362729D01*
X190604789Y-216293236D01*
X190693236Y-216204789D01*
X190762729Y-216100785D01*
X190801827Y-216006395D01*
X191006396Y-215801827D01*
X191100785Y-215762729D01*
X191204789Y-215693236D01*
X191293236Y-215604789D01*
X191362729Y-215500785D01*
X191410597Y-215385223D01*
X191435000Y-215262542D01*
X191435000Y-215137458D01*
X191410597Y-215014777D01*
X191362729Y-214899215D01*
X191293236Y-214795211D01*
X191204789Y-214706764D01*
X191100785Y-214637271D01*
X190985223Y-214589403D01*
X190862542Y-214565000D01*
X190737458Y-214565000D01*
X190614777Y-214589403D01*
X190499215Y-214637271D01*
X190395211Y-214706764D01*
X190306764Y-214795211D01*
X190237271Y-214899215D01*
X190198173Y-214993604D01*
X189993605Y-215198173D01*
X189899215Y-215237271D01*
X189795211Y-215306764D01*
X189706764Y-215395211D01*
X189637271Y-215499215D01*
X189598173Y-215593604D01*
X189357278Y-215834500D01*
X188769988Y-215834500D01*
X188885310Y-215786732D01*
X189029605Y-215690318D01*
X189152318Y-215567605D01*
X189248732Y-215423310D01*
X189315144Y-215262978D01*
X189349000Y-215092771D01*
X189349000Y-214919229D01*
X189315144Y-214749022D01*
X189248732Y-214588690D01*
X189152318Y-214444395D01*
X189029605Y-214321682D01*
X188885310Y-214225268D01*
X188724978Y-214158856D01*
X188554771Y-214125000D01*
X188381229Y-214125000D01*
X188211022Y-214158856D01*
X188050690Y-214225268D01*
X187906395Y-214321682D01*
X187827634Y-214400443D01*
X187826000Y-213496500D01*
X187699000Y-213369500D01*
X186081500Y-213369500D01*
X186081500Y-215237000D01*
X186208500Y-215364000D01*
X187318000Y-215366458D01*
X187417585Y-215356650D01*
X187513344Y-215327602D01*
X187601595Y-215280430D01*
X187621364Y-215264206D01*
X187687268Y-215423310D01*
X187783682Y-215567605D01*
X187906395Y-215690318D01*
X188050690Y-215786732D01*
X188166012Y-215834500D01*
X187142059Y-215834500D01*
X187054627Y-215787766D01*
X186957014Y-215758155D01*
X186855500Y-215748157D01*
X184380500Y-215748157D01*
X184278986Y-215758155D01*
X184181373Y-215787766D01*
X184091413Y-215835851D01*
X184012562Y-215900562D01*
X183947851Y-215979413D01*
X183899766Y-216069373D01*
X183870155Y-216166986D01*
X183860157Y-216268500D01*
X183860157Y-216543500D01*
X183870155Y-216645014D01*
X183899766Y-216742627D01*
X183933640Y-216806000D01*
X183899766Y-216869373D01*
X183870155Y-216966986D01*
X183860157Y-217068500D01*
X183860157Y-217343500D01*
X183870155Y-217445014D01*
X183899766Y-217542627D01*
X183933640Y-217606000D01*
X183899766Y-217669373D01*
X183870155Y-217766986D01*
X183860157Y-217868500D01*
X183860157Y-218143500D01*
X183870155Y-218245014D01*
X183899766Y-218342627D01*
X183933640Y-218406000D01*
X183899766Y-218469373D01*
X183870155Y-218566986D01*
X183860157Y-218668500D01*
X183860157Y-218943500D01*
X183864838Y-218991027D01*
X183818570Y-219047405D01*
X183771398Y-219135656D01*
X183742350Y-219231415D01*
X183732542Y-219331000D01*
X183227000Y-219331000D01*
X183227000Y-214856000D01*
X184207542Y-214856000D01*
X184217350Y-214955585D01*
X184246398Y-215051344D01*
X184293570Y-215139595D01*
X184357052Y-215216948D01*
X184434405Y-215280430D01*
X184522656Y-215327602D01*
X184618415Y-215356650D01*
X184718000Y-215366458D01*
X185827500Y-215364000D01*
X185954500Y-215237000D01*
X185954500Y-213369500D01*
X184337000Y-213369500D01*
X184210000Y-213496500D01*
X184207542Y-214856000D01*
X183227000Y-214856000D01*
X183227000Y-211756000D01*
X184207542Y-211756000D01*
X184210000Y-213115500D01*
X184337000Y-213242500D01*
X185954500Y-213242500D01*
X185954500Y-211375000D01*
X186081500Y-211375000D01*
X186081500Y-213242500D01*
X187699000Y-213242500D01*
X187826000Y-213115500D01*
X187828458Y-211756000D01*
X187818650Y-211656415D01*
X187789602Y-211560656D01*
X187742430Y-211472405D01*
X187678948Y-211395052D01*
X187601595Y-211331570D01*
X187513344Y-211284398D01*
X187417585Y-211255350D01*
X187318000Y-211245542D01*
X186208500Y-211248000D01*
X186081500Y-211375000D01*
X185954500Y-211375000D01*
X185827500Y-211248000D01*
X184718000Y-211245542D01*
X184618415Y-211255350D01*
X184522656Y-211284398D01*
X184434405Y-211331570D01*
X184357052Y-211395052D01*
X184293570Y-211472405D01*
X184246398Y-211560656D01*
X184217350Y-211656415D01*
X184207542Y-211756000D01*
X183227000Y-211756000D01*
X183227000Y-205289341D01*
X185100462Y-205289341D01*
X185461637Y-205751236D01*
X186097992Y-206109782D01*
X186792068Y-206337291D01*
X187517193Y-206425021D01*
X188245499Y-206369600D01*
X188949000Y-206173159D01*
X189600659Y-205843246D01*
X189738363Y-205751236D01*
X190099538Y-205289341D01*
X187600000Y-202789803D01*
X185100462Y-205289341D01*
X183227000Y-205289341D01*
X183227000Y-202617193D01*
X183874979Y-202617193D01*
X183930400Y-203345499D01*
X184126841Y-204049000D01*
X184456754Y-204700659D01*
X184548764Y-204838363D01*
X185010659Y-205199538D01*
X187510197Y-202700000D01*
X187689803Y-202700000D01*
X190189341Y-205199538D01*
X190651236Y-204838363D01*
X191009782Y-204202008D01*
X191237291Y-203507932D01*
X191282113Y-203137458D01*
X200665000Y-203137458D01*
X200665000Y-203262542D01*
X200689403Y-203385223D01*
X200737271Y-203500785D01*
X200806764Y-203604789D01*
X200895211Y-203693236D01*
X200999215Y-203762729D01*
X201114777Y-203810597D01*
X201237458Y-203835000D01*
X201362542Y-203835000D01*
X201485223Y-203810597D01*
X201600785Y-203762729D01*
X201704789Y-203693236D01*
X201793236Y-203604789D01*
X201862729Y-203500785D01*
X201910597Y-203385223D01*
X201935000Y-203262542D01*
X201935000Y-203137458D01*
X201910597Y-203014777D01*
X201862729Y-202899215D01*
X201793236Y-202795211D01*
X201704789Y-202706764D01*
X201600785Y-202637271D01*
X201485223Y-202589403D01*
X201362542Y-202565000D01*
X201237458Y-202565000D01*
X201114777Y-202589403D01*
X200999215Y-202637271D01*
X200895211Y-202706764D01*
X200806764Y-202795211D01*
X200737271Y-202899215D01*
X200689403Y-203014777D01*
X200665000Y-203137458D01*
X191282113Y-203137458D01*
X191325021Y-202782807D01*
X191269600Y-202054501D01*
X191073159Y-201351000D01*
X191015677Y-201237458D01*
X200665000Y-201237458D01*
X200665000Y-201362542D01*
X200689403Y-201485223D01*
X200737271Y-201600785D01*
X200806764Y-201704789D01*
X200895211Y-201793236D01*
X200999215Y-201862729D01*
X201114777Y-201910597D01*
X201237458Y-201935000D01*
X201362542Y-201935000D01*
X201485223Y-201910597D01*
X201600785Y-201862729D01*
X201704789Y-201793236D01*
X201793236Y-201704789D01*
X201862729Y-201600785D01*
X201910597Y-201485223D01*
X201935000Y-201362542D01*
X201935000Y-201237458D01*
X201910597Y-201114777D01*
X201862729Y-200999215D01*
X201793236Y-200895211D01*
X201704789Y-200806764D01*
X201600785Y-200737271D01*
X201485223Y-200689403D01*
X201362542Y-200665000D01*
X201237458Y-200665000D01*
X201114777Y-200689403D01*
X200999215Y-200737271D01*
X200895211Y-200806764D01*
X200806764Y-200895211D01*
X200737271Y-200999215D01*
X200689403Y-201114777D01*
X200665000Y-201237458D01*
X191015677Y-201237458D01*
X190743246Y-200699341D01*
X190651236Y-200561637D01*
X190189341Y-200200462D01*
X187689803Y-202700000D01*
X187510197Y-202700000D01*
X185010659Y-200200462D01*
X184548764Y-200561637D01*
X184190218Y-201197992D01*
X183962709Y-201892068D01*
X183874979Y-202617193D01*
X183227000Y-202617193D01*
X183227000Y-200306234D01*
X183244376Y-200129811D01*
X183294022Y-199966150D01*
X183374638Y-199815328D01*
X183483130Y-199683130D01*
X183615328Y-199574638D01*
X183766150Y-199494022D01*
X183929811Y-199444376D01*
X184106234Y-199427000D01*
X185855637Y-199427000D01*
X185599341Y-199556754D01*
X185461637Y-199648764D01*
X185100462Y-200110659D01*
X187600000Y-202610197D01*
X190099538Y-200110659D01*
X189738363Y-199648764D01*
X189344772Y-199427000D01*
X196100000Y-199427000D01*
X196112448Y-199426388D01*
X196307538Y-199407173D01*
X196331956Y-199402317D01*
X196519549Y-199345412D01*
X196542550Y-199335884D01*
X196715437Y-199243474D01*
X196736138Y-199229642D01*
X196887675Y-199105279D01*
X196905279Y-199087675D01*
X197029642Y-198936138D01*
X197043474Y-198915437D01*
X197135884Y-198742550D01*
X197145412Y-198719549D01*
X197202317Y-198531956D01*
X197207173Y-198507538D01*
X197226388Y-198312448D01*
X197227000Y-198300000D01*
X197227000Y-191337458D01*
X200665000Y-191337458D01*
X200665000Y-191462542D01*
X200689403Y-191585223D01*
X200737271Y-191700785D01*
X200806764Y-191804789D01*
X200895211Y-191893236D01*
X200999215Y-191962729D01*
X201114777Y-192010597D01*
X201237458Y-192035000D01*
X201362542Y-192035000D01*
X201485223Y-192010597D01*
X201600785Y-191962729D01*
X201704789Y-191893236D01*
X201793236Y-191804789D01*
X201862729Y-191700785D01*
X201910597Y-191585223D01*
X201935000Y-191462542D01*
X201935000Y-191337458D01*
X201910597Y-191214777D01*
X201862729Y-191099215D01*
X201793236Y-190995211D01*
X201704789Y-190906764D01*
X201600785Y-190837271D01*
X201485223Y-190789403D01*
X201362542Y-190765000D01*
X201237458Y-190765000D01*
X201114777Y-190789403D01*
X200999215Y-190837271D01*
X200895211Y-190906764D01*
X200806764Y-190995211D01*
X200737271Y-191099215D01*
X200689403Y-191214777D01*
X200665000Y-191337458D01*
X197227000Y-191337458D01*
X197227000Y-188037458D01*
X200665000Y-188037458D01*
X200665000Y-188162542D01*
X200689403Y-188285223D01*
X200737271Y-188400785D01*
X200806764Y-188504789D01*
X200895211Y-188593236D01*
X200999215Y-188662729D01*
X201114777Y-188710597D01*
X201237458Y-188735000D01*
X201362542Y-188735000D01*
X201485223Y-188710597D01*
X201600785Y-188662729D01*
X201704789Y-188593236D01*
X201793236Y-188504789D01*
X201862729Y-188400785D01*
X201910597Y-188285223D01*
X201935000Y-188162542D01*
X201935000Y-188037458D01*
X201910597Y-187914777D01*
X201862729Y-187799215D01*
X201793236Y-187695211D01*
X201704789Y-187606764D01*
X201600785Y-187537271D01*
X201485223Y-187489403D01*
X201362542Y-187465000D01*
X201237458Y-187465000D01*
X201114777Y-187489403D01*
X200999215Y-187537271D01*
X200895211Y-187606764D01*
X200806764Y-187695211D01*
X200737271Y-187799215D01*
X200689403Y-187914777D01*
X200665000Y-188037458D01*
X197227000Y-188037458D01*
X197227000Y-180789341D01*
X203000462Y-180789341D01*
X203361637Y-181251236D01*
X203997992Y-181609782D01*
X204692068Y-181837291D01*
X205417193Y-181925021D01*
X206145499Y-181869600D01*
X206849000Y-181673159D01*
X207500659Y-181343246D01*
X207638363Y-181251236D01*
X207999538Y-180789341D01*
X205500000Y-178289803D01*
X203000462Y-180789341D01*
X197227000Y-180789341D01*
X197227000Y-178117193D01*
X201774979Y-178117193D01*
X201830400Y-178845499D01*
X202026841Y-179549000D01*
X202356754Y-180200659D01*
X202448764Y-180338363D01*
X202910659Y-180699538D01*
X205410197Y-178200000D01*
X205589803Y-178200000D01*
X208089341Y-180699538D01*
X208551236Y-180338363D01*
X208909782Y-179702008D01*
X209137291Y-179007932D01*
X209225021Y-178282807D01*
X209169600Y-177554501D01*
X208973159Y-176851000D01*
X208643246Y-176199341D01*
X208551236Y-176061637D01*
X208089341Y-175700462D01*
X205589803Y-178200000D01*
X205410197Y-178200000D01*
X202910659Y-175700462D01*
X202448764Y-176061637D01*
X202090218Y-176697992D01*
X201862709Y-177392068D01*
X201774979Y-178117193D01*
X197227000Y-178117193D01*
X197227000Y-175610659D01*
X203000462Y-175610659D01*
X205500000Y-178110197D01*
X207999538Y-175610659D01*
X207638363Y-175148764D01*
X207002008Y-174790218D01*
X206307932Y-174562709D01*
X205582807Y-174474979D01*
X204854501Y-174530400D01*
X204151000Y-174726841D01*
X203499341Y-175056754D01*
X203361637Y-175148764D01*
X203000462Y-175610659D01*
X197227000Y-175610659D01*
X197227000Y-172837458D01*
X200665000Y-172837458D01*
X200665000Y-172962542D01*
X200689403Y-173085223D01*
X200737271Y-173200785D01*
X200806764Y-173304789D01*
X200895211Y-173393236D01*
X200999215Y-173462729D01*
X201114777Y-173510597D01*
X201237458Y-173535000D01*
X201362542Y-173535000D01*
X201485223Y-173510597D01*
X201600785Y-173462729D01*
X201704789Y-173393236D01*
X201793236Y-173304789D01*
X201862729Y-173200785D01*
X201910597Y-173085223D01*
X201935000Y-172962542D01*
X201935000Y-172837458D01*
X201910597Y-172714777D01*
X201862729Y-172599215D01*
X201793236Y-172495211D01*
X201704789Y-172406764D01*
X201600785Y-172337271D01*
X201485223Y-172289403D01*
X201362542Y-172265000D01*
X201237458Y-172265000D01*
X201114777Y-172289403D01*
X200999215Y-172337271D01*
X200895211Y-172406764D01*
X200806764Y-172495211D01*
X200737271Y-172599215D01*
X200689403Y-172714777D01*
X200665000Y-172837458D01*
X197227000Y-172837458D01*
X197227000Y-170437458D01*
X200665000Y-170437458D01*
X200665000Y-170562542D01*
X200689403Y-170685223D01*
X200737271Y-170800785D01*
X200806764Y-170904789D01*
X200895211Y-170993236D01*
X200999215Y-171062729D01*
X201114777Y-171110597D01*
X201237458Y-171135000D01*
X201362542Y-171135000D01*
X201485223Y-171110597D01*
X201600785Y-171062729D01*
X201704789Y-170993236D01*
X201793236Y-170904789D01*
X201862729Y-170800785D01*
X201910597Y-170685223D01*
X201935000Y-170562542D01*
X201935000Y-170437458D01*
X201910597Y-170314777D01*
X201862729Y-170199215D01*
X201793236Y-170095211D01*
X201704789Y-170006764D01*
X201600785Y-169937271D01*
X201485223Y-169889403D01*
X201362542Y-169865000D01*
X201237458Y-169865000D01*
X201114777Y-169889403D01*
X200999215Y-169937271D01*
X200895211Y-170006764D01*
X200806764Y-170095211D01*
X200737271Y-170199215D01*
X200689403Y-170314777D01*
X200665000Y-170437458D01*
X197227000Y-170437458D01*
X197227000Y-152137458D01*
X209265000Y-152137458D01*
X209265000Y-152262542D01*
X209289403Y-152385223D01*
X209337271Y-152500785D01*
X209406764Y-152604789D01*
X209495211Y-152693236D01*
X209599215Y-152762729D01*
X209714777Y-152810597D01*
X209837458Y-152835000D01*
X209954973Y-152835000D01*
X209923762Y-152866211D01*
X209854269Y-152970215D01*
X209806401Y-153085777D01*
X209781998Y-153208458D01*
X209781998Y-153333542D01*
X209806401Y-153456223D01*
X209854269Y-153571785D01*
X209906530Y-153650000D01*
X209854269Y-153728215D01*
X209806401Y-153843777D01*
X209781998Y-153966458D01*
X209781998Y-154091542D01*
X209806401Y-154214223D01*
X209854269Y-154329785D01*
X209923762Y-154433789D01*
X210012209Y-154522236D01*
X210116213Y-154591729D01*
X210156065Y-154608236D01*
X210075518Y-154688783D01*
X210057099Y-154703899D01*
X209996791Y-154777385D01*
X209951978Y-154861224D01*
X209924383Y-154952195D01*
X209917798Y-155019052D01*
X209915065Y-155046800D01*
X209917400Y-155070506D01*
X209917400Y-155084575D01*
X209906764Y-155095211D01*
X209837271Y-155199215D01*
X209789403Y-155314777D01*
X209765000Y-155437458D01*
X209765000Y-155562542D01*
X209789403Y-155685223D01*
X209837271Y-155800785D01*
X209906764Y-155904789D01*
X209995211Y-155993236D01*
X210099215Y-156062729D01*
X210214777Y-156110597D01*
X210337458Y-156135000D01*
X210462542Y-156135000D01*
X210585223Y-156110597D01*
X210700785Y-156062729D01*
X210804789Y-155993236D01*
X210893236Y-155904789D01*
X210896435Y-155900000D01*
X211889542Y-155900000D01*
X211899350Y-155999585D01*
X211928398Y-156095344D01*
X211975570Y-156183595D01*
X212039052Y-156260948D01*
X212116405Y-156324430D01*
X212204656Y-156371602D01*
X212300415Y-156400650D01*
X212400000Y-156410458D01*
X212709500Y-156408000D01*
X212836500Y-156281000D01*
X212836500Y-155703500D01*
X212963500Y-155703500D01*
X212963500Y-156281000D01*
X213090500Y-156408000D01*
X213400000Y-156410458D01*
X213499585Y-156400650D01*
X213595344Y-156371602D01*
X213683595Y-156324430D01*
X213760948Y-156260948D01*
X213824430Y-156183595D01*
X213871602Y-156095344D01*
X213900650Y-155999585D01*
X213910458Y-155900000D01*
X213908000Y-155830500D01*
X213781000Y-155703500D01*
X212963500Y-155703500D01*
X212836500Y-155703500D01*
X212019000Y-155703500D01*
X211892000Y-155830500D01*
X211889542Y-155900000D01*
X210896435Y-155900000D01*
X210962729Y-155800785D01*
X211010597Y-155685223D01*
X211035000Y-155562542D01*
X211035000Y-155511095D01*
X211054656Y-155521602D01*
X211150415Y-155550650D01*
X211250000Y-155560458D01*
X211509500Y-155558000D01*
X211636500Y-155431000D01*
X211636500Y-154932843D01*
X211763500Y-154932843D01*
X211763500Y-155431000D01*
X211890500Y-155558000D01*
X212001552Y-155559052D01*
X212019000Y-155576500D01*
X212836500Y-155576500D01*
X212836500Y-154999000D01*
X212963500Y-154999000D01*
X212963500Y-155576500D01*
X213781000Y-155576500D01*
X213908000Y-155449500D01*
X213910458Y-155380000D01*
X213900650Y-155280415D01*
X213871602Y-155184656D01*
X213824430Y-155096405D01*
X213760948Y-155019052D01*
X213683595Y-154955570D01*
X213595344Y-154908398D01*
X213499585Y-154879350D01*
X213400000Y-154869542D01*
X213090500Y-154872000D01*
X212963500Y-154999000D01*
X212836500Y-154999000D01*
X212709500Y-154872000D01*
X212658000Y-154871591D01*
X212658000Y-154836498D01*
X212571502Y-154836498D01*
X212658000Y-154750000D01*
X212660458Y-154750000D01*
X212650650Y-154650415D01*
X212621602Y-154554656D01*
X212574430Y-154466405D01*
X212532843Y-154415731D01*
X212532843Y-154250000D01*
X212525487Y-154175311D01*
X212517809Y-154150000D01*
X212525487Y-154124689D01*
X212532843Y-154050000D01*
X212532843Y-153750000D01*
X212525487Y-153675311D01*
X212517809Y-153650000D01*
X212525487Y-153624689D01*
X212532843Y-153550000D01*
X212532843Y-153250000D01*
X212525487Y-153175311D01*
X212517809Y-153150000D01*
X212525487Y-153124689D01*
X212532843Y-153050000D01*
X212532843Y-152929403D01*
X212709500Y-152928000D01*
X212836500Y-152801000D01*
X212836500Y-152223500D01*
X212963500Y-152223500D01*
X212963500Y-152801000D01*
X213090500Y-152928000D01*
X213400000Y-152930458D01*
X213499585Y-152920650D01*
X213595344Y-152891602D01*
X213683595Y-152844430D01*
X213760948Y-152780948D01*
X213824430Y-152703595D01*
X213871602Y-152615344D01*
X213900650Y-152519585D01*
X213910458Y-152420000D01*
X213908000Y-152350500D01*
X213781000Y-152223500D01*
X212963500Y-152223500D01*
X212836500Y-152223500D01*
X212816500Y-152223500D01*
X212816500Y-152096500D01*
X212836500Y-152096500D01*
X212836500Y-151519000D01*
X212963500Y-151519000D01*
X212963500Y-152096500D01*
X213781000Y-152096500D01*
X213908000Y-151969500D01*
X213910458Y-151900000D01*
X213900650Y-151800415D01*
X213871602Y-151704656D01*
X213824430Y-151616405D01*
X213760948Y-151539052D01*
X213683595Y-151475570D01*
X213595344Y-151428398D01*
X213499585Y-151399350D01*
X213400000Y-151389542D01*
X213090500Y-151392000D01*
X212963500Y-151519000D01*
X212836500Y-151519000D01*
X212709500Y-151392000D01*
X212400000Y-151389542D01*
X212300415Y-151399350D01*
X212204656Y-151428398D01*
X212116405Y-151475570D01*
X212039052Y-151539052D01*
X211975570Y-151616405D01*
X211961377Y-151642957D01*
X211576855Y-151258435D01*
X211560948Y-151239052D01*
X211483595Y-151175571D01*
X211395343Y-151128399D01*
X211299585Y-151099351D01*
X211224947Y-151092000D01*
X211224944Y-151092000D01*
X211200000Y-151089543D01*
X211175056Y-151092000D01*
X210524943Y-151092000D01*
X210499999Y-151089543D01*
X210475055Y-151092000D01*
X210475053Y-151092000D01*
X210400415Y-151099351D01*
X210304657Y-151128399D01*
X210304655Y-151128400D01*
X210216404Y-151175571D01*
X210174718Y-151209782D01*
X210139052Y-151239052D01*
X210123149Y-151258430D01*
X209811395Y-151570184D01*
X209714777Y-151589403D01*
X209599215Y-151637271D01*
X209495211Y-151706764D01*
X209406764Y-151795211D01*
X209337271Y-151899215D01*
X209289403Y-152014777D01*
X209265000Y-152137458D01*
X197227000Y-152137458D01*
X197227000Y-151406234D01*
X197244376Y-151229811D01*
X197294022Y-151066150D01*
X197374638Y-150915328D01*
X197483130Y-150783130D01*
X197615328Y-150674638D01*
X197766150Y-150594022D01*
X197929811Y-150544376D01*
X198106234Y-150527000D01*
X215093766Y-150527000D01*
X215270189Y-150544376D01*
G37*
%TD.AperFunction*%
%TD*%
D21*
%TO.N,GND*%
X182100462Y-145210659D02*
X184600000Y-147710197D01*
X187099538Y-145210659D01*
X186799539Y-144827000D01*
X188473000Y-144827000D01*
X188473000Y-174947394D01*
X178410197Y-185010197D01*
X178394403Y-185029443D01*
X178382667Y-185051399D01*
X178375440Y-185075224D01*
X178373000Y-185100000D01*
X178373000Y-227073000D01*
X163371049Y-227073000D01*
X162833330Y-226197286D01*
X162866405Y-226224430D01*
X162954656Y-226271602D01*
X163050415Y-226300650D01*
X163150000Y-226310458D01*
X164509500Y-226308000D01*
X164636500Y-226181000D01*
X164636500Y-224563500D01*
X164763500Y-224563500D01*
X164763500Y-226181000D01*
X164890500Y-226308000D01*
X166250000Y-226310458D01*
X166349585Y-226300650D01*
X166445344Y-226271602D01*
X166533595Y-226224430D01*
X166610948Y-226160948D01*
X166674430Y-226083595D01*
X166721602Y-225995344D01*
X166750650Y-225899585D01*
X166760458Y-225800000D01*
X166758000Y-224690500D01*
X166631000Y-224563500D01*
X164763500Y-224563500D01*
X164636500Y-224563500D01*
X162769000Y-224563500D01*
X162642000Y-224690500D01*
X162639542Y-225800000D01*
X162649124Y-225897294D01*
X160992891Y-223200000D01*
X162639542Y-223200000D01*
X162642000Y-224309500D01*
X162769000Y-224436500D01*
X164636500Y-224436500D01*
X164636500Y-222819000D01*
X164509500Y-222692000D01*
X163150000Y-222689542D01*
X163050415Y-222699350D01*
X162954656Y-222728398D01*
X162866405Y-222775570D01*
X162789052Y-222839052D01*
X162725570Y-222916405D01*
X162678398Y-223004656D01*
X162649350Y-223100415D01*
X162639542Y-223200000D01*
X160992891Y-223200000D01*
X159927000Y-221464121D01*
X159927000Y-218637458D01*
X163865000Y-218637458D01*
X163865000Y-218762542D01*
X163889403Y-218885223D01*
X163937271Y-219000785D01*
X164006764Y-219104789D01*
X164095211Y-219193236D01*
X164199215Y-219262729D01*
X164293605Y-219301827D01*
X164798173Y-219806396D01*
X164837271Y-219900785D01*
X164906764Y-220004789D01*
X164995211Y-220093236D01*
X165099215Y-220162729D01*
X165214777Y-220210597D01*
X165337458Y-220235000D01*
X165462542Y-220235000D01*
X165585223Y-220210597D01*
X165679610Y-220171500D01*
X165863278Y-220171500D01*
X167228500Y-221536723D01*
X167228500Y-221748012D01*
X167180732Y-221632690D01*
X167084318Y-221488395D01*
X166961605Y-221365682D01*
X166817310Y-221269268D01*
X166656978Y-221202856D01*
X166486771Y-221169000D01*
X166313229Y-221169000D01*
X166143022Y-221202856D01*
X165982690Y-221269268D01*
X165838395Y-221365682D01*
X165715682Y-221488395D01*
X165619268Y-221632690D01*
X165552856Y-221793022D01*
X165519000Y-221963229D01*
X165519000Y-222136771D01*
X165552856Y-222306978D01*
X165619268Y-222467310D01*
X165715682Y-222611605D01*
X165794443Y-222690366D01*
X164890500Y-222692000D01*
X164763500Y-222819000D01*
X164763500Y-224436500D01*
X166631000Y-224436500D01*
X166758000Y-224309500D01*
X166760458Y-223200000D01*
X166750650Y-223100415D01*
X166721602Y-223004656D01*
X166674430Y-222916405D01*
X166658206Y-222896636D01*
X166817310Y-222830732D01*
X166961605Y-222734318D01*
X167084318Y-222611605D01*
X167180732Y-222467310D01*
X167228500Y-222351988D01*
X167228501Y-223375939D01*
X167181766Y-223463373D01*
X167152155Y-223560986D01*
X167142157Y-223662500D01*
X167142157Y-226137500D01*
X167152155Y-226239014D01*
X167181766Y-226336627D01*
X167229851Y-226426587D01*
X167294562Y-226505438D01*
X167373413Y-226570149D01*
X167463373Y-226618234D01*
X167560986Y-226647845D01*
X167662500Y-226657843D01*
X167937500Y-226657843D01*
X168039014Y-226647845D01*
X168136627Y-226618234D01*
X168200000Y-226584360D01*
X168263373Y-226618234D01*
X168360986Y-226647845D01*
X168462500Y-226657843D01*
X168737500Y-226657843D01*
X168839014Y-226647845D01*
X168936627Y-226618234D01*
X169000000Y-226584360D01*
X169063373Y-226618234D01*
X169160986Y-226647845D01*
X169262500Y-226657843D01*
X169537500Y-226657843D01*
X169639014Y-226647845D01*
X169736627Y-226618234D01*
X169800000Y-226584360D01*
X169863373Y-226618234D01*
X169960986Y-226647845D01*
X170062500Y-226657843D01*
X170337500Y-226657843D01*
X170385027Y-226653162D01*
X170441405Y-226699430D01*
X170529656Y-226746602D01*
X170625415Y-226775650D01*
X170725000Y-226785458D01*
X170809500Y-226783000D01*
X170936500Y-226656000D01*
X170936500Y-224963500D01*
X171063500Y-224963500D01*
X171063500Y-226656000D01*
X171190500Y-226783000D01*
X171275000Y-226785458D01*
X171374585Y-226775650D01*
X171470344Y-226746602D01*
X171558595Y-226699430D01*
X171635948Y-226635948D01*
X171699430Y-226558595D01*
X171746602Y-226470344D01*
X171775650Y-226374585D01*
X171785458Y-226275000D01*
X171784473Y-225800000D01*
X172039542Y-225800000D01*
X172049350Y-225899585D01*
X172078398Y-225995344D01*
X172125570Y-226083595D01*
X172189052Y-226160948D01*
X172266405Y-226224430D01*
X172354656Y-226271602D01*
X172450415Y-226300650D01*
X172550000Y-226310458D01*
X173909500Y-226308000D01*
X174036500Y-226181000D01*
X174036500Y-224563500D01*
X174163500Y-224563500D01*
X174163500Y-226181000D01*
X174290500Y-226308000D01*
X175650000Y-226310458D01*
X175749585Y-226300650D01*
X175845344Y-226271602D01*
X175933595Y-226224430D01*
X176010948Y-226160948D01*
X176074430Y-226083595D01*
X176121602Y-225995344D01*
X176150650Y-225899585D01*
X176160458Y-225800000D01*
X176158000Y-224690500D01*
X176031000Y-224563500D01*
X174163500Y-224563500D01*
X174036500Y-224563500D01*
X172169000Y-224563500D01*
X172042000Y-224690500D01*
X172039542Y-225800000D01*
X171784473Y-225800000D01*
X171783000Y-225090500D01*
X171656000Y-224963500D01*
X171063500Y-224963500D01*
X170936500Y-224963500D01*
X170916500Y-224963500D01*
X170916500Y-224836500D01*
X170936500Y-224836500D01*
X170936500Y-223144000D01*
X171063500Y-223144000D01*
X171063500Y-224836500D01*
X171656000Y-224836500D01*
X171783000Y-224709500D01*
X171785458Y-223525000D01*
X171775650Y-223425415D01*
X171746602Y-223329656D01*
X171699430Y-223241405D01*
X171635948Y-223164052D01*
X171558595Y-223100570D01*
X171470344Y-223053398D01*
X171374585Y-223024350D01*
X171275000Y-223014542D01*
X171190500Y-223017000D01*
X171063500Y-223144000D01*
X170936500Y-223144000D01*
X170809500Y-223017000D01*
X170725000Y-223014542D01*
X170682600Y-223018718D01*
X170682600Y-222008062D01*
X170704789Y-221993236D01*
X170734796Y-221963229D01*
X171519000Y-221963229D01*
X171519000Y-222136771D01*
X171552856Y-222306978D01*
X171619268Y-222467310D01*
X171715682Y-222611605D01*
X171838395Y-222734318D01*
X171982690Y-222830732D01*
X172141794Y-222896636D01*
X172125570Y-222916405D01*
X172078398Y-223004656D01*
X172049350Y-223100415D01*
X172039542Y-223200000D01*
X172042000Y-224309500D01*
X172169000Y-224436500D01*
X174036500Y-224436500D01*
X174036500Y-222819000D01*
X174163500Y-222819000D01*
X174163500Y-224436500D01*
X176031000Y-224436500D01*
X176158000Y-224309500D01*
X176160458Y-223200000D01*
X176150650Y-223100415D01*
X176121602Y-223004656D01*
X176074430Y-222916405D01*
X176010948Y-222839052D01*
X175933595Y-222775570D01*
X175845344Y-222728398D01*
X175749585Y-222699350D01*
X175650000Y-222689542D01*
X174290500Y-222692000D01*
X174163500Y-222819000D01*
X174036500Y-222819000D01*
X173909500Y-222692000D01*
X173005557Y-222690366D01*
X173084318Y-222611605D01*
X173180732Y-222467310D01*
X173247144Y-222306978D01*
X173281000Y-222136771D01*
X173281000Y-221963229D01*
X173247144Y-221793022D01*
X173180732Y-221632690D01*
X173084318Y-221488395D01*
X172961605Y-221365682D01*
X172817310Y-221269268D01*
X172656978Y-221202856D01*
X172486771Y-221169000D01*
X172313229Y-221169000D01*
X172143022Y-221202856D01*
X171982690Y-221269268D01*
X171838395Y-221365682D01*
X171715682Y-221488395D01*
X171619268Y-221632690D01*
X171552856Y-221793022D01*
X171519000Y-221963229D01*
X170734796Y-221963229D01*
X170793236Y-221904789D01*
X170862729Y-221800785D01*
X170910597Y-221685223D01*
X170935000Y-221562542D01*
X170935000Y-221437458D01*
X170910597Y-221314777D01*
X170862729Y-221199215D01*
X170793236Y-221095211D01*
X170704789Y-221006764D01*
X170600785Y-220937271D01*
X170485223Y-220889403D01*
X170362542Y-220865000D01*
X170237458Y-220865000D01*
X170114777Y-220889403D01*
X169999215Y-220937271D01*
X169895211Y-221006764D01*
X169806764Y-221095211D01*
X169737271Y-221199215D01*
X169689403Y-221314777D01*
X169666160Y-221431627D01*
X169564223Y-221389403D01*
X169441542Y-221365000D01*
X169316458Y-221365000D01*
X169193777Y-221389403D01*
X169078215Y-221437271D01*
X169000000Y-221489532D01*
X168921785Y-221437271D01*
X168806223Y-221389403D01*
X168683542Y-221365000D01*
X168558458Y-221365000D01*
X168435777Y-221389403D01*
X168371500Y-221416028D01*
X168371500Y-221328073D01*
X168374265Y-221299999D01*
X168363231Y-221187966D01*
X168330552Y-221080238D01*
X168277484Y-220980955D01*
X168260825Y-220960656D01*
X168206067Y-220893933D01*
X168184258Y-220876035D01*
X166523970Y-219215748D01*
X166506067Y-219193933D01*
X166419045Y-219122516D01*
X166319762Y-219069448D01*
X166212034Y-219036769D01*
X166128074Y-219028500D01*
X166100000Y-219025735D01*
X166071926Y-219028500D01*
X165679610Y-219028500D01*
X165606396Y-218998173D01*
X165101827Y-218493605D01*
X165062729Y-218399215D01*
X164993236Y-218295211D01*
X164904789Y-218206764D01*
X164800785Y-218137271D01*
X164685223Y-218089403D01*
X164562542Y-218065000D01*
X164437458Y-218065000D01*
X164314777Y-218089403D01*
X164199215Y-218137271D01*
X164095211Y-218206764D01*
X164006764Y-218295211D01*
X163937271Y-218399215D01*
X163889403Y-218514777D01*
X163865000Y-218637458D01*
X159927000Y-218637458D01*
X159927000Y-213189341D01*
X170100462Y-213189341D01*
X170461637Y-213651236D01*
X171097992Y-214009782D01*
X171792068Y-214237291D01*
X172517193Y-214325021D01*
X173245499Y-214269600D01*
X173949000Y-214073159D01*
X174600659Y-213743246D01*
X174738363Y-213651236D01*
X175099538Y-213189341D01*
X172600000Y-210689803D01*
X170100462Y-213189341D01*
X159927000Y-213189341D01*
X159927000Y-210517193D01*
X168874979Y-210517193D01*
X168930400Y-211245499D01*
X169126841Y-211949000D01*
X169456754Y-212600659D01*
X169548764Y-212738363D01*
X170010659Y-213099538D01*
X172510197Y-210600000D01*
X172689803Y-210600000D01*
X175189341Y-213099538D01*
X175651236Y-212738363D01*
X176009782Y-212102008D01*
X176237291Y-211407932D01*
X176325021Y-210682807D01*
X176269600Y-209954501D01*
X176073159Y-209251000D01*
X175743246Y-208599341D01*
X175651236Y-208461637D01*
X175189341Y-208100462D01*
X172689803Y-210600000D01*
X172510197Y-210600000D01*
X170010659Y-208100462D01*
X169548764Y-208461637D01*
X169190218Y-209097992D01*
X168962709Y-209792068D01*
X168874979Y-210517193D01*
X159927000Y-210517193D01*
X159927000Y-208010659D01*
X170100462Y-208010659D01*
X172600000Y-210510197D01*
X175099538Y-208010659D01*
X174738363Y-207548764D01*
X174102008Y-207190218D01*
X173407932Y-206962709D01*
X172682807Y-206874979D01*
X171954501Y-206930400D01*
X171251000Y-207126841D01*
X170599341Y-207456754D01*
X170461637Y-207548764D01*
X170100462Y-208010659D01*
X159927000Y-208010659D01*
X159927000Y-202353550D01*
X163888659Y-198490932D01*
X163904695Y-198471888D01*
X163916708Y-198450082D01*
X163924236Y-198426351D01*
X163927000Y-198400000D01*
X163927000Y-174289341D01*
X182100462Y-174289341D01*
X182461637Y-174751236D01*
X183097992Y-175109782D01*
X183792068Y-175337291D01*
X184517193Y-175425021D01*
X185245499Y-175369600D01*
X185949000Y-175173159D01*
X186600659Y-174843246D01*
X186738363Y-174751236D01*
X187099538Y-174289341D01*
X184600000Y-171789803D01*
X182100462Y-174289341D01*
X163927000Y-174289341D01*
X163927000Y-171617193D01*
X180874979Y-171617193D01*
X180930400Y-172345499D01*
X181126841Y-173049000D01*
X181456754Y-173700659D01*
X181548764Y-173838363D01*
X182010659Y-174199538D01*
X184510197Y-171700000D01*
X184689803Y-171700000D01*
X187189341Y-174199538D01*
X187651236Y-173838363D01*
X188009782Y-173202008D01*
X188237291Y-172507932D01*
X188325021Y-171782807D01*
X188269600Y-171054501D01*
X188073159Y-170351000D01*
X187743246Y-169699341D01*
X187651236Y-169561637D01*
X187189341Y-169200462D01*
X184689803Y-171700000D01*
X184510197Y-171700000D01*
X182010659Y-169200462D01*
X181548764Y-169561637D01*
X181190218Y-170197992D01*
X180962709Y-170892068D01*
X180874979Y-171617193D01*
X163927000Y-171617193D01*
X163927000Y-169110659D01*
X182100462Y-169110659D01*
X184600000Y-171610197D01*
X187099538Y-169110659D01*
X186738363Y-168648764D01*
X186102008Y-168290218D01*
X185407932Y-168062709D01*
X184682807Y-167974979D01*
X183954501Y-168030400D01*
X183251000Y-168226841D01*
X182599341Y-168556754D01*
X182461637Y-168648764D01*
X182100462Y-169110659D01*
X163927000Y-169110659D01*
X163927000Y-156631204D01*
X168601500Y-156631204D01*
X168601500Y-156768796D01*
X168628343Y-156903745D01*
X168680997Y-157030864D01*
X168757439Y-157145268D01*
X168792000Y-157179829D01*
X168792001Y-157220170D01*
X168757439Y-157254732D01*
X168680997Y-157369136D01*
X168628343Y-157496255D01*
X168601500Y-157631204D01*
X168601500Y-157768796D01*
X168628343Y-157903745D01*
X168680997Y-158030864D01*
X168757439Y-158145268D01*
X168854732Y-158242561D01*
X168969136Y-158319003D01*
X169096255Y-158371657D01*
X169231204Y-158398500D01*
X169368796Y-158398500D01*
X169503745Y-158371657D01*
X169630864Y-158319003D01*
X169745268Y-158242561D01*
X169842561Y-158145268D01*
X169919003Y-158030864D01*
X169971657Y-157903745D01*
X169998500Y-157768796D01*
X169998500Y-157631204D01*
X169971657Y-157496255D01*
X169919003Y-157369136D01*
X169842561Y-157254732D01*
X169808000Y-157220171D01*
X169808000Y-157179829D01*
X169842561Y-157145268D01*
X169919003Y-157030864D01*
X169971657Y-156903745D01*
X169998500Y-156768796D01*
X169998500Y-156741500D01*
X170239369Y-156741500D01*
X170241013Y-156758189D01*
X170262799Y-156830008D01*
X170298178Y-156896196D01*
X170345789Y-156954211D01*
X170403804Y-157001822D01*
X170469992Y-157037201D01*
X170541811Y-157058987D01*
X170616500Y-157066343D01*
X170689464Y-157066343D01*
X170644264Y-157111543D01*
X170574771Y-157215547D01*
X170526903Y-157331109D01*
X170502500Y-157453790D01*
X170502500Y-157578874D01*
X170526903Y-157701555D01*
X170574771Y-157817117D01*
X170644264Y-157921121D01*
X170732711Y-158009568D01*
X170836715Y-158079061D01*
X170952277Y-158126929D01*
X171074958Y-158151332D01*
X171200042Y-158151332D01*
X171322723Y-158126929D01*
X171438285Y-158079061D01*
X171516500Y-158026800D01*
X171594715Y-158079061D01*
X171710277Y-158126929D01*
X171832958Y-158151332D01*
X171958042Y-158151332D01*
X172080723Y-158126929D01*
X172196285Y-158079061D01*
X172300289Y-158009568D01*
X172388736Y-157921121D01*
X172458229Y-157817117D01*
X172480656Y-157762975D01*
X172538150Y-157820469D01*
X172553078Y-157838660D01*
X172625655Y-157898222D01*
X172708457Y-157942480D01*
X172771047Y-157961466D01*
X172798301Y-157969734D01*
X172891737Y-157978937D01*
X172915150Y-157976631D01*
X173078606Y-157976631D01*
X173095211Y-157993236D01*
X173199215Y-158062729D01*
X173314777Y-158110597D01*
X173437458Y-158135000D01*
X173562542Y-158135000D01*
X173685223Y-158110597D01*
X173800785Y-158062729D01*
X173904789Y-157993236D01*
X173993236Y-157904789D01*
X174062729Y-157800785D01*
X174110597Y-157685223D01*
X174135000Y-157562542D01*
X174135000Y-157437458D01*
X174110597Y-157314777D01*
X174062729Y-157199215D01*
X173993236Y-157095211D01*
X173904789Y-157006764D01*
X173800785Y-156937271D01*
X173685223Y-156889403D01*
X173562542Y-156865000D01*
X173437458Y-156865000D01*
X173389402Y-156874559D01*
X173417150Y-156783085D01*
X173426958Y-156683500D01*
X173424500Y-156424000D01*
X173297500Y-156297000D01*
X172799343Y-156297000D01*
X172799343Y-156170000D01*
X173297500Y-156170000D01*
X173424500Y-156043000D01*
X173425552Y-155931948D01*
X173443000Y-155914500D01*
X173443000Y-155097000D01*
X173570000Y-155097000D01*
X173570000Y-155914500D01*
X173697000Y-156041500D01*
X173766500Y-156043958D01*
X173866085Y-156034150D01*
X173961844Y-156005102D01*
X174050095Y-155957930D01*
X174127448Y-155894448D01*
X174190930Y-155817095D01*
X174238102Y-155728844D01*
X174267150Y-155633085D01*
X174276958Y-155533500D01*
X174274500Y-155224000D01*
X174147500Y-155097000D01*
X173570000Y-155097000D01*
X173443000Y-155097000D01*
X172865500Y-155097000D01*
X172738500Y-155224000D01*
X172738091Y-155275500D01*
X172702998Y-155275500D01*
X172702998Y-155361998D01*
X172616500Y-155275500D01*
X172616500Y-155273042D01*
X172516915Y-155282850D01*
X172421156Y-155311898D01*
X172332905Y-155359070D01*
X172282231Y-155400657D01*
X172116500Y-155400657D01*
X172041811Y-155408013D01*
X172016500Y-155415691D01*
X171991189Y-155408013D01*
X171916500Y-155400657D01*
X171616500Y-155400657D01*
X171541811Y-155408013D01*
X171516500Y-155415691D01*
X171491189Y-155408013D01*
X171416500Y-155400657D01*
X171116500Y-155400657D01*
X171041811Y-155408013D01*
X171016500Y-155415691D01*
X170991189Y-155408013D01*
X170916500Y-155400657D01*
X170795903Y-155400657D01*
X170794500Y-155224000D01*
X170667500Y-155097000D01*
X170090000Y-155097000D01*
X170090000Y-155117000D01*
X169963000Y-155117000D01*
X169963000Y-155097000D01*
X169385500Y-155097000D01*
X169258500Y-155224000D01*
X169256042Y-155533500D01*
X169265850Y-155633085D01*
X169294898Y-155728844D01*
X169342070Y-155817095D01*
X169396567Y-155883500D01*
X169389645Y-155891935D01*
X169280080Y-156001500D01*
X169231204Y-156001500D01*
X169096255Y-156028343D01*
X168969136Y-156080997D01*
X168854732Y-156157439D01*
X168757439Y-156254732D01*
X168680997Y-156369136D01*
X168628343Y-156496255D01*
X168601500Y-156631204D01*
X163927000Y-156631204D01*
X163927000Y-154533500D01*
X169256042Y-154533500D01*
X169258500Y-154843000D01*
X169385500Y-154970000D01*
X169963000Y-154970000D01*
X169963000Y-154152500D01*
X170090000Y-154152500D01*
X170090000Y-154970000D01*
X170667500Y-154970000D01*
X170794500Y-154843000D01*
X170796958Y-154533500D01*
X172736042Y-154533500D01*
X172738500Y-154843000D01*
X172865500Y-154970000D01*
X173443000Y-154970000D01*
X173443000Y-154152500D01*
X173570000Y-154152500D01*
X173570000Y-154970000D01*
X174147500Y-154970000D01*
X174274500Y-154843000D01*
X174276958Y-154533500D01*
X174267150Y-154433915D01*
X174238102Y-154338156D01*
X174190930Y-154249905D01*
X174127448Y-154172552D01*
X174050095Y-154109070D01*
X173961844Y-154061898D01*
X173866085Y-154032850D01*
X173766500Y-154023042D01*
X173697000Y-154025500D01*
X173570000Y-154152500D01*
X173443000Y-154152500D01*
X173316000Y-154025500D01*
X173246500Y-154023042D01*
X173146915Y-154032850D01*
X173051156Y-154061898D01*
X172962905Y-154109070D01*
X172885552Y-154172552D01*
X172822070Y-154249905D01*
X172774898Y-154338156D01*
X172745850Y-154433915D01*
X172736042Y-154533500D01*
X170796958Y-154533500D01*
X170787150Y-154433915D01*
X170758102Y-154338156D01*
X170710930Y-154249905D01*
X170647448Y-154172552D01*
X170570095Y-154109070D01*
X170481844Y-154061898D01*
X170386085Y-154032850D01*
X170286500Y-154023042D01*
X170217000Y-154025500D01*
X170090000Y-154152500D01*
X169963000Y-154152500D01*
X169836000Y-154025500D01*
X169766500Y-154023042D01*
X169666915Y-154032850D01*
X169571156Y-154061898D01*
X169482905Y-154109070D01*
X169405552Y-154172552D01*
X169342070Y-154249905D01*
X169294898Y-154338156D01*
X169265850Y-154433915D01*
X169256042Y-154533500D01*
X163927000Y-154533500D01*
X163927000Y-150389341D01*
X182100462Y-150389341D01*
X182461637Y-150851236D01*
X183097992Y-151209782D01*
X183792068Y-151437291D01*
X184517193Y-151525021D01*
X185245499Y-151469600D01*
X185949000Y-151273159D01*
X186600659Y-150943246D01*
X186738363Y-150851236D01*
X187099538Y-150389341D01*
X184600000Y-147889803D01*
X182100462Y-150389341D01*
X163927000Y-150389341D01*
X163927000Y-149627000D01*
X178800000Y-149627000D01*
X178824776Y-149624560D01*
X178848601Y-149617333D01*
X178870557Y-149605597D01*
X178889803Y-149589803D01*
X178905597Y-149570557D01*
X178917333Y-149548601D01*
X178924560Y-149524776D01*
X178927000Y-149500000D01*
X178927000Y-147717193D01*
X180874979Y-147717193D01*
X180930400Y-148445499D01*
X181126841Y-149149000D01*
X181456754Y-149800659D01*
X181548764Y-149938363D01*
X182010659Y-150299538D01*
X184510197Y-147800000D01*
X184689803Y-147800000D01*
X187189341Y-150299538D01*
X187651236Y-149938363D01*
X188009782Y-149302008D01*
X188237291Y-148607932D01*
X188325021Y-147882807D01*
X188269600Y-147154501D01*
X188073159Y-146451000D01*
X187743246Y-145799341D01*
X187651236Y-145661637D01*
X187189341Y-145300462D01*
X184689803Y-147800000D01*
X184510197Y-147800000D01*
X182010659Y-145300462D01*
X181548764Y-145661637D01*
X181190218Y-146297992D01*
X180962709Y-146992068D01*
X180874979Y-147717193D01*
X178927000Y-147717193D01*
X178927000Y-144827000D01*
X182400461Y-144827000D01*
X182100462Y-145210659D01*
%TA.AperFunction,Conductor*%
D25*
G36*
X182100462Y-145210659D02*
G01*
X184600000Y-147710197D01*
X187099538Y-145210659D01*
X186799539Y-144827000D01*
X188473000Y-144827000D01*
X188473000Y-174947394D01*
X178410197Y-185010197D01*
X178394403Y-185029443D01*
X178382667Y-185051399D01*
X178375440Y-185075224D01*
X178373000Y-185100000D01*
X178373000Y-227073000D01*
X163371049Y-227073000D01*
X162833330Y-226197286D01*
X162866405Y-226224430D01*
X162954656Y-226271602D01*
X163050415Y-226300650D01*
X163150000Y-226310458D01*
X164509500Y-226308000D01*
X164636500Y-226181000D01*
X164636500Y-224563500D01*
X164763500Y-224563500D01*
X164763500Y-226181000D01*
X164890500Y-226308000D01*
X166250000Y-226310458D01*
X166349585Y-226300650D01*
X166445344Y-226271602D01*
X166533595Y-226224430D01*
X166610948Y-226160948D01*
X166674430Y-226083595D01*
X166721602Y-225995344D01*
X166750650Y-225899585D01*
X166760458Y-225800000D01*
X166758000Y-224690500D01*
X166631000Y-224563500D01*
X164763500Y-224563500D01*
X164636500Y-224563500D01*
X162769000Y-224563500D01*
X162642000Y-224690500D01*
X162639542Y-225800000D01*
X162649124Y-225897294D01*
X160992891Y-223200000D01*
X162639542Y-223200000D01*
X162642000Y-224309500D01*
X162769000Y-224436500D01*
X164636500Y-224436500D01*
X164636500Y-222819000D01*
X164509500Y-222692000D01*
X163150000Y-222689542D01*
X163050415Y-222699350D01*
X162954656Y-222728398D01*
X162866405Y-222775570D01*
X162789052Y-222839052D01*
X162725570Y-222916405D01*
X162678398Y-223004656D01*
X162649350Y-223100415D01*
X162639542Y-223200000D01*
X160992891Y-223200000D01*
X159927000Y-221464121D01*
X159927000Y-218637458D01*
X163865000Y-218637458D01*
X163865000Y-218762542D01*
X163889403Y-218885223D01*
X163937271Y-219000785D01*
X164006764Y-219104789D01*
X164095211Y-219193236D01*
X164199215Y-219262729D01*
X164293605Y-219301827D01*
X164798173Y-219806396D01*
X164837271Y-219900785D01*
X164906764Y-220004789D01*
X164995211Y-220093236D01*
X165099215Y-220162729D01*
X165214777Y-220210597D01*
X165337458Y-220235000D01*
X165462542Y-220235000D01*
X165585223Y-220210597D01*
X165679610Y-220171500D01*
X165863278Y-220171500D01*
X167228500Y-221536723D01*
X167228500Y-221748012D01*
X167180732Y-221632690D01*
X167084318Y-221488395D01*
X166961605Y-221365682D01*
X166817310Y-221269268D01*
X166656978Y-221202856D01*
X166486771Y-221169000D01*
X166313229Y-221169000D01*
X166143022Y-221202856D01*
X165982690Y-221269268D01*
X165838395Y-221365682D01*
X165715682Y-221488395D01*
X165619268Y-221632690D01*
X165552856Y-221793022D01*
X165519000Y-221963229D01*
X165519000Y-222136771D01*
X165552856Y-222306978D01*
X165619268Y-222467310D01*
X165715682Y-222611605D01*
X165794443Y-222690366D01*
X164890500Y-222692000D01*
X164763500Y-222819000D01*
X164763500Y-224436500D01*
X166631000Y-224436500D01*
X166758000Y-224309500D01*
X166760458Y-223200000D01*
X166750650Y-223100415D01*
X166721602Y-223004656D01*
X166674430Y-222916405D01*
X166658206Y-222896636D01*
X166817310Y-222830732D01*
X166961605Y-222734318D01*
X167084318Y-222611605D01*
X167180732Y-222467310D01*
X167228500Y-222351988D01*
X167228501Y-223375939D01*
X167181766Y-223463373D01*
X167152155Y-223560986D01*
X167142157Y-223662500D01*
X167142157Y-226137500D01*
X167152155Y-226239014D01*
X167181766Y-226336627D01*
X167229851Y-226426587D01*
X167294562Y-226505438D01*
X167373413Y-226570149D01*
X167463373Y-226618234D01*
X167560986Y-226647845D01*
X167662500Y-226657843D01*
X167937500Y-226657843D01*
X168039014Y-226647845D01*
X168136627Y-226618234D01*
X168200000Y-226584360D01*
X168263373Y-226618234D01*
X168360986Y-226647845D01*
X168462500Y-226657843D01*
X168737500Y-226657843D01*
X168839014Y-226647845D01*
X168936627Y-226618234D01*
X169000000Y-226584360D01*
X169063373Y-226618234D01*
X169160986Y-226647845D01*
X169262500Y-226657843D01*
X169537500Y-226657843D01*
X169639014Y-226647845D01*
X169736627Y-226618234D01*
X169800000Y-226584360D01*
X169863373Y-226618234D01*
X169960986Y-226647845D01*
X170062500Y-226657843D01*
X170337500Y-226657843D01*
X170385027Y-226653162D01*
X170441405Y-226699430D01*
X170529656Y-226746602D01*
X170625415Y-226775650D01*
X170725000Y-226785458D01*
X170809500Y-226783000D01*
X170936500Y-226656000D01*
X170936500Y-224963500D01*
X171063500Y-224963500D01*
X171063500Y-226656000D01*
X171190500Y-226783000D01*
X171275000Y-226785458D01*
X171374585Y-226775650D01*
X171470344Y-226746602D01*
X171558595Y-226699430D01*
X171635948Y-226635948D01*
X171699430Y-226558595D01*
X171746602Y-226470344D01*
X171775650Y-226374585D01*
X171785458Y-226275000D01*
X171784473Y-225800000D01*
X172039542Y-225800000D01*
X172049350Y-225899585D01*
X172078398Y-225995344D01*
X172125570Y-226083595D01*
X172189052Y-226160948D01*
X172266405Y-226224430D01*
X172354656Y-226271602D01*
X172450415Y-226300650D01*
X172550000Y-226310458D01*
X173909500Y-226308000D01*
X174036500Y-226181000D01*
X174036500Y-224563500D01*
X174163500Y-224563500D01*
X174163500Y-226181000D01*
X174290500Y-226308000D01*
X175650000Y-226310458D01*
X175749585Y-226300650D01*
X175845344Y-226271602D01*
X175933595Y-226224430D01*
X176010948Y-226160948D01*
X176074430Y-226083595D01*
X176121602Y-225995344D01*
X176150650Y-225899585D01*
X176160458Y-225800000D01*
X176158000Y-224690500D01*
X176031000Y-224563500D01*
X174163500Y-224563500D01*
X174036500Y-224563500D01*
X172169000Y-224563500D01*
X172042000Y-224690500D01*
X172039542Y-225800000D01*
X171784473Y-225800000D01*
X171783000Y-225090500D01*
X171656000Y-224963500D01*
X171063500Y-224963500D01*
X170936500Y-224963500D01*
X170916500Y-224963500D01*
X170916500Y-224836500D01*
X170936500Y-224836500D01*
X170936500Y-223144000D01*
X171063500Y-223144000D01*
X171063500Y-224836500D01*
X171656000Y-224836500D01*
X171783000Y-224709500D01*
X171785458Y-223525000D01*
X171775650Y-223425415D01*
X171746602Y-223329656D01*
X171699430Y-223241405D01*
X171635948Y-223164052D01*
X171558595Y-223100570D01*
X171470344Y-223053398D01*
X171374585Y-223024350D01*
X171275000Y-223014542D01*
X171190500Y-223017000D01*
X171063500Y-223144000D01*
X170936500Y-223144000D01*
X170809500Y-223017000D01*
X170725000Y-223014542D01*
X170682600Y-223018718D01*
X170682600Y-222008062D01*
X170704789Y-221993236D01*
X170734796Y-221963229D01*
X171519000Y-221963229D01*
X171519000Y-222136771D01*
X171552856Y-222306978D01*
X171619268Y-222467310D01*
X171715682Y-222611605D01*
X171838395Y-222734318D01*
X171982690Y-222830732D01*
X172141794Y-222896636D01*
X172125570Y-222916405D01*
X172078398Y-223004656D01*
X172049350Y-223100415D01*
X172039542Y-223200000D01*
X172042000Y-224309500D01*
X172169000Y-224436500D01*
X174036500Y-224436500D01*
X174036500Y-222819000D01*
X174163500Y-222819000D01*
X174163500Y-224436500D01*
X176031000Y-224436500D01*
X176158000Y-224309500D01*
X176160458Y-223200000D01*
X176150650Y-223100415D01*
X176121602Y-223004656D01*
X176074430Y-222916405D01*
X176010948Y-222839052D01*
X175933595Y-222775570D01*
X175845344Y-222728398D01*
X175749585Y-222699350D01*
X175650000Y-222689542D01*
X174290500Y-222692000D01*
X174163500Y-222819000D01*
X174036500Y-222819000D01*
X173909500Y-222692000D01*
X173005557Y-222690366D01*
X173084318Y-222611605D01*
X173180732Y-222467310D01*
X173247144Y-222306978D01*
X173281000Y-222136771D01*
X173281000Y-221963229D01*
X173247144Y-221793022D01*
X173180732Y-221632690D01*
X173084318Y-221488395D01*
X172961605Y-221365682D01*
X172817310Y-221269268D01*
X172656978Y-221202856D01*
X172486771Y-221169000D01*
X172313229Y-221169000D01*
X172143022Y-221202856D01*
X171982690Y-221269268D01*
X171838395Y-221365682D01*
X171715682Y-221488395D01*
X171619268Y-221632690D01*
X171552856Y-221793022D01*
X171519000Y-221963229D01*
X170734796Y-221963229D01*
X170793236Y-221904789D01*
X170862729Y-221800785D01*
X170910597Y-221685223D01*
X170935000Y-221562542D01*
X170935000Y-221437458D01*
X170910597Y-221314777D01*
X170862729Y-221199215D01*
X170793236Y-221095211D01*
X170704789Y-221006764D01*
X170600785Y-220937271D01*
X170485223Y-220889403D01*
X170362542Y-220865000D01*
X170237458Y-220865000D01*
X170114777Y-220889403D01*
X169999215Y-220937271D01*
X169895211Y-221006764D01*
X169806764Y-221095211D01*
X169737271Y-221199215D01*
X169689403Y-221314777D01*
X169666160Y-221431627D01*
X169564223Y-221389403D01*
X169441542Y-221365000D01*
X169316458Y-221365000D01*
X169193777Y-221389403D01*
X169078215Y-221437271D01*
X169000000Y-221489532D01*
X168921785Y-221437271D01*
X168806223Y-221389403D01*
X168683542Y-221365000D01*
X168558458Y-221365000D01*
X168435777Y-221389403D01*
X168371500Y-221416028D01*
X168371500Y-221328073D01*
X168374265Y-221299999D01*
X168363231Y-221187966D01*
X168330552Y-221080238D01*
X168277484Y-220980955D01*
X168260825Y-220960656D01*
X168206067Y-220893933D01*
X168184258Y-220876035D01*
X166523970Y-219215748D01*
X166506067Y-219193933D01*
X166419045Y-219122516D01*
X166319762Y-219069448D01*
X166212034Y-219036769D01*
X166128074Y-219028500D01*
X166100000Y-219025735D01*
X166071926Y-219028500D01*
X165679610Y-219028500D01*
X165606396Y-218998173D01*
X165101827Y-218493605D01*
X165062729Y-218399215D01*
X164993236Y-218295211D01*
X164904789Y-218206764D01*
X164800785Y-218137271D01*
X164685223Y-218089403D01*
X164562542Y-218065000D01*
X164437458Y-218065000D01*
X164314777Y-218089403D01*
X164199215Y-218137271D01*
X164095211Y-218206764D01*
X164006764Y-218295211D01*
X163937271Y-218399215D01*
X163889403Y-218514777D01*
X163865000Y-218637458D01*
X159927000Y-218637458D01*
X159927000Y-213189341D01*
X170100462Y-213189341D01*
X170461637Y-213651236D01*
X171097992Y-214009782D01*
X171792068Y-214237291D01*
X172517193Y-214325021D01*
X173245499Y-214269600D01*
X173949000Y-214073159D01*
X174600659Y-213743246D01*
X174738363Y-213651236D01*
X175099538Y-213189341D01*
X172600000Y-210689803D01*
X170100462Y-213189341D01*
X159927000Y-213189341D01*
X159927000Y-210517193D01*
X168874979Y-210517193D01*
X168930400Y-211245499D01*
X169126841Y-211949000D01*
X169456754Y-212600659D01*
X169548764Y-212738363D01*
X170010659Y-213099538D01*
X172510197Y-210600000D01*
X172689803Y-210600000D01*
X175189341Y-213099538D01*
X175651236Y-212738363D01*
X176009782Y-212102008D01*
X176237291Y-211407932D01*
X176325021Y-210682807D01*
X176269600Y-209954501D01*
X176073159Y-209251000D01*
X175743246Y-208599341D01*
X175651236Y-208461637D01*
X175189341Y-208100462D01*
X172689803Y-210600000D01*
X172510197Y-210600000D01*
X170010659Y-208100462D01*
X169548764Y-208461637D01*
X169190218Y-209097992D01*
X168962709Y-209792068D01*
X168874979Y-210517193D01*
X159927000Y-210517193D01*
X159927000Y-208010659D01*
X170100462Y-208010659D01*
X172600000Y-210510197D01*
X175099538Y-208010659D01*
X174738363Y-207548764D01*
X174102008Y-207190218D01*
X173407932Y-206962709D01*
X172682807Y-206874979D01*
X171954501Y-206930400D01*
X171251000Y-207126841D01*
X170599341Y-207456754D01*
X170461637Y-207548764D01*
X170100462Y-208010659D01*
X159927000Y-208010659D01*
X159927000Y-202353550D01*
X163888659Y-198490932D01*
X163904695Y-198471888D01*
X163916708Y-198450082D01*
X163924236Y-198426351D01*
X163927000Y-198400000D01*
X163927000Y-174289341D01*
X182100462Y-174289341D01*
X182461637Y-174751236D01*
X183097992Y-175109782D01*
X183792068Y-175337291D01*
X184517193Y-175425021D01*
X185245499Y-175369600D01*
X185949000Y-175173159D01*
X186600659Y-174843246D01*
X186738363Y-174751236D01*
X187099538Y-174289341D01*
X184600000Y-171789803D01*
X182100462Y-174289341D01*
X163927000Y-174289341D01*
X163927000Y-171617193D01*
X180874979Y-171617193D01*
X180930400Y-172345499D01*
X181126841Y-173049000D01*
X181456754Y-173700659D01*
X181548764Y-173838363D01*
X182010659Y-174199538D01*
X184510197Y-171700000D01*
X184689803Y-171700000D01*
X187189341Y-174199538D01*
X187651236Y-173838363D01*
X188009782Y-173202008D01*
X188237291Y-172507932D01*
X188325021Y-171782807D01*
X188269600Y-171054501D01*
X188073159Y-170351000D01*
X187743246Y-169699341D01*
X187651236Y-169561637D01*
X187189341Y-169200462D01*
X184689803Y-171700000D01*
X184510197Y-171700000D01*
X182010659Y-169200462D01*
X181548764Y-169561637D01*
X181190218Y-170197992D01*
X180962709Y-170892068D01*
X180874979Y-171617193D01*
X163927000Y-171617193D01*
X163927000Y-169110659D01*
X182100462Y-169110659D01*
X184600000Y-171610197D01*
X187099538Y-169110659D01*
X186738363Y-168648764D01*
X186102008Y-168290218D01*
X185407932Y-168062709D01*
X184682807Y-167974979D01*
X183954501Y-168030400D01*
X183251000Y-168226841D01*
X182599341Y-168556754D01*
X182461637Y-168648764D01*
X182100462Y-169110659D01*
X163927000Y-169110659D01*
X163927000Y-156631204D01*
X168601500Y-156631204D01*
X168601500Y-156768796D01*
X168628343Y-156903745D01*
X168680997Y-157030864D01*
X168757439Y-157145268D01*
X168792000Y-157179829D01*
X168792001Y-157220170D01*
X168757439Y-157254732D01*
X168680997Y-157369136D01*
X168628343Y-157496255D01*
X168601500Y-157631204D01*
X168601500Y-157768796D01*
X168628343Y-157903745D01*
X168680997Y-158030864D01*
X168757439Y-158145268D01*
X168854732Y-158242561D01*
X168969136Y-158319003D01*
X169096255Y-158371657D01*
X169231204Y-158398500D01*
X169368796Y-158398500D01*
X169503745Y-158371657D01*
X169630864Y-158319003D01*
X169745268Y-158242561D01*
X169842561Y-158145268D01*
X169919003Y-158030864D01*
X169971657Y-157903745D01*
X169998500Y-157768796D01*
X169998500Y-157631204D01*
X169971657Y-157496255D01*
X169919003Y-157369136D01*
X169842561Y-157254732D01*
X169808000Y-157220171D01*
X169808000Y-157179829D01*
X169842561Y-157145268D01*
X169919003Y-157030864D01*
X169971657Y-156903745D01*
X169998500Y-156768796D01*
X169998500Y-156741500D01*
X170239369Y-156741500D01*
X170241013Y-156758189D01*
X170262799Y-156830008D01*
X170298178Y-156896196D01*
X170345789Y-156954211D01*
X170403804Y-157001822D01*
X170469992Y-157037201D01*
X170541811Y-157058987D01*
X170616500Y-157066343D01*
X170689464Y-157066343D01*
X170644264Y-157111543D01*
X170574771Y-157215547D01*
X170526903Y-157331109D01*
X170502500Y-157453790D01*
X170502500Y-157578874D01*
X170526903Y-157701555D01*
X170574771Y-157817117D01*
X170644264Y-157921121D01*
X170732711Y-158009568D01*
X170836715Y-158079061D01*
X170952277Y-158126929D01*
X171074958Y-158151332D01*
X171200042Y-158151332D01*
X171322723Y-158126929D01*
X171438285Y-158079061D01*
X171516500Y-158026800D01*
X171594715Y-158079061D01*
X171710277Y-158126929D01*
X171832958Y-158151332D01*
X171958042Y-158151332D01*
X172080723Y-158126929D01*
X172196285Y-158079061D01*
X172300289Y-158009568D01*
X172388736Y-157921121D01*
X172458229Y-157817117D01*
X172480656Y-157762975D01*
X172538150Y-157820469D01*
X172553078Y-157838660D01*
X172625655Y-157898222D01*
X172708457Y-157942480D01*
X172771047Y-157961466D01*
X172798301Y-157969734D01*
X172891737Y-157978937D01*
X172915150Y-157976631D01*
X173078606Y-157976631D01*
X173095211Y-157993236D01*
X173199215Y-158062729D01*
X173314777Y-158110597D01*
X173437458Y-158135000D01*
X173562542Y-158135000D01*
X173685223Y-158110597D01*
X173800785Y-158062729D01*
X173904789Y-157993236D01*
X173993236Y-157904789D01*
X174062729Y-157800785D01*
X174110597Y-157685223D01*
X174135000Y-157562542D01*
X174135000Y-157437458D01*
X174110597Y-157314777D01*
X174062729Y-157199215D01*
X173993236Y-157095211D01*
X173904789Y-157006764D01*
X173800785Y-156937271D01*
X173685223Y-156889403D01*
X173562542Y-156865000D01*
X173437458Y-156865000D01*
X173389402Y-156874559D01*
X173417150Y-156783085D01*
X173426958Y-156683500D01*
X173424500Y-156424000D01*
X173297500Y-156297000D01*
X172799343Y-156297000D01*
X172799343Y-156170000D01*
X173297500Y-156170000D01*
X173424500Y-156043000D01*
X173425552Y-155931948D01*
X173443000Y-155914500D01*
X173443000Y-155097000D01*
X173570000Y-155097000D01*
X173570000Y-155914500D01*
X173697000Y-156041500D01*
X173766500Y-156043958D01*
X173866085Y-156034150D01*
X173961844Y-156005102D01*
X174050095Y-155957930D01*
X174127448Y-155894448D01*
X174190930Y-155817095D01*
X174238102Y-155728844D01*
X174267150Y-155633085D01*
X174276958Y-155533500D01*
X174274500Y-155224000D01*
X174147500Y-155097000D01*
X173570000Y-155097000D01*
X173443000Y-155097000D01*
X172865500Y-155097000D01*
X172738500Y-155224000D01*
X172738091Y-155275500D01*
X172702998Y-155275500D01*
X172702998Y-155361998D01*
X172616500Y-155275500D01*
X172616500Y-155273042D01*
X172516915Y-155282850D01*
X172421156Y-155311898D01*
X172332905Y-155359070D01*
X172282231Y-155400657D01*
X172116500Y-155400657D01*
X172041811Y-155408013D01*
X172016500Y-155415691D01*
X171991189Y-155408013D01*
X171916500Y-155400657D01*
X171616500Y-155400657D01*
X171541811Y-155408013D01*
X171516500Y-155415691D01*
X171491189Y-155408013D01*
X171416500Y-155400657D01*
X171116500Y-155400657D01*
X171041811Y-155408013D01*
X171016500Y-155415691D01*
X170991189Y-155408013D01*
X170916500Y-155400657D01*
X170795903Y-155400657D01*
X170794500Y-155224000D01*
X170667500Y-155097000D01*
X170090000Y-155097000D01*
X170090000Y-155117000D01*
X169963000Y-155117000D01*
X169963000Y-155097000D01*
X169385500Y-155097000D01*
X169258500Y-155224000D01*
X169256042Y-155533500D01*
X169265850Y-155633085D01*
X169294898Y-155728844D01*
X169342070Y-155817095D01*
X169396567Y-155883500D01*
X169389645Y-155891935D01*
X169280080Y-156001500D01*
X169231204Y-156001500D01*
X169096255Y-156028343D01*
X168969136Y-156080997D01*
X168854732Y-156157439D01*
X168757439Y-156254732D01*
X168680997Y-156369136D01*
X168628343Y-156496255D01*
X168601500Y-156631204D01*
X163927000Y-156631204D01*
X163927000Y-154533500D01*
X169256042Y-154533500D01*
X169258500Y-154843000D01*
X169385500Y-154970000D01*
X169963000Y-154970000D01*
X169963000Y-154152500D01*
X170090000Y-154152500D01*
X170090000Y-154970000D01*
X170667500Y-154970000D01*
X170794500Y-154843000D01*
X170796958Y-154533500D01*
X172736042Y-154533500D01*
X172738500Y-154843000D01*
X172865500Y-154970000D01*
X173443000Y-154970000D01*
X173443000Y-154152500D01*
X173570000Y-154152500D01*
X173570000Y-154970000D01*
X174147500Y-154970000D01*
X174274500Y-154843000D01*
X174276958Y-154533500D01*
X174267150Y-154433915D01*
X174238102Y-154338156D01*
X174190930Y-154249905D01*
X174127448Y-154172552D01*
X174050095Y-154109070D01*
X173961844Y-154061898D01*
X173866085Y-154032850D01*
X173766500Y-154023042D01*
X173697000Y-154025500D01*
X173570000Y-154152500D01*
X173443000Y-154152500D01*
X173316000Y-154025500D01*
X173246500Y-154023042D01*
X173146915Y-154032850D01*
X173051156Y-154061898D01*
X172962905Y-154109070D01*
X172885552Y-154172552D01*
X172822070Y-154249905D01*
X172774898Y-154338156D01*
X172745850Y-154433915D01*
X172736042Y-154533500D01*
X170796958Y-154533500D01*
X170787150Y-154433915D01*
X170758102Y-154338156D01*
X170710930Y-154249905D01*
X170647448Y-154172552D01*
X170570095Y-154109070D01*
X170481844Y-154061898D01*
X170386085Y-154032850D01*
X170286500Y-154023042D01*
X170217000Y-154025500D01*
X170090000Y-154152500D01*
X169963000Y-154152500D01*
X169836000Y-154025500D01*
X169766500Y-154023042D01*
X169666915Y-154032850D01*
X169571156Y-154061898D01*
X169482905Y-154109070D01*
X169405552Y-154172552D01*
X169342070Y-154249905D01*
X169294898Y-154338156D01*
X169265850Y-154433915D01*
X169256042Y-154533500D01*
X163927000Y-154533500D01*
X163927000Y-150389341D01*
X182100462Y-150389341D01*
X182461637Y-150851236D01*
X183097992Y-151209782D01*
X183792068Y-151437291D01*
X184517193Y-151525021D01*
X185245499Y-151469600D01*
X185949000Y-151273159D01*
X186600659Y-150943246D01*
X186738363Y-150851236D01*
X187099538Y-150389341D01*
X184600000Y-147889803D01*
X182100462Y-150389341D01*
X163927000Y-150389341D01*
X163927000Y-149627000D01*
X178800000Y-149627000D01*
X178824776Y-149624560D01*
X178848601Y-149617333D01*
X178870557Y-149605597D01*
X178889803Y-149589803D01*
X178905597Y-149570557D01*
X178917333Y-149548601D01*
X178924560Y-149524776D01*
X178927000Y-149500000D01*
X178927000Y-147717193D01*
X180874979Y-147717193D01*
X180930400Y-148445499D01*
X181126841Y-149149000D01*
X181456754Y-149800659D01*
X181548764Y-149938363D01*
X182010659Y-150299538D01*
X184510197Y-147800000D01*
X184689803Y-147800000D01*
X187189341Y-150299538D01*
X187651236Y-149938363D01*
X188009782Y-149302008D01*
X188237291Y-148607932D01*
X188325021Y-147882807D01*
X188269600Y-147154501D01*
X188073159Y-146451000D01*
X187743246Y-145799341D01*
X187651236Y-145661637D01*
X187189341Y-145300462D01*
X184689803Y-147800000D01*
X184510197Y-147800000D01*
X182010659Y-145300462D01*
X181548764Y-145661637D01*
X181190218Y-146297992D01*
X180962709Y-146992068D01*
X180874979Y-147717193D01*
X178927000Y-147717193D01*
X178927000Y-144827000D01*
X182400461Y-144827000D01*
X182100462Y-145210659D01*
G37*
%TD.AperFunction*%
%TD*%
M02*
